<svg id="blowgun" xmlns="http://www.w3.org/2000/svg" width="60" height="60" viewBox="0 0 60 60">
  <rect id="Rectangle_3299" data-name="Rectangle 3299" width="60" height="60" fill="none"/>
  <g id="Layer_1-2" transform="translate(8 7)">
    <g id="Group_52" data-name="Group 52" transform="translate(0 0)">
      <path id="Path_2678" data-name="Path 2678" d="M134.183,1.683c-1.982,2-3.937,3.944-5.869,5.916q-8.232,8.406-16.446,16.831c-.938.96-1.092.949-1.885-.143a4.286,4.286,0,0,0-.4-.482,1.027,1.027,0,0,1,.054-1.681Q119.1,12.8,128.529,3.436,130.084,1.894,131.587.3c.367-.39.645-.432,1.033-.045.521.517,1.083.994,1.563,1.429Z" transform="translate(-89.626 0.017)" fill="#fff"/>
      <path id="Path_2679" data-name="Path 2679" d="M3.527,185.855c-.349-.14-.585-.163-.713-.3A34.6,34.6,0,0,1,.291,182.8a1.019,1.019,0,0,1,.165-1.563c2.859-1.588,5.047-3.961,7.357-6.192,1.028-.994,2.018-2.025,3.026-3.038.766-.772.985-.713,1.71.057,1.5,1.594,1.563,1.488-.2,3.305q-3.379,3.494-6.589,7.149a19.072,19.072,0,0,0-1.6,2.673,4.164,4.164,0,0,1-.641.664Z" transform="translate(-0.004 -140.754)" fill="#fff"/>
      <path id="Path_2680" data-name="Path 2680" d="M131.431,173.335a5.8,5.8,0,0,1-.745.677,7.17,7.17,0,0,1-1.282.621c-3.038,1.012-4.985,3.359-6.963,5.665-.68.793-1.047.763-1.452-.168-.451-1.035-.915-2.064-1.363-3.1-.4-.931-.218-1.216.813-1.311a22.779,22.779,0,0,0,3.9-.408c1.789-.489,3.5-1.259,5.244-1.919a4.442,4.442,0,0,1,.881-.4c.243-.029.516.174.97.347Z" transform="translate(-98.046 -142.009)" fill="#fff"/>
      <path id="Path_2681" data-name="Path 2681" d="M76.392,143.534a5.167,5.167,0,0,1-.537.868c-.985,1.033-1.975,2.061-3,3.053-.752.729-1.239.67-1.939-.132-.039-.045-.073-.095-.115-.136-2.021-2.052-1.608-2.036.129-3.787.65-.654,1.273-1.336,1.95-1.961a1.193,1.193,0,0,1,1.937.072,14.388,14.388,0,0,1,1.047,1.1,6.347,6.347,0,0,1,.53.929Z" transform="translate(-57.014 -115.731)" fill="#fff"/>
      <path id="Path_2682" data-name="Path 2682" d="M140.444,116.112c-.258.338-.383.539-.544.705-.616.646-1.214,1.312-1.869,1.914-1.937,1.778-2.48,4.283-3.477,6.551-.158.36-.367.867-.654.947-.252.072-.693-.308-.97-.573-.752-.72-1.456-1.488-2.188-2.229s-.693-1.028.242-1.5c.768-.389,1.54-.782,2.338-1.1,2.317-.927,3.971-2.677,5.637-4.424a2.2,2.2,0,0,1,.754-.586c.161-.059.424.161.731.3Z" transform="translate(-106.917 -95.067)" fill="#fff"/>
      <path id="Path_2683" data-name="Path 2683" d="M102.69,135.746a3.5,3.5,0,0,1-2.12-2.005.583.583,0,0,1,.936-.507,9.169,9.169,0,0,1,1.427,1.782C103.03,135.166,102.762,135.549,102.69,135.746Z" transform="translate(-82.564 -109.262)" fill="#fff"/>
    </g>
  </g>
</svg>
