<svg id="defense-charm" xmlns="http://www.w3.org/2000/svg" width="60" height="60" viewBox="0 0 60 60">
  <rect id="Rectangle_3308" data-name="Rectangle 3308" width="60" height="60" fill="none"/>
  <g id="Layer_1-2" transform="translate(13 10)">
    <g id="Group_64" data-name="Group 64" transform="translate(0 0)">
      <path id="Path_2816" data-name="Path 2816" d="M2.791,13.71a2.547,2.547,0,0,1-.54.136c-.216,0-.526.024-.622-.1s.03-.415.031-.633c.005-1.257,1.049-2.054,1.391-3.134a33.222,33.222,0,0,0,.776-3.748A8.048,8.048,0,0,1,6.313,1.744,6.917,6.917,0,0,1,10.484.076,26.582,26.582,0,0,1,13.88.03c4,.1,6.843,2.148,8.91,5.437a1,1,0,0,1,.19.568c-.112,1.013.551,1.271,1.335,1.491,2.99.839,5.974,1.7,8.961,2.554a1.588,1.588,0,0,1,1.109,2.35c-.628,1.677-1.21,3.373-1.771,5.075-.988,3-1.949,6.011-2.915,9.02-.727,2.265-1.437,4.534-2.162,6.8-.647,2.017-1.3,4.032-1.963,6.041-.241.723-.846.9-1.695.645C21.94,39.422,20,38.843,18.042,38.3,13.7,37.112,9.358,35.946,5.014,34.771c-1.233-.333-2.462-.676-3.7-.988-1.471-.37-1.632-.809-.954-2.172A13.9,13.9,0,0,0,1.1,29.3c1.158-3.983,2.3-7.972,3.466-11.952Q6.415,11.036,8.3,4.742c.4-1.351,1-1.6,2.352-1.194C13.129,4.3,15.619,4.985,18.1,5.7a6.867,6.867,0,0,0,.832.248,4.723,4.723,0,0,0,.8-.005c-.07-.286-.049-.664-.227-.844a13.732,13.732,0,0,0-1.773-1.534A8.931,8.931,0,0,0,8.976,2.487a4.215,4.215,0,0,0-1.905,1.8,42.185,42.185,0,0,0-1.85,4.1c-.221.5-.413,1.023-.676,1.5-.347.631-.633,1.2-.132,1.923.145.209-.021.657-.092.985a6.192,6.192,0,0,1-.343,1.145,5.083,5.083,0,0,1-.516.781c-.176-.228-.357-.452-.528-.685a2.165,2.165,0,0,1-.145-.335Zm2.2,9.947A4.065,4.065,0,0,0,7.012,26.87a3.357,3.357,0,0,0,3.464.035,3.1,3.1,0,0,1,1.543-.122,11.838,11.838,0,0,0,2.35.248,1.63,1.63,0,0,1,1.311.323c.781.514,1.66.877,2.467,1.353a5.566,5.566,0,0,1,1.081.882c.241.242.373.589.607.84a3.7,3.7,0,0,0,3.753.98c1.421-.542,2.591-1.865,2.519-3.035a2.2,2.2,0,0,1,.964-2,3.482,3.482,0,0,0,.687-4.269,2.678,2.678,0,0,1-.347-1.719,3.207,3.207,0,0,0-1.569-3.569,2.887,2.887,0,0,0-3.572-.092.977.977,0,0,1-1.334-.087c-1.449-1.128-1.459-1.114-1.006-2.9a1.172,1.172,0,0,0,.094-.506c-.051-.2-.167-.481-.326-.539a.655.655,0,0,0-.579.214,3.415,3.415,0,0,0-.5,1,1.505,1.505,0,0,1-1.351,1.274,1.8,1.8,0,0,1-1.989-.846,3.607,3.607,0,0,0-6.212.131,5.114,5.114,0,0,1-1.536,1.564c-1.374.9-2.266,2.937-1.569,4.121a1.385,1.385,0,0,1-.141,1.656,15.3,15.3,0,0,0-.832,1.844ZM20.136,3.841l-.127.1L21.373,5.87c.094-.075.19-.15.284-.223q-.761-.9-1.524-1.8Z" transform="translate(0.025 0.001)" fill="#fff"/>
      <path id="Path_2817" data-name="Path 2817" d="M104.475,99.77c1.008-.352,1.255-.026,1.245.79a5.279,5.279,0,0,0,.431,1.477q-1.051.185-.788,1.846a1.4,1.4,0,0,1,.354-.248c.223-.063.622-.164.661-.094a1.173,1.173,0,0,1,.138.8.672.672,0,0,1-.56.359c-.472-.134-.655.058-.889.427-.262.417-.647.507-.922-.04a3.029,3.029,0,0,1,.612-3.173c.19-.192.162-.6.235-.908l-.22-.052c-.57.73-1.1,1.5-1.735,2.169-.216.227-.7.2-1.058.291a4.512,4.512,0,0,1-.157-.981,9.269,9.269,0,0,1,.235-1.576c.246-1.063.5-2.13.837-3.166.049-.148.68-.282.907-.164a1.5,1.5,0,0,1,.675,2.244Z" transform="translate(-84.065 -80.485)" fill="#fff"/>
      <path id="Path_2818" data-name="Path 2818" d="M115.5,155.957a3.516,3.516,0,0,1-2.742-1.885,1.2,1.2,0,0,1,.235-.957c.328-.467.8-.832,1.147-1.285.446-.581.978-.7,1.473-.2a2.575,2.575,0,0,0,2.062.668c.772-.016,1.077.366.961,1.076a3.656,3.656,0,0,1-3.136,2.589Z" transform="translate(-93.065 -124.938)" fill="#fff"/>
      <path id="Path_2819" data-name="Path 2819" d="M35.973,130.332a3.669,3.669,0,0,1-3.054-2.118,2.346,2.346,0,0,1,.288-2.543c.324-.45.612-.446,1.1-.206a9.374,9.374,0,0,0,2.23.795.906.906,0,0,1,.847.9c.073.567.272,1.121.3,1.688a1.183,1.183,0,0,1-.329.92,6.456,6.456,0,0,1-1.384.565Z" transform="translate(-26.965 -103.458)" fill="#fff"/>
      <path id="Path_2820" data-name="Path 2820" d="M66.264,96.8c-.607.791-1.2,1.592-1.829,2.369-.087.108-.307.108-.533.18V98.281l-.143.1a6.429,6.429,0,0,1-.858-1.042c-.049-.089.366-.432.568-.659l.879.846A13.7,13.7,0,0,0,66.3,96.088a8.234,8.234,0,0,0,1.433-2.094,1.293,1.293,0,0,1,1.367-.828c.629.031.856.413.581,1.025-.483,1.072-1.013,2.122-1.5,3.19a3.771,3.771,0,0,0-.213.833c-.1.5-.324,1.009-.866.825-.279-.094-.453-.683-.547-1.079a5.381,5.381,0,0,1-.019-1.21l-.265.052Z" transform="translate(-51.928 -76.922)" fill="#fff"/>
      <path id="Path_2821" data-name="Path 2821" d="M132.046,99.508c-1.367.082-1.691-.94-2.24-1.752-.155-.228-.577-.256-.823-.448-.23-.18-.528-.448-.533-.683-.005-.214.309-.5.546-.642a2.256,2.256,0,0,1,2.657.4,2.905,2.905,0,0,1,1.409,2.627c-.03.349-.451.664-.825,1.177a1.711,1.711,0,0,1-1.529,1.62c-.218.033-.655-.106-.669-.209a4.661,4.661,0,0,1,.021-1.5c.033-.166.432-.345.675-.359a5.424,5.424,0,0,1,1.119.157l.194-.382Z" transform="translate(-106.052 -79.01)" fill="#fff"/>
      <path id="Path_2822" data-name="Path 2822" d="M39.31,98.757c.19.52,1.043.945.324,1.626a1.606,1.606,0,0,1-1.865-.472c-.525-1.011.912-.619.981-1.417a7.919,7.919,0,0,0-.837.232c-.859.342-1.292.049-1.407-.873a3.19,3.19,0,0,1,1.219-2.74c.465-.458.954-.268,1.18.364a3.4,3.4,0,0,0,.486,1.083c1.044,1.224,1.062,1.21-.08,2.2Z" transform="translate(-30.12 -78.321)" fill="#fff"/>
      <path id="Path_2823" data-name="Path 2823" d="M58.136,75.871a2.858,2.858,0,0,1,2.286,1.2c.45.457.265.866-.331,1.008-.293.07-.631-.063-.934-.016a3.274,3.274,0,0,0-1.294.363c-.563.382-2.24.038-2.455-.624a.863.863,0,0,1,.108-.64,3.353,3.353,0,0,1,2.622-1.3Z" transform="translate(-45.724 -62.634)" fill="#fff"/>
      <path id="Path_2824" data-name="Path 2824" d="M140.369,129.251a23.018,23.018,0,0,1-1.363,2.13c-.113.143-.713.073-.961-.092A9.264,9.264,0,0,1,136.562,130a1.378,1.378,0,0,1-.363-.809c-.009-.12.356-.284.567-.4.645-.354,1.334-.642,1.939-1.053.52-.352,1.042-.307,1.248.274a9.258,9.258,0,0,1,.251,1.1l.167.136Z" transform="translate(-112.451 -105.289)" fill="#fff"/>
      <path id="Path_2825" data-name="Path 2825" d="M96.366,141.942a1.889,1.889,0,0,1-1.637-1.745,1.53,1.53,0,0,1,1.64-1.447c.6.005,1.712.8,1.719,1.234C98.1,140.531,96.848,141.95,96.366,141.942Z" transform="translate(-78.209 -114.561)" fill="#fff"/>
      <path id="Path_2826" data-name="Path 2826" d="M69.887,132.257c.07-1.171.683-1.925,1.522-1.864a1.6,1.6,0,1,1-.392,3.161c-.84-.052-1.18-.443-1.13-1.3Z" transform="translate(-57.695 -107.659)" fill="#fff"/>
      <path id="Path_2827" data-name="Path 2827" d="M53.518,90.53c.671.492,1.447.778,1.578,1.245.1.375-.5,1.058-.931,1.43-.248.209-1.172-1.029-1.156-1.708.007-.265.265-.523.509-.964Z" transform="translate(-43.763 -74.748)" fill="#fff"/>
      <path id="Path_2828" data-name="Path 2828" d="M69.537,99.128a3.682,3.682,0,0,1-.7.183c-.153.017-.324-.12-.488-.188a2.549,2.549,0,0,1,.326-.331c.619-.431,1.248-.844,1.867-1.273a3.283,3.283,0,0,1,.685-.5c.112-.038.467.227.472.363.023.638-1.3,1.785-2.165,1.743Z" transform="translate(-56.43 -80.105)" fill="#fff"/>
      <path id="Path_2829" data-name="Path 2829" d="M130.629,142.67c.561.553,1.039,1.022,1.515,1.492-.234.207-.5.612-.7.584a3.478,3.478,0,0,1-1.328-.558c-.2-.132-.443-.56-.371-.7.148-.291.5-.481.88-.814Z" transform="translate(-107.114 -117.798)" fill="#fff"/>
    </g>
  </g>
</svg>
