<svg id="enjos-remorse-charm" xmlns="http://www.w3.org/2000/svg" width="60" height="60" viewBox="0 0 60 60">
  <rect id="Rectangle_3311" data-name="Rectangle 3311" width="60" height="60" fill="none"/>
  <g id="Layer_1-2" transform="translate(15 9)">
    <g id="Group_65" data-name="Group 65" transform="translate(0 0)">
      <path id="Path_2830" data-name="Path 2830" d="M12.926,40.076a4.048,4.048,0,0,0,3.345-.1c.518-.324.628-.629,1.449-2.278.94-1.89,1.688-3.874,2.608-5.774.357-.737.15-1.079-.483-1.351a13.035,13.035,0,0,0-2.165-.851,1.185,1.185,0,0,0-.962.577c-.563,1.238-1.013,2.528-1.51,3.8-.56,1.426-1.145,2.843-1.677,4.28-.178.479-.187,1.018-.333,1.511a3.938,3.938,0,0,1-.445.793c-.241-.19-.5-.361-.72-.572-.328-.317-.563-.8-.947-.976q-3.235-1.5-6.532-2.857a1.271,1.271,0,0,0-1.111.167c-.46.42-.755.4-1.173-.005C1.624,35.814.922,35.249.285,34.616a.927.927,0,0,1-.263-.743c.811-2.7,1.566-5.432,2.552-8.073.35-.938.1-2.1,1.023-2.866.115-.1-.07-.715-.265-.985-.263-.368-.717-.6-1-.957-.153-.2-.115-.547-.164-.828.256.078.579.084.757.248.872.8,1.693,1.653,2.557,2.46a5.5,5.5,0,0,0,.9.57c.065-.059.131-.117.2-.176a2.452,2.452,0,0,0-.357-.654A15.5,15.5,0,0,1,4.532,21.08a6.856,6.856,0,0,1-.668-1.665c-.171-.42-.4-.819-.554-1.245a2.369,2.369,0,0,1-.113-.807c0-.058.3-.2.34-.159a3.536,3.536,0,0,1,.483.558c.194.253.377.516.565.774a7.113,7.113,0,0,0,.41-.875c.366-1.158.706-2.324,1.056-3.487.258-.858.532-1.712.774-2.575C7.5,9.2,8.106,6.79,8.852,4.417A1.98,1.98,0,0,1,10.06,3.211a23.035,23.035,0,0,1,3.971-.251c.64,0,.823.53.6,1.077-.349.846-.028,1.219.781,1.452.638.183,1.222.544,1.855.748.293.094.79.134.934-.031A1.17,1.17,0,0,0,18.379,5.2a5.087,5.087,0,0,0-3.2-2.985,7.207,7.207,0,0,0-5.05-.024,5.346,5.346,0,0,0-3.537,4.3c-.371,2.245-.68,4.5-1.049,6.747-.044.263-.31.49-.474.734A5.524,5.524,0,0,1,4.41,13.4a1.582,1.582,0,0,1-.2-.49l-1.246.15c.073-.375.126-.753.223-1.123.6-2.282,1.151-4.578,1.832-6.834A6.629,6.629,0,0,1,9.307.381a13.787,13.787,0,0,1,6.29,0A6.863,6.863,0,0,1,19.842,3.07a3.368,3.368,0,0,1,.669,3.255c-.321.858.319,1.154.893,1.428a16.752,16.752,0,0,0,1.708.642c1.266.443,1.572.3,2.061-.913.443-1.105.52-1.133,1.471-.378,1.114.882,2.2,1.8,3.33,2.667a1.291,1.291,0,0,1,.363,1.651c-1.308,2.932-2.693,5.83-4.036,8.748-.737,1.6-1.437,3.225-2.165,4.831a7.8,7.8,0,0,0-.474.818,3.283,3.283,0,0,0-.024.9c.281-.01.563,0,.839-.037.415-.058.823-.155,1.238-.214a.692.692,0,0,1,.112.279,5.491,5.491,0,0,1-1.1.6c-.378.124-.816.061-1.2.173-.2.056-.335.312-.5.479a2.022,2.022,0,0,0,.6.361,6.442,6.442,0,0,0,1.086.016c.009.138.019.274.028.411a5.717,5.717,0,0,1-.978.119c-1.337-.065-1.649.213-2.162,1.477-.737,1.817-1.578,3.591-2.387,5.38-.655,1.452-1.306,2.908-2,4.341a1.855,1.855,0,0,1-.513.615c-1.438,1.166-4.3.2-4.292-.286,0-.091.1-.211.507-.35Zm7.9-12.881a1.851,1.851,0,0,0,2.012-1.072c1.029-2.3,2.062-4.594,3.084-6.895,1.161-2.617,2.291-5.247,3.485-7.848a.864.864,0,0,0-.241-1.208c-.907-.723-1.8-1.464-2.737-2.144-.476-.345-.88-.41-1.149.378-.577,1.694-1.278,3.349-1.94,5.014Q20.92,19.51,18.486,25.6c-.324.814-.063,1.3.791,1.424.516.075,1.036.115,1.553.173Zm-8.8-23.467-.005.073h-.349c-1.722.021-1.9.234-2.312,1.909-.406,1.653-.95,3.272-1.438,4.906q-.557,1.864-1.128,3.725a43.465,43.465,0,0,1-1.454,4.534A1.793,1.793,0,0,0,5.688,21c.335.4.734.739,1.062,1.142.411.507.729.438.938-.129.38-1.032.723-2.076,1.077-3.119q1.1-3.248,2.191-6.5c.788-2.357,1.576-4.714,2.336-7.08a10.387,10.387,0,0,0,.253-1.445l-1.518-.143Zm5.988,11.091c-.071-.065-.141-.131-.213-.2a5.136,5.136,0,0,0-.683.349,1.852,1.852,0,0,1-3.114-.8c-.141-.3-.54-.692-.793-.673-.579.042-.462.551-.462,1.009,0,.4-.117,1.009-.392,1.175-1.034.622-1.161,1.735-1.614,2.662a1.368,1.368,0,0,0,.113.92c.4,1.065.319,1.321-.673,1.991a2.7,2.7,0,0,0-.462.526l.157.16,2.479-1.593c.127,1.538.234,2.842.342,4.144a11.921,11.921,0,0,1,3.155-3.4c.544-.359.432-.854-.021-1.325a6.788,6.788,0,0,1-.954-1.3.618.618,0,0,1,.113-.6.7.7,0,0,1,.635.019c.31.2.54.52.839.739.131.1.352.071.532.1-.026-.178.007-.4-.085-.528-.795-1.131-.75-1.436.281-2.355a7.665,7.665,0,0,0,.823-1.027ZM.984,33.576a3.418,3.418,0,0,0,1.6,2.017.692.692,0,0,0,.537-.361c.3-.718.537-1.464.8-2.2.757-2.155,1.541-4.3,2.24-6.471.119-.37.019-1.095-.227-1.239a7.156,7.156,0,0,0-2.012-.635c-.077-.017-.284.27-.34.446q-.926,2.887-1.818,5.786c-.272.882-.52,1.773-.779,2.659Zm14.583-4.892.72-.8q.335-.369.666-.741a3.772,3.772,0,0,0-1.058-.293,8.426,8.426,0,0,1-6.667-2.341,2.231,2.231,0,0,0-.72-.61.864.864,0,0,0-.779.146c-.256.329.265,1.633.65,1.855.978.558,1.949,1.124,2.927,1.679a1.721,1.721,0,0,0,.483.166c.558.12,1.123.206,1.677.343.647.16,1.283.359,2.1.593ZM18.219,28a2.73,2.73,0,0,0-.594.5c-.051.07.152.452.31.516a17.7,17.7,0,0,0,2.594.929c.268.065.676-.305.952-.553.052-.047-.169-.612-.347-.666-.9-.279-1.837-.471-2.915-.729Zm.37-13.934c.366-.066.561-.044.675-.131Q20.6,12.892,21.9,11.814a1.051,1.051,0,0,0,.31-.507.534.534,0,0,0-.089-.462.474.474,0,0,0-.452.049c-.858.732-1.71,1.475-2.533,2.247a4.505,4.505,0,0,0-.547.922Zm-12.7,10.57a2.166,2.166,0,0,0,.542-.343.4.4,0,0,0-.073-.375,18.479,18.479,0,0,0-1.776-.781c-.132-.049-.342.106-.516.169.073.174.1.431.228.507.509.3,1.051.549,1.6.825Z" transform="translate(-0.008 -0.016)" fill="#fff"/>
      <path id="Path_2831" data-name="Path 2831" d="M67.1,103.61c-.234.589-.438,1.1-.64,1.609-.272-.209-.706-.37-.785-.636-.162-.553.38-.947,1.424-.973Z" transform="translate(-54.204 -85.55)" fill="#fff"/>
    </g>
  </g>
</svg>
