<svg id="forbidden-medicine" xmlns="http://www.w3.org/2000/svg" width="60" height="60" viewBox="0 0 60 60">
  <rect id="Rectangle_3302" data-name="Rectangle 3302" width="60" height="60" fill="none"/>
  <g id="Layer_1-2" transform="translate(4 4)">
    <g id="Group_55" data-name="Group 55" transform="translate(0 0)">
      <path id="Path_2702" data-name="Path 2702" d="M32.1,193.235a3.361,3.361,0,0,1-3.386-2.265,3.585,3.585,0,0,1,.693-3.6c.07-.1.165-.172.24-.263.3-.356.587-.942,1.115-.464s.1.974-.265,1.363a2.384,2.384,0,0,0-.292,3.271,2.749,2.749,0,0,0,3.108.732,10.912,10.912,0,0,0,5.042-4.186,4.6,4.6,0,0,1,.677-.709c.211-.2.464-.3.7-.043a.46.46,0,0,1,.005.654c-1.4,1.522-2.489,3.346-4.292,4.492a5.344,5.344,0,0,1-3.352,1.017Z" transform="translate(-23.367 -153.073)" fill="#fff"/>
      <path id="Path_2703" data-name="Path 2703" d="M225.869,113.135c-1.74.061-2.876,1.185-4.03,2.292-1.346,1.293-2.335,2.947-4,3.923a1.659,1.659,0,0,1-.716.335c-.22.016-.423-.014-.523-.243a.4.4,0,0,1,.186-.537c2.448-1.243,3.7-3.756,5.746-5.425a6.975,6.975,0,0,1,2.92-1.438,1.029,1.029,0,0,1,.355-.018c.51.07,1.167.167,1.151.752-.018.668-.691.3-1.094.36Z" transform="translate(-177.78 -91.953)" fill="#fff"/>
      <path id="Path_2704" data-name="Path 2704" d="M51.174,189.009a2.367,2.367,0,0,1-1.934-1.175,1.027,1.027,0,0,1,.047-1.253c.168-.261.358-.5.705-.444.421.073.326.421.333.711.023.883.5,1.212,1.337.931a8.14,8.14,0,0,0,2.349-1.042c.226-.167.621-.392.874-.018.238.353-.052.58-.312.809a6.258,6.258,0,0,1-3.4,1.479Z" transform="translate(-40.258 -152.796)" fill="#fff"/>
      <path id="Path_2705" data-name="Path 2705" d="M233.173,96.4a.581.581,0,0,1-.075.224c-1.146,1.341-1.337,3.162-2.3,4.591a13.259,13.259,0,0,1-.94,1.185.473.473,0,0,1-.711.1.465.465,0,0,1,.007-.718c1.16-1.191,1.538-2.772,2.161-4.235a3.443,3.443,0,0,1,1.094-1.5.54.54,0,0,1,.591-.057c.145.075.183.222.175.41Z" transform="translate(-187.974 -78.747)" fill="#fff"/>
      <path id="Path_2706" data-name="Path 2706" d="M189.334,28.472a1.582,1.582,0,0,1-.367,1.243c-.218.224-.478.423-.779.226a.5.5,0,0,1-.1-.723c.512-.7.355-1.216-.385-1.572-.7-.34-1.18.1-1.6.573-.265.3-.548.684-.933.389s-.084-.707.15-1.012c1.141-1.481,2.756-1.558,3.712-.208a1.623,1.623,0,0,1,.3,1.085Z" transform="translate(-151.856 -21.689)" fill="#fff"/>
      <path id="Path_2707" data-name="Path 2707" d="M75.239,233.386a4.014,4.014,0,0,1,1.894-2.688c.491-.124.741.165.679.646a1.1,1.1,0,0,1-.471.734c-.6.432-1.1.9-.893,1.755.039.161,0,.412-.242.376-.276-.039-.628.032-.786-.3a3.771,3.771,0,0,1-.179-.523Z" transform="translate(-61.76 -189.364)" fill="#fff"/>
      <path id="Path_2708" data-name="Path 2708" d="M125.3,244.114c-.032.129-.021.329-.113.4a6,6,0,0,1-2.072,1.49c-.3.084-.616.124-.777-.22a.567.567,0,0,1,.218-.713c.632-.489,1.255-.994,1.919-1.44.5-.333.772-.1.825.476Z" transform="translate(-100.38 -199.881)" fill="#fff"/>
      <path id="Path_2709" data-name="Path 2709" d="M165.431,208.444a3.211,3.211,0,0,1,.6.462,23.192,23.192,0,0,1,2.251,3.076c.179.3.491.779.011,1-.433.2-.621-.265-.809-.62a25.381,25.381,0,0,0-2.263-3.069c-.147-.2-.29-.385-.179-.645a.338.338,0,0,1,.394-.21Z" transform="translate(-135.449 -171.113)" fill="#fff"/>
      <path id="Path_2710" data-name="Path 2710" d="M45.547,155.028c-.2-.081-.372-.1-.458-.192a.344.344,0,0,1,.039-.485,9.519,9.519,0,0,1,3.162-2.079.328.328,0,0,1,.4.115.419.419,0,0,1-.021.575,18.01,18.01,0,0,1-3.119,2.066Z" transform="translate(-36.94 -124.981)" fill="#fff"/>
      <g id="Group_54" data-name="Group 54">
        <path id="Path_2711" data-name="Path 2711" d="M204.829,101.763a.372.372,0,0,0-.346-.351.362.362,0,0,0-.389.3,1.746,1.746,0,0,0-.072.614c.066.7-.245.868-.9.811a3.9,3.9,0,0,0-1.764.1c-.353.134-.695.363-.455.793.218.392.593.244.836.011.509-.491.94-.161,1.339.109.689.467.723,2.6.066,3.13-.229.184-.389.2-.5.124a2.718,2.718,0,0,1,.154,1.32v.009a1.144,1.144,0,0,1,.514-.55,1.44,1.44,0,0,0,.77-.838,23.286,23.286,0,0,0,.765-4.6c0-.328.014-.655-.016-.979Z" transform="translate(-164.858 -83.247)" fill="#fff"/>
        <path id="Path_2712" data-name="Path 2712" d="M51.731,27.3a4.3,4.3,0,0,1,.005-.983,2.179,2.179,0,0,0-.8-1.98c-.476-.408-.446-.732-.018-1.184a2.808,2.808,0,0,0,.779-1.558c.381-2.883-1-4.784-3.389-6.039a2.084,2.084,0,0,1-1.1-1,4.506,4.506,0,0,0-2.054-2.356c-.467-.27-.594-.65-.186-1.1a1.594,1.594,0,0,0,.365-1.252c-.147-1.649-2.7-4.163-4.834-3.572-.381.106-.7.14-.768-.406a3.3,3.3,0,0,0-3.678-3.268,1.652,1.652,0,0,1-1.581-.618A4.944,4.944,0,0,0,31.629.306c-1.012-.367-2.19-.641-3.18.363-.249.252-.659.34-.464.781.213.482.578.383.97.181a3.771,3.771,0,0,1,4.317.56c.79.612.8.816.011,1.395a6.185,6.185,0,0,0-2.288,4,3.273,3.273,0,0,0,.344,2.342c.174.3.448.53.808.387.31-.122.281-.446.186-.7-.772-2.066.011-3.687,1.423-5.157a3.246,3.246,0,0,1,3.3-.652c2.068.892,1.871,3.789.371,5.2A17.136,17.136,0,0,1,33.9,11.044a7.518,7.518,0,0,0-3.429,3.1c-.367.741-.27,1.608-.867,2.279-.32.36.206,1.008.727.89.82-.188,1.637-.467,1.83-1.459a1.3,1.3,0,0,1,.378-.688,6.751,6.751,0,0,1,2.62-2.084c.4-.125.988-.426.632-1.042-.274-.474-.106-.584.3-.773a5.851,5.851,0,0,0,3-2.661,2.027,2.027,0,0,1,2.55-1.076,3.135,3.135,0,0,1,2.124,1.62,1.754,1.754,0,0,1-.974,2.5,6.247,6.247,0,0,0-2.734,1.762c-.922.915-1.03,2.172-1.355,3.325a.632.632,0,0,0,.594.831c.457-.009.637-.342.539-.825a1.534,1.534,0,0,1,.138-1.026,4.179,4.179,0,0,1,2.675-2.476,2.34,2.34,0,0,1,3.21,1.887,1.3,1.3,0,0,0,.773,1.083c.555.3,1.187.347,1.726.7a4.409,4.409,0,0,1,1.977,4.775,1.467,1.467,0,0,1-1.642,1.382,4.123,4.123,0,0,0-2.987,1.184,23.077,23.077,0,0,1-5.448,3.787,5.1,5.1,0,0,0-1.8.922c-.4.426-.591,1.162-.131,1.293a22.254,22.254,0,0,1,2.643,1.04,8.652,8.652,0,0,0,2,.278,2.022,2.022,0,0,0,1.461-.206c.466-.32.544-.066.766.292.464.75.933,1.547,2.07,1.343.448-.081.7.236.754.693a2.058,2.058,0,0,1-2.489,2.5c-2.038-.455-3.928.19-5.765.679a5.406,5.406,0,0,1-5.712-1.565c-.227-.229-.688-.483-.335-.859.254-.272.58.014.87.186a7.678,7.678,0,0,0,6.208.72c1.552-.448,2.981-1.318,4.621-.4a1.2,1.2,0,0,0,.26.064c.317.084.593.075.738-.286s-.09-.525-.331-.729c-1.373-1.171-2.87-.8-4.374-.378-1.157.328-2.256.985-3.5.82-1.645-.217-2.324-1.5-3.932-1.316a.894.894,0,0,1-.4.064c-.251.052-.5.115-.654.141-.016.013-.03.025-.047.036h0a.568.568,0,0,1,.183.206.424.424,0,0,1-.423.666c-.639.052-.732.492-.417.856,1.343,1.542,2.607,3.235,5.024,3.076a16.221,16.221,0,0,0,3.962-.534,8.444,8.444,0,0,1,2.913-.329,2.381,2.381,0,0,1,2.072,1.554,2.964,2.964,0,0,1-1.431,2.417,2.018,2.018,0,0,0-1.5,1.654,2.477,2.477,0,0,1-2.005,1.807c-.383.075-.63-.009-.743-.419A5.51,5.51,0,0,0,37.375,40.4a2.006,2.006,0,0,1-1.069-.886,7.236,7.236,0,0,0,4.308.222,2.457,2.457,0,0,1,2.657.376c.265.245.781.442,1.038.041.3-.458-.161-.72-.5-.983-1.01-.79-2.159-.521-3.268-.426-1.264.107-2.519.535-3.782-.025a.54.54,0,0,0-.713.211c-.4.688-.849.362-1.25.047a8.367,8.367,0,0,1-2.526-3.506c-.254-.621-.543-.6-1-.437-.276.1-.534.249-.8.367a.553.553,0,0,0-.249.936c.548.765,1.1,1.531,1.7,2.251a13.012,13.012,0,0,1,2.655,4.87,2.647,2.647,0,0,1-.8,3.192,2.261,2.261,0,0,1-3.359-.363,1.72,1.72,0,0,1,.029-1.991,1.6,1.6,0,0,1,1.907-.254c.356.2.881.46.8.865-.1.5-.646.2-1,.2-.537,0-.849.161-.609.734a1.167,1.167,0,0,0,1.851.349,1.8,1.8,0,0,0,.385-2.263,2.847,2.847,0,0,0-2.605-1.388,2.8,2.8,0,0,0-1.873,3.97,3.79,3.79,0,0,0,2.908,1.955c.981-.043,3.044-1.518,3.164-2.448a7.369,7.369,0,0,0-.285-3.961c-.372-.87-.9-1.656-1.28-2.535,1.327,1.141,3.049,1.556,4.415,2.625a3.463,3.463,0,0,1,.858,4.671,1.192,1.192,0,0,1-1.407.478c-.65-.19-.394-.695-.371-1.112a1.736,1.736,0,0,0,.048-.263c-.045-.439-.013-.994-.634-1-.605,0-.423.537-.44.886a2.9,2.9,0,0,1-.731,2.226c-1.674,1.42-3.486,2.158-5.713,1.108a3.322,3.322,0,0,1-2.163-2.987,9.261,9.261,0,0,0-.043-1.339,2.431,2.431,0,0,1,.372-1.769,2.384,2.384,0,0,0,.095-2.152c-.491-1.221-1.056-1.361-2.02-.732a1.178,1.178,0,0,0-.471,1.167,8.919,8.919,0,0,1-.666,3.993,6.115,6.115,0,0,1-1.944,1.978c-.317.274-.564.6-.247,1s.666.19,1-.07A7.5,7.5,0,0,0,25.7,45.866c.084-.154.159-.362.374-.317.231.048.19.261.168.44a4.446,4.446,0,0,1-4.483,3.964,2.82,2.82,0,0,1-2.824-3.006c.023-.8.038-1.611-.005-2.414-.036-.691-.652-1.042-1.08-.621a2.649,2.649,0,0,0-.808,1.25c-.285,1.205-.709,1.491-1.993,1.37-.211-.02-.433-.045-.539.2s.038.4.206.537c.53.426,1.058.8,1.721.19a10.832,10.832,0,0,1,1.006-.741c0,.963-.507,1.563-1.615,1.955a2.107,2.107,0,0,1-2.175-.623c-1.391-1.166-1.194-2.927-1.692-4.426-.09-.269.149-.482.3-.707.643-.947,1.751-1.295,2.559-2.029a5.676,5.676,0,0,0,1.869-2.731c.269-.951.113-2.118,1.074-2.843.249-.188.1-.5-.106-.709-.252-.254-.487-.143-.695.073A3.416,3.416,0,0,0,15.771,37c.095,2.082-1.418,3.064-2.718,4.059a5.941,5.941,0,0,0-1.961,2.05c-.073.152-.075.38-.331.324-.174-.038-.184-.213-.231-.351a.808.808,0,0,1,.079-.756,3.827,3.827,0,0,1,2-1.791,4.64,4.64,0,0,0,1.73-1.354c.249-.263.716-.641.426-.944-.344-.36-.77.075-1.047.353a9.677,9.677,0,0,1-4.131,2.319,4.853,4.853,0,0,1-5.112-1.38A17,17,0,0,0,3.04,37.962,5.462,5.462,0,0,1,1.5,36.134C.834,34.3.385,32.466,1.427,30.571c.46-.836.722-.96,1.5-.394,1.194.876,2.414,1.722,4,.816.3-.174.489-.337.421-.677a.475.475,0,0,0-.684-.372,3.325,3.325,0,0,1-3.094-.6,4.5,4.5,0,0,1-1.345-1.735c-.3-.485.227-.854.437-1.264a1.193,1.193,0,0,0-.17-1.341,1.514,1.514,0,0,1-.4-.682c-.308-1.975-.342-3.855,1.468-5.262.363-.281.879-.435,1.062-.913.245-.643.555-.392.84-.072a5.24,5.24,0,0,0,1.486,1.117c.177.095.449.1.473.347.029.312-.27.362-.478.446A5.823,5.823,0,0,0,3.47,24.294a3.976,3.976,0,0,0,1.538,3.32c.177.093.593-.027.44.363-.1.261-.433.179-.639.088-.374-.167-.748-.387-.917.2-.172.6.319.709.718.786a4.619,4.619,0,0,0,3.706-.818c.523-.376,1.049-.748,1.572-1.126s1.058-.75,1.565-1.151a.52.52,0,0,0,.175-.714c-.208-.3-.462-.138-.693.027-.526.376-1.158.559-1.688.949-.752.555-1.57,1.022-2.342,1.552-.333.229-.671.113-.759-.138-.231-.65-.827-.913-1.246-1.355a2.008,2.008,0,0,1-.519-1.982A4.515,4.515,0,0,1,11.6,21.85c.3.236.661.625,1.11.381.48-.26.349-.775.338-1.214a1.185,1.185,0,0,0-.5-.813,2.535,2.535,0,0,1-.707-1.008,4.344,4.344,0,0,1,1.28-4.711,11.345,11.345,0,0,0,3.329-6.116.424.424,0,0,1,.3-.4c.19-.043.238.12.3.258a.518.518,0,0,0,.87.233c.825-.577,1.395.14,1.91.491s-.217.65-.351.992c-.082.213-.306.435-.063.641a.49.49,0,0,0,.716-.113c.849-.976,1.051-2.009-.106-2.786a6.476,6.476,0,0,0-1.5-.652,2.561,2.561,0,0,1,2.591-.149c1.3.834,1.742.833.786,2.494a9.69,9.69,0,0,1-2.29,2.338c-1.807,1.56-3.864,3.026-3.325,5.927.05.269,0,.564-.344.627a.566.566,0,0,1-.684-.44,6.46,6.46,0,0,1-.07-1.151c-.011-.245-.036-.494-.294-.6s-.442.084-.616.249a1.353,1.353,0,0,0-.158,1.785,3.3,3.3,0,0,0,1.653,1.561c.621.29.765-.356,1.078-.662.077-.075.22-.082.333-.12a.623.623,0,0,0,.4-.985,3.032,3.032,0,0,1,.738-3.515c1.626-1.842,3.651-3.309,5.021-5.4a1.23,1.23,0,0,0,.018-1.613,1.365,1.365,0,0,1-.38-1.218c.131-.614-.217-.705-.661-.432a1.531,1.531,0,0,1-1.452.032,1.888,1.888,0,0,0-1.04-.158c-.967.177-1.436-.184-1.379-1.166a3.5,3.5,0,0,1,2.365-3.065,4.715,4.715,0,0,1,6.326,1.753,3.43,3.43,0,0,1,0,3.1c-.283-.473.009-1.357-.489-1.431-.79-.115-1.073-.591-1.427-1.126a.54.54,0,0,0-.781-.2c-.269.211-.177.541.036.793a2.142,2.142,0,0,1,.4,1.425c.048,2.079.159,4.161-1,6.045-.213.346-.109.677.369.654.559-.027.661.278.627.723a3.739,3.739,0,0,1-.113.969c-.2.555.088.777.523.936.906.331,1.445-.021,1.558-1.08a12.808,12.808,0,0,1,1.16-4.179,1.465,1.465,0,0,0,.172-.945,2.321,2.321,0,0,1,.12-1.305,6.106,6.106,0,0,0-1.611-6.426c-.666-.7-1.549-1.45-2.732-.949-.2.086-.338-.063-.5-.068a6.274,6.274,0,0,0-4.093.784,4.177,4.177,0,0,0-1.821,4.446.986.986,0,0,1-.643,1.137c-.294.159-.725.2-.87-.152a4.45,4.45,0,0,0-1.234-1.5c-.358-.337-.279-.519.075-.836a4.27,4.27,0,0,1,1.823-.886.575.575,0,0,0,.449-.673c-.027-.387-.283-.473-.616-.492a2.635,2.635,0,0,0-2.424,1.221c-.543.816-1.049.779-1.869.519a4.332,4.332,0,0,0-3.787.713A5.9,5.9,0,0,0,6.354,6.7.728.728,0,0,1,6,7.078a3.365,3.365,0,0,0-1.4,5.028,1.072,1.072,0,0,1-.009,1.273,2.863,2.863,0,0,0-.27,2.872.755.755,0,0,1-.355,1.185A6.289,6.289,0,0,0,.634,22.013a3.461,3.461,0,0,0,.192,2.009c.329.9,1.114,1.778.36,2.877a1.306,1.306,0,0,0,.034,1.121c.326.6.056.956-.326,1.323a2.838,2.838,0,0,0-.926,2.369c.084,1.395.021,2.8.005,4.2,0,.145-.056.26.072.4a18.606,18.606,0,0,0,2.834,3.04,5.031,5.031,0,0,1,1.053,1.081A4.83,4.83,0,0,0,5.18,41.556a5.526,5.526,0,0,0,3.359.628c.865-.043,1.305.132,1.162,1.1a2.169,2.169,0,0,0,.6,1.878,3.693,3.693,0,0,1,1.117,1.488,4.53,4.53,0,0,0,1.728,2.315,2.688,2.688,0,0,0,4.09-.039c.467-.423.791-.335,1,.236a3.32,3.32,0,0,0,2.381,1.912,6.7,6.7,0,0,0,2.781.1c.088-.018.208.007.261-.043.942-.867,2.165-1.452,2.723-2.705.238-.535.612-.65.872-.072a3.588,3.588,0,0,0,1.928,1.767,5.862,5.862,0,0,0,6.963-1.21c.281-.3.594-.585,1-.421,1.352.55,2.276-.313,3.072-1.076.634-.607.936-1.32,2.032-1.567a3.527,3.527,0,0,0,2.337-2.51,1.7,1.7,0,0,1,1.176-1.228c1.264-.4,2.528-3.01,1.481-4.272-.3-.362-.218-.589.24-.8a3.153,3.153,0,0,0,1.563-4.252.67.67,0,0,1,.018-.679,6.451,6.451,0,0,1,1.239-1.6,3.129,3.129,0,0,0,1.414-3.21ZM5.248,9.5c.17-.714.811-.983,1.3-1.389a.254.254,0,0,1,.387.082c.075.15-.05.269-.136.392-.637.9-.535,1.594.312,2.165.292.2.612.313.879,0A.532.532,0,0,0,7.9,9.9c-.6-.408-.36-.743.088-1.006.492-.29.881-.979,1.631-.442.838.6.99,1.044.5,1.948-.192.353-.5.763.013.96a.725.725,0,0,0,.981-.63c.389-2.011.534-2.174-.7-3.18-.845-.689-1.841-.369-2.827-.077A1.6,1.6,0,0,1,8.1,6.109a4.521,4.521,0,0,1,6.646.208,2.33,2.33,0,0,1,.458,2.192,11.159,11.159,0,0,1-3.144,5.653,4.749,4.749,0,0,0-1.221,5.461.9.9,0,0,1-1-.763,5.455,5.455,0,0,1,1.073-4.781c.786-1.083,1.423-2.254,2.095-3.406a1.82,1.82,0,0,0,.177-.5c.1-.423.158-.915-.329-1.08-.566-.192-.585.38-.679.713a13.189,13.189,0,0,1-2.095,3.678A5.751,5.751,0,0,0,8.745,17.3c.018.184-.02.371-.251.4-.251.038-.365-.1-.437-.335a3.238,3.238,0,0,1-.013-1.934c.091-.3.478-.709-.093-.879a.825.825,0,0,0-1.064.688,2.426,2.426,0,0,0-.073,1.74.393.393,0,0,1-.12.551c-.2.1-.326-.081-.457-.2a2.951,2.951,0,0,1-.849-3.3c.163-.466.512-.412.872-.408.254,0,.584.1.677-.256.088-.337-.12-.5-.412-.684A3.094,3.094,0,0,1,5.248,9.5Zm45.339,18.92a3.371,3.371,0,0,1-1.021,1.2,2.885,2.885,0,0,0-1.117,1.454,1.086,1.086,0,0,1-1.979.322c-.58-.75-1.5-.917-2.317-1.432.883-.56,1.377-1.518,2.421-1.758a1.9,1.9,0,0,1,.532-.048c.335.02.829-.149.908.308.068.4-.426.414-.711.53-.8.331-.92.7-.371,1.2.261.238.489.3.772.034.211-.2.476-.344.684-.544.5-.483,1.212-.91.888-1.769a2.136,2.136,0,0,0-2.433-.976,4.736,4.736,0,0,0-2.392,1.452.577.577,0,0,1-.929.088.682.682,0,0,0-.97-.048c-.487.548-1.266.478-1.78.974-.286.276-.718.124-1.225-.1,2.36-1.239,4.616-2.279,6.394-4.091a4.1,4.1,0,0,1,1.468-.793,2.584,2.584,0,0,1,2.723.535,2.918,2.918,0,0,1,.457,3.463Z" transform="translate(0.039 0.03)" fill="#fff"/>
      </g>
    </g>
    <g id="Group_56" data-name="Group 56" transform="translate(12.619 16.186)">
      <path id="Path_2713" data-name="Path 2713" d="M134.944,125.041c-.063.68-.091,1.366-.2,2.039a.927.927,0,0,1-1.083.824c-2.974-.127-5.95-.238-8.924-.356-.953-.038-1.905-.127-2.858-.113a6.311,6.311,0,0,1-3.139-1.16.751.751,0,0,1-.31-1.139c.4-.722,1.629-1.486,2.335-1.173,1.782.793,3.1-.192,4.482-.958,2.029-1.121,4.027-2.294,6.061-3.4a1.325,1.325,0,0,1,1.013-.039,4.7,4.7,0,0,1,2.623,4.491c-.03.326-.032.655-.047.981a.376.376,0,0,1,.045,0Z" transform="translate(-109.721 -114.269)" fill="#fff"/>
      <path id="Path_2714" data-name="Path 2714" d="M117.934,168.491c-2.247-.177-5.232-1.626-5.26-4.628-.011-1.132-.029-2.265.02-3.395a1.408,1.408,0,0,1,.414-.893c.088-.082.514.215.795.319a13.043,13.043,0,0,0,3.479,1.214c3.654.206,7.323.156,10.985.226a2.5,2.5,0,0,1,.765.288c-.143.24-.229.569-.44.705-1.545,1-3.112,1.962-4.677,2.929-1.341.829-2.662,1.692-4.041,2.451a13.549,13.549,0,0,1-2.039.782Z" transform="translate(-105.102 -147.172)" fill="#fff"/>
      <path id="Path_2715" data-name="Path 2715" d="M112.829,104.488c-1.3-.226-2.448-.41-3.586-.627-1.484-.283-1.91-1.577-2.442-2.714-.093-.2.206-.763.467-.913,1.927-1.115,3.889-2.17,5.841-3.243.027-.014.061-.018.081-.038,1.295-1.4,2.512-.731,3.79.077,1.18.745,2.44,1.357,3.644,2.064a3.991,3.991,0,0,1,.72.723,4.026,4.026,0,0,1-.677.6q-3.309,1.84-6.641,3.636a7.771,7.771,0,0,1-1.192.432Zm-1.565-2.077c.874.016,1.755-.569,1.774-1.178s-.808-1.218-1.719-1.241-1.828.591-1.821,1.232c.007.616.829,1.171,1.764,1.187Z" transform="translate(-100.276 -95.107)" fill="#fff"/>
      <path id="Path_2716" data-name="Path 2716" d="M91.219,139.194c-.014-1.391-.177-2.825.858-3.982a5.9,5.9,0,0,1,1.273-1.2c.2-.116.777.118.976.362a1.777,1.777,0,0,0,1.354.861c.573.03.731.688.217,1.121-2.213,1.871-1.629,4.406-1.669,6.791,0,.267.279.528.337.811a2.431,2.431,0,0,1-.082.739,1.938,1.938,0,0,1-.645-.127c-1.533-.949-2.718-2.129-2.619-4.123.021-.415,0-.833,0-1.25Z" transform="translate(-87.484 -126.17)" fill="#fff"/>
      <path id="Path_2717" data-name="Path 2717" d="M89.465,90.372l.818.559a4.283,4.283,0,0,1-.759.709c-2.2,1.244-4.424,2.458-6.637,3.687-.453.252-.439.566-.26,1.051a1.5,1.5,0,0,1-.244,1.144,5.676,5.676,0,0,1-1,.874.781.781,0,0,1-1.184,0,10.635,10.635,0,0,0-1.287-.96c-.815-.5-.863-.922-.057-1.42,2.079-1.286,4.161-2.566,6.27-3.8,1.022-.6,2.1-1.1,3.171-1.608a5.718,5.718,0,0,1,1.175-.24Z" transform="translate(-76.87 -90.37)" fill="#fff"/>
      <path id="Path_2718" data-name="Path 2718" d="M70.44,134.17a17.535,17.535,0,0,1,.358-2.541c.236-.829.478-.77,1.212-.326,1.377.833,2.079,1.687,1.484,3.511-.385,1.18.063,2.628.12,3.957a4.351,4.351,0,0,1-.1.752,1.98,1.98,0,0,1-.725-.149,4.622,4.622,0,0,1-2.236-3.851c0-.448,0-.9,0-1.341l-.113-.011Z" transform="translate(-70.44 -123.712)" fill="#fff"/>
    </g>
  </g>
</svg>
