<svg id="half-bow" xmlns="http://www.w3.org/2000/svg" width="60" height="60" viewBox="0 0 60 60">
  <rect id="Rectangle_3307" data-name="Rectangle 3307" width="60" height="60" fill="none"/>
  <g id="Layer_1-2" transform="translate(10 11)">
    <g id="Group_57" data-name="Group 57" transform="translate(0 0)">
      <path id="Path_2719" data-name="Path 2719" d="M32.08,4.971C23.029,13.985,13.957,23.023,4.711,32.23c.46-.131.748-.186,1.017-.294.551-.222,1.083-.491,1.638-.705.487-.188,1.042-.51,1.361.233a1.252,1.252,0,0,1-.757,1.672c-.9.4-1.8.786-2.657,1.257a19.872,19.872,0,0,0-1.921,1.3A2.119,2.119,0,0,0,2.38,37.379a1.222,1.222,0,0,1-1.2,1.316c-.63.018-1.117-.618-1.167-1.452a5.5,5.5,0,0,1,1.722-4.619Q17.413,17.111,32.893,1.4C34.027.257,37.155-.429,38.376.311a4.294,4.294,0,0,1,.834.926c-.338.226-.659.605-1.021.648A3.465,3.465,0,0,0,35.7,3.4a13.948,13.948,0,0,0-2.716,4.876,12.057,12.057,0,0,0-.294,1.928c-.054.628-.328.908-.969.879-.661-.03-1-.328-.974-1A9.085,9.085,0,0,1,31.8,5.79a3.974,3.974,0,0,0,.281-.818Z" transform="translate(0 -0.003)" fill="#fff"/>
      <path id="Path_2720" data-name="Path 2720" d="M125.51,139.645a4.677,4.677,0,0,1-.553.913c-.827.772-1.645,1.563-2.541,2.249a1.78,1.78,0,0,1-2.892-1.13,1.349,1.349,0,0,1,.39-1.008,29.837,29.837,0,0,1,2.7-2.469c.344-.27,1.1-.494,1.35-.31a9.959,9.959,0,0,1,1.542,1.755Z" transform="translate(-98.115 -113.147)" fill="#fff"/>
      <path id="Path_2721" data-name="Path 2721" d="M151.57,114.39a5.935,5.935,0,0,1,1.558,1.119c.167.226-.159.927-.41,1.318a6.737,6.737,0,0,1-1.293,1.468c-.256.217-.842.41-1.028.274-.492-.362-1.207-.79-.856-1.572a14.346,14.346,0,0,1,1.287-2.134c.132-.2.428-.279.743-.473Z" transform="translate(-122.689 -93.909)" fill="#fff"/>
      <path id="Path_2722" data-name="Path 2722" d="M169.234,79.5c-.184.917-.351,1.882-.589,2.829a.753.753,0,0,1-.564.43,1.687,1.687,0,0,1-1.526-2.047,11.473,11.473,0,0,0,.4-1.449c.079-.621.163-1.123.979-1.037C168.892,78.328,169.258,78.652,169.234,79.5Z" transform="translate(-136.695 -64.212)" fill="#fff"/>
      <path id="Path_2723" data-name="Path 2723" d="M100.49,162.982c-.011-.679.795-1.325,1.7-1.364.6-.027,1.7,1.175,1.678,1.825-.02.553-1.483,1.425-2.378,1.418C100.785,164.855,100.509,164.338,100.49,162.982Z" transform="translate(-82.497 -132.681)" fill="#fff"/>
      <path id="Path_2724" data-name="Path 2724" d="M66.691,172.237c-.474,0-.743.005-1.012,0-.512-.013-.967-.1-.988-.761-.02-.589.107-1.089.788-1.2.7-.115,1.411-.215,2.12-.292.611-.066.858.3.9.852s.124,1.135-.6,1.291a8.011,8.011,0,0,1-1.214.111Z" transform="translate(-53.107 -139.543)" fill="#fff"/>
    </g>
  </g>
</svg>
