<svg id="heavens-sting-blowgun" xmlns="http://www.w3.org/2000/svg" width="60" height="60" viewBox="0 0 60 60">
  <rect id="Rectangle_3310" data-name="Rectangle 3310" width="60" height="60" fill="none"/>
  <g id="Layer_1-2" transform="translate(8 8)">
    <g id="Group_58" data-name="Group 58" transform="translate(0 0)">
      <path id="Path_2725" data-name="Path 2725" d="M21.049,4.26c3.513.517,7.132,2.227,8.478,6.15A12.45,12.45,0,0,1,30,12.041c.041.206-.122.453-.192.68a2.373,2.373,0,0,1-.675-.415c-.159-.2-.143-.53-.294-.738a2.617,2.617,0,0,0-.621-.467c-.056.235-.211.5-.145.7a9.068,9.068,0,0,0,.659,1.361,2.386,2.386,0,0,1,.054,2.693c-.292.43-.482.8.106,1.207.179.122.159.56.2.859.07.535.138,1.071.163,1.61.02.433.143,1.1-.077,1.259a2.9,2.9,0,0,1-1.663.521c-.249,0-.53-.6-.734-.961a8.107,8.107,0,0,1-.426-1.065c-.233.095-.652.17-.664.286a2.394,2.394,0,0,0,.129,1.221c.286.6.557,1.108-.317,1.413-.056.02-.129.048-.149.093-.605,1.327-1.511.815-2.458.458A4.1,4.1,0,0,0,19.43,23a1.074,1.074,0,0,1-1.6-.378,3.212,3.212,0,0,1-.426-2.242,1.367,1.367,0,0,0-.186-.893c-.079-.14-.53-.252-.6-.179a4.123,4.123,0,0,0-.423.8c-.247.432-.48,1.167-.782,1.2a2.633,2.633,0,0,1-1.656-.543c-.208-.147-.124-.781-.079-1.182s.335-.8.286-1.175c-.084-.639-.3-1.226.449-1.637.072-.039-.016-.559-.156-.77a2.514,2.514,0,0,1,.018-2.927,6.739,6.739,0,0,0,.639-1.275c.066-.192-.091-.462-.149-.7-.22.14-.509.233-.645.43-.161.235-.138.593-.292.834-.124.193-.394.29-.6.432-.1-.22-.315-.464-.278-.657A8.731,8.731,0,0,1,17.2,5.825,31.066,31.066,0,0,1,21.049,4.26Zm4.322,8.179a7.2,7.2,0,0,1,1.685,1.33c.4.6-.181,1.126-.661,1.468a9.705,9.705,0,0,1-1.407.675c-.2.095-.372.222-.559.335.141.2.24.483.435.593a2.158,2.158,0,0,0,2.491-.668c.9-1.044,1.083-2.14.474-2.917a3.916,3.916,0,0,0-3.594-1.372c-.705.048-1.205-.013-1.583-.654-.091-.154-.385-.188-.587-.278-.088.229-.278.476-.244.686a9.4,9.4,0,0,0,.426,1.637c.353,1.006.738,1.055,1.511.329a16.093,16.093,0,0,1,1.61-1.166Zm-6.514-.333c-.061-.131-.12-.261-.181-.392a18.821,18.821,0,0,0-2.621.75,1.856,1.856,0,0,0-1.257,2.2,2.811,2.811,0,0,0,2.594,2.328,1.369,1.369,0,0,0,.682-.165,2.431,2.431,0,0,0,.458-.591c-.213-.109-.426-.317-.637-.313a2.159,2.159,0,0,1-1.98-1.305,1.342,1.342,0,0,1,.118-1.189,1.689,1.689,0,0,1,2.517-.306,8.983,8.983,0,0,1,.731.654c.541.491.949.44,1.241-.238a9.369,9.369,0,0,0,.534-1.79c.045-.215-.127-.473-.2-.713-.224.1-.458.177-.67.294-.449.249-.888.517-1.33.777Zm4.052,6.009c-.392-.752-.739-1.466-1.15-2.141a.8.8,0,0,0-.668.136,8.5,8.5,0,0,0-.838,1.654,1.262,1.262,0,0,0,.064.856,10.329,10.329,0,0,0,2.1.206c.156,0,.306-.428.494-.709Zm-5.3-4.6c-.319.374-.509.6-.7.822a4.422,4.422,0,0,0,.9.705c.082.038.584-.446.543-.6C18.268,14.147,17.944,13.913,17.607,13.517Zm8.675.725c-.55-.231-.87-.492-1.112-.433-.258.063-.442.426-.659.659.24.2.5.6.713.569C25.519,15,25.774,14.648,26.282,14.242ZM23.718,21.13c.059-.134.12-.269.179-.4l-.956-.462-.2.494Zm-3.108-.636c-.449-.129-.679-.276-.827-.218-.208.082-.356.315-.53.485.183.1.381.292.544.265.211-.034.394-.244.813-.532Z" transform="translate(-10.628 -3.497)" fill="#fff"/>
      <path id="Path_2726" data-name="Path 2726" d="M135.079,1.635c-6.473,6.648-12.85,13.2-19.232,19.747-1.04,1.067-2.095,2.118-3.146,3.173-.6.6-.915.568-1.431-.124-1.293-1.731-1.271-1.708.285-3.246q10.3-10.179,20.564-20.392c.5-.5.956-1.115,1.687-.6a7.879,7.879,0,0,1,1.271,1.443Z" transform="translate(-90.585 0.002)" fill="#fff"/>
      <path id="Path_2727" data-name="Path 2727" d="M3.769,184.631C2.811,184.593,0,181.947,0,181.3a1.05,1.05,0,0,1,.34-.808c3.468-1.844,5.971-4.809,8.734-7.47.688-.661,1.355-1.345,2.009-2.038.528-.559,1-.589,1.466.059a6.763,6.763,0,0,0,.562.695c.951,1,.926,1.114-.059,2.143-2.267,2.365-4.553,4.716-6.734,7.16a25.279,25.279,0,0,0-1.918,3,2.883,2.883,0,0,1-.63.589Z" transform="translate(0 -140.019)" fill="#fff"/>
      <path id="Path_2728" data-name="Path 2728" d="M122.341,180.49a2.97,2.97,0,0,1-.56-.628c-.523-1.1-1.026-2.217-1.5-3.343-.351-.836-.043-1.18.979-1.271a30.073,30.073,0,0,0,4.786-.535,32.131,32.131,0,0,0,4.449-1.821c.163-.07.313-.26.462-.252a4.471,4.471,0,0,1,.859.2c-.127.242-.193.573-.394.707a5.942,5.942,0,0,1-1.434.718c-3,.978-4.867,3.339-6.82,5.588a3.566,3.566,0,0,0-.419.9Z" transform="translate(-98.631 -141.728)" fill="#fff"/>
      <path id="Path_2729" data-name="Path 2729" d="M69.9,144.506a3.889,3.889,0,0,1,.476-.861c.988-1.035,1.982-2.066,3.024-3.047.725-.682,1.2-.627,1.925.075,1.937,1.866,1.937,2.1.02,3.957-.705.686-1.4,1.38-2.1,2.072a1.009,1.009,0,0,1-1.681-.072c-.39-.451-.82-.867-1.2-1.325a5.54,5.54,0,0,1-.457-.8Z" transform="translate(-57.384 -115.027)" fill="#fff"/>
      <path id="Path_2730" data-name="Path 2730" d="M140.446,114.17c.2.141.417.226.415.3a1.278,1.278,0,0,1-.167.725,9.877,9.877,0,0,1-1.252,1.271,13.658,13.658,0,0,0-3.808,6.243c-.2.56-.437,1.107-.654,1.662-.24.616-.639.584-1.031.2-.958-.936-1.9-1.887-2.822-2.863-.478-.508-.278-.885.321-1.166a25.9,25.9,0,0,0,3.9-1.957,48.68,48.68,0,0,0,4.032-3.479c.349-.308.7-.618,1.06-.938Z" transform="translate(-107.431 -93.728)" fill="#fff"/>
      <path id="Path_2731" data-name="Path 2731" d="M103.689,134.517c-.286.095-.714.358-.838.254a9.037,9.037,0,0,1-1.594-1.642c-.292-.406.249-1.1.589-.849a18.159,18.159,0,0,1,1.927,1.846c-.027.129-.056.26-.082.389Z" transform="translate(-83.059 -108.553)" fill="#fff"/>
    </g>
  </g>
</svg>
