<svg id="last-breath-charm" xmlns="http://www.w3.org/2000/svg" width="60" height="60" viewBox="0 0 60 60">
  <rect id="Rectangle_3334" data-name="Rectangle 3334" width="60" height="60" fill="none"/>
  <g id="Layer_1-2" transform="translate(15 9)">
    <path id="Path_2834" data-name="Path 2834" d="M29.984,9.752c-1.126-.868-2.214-1.785-3.33-2.667-.952-.753-1.029-.727-1.471.378-.488,1.217-.795,1.356-2.061.913a16.6,16.6,0,0,1-1.708-.642c-.574-.274-1.213-.57-.893-1.428a3.368,3.368,0,0,0-.669-3.255A6.868,6.868,0,0,0,15.607.364a13.811,13.811,0,0,0-6.29,0A6.636,6.636,0,0,0,5.028,5.085C4.345,7.341,3.8,9.639,3.2,11.919c-.1.368-.15.748-.223,1.123l1.246-.15a1.5,1.5,0,0,0,.2.49,5.24,5.24,0,0,0,.654.567c.164-.244.431-.471.474-.734.371-2.245.678-4.5,1.049-6.747a5.346,5.346,0,0,1,3.537-4.3,7.207,7.207,0,0,1,5.05.024,5.082,5.082,0,0,1,3.2,2.985,1.179,1.179,0,0,1-.181,1.009c-.145.164-.642.126-.934.031-.633-.2-1.219-.565-1.855-.748-.809-.232-1.13-.6-.781-1.452.227-.547.044-1.077-.6-1.077a23.024,23.024,0,0,0-3.971.251A1.976,1.976,0,0,0,8.862,4.4c-.746,2.373-1.356,4.787-2.028,7.182-.241.863-.516,1.717-.774,2.575C5.71,15.32,5.37,16.486,5,17.644a6.866,6.866,0,0,1-.41.875c-.188-.258-.371-.521-.565-.774a3.536,3.536,0,0,0-.483-.558c-.044-.037-.34.1-.34.159a2.369,2.369,0,0,0,.113.807c.155.425.384.825.554,1.245a6.9,6.9,0,0,0,.668,1.665,15.826,15.826,0,0,0,1.693,1.532,2.4,2.4,0,0,1,.357.654c-.065.059-.131.117-.2.176a5.784,5.784,0,0,1-.9-.57c-.865-.805-1.686-1.66-2.557-2.46-.178-.164-.5-.169-.757-.248.049.281.01.628.164.828.277.361.732.589,1,.957.194.27.38.889.265.985-.919.762-.671,1.928-1.023,2.866C1.6,28.424.843,31.153.032,33.857A.927.927,0,0,0,.3,34.6c.636.633,1.341,1.2,1.986,1.822.418.4.713.425,1.173.005a1.266,1.266,0,0,1,1.111-.167q3.295,1.36,6.532,2.857c.384.178.621.659.947.976a4.228,4.228,0,0,0,.384.319h0c0,.488,2.854,1.452,4.292.286a1.855,1.855,0,0,0,.513-.615c.694-1.435,1.342-2.889,2-4.341.807-1.789,1.649-3.562,2.387-5.38.513-1.264.823-1.539,2.162-1.477a5.7,5.7,0,0,0,.978-.119c-.009-.138-.019-.274-.028-.411a6.63,6.63,0,0,1-1.086-.016,1.966,1.966,0,0,1-.6-.361c.164-.166.3-.422.5-.479.385-.112.823-.049,1.2-.173a5.443,5.443,0,0,0,1.1-.6.692.692,0,0,0-.112-.279c-.415.059-.823.157-1.238.214a8.388,8.388,0,0,1-.839.037,3.283,3.283,0,0,1,.024-.9,7.234,7.234,0,0,1,.474-.818c.729-1.607,1.428-3.229,2.165-4.831,1.342-2.917,2.73-5.814,4.036-8.748a1.291,1.291,0,0,0-.363-1.651ZM6.169,26.545c-.7,2.172-1.484,4.318-2.24,6.471-.258.736-.5,1.482-.8,2.2a.69.69,0,0,1-.537.361,3.419,3.419,0,0,1-1.6-2.017c.26-.886.507-1.776.779-2.659Q2.666,28,3.59,25.116c.056-.176.263-.465.34-.446a7.213,7.213,0,0,1,2.012.635c.244.145.345.87.227,1.239Zm.27-2.272a2.235,2.235,0,0,1-.542.343c-.546-.275-1.088-.521-1.6-.825-.131-.077-.155-.333-.228-.507.174-.061.384-.218.516-.169a19.388,19.388,0,0,1,1.776.781.392.392,0,0,1,.073.375ZM18.494,8.57a.354.354,0,0,1,.434.312c-.023.244-.192.335-.4.352-.187.016-.359-.054-.378-.26a.352.352,0,0,1,.349-.4ZM19.847,14.2a3.371,3.371,0,0,1-1.574,2.571,9.566,9.566,0,0,1-1.5.983c-1.47.825-2.42,2.242-3.551,3.448-.185.2-.445.636-.141.844.321.218.565-.192.725-.448a6.409,6.409,0,0,1,2.826-2.223,7.277,7.277,0,0,0,4.3-7.285,2.159,2.159,0,0,0-.4-1.123c-.209-.3-.3-.708.028-.94.375-.263.647.1.861.364a3.057,3.057,0,0,1,.483,1.991,8.074,8.074,0,0,1-4.714,7.808,12.765,12.765,0,0,0-3.86,3.138.791.791,0,0,0-.068.826c.068.232.136.472-.1.633a.564.564,0,0,1-.338.1c-.241-.1-.485-.206-.729-.3a1.266,1.266,0,0,1-.579-1.081c0-.349,0-.7,0-1.044a5.055,5.055,0,0,1,2.587-4.5c1.13-.746,2.472-1.123,3.49-2.033.717-.642,1.627-1.248,1.24-2.449a3.413,3.413,0,0,0-1.933-2.2A2.235,2.235,0,0,0,14.11,12.43c-.793,1.215-.685,1.431.274,2.6.251.305.635.671.225,1.048s-.729-.033-1.022-.312a2.782,2.782,0,0,1-.823-3.115c1.117-2.287,2.493-2.749,3.8-2.5A3.686,3.686,0,0,1,19.847,14.2ZM15.828,24.549a2,2,0,0,0-.455.514c-.345.328-.4.261-.593.465-.418.448-.27.91-.607,1.079a.673.673,0,0,1-.563-.023c.052-.139.917-2.409,1.567-2.852a.78.78,0,0,1,.626-.176.5.5,0,0,1,.234.174c.239.31.082.586-.207.816Zm-2.917-6.487c-.234.589-.438,1.1-.64,1.609-.272-.209-.706-.37-.785-.636C11.325,18.482,11.868,18.088,12.912,18.062Zm-2.23-2.069c-.065-.27.134-.411.446-.476.364.324.957.458,1.056,1.083.049.31-.113.513-.441.474A1.231,1.231,0,0,1,10.682,15.993Zm6.361-2.767c-.119-.286-.34-.225-.582-.173-.312.066-.812.256-.825-.22A.832.832,0,0,1,16.463,12c.772-.031,1.393.635,1.355,1.879a1.792,1.792,0,0,1-1.173,1.28,1.9,1.9,0,0,1-2.047-.936.615.615,0,0,1,.12-.854c.31-.227.439.167.589.328.673.72,1.14.779,1.607.173a.614.614,0,0,0,.129-.643ZM14.057,6.964c.356-.112.718-.2,1-.282a4.691,4.691,0,0,1,1.656.479c.213.119.394.282.3.554a.408.408,0,0,1-.5.253,9.659,9.659,0,0,0-2.329-.119c-.242,0-.481-.054-.542-.329-.075-.329.157-.472.418-.556ZM6.76,22.129c-.328-.4-.727-.746-1.062-1.142a1.791,1.791,0,0,1-.347-2.123A43.464,43.464,0,0,0,6.8,14.33q.573-1.859,1.128-3.725C8.421,8.971,8.965,7.351,9.371,5.7c.413-1.675.589-1.886,2.312-1.909h.349l.005-.073,1.518.143A10.179,10.179,0,0,1,13.3,5.3c-.76,2.366-1.548,4.723-2.336,7.08q-1.088,3.253-2.191,6.5C8.423,19.926,8.079,20.97,7.7,22c-.209.567-.525.636-.938.129Zm3.366-.037c-.361.655-.556.975-.649,1.123a5.507,5.507,0,0,0-.455.919.8.8,0,0,0-.225-.293.821.821,0,0,0-.5-.18A21.782,21.782,0,0,1,9.45,21.608c.091-.127.246-.31.431-.312a.364.364,0,0,1,.223.085c.258.2.153.471.023.71ZM7.738,24.035a.855.855,0,0,1,.779-.146,2.213,2.213,0,0,1,.72.61A8.418,8.418,0,0,0,15.9,26.84a3.772,3.772,0,0,1,1.058.293c-.221.248-.443.493-.666.741l-.72.8c-.818-.234-1.454-.432-2.1-.593-.553-.138-1.119-.223-1.677-.343a1.722,1.722,0,0,1-.483-.166c-.98-.554-1.951-1.123-2.927-1.679-.385-.22-.907-1.524-.65-1.855Zm5.124,10.219a3.427,3.427,0,0,0-.7-2.165,11.385,11.385,0,0,1-1.321-2.5c-.194-.446-.418-.992.138-1.428.228-.18.164-.418-.028-.6l-.038-.038c.42.162.835.342,1.245.532a.974.974,0,0,0-.607.3c-.22.23-.047.57.089.88.635,1.461,1.637,2.746,2.04,4.318a1.5,1.5,0,0,1,.08.764c-.082.309-.176.689-.56.68-.5-.012-.329-.453-.336-.737Zm.586-3.244a5.441,5.441,0,0,1-.188-1.853c-.009-.225-.024-.561-.054-.975a.529.529,0,0,1,.675.248.421.421,0,0,1-.113.338,4.42,4.42,0,0,0,.244.882,1.354,1.354,0,0,0,.291.64,2.261,2.261,0,0,1,.4,1.036.517.517,0,0,1-.3.647c-.289.11-.452-.08-.619-.326a3.253,3.253,0,0,1-.338-.636Zm-1.438,5.5c-.091.366-.544.933-1.06.614s-.309-.842.042-1.271a2.349,2.349,0,0,0,.078-2.557c-.589-1.4-1.381-2.716-1.993-4.111a15.812,15.812,0,0,1-.812-2.39c-.112-.434-.188-.8-.239-1.062a1.24,1.24,0,0,0,.413.384,1.207,1.207,0,0,0,.359.134,3.19,3.19,0,0,0,.31,1.1,6.51,6.51,0,0,0,.385.6,41.424,41.424,0,0,0,2.425,4.822,5.4,5.4,0,0,1,.092,3.741Zm8.328-4.6c-.92,1.9-1.668,3.884-2.608,5.774-.821,1.649-.931,1.954-1.449,2.278a3.906,3.906,0,0,1-3.176.153,1.3,1.3,0,0,0,.1-.244c.146-.493.157-1.032.333-1.511.53-1.436,1.117-2.854,1.677-4.28.5-1.267.947-2.557,1.51-3.8a1.179,1.179,0,0,1,.962-.577,13.188,13.188,0,0,1,2.165.851c.633.274.84.614.483,1.351Zm1.154-2.535c-.275.248-.683.617-.952.553A17.7,17.7,0,0,1,17.945,29c-.159-.066-.359-.448-.31-.516a2.643,2.643,0,0,1,.594-.5c1.077.258,2.01.45,2.915.729a.966.966,0,0,1,.347.666Zm7.93-18.01c-1.194,2.6-2.324,5.232-3.485,7.848-1.022,2.3-2.055,4.6-3.084,6.895a1.851,1.851,0,0,1-2.012,1.072c-.518-.056-1.039-.1-1.553-.173-.854-.126-1.116-.61-.791-1.424Q20.925,19.5,23.354,13.4c.662-1.665,1.363-3.319,1.94-5.014.268-.788.673-.723,1.149-.378.938.68,1.832,1.421,2.737,2.144a.864.864,0,0,1,.241,1.208Z" transform="translate(-0.018 0)" fill="#fff"/>
  </g>
</svg>
