<svg id="master-katana" xmlns="http://www.w3.org/2000/svg" width="60" height="60" viewBox="0 0 60 60">
  <rect id="Rectangle_3317" data-name="Rectangle 3317" width="60" height="60" fill="none"/>
  <g id="Layer_1-2" transform="translate(-165.879 -63.126)">
    <g id="Group_47" data-name="Group 47" transform="translate(174.878 73.126)">
      <path id="Path_2620" data-name="Path 2620" d="M62.622,84.7c.229-.182.458-.365.689-.547l.189.131a5.509,5.509,0,0,1-.941,1.278c-2.107,1.583-3.85,3.649-6.381,4.678a33.512,33.512,0,0,1-7.271,2.126,13.474,13.474,0,0,1-7.827-1.453,35.28,35.28,0,0,1-5-2.782A11.662,11.662,0,0,1,33.8,85.753a.943.943,0,0,1,.147-.9,26.275,26.275,0,0,1,3.142-2.471c.252-.161,1.091.206,1.371.56a9.887,9.887,0,0,0,3.2,2.5,11,11,0,0,0,5.108,1.3,12.683,12.683,0,0,0,3.941-.313,25.775,25.775,0,0,0,4.37-2.128c2.628-1.42,3.975-3.894,4.826-6.557a9.923,9.923,0,0,0,.439-5.172c-.332-1.5-.631-3.008-.883-4.522a1.136,1.136,0,0,1,.313-.906c1.214-1,2.473-1.939,3.721-2.9.43-.33.727-.189.979.261A13.233,13.233,0,0,1,66.214,71a43.965,43.965,0,0,1-.343,5.816A15.307,15.307,0,0,1,63.4,83.007c-.322.507-.633,1.019-.948,1.53.056.056.114.11.17.166Z" transform="translate(-27.839 -52.861)" fill="#fff"/>
      <path id="Path_2621" data-name="Path 2621" d="M81.954,21.554c.435-.269.894-.509,1.3-.815q5.618-4.218,11.223-8.458c2.577-1.946,5.073-4.013,7.752-5.807,2.06-1.38,2.5-3.184,2.23-5.412A4.247,4.247,0,0,1,104.6,0l.358.031a6.58,6.58,0,0,1,.082.715,26.82,26.82,0,0,0,.03,2.882,2.708,2.708,0,0,1-1.219,2.6c-2.635,2.065-5.274,4.125-7.939,6.15q-6.119,4.648-12.279,9.242c-1.235.923-2.518,1.784-3.758,2.7-.577.427-.965.341-1.367-.245-.624-.911-1.285-1.8-1.971-2.665-.374-.474-.233-.785.185-1.088q8.407-6.1,16.811-12.211c2.987-2.179,5.942-4.4,8.922-6.585a3.269,3.269,0,0,1,.832-.315c.059.268.131.533.178.8.353,2.025-.657,3.238-2.242,4.377-4.113,2.95-8.114,6.057-12.157,9.107-2,1.506-4,3-5.975,4.541a12.243,12.243,0,0,0-1.287,1.35l.143.164Z" transform="translate(-62.974 0)" fill="#fff"/>
      <path id="Path_2622" data-name="Path 2622" d="M71.512,5.8a13.828,13.828,0,0,0,1.626.8,9.248,9.248,0,0,0,1.609.311A14.175,14.175,0,0,1,81.57,9.995c.533.439.6.806,0,1.236q-2.062,1.469-4.1,2.971a1.184,1.184,0,0,1-1.429.023c-.81-.416-1.8-.5-2.581-.948-1.357-.78-2.742-.149-4.087-.184A9.461,9.461,0,0,0,65.74,14.1c-1.537.637-2.007.558-2.889-.824a18.087,18.087,0,0,0-1.385-1.887c-.964-1.147-.81-2.037.561-2.6,2.041-.839,4.078-1.694,6.162-2.413A21.391,21.391,0,0,1,71.514,5.8Z" transform="translate(-50.21 -4.786)" fill="#fff"/>
      <path id="Path_2623" data-name="Path 2623" d="M19.389,80.632v1.25c.768-.108.892.252.775.911a2.924,2.924,0,0,1-1.233,2.32,1.01,1.01,0,0,0-.121,1.661A2.348,2.348,0,0,1,19.4,88.7c-.063.589.206,1.208.192,1.81a1.663,1.663,0,0,1-.428,1.126c-1.014.867-2.1,1.654-3.17,2.452-.717.532-.925.423-1.105-.484a20.49,20.49,0,0,1-.5-2.387c-.136-1.789-.18-3.585-.226-5.379a3.572,3.572,0,0,1,.252-.916c.18-.661.329-1.334.544-1.983a2.578,2.578,0,0,1,.537-.974c.315-.323.773-.528.171-.988-.047-.035-.031-.254.028-.3.094-.08.292-.17.369-.124.5.294.963.656,1.476.92a.921.921,0,0,0,.726-.024,9.108,9.108,0,0,0,1.131-.813Z" transform="translate(-11.682 -66.456)" fill="#fff"/>
      <path id="Path_2624" data-name="Path 2624" d="M48.763,113.532a7.331,7.331,0,0,1,.5-.729c.607-.675.976-.638,1.511.1.593.827,1.179,1.661,1.8,2.464.355.458.376.82-.1,1.184s-.815.273-1.173-.2c-.589-.773-1.233-1.506-1.854-2.256l-.212.152c.411.637.789,1.3,1.238,1.9,1.194,1.611,2.438,3.184,3.616,4.807.17.233.087.649.121.981-.287-.129-.682-.18-.845-.4q-3.832-5.249-7.593-10.55c-.156-.219-.075-.605-.1-.913.261.122.605.177.766.379.577.729,1.084,1.511,1.633,2.263.194.268.432.5.7.808Z" transform="translate(-37.683 -90.831)" fill="#fff"/>
      <path id="Path_2625" data-name="Path 2625" d="M1.805,181.348c-.738-.017-1.988-1.346-1.787-1.791s.719-.712,1.1-1.058a17.151,17.151,0,0,1,1.558,1.965C2.734,180.562,2.031,181.125,1.805,181.348Z" transform="translate(0.004 -147.287)" fill="#fff"/>
      <path id="Path_2626" data-name="Path 2626" d="M26.422,164.708c-.561-.093-1.264-.072-1.236-.951.019-.609.047-1.3.941-1.242.561.035,1.231.012,1.322.806a1.234,1.234,0,0,1-1.025,1.387Z" transform="translate(-20.781 -134.094)" fill="#fff"/>
      <path id="Path_2627" data-name="Path 2627" d="M42.789,151.668c-.061.93-.367,1.27-1.107,1.2-.614-.059-1.186-.2-1.086-1.018.073-.605.208-1.2,1.018-1.105.558.066,1.221.068,1.175.923Z" transform="translate(-33.488 -124.375)" fill="#fff"/>
      <path id="Path_2628" data-name="Path 2628" d="M55.668,141.688l.458-.528q.593.7,1.184,1.388c-.166.142-.344.416-.5.4C56.215,142.895,55.649,142.725,55.668,141.688Z" transform="translate(-45.932 -116.476)" fill="#fff"/>
      <path id="Path_2629" data-name="Path 2629" d="M14.394,175.516l-.432.479q-.645-.719-1.292-1.436c.147-.128.29-.358.441-.364.822-.021,1.263.376,1.282,1.32Z" transform="translate(-10.454 -143.735)" fill="#fff"/>
      <path id="Path_2630" data-name="Path 2630" d="M25.012,65.742c.247.684.407,1.21-.168,1.593-.1.065-.474-.08-.535-.215-.3-.65.131-.983.7-1.38Z" transform="translate(-19.977 -54.244)" fill="#fff"/>
    </g>
  </g>
</svg>
