<svg id="sacred-iron-charm" xmlns="http://www.w3.org/2000/svg" width="60" height="60" viewBox="0 0 60 60">
  <rect id="Rectangle_3314" data-name="Rectangle 3314" width="60" height="60" fill="none"/>
  <g id="Layer_1-2" transform="translate(15 9)">
    <path id="Path_2859" data-name="Path 2859" d="M29.984,9.752c-1.126-.868-2.214-1.785-3.33-2.667-.952-.753-1.029-.727-1.471.378-.488,1.217-.795,1.356-2.061.913a16.6,16.6,0,0,1-1.708-.642c-.574-.274-1.213-.57-.893-1.428a3.368,3.368,0,0,0-.669-3.255A6.868,6.868,0,0,0,15.607.364a13.811,13.811,0,0,0-6.29,0A6.636,6.636,0,0,0,5.028,5.085C4.345,7.341,3.8,9.639,3.2,11.919c-.1.368-.15.748-.223,1.123l1.246-.15a1.5,1.5,0,0,0,.2.49,5.24,5.24,0,0,0,.654.567c.164-.244.431-.471.474-.734.371-2.245.678-4.5,1.049-6.747a5.346,5.346,0,0,1,3.537-4.3,7.207,7.207,0,0,1,5.05.024,5.082,5.082,0,0,1,3.2,2.985,1.179,1.179,0,0,1-.181,1.009c-.145.164-.642.126-.934.031-.633-.2-1.219-.565-1.855-.748-.809-.232-1.13-.6-.781-1.452.227-.547.044-1.077-.6-1.077a23.024,23.024,0,0,0-3.971.251A1.976,1.976,0,0,0,8.862,4.4c-.746,2.373-1.356,4.787-2.028,7.182-.242.863-.516,1.717-.774,2.575C5.71,15.32,5.37,16.486,5,17.644a6.866,6.866,0,0,1-.41.875c-.188-.258-.371-.521-.565-.774a3.459,3.459,0,0,0-.483-.558c-.044-.037-.34.1-.34.159a2.369,2.369,0,0,0,.113.807c.155.425.384.825.554,1.245a6.9,6.9,0,0,0,.668,1.665,15.826,15.826,0,0,0,1.693,1.532,2.4,2.4,0,0,1,.357.654c-.065.059-.131.117-.2.176a5.784,5.784,0,0,1-.9-.57c-.865-.805-1.686-1.66-2.557-2.46-.178-.164-.5-.169-.757-.248.049.281.01.628.164.828.277.361.732.589,1,.957.194.27.38.889.265.985-.919.762-.671,1.928-1.023,2.866C1.6,28.424.843,31.153.032,33.857A.927.927,0,0,0,.3,34.6c.636.633,1.341,1.2,1.986,1.822.418.4.713.425,1.173.005a1.266,1.266,0,0,1,1.111-.167q3.295,1.36,6.532,2.857c.384.178.621.659.947.976a4.228,4.228,0,0,0,.384.319h0c0,.488,2.854,1.452,4.292.286a1.855,1.855,0,0,0,.513-.615c.694-1.435,1.342-2.889,2-4.341.807-1.789,1.649-3.562,2.387-5.38.513-1.264.823-1.539,2.162-1.477a5.7,5.7,0,0,0,.978-.119c-.009-.138-.019-.274-.028-.411a6.63,6.63,0,0,1-1.086-.016,1.966,1.966,0,0,1-.6-.361c.164-.166.3-.422.5-.479.385-.112.823-.049,1.2-.173a5.443,5.443,0,0,0,1.1-.6.692.692,0,0,0-.112-.279c-.415.059-.823.157-1.238.214a8.388,8.388,0,0,1-.839.037,3.283,3.283,0,0,1,.024-.9,7.234,7.234,0,0,1,.474-.818c.729-1.607,1.428-3.229,2.165-4.831,1.342-2.917,2.73-5.814,4.036-8.748a1.291,1.291,0,0,0-.363-1.651ZM6.169,26.545c-.7,2.172-1.484,4.318-2.24,6.471-.258.736-.5,1.482-.8,2.2a.69.69,0,0,1-.537.361,3.419,3.419,0,0,1-1.6-2.017c.26-.886.507-1.776.779-2.659Q2.666,28,3.59,25.116c.056-.176.263-.465.34-.446a7.213,7.213,0,0,1,2.012.635c.244.145.345.87.227,1.239Zm.27-2.272a2.235,2.235,0,0,1-.542.343c-.546-.275-1.088-.521-1.6-.825-.131-.077-.155-.333-.228-.507.174-.061.384-.218.516-.169a19.388,19.388,0,0,1,1.776.781.392.392,0,0,1,.073.375ZM20.912,14.61c.425,0,.76-.152.807-.059s-.223.234-.5.579c-.42.532-.464,1.034-.56,1.018-.054-.009-.108-.185-.085-.983l-.781-.907a2.072,2.072,0,0,0,1.116.35Zm-1.968,3.457c.084-.017.146.424.544.873.258.293.5.411.467.488s-.34-.033-.717-.014a1.846,1.846,0,0,0-.969.364l.645-.84c-.059-.7-.021-.863.028-.873Zm.031-2.381c.377,0,.673-.134.715-.052s-.2.207-.439.513c-.371.471-.411.915-.5.9-.049-.007-.1-.164-.077-.87l-.692-.8a1.838,1.838,0,0,0,.988.31Zm-5.716,8.281a2.085,2.085,0,0,0-.546-1.036l1.032.6c.781-.166.964-.145.982-.092.031.091-.453.223-.9.732-.291.331-.391.619-.481.593s-.01-.385-.085-.8Zm.343-6.774c-.181-.417-.734-.364-.786-.669-.037-.207.181-.455.4-.535.5-.183,1.041.457,1.086.513a1.61,1.61,0,0,1,.293,1.51c-.274.669-1.112,1.07-1.47.852a.618.618,0,0,1-.164-.79c.131-.141.345-.009.523-.162a.669.669,0,0,0,.112-.718Zm.6,4.653c-.249.3-.329.56-.41.537s-.019-.342-.1-.71a1.857,1.857,0,0,0-.511-.9l.931.507c.687-.167.849-.153.866-.108.03.08-.4.211-.778.673Zm.762-2.493c-.164.169-.045.392-.194.513A.615.615,0,0,1,14,19.652c-.2-.371.258-1.184.943-1.414a1.489,1.489,0,0,1,1.3.242,1.343,1.343,0,0,1-.126-.187,1.612,1.612,0,0,1,.122-1.532c.04-.061.506-.758,1.022-.633.23.056.474.275.462.486-.017.309-.572.319-.706.755a.662.662,0,0,0,.192.7c.2.132.394-.024.539.1a.618.618,0,0,1-.073.8,1.038,1.038,0,0,1-1.079-.171.979.979,0,0,1,.277.938c-.1.216-.354.418-.56.37-.3-.071-.214-.619-.619-.826a.664.664,0,0,0-.723.066Zm2.054,1.8c.535-.462.687-.525.722-.492.063.058-.256.368-.387.954-.084.38-.038.649-.12.666s-.173-.295-.41-.587a1.849,1.849,0,0,0-.865-.57l1.06.028Zm.382,2.108c.621-.5.793-.567.833-.528.07.066-.3.406-.469,1.063-.108.427-.066.73-.159.746s-.185-.34-.443-.676a2.09,2.09,0,0,0-.957-.673l1.194.07Zm-.094-11.774c.288-.312.4-.661.5-.633s.019.323.089.758c.1.669.443,1.042.368,1.1-.044.035-.209-.047-.779-.6l-1.2-.044a2.077,2.077,0,0,0,1.016-.581Zm-.546,1.961c.263-.268.377-.574.464-.546s.009.286.058.673c.075.6.363.934.295.985-.04.03-.185-.047-.673-.556l-1.056-.071a1.844,1.844,0,0,0,.915-.486ZM14.9,15.665a.667.667,0,0,0,.722.091c.411-.194.343-.743.647-.805.207-.042.46.169.547.389.2.493-.427,1.053-.483,1.1a1.615,1.615,0,0,1-1.5.336c-.676-.255-1.1-1.081-.894-1.445a.615.615,0,0,1,.785-.185c.145.126.017.343.176.52Zm-.371-1.89-1.029.253c-.394.587-.523.687-.567.664-.077-.038.15-.422.12-1.022-.019-.389-.134-.635-.061-.673s.244.239.551.457a1.826,1.826,0,0,0,.985.319ZM12.56,11.992c-.445.662-.591.776-.64.751-.085-.044.169-.478.136-1.154-.023-.439-.152-.717-.068-.76s.277.27.622.516a2.083,2.083,0,0,0,1.112.361l-1.163.286Zm-2.231,4.322c.01-.084.279-.063.65-.181.572-.185.851-.532.914-.474.037.033-.012.19-.42.765l.129,1.051a1.83,1.83,0,0,0-.649-.807c-.312-.209-.633-.261-.622-.354Zm.486,4.63c-.04.087-.485-.148-1.159-.085-.439.04-.71.183-.757.1s.258-.288.488-.643A2.078,2.078,0,0,0,9.7,19.188l.336,1.149c.682.415.8.556.778.607Zm.424-1.63a1.843,1.843,0,0,0,.246-1.006l.329,1.008c.614.349.723.471.7.516-.033.078-.432-.119-1.029-.044-.387.049-.622.181-.666.11S11.043,19.636,11.238,19.314ZM6.763,22.128c-.328-.4-.727-.746-1.062-1.142a1.791,1.791,0,0,1-.347-2.123,43.464,43.464,0,0,0,1.454-4.534q.573-1.859,1.128-3.725C8.425,8.969,8.968,7.35,9.375,5.7c.413-1.675.589-1.886,2.312-1.909h.349l.005-.073,1.518.143A10.179,10.179,0,0,1,13.306,5.3c-.76,2.366-1.548,4.723-2.336,7.08q-1.088,3.253-2.191,6.5C8.426,19.924,8.083,20.968,7.7,22c-.209.567-.525.636-.938.129Zm5.038,5.6a1.721,1.721,0,0,1-.483-.166c-.98-.554-1.951-1.123-2.927-1.679-.385-.22-.907-1.525-.65-1.855a.855.855,0,0,1,.779-.146,2.213,2.213,0,0,1,.72.61,8.418,8.418,0,0,0,6.667,2.341,3.772,3.772,0,0,1,1.058.293c-.221.248-.443.493-.666.741l-.72.8c-.818-.234-1.454-.432-2.1-.593-.553-.138-1.119-.223-1.677-.343Zm8.539,4.177c-.92,1.9-1.668,3.884-2.608,5.774-.821,1.649-.931,1.954-1.449,2.278a3.906,3.906,0,0,1-3.176.153,1.3,1.3,0,0,0,.1-.244c.146-.493.157-1.032.333-1.511.53-1.436,1.117-2.854,1.677-4.28.5-1.267.947-2.557,1.51-3.8a1.179,1.179,0,0,1,.962-.577,13.188,13.188,0,0,1,2.165.851c.633.274.84.614.483,1.351Zm1.154-2.535c-.275.248-.683.617-.952.553A17.7,17.7,0,0,1,17.948,29c-.159-.066-.359-.448-.31-.516a2.643,2.643,0,0,1,.594-.5c1.077.258,2.01.45,2.915.729a.966.966,0,0,1,.347.666Zm7.93-18.01c-1.194,2.6-2.324,5.232-3.485,7.848-1.022,2.3-2.055,4.6-3.084,6.895a1.851,1.851,0,0,1-2.012,1.072c-.518-.056-1.039-.1-1.553-.173-.854-.126-1.116-.61-.791-1.424q2.429-6.088,4.859-12.179c.662-1.665,1.363-3.319,1.94-5.014.268-.788.673-.723,1.149-.378.938.68,1.832,1.421,2.737,2.144a.864.864,0,0,1,.241,1.208Z" transform="translate(-0.018 0)" fill="#fff"/>
  </g>
</svg>
