<svg id="samurai-charm" xmlns="http://www.w3.org/2000/svg" width="60" height="60" viewBox="0 0 60 60">
  <rect id="Rectangle_3315" data-name="Rectangle 3315" width="60" height="60" fill="none"/>
  <g id="Layer_1-2" transform="translate(13 10)">
    <path id="Path_2860" data-name="Path 2860" d="M2.874,13.754a6.032,6.032,0,0,1-.683.19c-.535.077-.708-.155-.513-.657.354-.908.295-1.991,1.226-2.664.2-.145.192-.586.267-.893A41.623,41.623,0,0,1,4.49,4.513,6.362,6.362,0,0,1,8.7.57,15.248,15.248,0,0,1,15.564.23a9.636,9.636,0,0,1,6.123,3.687,4.725,4.725,0,0,1,1.431,2.812c.009.268.547.65.91.758,2.5.751,5.021,1.443,7.535,2.158.586.167,1.165.359,1.75.53a1.581,1.581,0,0,1,1.112,2.338c-.621,1.618-1.2,3.256-1.74,4.9-.772,2.34-1.5,4.695-2.245,7.043-.762,2.4-1.513,4.812-2.286,7.212q-1.266,3.933-2.568,7.857c-.213.64-.87.807-1.66.567-1.939-.589-3.881-1.172-5.833-1.71C13.7,37.168,9.3,35.98,4.9,34.784c-1.233-.335-2.47-.65-3.7-.981-1.3-.349-1.51-.889-.809-2.031a1.648,1.648,0,0,0,.178-.4c.914-3.148,1.815-6.3,2.735-9.445.952-3.258,1.921-6.51,2.883-9.764Q7.25,8.578,8.311,4.989c.46-1.55.959-1.78,2.47-1.323,2.444.737,4.908,1.414,7.362,2.118a7.205,7.205,0,0,0,.832.249,4.963,4.963,0,0,0,.805.005c-.059-.289-.028-.645-.188-.856C17.469,2.4,12.337,1.087,9.126,2.451A5.011,5.011,0,0,0,6.657,5.041C5.738,6.908,5,8.862,4.188,10.784c-.052.126-.094.338-.028.417.964,1.133-.321,2.125-.206,3.2.012.117-.272.382-.392.366a.855.855,0,0,1-.5-.366,2.287,2.287,0,0,1-.187-.652Zm16.379,4.3.335-.253c-.253-.335-.438-.788-.772-.978-.526-.3-.875.126-1.224.523a2.6,2.6,0,0,1-.985.673,5.134,5.134,0,0,1-1.346.253c-.078.007-.272-.251-.262-.375.066-.833-.457-1.2-1.112-1.461a4.728,4.728,0,0,0-.788-.171,3.492,3.492,0,0,0-.005.809,10.8,10.8,0,0,1,.453,1.67,3.536,3.536,0,0,1-.6,2.838c-.764.833-1.491,1.7-2.247,2.542-.328.364-.469.722.065.973a20.123,20.123,0,0,0,2.875,1.217,1.793,1.793,0,0,1,1.3.961c.52,1.025,1,1.1,1.916.42a1.432,1.432,0,0,1,1.362-.162,22.9,22.9,0,0,0,3.262.448c.452.042.7-.246.6-.729-.221-1.107-.455-2.212-.671-3.321-.056-.281-.19-.628-.084-.84a21.751,21.751,0,0,1,1.369-2.348c.253-.377.692-.628.959-1a.867.867,0,0,0-.047-.675c-.6-.117-1.3-.406-1.75.26-.411.6-.776.591-1.253.108-.2-.2-.486-.321-.683-.526a9.647,9.647,0,0,1-.662-.856ZM19.88,3.824l1.541,2.132.19-.141C21.4,4.877,20.5,4.455,19.88,3.824Z" transform="translate(0.003 0.001)" fill="#fff"/>
  </g>
</svg>
