<svg id="sarugamis-glare-charm" xmlns="http://www.w3.org/2000/svg" width="60" height="60" viewBox="0 0 60 60">
  <rect id="Rectangle_3316" data-name="Rectangle 3316" width="60" height="60" fill="none"/>
  <g id="Layer_1-2" transform="translate(15 9)">
    <g id="Group_70" data-name="Group 70" transform="translate(0 0)">
      <path id="Path_2861" data-name="Path 2861" d="M75.49,91.874c-.044.455.6.547.771,1.252.108.439-.091.615.11.99.155.289.472.558.647.481.042-.019.113-.075.138-.275a1.029,1.029,0,0,0,.138-.275,1.144,1.144,0,0,0,.014-.6c-.042-.159-.106-.242-.537-.729s-.478-.532-.523-.647c-.164-.418.031-.729-.1-.8-.148-.08-.624.228-.659.6Z" transform="translate(-62.331 -75.348)" fill="#fff"/>
      <path id="Path_2862" data-name="Path 2862" d="M84.046,101.058c.078.038.284-.356.839-.962a3.875,3.875,0,0,1,1.306-1.114c.607-.26.914-.077,1.2-.385s.35-.9.124-1.086c-.438-.361-2.169.6-3,2.048-.389.678-.57,1.447-.467,1.5Z" transform="translate(-69.373 -80.448)" fill="#fff"/>
      <path id="Path_2863" data-name="Path 2863" d="M90.967,77.135c.138-.124.16-.317.192-.591.04-.335-.035-.427.044-.645a.938.938,0,0,1,.314-.413c.371-.3.687-.131.866-.371a.55.55,0,0,0-.068-.7c-.087-.049-.152.014-.633.11a.812.812,0,0,1-.356.031c-.181-.044-.242-.169-.387-.293-.246-.209-.687-.371-.907-.206a.561.561,0,0,0-.11.633c.119.263.38.211.5.467a.734.734,0,0,1-.138.715c-.16.194-.3.136-.413.3a.758.758,0,0,0,1.1.961Z" transform="translate(-74.136 -61.09)" fill="#fff"/>
      <path id="Path_2864" data-name="Path 2864" d="M29.985,9.752c-1.126-.868-2.214-1.785-3.33-2.667-.952-.753-1.029-.727-1.471.378-.488,1.217-.795,1.356-2.061.913a16.6,16.6,0,0,1-1.708-.642c-.574-.274-1.213-.57-.893-1.428a3.368,3.368,0,0,0-.669-3.255A6.868,6.868,0,0,0,15.608.364a13.811,13.811,0,0,0-6.29,0A6.636,6.636,0,0,0,5.029,5.085C4.346,7.341,3.8,9.639,3.2,11.919c-.1.368-.15.748-.223,1.123l1.246-.15a1.5,1.5,0,0,0,.2.49,5.24,5.24,0,0,0,.654.567c.164-.244.431-.471.474-.734.371-2.245.678-4.5,1.049-6.747a5.346,5.346,0,0,1,3.537-4.3,7.217,7.217,0,0,1,5.05.024,5.082,5.082,0,0,1,3.2,2.985,1.179,1.179,0,0,1-.181,1.009c-.145.164-.642.126-.934.03-.633-.2-1.219-.565-1.855-.748-.809-.232-1.13-.6-.781-1.452.227-.547.044-1.077-.6-1.077a23.024,23.024,0,0,0-3.971.251A1.976,1.976,0,0,0,8.863,4.4c-.746,2.373-1.356,4.787-2.028,7.182-.242.863-.516,1.717-.774,2.575-.35,1.163-.69,2.329-1.056,3.487a6.866,6.866,0,0,1-.41.875c-.188-.258-.371-.521-.565-.774a3.459,3.459,0,0,0-.483-.558c-.044-.037-.34.1-.34.159a2.369,2.369,0,0,0,.113.807c.155.425.384.825.554,1.245a6.9,6.9,0,0,0,.668,1.665,15.826,15.826,0,0,0,1.693,1.532,2.4,2.4,0,0,1,.357.654l-.2.176a5.784,5.784,0,0,1-.9-.57c-.865-.805-1.686-1.66-2.557-2.46-.178-.164-.5-.169-.757-.248.049.281.01.628.164.828.277.361.732.589,1,.957.194.27.38.889.265.985-.919.762-.671,1.928-1.023,2.866C1.6,28.423.843,31.151.033,33.855A.933.933,0,0,0,.3,34.6c.636.633,1.341,1.2,1.986,1.822.418.4.713.425,1.173.005a1.266,1.266,0,0,1,1.111-.167q3.295,1.36,6.532,2.857c.384.178.621.659.947.976a4.228,4.228,0,0,0,.384.319h0c0,.488,2.854,1.452,4.292.286a1.855,1.855,0,0,0,.513-.615c.694-1.435,1.342-2.889,2-4.341.807-1.789,1.649-3.562,2.387-5.38.513-1.264.823-1.539,2.162-1.477a5.7,5.7,0,0,0,.978-.119c-.009-.138-.019-.274-.028-.411a6.63,6.63,0,0,1-1.086-.016,1.966,1.966,0,0,1-.6-.361c.164-.166.3-.422.5-.479.385-.112.823-.049,1.2-.173a5.443,5.443,0,0,0,1.1-.6.692.692,0,0,0-.112-.279c-.415.059-.823.157-1.238.214a8.386,8.386,0,0,1-.839.037,3.283,3.283,0,0,1,.024-.9,7.234,7.234,0,0,1,.474-.818c.729-1.607,1.428-3.229,2.165-4.831,1.342-2.917,2.73-5.814,4.036-8.748a1.291,1.291,0,0,0-.363-1.651ZM14.126,13.735c.465-.136.765.056.907-.138.106-.145-.045-.277.042-.6a1.315,1.315,0,0,1,.35-.556,2.215,2.215,0,0,1,.57-.46,2.173,2.173,0,0,1,1.6-.138,1.919,1.919,0,0,1,1.2,1.03A1.5,1.5,0,0,1,18.847,14c-.157.361-.429.42-.406.666.014.143.112.183.577.659a2.591,2.591,0,0,1,.385.439,1.694,1.694,0,0,1,.166.771c.023.326-.01.4,0,.907a5.515,5.515,0,0,1,.042.866c-.051.279-.153.436-.061.577s.246.089.35.206a.755.755,0,0,1-.124.907c-.262.261-.56.087-1.086.3a2.775,2.775,0,0,0-.743.549,7.033,7.033,0,0,1-2.364,1.238c-.486.139-.84.167-.88.364-.056.272.572.485.523.764s-.819.546-1.182.275c-.345-.258-.132-.856-.439-.99-.19-.084-.314.129-.839.2a1.433,1.433,0,0,1-.7-.042c-.411-.146-.722-.673-.6-.887.159-.275.968.087,1.135-.185.12-.2-.255-.469-.516-1.011-.584-1.208.26-1.968-.371-2.99a2.024,2.024,0,0,1-.453-.907c-.009-.075-.075-.612.227-.846.249-.192.481.042.825-.145.052-.028.136-.082.523-.666.328-.5.281-.479.4-.629a1.868,1.868,0,0,1,.887-.662Zm-1.6,9.719a6.236,6.236,0,0,1-2.111-2.235,9.391,9.391,0,0,1-.7-1.362,8.238,8.238,0,0,1-.329-.99A11.6,11.6,0,0,0,11.4,22.229a4.312,4.312,0,0,0,1.175,1.009,4.36,4.36,0,0,0,2.27.509,6.913,6.913,0,0,0,4.39-1.972,5.558,5.558,0,0,1-6.714,1.677Zm4.437,3.677c-.221.248-.443.493-.666.741l-.72.8c-.818-.234-1.454-.432-2.1-.593-.553-.138-1.119-.223-1.677-.343a1.722,1.722,0,0,1-.483-.166c-.98-.554-1.951-1.123-2.927-1.679-.385-.22-.907-1.525-.65-1.855a.855.855,0,0,1,.779-.146,2.213,2.213,0,0,1,.72.61A8.418,8.418,0,0,0,15.9,26.838a3.772,3.772,0,0,1,1.058.293ZM5.7,20.988a1.794,1.794,0,0,1-.349-2.123A43.464,43.464,0,0,0,6.8,14.33q.573-1.859,1.128-3.725C8.42,8.971,8.964,7.351,9.37,5.7c.413-1.675.589-1.886,2.312-1.909h.349l.005-.073,1.518.143A10.179,10.179,0,0,1,13.3,5.3c-.76,2.366-1.548,4.723-2.336,7.08q-1.088,3.253-2.191,6.5C8.422,19.926,8.078,20.97,7.7,22c-.209.567-.525.636-.938.129-.328-.4-.727-.746-1.062-1.142Zm-1.111,2.13a19.389,19.389,0,0,1,1.776.781.392.392,0,0,1,.073.375,2.234,2.234,0,0,1-.542.343c-.546-.275-1.088-.521-1.6-.825-.131-.077-.155-.333-.228-.507.174-.061.384-.218.516-.169Zm-.661,9.9c-.258.736-.5,1.482-.8,2.2a.69.69,0,0,1-.537.361,3.419,3.419,0,0,1-1.6-2.017c.26-.886.507-1.776.779-2.659q.894-2.9,1.818-5.786c.056-.176.263-.465.34-.446a7.213,7.213,0,0,1,2.012.635c.244.145.345.87.227,1.239-.7,2.172-1.484,4.318-2.24,6.471Zm1.766-2.847c-.065-.077.443-.354.535-.948.065-.4-.117-.608.061-.948a1.445,1.445,0,0,1,.329-.392,2.117,2.117,0,0,1,.392-.248c.3-.167.317-.223.64-.432.474-.309.711-.474.969-.474a1.032,1.032,0,0,1,.8.329.939.939,0,0,1,.042,1.133c-.117.136-.19.087-.35.227-.406.349-.336.99-.432.99-.07,0-.054-.345-.289-.722-.1-.157-.232-.371-.453-.413-.277-.051-.53.2-.659.329-.335.333-.279.551-.535.907-.373.516-.985.739-1.051.659Zm5.629,6.8a1.159,1.159,0,0,1-.378.007,1.279,1.279,0,0,1-.509-.213,2.469,2.469,0,0,1-.8-1.011,2.607,2.607,0,0,1-.146-.342s-.017-.035-.038-.071A5.159,5.159,0,0,0,8.341,34.7a1.715,1.715,0,0,0-.75.016c-.528.136-.757.492-1.011.4-.106-.037-.235-.155-.309-.535a1.222,1.222,0,0,0,1.072-.659.822.822,0,0,0,.042-.661c-.092-.185-.242-.2-.289-.392-.051-.211.073-.45.159-.45.068,0,.073.148.2.2a.329.329,0,0,0,.319-.061c.1-.085.113-.242.021-.743-.127-.685-.256-.8-.185-1.072.085-.336.38-.572.453-.537.038.019,0,.11.063.248.047.108.106.131.166.206.178.227.009.478.145.6s.363-.089.516.021c.2.146.173.755-.145,1.009-.2.157-.338.049-.506.2-.3.255-.223.9.033,1.316.171.275.45.5.54.439s-.112-.38-.005-.835a1.958,1.958,0,0,1,.166-.432c.152-.295.262-.3.392-.516a1.488,1.488,0,0,0,.145-.927c-.04-.415-.194-.631-.124-.68s.368.167.556.432a1.661,1.661,0,0,1,.289,1.2c-.1.553-.441.638-.413,1.093a.937.937,0,0,0,.016.1,5.109,5.109,0,0,0,.16.7c.078.248.286.907.793,1.07a.956.956,0,0,0,.659-.042c.148-.084.115-.157.268-.248a1.467,1.467,0,0,1,.846-.124,3.34,3.34,0,0,0,.577,0c.57-.174.914-1.419.556-1.731-.328-.286-1.083.349-1.567-.021a.785.785,0,0,1-.268-.474l-.537-.124a1.177,1.177,0,0,0-.021-.68A1.093,1.093,0,0,0,11.2,31.7l.432-.371c-.075-.253-.152-.506-.227-.76l.811.439c.094-.052.237-.131.4-.235.408-.253.513-.364.558-.329.087.066-.054.631-.413.866a1.2,1.2,0,0,0-.361.3.979.979,0,0,0-.113.194.937.937,0,0,0,.35.371.967.967,0,0,0,.661.112c.391-.037.783-.073,1.173-.112a1.514,1.514,0,0,1,.155.455,1.561,1.561,0,0,1-.115.884c-.028.316-.056.633-.082.948l-.392.927a2.717,2.717,0,0,1-1.011,1.628,2.143,2.143,0,0,1-.537.227,2.06,2.06,0,0,0-1.175-.268Zm9.015-5.063c-.92,1.9-1.668,3.884-2.608,5.774-.821,1.649-.931,1.954-1.449,2.278a3.906,3.906,0,0,1-3.176.153,1.3,1.3,0,0,0,.1-.244c.146-.493.157-1.032.333-1.511.53-1.436,1.117-2.854,1.677-4.28.5-1.267.947-2.557,1.51-3.8a1.179,1.179,0,0,1,.962-.577,13.188,13.188,0,0,1,2.165.851c.633.274.84.614.483,1.351Zm1.152-2.535c-.275.248-.683.617-.952.553A17.7,17.7,0,0,1,17.944,29c-.159-.066-.359-.448-.31-.516a2.643,2.643,0,0,1,.594-.5c1.077.258,2.01.45,2.915.729.178.056.4.621.347.666Zm7.93-18.01c-1.194,2.6-2.324,5.232-3.485,7.848-1.022,2.3-2.055,4.6-3.084,6.895a1.851,1.851,0,0,1-2.012,1.072c-.518-.056-1.039-.1-1.553-.173-.854-.126-1.116-.61-.791-1.424q2.429-6.088,4.859-12.179c.662-1.665,1.363-3.319,1.94-5.014.268-.788.673-.723,1.149-.378.938.68,1.832,1.421,2.737,2.144a.864.864,0,0,1,.241,1.208Z" transform="translate(-0.018 0)" fill="#fff"/>
    </g>
  </g>
</svg>
