<svg id="shoguns-fortitude-charm" xmlns="http://www.w3.org/2000/svg" width="60" height="60" viewBox="0 0 60 60">
  <rect id="Rectangle_3320" data-name="Rectangle 3320" width="60" height="60" fill="none"/>
  <g id="Layer_1-2" transform="translate(15 9)">
    <g id="Group_71" data-name="Group 71" transform="translate(0 0)">
      <path id="Path_2865" data-name="Path 2865" d="M82.23,92.581a1.837,1.837,0,0,0,.624.119,3.615,3.615,0,0,0,1.417-.2,1.532,1.532,0,0,1-1.063-.3,1.418,1.418,0,0,1-.354-.422l-.556.119-.978-.27a1.792,1.792,0,0,0,.912.962Z" transform="translate(-67.146 -75.648)" fill="#fff"/>
      <path id="Path_2866" data-name="Path 2866" d="M29.984,9.752c-1.126-.868-2.214-1.785-3.33-2.667-.952-.753-1.029-.727-1.471.378-.488,1.217-.795,1.356-2.061.913a16.6,16.6,0,0,1-1.708-.642c-.574-.274-1.213-.57-.893-1.428a3.368,3.368,0,0,0-.669-3.255A6.868,6.868,0,0,0,15.607.364a13.811,13.811,0,0,0-6.29,0A6.636,6.636,0,0,0,5.028,5.085C4.345,7.341,3.8,9.639,3.2,11.919c-.1.368-.15.748-.223,1.123l1.246-.15a1.5,1.5,0,0,0,.2.49,5.24,5.24,0,0,0,.654.567c.164-.244.431-.471.474-.734.371-2.245.678-4.5,1.049-6.747a5.346,5.346,0,0,1,3.537-4.3,7.217,7.217,0,0,1,5.05.024,5.082,5.082,0,0,1,3.2,2.985,1.179,1.179,0,0,1-.181,1.009c-.145.164-.642.126-.934.03-.633-.2-1.219-.565-1.855-.748-.809-.232-1.13-.6-.781-1.452.227-.547.044-1.077-.6-1.077a23.024,23.024,0,0,0-3.971.251A1.976,1.976,0,0,0,8.862,4.4c-.746,2.373-1.356,4.787-2.028,7.182-.241.863-.516,1.717-.774,2.575C5.71,15.318,5.37,16.485,5,17.642a6.866,6.866,0,0,1-.41.875c-.188-.258-.371-.521-.565-.774a3.459,3.459,0,0,0-.483-.558c-.044-.037-.34.1-.34.159a2.369,2.369,0,0,0,.113.807c.155.425.384.825.554,1.245a6.9,6.9,0,0,0,.668,1.665,15.826,15.826,0,0,0,1.693,1.532,2.4,2.4,0,0,1,.357.654c-.065.059-.131.117-.2.176a5.784,5.784,0,0,1-.9-.57c-.865-.805-1.686-1.66-2.557-2.46-.178-.164-.5-.169-.757-.248.049.281.01.628.164.828.277.361.732.589,1,.957.194.27.38.889.265.985-.919.762-.671,1.928-1.023,2.866C1.6,28.423.843,31.151.032,33.855A.927.927,0,0,0,.3,34.6c.636.633,1.341,1.2,1.986,1.822.418.4.713.425,1.173.005a1.266,1.266,0,0,1,1.111-.167q3.295,1.36,6.532,2.857c.384.178.621.659.947.976a4.228,4.228,0,0,0,.384.319h0c0,.488,2.854,1.452,4.292.286a1.855,1.855,0,0,0,.513-.615c.694-1.435,1.342-2.889,2-4.341.807-1.789,1.649-3.562,2.387-5.38.513-1.264.823-1.539,2.162-1.477a5.7,5.7,0,0,0,.978-.119c-.009-.138-.019-.274-.028-.411a6.63,6.63,0,0,1-1.086-.016,1.966,1.966,0,0,1-.6-.361c.164-.166.3-.422.5-.479.385-.112.823-.049,1.2-.173a5.443,5.443,0,0,0,1.1-.6.692.692,0,0,0-.112-.279c-.415.059-.823.157-1.238.214a8.386,8.386,0,0,1-.839.037,3.283,3.283,0,0,1,.024-.9,7.234,7.234,0,0,1,.474-.818c.729-1.607,1.428-3.229,2.165-4.831,1.342-2.917,2.73-5.814,4.036-8.748a1.291,1.291,0,0,0-.363-1.651ZM6.169,26.545c-.7,2.172-1.484,4.318-2.24,6.471-.258.736-.5,1.482-.8,2.2a.69.69,0,0,1-.537.361,3.419,3.419,0,0,1-1.6-2.017c.26-.886.507-1.776.779-2.659Q2.666,28,3.59,25.116c.056-.176.263-.465.34-.446a7.213,7.213,0,0,1,2.012.635c.244.145.345.87.227,1.239Zm.27-2.272a2.235,2.235,0,0,1-.542.343c-.546-.275-1.088-.521-1.6-.825-.131-.077-.155-.333-.228-.507.174-.061.384-.218.516-.169a19.388,19.388,0,0,1,1.776.781.392.392,0,0,1,.073.375Zm8.539-13a.956.956,0,0,1,.134.652c-.082.343-.429.321-.788.652a2.647,2.647,0,0,0-.652,1.665c-.106.72-.094.92-.023,1.056a1.08,1.08,0,0,0,.563.472l.225-.7.225-.382c.007-.329.016-.659.023-.99l.5-.134.5.27c.134-.18.27-.359.4-.54l.4-.45c.2.045.4.091.607.134.038.255.075.509.113.765-.014.056-.119.467.045.584s.537-.049.9-.472l.225.2.068.788-.359.248c-.1.166-.209.329-.316.5l.089.732a2.5,2.5,0,0,0,.975-.912,2.542,2.542,0,0,0,.338-1.6.767.767,0,0,1-.092-.5A.979.979,0,0,1,20,12.6l.945-.18a.756.756,0,0,1,.912.309.707.707,0,0,1-.056.591.759.759,0,0,1-.4.338c-.268.089-.411-.056-.584,0s-.347.286-.4,1.063a8.187,8.187,0,0,1-.321,1.231,8.025,8.025,0,0,1-.513,1.17q-1.158.777-2.317,1.552l-1.26-.629-2.676-.7-.382-.877-.338-.652q-.18-.416-.359-.832.552-1.349,1.1-2.7c.387-.265.441-.448.427-.563-.038-.319-.631-.316-.948-.856-.152-.258-.239-.64-.087-.786.042-.04.153-.11.619.033a2.493,2.493,0,0,1,1.63,1.159ZM13.944,24.07a2.414,2.414,0,0,1-.626-.839,1.781,1.781,0,0,1-.765.1,3.877,3.877,0,0,1,.689-.255,4.977,4.977,0,0,1-.425-2.16,7.845,7.845,0,0,1,.2-1.82c.051-.26.262-1.328.4-1.314.059.005.112.2.108.436l1.008.272,1.712.7.242.11c.014.1.03.206.044.307-.051.176-.1.352-.153.526l-2.9-.945v-.642a1.159,1.159,0,0,1-.091.232,6,6,0,0,0,.023,4.109c.012.035.026.068.04.1.094-.038.194-.08.295-.127a6.55,6.55,0,0,0,3-2.81,1.214,1.214,0,0,1,.138-.261c.2-.284.513-.5.57-.446.1.082-.542.955-.7,1.166a8.554,8.554,0,0,1-1.192,1.381,5.325,5.325,0,0,1-1.935,1.245l-.1.031c.227.526.458.873.42.9Zm-2.835-6.02-.4-.746.483-.79c.2.03.4.059.593.087l.769.659.4.242.22.153c-.3.828-.46,1.273-.46,1.273l-.242.329-.028-.01c-.056.143-.113.282-.169.424-.272-.209-.706-.37-.785-.636a.568.568,0,0,1,.173-.615l-.554-.37Zm-.023,1.185.812.242c.023.227.044.453.066.68L11,21.256q-.6.044-1.208.087c.007-.22.014-.439.023-.659l1.273-1.449Zm1.634,3.112.094.143a2.539,2.539,0,0,1-.361,0,2.758,2.758,0,0,1-.645-.136,4.1,4.1,0,0,0-1.025-.129c-.655-.031-.839.082-1.94.112-.481.012-.56-.007-.57-.03-.033-.077.659-.263,1.011-.333a6.613,6.613,0,0,1,3.438.378Zm1.745.565A6.623,6.623,0,0,1,17.429,24.7c.237.268.675.837.6.879-.023.012-.1-.021-.471-.323-.859-.692-.936-.893-1.477-1.264a4.038,4.038,0,0,0-.894-.519,2.733,2.733,0,0,1-.6-.282,2.625,2.625,0,0,1-.289-.216l.16-.058Zm3.274.779a1.922,1.922,0,0,1-1.032-.879,1.7,1.7,0,0,1-.153-.439l.725-.9.526-.307.2.2c.073.08.146.16.22.242.051.506.1,1.009.153,1.515l-.22.549c-.139.007-.279.014-.417.023Zm-.22-3.556-.352-.176.636-.835q.45-.1.9-.2c.16-.007.323-.014.483-.023.08.153.16.307.242.46l-.11.506-.68.286q-.56-.01-1.119-.023ZM6.761,22.128c-.328-.4-.727-.746-1.062-1.142a1.791,1.791,0,0,1-.347-2.123,43.464,43.464,0,0,0,1.454-4.534q.573-1.859,1.128-3.725C8.423,8.969,8.967,7.35,9.373,5.7c.413-1.675.589-1.886,2.312-1.909h.349l.005-.073,1.518.143A10.179,10.179,0,0,1,13.3,5.3c-.76,2.366-1.548,4.723-2.336,7.08q-1.088,3.253-2.191,6.5C8.425,19.924,8.081,20.968,7.7,22c-.209.567-.525.636-.938.129Zm5.038,5.6a1.721,1.721,0,0,1-.483-.166c-.98-.554-1.951-1.123-2.927-1.679-.385-.22-.907-1.524-.65-1.855a.855.855,0,0,1,.779-.146,2.213,2.213,0,0,1,.72.61,8.418,8.418,0,0,0,6.667,2.341,3.772,3.772,0,0,1,1.058.293c-.221.248-.443.493-.666.741l-.72.8c-.818-.234-1.454-.432-2.1-.593-.553-.138-1.119-.223-1.677-.343Zm8.539,4.177c-.92,1.9-1.668,3.884-2.608,5.774-.821,1.649-.931,1.954-1.449,2.278a3.906,3.906,0,0,1-3.176.153,1.3,1.3,0,0,0,.1-.244c.146-.493.157-1.032.333-1.511.53-1.436,1.117-2.854,1.677-4.28.5-1.267.947-2.557,1.51-3.8a1.179,1.179,0,0,1,.962-.577,13.188,13.188,0,0,1,2.165.851c.633.274.84.614.483,1.351Zm1.154-2.535c-.275.248-.683.617-.952.553A17.7,17.7,0,0,1,17.947,29c-.159-.066-.359-.448-.31-.516a2.643,2.643,0,0,1,.594-.5c1.077.258,2.01.45,2.915.729.178.056.4.621.347.666Zm7.93-18.01c-1.194,2.6-2.324,5.232-3.485,7.848-1.022,2.3-2.055,4.6-3.084,6.895a1.851,1.851,0,0,1-2.012,1.072c-.518-.056-1.039-.1-1.553-.173-.854-.126-1.116-.61-.791-1.424q2.429-6.088,4.859-12.179c.662-1.665,1.363-3.319,1.94-5.014.268-.788.673-.723,1.149-.378.938.68,1.832,1.421,2.737,2.144a.864.864,0,0,1,.241,1.208Z" transform="translate(-0.018 0)" fill="#fff"/>
      <path id="Path_2867" data-name="Path 2867" d="M91.261,83.7c-.005-.141-.01-.281-.017-.422l-.169-.371-.657.3c-.005.281-.01.563-.017.844l.169.033c.23-.129.462-.258.692-.389Z" transform="translate(-74.643 -68.456)" fill="#fff"/>
    </g>
  </g>
</svg>
