<svg id="skipping-stone-bow" xmlns="http://www.w3.org/2000/svg" width="60" height="60" viewBox="0 0 60 60">
  <rect id="Rectangle_3322" data-name="Rectangle 3322" width="60" height="60" fill="none"/>
  <g id="Layer_1-2" transform="translate(-162.779 -64.043)">
    <g id="Group_60" data-name="Group 60" transform="translate(167.779 70.043)">
      <path id="Path_2746" data-name="Path 2746" d="M46.146,51.878c1.166-.15,2.344.555,3.5-.3.693-.51,1.7-.3,2.752.748-.578-.032-1.162-.025-1.733-.106a1.344,1.344,0,0,0-1.363.326,2.013,2.013,0,0,1-1.49.367,6.315,6.315,0,0,0-5.658,2.2c-3.978,4.029-8.192,7.823-12.32,11.7a3.315,3.315,0,0,1-2.7,1.153,6.915,6.915,0,0,1,.673-.917q6.964-6.564,13.937-13.119a4.11,4.11,0,0,0,.514-.757c-.3-.084-.591-.179-.892-.247-.775-.174-1.547-.371-2.331-.491-.55-.084-1.123-.016-1.672-.1a2.8,2.8,0,0,1-.791-.4c.24-.183.464-.489.723-.521a2.905,2.905,0,0,1,1.488.081c1.5.671,3.056.39,4.589.365a2,2,0,0,0,1.149-.582c1.475-1.346,2.935-2.711,4.349-4.12a24.184,24.184,0,0,0,1.656-2.029c.056-.068.1-.165.168-.2,2.5-1.316,4.181-3.581,6.215-5.429,2.757-2.5,5.416-5.119,8.122-7.681a6.563,6.563,0,0,1,.6-.455l.3.165a4.705,4.705,0,0,1-.56,1.438c-.969,1.126-2,2.208-3.071,3.235-2.82,2.7-5.672,5.371-8.519,8.045C51.4,46.5,49,48.727,46.61,50.969c-.2.192-.372.419-.557.63.03.093.061.188.093.281Z" transform="translate(-22.278 -25.755)" fill="#fff"/>
      <path id="Path_2747" data-name="Path 2747" d="M245.579.838a3.6,3.6,0,0,1-.806.6A2.02,2.02,0,0,0,243.5,3c-.8,2.517-1.714,5-2.593,7.5-.158.449-.338.892-.539,1.323-.233.5-.6.741-1.151.458-.521-.267-.958-.605-.544-1.25,1.7-2.654,2.342-5.7,3.248-8.65A6.152,6.152,0,0,1,243.069.491,1.539,1.539,0,0,1,244.962.2c.211.077.349.353.618.643Z" transform="translate(-195.805 -0.011)" fill="#fff"/>
      <path id="Path_2748" data-name="Path 2748" d="M133.979,169.242a7.124,7.124,0,0,1-.942,1.071c-1.135.915-2.346,1.739-3.47,2.662-.693.569-1.092.27-1.556-.27s-1.074-1.024-.265-1.7c1.409-1.185,2.8-2.4,4.294-3.472.747-.534,2.052.5,1.941,1.714Z" transform="translate(-104.548 -137.417)" fill="#fff"/>
      <path id="Path_2749" data-name="Path 2749" d="M37.812,67.329a1.436,1.436,0,0,1,2.081-.584,3.515,3.515,0,0,0,1.411.381q2.766.064,5.534,0a4.335,4.335,0,0,0,1.6-.4,1.429,1.429,0,0,1,2.052.607,23.152,23.152,0,0,1-12.675,0Z" transform="translate(-31.038 -54.608)" fill="#fff"/>
      <path id="Path_2750" data-name="Path 2750" d="M38.01,43.924a22.936,22.936,0,0,1,12.605.005,1.376,1.376,0,0,1-1.98.632,5.284,5.284,0,0,0-1.767-.415c-1.545-.056-3.094-.013-4.641-.016a4.111,4.111,0,0,0-2.4.455c-.695.44-1.375.111-1.821-.662Z" transform="translate(-31.202 -35.339)" fill="#fff"/>
      <path id="Path_2751" data-name="Path 2751" d="M179.6,226.468c.654-.863,1.219-.97,2.025-.548a2.92,2.92,0,0,0,1.244.349c1.7.036,3.4.052,5.1-.014a6.979,6.979,0,0,0,2.021-.455,1.343,1.343,0,0,1,1.785.671A21.6,21.6,0,0,1,179.6,226.468Z" transform="translate(-147.44 -185.274)" fill="#fff"/>
      <path id="Path_2752" data-name="Path 2752" d="M179.73,202.922c1.7-.26,3.318-.568,4.951-.736a19.822,19.822,0,0,1,3.309,0,14.164,14.164,0,0,1,1.966.437,9.309,9.309,0,0,0,.949.136c.331.034.666.047,1.058.072a1.375,1.375,0,0,1-1.973.763,3.992,3.992,0,0,0-1.5-.4c-1.61-.048-3.223-.061-4.833.007a8,8,0,0,0-2.12.458,1.364,1.364,0,0,1-1.812-.736Z" transform="translate(-147.547 -165.929)" fill="#fff"/>
      <path id="Path_2753" data-name="Path 2753" d="M213.971,90.172a5,5,0,0,1-.267.643c-.739,1.153-1.468,2.313-2.243,3.441-.3.43-.648.942-1.3.44-.578-.444-.779-.908-.285-1.588.79-1.083,1.481-2.236,2.281-3.309a1.108,1.108,0,0,1,.951-.337c.337.09.594.473.865.709Z" transform="translate(-172.066 -73.432)" fill="#fff"/>
      <path id="Path_2754" data-name="Path 2754" d="M168.5,140.954l-2.333-.967c0-.086.005-.172.007-.256a2.261,2.261,0,0,1,.808-.064,13.715,13.715,0,0,1,1.47.627c.19.084.38.17.566.263,1.456.732,1.533,1.221.358,2.342-.559.534-1.139,1.046-1.7,1.583-.521.5-.9.211-1.278-.192-.4-.426-.551-.838-.048-1.3.686-.634,1.357-1.282,2.147-2.032Z" transform="translate(-136.305 -114.641)" fill="#fff"/>
      <path id="Path_2755" data-name="Path 2755" d="M3.73,246.05c.09.063.464.19.544.419a2,2,0,0,1-.082,1,.51.51,0,0,1-.322.285,3.771,3.771,0,0,0-2.732,1.982c-.073.159-.609.233-.858.143-.168-.061-.319-.491-.288-.732a3.909,3.909,0,0,1,3.737-3.1Z" transform="translate(0.012 -201.997)" fill="#fff"/>
      <path id="Path_2756" data-name="Path 2756" d="M50.341,231.852c-.095.122-.245.5-.514.627-1.055.48-2.141.892-3.232,1.289-.22.081-.637.079-.729-.05a.954.954,0,0,1-.079-.813,2.131,2.131,0,0,1,.748-.935,23.4,23.4,0,0,1,2.48-1.219c.85-.372,1.3-.055,1.321,1.1Z" transform="translate(-37.54 -189.316)" fill="#fff"/>
      <path id="Path_2757" data-name="Path 2757" d="M107.816,196.88a5.815,5.815,0,0,1,1.146,1.259c.1.208-.218.731-.48.96a9.594,9.594,0,0,1-1.685,1.164c-.292.163-.919.3-.983.2-.26-.426-.646-1.194-.473-1.395a22.308,22.308,0,0,1,2.473-2.183Z" transform="translate(-86.442 -161.631)" fill="#fff"/>
      <path id="Path_2758" data-name="Path 2758" d="M107.3,52.612c.766-.718,1.1-.833.047-1.907,1.065-1.019,1.4-1.01,2.473.059.72.716.736,1.033.093,1.726-1.046,1.126-1.4,1.149-2.612.124Zm1.5.378c.326-.426.976-.917.915-1.289-.077-.46-.684-.954-1.178-1.185-.376-.175-.594.265-.274.594.406.417.419.734-.005,1.126a.522.522,0,0,0-.038.464c.039.1.24.127.582.288Z" transform="translate(-88.086 -41.01)" fill="#fff"/>
      <path id="Path_2759" data-name="Path 2759" d="M183.712,113.161c.822-.2,1.278.457,1.841.759a17.129,17.129,0,0,1,1.654,1.08,2.1,2.1,0,0,1,.716.639.942.942,0,0,1-.1.791c-.068.1-.5.079-.686-.025a1.55,1.55,0,0,1-.705-.662,4.445,4.445,0,0,0-2.643-2.31c-.034-.016-.032-.1-.079-.274Z" transform="translate(-150.815 -92.871)" fill="#fff"/>
      <path id="Path_2760" data-name="Path 2760" d="M51.517,118.377c-.838.279-1.839-.3-2.748-1.42a1.309,1.309,0,0,1-.172-1.712,3.629,3.629,0,0,1,2.8-1.765c-.892.77-2.417,1.013-2.408,2.5C48.994,117.435,50.407,117.732,51.517,118.377Z" transform="translate(-39.69 -93.163)" fill="#fff"/>
      <path id="Path_2761" data-name="Path 2761" d="M100.82,103.6h8.688v.217h-8.673C100.829,103.745,100.825,103.672,100.82,103.6Z" transform="translate(-82.766 -85.052)" fill="#fff"/>
      <path id="Path_2762" data-name="Path 2762" d="M100.691,109.794c2.666-.018,5.334-.1,8,.043,0,.09,0,.177,0,.267H100.68C100.684,110,100.687,109.9,100.691,109.794Z" transform="translate(-82.651 -90.104)" fill="#fff"/>
      <path id="Path_2763" data-name="Path 2763" d="M24.427,53.4c-.041.079-.064.2-.129.227-.92.4-1.3-.426-1.839-.85a.846.846,0,0,1-.1-1.323c.992-1.257,1.567-1.354,2.888-.288l-.815.252.023.025c-.106-.723-.582-.747-1.015-.4-.337.269-.756.781-.7,1.107.072.4.569.761.942,1.065a2.023,2.023,0,0,0,.768.2l-.027-.02Z" transform="translate(-18.131 -41.401)" fill="#fff"/>
      <path id="Path_2764" data-name="Path 2764" d="M78.81,224.6c-.521.34-.876.573-1.23.806-.247-.4-.68-.8-.68-1.192,0-.3.56-.594.87-.892l1.038,1.278Z" transform="translate(-63.129 -183.337)" fill="#fff"/>
      <path id="Path_2765" data-name="Path 2765" d="M89.47,215.933c.467-.4.711-.738,1.035-.861.376-.143,1.021.648.886,1.194-.079.322-.5.559-.768.834l-1.153-1.166Z" transform="translate(-73.448 -176.551)" fill="#fff"/>
      <path id="Path_2766" data-name="Path 2766" d="M252.09,212.95c2.143-1.44,1.767-1.869,0-3.053a1.738,1.738,0,0,1,1.719.927,1.431,1.431,0,0,1,.011,1.187,1.845,1.845,0,0,1-1.728.938Z" transform="translate(-206.951 -172.29)" fill="#fff"/>
      <path id="Path_2767" data-name="Path 2767" d="M234.222,75.261c-.546.344-.926.718-1.06.643a5.335,5.335,0,0,1-1.022-.935c.222-.2.508-.6.652-.555a7.647,7.647,0,0,1,1.431.845Z" transform="translate(-190.573 -61.09)" fill="#fff"/>
      <path id="Path_2768" data-name="Path 2768" d="M63.508,123.036a2.264,2.264,0,0,1-1.572-1.561c-.03-.618.815-1.5,1.688-1.724-.4.56-1.049,1.081-1.071,1.628S63.156,122.47,63.508,123.036Z" transform="translate(-50.844 -98.311)" fill="#fff"/>
      <path id="Path_2769" data-name="Path 2769" d="M166.46,209.56q-1.882,1.5.043,3.146a2.018,2.018,0,0,1-1.744-.962,1.128,1.128,0,0,1-.129-.963,2.359,2.359,0,0,1,1.83-1.219Z" transform="translate(-135.098 -172.04)" fill="#fff"/>
      <path id="Path_2770" data-name="Path 2770" d="M71.8,140.318l-1.986.507C70.5,139.623,70.952,139.507,71.8,140.318Z" transform="translate(-57.308 -114.77)" fill="#fff"/>
      <path id="Path_2771" data-name="Path 2771" d="M175.889,122.051c-.491-.646-.979-1.293-1.449-1.912a1.734,1.734,0,0,1,1.483.99,3.265,3.265,0,0,1,.177.974l-.209-.05Z" transform="translate(-143.204 -98.628)" fill="#fff"/>
      <path id="Path_2772" data-name="Path 2772" d="M192.019,136.554c-.3.231-.537.469-.58.439-.392-.283-.75-.612-1.119-.927.124-.132.322-.4.36-.38C191.1,135.922,191.5,136.2,192.019,136.554Z" transform="translate(-156.241 -111.392)" fill="#fff"/>
      <path id="Path_2773" data-name="Path 2773" d="M33,245.077a4.792,4.792,0,0,1-.788.659c-.054.03-.514-.451-.48-.507a2.45,2.45,0,0,1,.759-.829c.138-.082.464.15.705.24-.066.145-.131.29-.2.435Z" transform="translate(-26.047 -200.628)" fill="#fff"/>
      <path id="Path_2774" data-name="Path 2774" d="M175.99,212.181c-.788.82-.788.978.175,2.059-.378-.073-.654-.054-.7-.15a2.651,2.651,0,0,1-.487-1.277c.03-.32.525-.6.813-.893l.2.261Z" transform="translate(-143.64 -173.978)" fill="#fff"/>
      <path id="Path_2775" data-name="Path 2775" d="M246.191,214.294c.922-.643.888-1.287-.021-1.93l.193-.154c.175.086.432.125.514.267.2.355.508.791.439,1.126-.077.362-.532.645-.822.961l-.3-.269Z" transform="translate(-202.091 -174.216)" fill="#fff"/>
      <path id="Path_2776" data-name="Path 2776" d="M32.672,55.94c.175.559.351,1.115.566,1.8l-.569.177.027.02c-.075-.27-.068-.623-.242-.8-.551-.559-.367-.9.244-1.18l-.023-.025Z" transform="translate(-26.371 -45.926)" fill="#fff"/>
      <path id="Path_2777" data-name="Path 2777" d="M81.14,106.77H82.7l.021.215-1.558.154c-.007-.122-.014-.245-.02-.367Z" transform="translate(-66.61 -87.655)" fill="#fff"/>
      <path id="Path_2778" data-name="Path 2778" d="M84.387,113.51H85.7c.007.084.013.17.02.254l-1.361.1c.009-.12.018-.24.027-.358Z" transform="translate(-69.253 -93.188)" fill="#fff"/>
    </g>
  </g>
</svg>
