<svg id="stone-striker-katana" xmlns="http://www.w3.org/2000/svg" width="60" height="60" viewBox="0 0 60 60">
  <rect id="Rectangle_3332" data-name="Rectangle 3332" width="60" height="60" fill="none"/>
  <g id="Layer_1-2" transform="translate(8 9)">
    <g id="Group_49" data-name="Group 49" transform="translate(0 0)">
      <path id="Path_2640" data-name="Path 2640" d="M67.75,152.238c-.241.824-1.053.967-1.855,1.154-.871.2-1.724.486-2.6.666-1.609.33-2.849-.617-4.134-1.315a42,42,0,0,1-3.73-2.254c-.484-.332-.757-.957-1.179-1.4-.3-.317-.659-.733-1.04-.79a1.658,1.658,0,0,1-1.527-1.553,2.835,2.835,0,0,1,.68-2.02c1.151-1.1,2.5-1.988,3.761-2.976.472-.371.8-.311,1.149.185.832,1.193,1.672,2.383,2.567,3.527.712.908,1.427.876,2.177.033a.867.867,0,0,0,.052-1.249c-.685-.9-1.324-1.847-2.041-2.724-.511-.626-.346-.971.266-1.394a13.292,13.292,0,0,1,4.847-1.628q7.528-1.726,15.082-3.333a1.325,1.325,0,0,1,1.114.507,35.206,35.206,0,0,1,1.773,3.586,4.178,4.178,0,0,1,.348,1.691q-.068,3.711-.271,7.418a1.72,1.72,0,0,1-.558,1.105,20.411,20.411,0,0,1-5.973,3.707,6.2,6.2,0,0,1-2.319.15c-1.483-.066-2.967-.157-4.436-.355a11.791,11.791,0,0,1-2.158-.743Zm1.315-8.254.031.255q2.311-.11,4.62-.222a.375.375,0,0,0,.163-.059,1.168,1.168,0,0,1,1.624.36c.54.706,1.03.589,1.61.107,1.317-1.095,2.651-2.172,3.962-3.273a6.336,6.336,0,0,0,.671-.773.767.767,0,0,0-.666.059c-1.214.8-2.4,1.638-3.637,2.392a3.417,3.417,0,0,1-1.518.467,8.291,8.291,0,0,1-1.988-.175c-1.757-.323-3.261.519-4.873.86Zm-8.554,7.185a2.762,2.762,0,0,0-3.006-1.985Q59.008,150.176,60.511,151.169Zm8.247-1.3c.026-.047.051-.094.077-.143a15.17,15.17,0,0,0-1.186-1.068,1.965,1.965,0,0,0-.738-.166c.082.3.075.761.261.86a8.631,8.631,0,0,0,1.586.516Z" transform="translate(-42.645 -111.524)" fill="#fff"/>
      <path id="Path_2641" data-name="Path 2641" d="M25.386,19.5c-.049.285-.084.353-.063.4.156.344.322.684.486,1.025-.369.161-.741.315-1.107.483-.991.451-1.934.8-2.779-.337-.154-.208-.822-.22-1.14-.075-.509.231-1.067.605-.771,1.348.238.6-.03.832-.563,1.019-1.617.568-3.217,1.191-4.837,1.754a4,4,0,0,1-1.051.079c-.007-.39-.147-.845.005-1.156A10.568,10.568,0,0,1,14.9,21.9a26.912,26.912,0,0,1,2.417-2.516,9.532,9.532,0,0,1,1.5-.958c-.01-.054-.005-.138-.038-.157-1.28-.743-1.133-.733-1.047-2.186.145-2.418,1.633-4.181,2.71-6.143.88-1.6,1.854-3.155,2.8-4.716.208-.343.518-.623.75-.953.178-.254.469-.567.43-.808-.206-1.263.595-1.906,1.478-2.432A19.8,19.8,0,0,1,28.206,0l.248.323a12.156,12.156,0,0,0-.768,1.014,2.314,2.314,0,0,0-.166.677c.224-.065.528-.061.656-.21A9.27,9.27,0,0,0,28.883.712c.451-.7.771-.736,1.263-.112,1.2,1.525,2.378,3.069,3.593,4.583a.951.951,0,0,0,.677.271c2.037-.033,3.238,1.4,4.574,2.586a.722.722,0,0,1,.124.638c-.353.979-.769,1.936-1.138,2.91a14.5,14.5,0,0,0-.526,1.63,4.024,4.024,0,0,1-1.813,2.257c-1.584,1.135-3.106,2.366-4.755,3.4a18.436,18.436,0,0,1-3.49,1.535c-.3.108-.752-.143-1.1-.3a6.259,6.259,0,0,1-.9-.612Zm1.892-3.737a2.442,2.442,0,0,1-.671.163c-1.595-.079-2.431,1.119-3.725,2.081.434,0,.623.058.747-.009q1.729-.913,3.431-1.873c.1-.058.135-.247.206-.369,1.081.108,1.52-.684,1.971-1.46Zm5.634-9.287-.243-.156a1.162,1.162,0,0,0-.839,1.409l.341.182q.37-.719.741-1.436Z" transform="translate(-11.136 0)" fill="#fff"/>
      <path id="Path_2642" data-name="Path 2642" d="M93.729,34.565c.386-.241.792-.455,1.154-.727q5.513-4.144,11.011-8.31c3.1-2.361,6.178-4.756,9.271-7.129a1.962,1.962,0,0,0,.8-1.742c-.03-.93,0-1.864-.021-2.794-.014-.673.252-1.039,1.194-1.025-.087,1.29-.129,2.546-.266,3.789-.189,1.707-1.339,2.747-2.633,3.721-5.491,4.129-10.948,8.3-16.432,12.44q-3.032,2.287-6.132,4.484c-.923.657-1.152.56-1.817-.388-.535-.762-1.086-1.513-1.672-2.237-.374-.463-.374-.8.121-1.161q6.463-4.7,12.914-9.4c4.317-3.165,8.617-6.356,12.935-9.523a2.734,2.734,0,0,1,.769-.261c.068.236.14.472.206.708.007.026-.012.059-.007.086.388,2.139-.822,3.335-2.4,4.5-5.839,4.291-11.614,8.668-17.4,13.033a22.084,22.084,0,0,0-1.812,1.7c.072.082.143.164.215.245Z" transform="translate(-72.548 -10.593)" fill="#fff"/>
      <path id="Path_2643" data-name="Path 2643" d="M59.86,128.117q1.434-1.425,2.584.149c.465.635.915,1.282,1.422,1.88.4.467.236.754-.164,1.082s-.75.421-1.109-.051c-.334-.439-.689-.862-1.037-1.292l-.967-1.191c-.073.049-.147.1-.219.149.439.672.852,1.364,1.322,2.013,1.145,1.577,2.319,3.135,3.476,4.7a1.372,1.372,0,0,1,.3.521.707.707,0,0,1-.159.521c-.054.061-.332,0-.453-.091a2.267,2.267,0,0,1-.474-.509c-2.5-3.433-5-6.863-7.481-10.313-.143-.2-.056-.568-.077-.859.264.107.616.142.776.336.539.647,1.005,1.355,1.509,2.032.222.3.47.581.748.92Z" transform="translate(-46.882 -103.002)" fill="#fff"/>
      <path id="Path_2644" data-name="Path 2644" d="M10.457,152.7a2.938,2.938,0,0,1-.745.505c-1.058.306-2.123.6-3.2.818-2.154.442-4.319.836-6.51,1.114,3.41-1.018,6.8-2.116,10.292-2.793l.164.353Z" transform="translate(0 -125.709)" fill="#fff"/>
      <path id="Path_2645" data-name="Path 2645" d="M154.545,118.584l-9.677,2.8c-.059-.114-.119-.227-.178-.343.233-.191.435-.47.7-.56a28.264,28.264,0,0,1,2.913-.843c2.062-.451,4.137-.841,6.208-1.252a.092.092,0,0,1,.072.042C154.593,118.45,154.573,118.481,154.545,118.584Z" transform="translate(-119.389 -97.686)" fill="#fff"/>
      <path id="Path_2646" data-name="Path 2646" d="M15.19,195.743a6.327,6.327,0,0,1-1.03.511c-.271.08-.7.138-.857-.01a3.309,3.309,0,0,1-1.005-1.364c-.089-.32.289-.857.593-1.158.122-.121.7.037.915.238a16.634,16.634,0,0,1,1.383,1.782Z" transform="translate(-10.136 -159.812)" fill="#fff"/>
      <path id="Path_2647" data-name="Path 2647" d="M37.417,179.012c-.5,0-.986-.236-.9-1.067.063-.6.126-1.182.965-1.144.911.042,1.343.367,1.31,1.026C38.756,178.615,38.33,179.05,37.417,179.012Z" transform="translate(-30.125 -145.884)" fill="#fff"/>
      <path id="Path_2648" data-name="Path 2648" d="M54.347,166.066c-.21.519-.068,1.338-.995,1.266-.595-.047-1.325-.054-1.226-.977.061-.561.051-1.275.932-1.161.54.07,1.233.01,1.287.871Z" transform="translate(-43.004 -136.297)" fill="#fff"/>
      <path id="Path_2649" data-name="Path 2649" d="M26.423,190.063c-.21.411-.334.65-.456.89-.215-.121-.437-.233-.642-.369a.665.665,0,0,1-.222-.264c-.157-.343-.3-.692-.442-1.04a2.679,2.679,0,0,1,.976.047A3.382,3.382,0,0,1,26.423,190.063Z" transform="translate(-20.348 -156.164)" fill="#fff"/>
      <path id="Path_2650" data-name="Path 2650" d="M67.455,156.374l.446-.514,1.138,1.413c-.187.124-.406.381-.556.348-.532-.121-1.089-.294-1.026-1.247Z" transform="translate(-55.657 -128.606)" fill="#fff"/>
    </g>
  </g>
</svg>
