<svg id="stone-katana" xmlns="http://www.w3.org/2000/svg" width="60" height="60" viewBox="0 0 60 60">
  <rect id="Rectangle_3321" data-name="Rectangle 3321" width="60" height="60" fill="none"/>
  <g id="Layer_1-2" transform="translate(9 12)">
    <g id="Group_48" data-name="Group 48" transform="translate(0 0)">
      <path id="Path_2631" data-name="Path 2631" d="M46.188,105.718c-1.7,2.128-4.337,2.291-6.582,3.205a2.173,2.173,0,0,1-1.979-.231c-.958-.575-2.161-.745-3.113-1.329a13.406,13.406,0,0,1-2.434-2.193c-.108-.112.044-.7.243-.853,1.014-.775,2.105-1.448,3.127-2.212.834-.624,1.623-1.311,2.4-2,.484-.43.848-.4,1.226.122.871,1.2,1.738,2.406,2.649,3.576.609.782,1.112.838,1.768.315.785-.628.831-.979.215-1.824-.635-.871-1.27-1.74-1.915-2.6a.694.694,0,0,1,.18-1.159c1.722-1.189,3.419-2.413,5.132-3.616.135-.094.357-.217.47-.168.859.371,1.247-.227,1.617-.783,1.17-1.752,3.074-2.644,4.618-3.954,1-.845,2.1-1.563,3.135-2.366a.986.986,0,0,1,1.322-.068,20.894,20.894,0,0,0,2.341,1.149c1.016.476,1.957.971,2.257,2.226.269,1.124.846,2.188,1.023,3.319a10.775,10.775,0,0,1-.269,2.619,1.6,1.6,0,0,0,.037.857c.962,1.742,1.99,3.447,2.938,5.2.282.518.026.894-.612.932a7.114,7.114,0,0,0-1.381.156c-.184.047-.3.351-.446.54a2.393,2.393,0,0,0,.734.206,7.76,7.76,0,0,0,1.151-.22,5.318,5.318,0,0,1-.7,1.089,6.5,6.5,0,0,1-1.724,1.292,3.977,3.977,0,0,1-1.637.019,4.247,4.247,0,0,0-.915-.114c-.993.191-1.964.518-2.962.661-2.621.379-5.244.815-7.883.976a13.259,13.259,0,0,1-3.823-.7c-.224-.056-.448-.567-.469-.88a4.173,4.173,0,0,1,.261-1.175Zm6.01-6.965c-1.579.671-5.748,3.9-5.587,6.014.11-.1.226-.156.257-.241a5.13,5.13,0,0,1,3.006-3.079,1.248,1.248,0,0,0,.476-.365c.645-.794,1.275-1.6,1.847-2.327Zm-5.442-2.308a4.419,4.419,0,0,0-.112,2.918c.016.1.254.166.388.248.073-.138.226-.287.208-.411C47.108,98.33,46.94,97.465,46.756,96.445Zm-7.294,7.762a2.57,2.57,0,0,0-2.083-1.353A1.993,1.993,0,0,0,39.463,104.208Zm21.248-6.2c0,.1,0,.2.005.3.472.386.918.4,1.558-.3Z" transform="translate(-26.441 -72.078)" fill="#fff"/>
      <path id="Path_2632" data-name="Path 2632" d="M16.127,24.835c-.9-.841-.535-1.609-.2-2.455.67-1.7,1.154-3.476,1.88-5.15A5.1,5.1,0,0,1,19.4,15.314c1.46-1.1,3-2.105,4.564-3.058a1.85,1.85,0,0,1,1.416-.066q3.756,1.409,7.453,2.966a3.573,3.573,0,0,1,1.095.979c.838.93,1.6,1.929,2.48,2.819.6.605.446.944-.154,1.376q-3.974,2.854-7.918,5.748c-2.256,1.649-4.506,3.3-6.739,4.98-.477.358-.81.364-1.168-.119-.5-.677-1.016-1.346-1.546-2a.972.972,0,0,0-1.57-.2c-.829.694-.922.97-.383,1.733.621.88,1.252,1.754,1.922,2.6a.825.825,0,0,1-.17,1.381c-1.631,1.217-3.237,2.473-4.87,3.686-.575.427-1.124.215-1.2-.512-.28-2.712-.528-5.428-.706-8.149-.026-.388.369-.825.619-1.2.5-.752,1.053-1.465,1.541-2.223a2.02,2.02,0,0,1,2.067-1.207Zm6.3,3.245c.035.042.072.082.107.124a1.955,1.955,0,0,0,.393-.276c1.481-1.736,3.107-3.354,3.7-5.7a5.078,5.078,0,0,1,1.36-2.432,30.248,30.248,0,0,1,3.448-2.345,5.143,5.143,0,0,0,.694-.722c-.236-.058-.3-.1-.341-.079-1.875.981-3.754,1.955-5.617,2.96-.521.282-.477.7-.194,1.187a1.312,1.312,0,0,1,.212.993c-.616,1.24-1.3,2.448-2.007,3.635-.544.909-1.165,1.775-1.75,2.66Zm-8.6,3.7c.233,1.172.462,2.315.726,3.646A2.735,2.735,0,0,0,13.833,31.781Zm4.91-6.139c-.645.378-1.035.664-.607,1.175.149.178.525.164.8.238C18.876,26.624,18.816,26.2,18.743,25.641Z" transform="translate(-9.822 -9.968)" fill="#fff"/>
      <path id="Path_2633" data-name="Path 2633" d="M82.364,21.789c.57-.381,1.159-.736,1.707-1.147q8.307-6.237,16.6-12.5c1.182-.894,2.343-1.822,3.447-2.812a2.111,2.111,0,0,0,.574-1.277c.091-.953.024-1.92.054-2.88a2.155,2.155,0,0,1,.194-.909A.684.684,0,0,1,105.512,0c.131.019.306.317.316.5a9.9,9.9,0,0,1-.616,4.623,4.8,4.8,0,0,1-1.437,1.7c-3.438,2.695-6.888,5.375-10.382,7.995-4.333,3.247-8.712,6.433-13.075,9.64-.757.558-1,.49-1.541-.278-.568-.81-1.145-1.616-1.775-2.376-.411-.5-.4-.8.142-1.2,2.973-2.147,5.928-4.323,8.885-6.493q7.5-5.5,14.993-11c.633-.465,1.236-.97,1.882-1.416a1.16,1.16,0,0,1,.773-.206c.112.019.166.434.219.675.024.108-.045.234-.026.346.316,1.9-.74,2.98-2.151,4.015-4.648,3.406-9.242,6.888-13.84,10.361-1.647,1.245-3.251,2.548-4.879,3.819-.317.247-.654.467-.981.7.114.128.229.255.343.381Z" transform="translate(-63.301 -0.001)" fill="#fff"/>
      <path id="Path_2634" data-name="Path 2634" d="M48.724,115.527c.2-.271.3-.409.4-.54.678-.859,1.191-.825,1.8.063.526.766,1.084,1.514,1.666,2.238.313.39.519.74.038,1.109-.46.353-.894.486-1.339-.108-.6-.8-1.277-1.548-1.922-2.317l-.2.14c.282.446.539.909.848,1.336,1.284,1.764,2.586,3.515,3.877,5.274a1.653,1.653,0,0,1,.339.6.664.664,0,0,1-.2.509c-.059.058-.35-.019-.442-.121a9.292,9.292,0,0,1-.621-.839q-3.5-4.79-7.012-9.577c-.035-.047-.089-.089-.1-.142-.073-.33-.136-.664-.2-1a2.874,2.874,0,0,1,.876.495c.747.911,1.434,1.869,2.2,2.882Z" transform="translate(-37.668 -92.539)" fill="#fff"/>
      <path id="Path_2635" data-name="Path 2635" d="M1.8,183.136c-.638-.117-1.941-1.345-1.784-1.843.133-.425.7-.715,1.077-1.063a13.872,13.872,0,0,1,1.555,1.836c.082.131-.547.7-.848,1.072Z" transform="translate(-0.005 -148.714)" fill="#fff"/>
      <path id="Path_2636" data-name="Path 2636" d="M25.348,165.28c.044-.642.016-1.357.874-1.25.54.066,1.416-.168,1.373.894-.035.831-.434,1.294-1.114,1.263-.876-.04-1.147-.269-1.133-.908Z" transform="translate(-20.916 -135.338)" fill="#fff"/>
      <path id="Path_2637" data-name="Path 2637" d="M42.276,154.247c-.822-.014-1.264-.365-1.182-1.028.066-.533-.016-1.275.9-1.168.547.063,1.249-.021,1.266.838S42.886,154.256,42.276,154.247Z" transform="translate(-33.901 -125.455)" fill="#fff"/>
      <path id="Path_2638" data-name="Path 2638" d="M14.868,177.115c-.042.054-.212.278-.381.5q-.582-.708-1.166-1.415c.156-.121.315-.346.467-.343C14.418,175.874,14.93,176.082,14.868,177.115Z" transform="translate(-10.992 -145.108)" fill="#fff"/>
      <path id="Path_2639" data-name="Path 2639" d="M55.986,143.364l.439-.584,1.11,1.313c-.173.136-.355.4-.516.383-.519-.042-1.058-.156-1.033-1.114Z" transform="translate(-46.196 -117.813)" fill="#fff"/>
    </g>
  </g>
</svg>
