<svg id="sugarus-sight-bow" xmlns="http://www.w3.org/2000/svg" width="60" height="60" viewBox="0 0 60 60">
  <rect id="Rectangle_3333" data-name="Rectangle 3333" width="60" height="60" fill="none"/>
  <g id="Layer_1-2" transform="translate(5 6)">
    <path id="Path_2779" data-name="Path 2779" d="M170.468,4.8c.043-.2.089-.405.132-.608a1.932,1.932,0,0,0,.47-1.2c.041-.462.081-.924.122-1.388a1.178,1.178,0,0,0,.583-.881.539.539,0,0,0,.632-.405.415.415,0,0,0,.181-.159,4.524,4.524,0,0,1,2.563.038V1.272c-.529-.459-.832-.027-1.162.3-1.442.94-1.113,2.617-1.637,3.941a.138.138,0,0,0,0,.157.78.78,0,0,0-.381.737c-.089.359-.178.719-.27,1.078l-.405.675c-.07.332-.14.664-.208,1-.767.737-.8,1.845-1.345,2.693-.246.381-.481.8-1.021.64a.942.942,0,0,1-.735-1.1c.022-.219.032-.438.051-.659.089-.149.176-.3.265-.446a2.521,2.521,0,0,0,.935-1.68c.041-.167.084-.335.124-.5l.348-.586c.092-.432.181-.864.27-1.3a2.084,2.084,0,0,0,.494-1.424Z" transform="translate(-125.382 0.016)" fill="#fff"/>
    <path id="Path_2780" data-name="Path 2780" d="M40.466,40.79c-2.262,1.47-3.974,3.564-5.928,5.379-3.7,3.442-7.293,7-10.94,10.506a10.932,10.932,0,0,1-1.35,1.114c-.37.256-.88.589-1.244.19-.395-.432.334-.662.41-1.046a.449.449,0,0,0,.339-.449c.05-.046.1-.094.141-.142.234.023.337-.147.44-.312.274-.228.551-.457.825-.688,1.242-1.3,2.7-2.371,3.831-3.792a2.882,2.882,0,0,0,1.378-1.279,1.164,1.164,0,0,0,.654-.576c.887-.18,1.136-1.013,1.616-1.612A58.031,58.031,0,0,0,36,43.074a19.978,19.978,0,0,0,3.927-3.813A2.826,2.826,0,0,0,41.041,38.1c1.357-.579,2.162-1.815,3.178-2.785,4.477-4.259,8.9-8.572,13.346-12.862,1.2.485.163,1.17.156,1.762l-.04.043a1.42,1.42,0,0,0-.709.731c-.093.091-.186.183-.277.274l-.485.472-.3.274a1.369,1.369,0,0,0-.7.729l-2.775,2.6a1.227,1.227,0,0,0-.752.688c-.241.228-.48.457-.721.683a1.982,1.982,0,0,0-.925.893.3.3,0,0,0-.093.086,8.061,8.061,0,0,0-2.7,2.637A7.839,7.839,0,0,0,45.086,36.4a33.77,33.77,0,0,0-4.623,4.391Z" transform="translate(-15.245 -16.382)" fill="#fff"/>
    <path id="Path_2781" data-name="Path 2781" d="M18.656,63.831c-2.531-3.7-4.206-7.874-6.461-11.731-2.077-3.549-3.9-7.247-5.835-10.88.019-.254.038-.508.054-.762a.187.187,0,0,0,.1-.105c.176,0,.351,0,.524,0,.246.246.492.492.737.735l1.113,1.521a6.328,6.328,0,0,0,1.048,1.937c.157.235.316.47.473.708.116.211.232.421.346.632a1.5,1.5,0,0,0,.762,1.224,30.359,30.359,0,0,0,2.434,4.449c1.84,3.271,3.779,6.483,5.678,9.721l.311.286-.078.019-.016.078c.095.13.192.259.286.389.011.176.022.351.032.524L18.65,63.828Z" transform="translate(-4.642 -30.381)" fill="#fff"/>
    <path id="Path_2782" data-name="Path 2782" d="M49.274,18.387a3.211,3.211,0,0,0,1.7,1.056,7.674,7.674,0,0,0,1.888,1.124c2.239,1.307,4.479,2.609,6.715,3.925.475.281,1.213.481.808,1.261a1.173,1.173,0,0,1-1.68.648c-1.737-.989-3.422-2.069-5.135-3.1-2.107-1.267-4.219-2.52-6.329-3.779a.113.113,0,0,0-.146.068.611.611,0,0,0-.384-.484l-1.056-.454a.564.564,0,0,0-.532-.4,22.642,22.642,0,0,0-4.457-2.7.863.863,0,0,0-.694-.5l-.616-.4a1.339,1.339,0,0,0-.737-.546c-.375-.311-1.18-.44-.71-1.159.373-.573.948-.289,1.434-.016q2.869,1.617,5.735,3.233c.459.257.832.71,1.44.64a.992.992,0,0,0,.673.508l2.083,1.078Z" transform="translate(-28.517 -9.198)" fill="#fff"/>
    <path id="Path_2783" data-name="Path 2783" d="M35.856,39.753a106.758,106.758,0,0,0,8.017,8.082l.051.049a1.633,1.633,0,0,0,1.067,1.008l.567.573a1.62,1.62,0,0,0,1.016,1.078l.03.035a1.773,1.773,0,0,0,1.048,1.032,7.787,7.787,0,0,0,1.68,1.637c-.338,1.426-.664,1.575-2.085.959a.47.47,0,0,0-.154-.186,4.968,4.968,0,0,0-1.769-1.9l-.292-.3c-.165-.176-.33-.354-.492-.532,0,0-.016-.022-.016-.019A.9.9,0,0,0,44,50.709c-.084-.086-.17-.173-.254-.257a.89.89,0,0,0-.548-.535L43.19,49.9a.856.856,0,0,0-.5-.551l-.016-.024A7.42,7.42,0,0,0,40.21,46.7l-.127-.24a1.252,1.252,0,0,0-.664-.635c-1.329-1.437-2.644-2.885-3.992-4.3-1.026-1.083-1.016-1.189.432-1.772Z" transform="translate(-26.019 -29.703)" fill="#fff"/>
    <path id="Path_2784" data-name="Path 2784" d="M1.116,170.777c1.245-.068,2.4-1.264,3.728-.321a2.078,2.078,0,0,1-1.1,1.923c-.529.119-1.162.024-1.437.681a.946.946,0,0,0-.459.613.366.366,0,0,0-.022.194l-.34.343-.4.146H.535l-.535-.1a8.306,8.306,0,0,1,1.116-3.476Z" transform="translate(0 -126.436)" fill="#fff"/>
    <path id="Path_2785" data-name="Path 2785" d="M132.706,70.274c-.159-.095-.321-.189-.481-.281a7.954,7.954,0,0,0-1.956-1.372c-.816-.521-.667-1.035-.014-1.572a2,2,0,0,1,1.259-.359c.273.132.543.262.816.392l.511.416c.111.051.224.1.335.149.157.122.313.243.473.365l.551.251a4.678,4.678,0,0,0,2.42,1.221,8.877,8.877,0,0,0,2.2,1.264.7.7,0,0,0,1.161,0l.459-.038c1.818.621,2.188,2.355,2.852,3.822.294.648-.278,1-.864,1.062-1.067.113-2.142.167-3.217.216a.973.973,0,0,1-1.11-.778c-.378-1.985-1.869-2.836-3.517-3.541a3.154,3.154,0,0,0-1.337-.843.679.679,0,0,0-.543-.373Z" transform="translate(-97.45 -49.676)" fill="#fff"/>
    <path id="Path_2786" data-name="Path 2786" d="M152.712,63.428c-.059-1.053.751-1.659,1.272-2.4.286-.408.791-.335,1.21-.084a.8.8,0,0,1,.438,1.01c-.456.913-.708,2.088-2.088,2.1l-.829-.624Z" transform="translate(-113.77 -45.13)" fill="#fff"/>
    <path id="Path_2787" data-name="Path 2787" d="M164.1,52.7l-.559-.316c-.327-1.27.335-1.248,1.221-.937l.257.475c-.081.24-.165.481-.246.721l-.022.019Z" transform="translate(-122.079 -38.07)" fill="#fff"/>
    <path id="Path_2788" data-name="Path 2788" d="M104.41,109.6c.346.6.783,1.14,1.537,1.1,1.672-.095,2.145.9,2.218,2.3-.049,2.92-.408,3.168-3.309,2.239-.505-.162-.994-.37-1.494-.559.041-1.532.062-3.052-1.607-3.871-.735-.821-1.453-1.659-2.21-2.461a12.43,12.43,0,0,0-2.534-2.531l-.508-.559c-.065-.065-.13-.132-.194-.2-.678-.759-1.364-1.51-2.031-2.28-.427-.494-.786-1.018-.14-1.613a1.117,1.117,0,0,1,1.748.089c.467.473.948.932,1.424,1.4a.759.759,0,0,0,.524.459c.194.192.386.384.581.578a.743.743,0,0,0,.527.5c.186.184.373.37.556.554,1.334,1.926,3.241,3.268,4.916,4.851Z" transform="translate(-70.295 -75.324)" fill="#fff"/>
    <path id="Path_2789" data-name="Path 2789" d="M120.441,100.828c.937-.03,1.55.894,1.118,1.486a8.007,8.007,0,0,1-2.1,2.037.96.96,0,0,1-1.31-.281.788.788,0,0,1,.1-1.189,12.957,12.957,0,0,1,2.2-2.053Z" transform="translate(-87.882 -74.929)" fill="#fff"/>
    <path id="Path_2790" data-name="Path 2790" d="M140.884,87.933c-.262-.332-.927-.6-.651-1.032.308-.481.881-.143,1.313.1A.824.824,0,0,1,140.884,87.933Z" transform="translate(-104.36 -64.341)" fill="#fff"/>
    <path id="Path_2791" data-name="Path 2791" d="M133.84,94.441c.143-.926.359-.94,1.518-.105C134.926,95.408,134.369,94.754,133.84,94.441Z" transform="translate(-99.654 -69.589)" fill="#fff"/>
    <path id="Path_2792" data-name="Path 2792" d="M61.439,136.151a22.619,22.619,0,0,0,3.106,5.13,4.994,4.994,0,0,0,.351.4c.47.44,1.434.205,1.572,1.075a7.887,7.887,0,0,1-.205,3.331c-.113.419-.405.835-.843.708a9.128,9.128,0,0,1-3.625-1.637c-.23-.2-.249-.648-.362-.986l.065-.875c.416-.416.5-.835.014-1.259a6.042,6.042,0,0,0-1.332-2.561c-.664-1.261-1.3-2.536-2-3.782-.6-1.078-.041-1.756.818-2.18s.964.538,1.313.962a19.575,19.575,0,0,1,1.121,1.669Z" transform="translate(-43.274 -99.662)" fill="#fff"/>
    <path id="Path_2793" data-name="Path 2793" d="M36.925,159.116l-.008.127a1.738,1.738,0,0,1-1.267,2.039c-.705.249-1.372.605-2.072.872-.824.313-1.486.205-1.688-.816a3,3,0,0,1,2.034-1.791c.756-.265,1.507-.546,2.258-.818l.743.389Z" transform="translate(-23.779 -118.141)" fill="#fff"/>
    <path id="Path_2794" data-name="Path 2794" d="M53.81,155.754c-.005-.662.105-1.288.789-1.575.538-.227.835.127,1.035.578-.016.605.07,1.253-.654,1.569C54.358,156.6,54.134,156.075,53.81,155.754Z" transform="translate(-40.07 -114.768)" fill="#fff"/>
    <path id="Path_2795" data-name="Path 2795" d="M22.46,169.645l.651-.635c.44.311.759.735.249,1.148s-.732-.095-.9-.513Z" transform="translate(-16.393 -125.644)" fill="#fff"/>
    <path id="Path_2796" data-name="Path 2796" d="M92.728,121.13a2,2,0,0,1,.143.227c.335.7,1.58,1.053,1.188,1.91a5.306,5.306,0,0,1-2.523,2.307c-.9.456-1.8-.408-2.137-1.929q.827-.762,1.653-1.521a.938.938,0,0,0,.724-.637l.954-.354Z" transform="translate(-66.654 -90.049)" fill="#fff"/>
    <path id="Path_2797" data-name="Path 2797" d="M77.562,137.07c.8.14,1.594.524,1.483,1.38-.116.891-1.048,1.307-1.848,1.5-1.089.257-1.172-.8-1.548-1.448l1.912-1.426Z" transform="translate(-56.37 -101.834)" fill="#fff"/>
  </g>
</svg>
