<svg id="the-weightless-spirit-bow" xmlns="http://www.w3.org/2000/svg" width="60" height="60" viewBox="0 0 60 60">
  <rect id="Rectangle_3337" data-name="Rectangle 3337" width="60" height="60" fill="none"/>
  <g id="Layer_1-2" transform="translate(-184.508 -57.668)">
    <g id="Group_61" data-name="Group 61" transform="translate(192.508 68.667)">
      <path id="Path_2798" data-name="Path 2798" d="M16.475,19.947c-.535-.039-.795-.075-1.056-.075q-7.209,0-14.415.009c-.612,0-1.015-.05-1.013-.847,0-.766.363-.883,1-.881,5.491.021,10.983.014,16.474.047a2.719,2.719,0,0,0,2.016-.985q6.6-6.626,13.21-13.25c.927-.929,1.812-1.9,2.775-2.793C36.581.135,39.494-.486,40.91.481a1.314,1.314,0,0,1,.494.842c.02.161-.374.535-.578.532-2.149-.023-2.987,1.685-3.975,3.076a9.075,9.075,0,0,0-1.914,5.294c0,.63-.312.91-.956.885-.666-.025-1-.328-.974-1a8.92,8.92,0,0,1,1.1-4.372,4.638,4.638,0,0,0,.294-.791l-.249-.183q-13.585,13.6-27.167,27.2l.161.258c.31-.1.628-.181.929-.3.551-.222,1.087-.483,1.64-.7.48-.188,1.024-.41,1.264.3a1.181,1.181,0,0,1-.616,1.586c-.507.247-1.065.394-1.558.664-.938.514-1.869,1.051-2.759,1.644A2.655,2.655,0,0,0,4.577,37.6a1.072,1.072,0,0,1-1.162,1.119,1.224,1.224,0,0,1-1.124-1.295,5.3,5.3,0,0,1,1.585-4.673c4.079-3.848,7.978-7.885,11.941-11.857a7.431,7.431,0,0,0,.654-.953Z" transform="translate(0.01 0.001)" fill="#fff"/>
      <path id="Path_2799" data-name="Path 2799" d="M138.789,82.592a14.243,14.243,0,0,0,2.052-.032,1.108,1.108,0,0,0,.711-.68c.256-.908.34-1.866.623-2.763a1.147,1.147,0,0,1,.936-.5c.591.027,1.253.218,1.214,1.017a9.894,9.894,0,0,1-.315,1.66c-.209.94-.063,1.141.879,1.123.686-.013,1.377-.106,2.055-.05a3.6,3.6,0,0,0,3.218-1.18c.541-.612,1.155-.22,1.624.063a15.733,15.733,0,0,1,2.054,1.568.858.858,0,0,1,.005,1.456c-.813.636-1.681,1.2-2.539,1.776a.891.891,0,0,1-1.264-.245,3.607,3.607,0,0,0-2.818-1.067c-4.372-.066-8.745-.208-13.115-.34a2.279,2.279,0,0,1-.7-.276c.1-.231.145-.557.324-.677a3.661,3.661,0,0,1,1.406-.682c1.205-.17,2.428-.2,3.645-.29,0,.039,0,.079.005.12Z" transform="translate(-109.521 -64.54)" fill="#fff"/>
      <path id="Path_2800" data-name="Path 2800" d="M133.955,143.151a2.168,2.168,0,0,1-1.993-1.425c-.337-.6.134-1,.53-1.372q1.179-1.1,2.376-2.174c.827-.743,1.372-.709,2.127.109.938,1.017.99,1.588.167,2.351-.722.668-1.45,1.33-2.213,1.95a5.619,5.619,0,0,1-.994.559Z" transform="translate(-108.238 -113.002)" fill="#fff"/>
      <path id="Path_2801" data-name="Path 2801" d="M166.129,117a10.2,10.2,0,0,1-.691,1.2,10.887,10.887,0,0,1-1.37,1.524c-.251.215-.843.4-1.022.26-.507-.392-1.227-.84-.818-1.669a9.38,9.38,0,0,1,1.244-1.948,1.231,1.231,0,0,1,1.074-.26,8.7,8.7,0,0,1,1.583.89Z" transform="translate(-133.08 -95.295)" fill="#fff"/>
      <path id="Path_2802" data-name="Path 2802" d="M114.869,161.851c.535.007,1.624,1.2,1.633,1.785.007.56-1.561,1.5-2.435,1.456-.654-.032-1-.736-.956-1.932a1.7,1.7,0,0,1,1.758-1.311Z" transform="translate(-92.853 -132.87)" fill="#fff"/>
      <path id="Path_2803" data-name="Path 2803" d="M79.236,172.43c-.349,0-.618,0-.885,0-.516-.007-.969-.1-.972-.761,0-.578.109-1.083.8-1.184.675-.1,1.352-.2,2.029-.277.645-.079.924.26.97.87.045.585.118,1.184-.695,1.282-.44.054-.89.05-1.253.07Z" transform="translate(-63.523 -139.723)" fill="#fff"/>
    </g>
  </g>
</svg>
