<svg id="water-katana" xmlns="http://www.w3.org/2000/svg" width="60" height="60" viewBox="0 0 60 60">
  <rect id="Rectangle_3298" data-name="Rectangle 3298" width="60" height="60" fill="none"/>
  <g id="Layer_1-2" transform="translate(9 10)">
    <g id="Group_43" data-name="Group 43" transform="translate(0 0)">
      <path id="Path_2571" data-name="Path 2571" d="M42.236,89.947a21.4,21.4,0,0,1-14.608-6c-.47-.43-.512-.8.028-1.2q3.2-2.421,6.388-4.863c.43-.329.738-.2,1.025.2.874,1.2,1.735,2.41,2.644,3.581.734.944,1.486.96,2.188-.017a1.243,1.243,0,0,1,1.467-.509,9.021,9.021,0,0,0,2.838.115c1.56-.257,1.99-1.313,1.371-2.77-.143-.339-.014-.785-.072-1.173a2.76,2.76,0,0,0-.29-.673c-.185.1-.365.206-.556.294-.213.1-.574.3-.628.243a1.254,1.254,0,0,1-.383-.782c.056-.936,1.436-1.719,2.158-1.145.927.736,2.09.39,3.03.908a.465.465,0,0,0,.336-.038,2.734,2.734,0,0,0,1-2.217,1.529,1.529,0,0,0-1.039-1.472,2.268,2.268,0,0,0-2.268.479c-.119.182.023.533.038.808.017.3.026.607.04.909-.3-.107-.7-.124-.874-.332a2.63,2.63,0,0,1,1.091-3.887,8.6,8.6,0,0,0,3.42-2.913,10.218,10.218,0,0,1,2.3-1.84q3.609-2.754,7.218-5.506c.727-.558,1.131-.49,1.392.393.341,1.156.6,2.338.864,3.515a20.361,20.361,0,0,1,.831,4.129,20.768,20.768,0,0,1-8.6,17.623,18.508,18.508,0,0,1-7.974,3.565c-1.446.257-2.915.4-4.373.589Zm9.388-22.033c-.017.089-.037.178-.054.268a17.591,17.591,0,0,0,1.812.811.851.851,0,0,0,.736-.285,8.819,8.819,0,0,1,3.022-2.824c.8-.42,1.586-.887,2.376-1.331a7.782,7.782,0,0,0-5.234,3.191A1.008,1.008,0,0,1,52.9,68.2a9.046,9.046,0,0,0-1.275-.287Z" transform="translate(-22.494 -49.322)" fill="#fff"/>
      <path id="Path_2572" data-name="Path 2572" d="M71.165,21.04l1.112-1.187a2.408,2.408,0,0,0-1.953,1.612c-.357,1.284-1.4,1.726-2.432,2.123a2.021,2.021,0,0,0-1.324.99c-.131.268-.715.609-.836.528a1.617,1.617,0,0,1-.689-.976c-.121-.9.533-1.415,1.212-1.857.3-.2.621-.381.981-.6a9.835,9.835,0,0,0-6.383-2.466,4.706,4.706,0,0,0-3.9,2.142c-.287.409-.374.776.2,1.063a.823.823,0,0,1,.4,1.245,1.182,1.182,0,0,1-1.462.654,2.041,2.041,0,0,1-1.392-1.752,5.024,5.024,0,0,1,3.319-5.84,3.078,3.078,0,0,0,1-.663,8.048,8.048,0,0,1,5.673-2.487,11.182,11.182,0,0,0,2.838-.7,6.675,6.675,0,0,1,6.465.869,3.964,3.964,0,0,0,1.432.432c1.1.268,2.212.481,3.3.789.528.15.621.642.154.911-1.754,1.014-3.088,2.674-5.118,3.275a1.9,1.9,0,0,0-.857.869,2.608,2.608,0,0,1-1.558,1.228l-.173-.194Z" transform="translate(-45.059 -10.248)" fill="#fff"/>
      <path id="Path_2573" data-name="Path 2573" d="M82.2,25.3c.609-.411,1.236-.8,1.822-1.235q5.938-4.446,11.858-8.916c2.618-1.985,5.2-4.018,7.811-6.007a2.112,2.112,0,0,0,.9-1.953,26.34,26.34,0,0,1-.007-2.705,1.36,1.36,0,0,1,.393-.892c.3-.261.678-.219.712.323A10.562,10.562,0,0,1,105,8.785a4.266,4.266,0,0,1-1.367,1.544Q93.084,18.376,82.493,26.371c-.789.6-1.626,1.126-2.417,1.719a.819.819,0,0,1-1.332-.2c-.631-.873-1.247-1.756-1.911-2.6-.392-.5-.374-.832.157-1.217q4.6-3.321,9.17-6.68,6.232-4.564,12.454-9.14c1.406-1.033,2.8-2.086,4.212-3.106a.844.844,0,0,1,.7-.159c.156.087.21.439.222.68.023.463-.038.93-.026,1.4a2.369,2.369,0,0,1-1.042,2.09Q96.982,13.41,91.31,17.7c-2.849,2.163-5.669,4.363-8.493,6.561a7.737,7.737,0,0,0-.8.836l.178.2Z" transform="translate(-63.173 -2.832)" fill="#fff"/>
      <path id="Path_2574" data-name="Path 2574" d="M22.139,10.487A7.851,7.851,0,0,1,25.211,5a14.412,14.412,0,0,0,1.64-1.764A8.048,8.048,0,0,1,33.846.2,12.247,12.247,0,0,0,36.939.074a15.805,15.805,0,0,1,3.52.117,8,8,0,0,0,1.2.1,8.1,8.1,0,0,1,6.372,2.028,2.23,2.23,0,0,1,.448.528c.061.1.07.35.009.39a.6.6,0,0,1-.46.066,1.775,1.775,0,0,1-.505-.334A6.351,6.351,0,0,0,42.428,1.7c-1.222.173-2.4.621-3.618.888a13.123,13.123,0,0,1-2.153.283,7.279,7.279,0,0,0-3.422,1.152C31.6,5,29.861,5.82,28.254,6.847A10.592,10.592,0,0,0,24.5,11.561c-.213.462-.087.827.42,1.161a2.082,2.082,0,0,1,.862,1.243,1.263,1.263,0,0,1-.671,1.056,2.114,2.114,0,0,1-1.6-.24c-1.179-.909-1.394-2.277-1.38-4.295Z" transform="translate(-18.265 0.001)" fill="#fff"/>
      <path id="Path_2575" data-name="Path 2575" d="M4.922,127.46a10.272,10.272,0,0,1,5.048,2.123c.1.066.009.692-.17.834-2.007,1.583-4.05,3.121-6.085,4.671-.523.4-.929.388-1.231-.29-.318-.715-.722-1.39-1.051-2.1-.248-.533-.121-.841.54-.967a2.893,2.893,0,0,0,1.458-.663,1.556,1.556,0,0,0,.31-1.285c-.157-.612-.692-.607-1.2-.2a2.456,2.456,0,0,1-.934.25c.061-.334.019-.871.2-.967,1.114-.574,2.28-1.044,3.106-1.408Z" transform="translate(-1.085 -105.172)" fill="#fff"/>
      <path id="Path_2576" data-name="Path 2576" d="M48.126,118.91c.254-.334.379-.526.532-.7.595-.675,1.089-.621,1.591.1.561.811,1.151,1.605,1.759,2.382.32.406.588.792.044,1.173A.865.865,0,0,1,50.7,121.7c-.6-.794-1.275-1.534-1.917-2.3-.063.047-.128.093-.191.14.367.565.71,1.149,1.107,1.691,1.235,1.689,2.5,3.352,3.719,5.052.161.224.107.6.152.909-.278-.121-.661-.161-.817-.372q-3.874-5.214-7.68-10.478c-.147-.2-.072-.567-.1-.857.266.093.626.107.78.292.554.668,1.035,1.4,1.553,2.1.234.316.493.617.822,1.028Z" transform="translate(-37.105 -95.295)" fill="#fff"/>
      <path id="Path_2577" data-name="Path 2577" d="M2.823,185.846a3.979,3.979,0,0,1-.871.761.991.991,0,0,1-.867-.068,4.784,4.784,0,0,1-.972-1.214c-.332-.572.1-.911.511-1.215a.651.651,0,0,1,1.035.2c.351.488.724.96,1.161,1.534Z" transform="translate(0.006 -151.77)" fill="#fff"/>
      <path id="Path_2578" data-name="Path 2578" d="M42.106,158.012c-.745-.03-1.27-.192-1.277-.981-.009-.867.3-1.3.957-1.243.582.049,1.229.1,1.275.9A1.17,1.17,0,0,1,42.106,158.012Z" transform="translate(-33.688 -128.541)" fill="#fff"/>
      <path id="Path_2579" data-name="Path 2579" d="M26.271,168.106c.28.047.977-.037.885.86-.063.609-.1,1.32-.976,1.214-.568-.07-1.366,0-1.257-1.014C24.995,168.486,25.154,167.954,26.271,168.106Z" transform="translate(-20.556 -138.689)" fill="#fff"/>
      <path id="Path_2580" data-name="Path 2580" d="M13.073,181.258c-.423-.54-.848-1.079-1.313-1.672a1.116,1.116,0,0,1,1.6.129c.241.332.129.922.173,1.4l-.46.145Z" transform="translate(-9.703 -147.964)" fill="#fff"/>
      <path id="Path_2581" data-name="Path 2581" d="M56.1,146.83l.372-.43,1.123,1.35c-.177.133-.36.385-.528.374-.588-.037-1.105-.227-.965-1.3Z" transform="translate(-46.271 -120.8)" fill="#fff"/>
    </g>
  </g>
</svg>
