<svg id="wind-katana" xmlns="http://www.w3.org/2000/svg" width="60" height="60" viewBox="0 0 60 60">
  <rect id="Rectangle_3301" data-name="Rectangle 3301" width="60" height="60" fill="none"/>
  <g id="Layer_1-2" transform="translate(6 11)">
    <g id="Group_44" data-name="Group 44" transform="translate(0 0)">
      <path id="Path_2582" data-name="Path 2582" d="M102.292,21.793c.831-.6,1.672-1.177,2.49-1.789q8.624-6.468,17.238-12.947c.42-.315.822-.65,1.238-.967a2.853,2.853,0,0,0,1.322-2.668,16.283,16.283,0,0,1,.037-2.354,1.655,1.655,0,0,1,.243-.8.75.75,0,0,1,.582-.236c.089,0,.255.325.236.484a42.321,42.321,0,0,1-.637,4.735,3.354,3.354,0,0,1-1.313,1.576q-8.955,6.838-17.955,13.615c-1.857,1.4-3.768,2.73-5.627,4.129a.83.83,0,0,1-1.38-.2c-.647-.9-1.311-1.778-1.978-2.66-.4-.526-.107-.857.306-1.158q2.043-1.5,4.088-2.987,7.087-5.175,14.171-10.352c2.511-1.841,5-3.712,7.51-5.554a.879.879,0,0,1,.694-.192c.154.072.194.428.243.668.026.135-.075.3-.045.43.46,2.13-.979,3.134-2.411,4.2q-8.052,5.993-16.063,12.043c-1.117.843-2.168,1.773-3.249,2.663.086.112.173.222.259.334Z" transform="translate(-79.707 -0.027)" fill="#fff"/>
      <path id="Path_2583" data-name="Path 2583" d="M5.2,49.521a7.8,7.8,0,0,1,.995-.145c2.3-.045,4.6-.1,6.905-.1a30.628,30.628,0,0,1,3.125.2c1.1.114,1.993.79,1.976,1.418s-1.053,1.352-2.079,1.443l-11.3,1a.507.507,0,0,0-.173.019c-.381.2-.759.4-1.138.6a3.634,3.634,0,0,0,1.172.467c6.264.086,12.527.131,18.789.2a2.273,2.273,0,0,1,.726.289c-.156.224-.266.563-.477.647A4.61,4.61,0,0,1,22.062,56c-6.148-.044-12.3-.128-18.443-.2a15.68,15.68,0,0,1-2.09-.063,1.9,1.9,0,0,1-1.107-.581c-.261-.313-.532-1.049-.4-1.18A3.728,3.728,0,0,1,1.85,52.8c3.237-.378,6.494-.584,9.74-.888a14.294,14.294,0,0,0,2.394-.463c.241-.066.409-.406.61-.621a2.722,2.722,0,0,0-.656-.446A19.818,19.818,0,0,0,7.26,49.91c-.68.023-1.362,0-2.042,0-.005-.131-.01-.262-.017-.393Zm10.752.47a6.245,6.245,0,0,0-.46,1.191c-.019.131.357.465.4.439a12.242,12.242,0,0,0,1.116-.766ZM1.881,54.69c.317-.36.547-.623.776-.885-.191-.149-.442-.462-.563-.418a6.192,6.192,0,0,0-1.084.637l.871.668Z" transform="translate(0.009 -40.667)" fill="#fff"/>
      <path id="Path_2584" data-name="Path 2584" d="M51.7,182.322a1.289,1.289,0,0,1,1.357-1.028,73.832,73.832,0,0,1,7.773.059,11.169,11.169,0,0,0,3.167,0,21.6,21.6,0,0,1,4.877.061c1.1.063,1.771.635,1.85,1.409a1.876,1.876,0,0,1-1.595,1.971,1.063,1.063,0,0,0-.25.075c-.4.226-1.135.247-.918.913.084.259.729.462,1.124.469,2.8.052,5.592.047,8.388.059a1.617,1.617,0,0,0,.605-.017,3.525,3.525,0,0,0,.638-.46,2.183,2.183,0,0,0-.558-.451,5.908,5.908,0,0,1-1.471-.581c.135-.066.278-.206.4-.189a26.822,26.822,0,0,1,3.067.5c.334.086.563.582.839.892-.413.329-.81.682-1.249.97-.145.094-.4.028-.6.03q-6.382.016-12.765.023a1.6,1.6,0,0,1-.827-.156c-1-.638-.965-1.521.077-2.093.378-.208.827-.282,1.222-.463a5.664,5.664,0,0,0,1.028-.605c.553-.418.376-.825-.15-1.06a2.783,2.783,0,0,0-1.1-.171c-4.662-.012-9.325-.007-13.987-.016a6.32,6.32,0,0,1-.937-.143Zm17.894.18a1.37,1.37,0,0,0-1.228,1.413c.017.166.346.455.357.446a11.481,11.481,0,0,0,1.411-1.168A5.343,5.343,0,0,0,69.594,182.5Zm-2.322,2.658-.411-.4q-.514.5-1.026.991c.171.168.344.334.516.5l.923-1.088Z" transform="translate(-42.658 -149.534)" fill="#fff"/>
      <path id="Path_2585" data-name="Path 2585" d="M125.725,139.366c.775,0,1.555-.063,2.32.014a2.647,2.647,0,0,1,2.522,2.415c.031.185.283.505.348.484a5.709,5.709,0,0,0,1.313-.574c.08-.051.024-.518-.108-.677a11.8,11.8,0,0,0-1.191-1.074,1.878,1.878,0,0,1,1.836.747c.416.414.748.941.231,1.446a4.354,4.354,0,0,1-1.658,1.152,9.861,9.861,0,0,1-2.681.275q-9.217.055-18.436.056a1.2,1.2,0,0,1-.677-.1,6.094,6.094,0,0,1-.775-.85,3.071,3.071,0,0,1,.943-.33c5.882,0,11.767.026,17.649.021a7.417,7.417,0,0,0,1.89-.292,1,1,0,0,0,.6-.616.817.817,0,0,0-.414-.656c-.9-.4-1.817-.738-2.742-1.067a6.606,6.606,0,0,0-.99-.194c.007-.063.012-.124.019-.187Z" transform="translate(-89.749 -114.98)" fill="#fff"/>
      <path id="Path_2586" data-name="Path 2586" d="M133.338,22.326a6.872,6.872,0,0,1-1,.208c-3.544.215-7.092.388-10.635.638a7.166,7.166,0,0,0-2.261.6,1.537,1.537,0,0,0-.825.988c-.038.24.467.692.817.845a15.142,15.142,0,0,0,6.341.963c.388-.005.776.056,1.21.089a1.1,1.1,0,0,1-1.158,1.016,27.143,27.143,0,0,1-8.717-1.028,2.025,2.025,0,0,1-.605-.332c-1.464-1.156-1.317-2.709.474-3.223a29.089,29.089,0,0,1,6.064-1.095c3.076-.2,6.173-.126,9.259-.152A6.213,6.213,0,0,1,133.32,22c.005.11.012.222.017.332ZM117.88,23.681c-.8.086-1.591.67-1.458,1.147.2.7.811.829,1.348.915.038-.734.072-1.371.108-2.062Z" transform="translate(-95.312 -18.025)" fill="#fff"/>
      <path id="Path_2587" data-name="Path 2587" d="M147.633,107.984a4.842,4.842,0,0,1,3.66-2.375c3.461-.108,6.925-.056,10.389-.061,1.659,0,3.319.019,4.978.005a5.643,5.643,0,0,0,.965-.17c.019-.086.037-.17.056-.255l-1.261-.754a4.621,4.621,0,0,1,3.5.684.64.64,0,0,1,.072.248.705.705,0,0,1-.642.937,29.961,29.961,0,0,1-3.207.306c-3.578.061-7.159.028-10.737.1a23.6,23.6,0,0,0-7.8,1.306l.023.023Z" transform="translate(-121.797 -86.024)" fill="#fff"/>
      <path id="Path_2588" data-name="Path 2588" d="M68.055,114.938c1.581-1.513,1.572-1.507,2.758.227.393.575.829,1.121,1.273,1.658.322.388.472.754.007,1.119a.835.835,0,0,1-1.3-.077c-.575-.691-1.145-1.385-1.722-2.076a2.16,2.16,0,0,0-.248-.222l-.187.14c.843,1.182,1.673,2.375,2.534,3.544.792,1.077,1.637,2.114,2.408,3.205.152.217.073.6.1.9-.264-.1-.631-.133-.778-.327-1.332-1.759-2.632-3.546-3.934-5.328-1.252-1.712-2.509-3.419-3.728-5.155a2.632,2.632,0,0,1-.2-.979c.332.154.776.219.977.476.712.906,1.339,1.876,2.044,2.889Z" transform="translate(-53.657 -92.065)" fill="#fff"/>
      <path id="Path_2589" data-name="Path 2589" d="M4.28,148.251l.523.867c.6-2.049,2.028-1.7,3.394-1.535.028.1.056.2.086.3a14.97,14.97,0,0,0-1.537.32,2.933,2.933,0,0,0-.712.491c.254.136.509.39.762.39,1.1,0,2.2-.091,3.307-.091.252,0,.5.233.754.358-.234.171-.469.491-.7.491-1.621,0-3.245-.044-4.865-.129a2.979,2.979,0,0,1-1.138-.393C3.558,149.009,3.586,148.711,4.28,148.251Z" transform="translate(-3.077 -121.672)" fill="#fff"/>
      <path id="Path_2590" data-name="Path 2590" d="M227.446,54.489c-.142-.343-.481-.8-.374-.96.486-.7,1.254-.446,1.9-.285.894.222,1.665,1.051,1.385,1.392a2.651,2.651,0,0,1-1.418,1.012,36.8,36.8,0,0,1-3.983.175,1.783,1.783,0,0,1-.446-.152c.747-1.142,2.252-.252,2.934-1.182Zm2.277-.014c-.437-.285-.661-.518-.92-.567-.149-.028-.523.3-.5.365.08.255.255.619.456.663S229.256,54.714,229.723,54.475Z" transform="translate(-185.25 -43.788)" fill="#fff"/>
      <path id="Path_2591" data-name="Path 2591" d="M208.639,82.894c-.792.073-1.437.166-2.086.189-1.918.063-3.838.11-5.758.129-.234,0-.47-.2-.7-.308.192-.226.379-.453.579-.671.031-.035.112-.037.168-.035q3.735.212,7.472.434c.065,0,.122.094.331.264Z" transform="translate(-165.1 -67.829)" fill="#fff"/>
      <path id="Path_2592" data-name="Path 2592" d="M6.307,191.009,9.559,192a4.659,4.659,0,0,1-1.005.392,8.577,8.577,0,0,1-1.388-.026c-.595-.045-1.252-.133-1.35-.848a1.722,1.722,0,0,1,.638-1.854c.278-.168.715-.072,1.081-.1a5.521,5.521,0,0,1-.423,1.005c-.112.17-.4.227-.8.441Z" transform="translate(-4.768 -156.415)" fill="#fff"/>
      <path id="Path_2593" data-name="Path 2593" d="M23.279,182.13a6.023,6.023,0,0,1-1.154.815c-.577.212-1.3-.407-1.633-1.264a.927.927,0,0,1,.556-1.27c.145-.077.411-.18.472-.119.56.546,1.086,1.126,1.757,1.84Z" transform="translate(-16.836 -148.755)" fill="#fff"/>
      <path id="Path_2594" data-name="Path 2594" d="M61.91,154.081c-.668-.049-1.289-.121-1.17-.96.077-.546-.086-1.362.892-1.245.563.068,1.315-.014,1.343.88.024.838-.43,1.345-1.065,1.324Z" transform="translate(-50.106 -125.314)" fill="#fff"/>
      <path id="Path_2595" data-name="Path 2595" d="M47.171,164.934c-.024.738-.289,1.238-1.1,1.121-.546-.079-1.222-.04-1.154-.939s.376-1.259,1.128-1.182c.61.063,1.292.1,1.126,1Z" transform="translate(-37.058 -135.264)" fill="#fff"/>
      <path id="Path_2596" data-name="Path 2596" d="M142.265,125.47c-.467,1.715.983,1.663,2.135,1.964a2.547,2.547,0,0,1-2.89-.332c-.7-.808-.421-1.376.778-1.607l-.023-.023Z" transform="translate(-116.452 -103.535)" fill="#fff"/>
      <path id="Path_2597" data-name="Path 2597" d="M208.537,9.27c1.222.077,2.445.135,3.662.255.157.016.283.358.425.549-.2.089-.414.287-.584.252-1.175-.25-2.341-.547-3.51-.831l.005-.226Z" transform="translate(-172.064 -7.654)" fill="#fff"/>
      <path id="Path_2598" data-name="Path 2598" d="M33.317,177.434,32.1,175.783c.727-.374,1.318-.325,1.6.184.2.358.038.918.038,1.388Z" transform="translate(-26.485 -144.848)" fill="#fff"/>
      <path id="Path_2599" data-name="Path 2599" d="M77.636,144.8c-1.471.224-2.055-.287-1.67-1.224a.773.773,0,0,1,.6-.24c.364.418.664.892,1.068,1.465Z" transform="translate(-62.586 -118.267)" fill="#fff"/>
      <path id="Path_2600" data-name="Path 2600" d="M84.714,159.741l-.664-.656c.241-.21.474-.574.724-.586.219-.01.458.372.687.581C85.253,159.265,85.043,159.449,84.714,159.741Z" transform="translate(-69.351 -130.788)" fill="#fff"/>
    </g>
  </g>
</svg>
