<svg id="Component_349_1" data-name="Component 349 – 1" xmlns="http://www.w3.org/2000/svg" width="60" height="60" viewBox="0 0 60 60">
  <rect id="Rectangle_3336" data-name="Rectangle 3336" width="60" height="60" fill="none"/>
  <g id="Layer_1-2" transform="translate(8 11)">
    <g id="Group_51" data-name="Group 51" transform="translate(0 0)">
      <path id="Path_2661" data-name="Path 2661" d="M0,57.135C.376,51.842,1.778,47.381,4.828,43.5a1.546,1.546,0,0,1,2.093-.568c1.394.56,2.91.81,4.324,1.331a13.339,13.339,0,0,1,6.377,4.828,3.761,3.761,0,0,0,2.317,1.394,3.013,3.013,0,0,1,.7.425,4.09,4.09,0,0,1-.579.664c-1.14.855-2.317,1.665-3.447,2.536A1.4,1.4,0,0,1,15,54.267c-3.041-1.437-5.945-.85-8.789.617-.523.269-.418.677-.315,1.126a4.312,4.312,0,0,1-.42,3.613,4.613,4.613,0,0,1-4,1.906,1.132,1.132,0,0,1-.815-.7c-.3-1.346-.5-2.717-.663-3.69Z" transform="translate(0 -35.27)" fill="#fff"/>
      <path id="Path_2662" data-name="Path 2662" d="M51.608,16.961c-.838-.745-2.2-.448-2.918-1.6a12.5,12.5,0,0,0-6.162-4.928c-1.686-.675-3.482-1.077-5.223-1.616-.173-.054-.444-.2-.444-.31a.835.835,0,0,1,.266-.589A49.384,49.384,0,0,1,41.3,4.775a17.657,17.657,0,0,1,7.351-2.583,2.013,2.013,0,0,1,1.535.469,11.018,11.018,0,0,1,2.953,5.713,1.464,1.464,0,0,0,.848.932c1.17.423,2.39.7,3.581,1.075.467.147.9.411,1.355.588.6.229.551.579.131.888q-3.3,2.434-6.634,4.821a3.288,3.288,0,0,1-.813.28Z" transform="translate(-30.415 -1.8)" fill="#fff"/>
      <path id="Path_2663" data-name="Path 2663" d="M87.39,25.658c.792-.558,1.6-1.1,2.375-1.675q5.765-4.31,11.511-8.642c2.6-1.965,5.162-3.975,7.752-5.951a2.136,2.136,0,0,0,.909-1.953c-.049-.871-.033-1.747-.01-2.619a1.662,1.662,0,0,1,.21-.815.7.7,0,0,1,.581-.254c.133.023.3.318.311.5a10.953,10.953,0,0,1-.6,4.63,3.145,3.145,0,0,1-1,1.289c-3.62,2.836-7.245,5.667-10.911,8.441q-5.988,4.53-12.059,8.955c-1.96,1.429-1.642,1.537-3.03-.381-.409-.567-.817-1.135-1.263-1.672-.418-.5-.325-.836.192-1.21,3.043-2.2,6.07-4.422,9.1-6.64q5-3.659,10-7.325c2.273-1.672,4.531-3.363,6.807-5.029a.792.792,0,0,1,.628-.1c.115.038.149.334.206.519.016.051-.019.117-.01.173.327,2.179-.85,3.413-2.513,4.623C100.861,14.68,95.239,18.97,89.6,23.236c-.86.65-1.607,1.451-2.408,2.182.065.08.129.161.2.241Z" transform="translate(-67.585 -3.091)" fill="#fff"/>
      <path id="Path_2664" data-name="Path 2664" d="M161.66,87.847c-.287.88.227,1.243.731,1.616a6.786,6.786,0,0,1,3.025,4.978,12.812,12.812,0,0,1-.481,3.041,14.971,14.971,0,0,0-.32,1.845,20.079,20.079,0,0,1-.922,6.529,4.384,4.384,0,0,1-2.721,2.4c-.747.3-1.808-.353-2.27-1.215a1.634,1.634,0,0,1,.551-2.1,3.613,3.613,0,0,1,1.555-.638c.551-.091.888-.234.867-.836-.171-4.947-1.7-9.24-5.947-12.192-1.28-.89-1.3-.853-.063-1.792q2.329-1.765,4.66-3.531c.616-.469.913-.374,1.072.383C161.511,86.872,161.586,87.415,161.66,87.847Z" transform="translate(-127.691 -70.686)" fill="#fff"/>
      <path id="Path_2665" data-name="Path 2665" d="M116.013.258c.292-.117.525-.3.65-.247,1.158.507,2.322,1.007,3.431,1.61a4.587,4.587,0,0,0,2.375.586,7.04,7.04,0,0,1,5.445,2.709c1.27,1.441,1.642,1.341-.173,2.632a6.851,6.851,0,0,0-.549.432c-1.016.89-1.9,1.367-3.3.348a12.091,12.091,0,0,0-3.847-1.292c-.57-.159-.946-.393-1.026-1.009a9.6,9.6,0,0,0-2.4-4.845c-.2-.238-.343-.514-.61-.922Z" transform="translate(-95.724 -0.001)" fill="#fff"/>
      <path id="Path_2666" data-name="Path 2666" d="M107.732,126.916c-.316-1.378-.657-2.751-.934-4.136a1.087,1.087,0,0,1,.21-.9q2.227-1.75,4.546-3.377a.86.86,0,0,1,.8.24,3.981,3.981,0,0,1,.315,3.691,36,36,0,0,1-2.168,3.842,2.676,2.676,0,0,0-.465,1.086,9.087,9.087,0,0,1-3.008,6.279c-.477.47-1.077.771-1.642.385a2.2,2.2,0,0,1-1.012-1.373c-.009-.467.607-.946.95-1.418a.117.117,0,0,1,.077-.038c2.135-.059,1.875-1.759,2.105-3.1a6.8,6.8,0,0,0,.009-1.133l.222-.044Z" transform="translate(-86.119 -97.756)" fill="#fff"/>
      <path id="Path_2667" data-name="Path 2667" d="M214.282,69c.028,1.939-.8,2.866-2.181,2.835a1.806,1.806,0,0,1-1.558-2.677c.028-.051.058-.1.087-.152.89-1.5.873-1.618-.439-2.8q-.922-.827.031-1.567c1.29-1,1.3-1,2.285.283A7.941,7.941,0,0,1,214.282,69Z" transform="translate(-173.063 -52.743)" fill="#fff"/>
      <path id="Path_2668" data-name="Path 2668" d="M53.494,118.586c1.474-1.63,1.607-1.427,2.577.107a18.636,18.636,0,0,0,1.371,1.8c.32.392.481.771,0,1.11-.435.3-.88.421-1.292-.115-.565-.738-1.175-1.441-1.771-2.153-.061-.073-.164-.112-.393-.056.247.4.467.825.747,1.2,1.36,1.848,2.751,3.676,4.092,5.538a2.7,2.7,0,0,1,.22.993c-.3-.135-.719-.187-.89-.42-1.579-2.123-3.113-4.277-4.665-6.419-.939-1.294-1.887-2.579-2.833-3.868-.086-.117-.241-.22-.257-.344a4.647,4.647,0,0,1,.023-.778c.231.072.551.072.675.229.581.724,1.1,1.5,1.658,2.242C52.972,117.958,53.215,118.238,53.494,118.586Z" transform="translate(-41.574 -95.048)" fill="#fff"/>
      <path id="Path_2669" data-name="Path 2669" d="M8.9,186.77a5.866,5.866,0,0,1-1.005.446c-.308.072-.764.143-.946-.019a3.533,3.533,0,0,1-1-1.364c-.089-.257.243-.787.53-1.007a.978.978,0,0,1,.943.1A16.427,16.427,0,0,1,8.9,186.771Z" transform="translate(-4.898 -152.439)" fill="#fff"/>
      <path id="Path_2670" data-name="Path 2670" d="M30.48,168.827c0-.621.08-1.166.916-1.149.972.021,1.36.278,1.313.96-.047.658-.241,1.245-1.061,1.173-.582-.051-1.311-.023-1.166-.986Z" transform="translate(-25.136 -138.357)" fill="#fff"/>
      <path id="Path_2671" data-name="Path 2671" d="M47.3,157.919c-.509-.094-1.25-.019-1.147-.885.063-.521-.163-1.385.81-1.327.558.033,1.317-.024,1.35.869.031.862-.346,1.353-1.014,1.343Z" transform="translate(-38.075 -128.477)" fill="#fff"/>
      <path id="Path_2672" data-name="Path 2672" d="M168.915,176.428c-.344.226-.726.67-1.025.619-.339-.056-.6-.554-.9-.86.316-.276.614-.74.953-.775.306-.031.661.409.995.64l-.021.376Z" transform="translate(-137.79 -144.738)" fill="#fff"/>
      <path id="Path_2673" data-name="Path 2673" d="M104.452,156.992c-.343.236-.68.643-1.03.654-.275.007-.815-.509-.787-.733a1.221,1.221,0,0,1,.752-.894c.325-.037.7.4,1.056.624,0,.117.005.233.007.35Z" transform="translate(-84.687 -128.736)" fill="#fff"/>
      <path id="Path_2674" data-name="Path 2674" d="M221.321,115.563c-.315.213-.67.638-.937.589-.36-.066-.652-.5-.974-.771.3-.255.588-.671.92-.715.3-.04.65.329.979.518,0,.128.009.254.012.381Z" transform="translate(-181.043 -94.612)" fill="#fff"/>
      <path id="Path_2675" data-name="Path 2675" d="M19.9,180.654l-.453.547q-.588-.716-1.173-1.434c.192-.112.39-.323.579-.318.591.017,1.112.192,1.046,1.2Z" transform="translate(-15.075 -148.07)" fill="#fff"/>
      <path id="Path_2676" data-name="Path 2676" d="M219.823,163.86c.4.539.817.853.811,1.163,0,.254-.493.677-.789.7-.234.016-.67-.444-.706-.733-.035-.268.337-.589.684-1.124Z" transform="translate(-180.818 -135.207)" fill="#fff"/>
      <path id="Path_2677" data-name="Path 2677" d="M59.99,147.375l.547-.955c.233.166.47.327.7.5a.535.535,0,0,1,.143.213c.129.3.25.6.374.9-.261.018-.558.124-.771.033a5.846,5.846,0,0,1-.991-.694Z" transform="translate(-49.5 -120.817)" fill="#fff"/>
    </g>
  </g>
</svg>
