<svg id="Component_282_1" data-name="Component 282 – 1" xmlns="http://www.w3.org/2000/svg" width="342.24" height="342.24" viewBox="0 0 342.24 342.24">
  <g id="Component_230_49" data-name="Component 230 – 49">
    <g id="Rectangle_3295" data-name="Rectangle 3295" transform="translate(171.12) rotate(45)" fill="#fff" stroke="#000" stroke-width="3">
      <rect width="242" height="242" stroke="none"/>
      <rect x="1.5" y="1.5" width="239" height="239" fill="none"/>
    </g>
    <g id="Rectangle_3296" data-name="Rectangle 3296" transform="translate(171.421 30) rotate(45)" stroke="#000" stroke-width="3">
      <rect width="200" height="200" stroke="none"/>
      <rect x="1.5" y="1.5" width="197" height="197" fill="none"/>
    </g>
  </g>
  <g id="Group_289" data-name="Group 289" transform="translate(20.782 13.74)">
    <path id="Path_4025" data-name="Path 4025" d="M172.31,116.37c-6.8,4.78-12.87,9.04-19.36,13.61,0-1.46.1-2.78-.02-4.1-.34-3.91-.16-6.89,4.49-8.9,4.8-2.07,8.83-5.89,13.25-8.86,3.96-2.67,6.61-9.42,5.42-14.84-7.64,5.58-15.14,11.06-23.25,16.98,0-5.01.08-9.49-.07-13.96-.03-.88-.95-1.73-1.47-2.6-.49.88-1.38,1.77-1.4,2.67-.13,5.62-.06,11.24-.06,16.92-1.01-1.83-1.48-3.84-2.76-4.82-6.61-5.08-13.41-9.9-20.16-14.79-.11-.08-.41.11-1.08.32a39.978,39.978,0,0,1,1.24,6.29c.15,4.09,2.31,6.51,5.63,8.5,3.77,2.26,7.27,4.96,10.98,7.32a60.154,60.154,0,0,0,6.05,2.97v2.18c-.08,7.88-.31,15.76-.24,23.64.26,25.51.49,51.03,1.03,76.54.17,8.09-.04,15.69-6.54,21.74-.97.91-1.18,3.52-.69,4.98,1.94,5.7,4.28,11.26,6.53,16.84a18.42,18.42,0,0,0,1.87,2.72c2.35-5.89,4.11-11.29,6.62-16.32,2.12-4.24,1.71-7.39-1.39-10.95-2.04-2.33-4.31-5.52-4.35-8.35-.24-17.39.1-34.79.34-52.19a3.386,3.386,0,0,1,1.23-2.46c2.39-1.57,4.96-2.85,7.43-4.31,2.85-1.69,3.51-4.27,2.91-7.94-4.25,3-9.18,4.43-11.36,9.76V143.77c.17.05.33.1.5.16,0,4.87-.04,9.74.01,14.61.04,3.11.91,3.58,3.46,1.94,2.14-1.39,4.16-2.95,6.35-4.26a7.19,7.19,0,0,0,3.73-5.47c1.61-10.31,3.41-20.59,5.11-30.89a26.263,26.263,0,0,0,.02-3.46Z" fill="#fff"/>
    <path id="Path_4026" data-name="Path 4026" d="M138.54,155.77a70.394,70.394,0,0,0,6.87,4.68c2.58,1.64,3.47,1.2,3.51-1.88.1-8.68.19-17.37.06-26.05a6,6,0,0,0-1.79-4.23c-5.21-3.95-10.65-7.6-16.54-11.72h0a10.268,10.268,0,0,0-.37,2.19c1.8,11.08,3.54,22.17,5.53,33.22a7.351,7.351,0,0,0,2.72,3.79Z" fill="#fff"/>
    <path id="Path_4027" data-name="Path 4027" d="M145.45,169.31c-2.35-1.28-4.69-2.57-7.13-3.91-.86,5.35,3.24,10.04,9.96,11.66C150.12,173.43,147.5,171.47,145.45,169.31Z" fill="#fff"/>
    <path id="Path_4028" data-name="Path 4028" d="M129.77,108.12c.24,3.58,15.35,14.08,18.76,12.88Q139.155,114.55,129.77,108.12Z" fill="#fff"/>
    <path id="Path_4029" data-name="Path 4029" d="M154.11,120.97h0v0Z" fill="#fff"/>
    <path id="Path_4030" data-name="Path 4030" d="M154.82,122.04c3.45-.34,18.1-10.96,18.75-14.35-6.84,4.67-13.15,8.97-19.46,13.28.24.36.47.71.71,1.07Z" fill="#fff"/>
    <path id="Path_4031" data-name="Path 4031" d="M130.78,112.99c-.31.45-.61.88-.91,1.32,5.36,4.62,11.52,8.08,17.28,12.14.37-.53.73-1.05,1.09-1.58q-8.73-5.94-17.46-11.89h0Z" fill="#fff"/>
    <path id="Path_4032" data-name="Path 4032" d="M155.5,126.39c5.9-3.96,11.98-7.69,17.43-12.26-.29-.41-.59-.83-.88-1.24l-17.67,12.03h0c.38.49.74.98,1.12,1.47Z" fill="#fff"/>
    <path id="Path_4033" data-name="Path 4033" d="M149.48,165.01c-4.58-3.23-8.41-5.94-12.25-8.65C137.61,160,145.49,165.56,149.48,165.01Z" fill="#fff"/>
    <path id="Path_4034" data-name="Path 4034" d="M165.36,156.46q-5.76,4.035-11.54,8.06C157.49,165.39,164.83,160.2,165.36,156.46Z" fill="#fff"/>
    <path id="Path_4035" data-name="Path 4035" d="M154.56,168.12c.33.47.68.93,1.01,1.39q4.8-3.405,9.59-6.81h0c-.35-.47-.69-.93-1.04-1.39l-9.57,6.81Z" fill="#fff"/>
    <path id="Path_4036" data-name="Path 4036" d="M145.47,169.33h0l-.11-.11c.81-.12,1.61-.23,2.42-.35l.27-.9q-4.845-3.285-9.68-6.58c-.27.35-.55.7-.82,1.05,1.04.92,2.07,1.85,3.13,2.76,1.57,1.36,3.15,2.7,4.72,4.05l-.04-.03h0l.05.05a.031.031,0,0,1-.02-.01l.03.03.03.03h0l.02.02Z" fill="#fff"/>
    <path id="Path_4037" data-name="Path 4037" d="M173.56,114.21v.03a8.5,8.5,0,0,1-.02,1.13,18.968,18.968,0,0,0,4.17,2.47c1.99.84,2.54.66,2.8.47.5-.36.62-1.26.44-2.79-1.02-8.62-2.06-17.25-3.3-25.84a6.037,6.037,0,0,0-2.32-3.97c-5.67-3.25-11.54-6.16-17.92-9.48q3.255,11.955,6.5,23.9,6.12-4.2,12.25-8.41a10.481,10.481,0,0,1,1.46,3.2c.93,3.51-.38,6.26-1.92,11.16-.61,1.95-1.4,4.73-2.15,8.14Z" fill="#fff"/>
    <path id="Path_4038" data-name="Path 4038" d="M172.11,126.43a1.466,1.466,0,0,1-.17.69c1.46,3.65,5.45,6.25,10.77,6.82,1.35-3.83-1.49-5.44-3.8-7.32-2.18-.85-4.38-1.7-6.63-2.58C172.2,124.83,172.14,125.63,172.11,126.43Z" fill="#fff"/>
    <path id="Path_4039" data-name="Path 4039" d="M175.72,78.32Q165.6,73.145,155.45,67.97C156.15,71.49,172.48,79.95,175.72,78.32Z" fill="#fff"/>
    <path id="Path_4040" data-name="Path 4040" d="M198.82,61.89c-6.18,5.52-11.88,10.6-17.58,15.68.28.33.56.65.84.97C185.45,77.76,198.62,65.33,198.82,61.89Z" fill="#fff"/>
    <path id="Path_4041" data-name="Path 4041" d="M181.24,77.57h0v0Z" fill="#fff"/>
    <path id="Path_4042" data-name="Path 4042" d="M175.93,82.19q-9.42-4.77-18.85-9.53h0c-.25.49-.49.96-.73,1.44,5.91,3.89,12.47,6.53,18.7,9.8.3-.57.59-1.14.88-1.71Z" fill="#fff"/>
    <path id="Path_4043" data-name="Path 4043" d="M199.03,68.35c-.34-.37-.69-.75-1.04-1.12q-7.98,7.11-15.97,14.21c.44.43.87.88,1.3,1.31,5.34-4.69,10.88-9.18,15.7-14.41Z" fill="#fff"/>
    <path id="Path_4044" data-name="Path 4044" d="M173.01,117.74c-.03.44-.05.88-.1,1.31,3.02,2.01,7.07,3.44,9.44,2.79-3.33-1.75-6.27-3.31-9.12-4.81-.06.24-.14.47-.22.7Z" fill="#fff"/>
    <path id="Path_4045" data-name="Path 4045" d="M186.59,120.78c3.75.39,10.36-5.7,10.4-9.48C193.53,114.46,190.05,117.62,186.59,120.78Z" fill="#fff"/>
    <path id="Path_4046" data-name="Path 4046" d="M197.59,117.52h0c-.41-.42-.8-.83-1.21-1.25q-4.3,3.99-8.61,7.99c.39.42.79.83,1.18,1.25q4.32-3.99,8.63-7.99Z" fill="#fff"/>
    <path id="Path_4047" data-name="Path 4047" d="M178.93,126.64h0l-.12-.1,2.35-.66.15-.93q-4.32-2.175-8.64-4.36c-.07.59-.14,1.18-.22,1.77.39.27.78.53,1.18.8q2.595,1.71,5.21,3.4l-.04-.03h0a.737.737,0,0,1,.06.05s-.02-.01-.02-.02l.05.03.02.02h.02Z" fill="#fff"/>
    <path id="Path_4048" data-name="Path 4048" d="M246.94,145.57c-.19-3.45.98-5.46.61-5.61-.43-.17-2.59,2.45-2.68,5.61-.04,1.46.69,2.79.24,3.05-.3.18-.91-.24-1.25-.58-1.36-1.39-.41-3.81-.18-6.49.31-3.69-.86-6.55-2.56-10.7a34.943,34.943,0,0,0-3.57-6.58,38.516,38.516,0,0,1-.91,10.24c-1.42,6.15-3.15,6.39-3.11,10.61.03,3.03,1.01,5.7-.64,8.69a9.157,9.157,0,0,1-1.31,1.77c-5.1,5.76-9.47,6.53-10.85,10.3a7.949,7.949,0,0,0,.12,5.3,8.942,8.942,0,0,1,2.19-4.08,3.012,3.012,0,0,1,2.13-1.16,1.4,1.4,0,0,1,.98.3c.55.57.11,1.77-.06,2.26a7.664,7.664,0,0,1-4.08,3.9,3.541,3.541,0,0,1,.55,2.44,10.39,10.39,0,0,1-1.71,2.93c-.03.04-.3.43-.85,1.2-.98,1.4-1.36,1.92-1.84,2.7h0s-.27.45-.51.88c-.46.8-2.08,8.45-4.6,8.93a1.463,1.463,0,0,1-1.43-.51c-.53-.87.95-2.41,3.26-5.62,3.7-5.14,3.82-6.62,3.66-7.59a5.131,5.131,0,0,0-1.83-2.93,7.4,7.4,0,0,1,.12,3.17c-.41,2.16-1.65,2.94-4.42,6.52-1.98,2.56-2.97,3.87-3.29,5.49a14.233,14.233,0,0,0,.15,4.82c.32,2.33.67,2.56.85,2.59.72.12,1.41-2.3,2.38-2.19a1.1,1.1,0,0,1,.73.64,2.981,2.981,0,0,1-.37,1.65,4.1,4.1,0,0,1-3.02,1.65,7.226,7.226,0,0,1-4.24-.55c-.05,2.31-.03,4.16,0,5.36.08,3.45.3,6.03-.79,6.52-.54.24-1.06-.18-1.4.18-.39.42.14,1.13.12,2.68-.01,1.07-.27,1.48-.12,1.58.27.18,1.52-.88,5.88-6.42-1.58-.67-2.32-1.88-2.06-2.65a1.421,1.421,0,0,1,1.6-.86c.65.27.27,1.39.98,1.92.94.7,2.84-.33,3.59-.74a9.974,9.974,0,0,0,2.38-1.83,19.621,19.621,0,0,0,3.2-4.16,18.831,18.831,0,0,1-2.61,4.94c-3.07,4.16-5.33,3.48-8.91,7.59-2.39,2.74-2.22,4-5.6,7.68a37.4,37.4,0,0,1-3.21,3.12c.7.82,1.08,1.69.79,2.13-.28.42-1.09.31-2.31.14a7.684,7.684,0,0,1-3.3-.93,5.919,5.919,0,0,1-2.56-3.11c-.3-.98-.04-1.34-.43-2.32a5.029,5.029,0,0,0-1.65-2.13,7.012,7.012,0,0,1-.3,2.5,9.96,9.96,0,0,1-3.18,4.41c-.13.6-.97,2.89-2.67,3.51-1.24.46-2.8-.02-2.92-.61-.13-.63,1.47-.84,2.38-2.48.87-1.57-.08-2.3.79-3.62.7-1.05,2.04-1.68,3.66-2.44.91-.43,1.21-.47,1.46-.85.66-1-.1-2.59-.73-3.84-1.05-2.1-1.77-3.56-3.42-4.53-3.39-1.99-7.4.03-7.74.2a11.825,11.825,0,0,1,4.94,1.95c1.51,1.05,3.71,3.12,3.23,4.15-.44.95-2.7-.08-5.01,1.28a6.93,6.93,0,0,0-2.61,3.17c-2.2,4.41-2.27,8.58-2.8,11.46a22.859,22.859,0,0,1-5.97,11.28c.9.91,2.09,1.8,3.29,1.58,1.81-.33,2.25-2.93,3.66-2.93,1.19,0,1.29,1.89,2.93,2.93,2.47,1.57,7.07.32,9.27-2.32.4-.48,1.1-2.45,2.56-6.34.6-1.59.83-2.28,1.52-2.56,1.2-.49,2.26.87,5.06,2.19,2.51,1.19,4.32,2.07,5.97,1.46,1.46-.53,1.39-1.65,4.63-5.36a12.377,12.377,0,0,1,2.44-2.44c2.34-1.37,3.66-.01,6.71-.85a12.361,12.361,0,0,0,5.85-4.02c1.63-1.93,1.28-2.71,2.93-4.02,1.27-1.01,1.8-.92,4.51-2.19,3.49-1.64,5.23-2.47,5.73-3.9.7-2.01-1.36-2.96-.73-5.61.5-2.11,2.14-2.91,1.71-4.14-.33-.95-1.42-.83-2.19-1.83-.61-.79-1-2.24,0-5.12a11.828,11.828,0,0,0-2.32,4.39c-1.33,4.88,1.25,8.95-.49,10.24a2.339,2.339,0,0,1-2.47-.05c-1.98-1.28-1.22-6.03-.21-8.97,1.5-4.36,3.41-4.28,4.24-8.23.59-2.84-.28-3.43.64-6.49a20.018,20.018,0,0,1,2.68-5.39c1.73-2.59,2.55-2.78,3.29-4.15.91-1.67,1.4-4.55-.98-9.75a14.931,14.931,0,0,1-1.1,5.49,16.136,16.136,0,0,1-3.54,5.24c-1.76,1.86-2,1.38-3.05,2.68-1.78,2.2-1.01,3.63-2.8,7.8-.55,1.27-1.68,3.9-2.56,3.75-.47-.08-.85-.96-.73-1.68.17-1.06,1.4-1.65,1.71-1.83,2.79-1.6,1.18-9.87,2.5-15.51,1.9-8.12,11.01-15.66,15.18-19.11,1-.82,3.23-2.58,3.54-5.24.2-1.74-.58-2.35-.73-5ZM184.66,238.8a4.843,4.843,0,0,1-4.94.81,1.619,1.619,0,0,1-.92-.99,1.464,1.464,0,0,1,.4-1.22c1.08-1.12,3.26.76,5.44-.26,1.32-.62,1.75-1.89,1.92-1.78C186.77,235.49,186.25,237.52,184.66,238.8Zm27.91-17.81c-.33-.18.23-1.95.91-3.23a9.345,9.345,0,0,1,3.08-3.42c.28-.19.53-.33.69-.42-.17.2-1.38,1.63-1.04,2.07.23.29,1.07.06,1.58-.24,1.49-.87,1.58-3.06,1.58-3.47a3.48,3.48,0,0,1,.24,2.44c-.49,1.52-2.06,1.55-4.39,3.6-1.74,1.53-2.39,2.85-2.68,2.68Zm5.61.91a5.52,5.52,0,0,0,.04,1.48c0,.35.02.53-.1.66-.26.28-.74,0-1.29.06-1.16.14-1.59,1.7-1.94,1.58-.33-.11-.44-1.64.29-2.93.2-.35.59-.91,2.63-2.19a12.318,12.318,0,0,1,3.22-1.65c.08.13-2.43,1.03-2.85,2.99Z" fill="#fff"/>
    <path id="Path_4049" data-name="Path 4049" d="M213.29,119.79c-1.28,1.45-1.17,2.33-2.44,3.96-1.08,1.4-1.74,1.5-4.63,3.54-3.93,2.76-3.92,3.41-6.83,5.18a48.321,48.321,0,0,1-4.94,2.44c-2.81,1.67-4.5,7.83.18,27.31a25.462,25.462,0,0,0,1.46-5.36c.66-4.14-.13-5.84,1.16-9.27a13.419,13.419,0,0,1,1.95-3.54,12.608,12.608,0,0,1,3.17-2.87c-.32.41-.81,1.06-1.34,1.89-1.36,2.12-2.82,4.39-2.68,6.89.1,1.72.83,1.53,1.08,3.27.41,2.86-1.43,4.42-3.28,8.92a25.456,25.456,0,0,0-1.71,5.55c-.88,5.29.53,11.53,2.68,11.89,1.72.29,3.62-3.24,3.78-3.54a8.688,8.688,0,0,0,.98-4.27,4.9,4.9,0,0,1,1.28,2.26c.43,1.77-.35,3.26-1.04,4.57-.7,1.35-1.35,2.58-2.68,3.17-1.77.79-3.11-.3-3.66.37-.61.74.88,2.3,2.99,6.4,1.46,2.84,2.18,4.88,4.33,6.4,1.08.76,1.67.79,2.01.61.48-.25.44-.89,1-2.32.12-.31.34-.75.77-1.64.93-1.91,1.88-3.5,2.17-3.97,2.57-4.27,3.66-5.51,4.54-7.24a16.8,16.8,0,0,0,1.4-9.94,2.426,2.426,0,0,1-2.05-.41c-.72-.62-1.06-1.84-.57-2.33.42-.43,1.52-.34,2.44.49-.57-4.08.38-6.35,1.4-7.68,1.71-2.21,3.85-2.12,7.62-5.12a24.237,24.237,0,0,0,4.02-4.02c4.2-5.59,1.65-14.38.79-17.01-1.35,6.74-3.87,9.48-6.03,10.69-1.61.9-3.48,1.23-5.43,3.33-1.62,1.74-1.83,3.14-3.23,3.47a4.292,4.292,0,0,1-4.21-2.13c-1.71-2.91.65-7.88,3.96-9.94,1.34-.83,1.62-.43,2.71-1.28,3.03-2.36,4.01-8,1.68-10.55a4.336,4.336,0,0,0-1.34-.98,4.7,4.7,0,0,1,.49,3.05c-.73,3.39-5.97,4.69-5.85,7.44.02.4.16,1.14-.24,1.46a1.161,1.161,0,0,1-1.4-.18c-.58-.61-.06-1.83.06-2.13.71-1.71,2.02-1.61,2.99-2.86,1.82-2.36-.66-5.53,1.16-7.99a4.441,4.441,0,0,1,2.26-1.52,20.8,20.8,0,0,0,7.86-6.58,21.028,21.028,0,0,0,3.84-12.5,31.227,31.227,0,0,1-2.32,3.9,25.429,25.429,0,0,1-7.74,7.86c-2.23,1.34-3.2,1.31-4.57,2.86Z" fill="#fff"/>
    <path id="Path_4050" data-name="Path 4050" d="M208.6,123.38a4.038,4.038,0,0,0,2.74-5.37,7.009,7.009,0,0,1-1.67,2.06c-.66.55-2.08,1.74-3.21,1.27-1.16-.48-1.27-2.42-1.28-2.72a6.308,6.308,0,0,1,1.77-4.39c2.19-2.45,3.74-1.28,7.38-3.84a12.9,12.9,0,0,0,4.51-5.24,10.905,10.905,0,0,0,.73-2.38,13.745,13.745,0,0,1-5.97,6.46c-.95.48-1.4.53-6.22,2.38-3.52,1.35-3.81,1.53-4.15,1.83-2.47,2.19-3.63,7.34-1.16,9.57,2.24,2.02,6.2.49,6.52.37Z" fill="#fff"/>
    <path id="Path_4051" data-name="Path 4051" d="M186.08,188a14.664,14.664,0,0,0,.82-5.12,9.042,9.042,0,0,1-2.74,2.56,7.669,7.669,0,0,1-4.85,1.19,5.009,5.009,0,0,1-3.29-1.37c-1.6-1.71-1.4-4.68-.64-5.03a1.793,1.793,0,0,1,.98.08,3.31,3.31,0,0,1,.97.44,20.382,20.382,0,0,0,3.63,1.76,5.07,5.07,0,0,0,3.75.09,3.837,3.837,0,0,0,1.65-1.37c.83-1.27.6-2.71.3-4.51a14.5,14.5,0,0,0-.73-2.74,10.491,10.491,0,0,1-6.77-.98c-2.22-1.21-4.56-3.71-4.02-4.94a1.625,1.625,0,0,1,2.01-.67c.45.3.19.92.52,1.95a5.131,5.131,0,0,0,2.19,2.65,4.085,4.085,0,0,0,3.02.73,4.035,4.035,0,0,0,2.62-2.16c-1,.2-2.81.39-3.85-.63a5.967,5.967,0,0,1-.87-1.41c-.93-1.78-.73-2.19-1.19-2.65-1.48-1.51-5.03-.99-7.22.55a7.333,7.333,0,0,0-.55,11.7,5.644,5.644,0,0,0,1.13.67c.28.33.57.65.85.98a5.555,5.555,0,0,0-1.98,1.19,6.1,6.1,0,0,0-1.55,2.47,6.634,6.634,0,0,0,3.11,7.44,8.688,8.688,0,0,0,3.29.61c1.89.08,2.95-.34,3.47.27.43.51.14,1.31,0,2.01-.69,3.54,2,7.37,2.56,7.22.48-.13-.99-3.09.18-6.86.82-2.62,2.14-3.12,3.2-6.13Z" fill="#fff"/>
    <path id="Path_4052" data-name="Path 4052" d="M178.98,153.25c-1.56,1.07-2.12,1.02-2.99,1.95a3.134,3.134,0,0,0-.98,1.65,2.589,2.589,0,0,0,1.1,2.68c.89.41,1.66-.42,2.32.06.59.43.18,1.25.79,1.89.64.67,1.57.26,2.38.55.86.31,1.79,1.48,2.07,5.3.08-.39.18-.96.3-1.65a34.643,34.643,0,0,0,.67-4.94c.05-1.87.08-2.8-.37-3.47-1.23-1.88-4.3-1.45-4.39-2.32-.08-.79,2.44-1.06,2.93-2.86a2.675,2.675,0,0,0-.3-1.95,2.751,2.751,0,0,0-1.95-1.16,3.152,3.152,0,0,1,.3,2.44c-.25.69-.8,1.08-1.89,1.83Z" fill="#fff"/>
    <path id="Path_4053" data-name="Path 4053" d="M117.93,73.18c4.35,2.6,4.15,5.58,3.3,9.41-.29,1.29-.36,2.62-.55,4.06-5.85-5.37-11.31-10.38-17.44-16a26.819,26.819,0,0,0-.43,3.43c.35,10.43.82,20.85,1.08,31.29a7.155,7.155,0,0,0,2.99,5.9c2,1.58,3.8,3.39,5.75,5.05,2.31,1.96,3.24,1.6,3.68-1.47.68-4.82,1.27-9.66,1.9-14.48.17-.03.34-.06.52-.09l-4.03,30.93c-1.47-5.57-6.17-7.62-10-11.15-1.07,3.56-.74,6.2,1.86,8.25,2.26,1.77,4.64,3.37,6.81,5.23a3.464,3.464,0,0,1,.9,2.6c-2.01,17.28-3.91,34.58-6.4,51.8-.41,2.8-3.07,5.67-5.39,7.72-3.54,3.13-4.35,6.2-2.8,10.68,1.84,5.31,2.89,10.89,4.46,17.04a18.417,18.417,0,0,0,2.21-2.46c2.95-5.25,6-10.46,8.65-15.86.68-1.39.81-4-.04-5.03-5.67-6.84-4.89-14.4-3.68-22.4,3.83-25.23,7.36-50.5,10.91-75.76,1.09-7.8,1.88-15.64,2.82-23.47.11-.91.24-1.81.28-2.16a61.165,61.165,0,0,0,6.38-2.17c3.98-1.85,7.81-4.08,11.83-5.84,3.55-1.55,6-3.67,6.68-7.7a15.993,15.993,0,0,1,.79-2.78,15.386,15.386,0,0,1,.79,2.78c.68,4.03,3.13,6.16,6.68,7.7,4.03,1.76,7.85,3.98,11.83,5.84a64.478,64.478,0,0,0,6.38,2.17c.05.35.17,1.26.28,2.16.94,7.83,1.73,15.67,2.82,23.47,3.55,25.26,7.08,50.54,10.91,75.76,1.21,8,1.98,15.56-3.68,22.4-.85,1.03-.72,3.64-.04,5.03,2.65,5.4,5.7,10.61,8.65,15.86a18.416,18.416,0,0,0,2.21,2.46c1.57-6.14,2.62-11.73,4.46-17.04,1.55-4.48.74-7.55-2.8-10.68-2.32-2.05-4.99-4.92-5.39-7.72-2.49-17.22-4.39-34.51-6.4-51.8a3.373,3.373,0,0,1,.9-2.6c2.17-1.86,4.55-3.47,6.81-5.23,2.61-2.05,2.93-4.69,1.86-8.25-3.83,3.53-8.53,5.58-10,11.15l-4.03-30.93c.17.03.34.06.52.09.63,4.83,1.22,9.66,1.9,14.48.44,3.07,1.37,3.43,3.68,1.47,1.95-1.65,3.75-3.47,5.75-5.05a7.208,7.208,0,0,0,2.99-5.9c.26-10.43.72-20.86,1.08-31.29a26.82,26.82,0,0,0-.43-3.43c-6.13,5.62-11.59,10.63-17.44,16-.19-1.44-.26-2.77-.55-4.06-.84-3.83-1.05-6.81,3.3-9.41C188.5,70.5,192,66.2,196,62.68c3.58-3.16,5.34-10.19,3.45-15.42-6.85,6.52-13.58,12.92-20.86,19.84-.65-4.97-1.14-9.42-1.87-13.83-.14-.87-1.17-1.6-1.79-2.39-.37.94-1.14,1.93-1.04,2.83.6,5.59,1.39,11.16,2.12,16.79-1.24-1.69-1.97-3.62-3.36-4.43-6.76-3.93-13.66-7.6-20.54-11.32.03-.09.07-.19.1-.28-.64-.29-.91-.52-1.03-.46-.07.04-.15.08-.22.12-.07-.04-.15-.08-.22-.12-.12-.06-.39.16-1.03.46.03.09.07.19.1.28-6.88,3.72-13.78,7.4-20.54,11.32-1.39.81-2.12,2.74-3.36,4.43.73-5.63,1.52-11.2,2.12-16.79.1-.89-.67-1.89-1.04-2.83-.62.8-1.65,1.52-1.79,2.39-.73,4.41-1.22,8.86-1.87,13.83-7.28-6.92-14.01-13.32-20.86-19.84-1.88,5.22-.13,12.26,3.45,15.42,4,3.52,7.5,7.82,11.99,10.5Z" fill="#fff"/>
    <path id="Path_4054" data-name="Path 4054" d="M125.76,91.72q6.12,4.2,12.25,8.41,3.255-11.955,6.5-23.9c-6.37,3.33-12.24,6.23-17.92,9.48a6.013,6.013,0,0,0-2.32,3.97c-1.25,8.59-2.28,17.22-3.3,25.84-.18,1.52-.07,2.42.44,2.79.26.19.81.38,2.8-.47a18.98,18.98,0,0,0,4.39-2.62c-.82-3.9-1.71-7-2.38-9.14-1.54-4.9-2.85-7.65-1.92-11.16a10.725,10.725,0,0,1,1.46-3.2Z" fill="#fff"/>
    <path id="Path_4055" data-name="Path 4055" d="M119.23,133.94c6.88-.73,11.55-4.86,11.39-10.27-2.6,1.01-5.09,1.98-7.58,2.95-2.31,1.88-5.16,3.48-3.8,7.32Z" fill="#fff"/>
    <path id="Path_4056" data-name="Path 4056" d="M126.22,78.32c3.24,1.63,19.57-6.83,20.27-10.35Q136.365,73.145,126.22,78.32Z" fill="#fff"/>
    <path id="Path_4057" data-name="Path 4057" d="M119.85,78.54c.28-.33.56-.65.84-.97-5.7-5.08-11.4-10.16-17.58-15.68.2,3.45,13.37,15.87,16.74,16.65Z" fill="#fff"/>
    <path id="Path_4058" data-name="Path 4058" d="M120.69,77.56v.01h0Z" fill="#fff"/>
    <path id="Path_4059" data-name="Path 4059" d="M144.85,72.67h0q-9.42,4.755-18.85,9.52c.29.57.58,1.14.88,1.71,6.23-3.27,12.79-5.91,18.7-9.8C145.33,73.63,145.09,73.15,144.85,72.67Z" fill="#fff"/>
    <path id="Path_4060" data-name="Path 4060" d="M118.61,82.76c.44-.43.87-.88,1.3-1.31q-7.98-7.11-15.97-14.21c-.34.37-.69.75-1.04,1.12,4.82,5.23,10.37,9.72,15.7,14.41Z" fill="#fff"/>
    <path id="Path_4061" data-name="Path 4061" d="M119.59,121.84c2.54.69,6.99-1.01,10.04-3.25-.14-.61-.27-1.22-.41-1.83l-9.64,5.08Z" fill="#fff"/>
    <path id="Path_4062" data-name="Path 4062" d="M115.35,120.78c-3.46-3.16-6.94-6.32-10.4-9.48C104.99,115.08,111.6,121.17,115.35,120.78Z" fill="#fff"/>
    <path id="Path_4063" data-name="Path 4063" d="M104.35,117.52q4.32,3.99,8.63,7.99c.39-.42.79-.83,1.18-1.25q-4.305-3.99-8.61-7.99c-.41.42-.8.83-1.21,1.25h0Z" fill="#fff"/>
    <path id="Path_4064" data-name="Path 4064" d="M120.78,125.89l2.35.66-.12.09h.02l.02-.02.05-.03s-.02.01-.02.02c.02-.02.04-.03.06-.05h0l-.04.03q2.61-1.695,5.21-3.4c.68-.45,1.36-.92,2.04-1.38-.11-.52-.23-1.04-.34-1.56q-4.68,2.355-9.37,4.73l.15.93Z" fill="#fff"/>
    <path id="Path_4065" data-name="Path 4065" d="M124.85,220.12a6.878,6.878,0,0,0-2.61-3.17c-2.31-1.36-4.57-.33-5.01-1.28-.48-1.02,1.72-3.1,3.23-4.15a11.776,11.776,0,0,1,4.94-1.95c-.34-.18-4.34-2.19-7.74-.2-1.65.97-2.37,2.43-3.42,4.53-.63,1.26-1.39,2.84-.73,3.84.26.39.55.43,1.46.85,1.62.76,2.96,1.38,3.66,2.44.87,1.32-.08,2.05.79,3.62.91,1.63,2.51,1.85,2.38,2.48-.12.59-1.68,1.07-2.92.61-1.7-.63-2.55-2.92-2.67-3.51a9.96,9.96,0,0,1-3.18-4.41,7.012,7.012,0,0,1-.3-2.5,5.258,5.258,0,0,0-1.65,2.13c-.38.98-.13,1.33-.43,2.32a5.919,5.919,0,0,1-2.56,3.11,7.641,7.641,0,0,1-3.3.93c-1.22.18-2.03.28-2.31-.14-.29-.44.09-1.31.79-2.13a40.76,40.76,0,0,1-3.21-3.12c-3.37-3.68-3.21-4.94-5.6-7.68-3.59-4.11-5.84-3.43-8.91-7.59a18.828,18.828,0,0,1-2.61-4.94,19.362,19.362,0,0,0,3.2,4.16,10.537,10.537,0,0,0,2.38,1.83c.75.41,2.66,1.44,3.59.74.71-.53.33-1.65.98-1.92a1.421,1.421,0,0,1,1.6.86c.27.77-.48,1.99-2.06,2.65,4.36,5.53,5.61,6.6,5.88,6.42.15-.1-.11-.51-.12-1.58-.02-1.55.52-2.26.12-2.68-.34-.36-.86.06-1.4-.18-1.09-.49-.87-3.07-.79-6.52.03-1.21.05-3.06,0-5.36a7.226,7.226,0,0,1-4.24.55,4.086,4.086,0,0,1-3.02-1.65,3.15,3.15,0,0,1-.37-1.65,1.1,1.1,0,0,1,.73-.64c.97-.11,1.66,2.31,2.38,2.19.18-.03.54-.26.85-2.59a13.971,13.971,0,0,0,.15-4.82c-.32-1.62-1.31-2.93-3.29-5.49-2.77-3.58-4.01-4.36-4.42-6.52a7.4,7.4,0,0,1,.12-3.17,5.1,5.1,0,0,0-1.83,2.93c-.17.97-.04,2.45,3.66,7.59,2.31,3.2,3.78,4.74,3.26,5.62a1.435,1.435,0,0,1-1.43.51c-2.52-.48-4.14-8.13-4.6-8.93-.25-.43-.51-.88-.51-.88h0c-.48-.78-.85-1.3-1.84-2.7-.55-.78-.82-1.16-.85-1.2a10.664,10.664,0,0,1-1.71-2.93,3.541,3.541,0,0,1,.55-2.44c-1.16-.54-3.31-1.76-4.08-3.9-.18-.48-.61-1.69-.06-2.26a1.3,1.3,0,0,1,.98-.3,3.012,3.012,0,0,1,2.13,1.16,8.894,8.894,0,0,1,2.19,4.08,7.945,7.945,0,0,0,.12-5.3c-1.38-3.77-5.75-4.54-10.85-10.3a9.157,9.157,0,0,1-1.31-1.77c-1.65-2.98-.67-5.65-.64-8.69.04-4.21-1.69-4.46-3.11-10.61a38.516,38.516,0,0,1-.91-10.24,35.854,35.854,0,0,0-3.57,6.58c-1.7,4.14-2.87,7.01-2.56,10.7.23,2.68,1.18,5.11-.18,6.49-.34.34-.95.76-1.25.58-.44-.26.29-1.59.24-3.05-.1-3.16-2.25-5.78-2.68-5.61-.37.15.8,2.16.61,5.61-.15,2.65-.93,3.26-.73,5,.31,2.67,2.54,4.42,3.54,5.24,4.17,3.45,13.27,10.99,15.18,19.11,1.32,5.65-.29,13.91,2.5,15.51.31.18,1.53.77,1.71,1.83.12.72-.26,1.6-.73,1.68-.88.15-2.01-2.48-2.56-3.75-1.8-4.17-1.02-5.6-2.8-7.8-1.05-1.3-1.29-.83-3.05-2.68a16.579,16.579,0,0,1-3.54-5.24,15.093,15.093,0,0,1-1.1-5.49c-2.37,5.2-1.89,8.08-.98,9.75.74,1.37,1.57,1.56,3.29,4.15a19.727,19.727,0,0,1,2.68,5.39c.92,3.07.05,3.65.64,6.49.83,3.95,2.73,3.87,4.24,8.23,1.01,2.94,1.77,7.69-.21,8.97a2.34,2.34,0,0,1-2.47.05c-1.74-1.29.84-5.36-.49-10.24a11.683,11.683,0,0,0-2.32-4.39c1,2.88.61,4.33,0,5.12-.77.99-1.86.88-2.19,1.83-.43,1.24,1.2,2.03,1.71,4.14.63,2.65-1.43,3.6-.73,5.61.5,1.44,2.24,2.26,5.73,3.9,2.71,1.28,3.24,1.18,4.51,2.19,1.64,1.31,1.3,2.1,2.93,4.02a12.291,12.291,0,0,0,5.85,4.02c3.04.84,4.36-.52,6.71.85a12.089,12.089,0,0,1,2.44,2.44c3.24,3.72,3.18,4.83,4.63,5.36,1.66.61,3.46-.27,5.97-1.46,2.8-1.33,3.86-2.68,5.06-2.19.69.28.93.97,1.52,2.56,1.46,3.89,2.16,5.86,2.56,6.34,2.19,2.64,6.79,3.88,9.27,2.32,1.63-1.04,1.73-2.92,2.93-2.93,1.4,0,1.85,2.6,3.66,2.93,1.2.22,2.39-.68,3.29-1.58a22.652,22.652,0,0,1-5.97-11.28c-.53-2.88-.61-7.05-2.8-11.46Zm-37.81,5.55c-.35.12-.78-1.45-1.94-1.58-.55-.06-1.04.22-1.29-.06-.12-.13-.1-.3-.1-.66a5.112,5.112,0,0,0,.04-1.48c-.42-1.95-2.93-2.85-2.85-2.99a11.948,11.948,0,0,1,3.22,1.65c2.05,1.28,2.44,1.85,2.63,2.19.73,1.28.62,2.82.29,2.93Zm2.32-4.69c-.29.16-.94-1.15-2.68-2.68-2.33-2.04-3.9-2.08-4.39-3.6a3.535,3.535,0,0,1,.24-2.44c0,.41.09,2.6,1.58,3.47.52.3,1.36.54,1.58.24.34-.44-.87-1.88-1.04-2.07a7.568,7.568,0,0,1,.69.42,9.423,9.423,0,0,1,3.08,3.42c.68,1.28,1.24,3.05.91,3.23Zm33.77,17.64a1.674,1.674,0,0,1-.92.99,4.868,4.868,0,0,1-4.94-.81c-1.59-1.28-2.11-3.3-1.9-3.44.17-.11.61,1.16,1.92,1.78,2.17,1.02,4.35-.85,5.44.26A1.464,1.464,0,0,1,123.13,238.62Z" fill="#fff"/>
    <path id="Path_4066" data-name="Path 4066" d="M78.1,155.39c3.77,3,5.91,2.91,7.62,5.12,1.03,1.33,1.98,3.6,1.4,7.68.92-.83,2.01-.91,2.44-.49.49.49.15,1.71-.57,2.33a2.351,2.351,0,0,1-2.05.41,16.9,16.9,0,0,0,1.4,9.94c.88,1.73,1.97,2.97,4.54,7.24.29.48,1.24,2.07,2.17,3.97.43.89.65,1.33.77,1.64.56,1.43.52,2.07,1,2.32.34.18.93.15,2.01-.61,2.15-1.52,2.87-3.56,4.33-6.4,2.11-4.1,3.6-5.66,2.99-6.4-.55-.66-1.88.42-3.66-.37-1.33-.59-1.98-1.82-2.68-3.17-.68-1.31-1.47-2.8-1.04-4.57a4.954,4.954,0,0,1,1.28-2.26,8.6,8.6,0,0,0,.98,4.27c.15.29,2.06,3.82,3.78,3.54,2.15-.36,3.56-6.6,2.68-11.89a25.088,25.088,0,0,0-1.71-5.55c-1.85-4.5-3.69-6.05-3.28-8.92.25-1.74.99-1.55,1.08-3.27.14-2.5-1.32-4.77-2.68-6.89-.53-.83-1.02-1.47-1.34-1.89a12.608,12.608,0,0,1,3.17,2.87,12.961,12.961,0,0,1,1.95,3.54c1.29,3.43.5,5.12,1.16,9.27a26.768,26.768,0,0,0,1.46,5.36c4.69-19.48,2.99-25.64.18-27.31a48.318,48.318,0,0,1-4.94-2.44c-2.91-1.77-2.89-2.42-6.83-5.18-2.89-2.03-3.55-2.14-4.63-3.54-1.27-1.63-1.16-2.51-2.44-3.96-1.37-1.56-2.34-1.52-4.57-2.86a25.429,25.429,0,0,1-7.74-7.86,32.518,32.518,0,0,1-2.32-3.9,21.045,21.045,0,0,0,3.84,12.5,20.61,20.61,0,0,0,7.86,6.58,4.521,4.521,0,0,1,2.26,1.52c1.82,2.46-.66,5.62,1.16,7.99.97,1.25,2.27,1.16,2.99,2.86.13.3.64,1.52.06,2.13a1.134,1.134,0,0,1-1.4.18c-.41-.32-.26-1.06-.24-1.46.12-2.75-5.12-4.05-5.85-7.44a4.637,4.637,0,0,1,.49-3.05,4.177,4.177,0,0,0-1.34.98c-2.33,2.55-1.34,8.18,1.68,10.55,1.08.84,1.36.44,2.71,1.28,3.31,2.06,5.67,7.03,3.96,9.94a4.276,4.276,0,0,1-4.21,2.13c-1.4-.34-1.61-1.73-3.23-3.47-1.95-2.1-3.82-2.43-5.43-3.33-2.16-1.21-4.68-3.95-6.03-10.69-.85,2.62-3.4,11.41.79,17.01a23.874,23.874,0,0,0,4.02,4.02Z" fill="#fff"/>
    <path id="Path_4067" data-name="Path 4067" d="M87.61,110.4c3.64,2.56,5.19,1.39,7.38,3.84a6.353,6.353,0,0,1,1.77,4.39c-.02.3-.13,2.23-1.28,2.72-1.12.47-2.54-.72-3.21-1.27a7.18,7.18,0,0,1-1.67-2.06,4.038,4.038,0,0,0,2.74,5.37c.32.13,4.28,1.65,6.52-.37,2.48-2.23,1.31-7.38-1.16-9.57-.34-.3-.62-.48-4.15-1.83-4.81-1.85-5.26-1.9-6.22-2.38-1.77-.89-4.03-2.64-5.97-6.46a10.905,10.905,0,0,0,.73,2.38,12.832,12.832,0,0,0,4.51,5.24Z" fill="#fff"/>
    <path id="Path_4068" data-name="Path 4068" d="M130.12,178.12a7.545,7.545,0,0,0,2.65-5.67,7.779,7.779,0,0,0-3.2-6.03c-2.19-1.53-5.74-2.06-7.22-.55-.46.47-.26.87-1.19,2.65a5.968,5.968,0,0,1-.87,1.41c-1.05,1.02-2.85.83-3.85.63a4.008,4.008,0,0,0,2.62,2.16,4.1,4.1,0,0,0,3.02-.73,5.084,5.084,0,0,0,2.19-2.65c.33-1.04.07-1.65.52-1.95a1.625,1.625,0,0,1,2.01.67c.54,1.23-1.81,3.73-4.02,4.94a10.557,10.557,0,0,1-6.77.98,14.134,14.134,0,0,0-.73,2.74c-.3,1.81-.53,3.24.3,4.51a3.727,3.727,0,0,0,1.65,1.37,5.073,5.073,0,0,0,3.75-.09,20.06,20.06,0,0,0,3.63-1.76,3.31,3.31,0,0,1,.97-.44,1.614,1.614,0,0,1,.98-.08c.76.35.96,3.32-.64,5.03a5.028,5.028,0,0,1-3.29,1.37,7.669,7.669,0,0,1-4.85-1.19,9.042,9.042,0,0,1-2.74-2.56,14.9,14.9,0,0,0,.82,5.12c1.06,3,2.38,3.5,3.2,6.13,1.18,3.76-.3,6.73.18,6.86.56.15,3.25-3.69,2.56-7.22-.14-.71-.43-1.5,0-2.01.52-.61,1.59-.2,3.47-.27a8.688,8.688,0,0,0,3.29-.61,6.634,6.634,0,0,0,3.11-7.44,6.335,6.335,0,0,0-1.55-2.47,5.71,5.71,0,0,0-1.98-1.19c.28-.33.57-.65.85-.98a5.936,5.936,0,0,0,1.13-.67Z" fill="#fff"/>
    <path id="Path_4069" data-name="Path 4069" d="M117.66,157.28c-.44.67-.42,1.61-.37,3.47a34.644,34.644,0,0,0,.67,4.94c.12.69.23,1.26.3,1.65.28-3.82,1.21-4.99,2.07-5.3.81-.29,1.74.12,2.38-.55.61-.64.2-1.46.79-1.89.66-.48,1.42.35,2.32-.06a2.6,2.6,0,0,0,1.1-2.68,3.134,3.134,0,0,0-.98-1.65c-.87-.93-1.42-.88-2.99-1.95-1.09-.75-1.64-1.13-1.89-1.83a3.2,3.2,0,0,1,.3-2.44,2.751,2.751,0,0,0-1.95,1.16,2.587,2.587,0,0,0-.3,1.95c.48,1.81,3,2.08,2.93,2.86-.08.87-3.16.44-4.39,2.32Z" fill="#fff"/>
  </g>
</svg>
