<svg id="Component_325_1" data-name="Component 325 – 1" xmlns="http://www.w3.org/2000/svg" width="342.24" height="342.24" viewBox="0 0 342.24 342.24">
  <g id="Component_230_37" data-name="Component 230 – 37">
    <g id="Rectangle_3295" data-name="Rectangle 3295" transform="translate(171.12) rotate(45)" fill="#fff" stroke="#000" stroke-width="3">
      <rect width="242" height="242" stroke="none"/>
      <rect x="1.5" y="1.5" width="239" height="239" fill="none"/>
    </g>
    <g id="Rectangle_3296" data-name="Rectangle 3296" transform="translate(171.421 30) rotate(45)" stroke="#000" stroke-width="3">
      <rect width="200" height="200" stroke="none"/>
      <rect x="1.5" y="1.5" width="197" height="197" fill="none"/>
    </g>
  </g>
  <g id="Layer_1-2" transform="translate(19.44 19.858)">
    <g id="Group_141" data-name="Group 141">
      <path id="Path_3650" data-name="Path 3650" d="M136.37,81.72c1.85-5.05-.19-7.83-2.32-10.06-2.77-2.89-1.89-5.13.51-7.18,3.78-3.23,7.99-5.33,13.27-3.86,1.52.43,3.26.01,4.87.23,3.81.52,7.94.42,11.31,1.96,5.36,2.46,5.38,4.85,2.09,9.82-1.39,2.1-1.96,4.74-2.91,7.14.62.27,1.25.53,1.87.8.59-1.15,1.28-2.25,1.76-3.45,3.76-9.51,13.97-12.93,22.58-7.53,5.05,3.17,5.47,8.88,1.02,12.95-1.24,1.14-2.31,2.47-3.46,3.72.34.41.68.81,1.02,1.22,1.43-1.06,2.8-2.21,4.31-3.15,2.5-1.56,4.92-3.72,7.66-4.31,5.71-1.23,8.43,3.01,6.28,8.45,3.73,1.64,7.68,2.87,11.07,5,3.77,2.37,5.36,6.07,4.42,10.83-.33,1.68.74,3.63,1.13,5.47.93,4.32,2.36,8.63,2.53,12.98.08,2-1.89,4.77-3.72,6.01a77.79,77.79,0,0,1-11.83,6.02c-4.84,2.16-7,1.2-8.83-3.68-1.29-3.43-2.94-6.82-3.51-10.38-.29-1.83,1.07-4.34,2.46-5.82.55-.59,3.19.76,4.93,1.86-2.14,1.8-6.3,1.71-3.9,5.82,1.76,3.01,6.1,3.54,9.26,1.19,3.52-2.61,6.04-9.2,4.54-11.87-1.86-3.31-9.97-5.94-13.91-4.5-5.63,2.05-8.82,7.01-8.12,13.42a53.06,53.06,0,0,0,10.31,26.72c5.37,7.12,5.05,10.23-1.38,16.64a11.168,11.168,0,0,0-2.22,4.32c-2.37,6.97-8.51,9.74-15.23,6.72-2.73-1.23-5.79-2.12-7.98-4.01-2.11-1.82-4.21-4.6-4.56-7.19-.27-2.04,2.15-4.43,3.37-6.66,1.66.91,3.33,1.83,6.01,3.3.32-1.06,1.64-3.17,1.07-4.06-1.09-1.69-3.38-3.89-4.96-3.74-3.66.36-7.19,2.01-10.68,3.11.44-7.78,7.89-12.01,14.86-8.26a9.35,9.35,0,0,0,3.72.99,8.955,8.955,0,0,1,8.65,8c.67,4.78-2.16,10.62-6.17,11.38-2.13.4-4.57-.84-6.87-1.33l-.83,1.08c1.64.96,3.23,2.62,4.93,2.75,6.3.48,10.94-3.99,11.57-10.59.7-7.41-3.2-13.04-9.66-14.03a18.412,18.412,0,0,1-4.33-.98c-7.66-3.22-12.99-2.57-16.33,5-4.72,10.71-7.9,22.17-10.87,33.53-1.67,6.37-1.58,13.21-2.33,19.83-.24,2.1-.59,4.2-.89,6.29l-1.24.12a44.238,44.238,0,0,1-.89-5.31c-.78-16.97-3.43-33.49-11.56-48.72a60.83,60.83,0,0,0-4.23-7.32c-2.71-3.71-6.63-6.71-11.09-4.95-6.28,2.48-14.8,1.45-17.78,9.93-2.87,8.17,1.72,16.19,9.86,17.24,3.18.41,4.42-.48,5.33-3.85-2.44.44-5.05,1.67-7.23,1.15-4.13-.99-6.66-6.71-5.83-11.53.81-4.72,3.85-7.26,8.87-7.67a9.461,9.461,0,0,0,3.66-1.2c6.21-3.42,11.63-.97,14.05,6.75-4.62.28-10.24-5.18-13.46,1.87-.57,1.25.5,3.25.62,3.87,3.16-.91,5.95-2.65,7.21-1.88,3.07,1.86,3.95,5.27,2.12,8.75-.68,1.3-1.54,2.87-2.74,3.46-4.89,2.4-9.79,4.94-14.97,6.52-4.06,1.23-9.95-4-11.33-8.79a8.828,8.828,0,0,0-2.5-4.43c-5.47-4.27-6.22-9.35-1.79-15.06,6.14-7.94,11.86-16.01,12.8-26.52.6-6.76-1.21-10.94-6.71-13.7-5.44-2.74-10.52-1.93-15.22,2.26-1.86,1.66-2.78,3.14-.94,5.48,1.21,1.55,1.75,3.64,3.01,5.14a12.144,12.144,0,0,0,4.59,3.62c3.23,1.22,6.24,0,7.28-3.22.38-1.19-1.72-3.19-3.17-5.61.87-.33,2.56-1.59,3.71-1.22,1.22.39,2.94,2.62,2.69,3.59-1.46,5.57-2.9,11.29-5.65,16.25-.6,1.09-6.52-.4-9.83-1.28a23.217,23.217,0,0,1-7.76-3.64,24.252,24.252,0,0,1-6.3-6.83c-.86-1.46-.27-3.92.01-5.88.87-6.05,4.4-11.21,4.24-17.93-.15-6.15,10.07-10.96,17.11-9,5.51,1.53,10.76,3.98,16.14,5.99a18.815,18.815,0,0,0,3.06.37,15.743,15.743,0,0,0-11.48-7.39c-1.79-.28-3.84.42-5.44-.19-2.06-.79-3.79-2.45-5.67-3.73,1.57-1.69,3.33-4.93,4.67-4.76,3.53.44,6.93,2.22,10.25,3.75,1.59.73,2.88,2.11,4.31,3.19.37-.4.73-.81,1.1-1.21-1.12-1.22-2.24-2.45-3.36-3.67-4.69-5.11-3.82-10.26,2.27-13.47,8.43-4.44,17.76-.9,21.35,8.06.49,1.23,1.14,2.39,2.25,4.7Zm23.78,8.22,1.09-1q4.125,4.665,8.25,9.34c.53-.52,1.06-1.04,1.58-1.56-6.4-8.27-12.41-16.91-22.69-22.98,0,3.07.8,6.13-.18,6.89-1.53,1.18-4.38.48-6.44,1.22-.99.36-2.27,2.36-2.04,3.28,1,4.1,2.81,8.01,3.69,12.12a13.118,13.118,0,0,1-.57,7.4c-.45,1.08-3.42,1.86-5.02,1.57-5.7-1.04-8.88,1.56-10.86,6.44-1,2.47-1.95,4.96-2.94,7.43-1.62,4.05-.06,9.64,3.15,11.31,6.71,3.49,7.77,3.29,11.8-2.43.66-.93.82-2.25,1.56-3.09.89-1.01,2.26-2.48,3.21-2.33,1.1.16,2.8,1.86,2.8,2.89a59.614,59.614,0,0,1-1.09,10.47c-.4,2.21-2.4,4.6-1.9,6.41,1.13,4.05,3.32,7.81,5.24,11.61a3.149,3.149,0,0,0,2.22,1.58c.66,0,1.59-1.02,1.92-1.8,2.53-5.89,5.26-11.72,7.22-17.79.81-2.51.29-5.68-.34-8.38-.72-3.08-2.24-5.97-3.42-8.94.36-.23.71-.46,1.07-.69l8.48,8.93,1.44-1.17a26.78,26.78,0,0,0-2.34-3.91c-2.26-2.66-4.9-5.03-6.96-7.83-.88-1.2-1.52-3.65-.89-4.72,3.78-6.39,4.48-13.13,2.97-20.29Zm4.31,54.14c6.06-5.34,12.03-10.29,21.2-3.8-1.43-5.13-4.43-5.48-7.33-5.68C171.46,134.12,167.66,138.54,164.46,144.08Zm-28.03.34a13.274,13.274,0,0,0-12.93-9.75c-3.17,0-6.6-.02-8.13,5.55C124.56,133.82,130.51,138.82,136.43,144.42Zm49.25-48c5.5-2.35,10.27-4.39,15.04-6.44C195.37,87.82,188.96,90.3,185.68,96.42Z" fill="#fff"/>
      <path id="Path_3651" data-name="Path 3651" d="M169.31,186.62c7.84,7.67,10.62-1.77,15.79-4,1.39,2.49,2.64,4.71,4.23,7.54,6.15-4.39,12.02-8.57,17.88-12.76.35.22.69.43,1.04.65-1.42,4.38-2.84,8.75-4.76,14.66,10.72-3.07,20.27-5.81,29.82-8.54.25.35.49.69.74,1.04-8.68,7.68-17.36,15.36-27.05,23.93,4.7.96,8.12,1.66,11.52,2.35-2.66,15.6-36.85,31.82-53.54,31.33,4.17-1.71,8.35-3.4,12.51-5.14,8.44-3.52,17.1-6.63,23.32-13.95,2.66-3.13,4.63-5.71-.23-8.72-2.8-1.73-1.98-4,.04-6.26,3.6-4.05,3.33-7.47-1.27-10.22a24.424,24.424,0,0,0-9.35-2.84,105.687,105.687,0,0,0-12.97-.37c-5.32,0-6.63-3.69-7.71-8.68Z" fill="#fff"/>
      <path id="Path_3652" data-name="Path 3652" d="M138.24,242.69c-14.11,1.25-48.8-14.21-53.73-31.15,3.52-.65,6.98-1.29,12.11-2.24L69.56,185.31c.2-.38.4-.77.6-1.15,9.51,2.73,19.01,5.46,29.79,8.55-1.81-5.57-3.2-9.85-4.59-14.12.3-.33.59-.67.89-1,5.8,4.05,11.6,8.09,17.94,12.52,1.37-2.54,2.57-4.78,4.2-7.83,2.59,2.29,4.56,5.13,7.21,6.06,2.43.86,5.58-.34,8.79-.67-1.12,4.12-2.59,7.63-7.9,7.61a103.735,103.735,0,0,0-12.97.4,24.459,24.459,0,0,0-9.36,2.83c-4.69,2.78-4.99,6.07-1.29,10.16,2.55,2.81,2.32,4.96-.64,6.99-3.22,2.2-2.6,4.33-.46,7.03,6.44,8.12,15.71,11.48,24.79,15.22q5.835,2.4,11.68,4.8Z" fill="#fff"/>
      <path id="Path_3653" data-name="Path 3653" d="M118.52,221.05c5.56,3.47,11.45,4.71,16.07-.03,3.71-3.81,6.08-8.94,8.83-13.16,2.25,3.07-.33,10.19-6.6,15.16-6.55,5.19-13.57,4.84-18.3-1.97Z" fill="#fff"/>
      <path id="Path_3654" data-name="Path 3654" d="M182.59,221.57c-3.15,4.99-9.08,6.42-14.83,3.76-7.44-3.44-12.03-11.71-9.31-18.64.36,1.33.82,2.65,1.08,4,1.2,6.29,6.52,12.45,12.3,12.89C175.2,223.83,178.69,222.36,182.59,221.57Z" fill="#fff"/>
      <path id="Path_3655" data-name="Path 3655" d="M167.39,214.46c2.93,1.01,5.21,2.42,7.48,2.41s5.26-.82,6.59-2.41c1.12-1.35.32-4.3.38-6.55-1.92.17-3.84.34-6.6.59.63-1.2,1.03-3.19,2.13-3.72a6.069,6.069,0,0,1,4.94.05c4.8,2.85,4.84,9.09.33,12.51-5.09,3.86-13.04,2.68-15.24-2.89Z" fill="#fff"/>
      <path id="Path_3656" data-name="Path 3656" d="M124.93,208.72c-1.71-.48-3.58-1.6-5.07-1.22-.95.24-2.18,2.97-1.81,4.08.61,1.82,2.29,4.39,3.77,4.57,3.66.44,7.46-.29,11.74-.59-.36-.55.03-.2-.04-.03-1.78,4.32-5.54,3.99-9.18,3.79-4.09-.22-7.99-1.62-8.7-5.92-.41-2.49,1.02-5.57,2.4-7.94.6-1.02,3.39-1.6,4.74-1.12,1.4.5,2.25,2.52,3.35,3.87-.4.17-.8.33-1.21.5Z" fill="#fff"/>
    </g>
  </g>
</svg>
