<svg id="Component_313_1" data-name="Component 313 – 1" xmlns="http://www.w3.org/2000/svg" width="342.24" height="342.24" viewBox="0 0 342.24 342.24">
  <g id="Component_230_31" data-name="Component 230 – 31">
    <g id="Rectangle_3295" data-name="Rectangle 3295" transform="translate(171.12) rotate(45)" fill="#fff" stroke="#000" stroke-width="3">
      <rect width="242" height="242" stroke="none"/>
      <rect x="1.5" y="1.5" width="239" height="239" fill="none"/>
    </g>
    <g id="Rectangle_3296" data-name="Rectangle 3296" transform="translate(171.421 30) rotate(45)" stroke="#000" stroke-width="3">
      <rect width="200" height="200" stroke="none"/>
      <rect x="1.5" y="1.5" width="197" height="197" fill="none"/>
    </g>
  </g>
  <g id="Layer_1-2" transform="translate(20.452 15.351)">
    <g id="Group_167" data-name="Group 167">
      <path id="Path_3770" data-name="Path 3770" d="M100.93,209.18a28.153,28.153,0,0,0,3.92-1.23q25.68-19.635,51.36-39.26-5.565-6.78-11.13-13.55-32.7,25.68-65.41,51.37c4.35,2.01,12.31,4.8,21.26,2.68Z" fill="#fff"/>
      <path id="Path_3771" data-name="Path 3771" d="M87.15,194.84c7.98-10.18,11.32-16.38,12.36-18.36,1.42-2.7,2.49-5.02,3.22-6.72a75.705,75.705,0,0,1-5.68,6.72,72.727,72.727,0,0,1-5.89,5.53c.62-2.51,1.64-6.58,2.94-11.58,5.24-20.13,10.01-35.91,14.33-50.2,1.48-4.87,3.61-11.85,6.27-20.3a124.681,124.681,0,0,0-11.29,18.09c-2.54,4.98-4.25,9.14-12.44,35.6-4.59,14.79.11.06-9.85,34.74-2.62,9.14-4.5,15.55-3.09,16.23,1.07.52,3.75-2.9,9.11-9.74Z" fill="#fff"/>
      <path id="Path_3772" data-name="Path 3772" d="M123.41,211.53c-5.1,0-9.24-.03-11.79-.06a74.138,74.138,0,0,1,14.81-8.44c-1.81.3-4.31.77-7.26,1.49-2.17.53-8.97,2.28-20.83,7.65-7.96,3.6-11.95,5.41-11.75,6.62.26,1.6,6.85,1.38,16.24,1.13,35.62-.97,20.36-.09,35.65-.85,27.35-1.35,31.77-1.98,37.19-3.24a121.572,121.572,0,0,0,20.27-6.64c-8.74.47-15.95.8-20.98,1.01-14.74.63-31.02,1.31-51.56,1.33Z" fill="#fff"/>
      <path id="Path_3773" data-name="Path 3773" d="M110.26,149.41c-.73.11-.98,1.01-2.6,5.79-1.58,4.66-1.89,5.45-1.59,5.64s1.94-1.56,5.21-5.06c1.11-1.19,1.67-1.81,1.74-2.75.12-1.8-1.58-3.79-2.75-3.62Z" fill="#fff"/>
      <path id="Path_3774" data-name="Path 3774" d="M136.69,203.88c-4.49,2.01-5.28,2.32-5.22,2.67s2.46.36,7.26.37c1.63,0,2.47,0,3.2-.6,1.4-1.14,1.7-3.74.78-4.48-.57-.46-1.41-.04-6.02,2.03Z" fill="#fff"/>
      <path id="Path_3775" data-name="Path 3775" d="M125.02,127.42c1.35,3.51.3,6.35,1.01,6.51.86.19,2.64-3.9,3.62-7.67,1.26-4.83,2.31-8.87,0-11.87-2-2.59-6.36-4.19-8.83-2.46-2.14,1.5-2.31,5.12-1.59,7.52,1.13,3.79,4.17,3.76,5.79,7.96Z" fill="#fff"/>
      <path id="Path_3776" data-name="Path 3776" d="M209.96,126.98a10.988,10.988,0,0,0,.83-6.84.44.44,0,0,0-.02-.1,9.921,9.921,0,0,0-1.82-3.63,37.807,37.807,0,0,0-8.65-8.45c-13.54-8.76-18.89-17.4-28.25-17.31-1.02.01-4.13.08-4.92,1.74-.98,2.07,2.31,5.2.87,7.81-.35.64-.86,1.02-.72,1.59.22.89,1.87,1.58,3.04,1.16.8-.29.93-.93,1.3-.87.82.13,1.81,3.48.58,4.78s-3.64-.52-9.98-.72c-4.9-.16-5.86.84-5.93,1.3-.03.21.09.47.14,1.39a9.286,9.286,0,0,1,0,.93c-.09,3.13.01,3.24-.14,3.47-.97,1.43-5.32-1.54-7.52.14-.81.62-1.07,2.29-1.59,5.64-.41,2.61-.32,3.92-1.45,5.21a4.721,4.721,0,0,1-2.03,1.45c-1.46.5-2.27-.15-2.89.43-.46.44-.16.93-.29,3.33-.1,1.85-.3,1.93-.13,2.76.25,1.27.75,1.25.86,2.44.14,1.53-.17,1.78,0,3.47a14.855,14.855,0,0,0,1.88,6.22,18.608,18.608,0,0,0,1.32,2.03c-1.01.99-1.37,2.96-.82,4.96q7.11,9.12,14.23,18.24a4.154,4.154,0,1,0,6.68-4.93q-6.375-7.605-12.76-15.21a6.878,6.878,0,0,0-3.01-3.22c-.27-1.43-3.18-2.63-2.89-4.19a2.033,2.033,0,0,1,2.03-1.45c1.4.16,2.16,2.62,2.32,3.04,1.03,2.87,11.58,16.81,43.41,54.99q12.375-9.33,24.74-18.67a40.478,40.478,0,0,1-4.05-5.64c-9.96-16.85-7.1-40.68-4.34-47.32Z" fill="#fff"/>
      <path id="Path_3777" data-name="Path 3777" d="M203.55,109.8c5.01,4.95,6.08,6.8,7.91,6.46a3.125,3.125,0,0,0,2.32-2c.45-1.48-.89-2.67-5.94-8.13-3.29-3.57-4.19-4.65-5.63-4.51a3.484,3.484,0,0,0-2.97,2.63c-.23,1.42,1.02,2.31,4.3,5.55Z" fill="#fff"/>
      <path id="Path_3778" data-name="Path 3778" d="M208.33,105.32c5.01,4.95,6.08,6.8,7.91,6.46a3.125,3.125,0,0,0,2.32-2c.45-1.48-.89-2.67-5.94-8.13-3.29-3.57-4.19-4.65-5.63-4.51a3.484,3.484,0,0,0-2.97,2.63c-.23,1.42,1.02,2.31,4.3,5.55Z" fill="#fff"/>
      <path id="Path_3779" data-name="Path 3779" d="M213.24,100.65c5.01,4.95,6.08,6.8,7.91,6.46a3.125,3.125,0,0,0,2.32-2c.45-1.48-.89-2.67-5.94-8.13-3.29-3.57-4.19-4.65-5.63-4.51a3.484,3.484,0,0,0-2.97,2.63c-.23,1.42,1.02,2.31,4.3,5.55Z" fill="#fff"/>
    </g>
  </g>
</svg>
