<svg id="Component_338_1" data-name="Component 338 – 1" xmlns="http://www.w3.org/2000/svg" width="342.24" height="342.24" viewBox="0 0 342.24 342.24">
  <g id="Component_230_28" data-name="Component 230 – 28">
    <g id="Rectangle_3295" data-name="Rectangle 3295" transform="translate(171.12) rotate(45)" fill="#fff" stroke="#000" stroke-width="3">
      <rect width="242" height="242" stroke="none"/>
      <rect x="1.5" y="1.5" width="239" height="239" fill="none"/>
    </g>
    <g id="Rectangle_3296" data-name="Rectangle 3296" transform="translate(171.421 30) rotate(45)" stroke="#000" stroke-width="3">
      <rect width="200" height="200" stroke="none"/>
      <rect x="1.5" y="1.5" width="197" height="197" fill="none"/>
    </g>
  </g>
  <g id="Component_337_1" data-name="Component 337 – 1" transform="translate(75 64.873)">
    <g id="Layer_1-2" transform="translate(-54.11 -51.38)">
      <g id="Group_174" data-name="Group 174">
        <path id="Path_3811" data-name="Path 3811" d="M79.27,180.03c1.23-1.51,2.45-3.01,3.69-4.52a18.113,18.113,0,0,0,2.35-1.81c1.68-1.17,3.31-2.09,4.07,1.03.6,2.51,2.69,3.13,4.85,3.25-1.11-.73-1.07-2.24-1.81-3.33-1.13-5.19-.96-9.98,3.92-13.42.78-1.01,1.51-2.06,2.94-2.19,1.86-.4,3.51-1.54,5.54-1.39,1.4.1,2.67.18,3.07,1.84-1.84,2.72.68,5.1.63,7.68-.54,1.27-1.93,1.54-2.81,2.41a6.6,6.6,0,0,1-.88,1.34c-1.94,2.2-1.12,4.89-1.28,7.39-.12,1.83.07,3.67-.11,5.5a2.578,2.578,0,0,1-.43.99c-2.49.5-4.69,1.94-7.21,2.34-1.18.25-2.28.93-3.56.64-1.57-.47-2.75-2.05-4.64-1.6-.68.22-1.31.75-2.01.66-2.89-.36-.48,1.32-.78,1.95-.37,1.96,1.41,3.02,1.97,4.6-1.25,3.13-1.53,3.18-5.34.76a8.505,8.505,0,0,1-3.6-4.85c-.04-3.18-.48-6.41,1.45-9.27h0Z" fill="#fff"/>
        <path id="Path_3812" data-name="Path 3812" d="M190.33,143.54c.75.99,1.48,1.99,2.23,2.98,3.07,5.37,2.63,9.3-1.64,13.2a11.175,11.175,0,0,0-2.81,3.89c-1.01,3.78-3.35,5.38-7.33,4.89-4.34-.52-8.79.69-13.09-.71-1.5-3.31-.72-6.77-.57-10.16.07-1.54,1.19-2.07,2.65-1.22,2.46,1.04,5.72-.06,7.57,2.73a5.221,5.221,0,0,0,.8.6,3.045,3.045,0,0,0,1.37.48,3.325,3.325,0,0,0-.42-.07,6.792,6.792,0,0,1-3.95-3.94c-.02-1.78.4-3.21,2.52-3.36.66-.1,1.43.54,1.95-.33-.1-2.21-1.44-3.67-2.88-5.08-1.6-1.85-.93-3.36.72-4.7,4.45-2.1,8.77-2.21,12.9.78h0Z" fill="#fff"/>
        <path id="Path_3813" data-name="Path 3813" d="M171.74,116.65a28.739,28.739,0,0,1,11.21,10.42,1.508,1.508,0,0,1,.24,1.5c-1.27,1.04-2.26.46-3.16-.55a9.789,9.789,0,0,1-.63-.91,35.256,35.256,0,0,0-11.18-9.73c1.59.67,3.3,2.04,5.45,2.66a2.968,2.968,0,0,1,2.08,2.8,2.272,2.272,0,0,1-2.34,2.35c-2.78-.67-4.43.81-5.71,3.01-2.5,2.1-6.79,1.77-10.46-.79-.78-1.57.78-2.69.84-4.13.06-1.73.25-3.52-2.41-2.28-1.37.63-2.91.19-4.25.83-3.43,3.27-5.4,7-4.25,11.94.42,1.8-.47,2.81-2.42,2.68-1.74-.88-1.34-2.46-1.26-3.92.15-2.81,1.4-5.75-.94-8.28a3.955,3.955,0,0,1-.1-1.81c1.52-4.92,6.33-8.01,13.41-8.36,5.46-.28,10.89-.1,15.89,2.58h0Z" fill="#fff"/>
        <path id="Path_3814" data-name="Path 3814" d="M215.75,183.74a13.026,13.026,0,0,1-1.59,14.86l-.57.48c-5.54,4.31-8.14,3.69-11.52-2.73-.28-2.83-.13-5.56,1.58-7.98,1.48-2.3,3.71-1.87,6.04-1.43-.96-2.07-4.17-2.98-3.04-5.55.96-2.19,3.41-1.21,5.28-1.29a12.787,12.787,0,0,1,3.81,3.66h0Z" fill="#fff"/>
        <path id="Path_3815" data-name="Path 3815" d="M197.16,234.57c-.94,2.87-3.22,4.63-5.35,6.51-4.95,3.62-10.85,4.65-16.61,6.04-1.65-.4-4.49,1.67-4.46-2.16.91-2.06,3.37-1.81,4.75-3.16,2.66-1.56,6.07-1.51,8.34-3.92,1.86-1.44,4.2-1.99,5.99-3.67,2.52-2.36,3.03-5.45,3.89-8.47.38-1.2.87-2.6,2.28-2.48,1.37.12,1.04,1.74,1.41,2.72a11.27,11.27,0,0,1-.24,8.61h-.01Z" fill="#fff"/>
        <path id="Path_3816" data-name="Path 3816" d="M171.76,244.96c.49,2.57,2.64.93,3.91,1.55-1.93,1.85-4.61,1.68-6.92,2.39a34.021,34.021,0,0,0-6.77,2.66l-8.01,4.63c-2.14.52-2.72,3.89-5.6,3.06-1.11-1.43-.12-2.53.54-3.69a4.041,4.041,0,0,1,1.92-2.05c2.94-2.51,6.39-4.2,9.77-6,2.52-.86,5.15-1.35,7.53-2.69,1.04-.59,2.49-1.36,3.63.15h0Z" fill="#fff"/>
        <path id="Path_3817" data-name="Path 3817" d="M171.74,116.65c-6.2-1.51-12.28-3.26-18.86-1.63-4.54,1.13-8.02,2.92-9.38,7.66-2.75,2.26-2.81-1.06-4.07-1.93-1.6-2.23-3.82-1.22-5.83-1.07-1.58.12-3.03.99-4.66.99a1.692,1.692,0,0,1-1.18-1.01c4.59-4.04,10.04-4.49,15.68-3.42a6.26,6.26,0,0,0,4.14-.51c7.25-3.16,14.67-2.87,22.08-.56a8.226,8.226,0,0,1,2.07,1.48h0Z" fill="#fff"/>
        <path id="Path_3818" data-name="Path 3818" d="M116.63,137.59c.46-.54.9-1.07,1.36-1.62a.936.936,0,0,1,1.07-.08,2.345,2.345,0,0,1,.82,2,20.084,20.084,0,0,0,1.34,7.74,4.828,4.828,0,0,0,2.75,5.36c.93,5.06.82,5.25-4.72,7.84-.25-.05-.6-.1-.66-.28-2.7-6.8-6.1-13.53-1.96-20.97Z" fill="#fff"/>
        <path id="Path_3819" data-name="Path 3819" d="M182.84,128.56c.04-.49.07-.99.1-1.48a23.488,23.488,0,0,1,5.31,12.73c.14,1.77,1.52,2.43,2.07,3.75-4.27-.79-8.54-1.7-12.64.66a3.6,3.6,0,0,1-3.51.02c-1.89-2.43.03-3.18,1.77-4.01a3.881,3.881,0,0,0,2.07-.74c1.63-1,3.63-1.37,5.01-2.78.66-1.45-.2-2.6-.64-3.85-.51-1.46-1.35-3.04.45-4.29h0Z" fill="#fff"/>
        <path id="Path_3820" data-name="Path 3820" d="M153.86,247.93c1.47-1.22-.97-3.64,1.43-4.57,6.19-1.24,11.79-4.08,17.56-6.42a11.97,11.97,0,0,1,3.43-1.3,6.914,6.914,0,0,1,1.7.1,2.515,2.515,0,0,1,1.69,1.47c.28,1.8-1.09,2.34-2.33,2.81a12.865,12.865,0,0,0-4.2,2.87c-.35.13-.72.25-1.07.37-5.25.57-9.85,3-14.58,5.06-1.19.51-2.25,1.78-3.71.58a.759.759,0,0,1,.07-.98h0Z" fill="#fff"/>
        <path id="Path_3821" data-name="Path 3821" d="M196.49,211.43c-1.95,1.61-5.45.08-6.63,3.25-2.18,2.84-5.26,1.12-7.92,1.55-1.81-.03-3.62.04-5.42-.12a4.36,4.36,0,0,1-2.84-1.63c-.26-2.89,1.94-3.38,3.96-3.86,1.14-.27,2.38-.1,3.55-.34,1.22-.06,2.44-.03,3.66-.03,2.85.53,5.73,1.34,8.29-.9a2.828,2.828,0,0,1,2.37.51,3.209,3.209,0,0,1,.98,1.57h0Z" fill="#fff"/>
        <path id="Path_3822" data-name="Path 3822" d="M94.16,174.84a3.265,3.265,0,0,0,3.26,2.92c.81.07,2.28-.9,2.08.87a2.287,2.287,0,0,1-2.93,2.09c-3.34-.96-7.1-1.48-8.28-5.63-.5-1.76-1.43-1.68-2.74-.86a26.124,26.124,0,0,1-2.6,1.28c1.38-2.95,5.47-2.87,6.72-5.96,1.08,0,2.13.52,2.13,1.54,0,1.86,1.36,2.65,2.36,3.75h0Z" fill="#fff"/>
        <path id="Path_3823" data-name="Path 3823" d="M176.15,236.67c-5.91,3.31-12.52,4.99-18.54,8.03-1.58.8-1.91-.27-2.33-1.34.96-1,1.69-2.31,3.28-2.5,1.99-2.61,5.34-2.35,7.91-3.73,1.73-.51,3.45-1.04,5.18-1.59a6.5,6.5,0,0,1,3.34-.56c.79.28,1.48.64,1.17,1.68h0Z" fill="#fff"/>
        <path id="Path_3824" data-name="Path 3824" d="M116.63,137.59c-.36,3.02-2.48,6.06-1.43,8.93,1.48,4.02,1.25,8.66,4.27,12.12,3.79.3,4.66,3.32,5.71,6.16a1.965,1.965,0,0,1-1.75,1.37c-4.54-.59-7.48-3.62-10.32-6.8a1.46,1.46,0,0,1,.52-1.04c3.05.25,4.06-.68,2.75-3.84-1.76-4.25-3.05-8.68-1.59-13.35.4-1.28.62-2.69,1.83-3.57h0Z" fill="#fff"/>
        <path id="Path_3825" data-name="Path 3825" d="M187.4,162.14c.63-.9,1.07-2.11,1.93-2.63,5.48-3.29,5.22-7.89,3.23-12.98,2.51,1.91,2.5,4.7,2.21,7.35-.24,2.12.31,2.74,2.4,2.97a16.409,16.409,0,0,1,8.09,3.24.841.841,0,0,1,0,.98c-1.38,1.36-2.73.42-4.09-.04-4.73-1.62-6.49-1.16-9.72,2.55-1.03,1.19-1.84,2.7-3.81,2.42-2.34-1.16-1-2.52-.22-3.86h0Z" fill="#fff"/>
        <path id="Path_3826" data-name="Path 3826" d="M121.06,133.04c-.6-2.08.66-3.92.77-5.92a1.569,1.569,0,0,1,1.46-.46c1.81.82.6,3.89,3.13,4.13.28.07.54.18.83.28,2.1-.31,3.85.28,4.37,2.45a3.334,3.334,0,0,1-2.77,4.17c-2.69.63-1.81,4.11-4.23,4.8-3.25-.84-3.57-3.54-3.95-6.22-.16-1.11.66-2.1.38-3.23h0Z" fill="#fff"/>
        <path id="Path_3827" data-name="Path 3827" d="M110.63,212.92c-9.74,1.7-14.33-.26-19.36-8.29,0-1.75-2.41-1.45-2.59-3.05,1.19-1.44.76-4.36,3.78-4.14,1.6.51,1.39,2.34,2.4,3.29,1.04,2.49,2.86,4.51,3.96,7,1,2.25,3.4,2.63,5.62,2.92,1.87.25,3.78.07,5.64.53a2.341,2.341,0,0,1,.77.73,1.064,1.064,0,0,1-.2,1h-.01Z" fill="#fff"/>
        <path id="Path_3828" data-name="Path 3828" d="M153.1,239.69c-11.04,5.56-21.33,2.66-31.4-2.79a.916.916,0,0,1,0-1.13c3.39-1.23,6.3.75,9.11,1.85,5.96,2.33,11.78,2.09,17.77.65,1.28-.31,2.54-1.14,3.89-.22a1.4,1.4,0,0,1,.64,1.64h0Z" fill="#fff"/>
        <path id="Path_3829" data-name="Path 3829" d="M94.16,174.84c-2.81,1.59-4.18.73-3.98-2.45a4.779,4.779,0,0,0-.5-2.84c2.15-2.83,2.54-7.06,6.66-8.31-4.39,3.95-3.12,8.8-2.17,13.61h0Z" fill="#fff"/>
        <path id="Path_3830" data-name="Path 3830" d="M89.05,201.62c.69,1.04,2.52,1.25,2.22,3.01-4.45-5.25-10.52-8.98-14.13-15.02a1.126,1.126,0,0,1,1.48.04,9.585,9.585,0,0,0,2.72,3.9,6.582,6.582,0,0,1,1.87,1.16c1.74,1.21,3.2,1.45,3.75-1.19a3.222,3.222,0,0,1,3.12-2.65c3.48.54,3.55.68,2.41,4.75-2.37,1.28-2.72,3.75-3.43,5.99h0Z" fill="#fff"/>
        <path id="Path_3831" data-name="Path 3831" d="M121.06,133.04c1.45,2.84.63,6.63,3.73,8.77,2.05-.62,2.89,1.05,4.04,2.13,1.52,1.9,2.51,3.74-.6,5.1-1.92.6-3.01-1.11-4.54-1.6a2.356,2.356,0,0,1-.84-.79c-1.35-3.53-2.19-7.27-4.29-10.5a.975.975,0,0,1-.57-.19c.23-1.81,2.5-1.48,3.07-2.92Z" fill="#fff"/>
        <path id="Path_3832" data-name="Path 3832" d="M153.86,247.93c.05.29.11.58.16.87,2.13.43,3.44-1.82,5.48-1.66.76.24,1.43.54,1.09,1.54-3.02,1.95-6.04,3.89-9.06,5.85-2.17.71-2.94-1.01-3.95-2.29-.36-.87-1.19-1.6-.75-2.69.91-1.16,1.84-2.28,3.44-.98-.04,1.48.59,1.62,1.67.84.65-.48,1.28-.98,1.92-1.48Z" fill="#fff"/>
        <path id="Path_3833" data-name="Path 3833" d="M161.97,251.55c2.68-2.74,6.42-2.88,9.77-4.01,1.28-.43,2.61-.69,3.92-1.03a78.465,78.465,0,0,0,16.15-5.42c-3.65,4.11-8.95,4.58-13.74,5.96-5.35,1.54-10.83,2.67-16.1,4.51h0Z" fill="#fff"/>
        <path id="Path_3834" data-name="Path 3834" d="M205.18,160.9c.02-.27.04-.54.07-.81,4.95,3.87,7.13,8.77,5.25,14.97-.56,1.87-.28,2.94,1.35,4.01,1.72,1.13,3.52,2.36,3.89,4.68l-3.64-2.98c-4.85-1.28-4.97-1.45-4.39-6.56.4-3.63.98-7.25-2.02-10.24a2.454,2.454,0,0,1-.52-3.06h.01Z" fill="#fff"/>
        <path id="Path_3835" data-name="Path 3835" d="M203.23,196.39c3.64,5.39,4.01,5.47,10.94,2.21a4.311,4.311,0,0,1-2.6,2.42,11.514,11.514,0,0,0-5.46,4.49,3.2,3.2,0,0,1-.99-.46c-2.36-2.32-5.08-4.45-4.5-8.35.7-1.6,1.6-1.41,2.62-.31h0Z" fill="#fff"/>
        <path id="Path_3836" data-name="Path 3836" d="M181.43,215.07c2.81-.13,5.62-.25,8.42-.38a7.807,7.807,0,0,1,4.4,3.13c.19.67,1.13,1.01.83,1.9a1.71,1.71,0,0,1-2.22.86c-3.11-2.11-6.66-.98-9.96-1.6a3.394,3.394,0,0,1-1.5-.97,2.268,2.268,0,0,1,.04-2.92h0Z" fill="#fff"/>
        <path id="Path_3837" data-name="Path 3837" d="M153.1,239.69c-.35-.29-.7-.57-1.05-.87.24-1.95,1.78-1.94,3.19-2.13,1.3-.17,2.58-.43,3.89-.51,2.47.22,4.83-1.15,7.33-.49.72.19,1.48.4,1.55,1.29.07.99-1.16.7-1.46,1.36-2.65.9-5.13,2.34-8,2.53-1.4-2.31-4.01.95-5.46-1.18h0Z" fill="#fff"/>
        <path id="Path_3838" data-name="Path 3838" d="M194.84,219.56c-.19-.58-.4-1.16-.59-1.75a3.778,3.778,0,0,1,1.27.63c3.19,3.7,4.03,12.21,1.64,16.14.16-3.28.93-6.62-.96-9.87-.49.75-.97,1.47-1.45,2.19a4.42,4.42,0,0,1-1.19-4.98,5.555,5.555,0,0,1,.58-1.53c.22-.28.46-.56.71-.82h0Z" fill="#fff"/>
        <path id="Path_3839" data-name="Path 3839" d="M110.63,212.92c0-.25,0-.49.01-.73.04-2.34-1.03-4.75.66-6.98.93-1.23,1.76-2.37,3.54-1.61a3.509,3.509,0,0,1,1.24,2.1c-.21,2.92,1.11,6.07-1.3,8.65a1.053,1.053,0,0,1-1.21-.01,3.71,3.71,0,0,0-2.94-1.41h0Z" fill="#fff"/>
        <path id="Path_3840" data-name="Path 3840" d="M147.07,250.11a2.265,2.265,0,0,1,1.51,1.54c-.95,2.03,1.64,2.78,1.62,4.47a5.647,5.647,0,0,0-1.63,2.97,1.328,1.328,0,0,1-1.02.25,3.277,3.277,0,0,1-1.95-2.45,4.847,4.847,0,0,1-.03-5.41c.75-.19.18-1.82,1.51-1.37h0Z" fill="#fff"/>
        <path id="Path_3841" data-name="Path 3841" d="M113.57,214.34c.28,0,.56,0,.84.01a1.4,1.4,0,0,1,1.69-.21,3.175,3.175,0,0,1,.64,3.56c-.65,1.75-.21,3.31.01,4.95a2.179,2.179,0,0,1-2.6,1.87c-1.43-.32-.43-2.07-1.51-2.59-.78-2.66.54-5.07.93-7.6h0Z" fill="#fff"/>
        <path id="Path_3842" data-name="Path 3842" d="M113.65,158.34c0,.23.02.46.04.69-.86,1.92-3.36,1.07-4.44,2.63a2.958,2.958,0,0,1-1.69-.15,1.865,1.865,0,0,1-.8-.82c-.15-1.95-1.31-2.49-3.08-2.24-1.47.22-2.94.4-4.4.6,4.63-3.45,9.51-1.88,14.38-.71h0Z" fill="#fff"/>
        <path id="Path_3843" data-name="Path 3843" d="M145.59,256.89a2.829,2.829,0,0,1,2.18,2.13c.15.95,1.15,1.02,1.64,1.6-.72,1.72-1.87,4.19-3.72,2.89-2.16-1.52-1.79-4.37-.1-6.64h0Z" fill="#fff"/>
        <path id="Path_3844" data-name="Path 3844" d="M112.65,221.93c.53.74,1.05,1.48,1.58,2.22,2.39,3.2,4.42,6.67,7.21,9.57a2.416,2.416,0,0,1,.33,2.42c-.02.25-.04.5-.07.75-5.97-3.2-8.25-8.63-9.05-14.96Z" fill="#fff"/>
        <path id="Path_3845" data-name="Path 3845" d="M149.4,260.63a3.545,3.545,0,0,1-.34.16c-1.01.41-1.84,2.47-2.98,1-1.01-1.32.82-1.98,1.67-2.77.26.02.53.04.79.07,2.28-.08,3.16-2.76,5.4-2.92-1.51,1.48-3.04,2.97-4.55,4.45h0Z" fill="#fff"/>
        <path id="Path_3846" data-name="Path 3846" d="M78.62,189.66c-.49-.01-.98-.03-1.48-.04-.02-3.36-1.33-7.01,2.13-9.59a30.589,30.589,0,0,0-.66,9.63h0Z" fill="#fff"/>
        <path id="Path_3847" data-name="Path 3847" d="M206.06,204.69c.01.28.03.54.04.82a18.829,18.829,0,0,1-9.62,5.92l-1.81-.25a1.645,1.645,0,0,1,.46-1.69c2.95-1.97,6.19-3.45,9.24-5.26.53-.31,1.19.04,1.69.45h0Z" fill="#fff"/>
        <path id="Path_3848" data-name="Path 3848" d="M147.07,250.11c-.5.46-1.01.91-1.51,1.37.07-1.9,1.51-3.04,2.46-4.45.5-.75,1.25-1.37,2.17-.73s.57,1.5.08,2.28a3.878,3.878,0,0,0-3.21,1.54h0Z" fill="#fff"/>
        <path id="Path_3849" data-name="Path 3849" d="M123.16,126.9l-1.33.22a18.056,18.056,0,0,1,5.94-7.48c.48,0,.96-.02,1.44-.03-.13,3.99-2.97,5.74-6.04,7.28h0Z" fill="#fff"/>
        <path id="Path_3850" data-name="Path 3850" d="M109.28,160.65c.6-2.89,2.76-1.55,4.4-1.63,3.95.86,6.04,4.57,9.49,6.18,1.76,1.03,1.6,2.62-.08,2.87a43.8,43.8,0,0,1-14.36-.07c-.63-.11-.86-.84-1.14-1.39-.1-2-4.82-3.34-.84-5.92.25.03.51.05.77.08.6.11,1.29,1.83,1.75-.11h.01Z" fill="#fff"/>
        <path id="Path_3851" data-name="Path 3851" d="M107.6,166.61c4.89,1.48,9.91.54,14.87.64,1.6.03,1.23-1.1.72-2.05.53-.29,1.05-.58,1.58-.87.13-.14.28-.29.41-.43q7.38-.75,7.42-8.5c0-2.97-.02-5.95.03-8.92.02-1.2-.23-2.54,1.2-3.25a1.358,1.358,0,0,1,1.18.46c1.22,7.13.46,14.29.41,21.43a3.17,3.17,0,0,1-3.01,3.22c-3.53.5-7.03,1.16-10.61.87-5.22-.43-10.44,1.07-15.68.11a4.236,4.236,0,0,1-1.71-.54,1.269,1.269,0,0,1-.48-1.23c1.2-.42,2.65.11,3.67-.96h0Z" fill="#fff"/>
        <path id="Path_3852" data-name="Path 3852" d="M103.93,167.57c.04.28.1.57.14.86,2.32,1.7,1.86,4.47,1.58,6.47-.81,5.86.92,11.47.93,17.21.29,1.62.37,3.16-1.54,3.9-2.57-.35-3.11-2.78-4.45-4.38-1.75-2.31-4.1-1.45-6.33-1.19-1.08.25-2.16.71-3.21-.09a2.325,2.325,0,0,1-.53-2.69,1.6,1.6,0,0,1,1.43-.84c1.25-.28,2.48-.57,3.73-.85,1.98-1.68,4.42-1.25,6.72-1.46h0c.84-4.12.14-8.28.37-12.42.07-1.34-.25-2.69.28-4,.29-.18.58-.35.87-.53h0Z" fill="#fff"/>
        <path id="Path_3853" data-name="Path 3853" d="M83.77,188.98a19.229,19.229,0,0,1-2.42-3.2c-.84-1.7.35-2.92,1.7-3.54,2.02-.92,1.48.74,1.84,1.9.74,2.35,1.26-.2,1.94-.27.98,1.07,2.07,2.07,2.39,3.59-.19,3.6-2.77,1.98-4.56,2.1a2.3,2.3,0,0,1-.9-.57h0Z" fill="#fff"/>
        <path id="Path_3854" data-name="Path 3854" d="M89.73,191.98a8.105,8.105,0,0,0-1.31,1.23c-2.72,4.25-3.16,4.28-7.09.34.93.34,1.84.72,2.78.98s1.5.02,1.15-1.11a2.863,2.863,0,0,1-.2-3.1c1.91-.46,3.86-1.04,4.66,1.65h0Z" fill="#fff"/>
        <path id="Path_3855" data-name="Path 3855" d="M103.05,168.1c-.17,5.48.63,10.98-.66,16.41C102.63,179.04,101.68,173.52,103.05,168.1Z" fill="#fff"/>
        <path id="Path_3856" data-name="Path 3856" d="M87.98,187.66a6.591,6.591,0,0,1-1.15-3.8,4.375,4.375,0,0,1,5.11,2.95c-.26.24-.52.47-.78.71-.7.66-1.48.37-2.24.17-.31-.03-.63-.04-.94-.04h0Z" fill="#fff"/>
        <path id="Path_3857" data-name="Path 3857" d="M102.4,184.51c-2.24.48-4.48.98-6.72,1.46,1.07-1.47,3.17-1.87,3.73-3.88,1.58.33,1.39,2.5,2.99,2.42Z" fill="#fff"/>
        <path id="Path_3858" data-name="Path 3858" d="M85.27,190.45v2.98c-1.07-1.29-4.13-1.92-1.5-4.46h.74c.69.26,1.11.66.76,1.47h0Z" fill="#fff"/>
        <path id="Path_3859" data-name="Path 3859" d="M187.4,162.14c-.05,1.04-.98,2.27.66,2.93,2.26.54,4.57.34,6.86.51,1.43.1,2.95,0,3.95,1.38a6.217,6.217,0,0,1,.84,3.9c-.11,8.71.43,17.42,0,26.14-.08,1.6.55,3.61-1.81,4.28a1.815,1.815,0,0,1-1.19-.57,5.079,5.079,0,0,1-.63-3.78c1.22-6.27-.66-12.58.44-18.82a12.921,12.921,0,0,0,.05-4.07c-.44-3.13-1.82-4.47-4.98-4.11-7.3.83-14.47-1.56-21.76-.76-1.18.13-2.6.04-2.63-1.79a.839.839,0,0,1,1.14-.13c4.17,0,8.35-.11,12.52.01,2.83.08,5.19-.14,5.48-3.73.04-.49.72-.93,1.11-1.4h-.03Z" fill="#fff"/>
        <path id="Path_3860" data-name="Path 3860" d="M168.28,167.25c-.33.04-.65.07-.98.1-2.28-.11-1.84-1.91-1.87-3.24-.07-4.28-.1-8.55,0-12.82a4.051,4.051,0,0,1,.28-1.19c.38-.74,1.14-.98,1.81-1.34a2.346,2.346,0,0,1,2.01-.47,5.633,5.633,0,0,1,2.33,2.08c.54,2.25-.7,4.48-.13,6.74-.45.96-.99,1.78-2.27,1.46-.61-.63-1.48-2.26-1.48.22,0,2.81-.35,5.66.29,8.45h0Z" fill="#fff"/>
        <path id="Path_3861" data-name="Path 3861" d="M178.43,154.7c-1.63-.66-2.14.26-2.33,1.65a1.493,1.493,0,0,1-1.63-1.09,16.068,16.068,0,0,0-.65-4.62c.13-1.34,1.19-2.14,1.86-3.17a2.372,2.372,0,0,1,2.07-.28c3.28.8,4.72,3.77,3.64,7.45-1.01-.97-1.98-.26-2.97.06h0Z" fill="#fff"/>
        <path id="Path_3862" data-name="Path 3862" d="M174.7,150.95c1.25,1.16,1,2.57.65,3.99-1.14,1.34.01,2.05.73,2.95.62.78,1.68,1.45.94,2.72-1.9-.21-3.46-3.25-5.78-.56-.37.43-1.4-.66-1.75-1.48.51-.55,1.04-1.1,1.55-1.65.75-1.04-.29-2.19.1-3.13.63-1.51.92-3.76,3.57-2.84h0Z" fill="#fff"/>
        <path id="Path_3863" data-name="Path 3863" d="M177.02,160.61a26.577,26.577,0,0,1-3.26-3.89c-.78-1.38-.81-2.85,1.59-1.79.25.47.51.94.76,1.41a7.221,7.221,0,0,0,3.84,2.82c.51.34,1.16.87.68,1.37-.82.86-1.92.63-2.92.12-.22-.01-.46-.02-.68-.04h0Z" fill="#fff"/>
        <path id="Path_3864" data-name="Path 3864" d="M177.69,160.66c.97-.16,2.38.34,2.25-1.49,1.54.22,3.25-.39,4.59.81a.812.812,0,0,1-.19,1.28c-1.6,1.11-3.34.41-5.01.2a5.482,5.482,0,0,1-1.63-.8h0Z" fill="#fff"/>
        <path id="Path_3865" data-name="Path 3865" d="M177.75,147.19c-.51.26-1.03.52-1.54.78-1.37.31-2.4,2.28-4.13.84-1.09-2.02.84-3.13,1.41-4.65a1.818,1.818,0,0,1,1.09-.3c1.03.11,2.07.22,3.1.34-.99,1.02-.3,2,.07,2.98h0Z" fill="#fff"/>
        <path id="Path_3866" data-name="Path 3866" d="M187.51,154.88a1.027,1.027,0,0,1-1.15,1.08c-.78,0-1.45-.26-1.44-1.19a1.1,1.1,0,0,1,1.14-1.14,1.294,1.294,0,0,1,1.45,1.25Z" fill="#fff"/>
        <path id="Path_3867" data-name="Path 3867" d="M178.43,154.7c.34-1.01.62-2.28,1.88-2.26,1.34.02.96,1.34,1.09,2.2a2.417,2.417,0,0,1-2.97.06Z" fill="#fff"/>
        <path id="Path_3868" data-name="Path 3868" d="M184.17,149.15c-.68,0-1.27-.25-1.37-.94-.13-.91.47-1.34,1.31-1.35a1.1,1.1,0,0,1,1.21,1.1c.02.72-.46,1.08-1.15,1.19Z" fill="#fff"/>
        <path id="Path_3869" data-name="Path 3869" d="M178.48,140.65c-.49.22-.99.45-1.48.67-.67.46-1.71.58-2.07.16-2.04-2.48-5.04-1.78-7.61-2.5a9.029,9.029,0,0,0-5.57-1.82c-1.57-.06-2.67-.6-2.61-2.39-.66-1.57-1.4-.35-1.66.13-1.1,2.07-2.89,2.38-4.93,2.25a5.693,5.693,0,0,1-3.25-1.12c-2.13-3.04-2.21-6.33-1.22-9.74a6.3,6.3,0,0,1,3.09-3.84c2.5.68,5.72.19,6.41,3.88,3.21.44,6.23,3.32,9.68.75,2.36-.21,3.13-3.42,5.8-3.04,1.86-.85,1.84-2.45.27-2.95-3.54-1.14-6.07-5.18-11.45-2.86,2.48-2.42,2.51-2.52,4.44-1.95,6.22,1.81,11.74,4.68,15.09,10.61a10.854,10.854,0,0,0,1.45,1.67c1.28,2.98,2.54,5.98,3.82,8.96.92,2.22-.8,1.76-1.92,1.87-2.13.22-4.48-.67-6.27,1.26h0Z" fill="#fff"/>
        <path id="Path_3870" data-name="Path 3870" d="M123.16,126.9c1.25-3.06,3.56-5.25,6.04-7.28,3.53-1.31,7.02-2.79,10.94-2.28,1.2.16,2.58-.07,2.66,1.75-2.05,2.01-.97,4.72-1.6,7.04.27-1.1.45-2.28,2.06-2.04,1.1.22,3.36-.75,2.51,1.69-1.2,3.4-.7,6.83-.88,10.24-.49,2.28-2.16,1.9-3.76,1.65-1.09-.52-2.12-1.16-3.24-1.65-2.47-1.08-3.7-.37-3.88,2.29-.91,7.14-.63,14.3-.67,21.47,0,1.07-.12,2.01-1.5,2.06-2.1-.91-1.51-3.09-2.19-4.66a4.04,4.04,0,0,0-2.1-4.16c-1.29-1.23-2.8-2.24-3.68-3.89-.5-.94-.78-1.75.19-2.54,1.48-.18,2.35,1.23,3.69,1.42a1.234,1.234,0,0,0,2.06-.59,1.368,1.368,0,0,0-.51-1.92c-.67-.31-1.21-.8-1.86-1.13-1.53-.17-1.7-1.75-2.64-2.53a4.011,4.011,0,0,0-.03-1.1c-1.07-3.32-1.07-5.76,3.6-4.83a1.478,1.478,0,0,0,1.69-1.15,1.648,1.648,0,0,0-1.28-1.97,16.22,16.22,0,0,0-2.52-.46h0c-2.74-.83-3.2-2.95-3.09-5.41h0Z" fill="#fff"/>
        <path id="Path_3871" data-name="Path 3871" d="M141.12,136.36a3.64,3.64,0,0,0,3.78-.37,2.032,2.032,0,0,0,1.03-2.48c-.85-5.33,1.21-9.54,4.93-13.15a1.117,1.117,0,0,1,.64-.32c1.72.01,3.57.52,3.39,2.43-.21,2.15-2.23.24-3.3.82-1.18.69-1.51,2.01-2.22,3.03-1.57,3.38-.65,6.91-.63,10.39a5.131,5.131,0,0,1-2.66,2.53,7.051,7.051,0,0,1-1.08.41,16.57,16.57,0,0,1-5.06-.46,3.224,3.224,0,0,0-3.48,1.39c-.8.9-.63,2.48-2.06,2.92-.2,0-.41,0-.61-.01-.06-2.34-1.88-4.18-1.86-6.54.36-1.28,1.63-1.8,2.36-2.77,1.31-1.72,3.54-1.25,3.95-.06.61,1.72,2.27,1.16,2.9,2.24h0Z" fill="#fff"/>
        <path id="Path_3872" data-name="Path 3872" d="M151.58,123.3c.46-1,2.59.19,2.24-1.48-.27-1.3-1.75-1.4-2.97-1.45,1.7-.9,3.6-1.2,5.32-2.28,3.04-1.92,3.48-1.28,4.04,2.19.46,2.85.07,4.83-2.65,6.06-2-1.01-3.99-2.03-5.99-3.04h0Z" fill="#fff"/>
        <path id="Path_3873" data-name="Path 3873" d="M143.27,124.08c-.89,1.87-.58,3.86-.63,5.8-.02.88-.06,1.92-1.13,2.03-1.25.13-1.72-.93-1.77-1.94-.19-3.95.14-7.8,3.07-10.89.54,1.14-2.34,2.94.69,3.6-.07.46-.16.93-.23,1.4Z" fill="#fff"/>
        <path id="Path_3874" data-name="Path 3874" d="M173.05,124.05c-1.12,2.57-2.48,4.66-5.79,3.04-.72-.77-2.57-.51-2.4-1.84.23-1.77,1.91-.81,2.98-1.03a8.464,8.464,0,0,0,2.31-.9c1.23-.66,2.28-.92,2.9.73h0Z" fill="#fff"/>
        <path id="Path_3875" data-name="Path 3875" d="M197.88,167.35c-2.22-.01-4.45-.08-6.68-.03-1.67.04-2.97-.28-3.16-2.25.23-.29.48-.57.69-.87,4.47-6.85,7.6-7.71,14.77-4.1.55.28,1.11.54,1.67.81a13.419,13.419,0,0,1,4.07,14.54c-.94,3.14,1.51,3.78,2.87,5.32a9.567,9.567,0,0,1-4.97,1.12c2.19,1.67,4.49,2.46,4.73,4.89.16,1.6.38,3.35-1.52,4.09-1.88.73-2-.63-2.51-2.04-.63-1.72-1.78,0-2.71.1a3.3,3.3,0,0,1,1.81-3.34c.45-.22-.04.58-.09.08-.01-.19-.13-.2-.35-.07a8.378,8.378,0,0,0-3.7,4.13,2.549,2.549,0,0,1-2.75,1.87c-1.72-.59-1.06-2.05-1.07-3.16-.06-5.8-.01-11.61-.04-17.41,0-1.3.43-2.78-1.06-3.68Z" fill="#fff"/>
        <path id="Path_3876" data-name="Path 3876" d="M200.84,190.48c1.22-2.17,2.45-4.34,4.7-5.65,2.52-1.47,4.27-.47,5.48,1.84a1.76,1.76,0,0,1-.26,2.39c-1.17.81-1.28-.44-1.8-1.06-1.81-2.14-2.89-.75-3.84.93-2.34,2.05-2.06,4.78-1.9,7.46a1.389,1.389,0,0,0-1.76.99,1.233,1.233,0,0,1-1.22-.48,6.684,6.684,0,0,1,.59-6.42h0Z" fill="#fff"/>
        <path id="Path_3877" data-name="Path 3877" d="M194.97,221.72c-.07,1.72-.15,3.45-.22,5.18-1.07,6.01-4.74,9.83-10.22,12.12-.98.43-1.92.65-2.72-.35a4.074,4.074,0,0,1,.06-2.37,3,3,0,0,1,1.92-2.04c4.78-.98,7.74-5.87,6.98-11.52.94-2.27,2.42-2.24,4.2-1.02h0Z" fill="#fff"/>
        <path id="Path_3878" data-name="Path 3878" d="M160.6,248.69l-1.55-.81c.42-2.31,2.78-2.17,4.16-2.69,2.91-1.09,5.83-2.23,8.77-3.28l.25.04a3.6,3.6,0,0,1,2.35-.82,2.285,2.285,0,0,1,1.81,1.6l-4.62,2.22q-5.58,1.875-11.15,3.73h0Z" fill="#fff"/>
        <path id="Path_3879" data-name="Path 3879" d="M176.37,242.74c-.57-.33-1.13-.66-1.7-.98,1.8-2.68,4.43-3.6,7.52-3.54.78.26,1.56.53,2.34.79-2.35,2.04-5.45,2.46-8.15,3.73h0Z" fill="#fff"/>
        <path id="Path_3880" data-name="Path 3880" d="M150.19,256.12c-2.58-.75-4.05-1.91-1.61-4.48a7.638,7.638,0,0,1,2.97,2.89c-.45.53-.9,1.05-1.35,1.58h0Z" fill="#fff"/>
        <path id="Path_3881" data-name="Path 3881" d="M130.78,156.17c.94,1.64.63,3.45.7,5.2-2.1,1.16-4.1,2.56-6.64,2.54a.837.837,0,0,0-.08.41c-1.88-1.79-4.13-3.23-5.28-5.69-.16-1.54-1.22-3.41,1.85-3.38,2.41.02,1.48-2.29,2.01-3.58,1.09-.76,2.01-.01,2.98.32,2.03.81,2.79,2.98,4.46,4.17h0Z" fill="#fff"/>
        <path id="Path_3882" data-name="Path 3882" d="M125.45,153.22c-.71-.51-1.41-1.03-2.12-1.54-2.4-1.16-.19,4.1-3,2.19-1.71-1.16-1.72-5.92-.19-8.04l.47-.31c2.55,2.13,4.76,4.51,5.8,7.76a.636.636,0,0,1-.97-.05h0Z" fill="#fff"/>
        <path id="Path_3883" data-name="Path 3883" d="M118.57,136.16c3.75,2.12,3.85,6.29,5.45,9.62-1.29,1.04-2.28.61-2.97-.71a10.022,10.022,0,0,0-1.47-2.51c.13-1.52-1.43-2.7-.87-4.31-.04-.7-.1-1.4-.14-2.1Z" fill="#fff"/>
        <path id="Path_3884" data-name="Path 3884" d="M118.71,138.25c.87,1.13,2.44,2.1.9,3.81.81,1.07,1.84,2.09.82,3.57l-.28.19a9.148,9.148,0,0,1-1.44-7.57Z" fill="#fff"/>
        <path id="Path_3885" data-name="Path 3885" d="M168.02,138.25c2.19-1.85,5.58-.16,7.65-2.62.33-.39,1.37.33,1.67,1.07a1.6,1.6,0,0,1-.83,2.16c-.65.38-2.02.08-1.69,1.41.25.99,1.38.81,2.17,1.05-.87.78-2.94.43-2.4,2.54-.17.13-.35.25-.53.37-.7.54-1.14,1.47-2.18,1.55-3.96-.68-2.73,2.45-3.17,4.35-.09.54.03,1.35-.71,1.37-.72.01-.66-.81-.81-1.34-1.82-3.81-1.25-7.71-.43-11.63a.994.994,0,0,1,1.25-.28h0Z" fill="#fff"/>
        <path id="Path_3886" data-name="Path 3886" d="M178.48,140.65c1.01-1.62,2.65-1.6,4.28-1.64,1.48-.03,3.04.13,3.91-1.49,1.22,1.98-.34,2.1-1.58,2.16a22.962,22.962,0,0,0-6.6.96h0Z" fill="#fff"/>
        <path id="Path_3887" data-name="Path 3887" d="M171.97,241.93c-2.39,2.89-6.23,2.69-9.22,4.3-1.19.64-2.46,1.12-3.7,1.67-1.73,0-2.93,2.89-5.03.92,4.45-2.9,9.52-4.42,14.39-6.42a4.92,4.92,0,0,1,3.57-.46h0Z" fill="#fff"/>
        <path id="Path_3888" data-name="Path 3888" d="M176.15,236.67c-.49-.25-.99-.51-1.48-.76a1.252,1.252,0,0,1,.53-1.61c2.96-1.37,5.6-3.4,8.76-4.36,1.9.66,3.62,1.4,2.17,3.91-3.1.11-5.19,3.28-8.48,2.84-.5,0-.99-.01-1.49-.01h0Z" fill="#fff"/>
        <path id="Path_3889" data-name="Path 3889" d="M182.19,238.22q-3.765,1.77-7.51,3.54l-2.45.21c1.46-2.81,4.95-2.52,6.93-4.54,1.1-1.17,2.22-2.25,3.91-.9-.29.56-.58,1.13-.88,1.69h0Z" fill="#fff"/>
        <path id="Path_3890" data-name="Path 3890" d="M183.07,236.52l-3.9.9c-.51-.25-1.01-.49-1.51-.74,1.6-1.04,3.19-2.12,4.82-3.13.86-.53,1.82-1.55,2.6.13.17.75-.27,1.18-.8,1.57-.4.43-.81.84-1.21,1.27h0Z" fill="#fff"/>
        <path id="Path_3891" data-name="Path 3891" d="M200.86,197.18a5.262,5.262,0,0,1,.6.19,9.107,9.107,0,0,0,3.42,4.6c.95.72,1.7,1.4,1.17,2.71a32.256,32.256,0,0,1-11.39,6.5c-.31-.13-.63-.25-.95-.38-2.6.83-4.28-1.01-6.23-2.09-1.88-1.54-3.82-3.01-5.76-4.49-2.05-1.56-1.84-2.32.85-3.63,4.51,0,9.01-.24,13.51.13,4.05,1.7,2.51-1.6,2.84-3.2.13-.65-.3-1.64.65-1.82.98-.19.7,1.09,1.26,1.48h0Z" fill="#fff"/>
        <path id="Path_3892" data-name="Path 3892" d="M181.44,211.4c-2.51,1.03-5.47.88-7.63,2.87-.7,2.45-2.86,3.04-4.82,2.99-2.42-.05-2.48-2.54-2.69-4.22a54.773,54.773,0,0,1-.08-9.92c.16-2.99,2.33-3.38,4.74-3.29,3.84.63,7.61,1.43,10.52,4.34C184.05,207.33,184.05,209.79,181.44,211.4Z" fill="#fff"/>
        <path id="Path_3893" data-name="Path 3893" d="M171.47,200.99c-3.02-.23-4.28,1.07-4,4.16.22,2.46-.03,4.96.13,7.43.25,3.87.69,4.09,4.17,2.57.68-.3,1.36-.6,2.04-.89l2.4.81a4.2,4.2,0,0,1-.65,2.58c-1.86,1.73-4.75,2.33-5.61,5.16a18.116,18.116,0,0,0-1.57,5.89c-.03,1.13-.23,2.18-1.54,2.57a2.05,2.05,0,0,1-1.26-.22,2.313,2.313,0,0,1-.78-1.07c-.12-.44-.25-.87-.4-1.31,1.8-8.19.73-16.5.98-24.75.06-2.05.03-4.04,2.54-4.75,2.14.26,4.78-1.42,6.21,1.59a2.356,2.356,0,0,1-2.66.2h0Z" fill="#fff"/>
        <path id="Path_3894" data-name="Path 3894" d="M188.21,207.6c2.51-.1,3.26,2.84,5.51,3.2a9.685,9.685,0,0,1-8.57.5c-1.57-.89-1.72-1.91-.28-3.07,1.01-.74,2.39.45,3.34-.63h0Z" fill="#fff"/>
        <path id="Path_3895" data-name="Path 3895" d="M186,209.07c-1.16.41-1.28,1.22-.84,2.24l-3.72.09c.07-.1.22-.28.19-.3-1.47-1.75,0-3.96-.89-5.8,3.15-.69,4.52,1.09,5.25,3.77h0Z" fill="#fff"/>
        <path id="Path_3896" data-name="Path 3896" d="M174.5,216.48c.57-.46,1.14-.93,1.71-1.39,1.74,0,3.48-.01,5.22-.02l.75,2.28c-.77,1.29-2.02,1.07-3.22,1.07-1.49-.61-3.69.34-4.45-1.94Z" fill="#fff"/>
        <path id="Path_3897" data-name="Path 3897" d="M183.69,230.76c-2.66,2.31-6.07,3.33-9.01,5.16-.94.3-1.88.59-2.82.89-.79.37-1.93.6-2.25-.13-.65-1.54.54-2.58,1.6-3.54,4.05-1.45,7.66-3.78,11.45-5.79,1.72-1.16,3.05-1.24,3.51,1.22-.04,1.6-1.02,2.16-2.47,2.19h0Z" fill="#fff"/>
        <path id="Path_3898" data-name="Path 3898" d="M172.5,234.52c.1.85-3.27.7-.66,2.28-1.77.51-3.53,1.02-5.3,1.54,1.04-2.33-.78-1.62-1.57-1.28a11.825,11.825,0,0,1-6.02,1.09c2.51-3.38,6.46-3.66,10.07-4.69,1.39-.4,2.66-.44,3.48,1.05h0Z" fill="#fff"/>
        <path id="Path_3899" data-name="Path 3899" d="M126.26,132.31c.4.81,2.34,1.23.9,2.48a1.64,1.64,0,0,1-2.46-.78c-.66-1.47.66-1.47,1.56-1.7Z" fill="#fff"/>
        <path id="Path_3900" data-name="Path 3900" d="M94.29,189.06c1.92-1.09,4.09-.84,6.15-1.17a2.077,2.077,0,0,1,2.69,1.84,6.211,6.211,0,0,0,.87,6.58,2.319,2.319,0,0,1,.04.98c-.34,1.5-2.96,1.59-2.29,3.72,1.24,1.53,2.31,3.17,3.45,4.78,1.07.85,2.5,1.04,3.56,1.82,1.46,1.09,3.56,2.22,1.12,4.39-2.57.42-5.13.9-7.74.25-2.79-.69-5.1-1.92-5.83-5.01a2.944,2.944,0,0,0-1.6-2.37c-2.22-.8-1.61-2.42-1.31-3.99-.7-.82.6-2.06-.57-2.79-1.78.62-1.4,3.54-3.78,3.54-2.15-2.76-1.45-4.95,1.35-6.72,3.12-.72,2-4.29,3.9-5.83h-.01Z" fill="#fff"/>
        <path id="Path_3901" data-name="Path 3901" d="M109.87,211.99c.64-2.13-1.16-2.21-2.35-2.87-1.25-.69-2.42-1.51-3.63-2.28a2.641,2.641,0,0,0-.23-2.78,1.905,1.905,0,0,1,.37-2.9c3.01-2.1,6.41-1.43,9.65-1.18,2.24.17,2.37,1.5.57,3.82-1.31,1.98-2.89,3.85-2.17,6.56.26.98-.73,1.4-1.45,1.84-.26-.07-.52-.13-.78-.2h0Z" fill="#fff"/>
        <path id="Path_3902" data-name="Path 3902" d="M92.82,198.08c.74-.58,1.82-1.9,2.39-1.07,1.24,1.83-1.15,2.56-1.82,3.86C90.38,200.51,93.32,198.95,92.82,198.08Z" fill="#fff"/>
        <path id="Path_3903" data-name="Path 3903" d="M172.5,234.52a103.987,103.987,0,0,0-13.54,3.63c-2.31.22-4.61.45-6.92.67-7.13,3.02-14.25,3.72-21.59.57-2.83-1.21-5.93-1.78-8.69-3.25-3.83-3.17-7.29-6.57-7.54-12,.26-.75.72-1.14,1.56-.85a1.861,1.861,0,0,1,1.54.48c3.58,5.89,9.27,7.27,15.6,7.25,7.54.43,15.09,0,22.64.07,3.51.03,6.99,1.48,10.52.19a1.976,1.976,0,0,0,1.78-1.63c.91-1.69,2.54-2.49,4.13-3.36,2.89-1.48,5.8-2.75,9.05-1.01,1.07.8,3.1,1.04,1.76,3.18-2.82,3.07-6.65,4.43-10.31,6.07h0Z" fill="#fff"/>
        <path id="Path_3904" data-name="Path 3904" d="M94.29,189.06c.72,3.3-.87,5.05-3.9,5.83.37-.83,1.65-1.22,1.42-2.26-.25-1.13-1.41-.33-2.08-.66-1.48-.51-2.98-1.01-4.46-1.53-.25-.49-.51-.98-.76-1.47.45-2.31,2.92.69,3.48-1.32.11-.07.23-.15.34-.23,1.85-.32,1.91,1.61,2.93,2.34,1.01-.23,2.02-.47,3.04-.7Z" fill="#fff"/>
        <path id="Path_3905" data-name="Path 3905" d="M120.43,145.64a6.735,6.735,0,0,1-.82-3.57c2.37.18,1.92,3.69,4.41,3.72.01.26.03.53.04.79.29,2.84,2.71,4.09,4.4,5.88-.21,1.84-1.3,1.05-2.22.75a26.61,26.61,0,0,1-5.81-7.56h0Z" fill="#fff"/>
        <path id="Path_3906" data-name="Path 3906" d="M127.44,144.35a6.1,6.1,0,0,1,.74-.02c1.1.13,1.22-2.37,2.6-1.07,1.07,1,.34,2.32.02,3.48-.46,1.67-1.46,2.19-3.04,1.26,2.97-1.48,0-2.45-.31-3.64h0Z" fill="#fff"/>
        <path id="Path_3907" data-name="Path 3907" d="M178.46,217.33c1.24,0,2.48,0,3.72.01.43.02.87.05,1.3.07,1.29.52,2.4,1.51,4.02.37a2.774,2.774,0,0,1,3.06.4,1.262,1.262,0,0,1-.02,1.09c-2.13,1.28-3.05,4.35-6.16,4.19-1.59-1.2-3.5-1.64-5.31-2.34-2.09-.8-3.22-2.09-.6-3.8h0Z" fill="#fff"/>
        <path id="Path_3908" data-name="Path 3908" d="M190.48,218.64c-2.16-1.36-5.08,1.53-7.01-1.23,4.16-1.24,7.68.86,11.37,2.14,0,.24.01.48.01.72-2.02.97-3.99,1.81-4.38-1.63h0Z" fill="#fff"/>
        <path id="Path_3909" data-name="Path 3909" d="M190.48,218.64c1.04,1.67,2.71,1.65,4.38,1.63.04.48.07.97.11,1.45-1.62.05-2.94.49-3.13,2.4-.47.84-.38,2.01-1.46,2.51-2.23.99-3.12-.04-3.29-2.17-.22-2.57,1.89-3.76,3.19-5.43.07-.13.15-.26.22-.39h0Z" fill="#fff"/>
        <path id="Path_3910" data-name="Path 3910" d="M114.27,203.8c.49-1.75.27-2.78-1.98-2.76-2.88.02-5.71.04-8.33,1.43-3.14,1.78-4.87,1.03-5.36-2.33,1.08-1.6,3.01-1.96,4.48-3.01,3.15,1.26,6.45,1.25,9.77,1.23,2.09-.01,4.23-.06,5.72,1.84a2.867,2.867,0,0,1,.48,1.12,4.1,4.1,0,0,1-1.57,3.88,3.071,3.071,0,0,1-2.41.19c-.27-.53-.53-1.06-.8-1.6h0Z" fill="#fff"/>
        <path id="Path_3911" data-name="Path 3911" d="M115.07,205.39c.5-.25.99-.5,1.49-.75a1.754,1.754,0,0,1,.98,2.42c-.84,1.79.16,3.15.85,4.61-.04,1.62-.5,2.87-2.48,2.72-.5-.01-1-.02-1.51-.04.96-2.93.29-5.98.66-8.96Z" fill="#fff"/>
        <path id="Path_3912" data-name="Path 3912" d="M115.92,214.39a6.11,6.11,0,0,0,1.36-3.03c-1.07-2.83.81-4.48,2.55-6.07a11.156,11.156,0,0,1,6.57-3.2c3.01.38,3.07,2.23,2.27,4.51-2.98,2.88-6.98,4.9-8.02,9.43-1.13,2.18-2.25,4.35-1.79,6.94-.54.86-1.13,1.58-2.31,1.06-.25-.25-.51-.49-.76-.74-1.48-2.99.07-5.94.13-8.91h0Z" fill="#fff"/>
        <path id="Path_3913" data-name="Path 3913" d="M109.28,160.65c1.76.78,3.14,1.88,3.12,4,0,.29-.75.89-.98.81a5.1,5.1,0,0,1-3.89-4.71c.58-.04,1.17-.07,1.75-.11h0Z" fill="#fff"/>
        <path id="Path_3914" data-name="Path 3914" d="M124.84,163.93c.1-.07.25-.13.28-.24q1.845-4.845,6.36-2.31c1.65-.86,1.45-2.42,1.43-3.87-.09-6.93.74-13.94-1.45-20.72a.512.512,0,0,1,.81.03,27.8,27.8,0,0,1,1.48,6.69c-.04,5.69-.1,11.37-.14,17.06-.04,5.63-1.9,6.74-7.17,4.29-.56-.26-1.07-.61-1.61-.92h0Z" fill="#fff"/>
        <path id="Path_3915" data-name="Path 3915" d="M91.26,189.76c-1.81.27-2.31-1.12-2.93-2.34.07-.59-.06-1.4.66-1.57,1.3-.31,1.41,1.15,2.18,1.67a2.523,2.523,0,0,1,.1,2.24h0Z" fill="#fff"/>
        <path id="Path_3916" data-name="Path 3916" d="M104.61,195.65c-.46.31-.93.6-1.38.91-2.04-2.25-1.16-4.54-.09-6.83a10.259,10.259,0,0,0,1.47,5.92Z" fill="#fff"/>
        <path id="Path_3917" data-name="Path 3917" d="M174.26,200.78c2.77,1.48,5.2-.83,7.93-.67,4.94.28,9.91.04,14.87.02l.09.84c-.19.1-.4.19-.59.28-4.79.19-9.59-.19-14.38.21-1.63.72-.87,1.28.08,1.94,2.01,1.37,3.97,2.81,5.95,4.21.35.84,1.83,1.66.96,2.46-1.18,1.09-2.08-.67-3.18-1q-2.625-1.875-5.25-3.77c-2.44-2.83-6.03-3.19-9.27-4.31.93-.07,1.86-.14,2.79-.22h-.01Z" fill="#fff"/>
        <path id="Path_3918" data-name="Path 3918" d="M200.86,197.18c-2.25-1.11-1.34.9-1.51,1.63-.31,1.36,0,3.09-2.28,2.78-.53-.28-.51-.48.07-.63h0a2.653,2.653,0,0,0,1.45-2.75c.04-9.36.1-18.71.07-28.06a10.546,10.546,0,0,0-.8-2.8c1.72,1.03,1.43,2.75,1.43,4.33.03,5.21-.04,10.42.05,15.62.02,1.17-.75,2.93,1.47,3.17,0,2.23.01,4.47.02,6.7h0Z" fill="#fff"/>
        <path id="Path_3919" data-name="Path 3919" d="M158.39,132.62a25.772,25.772,0,0,1,2.65-1.27c.99-.37,2.33-1.1,2.83.4.48,1.45-.98,1.7-1.99,2.08-.46.17-.91.37-1.37.54-.46.71-1.78,1.61.16,1.97a35.148,35.148,0,0,0,4.36.08c1.16.06,2.58-.06,2.22,1.87-.01,3.95-.03,7.91-.04,11.86a5.061,5.061,0,0,1-.68.05q0-3.345-.01-6.69c-.02-5.86-.31-6.17-6.01-6.08" fill="#fff"/>
        <path id="Path_3920" data-name="Path 3920" d="M172.36,148.63c1.23-.54,2.35-1.74,3.86-.66.44,1.48-.44,2.28-1.52,2.98-2.63,1.13-1.97,4.28-3.67,5.97-1.45-2.22-.11-4.49-.14-6.74-.45-1.4,0-1.97,1.47-1.56h0Z" fill="#fff"/>
        <path id="Path_3921" data-name="Path 3921" d="M168.71,150.12a6.344,6.344,0,0,1-.66-3.98c.07-1.31-.68-3.31.67-3.72,1.46-.46,2.39,1.31,3.07,2.64.44,2-.51,3.09-2.35,3.6-.25.49-.49.98-.73,1.47h0Z" fill="#fff"/>
        <path id="Path_3922" data-name="Path 3922" d="M169.44,148.65c.78-1.2,1.57-2.4,2.35-3.6.75-.28,1.51-.55,2.26-.84.16,1.75-1.16,2.92-1.7,4.4a2.066,2.066,0,0,0-1.47,1.56c-2.22,1.12-.98-1.01-1.45-1.54h0Z" fill="#fff"/>
        <path id="Path_3923" data-name="Path 3923" d="M150.3,135.4c-.1,1.69-1.16,1.56-2.32,1.23-.22-3.53-.78-7.1,1.38-10.31.07,3.05-1.33,6.25.94,9.07h0Z" fill="#fff"/>
        <path id="Path_3924" data-name="Path 3924" d="M167.24,138.3c-1.58-2.57-4.16-1.51-6.38-1.75-.69-.07-1.67.17-1.82-.76-.13-.88.78-1.12,1.45-1.4.13,2.19,1.84,1.51,3.04,1.6,1.84.13,3.78-.07,4.48,2.27-.26.01-.52.03-.78.04h0Z" fill="#fff"/>
        <path id="Path_3925" data-name="Path 3925" d="M132.29,136.81q-.405,0-.81-.03c3.07-5.54,4.35-5.6,9.65-.42-.72-.08-1.84.1-2.09-.28-2.79-4.23-4.66-.9-6.74.72h0Z" fill="#fff"/>
        <path id="Path_3926" data-name="Path 3926" d="M126.25,153.2l2.22-.75a4.205,4.205,0,0,1,2.31,3.72c-2.63.55-3.2-2.6-5.33-2.95.26,0,.53-.01.8-.03h0Z" fill="#fff"/>
        <path id="Path_3927" data-name="Path 3927" d="M128.44,128.46c0,.95-.71,1.2-1.44,1.31a1.268,1.268,0,0,1-1.61-1.05c-.13-.91.56-1.28,1.35-1.31a1.544,1.544,0,0,1,1.7,1.06Z" fill="#fff"/>
        <path id="Path_3928" data-name="Path 3928" d="M132.69,123.61a1.491,1.491,0,0,1-1.26-1.6c.04-.69.43-1.24,1.16-1.17.9.09,1.16.84,1.2,1.62a.968.968,0,0,1-1.11,1.15h0Z" fill="#fff"/>
        <path id="Path_3929" data-name="Path 3929" d="M206.26,168.34c-1.88,1.2-2.17,3.73-3.9,5.24-.52.46-1.1.28-1.4-.51-.51-1.35,2.47-5.95,3.96-6.04.71-.04,1.12.33,1.34,1.3h0Z" fill="#fff"/>
        <path id="Path_3930" data-name="Path 3930" d="M190.33,225.49a2.146,2.146,0,0,1,1.51-1.37c1.74,5.3-1.77,10.46-7.57,11.13.27-.52.53-1.04.8-1.57,1.48-1.9-.69-2.07-1.38-2.93.53-.72,1.06-1.43,1.59-2.15a4.931,4.931,0,0,0,.48-.91c.14-1.02-.6-2.36.79-2.94,1.42-.59.97,1,1.5,1.46,1.12.97,1.73.16,2.28-.73Z" fill="#fff"/>
        <path id="Path_3931" data-name="Path 3931" d="M197.15,200.96c-.02.21-.04.43-.07.63q-7.44-.06-14.89-.14c4.95-1.19,9.98-.34,14.97-.49Z" fill="#fff"/>
        <path id="Path_3932" data-name="Path 3932" d="M178.46,217.33c-.69,1.72.37,1.95,1.7,2.45,1.5.57,3.97-.04,4.14,2.67a3.813,3.813,0,0,1-.25,1.06,2.318,2.318,0,0,1-2.51,1.61c-2.39-.44-4.76-1.41-7.15.17-.95.63-2.4.68-1.92,2.38-.79,2.01-2.98,1.44-4.36,2.35a21.714,21.714,0,0,1-.13-9.01c1.63-2.3,4.35-3.04,6.54-4.54,1.31.31,2.96-.98,3.95.85h0Z" fill="#fff"/>
        <path id="Path_3933" data-name="Path 3933" d="M166.54,231.56c-1.14.73-2.29,1.45-3.42,2.19-1.41.92-2.78,1.94-3.92-.37a1.675,1.675,0,0,0-1.11-.87c-4.93-.22-9.97-.93-14.75.29-1.87.48-2.95,1-4.83-.08-1.44-.82-3.62-.34-5.48-.44-.28-2.27,1.68-1.78,2.83-2.31.41,0,.82.02,1.22.04,3.25,1.13,6.61.74,9.93.7,5.81-.07,11.62.32,17.43-.05a2.228,2.228,0,0,1,1.2-.07c.3.05.59.1.89.16.43.26.44.53.02.81h0Z" fill="#fff"/>
        <path id="Path_3934" data-name="Path 3934" d="M166.54,231.56c0-.27-.01-.54-.02-.81,1.82-3.05-.15-6.66,1.44-9.74.04,3.01.09,6.01.13,9.01a2.62,2.62,0,0,1-1.55,1.54h0Z" fill="#fff"/>
        <path id="Path_3935" data-name="Path 3935" d="M181.49,223.94c.75-.45,1.49-.9,2.25-1.34,1.12.88,2.25,1.75,2.53,3.28-.1.87.33,1.8-.37,2.57-.2.06-.41.1-.61.15-.72-1.63-1.62-.46-2.46-.15-.26-1.19-1.4-1.47-2.19-2.12a2.53,2.53,0,0,1,.87-2.39h0Z" fill="#fff"/>
        <path id="Path_3936" data-name="Path 3936" d="M98.61,200.14c.97,2.65,2.84,3.23,5.36,2.33-.1,1.45,3.84,2.98-.07,4.37a4.975,4.975,0,0,0-3.55-3.2c-1.6-.41-2.86-1.49-1.73-3.49h0Z" fill="#fff"/>
        <path id="Path_3937" data-name="Path 3937" d="M135.99,230.8c-.99.49-1.98.99-2.97,1.48a17.491,17.491,0,0,1-15.25-5.73,3.2,3.2,0,0,1-1.22-2.52c.54-.51,1.07-1.04,1.6-1.55a1.858,1.858,0,0,1,.93-.43c1.95.27,1.55,2.59,2.93,3.35,3.63,2.27,7.23,4.6,11.78,2.51,1.34.5,1.68,1.76,2.19,2.89h0Z" fill="#fff"/>
        <path id="Path_3938" data-name="Path 3938" d="M181.49,223.94c.37,1.04.32,1.92-.87,2.39-3.02-1.38-5.65-.38-8.16,1.34-.92-.08-2.19.51-2.6-.68-.47-1.35.94-1.45,1.75-1.87,3.14-1.69,6.39-2.54,9.89-1.17h0Z" fill="#fff"/>
        <path id="Path_3939" data-name="Path 3939" d="M185.82,225.37a2.839,2.839,0,0,1-2.09-2.77,2.751,2.751,0,0,1,.56-.16c2.08-.99,3.4-3.3,5.98-3.42-.08,2-1.22,3.54-2.25,5.12a6.747,6.747,0,0,0-2.21,1.22h0Z" fill="#fff"/>
        <path id="Path_3940" data-name="Path 3940" d="M185.82,225.37a1.791,1.791,0,0,1,2.21-1.22c.24,1.36.81,2.14,2.31,1.34-.19.92-1.04,2.05-1.6,1.56-2.4-2.12-2.02.75-2.84,1.4-.02-1.03-.04-2.05-.07-3.08h0Z" fill="#fff"/>
        <path id="Path_3941" data-name="Path 3941" d="M126.24,203.19a20.918,20.918,0,0,0-8.97,8.18c-2.97-1.95-.82-4.45-.72-6.72-.16-1.32.87-1.99,1.55-2.85,2.43-1.44,5.29-.98,7.87-1.75,2.11.88,2.85,1.87.25,3.14h0Z" fill="#fff"/>
        <path id="Path_3942" data-name="Path 3942" d="M126.27,200.96c-2.65.98-5.45.48-8.16.84-.01-.25-.03-.51-.04-.77,1.19-1.08,2.78-.87,4.17-1.32,2.02.27,4.09-.6,6.1.2a.911.911,0,0,1,.25,1.1,2.087,2.087,0,0,1-2.31-.05h0Z" fill="#fff"/>
        <path id="Path_3943" data-name="Path 3943" d="M118.77,215.04a16.893,16.893,0,0,1,8.08-8.95c.86-.46,1.81-.89,1.75-2.09-.15-2.71,1.45-3.31,3.72-3.16,2.69,2.54,2.57,7.74-.37,9.85a35.4,35.4,0,0,0-7.74,7.17,7.783,7.783,0,0,1-1.43,1.26,3.338,3.338,0,0,1-3.68.27c-1.1-1.37-.8-2.86-.33-4.35h0Z" fill="#fff"/>
        <path id="Path_3944" data-name="Path 3944" d="M118.77,215.04a6.525,6.525,0,0,0,.84,3.84,1.87,1.87,0,0,0,.59.4c1.66.4,3.24,1.12,2.39,3.12-1.14,2.68-2.47-.04-3.73-.12l-.71.21c-1.05-2.58-.51-5.04.62-7.44h0Z" fill="#fff"/>
        <path id="Path_3945" data-name="Path 3945" d="M132.7,201.61c-3.28-.25-3.1,4.02-5.85,4.48.98-1.22,1.95-2.44-.62-2.91a1.37,1.37,0,0,0,.03-2.23c.74,0,1.48-.02,2.22-.03,1.58-.86,3.11-1.4,4.22.69Z" fill="#fff"/>
        <path id="Path_3946" data-name="Path 3946" d="M132.7,201.61c-1.31-.81-2.84-.3-4.22-.69,0-.21,0-.42-.02-.63a5.305,5.305,0,0,1,4.49-.15,3.441,3.441,0,0,0,.63.1,1.851,1.851,0,0,1,1.23,2.04c-.13,7.04.11,14.07-.07,21.11a1.258,1.258,0,0,1-.58.89c-2.13.42-2.02-1.22-2.23-2.51a20.317,20.317,0,0,1-.08-2.21c-.06-1.08.24-2.44-.9-3.02-1.38-.71-2.21.62-3.14,1.35a5.586,5.586,0,0,1-1.79,1.28c-1.28-.18-3.61,1.15-2.86-1.97a13.519,13.519,0,0,1,5.72-5.5c4.73-2.24,4.68-5.92,3.81-10.08v-.02Z" fill="#fff"/>
        <path id="Path_3947" data-name="Path 3947" d="M133.62,227.08c.07.46.13.91.19,1.37-1.76,2.84-4.28,2.65-6.81,1.46a21.881,21.881,0,0,1-5.99-3.62c-.57-3.21,1.88-2.29,3.48-2.55,2.77,1.87,6.55.98,9.13,3.34Z" fill="#fff"/>
        <path id="Path_3948" data-name="Path 3948" d="M124.74,224.79c-1.43.02-2.98-.22-3.73,1.49-1.6-.87-1.25-2.77-2.15-4.01.81-.64,2.17.99,2.59-.39.43-1.4-1.61-1.75-1.84-3.01.96-.28,1.92-.56,2.87-.84,1.36,1.71,1.2,4.12,2.67,5.78a1.31,1.31,0,0,1-.43.98h0Z" fill="#fff"/>
        <path id="Path_3949" data-name="Path 3949" d="M124.61,224.13c-2.69-1.34-1.98-3.86-2.11-6.09l.69-.84c.7,1.51,1.57.48,2.38.16,2.22,2.22.51,4.51.14,6.78a.848.848,0,0,1-1.1,0h0Z" fill="#fff"/>
        <path id="Path_3950" data-name="Path 3950" d="M125.74,223.89c-1.34-2.15-1.08-4.33-.18-6.54,1.73-1.4,3.42-2.85,5.22-4.16,1.6-1.18,2.87-1.03,2.84,1.31-.04,3.2.48,6.45-.58,9.59l-.06-.04c-2.46,2.45-4.85,1.38-7.23-.15Z" fill="#fff"/>
        <path id="Path_3951" data-name="Path 3951" d="M125.74,223.89l7.23.15c.22,1.01.43,2.02.64,3.04-3.09-.26-6.44.51-8.88-2.28-.04-.22-.08-.45-.13-.67.38-.07.75-.16,1.13-.23h0Z" fill="#fff"/>
      </g>
      <g id="Group_176" data-name="Group 176">
        <path id="Path_3954" data-name="Path 3954" d="M161.43,51.38H139.35V68.95H121.77V91.03h17.58v17.58h22.08V91.03H179V68.95H161.43Z" fill="#fff"/>
        <path id="Path_3955" data-name="Path 3955" d="M237.8,133.64V116.06H215.73v17.58H198.15v22.08h17.58v17.57H237.8V155.72h17.58V133.64Z" fill="#fff"/>
        <path id="Path_3956" data-name="Path 3956" d="M93.76,110.92H71.69V128.5H54.11v22.07H71.69v17.58H93.76V150.57h17.58V128.5H93.76Z" fill="#fff"/>
      </g>
    </g>
    <g id="Layer_1-2-2" data-name="Layer_1-2" transform="translate(-54.11 -51.38)" opacity="0.59">
      <g id="Group_174-2" data-name="Group 174">
        <path id="Path_3811-2" data-name="Path 3811" d="M79.27,180.03c1.23-1.51,2.45-3.01,3.69-4.52a18.113,18.113,0,0,0,2.35-1.81c1.68-1.17,3.31-2.09,4.07,1.03.6,2.51,2.69,3.13,4.85,3.25-1.11-.73-1.07-2.24-1.81-3.33-1.13-5.19-.96-9.98,3.92-13.42.78-1.01,1.51-2.06,2.94-2.19,1.86-.4,3.51-1.54,5.54-1.39,1.4.1,2.67.18,3.07,1.84-1.84,2.72.68,5.1.63,7.68-.54,1.27-1.93,1.54-2.81,2.41a6.6,6.6,0,0,1-.88,1.34c-1.94,2.2-1.12,4.89-1.28,7.39-.12,1.83.07,3.67-.11,5.5a2.578,2.578,0,0,1-.43.99c-2.49.5-4.69,1.94-7.21,2.34-1.18.25-2.28.93-3.56.64-1.57-.47-2.75-2.05-4.64-1.6-.68.22-1.31.75-2.01.66-2.89-.36-.48,1.32-.78,1.95-.37,1.96,1.41,3.02,1.97,4.6-1.25,3.13-1.53,3.18-5.34.76a8.505,8.505,0,0,1-3.6-4.85c-.04-3.18-.48-6.41,1.45-9.27h0Z" fill="#050505"/>
        <path id="Path_3812-2" data-name="Path 3812" d="M190.33,143.54c.75.99,1.48,1.99,2.23,2.98,3.07,5.37,2.63,9.3-1.64,13.2a11.175,11.175,0,0,0-2.81,3.89c-1.01,3.78-3.35,5.38-7.33,4.89-4.34-.52-8.79.69-13.09-.71-1.5-3.31-.72-6.77-.57-10.16.07-1.54,1.19-2.07,2.65-1.22,2.46,1.04,5.72-.06,7.57,2.73a5.221,5.221,0,0,0,.8.6,3.045,3.045,0,0,0,1.37.48,3.325,3.325,0,0,0-.42-.07,6.792,6.792,0,0,1-3.95-3.94c-.02-1.78.4-3.21,2.52-3.36.66-.1,1.43.54,1.95-.33-.1-2.21-1.44-3.67-2.88-5.08-1.6-1.85-.93-3.36.72-4.7,4.45-2.1,8.77-2.21,12.9.78h0Z" fill="#040404"/>
        <path id="Path_3813-2" data-name="Path 3813" d="M171.74,116.65a28.739,28.739,0,0,1,11.21,10.42,1.508,1.508,0,0,1,.24,1.5c-1.27,1.04-2.26.46-3.16-.55a9.789,9.789,0,0,1-.63-.91,35.256,35.256,0,0,0-11.18-9.73c1.59.67,3.3,2.04,5.45,2.66a2.968,2.968,0,0,1,2.08,2.8,2.272,2.272,0,0,1-2.34,2.35c-2.78-.67-4.43.81-5.71,3.01-2.5,2.1-6.79,1.77-10.46-.79-.78-1.57.78-2.69.84-4.13.06-1.73.25-3.52-2.41-2.28-1.37.63-2.91.19-4.25.83-3.43,3.27-5.4,7-4.25,11.94.42,1.8-.47,2.81-2.42,2.68-1.74-.88-1.34-2.46-1.26-3.92.15-2.81,1.4-5.75-.94-8.28a3.955,3.955,0,0,1-.1-1.81c1.52-4.92,6.33-8.01,13.41-8.36,5.46-.28,10.89-.1,15.89,2.58h0Z" fill="#0b0b0b"/>
        <path id="Path_3814-2" data-name="Path 3814" d="M215.75,183.74a13.026,13.026,0,0,1-1.59,14.86l-.57.48c-5.54,4.31-8.14,3.69-11.52-2.73-.28-2.83-.13-5.56,1.58-7.98,1.48-2.3,3.71-1.87,6.04-1.43-.96-2.07-4.17-2.98-3.04-5.55.96-2.19,3.41-1.21,5.28-1.29a12.787,12.787,0,0,1,3.81,3.66h0Z" fill="#040404"/>
        <path id="Path_3815-2" data-name="Path 3815" d="M197.16,234.57c-.94,2.87-3.22,4.63-5.35,6.51-4.95,3.62-10.85,4.65-16.61,6.04-1.65-.4-4.49,1.67-4.46-2.16.91-2.06,3.37-1.81,4.75-3.16,2.66-1.56,6.07-1.51,8.34-3.92,1.86-1.44,4.2-1.99,5.99-3.67,2.52-2.36,3.03-5.45,3.89-8.47.38-1.2.87-2.6,2.28-2.48,1.37.12,1.04,1.74,1.41,2.72a11.27,11.27,0,0,1-.24,8.61h-.01Z" fill="#080808"/>
        <path id="Path_3816-2" data-name="Path 3816" d="M171.76,244.96c.49,2.57,2.64.93,3.91,1.55-1.93,1.85-4.61,1.68-6.92,2.39a34.021,34.021,0,0,0-6.77,2.66l-8.01,4.63c-2.14.52-2.72,3.89-5.6,3.06-1.11-1.43-.12-2.53.54-3.69a4.041,4.041,0,0,1,1.92-2.05c2.94-2.51,6.39-4.2,9.77-6,2.52-.86,5.15-1.35,7.53-2.69,1.04-.59,2.49-1.36,3.63.15h0Z" fill="#1a1a1a"/>
        <path id="Path_3817-2" data-name="Path 3817" d="M171.74,116.65c-6.2-1.51-12.28-3.26-18.86-1.63-4.54,1.13-8.02,2.92-9.38,7.66-2.75,2.26-2.81-1.06-4.07-1.93-1.6-2.23-3.82-1.22-5.83-1.07-1.58.12-3.03.99-4.66.99a1.692,1.692,0,0,1-1.18-1.01c4.59-4.04,10.04-4.49,15.68-3.42a6.26,6.26,0,0,0,4.14-.51c7.25-3.16,14.67-2.87,22.08-.56a8.226,8.226,0,0,1,2.07,1.48h0Z" fill="#989898"/>
        <path id="Path_3818-2" data-name="Path 3818" d="M116.63,137.59c.46-.54.9-1.07,1.36-1.62a.936.936,0,0,1,1.07-.08,2.345,2.345,0,0,1,.82,2,20.084,20.084,0,0,0,1.34,7.74,4.828,4.828,0,0,0,2.75,5.36c.93,5.06.82,5.25-4.72,7.84-.25-.05-.6-.1-.66-.28-2.7-6.8-6.1-13.53-1.96-20.97Z" fill="#121212"/>
        <path id="Path_3819-2" data-name="Path 3819" d="M182.84,128.56c.04-.49.07-.99.1-1.48a23.488,23.488,0,0,1,5.31,12.73c.14,1.77,1.52,2.43,2.07,3.75-4.27-.79-8.54-1.7-12.64.66a3.6,3.6,0,0,1-3.51.02c-1.89-2.43.03-3.18,1.77-4.01a3.881,3.881,0,0,0,2.07-.74c1.63-1,3.63-1.37,5.01-2.78.66-1.45-.2-2.6-.64-3.85-.51-1.46-1.35-3.04.45-4.29h0Z" fill="#6d6d6d"/>
        <path id="Path_3820-2" data-name="Path 3820" d="M153.86,247.93c1.47-1.22-.97-3.64,1.43-4.57,6.19-1.24,11.79-4.08,17.56-6.42a11.97,11.97,0,0,1,3.43-1.3,6.914,6.914,0,0,1,1.7.1,2.515,2.515,0,0,1,1.69,1.47c.28,1.8-1.09,2.34-2.33,2.81a12.865,12.865,0,0,0-4.2,2.87c-.35.13-.72.25-1.07.37-5.25.57-9.85,3-14.58,5.06-1.19.51-2.25,1.78-3.71.58a.759.759,0,0,1,.07-.98h0Z" fill="#6e6e6e"/>
        <path id="Path_3821-2" data-name="Path 3821" d="M196.49,211.43c-1.95,1.61-5.45.08-6.63,3.25-2.18,2.84-5.26,1.12-7.92,1.55-1.81-.03-3.62.04-5.42-.12a4.36,4.36,0,0,1-2.84-1.63c-.26-2.89,1.94-3.38,3.96-3.86,1.14-.27,2.38-.1,3.55-.34,1.22-.06,2.44-.03,3.66-.03,2.85.53,5.73,1.34,8.29-.9a2.828,2.828,0,0,1,2.37.51,3.209,3.209,0,0,1,.98,1.57h0Z" fill="#787878"/>
        <path id="Path_3822-2" data-name="Path 3822" d="M94.16,174.84a3.265,3.265,0,0,0,3.26,2.92c.81.07,2.28-.9,2.08.87a2.287,2.287,0,0,1-2.93,2.09c-3.34-.96-7.1-1.48-8.28-5.63-.5-1.76-1.43-1.68-2.74-.86a26.124,26.124,0,0,1-2.6,1.28c1.38-2.95,5.47-2.87,6.72-5.96,1.08,0,2.13.52,2.13,1.54,0,1.86,1.36,2.65,2.36,3.75h0Z" fill="#6f6f6f"/>
        <path id="Path_3823-2" data-name="Path 3823" d="M176.15,236.67c-5.91,3.31-12.52,4.99-18.54,8.03-1.58.8-1.91-.27-2.33-1.34.96-1,1.69-2.31,3.28-2.5,1.99-2.61,5.34-2.35,7.91-3.73,1.73-.51,3.45-1.04,5.18-1.59a6.5,6.5,0,0,1,3.34-.56c.79.28,1.48.64,1.17,1.68h0Z" fill="#151515"/>
        <path id="Path_3824-2" data-name="Path 3824" d="M116.63,137.59c-.36,3.02-2.48,6.06-1.43,8.93,1.48,4.02,1.25,8.66,4.27,12.12,3.79.3,4.66,3.32,5.71,6.16a1.965,1.965,0,0,1-1.75,1.37c-4.54-.59-7.48-3.62-10.32-6.8a1.46,1.46,0,0,1,.52-1.04c3.05.25,4.06-.68,2.75-3.84-1.76-4.25-3.05-8.68-1.59-13.35.4-1.28.62-2.69,1.83-3.57h0Z" fill="#9b9b9b"/>
        <path id="Path_3825-2" data-name="Path 3825" d="M187.4,162.14c.63-.9,1.07-2.11,1.93-2.63,5.48-3.29,5.22-7.89,3.23-12.98,2.51,1.91,2.5,4.7,2.21,7.35-.24,2.12.31,2.74,2.4,2.97a16.409,16.409,0,0,1,8.09,3.24.841.841,0,0,1,0,.98c-1.38,1.36-2.73.42-4.09-.04-4.73-1.62-6.49-1.16-9.72,2.55-1.03,1.19-1.84,2.7-3.81,2.42-2.34-1.16-1-2.52-.22-3.86h0Z" fill="#8a8a8a"/>
        <path id="Path_3826-2" data-name="Path 3826" d="M121.06,133.04c-.6-2.08.66-3.92.77-5.92a1.569,1.569,0,0,1,1.46-.46c1.81.82.6,3.89,3.13,4.13.28.07.54.18.83.28,2.1-.31,3.85.28,4.37,2.45a3.334,3.334,0,0,1-2.77,4.17c-2.69.63-1.81,4.11-4.23,4.8-3.25-.84-3.57-3.54-3.95-6.22-.16-1.11.66-2.1.38-3.23h0Z" fill="#151515"/>
        <path id="Path_3827-2" data-name="Path 3827" d="M110.63,212.92c-9.74,1.7-14.33-.26-19.36-8.29,0-1.75-2.41-1.45-2.59-3.05,1.19-1.44.76-4.36,3.78-4.14,1.6.51,1.39,2.34,2.4,3.29,1.04,2.49,2.86,4.51,3.96,7,1,2.25,3.4,2.63,5.62,2.92,1.87.25,3.78.07,5.64.53a2.341,2.341,0,0,1,.77.73,1.064,1.064,0,0,1-.2,1h-.01Z" fill="#4d4d4d"/>
        <path id="Path_3828-2" data-name="Path 3828" d="M153.1,239.69c-11.04,5.56-21.33,2.66-31.4-2.79a.916.916,0,0,1,0-1.13c3.39-1.23,6.3.75,9.11,1.85,5.96,2.33,11.78,2.09,17.77.65,1.28-.31,2.54-1.14,3.89-.22a1.4,1.4,0,0,1,.64,1.64h0Z" fill="#777"/>
        <path id="Path_3829-2" data-name="Path 3829" d="M94.16,174.84c-2.81,1.59-4.18.73-3.98-2.45a4.779,4.779,0,0,0-.5-2.84c2.15-2.83,2.54-7.06,6.66-8.31-4.39,3.95-3.12,8.8-2.17,13.61h0Z" fill="#454545"/>
        <path id="Path_3830-2" data-name="Path 3830" d="M89.05,201.62c.69,1.04,2.52,1.25,2.22,3.01-4.45-5.25-10.52-8.98-14.13-15.02a1.126,1.126,0,0,1,1.48.04,9.585,9.585,0,0,0,2.72,3.9,6.582,6.582,0,0,1,1.87,1.16c1.74,1.21,3.2,1.45,3.75-1.19a3.222,3.222,0,0,1,3.12-2.65c3.48.54,3.55.68,2.41,4.75-2.37,1.28-2.72,3.75-3.43,5.99h0Z" fill="#cfcfcf"/>
        <path id="Path_3831-2" data-name="Path 3831" d="M121.06,133.04c1.45,2.84.63,6.63,3.73,8.77,2.05-.62,2.89,1.05,4.04,2.13,1.52,1.9,2.51,3.74-.6,5.1-1.92.6-3.01-1.11-4.54-1.6a2.356,2.356,0,0,1-.84-.79c-1.35-3.53-2.19-7.27-4.29-10.5a.975.975,0,0,1-.57-.19c.23-1.81,2.5-1.48,3.07-2.92Z" fill="#7f7f7f"/>
        <path id="Path_3832-2" data-name="Path 3832" d="M153.86,247.93c.05.29.11.58.16.87,2.13.43,3.44-1.82,5.48-1.66.76.24,1.43.54,1.09,1.54-3.02,1.95-6.04,3.89-9.06,5.85-2.17.71-2.94-1.01-3.95-2.29-.36-.87-1.19-1.6-.75-2.69.91-1.16,1.84-2.28,3.44-.98-.04,1.48.59,1.62,1.67.84.65-.48,1.28-.98,1.92-1.48Z" fill="#7b7b7b"/>
        <path id="Path_3833-2" data-name="Path 3833" d="M161.97,251.55c2.68-2.74,6.42-2.88,9.77-4.01,1.28-.43,2.61-.69,3.92-1.03a78.465,78.465,0,0,0,16.15-5.42c-3.65,4.11-8.95,4.58-13.74,5.96-5.35,1.54-10.83,2.67-16.1,4.51h0Z" fill="#a6a6a6"/>
        <path id="Path_3834-2" data-name="Path 3834" d="M205.18,160.9c.02-.27.04-.54.07-.81,4.95,3.87,7.13,8.77,5.25,14.97-.56,1.87-.28,2.94,1.35,4.01,1.72,1.13,3.52,2.36,3.89,4.68l-3.64-2.98c-4.85-1.28-4.97-1.45-4.39-6.56.4-3.63.98-7.25-2.02-10.24a2.454,2.454,0,0,1-.52-3.06h.01Z" fill="#969696"/>
        <path id="Path_3835-2" data-name="Path 3835" d="M203.23,196.39c3.64,5.39,4.01,5.47,10.94,2.21a4.311,4.311,0,0,1-2.6,2.42,11.514,11.514,0,0,0-5.46,4.49,3.2,3.2,0,0,1-.99-.46c-2.36-2.32-5.08-4.45-4.5-8.35.7-1.6,1.6-1.41,2.62-.31h0Z" fill="#828282"/>
        <path id="Path_3836-2" data-name="Path 3836" d="M181.43,215.07c2.81-.13,5.62-.25,8.42-.38a7.807,7.807,0,0,1,4.4,3.13c.19.67,1.13,1.01.83,1.9a1.71,1.71,0,0,1-2.22.86c-3.11-2.11-6.66-.98-9.96-1.6a3.394,3.394,0,0,1-1.5-.97,2.268,2.268,0,0,1,.04-2.92h0Z" fill="#0d0d0d"/>
        <path id="Path_3837-2" data-name="Path 3837" d="M153.1,239.69c-.35-.29-.7-.57-1.05-.87.24-1.95,1.78-1.94,3.19-2.13,1.3-.17,2.58-.43,3.89-.51,2.47.22,4.83-1.15,7.33-.49.72.19,1.48.4,1.55,1.29.07.99-1.16.7-1.46,1.36-2.65.9-5.13,2.34-8,2.53-1.4-2.31-4.01.95-5.46-1.18h0Z" fill="#757575"/>
        <path id="Path_3838-2" data-name="Path 3838" d="M194.84,219.56c-.19-.58-.4-1.16-.59-1.75a3.778,3.778,0,0,1,1.27.63c3.19,3.7,4.03,12.21,1.64,16.14.16-3.28.93-6.62-.96-9.87-.49.75-.97,1.47-1.45,2.19a4.42,4.42,0,0,1-1.19-4.98,5.555,5.555,0,0,1,.58-1.53c.22-.28.46-.56.71-.82h0Z" fill="#444"/>
        <path id="Path_3839-2" data-name="Path 3839" d="M110.63,212.92c0-.25,0-.49.01-.73.04-2.34-1.03-4.75.66-6.98.93-1.23,1.76-2.37,3.54-1.61a3.509,3.509,0,0,1,1.24,2.1c-.21,2.92,1.11,6.07-1.3,8.65a1.053,1.053,0,0,1-1.21-.01,3.71,3.71,0,0,0-2.94-1.41h0Z" fill="#7d7d7d"/>
        <path id="Path_3840-2" data-name="Path 3840" d="M147.07,250.11a2.265,2.265,0,0,1,1.51,1.54c-.95,2.03,1.64,2.78,1.62,4.47a5.647,5.647,0,0,0-1.63,2.97,1.328,1.328,0,0,1-1.02.25,3.277,3.277,0,0,1-1.95-2.45,4.847,4.847,0,0,1-.03-5.41c.75-.19.18-1.82,1.51-1.37h0Z" fill="#6e6e6e"/>
        <path id="Path_3841-2" data-name="Path 3841" d="M113.57,214.34c.28,0,.56,0,.84.01a1.4,1.4,0,0,1,1.69-.21,3.175,3.175,0,0,1,.64,3.56c-.65,1.75-.21,3.31.01,4.95a2.179,2.179,0,0,1-2.6,1.87c-1.43-.32-.43-2.07-1.51-2.59-.78-2.66.54-5.07.93-7.6h0Z" fill="#262626"/>
        <path id="Path_3842-2" data-name="Path 3842" d="M113.65,158.34c0,.23.02.46.04.69-.86,1.92-3.36,1.07-4.44,2.63a2.958,2.958,0,0,1-1.69-.15,1.865,1.865,0,0,1-.8-.82c-.15-1.95-1.31-2.49-3.08-2.24-1.47.22-2.94.4-4.4.6,4.63-3.45,9.51-1.88,14.38-.71h0Z" fill="#515151"/>
        <path id="Path_3843-2" data-name="Path 3843" d="M145.59,256.89a2.829,2.829,0,0,1,2.18,2.13c.15.95,1.15,1.02,1.64,1.6-.72,1.72-1.87,4.19-3.72,2.89-2.16-1.52-1.79-4.37-.1-6.64h0Z" fill="#c7c7c7"/>
        <path id="Path_3844-2" data-name="Path 3844" d="M112.65,221.93c.53.74,1.05,1.48,1.58,2.22,2.39,3.2,4.42,6.67,7.21,9.57a2.416,2.416,0,0,1,.33,2.42c-.02.25-.04.5-.07.75-5.97-3.2-8.25-8.63-9.05-14.96Z" fill="#7d7d7d"/>
        <path id="Path_3845-2" data-name="Path 3845" d="M149.4,260.63a3.545,3.545,0,0,1-.34.16c-1.01.41-1.84,2.47-2.98,1-1.01-1.32.82-1.98,1.67-2.77.26.02.53.04.79.07,2.28-.08,3.16-2.76,5.4-2.92-1.51,1.48-3.04,2.97-4.55,4.45h0Z" fill="#575757"/>
        <path id="Path_3846-2" data-name="Path 3846" d="M78.62,189.66c-.49-.01-.98-.03-1.48-.04-.02-3.36-1.33-7.01,2.13-9.59a30.589,30.589,0,0,0-.66,9.63h0Z" fill="#7d7d7d"/>
        <path id="Path_3847-2" data-name="Path 3847" d="M206.06,204.69c.01.28.03.54.04.82a18.829,18.829,0,0,1-9.62,5.92l-1.81-.25a1.645,1.645,0,0,1,.46-1.69c2.95-1.97,6.19-3.45,9.24-5.26.53-.31,1.19.04,1.69.45h0Z" fill="#636363"/>
        <path id="Path_3848-2" data-name="Path 3848" d="M147.07,250.11c-.5.46-1.01.91-1.51,1.37.07-1.9,1.51-3.04,2.46-4.45.5-.75,1.25-1.37,2.17-.73s.57,1.5.08,2.28a3.878,3.878,0,0,0-3.21,1.54h0Z" fill="#d2d2d2"/>
        <path id="Path_3849-2" data-name="Path 3849" d="M123.16,126.9l-1.33.22a18.056,18.056,0,0,1,5.94-7.48c.48,0,.96-.02,1.44-.03-.13,3.99-2.97,5.74-6.04,7.28h0Z" fill="#6a6a6a"/>
        <path id="Path_3850-2" data-name="Path 3850" d="M109.28,160.65c.6-2.89,2.76-1.55,4.4-1.63,3.95.86,6.04,4.57,9.49,6.18,1.76,1.03,1.6,2.62-.08,2.87a43.8,43.8,0,0,1-14.36-.07c-.63-.11-.86-.84-1.14-1.39-.1-2-4.82-3.34-.84-5.92.25.03.51.05.77.08.6.11,1.29,1.83,1.75-.11h.01Z" fill="#0c0c0c"/>
        <path id="Path_3851-2" data-name="Path 3851" d="M107.6,166.61c4.89,1.48,9.91.54,14.87.64,1.6.03,1.23-1.1.72-2.05.53-.29,1.05-.58,1.58-.87.13-.14.28-.29.41-.43q7.38-.75,7.42-8.5c0-2.97-.02-5.95.03-8.92.02-1.2-.23-2.54,1.2-3.25a1.358,1.358,0,0,1,1.18.46c1.22,7.13.46,14.29.41,21.43a3.17,3.17,0,0,1-3.01,3.22c-3.53.5-7.03,1.16-10.61.87-5.22-.43-10.44,1.07-15.68.11a4.236,4.236,0,0,1-1.71-.54,1.269,1.269,0,0,1-.48-1.23c1.2-.42,2.65.11,3.67-.96h0Z" fill="#757575"/>
        <path id="Path_3852-2" data-name="Path 3852" d="M103.93,167.57c.04.28.1.57.14.86,2.32,1.7,1.86,4.47,1.58,6.47-.81,5.86.92,11.47.93,17.21.29,1.62.37,3.16-1.54,3.9-2.57-.35-3.11-2.78-4.45-4.38-1.75-2.31-4.1-1.45-6.33-1.19-1.08.25-2.16.71-3.21-.09a2.325,2.325,0,0,1-.53-2.69,1.6,1.6,0,0,1,1.43-.84c1.25-.28,2.48-.57,3.73-.85,1.98-1.68,4.42-1.25,6.72-1.46h0c.84-4.12.14-8.28.37-12.42.07-1.34-.25-2.69.28-4,.29-.18.58-.35.87-.53h0Z" fill="#707070"/>
        <path id="Path_3853-2" data-name="Path 3853" d="M83.77,188.98a19.229,19.229,0,0,1-2.42-3.2c-.84-1.7.35-2.92,1.7-3.54,2.02-.92,1.48.74,1.84,1.9.74,2.35,1.26-.2,1.94-.27.98,1.07,2.07,2.07,2.39,3.59-.19,3.6-2.77,1.98-4.56,2.1a2.3,2.3,0,0,1-.9-.57h0Z" fill="#222"/>
        <path id="Path_3854-2" data-name="Path 3854" d="M89.73,191.98a8.105,8.105,0,0,0-1.31,1.23c-2.72,4.25-3.16,4.28-7.09.34.93.34,1.84.72,2.78.98s1.5.02,1.15-1.11a2.863,2.863,0,0,1-.2-3.1c1.91-.46,3.86-1.04,4.66,1.65h0Z" fill="#282828"/>
        <path id="Path_3855-2" data-name="Path 3855" d="M103.05,168.1c-.17,5.48.63,10.98-.66,16.41C102.63,179.04,101.68,173.52,103.05,168.1Z" fill="#2d2d2d"/>
        <path id="Path_3856-2" data-name="Path 3856" d="M87.98,187.66a6.591,6.591,0,0,1-1.15-3.8,4.375,4.375,0,0,1,5.11,2.95c-.26.24-.52.47-.78.71-.7.66-1.48.37-2.24.17-.31-.03-.63-.04-.94-.04h0Z" fill="#484848"/>
        <path id="Path_3857-2" data-name="Path 3857" d="M102.4,184.51c-2.24.48-4.48.98-6.72,1.46,1.07-1.47,3.17-1.87,3.73-3.88,1.58.33,1.39,2.5,2.99,2.42Z" fill="#2d2d2d"/>
        <path id="Path_3858-2" data-name="Path 3858" d="M85.27,190.45v2.98c-1.07-1.29-4.13-1.92-1.5-4.46h.74c.69.26,1.11.66.76,1.47h0Z" fill="#171717"/>
        <path id="Path_3859-2" data-name="Path 3859" d="M187.4,162.14c-.05,1.04-.98,2.27.66,2.93,2.26.54,4.57.34,6.86.51,1.43.1,2.95,0,3.95,1.38a6.217,6.217,0,0,1,.84,3.9c-.11,8.71.43,17.42,0,26.14-.08,1.6.55,3.61-1.81,4.28a1.815,1.815,0,0,1-1.19-.57,5.079,5.079,0,0,1-.63-3.78c1.22-6.27-.66-12.58.44-18.82a12.921,12.921,0,0,0,.05-4.07c-.44-3.13-1.82-4.47-4.98-4.11-7.3.83-14.47-1.56-21.76-.76-1.18.13-2.6.04-2.63-1.79a.839.839,0,0,1,1.14-.13c4.17,0,8.35-.11,12.52.01,2.83.08,5.19-.14,5.48-3.73.04-.49.72-.93,1.11-1.4h-.03Z" fill="#575757"/>
        <path id="Path_3860-2" data-name="Path 3860" d="M168.28,167.25c-.33.04-.65.07-.98.1-2.28-.11-1.84-1.91-1.87-3.24-.07-4.28-.1-8.55,0-12.82a4.051,4.051,0,0,1,.28-1.19c.38-.74,1.14-.98,1.81-1.34a2.346,2.346,0,0,1,2.01-.47,5.633,5.633,0,0,1,2.33,2.08c.54,2.25-.7,4.48-.13,6.74-.45.96-.99,1.78-2.27,1.46-.61-.63-1.48-2.26-1.48.22,0,2.81-.35,5.66.29,8.45h0Z" fill="#555"/>
        <path id="Path_3861-2" data-name="Path 3861" d="M178.43,154.7c-1.63-.66-2.14.26-2.33,1.65a1.493,1.493,0,0,1-1.63-1.09,16.068,16.068,0,0,0-.65-4.62c.13-1.34,1.19-2.14,1.86-3.17a2.372,2.372,0,0,1,2.07-.28c3.28.8,4.72,3.77,3.64,7.45-1.01-.97-1.98-.26-2.97.06h0Z" fill="#1f1f1f"/>
        <path id="Path_3862-2" data-name="Path 3862" d="M174.7,150.95c1.25,1.16,1,2.57.65,3.99-1.14,1.34.01,2.05.73,2.95.62.78,1.68,1.45.94,2.72-1.9-.21-3.46-3.25-5.78-.56-.37.43-1.4-.66-1.75-1.48.51-.55,1.04-1.1,1.55-1.65.75-1.04-.29-2.19.1-3.13.63-1.51.92-3.76,3.57-2.84h0Z" fill="#202020"/>
        <path id="Path_3863-2" data-name="Path 3863" d="M177.02,160.61a26.577,26.577,0,0,1-3.26-3.89c-.78-1.38-.81-2.85,1.59-1.79.25.47.51.94.76,1.41a7.221,7.221,0,0,0,3.84,2.82c.51.34,1.16.87.68,1.37-.82.86-1.92.63-2.92.12-.22-.01-.46-.02-.68-.04h0Z" fill="#828282"/>
        <path id="Path_3864-2" data-name="Path 3864" d="M177.69,160.66c.97-.16,2.38.34,2.25-1.49,1.54.22,3.25-.39,4.59.81a.812.812,0,0,1-.19,1.28c-1.6,1.11-3.34.41-5.01.2a5.482,5.482,0,0,1-1.63-.8h0Z" fill="#6c6c6c"/>
        <path id="Path_3865-2" data-name="Path 3865" d="M177.75,147.19c-.51.26-1.03.52-1.54.78-1.37.31-2.4,2.28-4.13.84-1.09-2.02.84-3.13,1.41-4.65a1.818,1.818,0,0,1,1.09-.3c1.03.11,2.07.22,3.1.34-.99,1.02-.3,2,.07,2.98h0Z" fill="#292929"/>
        <path id="Path_3866-2" data-name="Path 3866" d="M187.51,154.88a1.027,1.027,0,0,1-1.15,1.08c-.78,0-1.45-.26-1.44-1.19a1.1,1.1,0,0,1,1.14-1.14,1.294,1.294,0,0,1,1.45,1.25Z" fill="#121212"/>
        <path id="Path_3867-2" data-name="Path 3867" d="M178.43,154.7c.34-1.01.62-2.28,1.88-2.26,1.34.02.96,1.34,1.09,2.2a2.417,2.417,0,0,1-2.97.06Z" fill="#373737"/>
        <path id="Path_3868-2" data-name="Path 3868" d="M184.17,149.15c-.68,0-1.27-.25-1.37-.94-.13-.91.47-1.34,1.31-1.35a1.1,1.1,0,0,1,1.21,1.1c.02.72-.46,1.08-1.15,1.19Z" fill="#313131"/>
        <path id="Path_3869-2" data-name="Path 3869" d="M178.48,140.65c-.49.22-.99.45-1.48.67-.67.46-1.71.58-2.07.16-2.04-2.48-5.04-1.78-7.61-2.5a9.029,9.029,0,0,0-5.57-1.82c-1.57-.06-2.67-.6-2.61-2.39-.66-1.57-1.4-.35-1.66.13-1.1,2.07-2.89,2.38-4.93,2.25a5.693,5.693,0,0,1-3.25-1.12c-2.13-3.04-2.21-6.33-1.22-9.74a6.3,6.3,0,0,1,3.09-3.84c2.5.68,5.72.19,6.41,3.88,3.21.44,6.23,3.32,9.68.75,2.36-.21,3.13-3.42,5.8-3.04,1.86-.85,1.84-2.45.27-2.95-3.54-1.14-6.07-5.18-11.45-2.86,2.48-2.42,2.51-2.52,4.44-1.95,6.22,1.81,11.74,4.68,15.09,10.61a10.854,10.854,0,0,0,1.45,1.67c1.28,2.98,2.54,5.98,3.82,8.96.92,2.22-.8,1.76-1.92,1.87-2.13.22-4.48-.67-6.27,1.26h0Z" fill="#030303"/>
        <path id="Path_3870-2" data-name="Path 3870" d="M123.16,126.9c1.25-3.06,3.56-5.25,6.04-7.28,3.53-1.31,7.02-2.79,10.94-2.28,1.2.16,2.58-.07,2.66,1.75-2.05,2.01-.97,4.72-1.6,7.04.27-1.1.45-2.28,2.06-2.04,1.1.22,3.36-.75,2.51,1.69-1.2,3.4-.7,6.83-.88,10.24-.49,2.28-2.16,1.9-3.76,1.65-1.09-.52-2.12-1.16-3.24-1.65-2.47-1.08-3.7-.37-3.88,2.29-.91,7.14-.63,14.3-.67,21.47,0,1.07-.12,2.01-1.5,2.06-2.1-.91-1.51-3.09-2.19-4.66a4.04,4.04,0,0,0-2.1-4.16c-1.29-1.23-2.8-2.24-3.68-3.89-.5-.94-.78-1.75.19-2.54,1.48-.18,2.35,1.23,3.69,1.42a1.234,1.234,0,0,0,2.06-.59,1.368,1.368,0,0,0-.51-1.92c-.67-.31-1.21-.8-1.86-1.13-1.53-.17-1.7-1.75-2.64-2.53a4.011,4.011,0,0,0-.03-1.1c-1.07-3.32-1.07-5.76,3.6-4.83a1.478,1.478,0,0,0,1.69-1.15,1.648,1.648,0,0,0-1.28-1.97,16.22,16.22,0,0,0-2.52-.46h0c-2.74-.83-3.2-2.95-3.09-5.41h0Z" fill="#050505"/>
        <path id="Path_3871-2" data-name="Path 3871" d="M141.12,136.36a3.64,3.64,0,0,0,3.78-.37,2.032,2.032,0,0,0,1.03-2.48c-.85-5.33,1.21-9.54,4.93-13.15a1.117,1.117,0,0,1,.64-.32c1.72.01,3.57.52,3.39,2.43-.21,2.15-2.23.24-3.3.82-1.18.69-1.51,2.01-2.22,3.03-1.57,3.38-.65,6.91-.63,10.39a5.131,5.131,0,0,1-2.66,2.53,7.051,7.051,0,0,1-1.08.41,16.57,16.57,0,0,1-5.06-.46,3.224,3.224,0,0,0-3.48,1.39c-.8.9-.63,2.48-2.06,2.92-.2,0-.41,0-.61-.01-.06-2.34-1.88-4.18-1.86-6.54.36-1.28,1.63-1.8,2.36-2.77,1.31-1.72,3.54-1.25,3.95-.06.61,1.72,2.27,1.16,2.9,2.24h0Z" fill="#7b7b7b"/>
        <path id="Path_3872-2" data-name="Path 3872" d="M151.58,123.3c.46-1,2.59.19,2.24-1.48-.27-1.3-1.75-1.4-2.97-1.45,1.7-.9,3.6-1.2,5.32-2.28,3.04-1.92,3.48-1.28,4.04,2.19.46,2.85.07,4.83-2.65,6.06-2-1.01-3.99-2.03-5.99-3.04h0Z" fill="#3e3e3e"/>
        <path id="Path_3873-2" data-name="Path 3873" d="M143.27,124.08c-.89,1.87-.58,3.86-.63,5.8-.02.88-.06,1.92-1.13,2.03-1.25.13-1.72-.93-1.77-1.94-.19-3.95.14-7.8,3.07-10.89.54,1.14-2.34,2.94.69,3.6-.07.46-.16.93-.23,1.4Z" fill="#616161"/>
        <path id="Path_3874-2" data-name="Path 3874" d="M173.05,124.05c-1.12,2.57-2.48,4.66-5.79,3.04-.72-.77-2.57-.51-2.4-1.84.23-1.77,1.91-.81,2.98-1.03a8.464,8.464,0,0,0,2.31-.9c1.23-.66,2.28-.92,2.9.73h0Z" fill="#4a4a4a"/>
        <path id="Path_3875-2" data-name="Path 3875" d="M197.88,167.35c-2.22-.01-4.45-.08-6.68-.03-1.67.04-2.97-.28-3.16-2.25.23-.29.48-.57.69-.87,4.47-6.85,7.6-7.71,14.77-4.1.55.28,1.11.54,1.67.81a13.419,13.419,0,0,1,4.07,14.54c-.94,3.14,1.51,3.78,2.87,5.32a9.567,9.567,0,0,1-4.97,1.12c2.19,1.67,4.49,2.46,4.73,4.89.16,1.6.38,3.35-1.52,4.09-1.88.73-2-.63-2.51-2.04-.63-1.72-1.78,0-2.71.1a3.3,3.3,0,0,1,1.81-3.34c.45-.22-.04.58-.09.08-.01-.19-.13-.2-.35-.07a8.378,8.378,0,0,0-3.7,4.13,2.549,2.549,0,0,1-2.75,1.87c-1.72-.59-1.06-2.05-1.07-3.16-.06-5.8-.01-11.61-.04-17.41,0-1.3.43-2.78-1.06-3.68Z" fill="#080808"/>
        <path id="Path_3876-2" data-name="Path 3876" d="M200.84,190.48c1.22-2.17,2.45-4.34,4.7-5.65,2.52-1.47,4.27-.47,5.48,1.84a1.76,1.76,0,0,1-.26,2.39c-1.17.81-1.28-.44-1.8-1.06-1.81-2.14-2.89-.75-3.84.93-2.34,2.05-2.06,4.78-1.9,7.46a1.389,1.389,0,0,0-1.76.99,1.233,1.233,0,0,1-1.22-.48,6.684,6.684,0,0,1,.59-6.42h0Z" fill="#767676"/>
        <path id="Path_3877-2" data-name="Path 3877" d="M194.97,221.72c-.07,1.72-.15,3.45-.22,5.18-1.07,6.01-4.74,9.83-10.22,12.12-.98.43-1.92.65-2.72-.35a4.074,4.074,0,0,1,.06-2.37,3,3,0,0,1,1.92-2.04c4.78-.98,7.74-5.87,6.98-11.52.94-2.27,2.42-2.24,4.2-1.02h0Z" fill="#8a8a8a"/>
        <path id="Path_3878-2" data-name="Path 3878" d="M160.6,248.69l-1.55-.81c.42-2.31,2.78-2.17,4.16-2.69,2.91-1.09,5.83-2.23,8.77-3.28l.25.04a3.6,3.6,0,0,1,2.35-.82,2.285,2.285,0,0,1,1.81,1.6l-4.62,2.22q-5.58,1.875-11.15,3.73h0Z" fill="#6f6f6f"/>
        <path id="Path_3879-2" data-name="Path 3879" d="M176.37,242.74c-.57-.33-1.13-.66-1.7-.98,1.8-2.68,4.43-3.6,7.52-3.54.78.26,1.56.53,2.34.79-2.35,2.04-5.45,2.46-8.15,3.73h0Z" fill="#737373"/>
        <path id="Path_3880-2" data-name="Path 3880" d="M150.19,256.12c-2.58-.75-4.05-1.91-1.61-4.48a7.638,7.638,0,0,1,2.97,2.89c-.45.53-.9,1.05-1.35,1.58h0Z" fill="#6f6f6f"/>
        <path id="Path_3881-2" data-name="Path 3881" d="M130.78,156.17c.94,1.64.63,3.45.7,5.2-2.1,1.16-4.1,2.56-6.64,2.54a.837.837,0,0,0-.08.41c-1.88-1.79-4.13-3.23-5.28-5.69-.16-1.54-1.22-3.41,1.85-3.38,2.41.02,1.48-2.29,2.01-3.58,1.09-.76,2.01-.01,2.98.32,2.03.81,2.79,2.98,4.46,4.17h0Z" fill="#0c0c0c"/>
        <path id="Path_3882-2" data-name="Path 3882" d="M125.45,153.22c-.71-.51-1.41-1.03-2.12-1.54-2.4-1.16-.19,4.1-3,2.19-1.71-1.16-1.72-5.92-.19-8.04l.47-.31c2.55,2.13,4.76,4.51,5.8,7.76a.636.636,0,0,1-.97-.05h0Z" fill="#3e3e3e"/>
        <path id="Path_3883-2" data-name="Path 3883" d="M118.57,136.16c3.75,2.12,3.85,6.29,5.45,9.62-1.29,1.04-2.28.61-2.97-.71a10.022,10.022,0,0,0-1.47-2.51c.13-1.52-1.43-2.7-.87-4.31-.04-.7-.1-1.4-.14-2.1Z" fill="#6a6a6a"/>
        <path id="Path_3884-2" data-name="Path 3884" d="M118.71,138.25c.87,1.13,2.44,2.1.9,3.81.81,1.07,1.84,2.09.82,3.57l-.28.19a9.148,9.148,0,0,1-1.44-7.57Z" fill="#3c3c3c"/>
        <path id="Path_3885-2" data-name="Path 3885" d="M168.02,138.25c2.19-1.85,5.58-.16,7.65-2.62.33-.39,1.37.33,1.67,1.07a1.6,1.6,0,0,1-.83,2.16c-.65.38-2.02.08-1.69,1.41.25.99,1.38.81,2.17,1.05-.87.78-2.94.43-2.4,2.54-.17.13-.35.25-.53.37-.7.54-1.14,1.47-2.18,1.55-3.96-.68-2.73,2.45-3.17,4.35-.09.54.03,1.35-.71,1.37-.72.01-.66-.81-.81-1.34-1.82-3.81-1.25-7.71-.43-11.63a.994.994,0,0,1,1.25-.28h0Z" fill="#343434"/>
        <path id="Path_3886-2" data-name="Path 3886" d="M178.48,140.65c1.01-1.62,2.65-1.6,4.28-1.64,1.48-.03,3.04.13,3.91-1.49,1.22,1.98-.34,2.1-1.58,2.16a22.962,22.962,0,0,0-6.6.96h0Z" fill="#0b0b0b"/>
        <path id="Path_3887-2" data-name="Path 3887" d="M171.97,241.93c-2.39,2.89-6.23,2.69-9.22,4.3-1.19.64-2.46,1.12-3.7,1.67-1.73,0-2.93,2.89-5.03.92,4.45-2.9,9.52-4.42,14.39-6.42a4.92,4.92,0,0,1,3.57-.46h0Z" fill="#474747"/>
        <path id="Path_3888-2" data-name="Path 3888" d="M176.15,236.67c-.49-.25-.99-.51-1.48-.76a1.252,1.252,0,0,1,.53-1.61c2.96-1.37,5.6-3.4,8.76-4.36,1.9.66,3.62,1.4,2.17,3.91-3.1.11-5.19,3.28-8.48,2.84-.5,0-.99-.01-1.49-.01h0Z" fill="#3a3a3a"/>
        <path id="Path_3889-2" data-name="Path 3889" d="M182.19,238.22q-3.765,1.77-7.51,3.54l-2.45.21c1.46-2.81,4.95-2.52,6.93-4.54,1.1-1.17,2.22-2.25,3.91-.9-.29.56-.58,1.13-.88,1.69h0Z" fill="#373737"/>
        <path id="Path_3890-2" data-name="Path 3890" d="M183.07,236.52l-3.9.9c-.51-.25-1.01-.49-1.51-.74,1.6-1.04,3.19-2.12,4.82-3.13.86-.53,1.82-1.55,2.6.13.17.75-.27,1.18-.8,1.57-.4.43-.81.84-1.21,1.27h0Z" fill="#818181"/>
        <path id="Path_3891-2" data-name="Path 3891" d="M200.86,197.18a5.262,5.262,0,0,1,.6.19,9.107,9.107,0,0,0,3.42,4.6c.95.72,1.7,1.4,1.17,2.71a32.256,32.256,0,0,1-11.39,6.5c-.31-.13-.63-.25-.95-.38-2.6.83-4.28-1.01-6.23-2.09-1.88-1.54-3.82-3.01-5.76-4.49-2.05-1.56-1.84-2.32.85-3.63,4.51,0,9.01-.24,13.51.13,4.05,1.7,2.51-1.6,2.84-3.2.13-.65-.3-1.64.65-1.82.98-.19.7,1.09,1.26,1.48h0Z" fill="#070707"/>
        <path id="Path_3892-2" data-name="Path 3892" d="M181.44,211.4c-2.51,1.03-5.47.88-7.63,2.87-.7,2.45-2.86,3.04-4.82,2.99-2.42-.05-2.48-2.54-2.69-4.22a54.773,54.773,0,0,1-.08-9.92c.16-2.99,2.33-3.38,4.74-3.29,3.84.63,7.61,1.43,10.52,4.34C184.05,207.33,184.05,209.79,181.44,211.4Z" fill="#090909"/>
        <path id="Path_3893-2" data-name="Path 3893" d="M171.47,200.99c-3.02-.23-4.28,1.07-4,4.16.22,2.46-.03,4.96.13,7.43.25,3.87.69,4.09,4.17,2.57.68-.3,1.36-.6,2.04-.89l2.4.81a4.2,4.2,0,0,1-.65,2.58c-1.86,1.73-4.75,2.33-5.61,5.16a18.116,18.116,0,0,0-1.57,5.89c-.03,1.13-.23,2.18-1.54,2.57a2.05,2.05,0,0,1-1.26-.22,2.313,2.313,0,0,1-.78-1.07c-.12-.44-.25-.87-.4-1.31,1.8-8.19.73-16.5.98-24.75.06-2.05.03-4.04,2.54-4.75,2.14.26,4.78-1.42,6.21,1.59a2.356,2.356,0,0,1-2.66.2h0Z" fill="#868686"/>
        <path id="Path_3894-2" data-name="Path 3894" d="M188.21,207.6c2.51-.1,3.26,2.84,5.51,3.2a9.685,9.685,0,0,1-8.57.5c-1.57-.89-1.72-1.91-.28-3.07,1.01-.74,2.39.45,3.34-.63h0Z" fill="#151515"/>
        <path id="Path_3895-2" data-name="Path 3895" d="M186,209.07c-1.16.41-1.28,1.22-.84,2.24l-3.72.09c.07-.1.22-.28.19-.3-1.47-1.75,0-3.96-.89-5.8,3.15-.69,4.52,1.09,5.25,3.77h0Z" fill="#292929"/>
        <path id="Path_3896-2" data-name="Path 3896" d="M174.5,216.48c.57-.46,1.14-.93,1.71-1.39,1.74,0,3.48-.01,5.22-.02l.75,2.28c-.77,1.29-2.02,1.07-3.22,1.07-1.49-.61-3.69.34-4.45-1.94Z" fill="#1a1a1a"/>
        <path id="Path_3897-2" data-name="Path 3897" d="M183.69,230.76c-2.66,2.31-6.07,3.33-9.01,5.16-.94.3-1.88.59-2.82.89-.79.37-1.93.6-2.25-.13-.65-1.54.54-2.58,1.6-3.54,4.05-1.45,7.66-3.78,11.45-5.79,1.72-1.16,3.05-1.24,3.51,1.22-.04,1.6-1.02,2.16-2.47,2.19h0Z" fill="#838383"/>
        <path id="Path_3898-2" data-name="Path 3898" d="M172.5,234.52c.1.85-3.27.7-.66,2.28-1.77.51-3.53,1.02-5.3,1.54,1.04-2.33-.78-1.62-1.57-1.28a11.825,11.825,0,0,1-6.02,1.09c2.51-3.38,6.46-3.66,10.07-4.69,1.39-.4,2.66-.44,3.48,1.05h0Z" fill="#666"/>
        <path id="Path_3899-2" data-name="Path 3899" d="M126.26,132.31c.4.81,2.34,1.23.9,2.48a1.64,1.64,0,0,1-2.46-.78c-.66-1.47.66-1.47,1.56-1.7Z" fill="#3e3e3e"/>
        <path id="Path_3900-2" data-name="Path 3900" d="M94.29,189.06c1.92-1.09,4.09-.84,6.15-1.17a2.077,2.077,0,0,1,2.69,1.84,6.211,6.211,0,0,0,.87,6.58,2.319,2.319,0,0,1,.04.98c-.34,1.5-2.96,1.59-2.29,3.72,1.24,1.53,2.31,3.17,3.45,4.78,1.07.85,2.5,1.04,3.56,1.82,1.46,1.09,3.56,2.22,1.12,4.39-2.57.42-5.13.9-7.74.25-2.79-.69-5.1-1.92-5.83-5.01a2.944,2.944,0,0,0-1.6-2.37c-2.22-.8-1.61-2.42-1.31-3.99-.7-.82.6-2.06-.57-2.79-1.78.62-1.4,3.54-3.78,3.54-2.15-2.76-1.45-4.95,1.35-6.72,3.12-.72,2-4.29,3.9-5.83h-.01Z" fill="#070707"/>
        <path id="Path_3901-2" data-name="Path 3901" d="M109.87,211.99c.64-2.13-1.16-2.21-2.35-2.87-1.25-.69-2.42-1.51-3.63-2.28a2.641,2.641,0,0,0-.23-2.78,1.905,1.905,0,0,1,.37-2.9c3.01-2.1,6.41-1.43,9.65-1.18,2.24.17,2.37,1.5.57,3.82-1.31,1.98-2.89,3.85-2.17,6.56.26.98-.73,1.4-1.45,1.84-.26-.07-.52-.13-.78-.2h0Z" fill="#0d0d0d"/>
        <path id="Path_3902-2" data-name="Path 3902" d="M92.82,198.08c.74-.58,1.82-1.9,2.39-1.07,1.24,1.83-1.15,2.56-1.82,3.86C90.38,200.51,93.32,198.95,92.82,198.08Z" fill="#999"/>
        <path id="Path_3903-2" data-name="Path 3903" d="M172.5,234.52a103.987,103.987,0,0,0-13.54,3.63c-2.31.22-4.61.45-6.92.67-7.13,3.02-14.25,3.72-21.59.57-2.83-1.21-5.93-1.78-8.69-3.25-3.83-3.17-7.29-6.57-7.54-12,.26-.75.72-1.14,1.56-.85a1.861,1.861,0,0,1,1.54.48c3.58,5.89,9.27,7.27,15.6,7.25,7.54.43,15.09,0,22.64.07,3.51.03,6.99,1.48,10.52.19a1.976,1.976,0,0,0,1.78-1.63c.91-1.69,2.54-2.49,4.13-3.36,2.89-1.48,5.8-2.75,9.05-1.01,1.07.8,3.1,1.04,1.76,3.18-2.82,3.07-6.65,4.43-10.31,6.07h0Z" fill="#030303"/>
        <path id="Path_3904-2" data-name="Path 3904" d="M94.29,189.06c.72,3.3-.87,5.05-3.9,5.83.37-.83,1.65-1.22,1.42-2.26-.25-1.13-1.41-.33-2.08-.66-1.48-.51-2.98-1.01-4.46-1.53-.25-.49-.51-.98-.76-1.47.45-2.31,2.92.69,3.48-1.32.11-.07.23-.15.34-.23,1.85-.32,1.91,1.61,2.93,2.34,1.01-.23,2.02-.47,3.04-.7Z" fill="#484848"/>
        <path id="Path_3905-2" data-name="Path 3905" d="M120.43,145.64a6.735,6.735,0,0,1-.82-3.57c2.37.18,1.92,3.69,4.41,3.72.01.26.03.53.04.79.29,2.84,2.71,4.09,4.4,5.88-.21,1.84-1.3,1.05-2.22.75a26.61,26.61,0,0,1-5.81-7.56h0Z" fill="#919191"/>
        <path id="Path_3906-2" data-name="Path 3906" d="M127.44,144.35a6.1,6.1,0,0,1,.74-.02c1.1.13,1.22-2.37,2.6-1.07,1.07,1,.34,2.32.02,3.48-.46,1.67-1.46,2.19-3.04,1.26,2.97-1.48,0-2.45-.31-3.64h0Z" fill="#151515"/>
        <path id="Path_3907-2" data-name="Path 3907" d="M178.46,217.33c1.24,0,2.48,0,3.72.01.43.02.87.05,1.3.07,1.29.52,2.4,1.51,4.02.37a2.774,2.774,0,0,1,3.06.4,1.262,1.262,0,0,1-.02,1.09c-2.13,1.28-3.05,4.35-6.16,4.19-1.59-1.2-3.5-1.64-5.31-2.34-2.09-.8-3.22-2.09-.6-3.8h0Z" fill="#696969"/>
        <path id="Path_3908-2" data-name="Path 3908" d="M190.48,218.64c-2.16-1.36-5.08,1.53-7.01-1.23,4.16-1.24,7.68.86,11.37,2.14,0,.24.01.48.01.72-2.02.97-3.99,1.81-4.38-1.63h0Z" fill="#1a1a1a"/>
        <path id="Path_3909-2" data-name="Path 3909" d="M190.48,218.64c1.04,1.67,2.71,1.65,4.38,1.63.04.48.07.97.11,1.45-1.62.05-2.94.49-3.13,2.4-.47.84-.38,2.01-1.46,2.51-2.23.99-3.12-.04-3.29-2.17-.22-2.57,1.89-3.76,3.19-5.43.07-.13.15-.26.22-.39h0Z" fill="#767676"/>
        <path id="Path_3910-2" data-name="Path 3910" d="M114.27,203.8c.49-1.75.27-2.78-1.98-2.76-2.88.02-5.71.04-8.33,1.43-3.14,1.78-4.87,1.03-5.36-2.33,1.08-1.6,3.01-1.96,4.48-3.01,3.15,1.26,6.45,1.25,9.77,1.23,2.09-.01,4.23-.06,5.72,1.84a2.867,2.867,0,0,1,.48,1.12,4.1,4.1,0,0,1-1.57,3.88,3.071,3.071,0,0,1-2.41.19c-.27-.53-.53-1.06-.8-1.6h0Z" fill="#8b8b8b"/>
        <path id="Path_3911-2" data-name="Path 3911" d="M115.07,205.39c.5-.25.99-.5,1.49-.75a1.754,1.754,0,0,1,.98,2.42c-.84,1.79.16,3.15.85,4.61-.04,1.62-.5,2.87-2.48,2.72-.5-.01-1-.02-1.51-.04.96-2.93.29-5.98.66-8.96Z" fill="#0c0c0c"/>
        <path id="Path_3912-2" data-name="Path 3912" d="M115.92,214.39a6.11,6.11,0,0,0,1.36-3.03c-1.07-2.83.81-4.48,2.55-6.07a11.156,11.156,0,0,1,6.57-3.2c3.01.38,3.07,2.23,2.27,4.51-2.98,2.88-6.98,4.9-8.02,9.43-1.13,2.18-2.25,4.35-1.79,6.94-.54.86-1.13,1.58-2.31,1.06-.25-.25-.51-.49-.76-.74-1.48-2.99.07-5.94.13-8.91h0Z" fill="#7d7d7d"/>
        <path id="Path_3913-2" data-name="Path 3913" d="M109.28,160.65c1.76.78,3.14,1.88,3.12,4,0,.29-.75.89-.98.81a5.1,5.1,0,0,1-3.89-4.71c.58-.04,1.17-.07,1.75-.11h0Z" fill="#2d2d2d"/>
        <path id="Path_3914-2" data-name="Path 3914" d="M124.84,163.93c.1-.07.25-.13.28-.24q1.845-4.845,6.36-2.31c1.65-.86,1.45-2.42,1.43-3.87-.09-6.93.74-13.94-1.45-20.72a.512.512,0,0,1,.81.03,27.8,27.8,0,0,1,1.48,6.69c-.04,5.69-.1,11.37-.14,17.06-.04,5.63-1.9,6.74-7.17,4.29-.56-.26-1.07-.61-1.61-.92h0Z" fill="#212121"/>
        <path id="Path_3915-2" data-name="Path 3915" d="M91.26,189.76c-1.81.27-2.31-1.12-2.93-2.34.07-.59-.06-1.4.66-1.57,1.3-.31,1.41,1.15,2.18,1.67a2.523,2.523,0,0,1,.1,2.24h0Z" fill="#b6b6b6"/>
        <path id="Path_3916-2" data-name="Path 3916" d="M104.61,195.65c-.46.31-.93.6-1.38.91-2.04-2.25-1.16-4.54-.09-6.83a10.259,10.259,0,0,0,1.47,5.92Z" fill="#3c3c3c"/>
        <path id="Path_3917-2" data-name="Path 3917" d="M174.26,200.78c2.77,1.48,5.2-.83,7.93-.67,4.94.28,9.91.04,14.87.02l.09.84c-.19.1-.4.19-.59.28-4.79.19-9.59-.19-14.38.21-1.63.72-.87,1.28.08,1.94,2.01,1.37,3.97,2.81,5.95,4.21.35.84,1.83,1.66.96,2.46-1.18,1.09-2.08-.67-3.18-1q-2.625-1.875-5.25-3.77c-2.44-2.83-6.03-3.19-9.27-4.31.93-.07,1.86-.14,2.79-.22h-.01Z" fill="gray"/>
        <path id="Path_3918-2" data-name="Path 3918" d="M200.86,197.18c-2.25-1.11-1.34.9-1.51,1.63-.31,1.36,0,3.09-2.28,2.78-.53-.28-.51-.48.07-.63h0a2.653,2.653,0,0,0,1.45-2.75c.04-9.36.1-18.71.07-28.06a10.546,10.546,0,0,0-.8-2.8c1.72,1.03,1.43,2.75,1.43,4.33.03,5.21-.04,10.42.05,15.62.02,1.17-.75,2.93,1.47,3.17,0,2.23.01,4.47.02,6.7h0Z" fill="#090909"/>
        <path id="Path_3919-2" data-name="Path 3919" d="M158.39,132.62a25.772,25.772,0,0,1,2.65-1.27c.99-.37,2.33-1.1,2.83.4.48,1.45-.98,1.7-1.99,2.08-.46.17-.91.37-1.37.54-.46.71-1.78,1.61.16,1.97a35.148,35.148,0,0,0,4.36.08c1.16.06,2.58-.06,2.22,1.87-.01,3.95-.03,7.91-.04,11.86a5.061,5.061,0,0,1-.68.05q0-3.345-.01-6.69c-.02-5.86-.31-6.17-6.01-6.08" fill="#757575"/>
        <path id="Path_3920-2" data-name="Path 3920" d="M172.36,148.63c1.23-.54,2.35-1.74,3.86-.66.44,1.48-.44,2.28-1.52,2.98-2.63,1.13-1.97,4.28-3.67,5.97-1.45-2.22-.11-4.49-.14-6.74-.45-1.4,0-1.97,1.47-1.56h0Z" fill="#070707"/>
        <path id="Path_3921-2" data-name="Path 3921" d="M168.71,150.12a6.344,6.344,0,0,1-.66-3.98c.07-1.31-.68-3.31.67-3.72,1.46-.46,2.39,1.31,3.07,2.64.44,2-.51,3.09-2.35,3.6-.25.49-.49.98-.73,1.47h0Z" fill="#0b0b0b"/>
        <path id="Path_3922-2" data-name="Path 3922" d="M169.44,148.65c.78-1.2,1.57-2.4,2.35-3.6.75-.28,1.51-.55,2.26-.84.16,1.75-1.16,2.92-1.7,4.4a2.066,2.066,0,0,0-1.47,1.56c-2.22,1.12-.98-1.01-1.45-1.54h0Z" fill="#858585"/>
        <path id="Path_3923-2" data-name="Path 3923" d="M150.3,135.4c-.1,1.69-1.16,1.56-2.32,1.23-.22-3.53-.78-7.1,1.38-10.31.07,3.05-1.33,6.25.94,9.07h0Z" fill="#222"/>
        <path id="Path_3924-2" data-name="Path 3924" d="M167.24,138.3c-1.58-2.57-4.16-1.51-6.38-1.75-.69-.07-1.67.17-1.82-.76-.13-.88.78-1.12,1.45-1.4.13,2.19,1.84,1.51,3.04,1.6,1.84.13,3.78-.07,4.48,2.27-.26.01-.52.03-.78.04h0Z" fill="#131313"/>
        <path id="Path_3925-2" data-name="Path 3925" d="M132.29,136.81q-.405,0-.81-.03c3.07-5.54,4.35-5.6,9.65-.42-.72-.08-1.84.1-2.09-.28-2.79-4.23-4.66-.9-6.74.72h0Z" fill="#151515"/>
        <path id="Path_3926-2" data-name="Path 3926" d="M126.25,153.2l2.22-.75a4.205,4.205,0,0,1,2.31,3.72c-2.63.55-3.2-2.6-5.33-2.95.26,0,.53-.01.8-.03h0Z" fill="#383838"/>
        <path id="Path_3927-2" data-name="Path 3927" d="M128.44,128.46c0,.95-.71,1.2-1.44,1.31a1.268,1.268,0,0,1-1.61-1.05c-.13-.91.56-1.28,1.35-1.31a1.544,1.544,0,0,1,1.7,1.06Z" fill="#343434"/>
        <path id="Path_3928-2" data-name="Path 3928" d="M132.69,123.61a1.491,1.491,0,0,1-1.26-1.6c.04-.69.43-1.24,1.16-1.17.9.09,1.16.84,1.2,1.62a.968.968,0,0,1-1.11,1.15h0Z" fill="#202020"/>
        <path id="Path_3929-2" data-name="Path 3929" d="M206.26,168.34c-1.88,1.2-2.17,3.73-3.9,5.24-.52.46-1.1.28-1.4-.51-.51-1.35,2.47-5.95,3.96-6.04.71-.04,1.12.33,1.34,1.3h0Z" fill="#0e0e0e"/>
        <path id="Path_3930-2" data-name="Path 3930" d="M190.33,225.49a2.146,2.146,0,0,1,1.51-1.37c1.74,5.3-1.77,10.46-7.57,11.13.27-.52.53-1.04.8-1.57,1.48-1.9-.69-2.07-1.38-2.93.53-.72,1.06-1.43,1.59-2.15a4.931,4.931,0,0,0,.48-.91c.14-1.02-.6-2.36.79-2.94,1.42-.59.97,1,1.5,1.46,1.12.97,1.73.16,2.28-.73Z" fill="#0d0d0d"/>
        <path id="Path_3931-2" data-name="Path 3931" d="M197.15,200.96c-.02.21-.04.43-.07.63q-7.44-.06-14.89-.14c4.95-1.19,9.98-.34,14.97-.49Z" fill="#575757"/>
        <path id="Path_3932-2" data-name="Path 3932" d="M178.46,217.33c-.69,1.72.37,1.95,1.7,2.45,1.5.57,3.97-.04,4.14,2.67a3.813,3.813,0,0,1-.25,1.06,2.318,2.318,0,0,1-2.51,1.61c-2.39-.44-4.76-1.41-7.15.17-.95.63-2.4.68-1.92,2.38-.79,2.01-2.98,1.44-4.36,2.35a21.714,21.714,0,0,1-.13-9.01c1.63-2.3,4.35-3.04,6.54-4.54,1.31.31,2.96-.98,3.95.85h0Z" fill="#0d0d0d"/>
        <path id="Path_3933-2" data-name="Path 3933" d="M166.54,231.56c-1.14.73-2.29,1.45-3.42,2.19-1.41.92-2.78,1.94-3.92-.37a1.675,1.675,0,0,0-1.11-.87c-4.93-.22-9.97-.93-14.75.29-1.87.48-2.95,1-4.83-.08-1.44-.82-3.62-.34-5.48-.44-.28-2.27,1.68-1.78,2.83-2.31.41,0,.82.02,1.22.04,3.25,1.13,6.61.74,9.93.7,5.81-.07,11.62.32,17.43-.05a2.228,2.228,0,0,1,1.2-.07c.3.05.59.1.89.16.43.26.44.53.02.81h0Z" fill="#363636"/>
        <path id="Path_3934-2" data-name="Path 3934" d="M166.54,231.56c0-.27-.01-.54-.02-.81,1.82-3.05-.15-6.66,1.44-9.74.04,3.01.09,6.01.13,9.01a2.62,2.62,0,0,1-1.55,1.54h0Z" fill="#3c3c3c"/>
        <path id="Path_3935-2" data-name="Path 3935" d="M181.49,223.94c.75-.45,1.49-.9,2.25-1.34,1.12.88,2.25,1.75,2.53,3.28-.1.87.33,1.8-.37,2.57-.2.06-.41.1-.61.15-.72-1.63-1.62-.46-2.46-.15-.26-1.19-1.4-1.47-2.19-2.12a2.53,2.53,0,0,1,.87-2.39h0Z" fill="#4f4f4f"/>
        <path id="Path_3936-2" data-name="Path 3936" d="M98.61,200.14c.97,2.65,2.84,3.23,5.36,2.33-.1,1.45,3.84,2.98-.07,4.37a4.975,4.975,0,0,0-3.55-3.2c-1.6-.41-2.86-1.49-1.73-3.49h0Z" fill="#494949"/>
        <path id="Path_3937-2" data-name="Path 3937" d="M135.99,230.8c-.99.49-1.98.99-2.97,1.48a17.491,17.491,0,0,1-15.25-5.73,3.2,3.2,0,0,1-1.22-2.52c.54-.51,1.07-1.04,1.6-1.55a1.858,1.858,0,0,1,.93-.43c1.95.27,1.55,2.59,2.93,3.35,3.63,2.27,7.23,4.6,11.78,2.51,1.34.5,1.68,1.76,2.19,2.89h0Z" fill="#818181"/>
        <path id="Path_3938-2" data-name="Path 3938" d="M181.49,223.94c.37,1.04.32,1.92-.87,2.39-3.02-1.38-5.65-.38-8.16,1.34-.92-.08-2.19.51-2.6-.68-.47-1.35.94-1.45,1.75-1.87,3.14-1.69,6.39-2.54,9.89-1.17h0Z" fill="#7d7d7d"/>
        <path id="Path_3939-2" data-name="Path 3939" d="M185.82,225.37a2.839,2.839,0,0,1-2.09-2.77,2.751,2.751,0,0,1,.56-.16c2.08-.99,3.4-3.3,5.98-3.42-.08,2-1.22,3.54-2.25,5.12a6.747,6.747,0,0,0-2.21,1.22h0Z" fill="#969696"/>
        <path id="Path_3940-2" data-name="Path 3940" d="M185.82,225.37a1.791,1.791,0,0,1,2.21-1.22c.24,1.36.81,2.14,2.31,1.34-.19.92-1.04,2.05-1.6,1.56-2.4-2.12-2.02.75-2.84,1.4-.02-1.03-.04-2.05-.07-3.08h0Z" fill="#3f3f3f"/>
        <path id="Path_3941-2" data-name="Path 3941" d="M126.24,203.19a20.918,20.918,0,0,0-8.97,8.18c-2.97-1.95-.82-4.45-.72-6.72-.16-1.32.87-1.99,1.55-2.85,2.43-1.44,5.29-.98,7.87-1.75,2.11.88,2.85,1.87.25,3.14h0Z" fill="#090909"/>
        <path id="Path_3942-2" data-name="Path 3942" d="M126.27,200.96c-2.65.98-5.45.48-8.16.84-.01-.25-.03-.51-.04-.77,1.19-1.08,2.78-.87,4.17-1.32,2.02.27,4.09-.6,6.1.2a.911.911,0,0,1,.25,1.1,2.087,2.087,0,0,1-2.31-.05h0Z" fill="#7d7d7d"/>
        <path id="Path_3943-2" data-name="Path 3943" d="M118.77,215.04a16.893,16.893,0,0,1,8.08-8.95c.86-.46,1.81-.89,1.75-2.09-.15-2.71,1.45-3.31,3.72-3.16,2.69,2.54,2.57,7.74-.37,9.85a35.4,35.4,0,0,0-7.74,7.17,7.783,7.783,0,0,1-1.43,1.26,3.338,3.338,0,0,1-3.68.27c-1.1-1.37-.8-2.86-.33-4.35h0Z" fill="#090909"/>
        <path id="Path_3944-2" data-name="Path 3944" d="M118.77,215.04a6.525,6.525,0,0,0,.84,3.84,1.87,1.87,0,0,0,.59.4c1.66.4,3.24,1.12,2.39,3.12-1.14,2.68-2.47-.04-3.73-.12l-.71.21c-1.05-2.58-.51-5.04.62-7.44h0Z" fill="#1f1f1f"/>
        <path id="Path_3945-2" data-name="Path 3945" d="M132.7,201.61c-3.28-.25-3.1,4.02-5.85,4.48.98-1.22,1.95-2.44-.62-2.91a1.37,1.37,0,0,0,.03-2.23c.74,0,1.48-.02,2.22-.03,1.58-.86,3.11-1.4,4.22.69Z" fill="#0c0c0c"/>
        <path id="Path_3946-2" data-name="Path 3946" d="M132.7,201.61c-1.31-.81-2.84-.3-4.22-.69,0-.21,0-.42-.02-.63a5.305,5.305,0,0,1,4.49-.15,3.441,3.441,0,0,0,.63.1,1.851,1.851,0,0,1,1.23,2.04c-.13,7.04.11,14.07-.07,21.11a1.258,1.258,0,0,1-.58.89c-2.13.42-2.02-1.22-2.23-2.51a20.317,20.317,0,0,1-.08-2.21c-.06-1.08.24-2.44-.9-3.02-1.38-.71-2.21.62-3.14,1.35a5.586,5.586,0,0,1-1.79,1.28c-1.28-.18-3.61,1.15-2.86-1.97a13.519,13.519,0,0,1,5.72-5.5c4.73-2.24,4.68-5.92,3.81-10.08v-.02Z" fill="#8a8a8a"/>
        <path id="Path_3947-2" data-name="Path 3947" d="M133.62,227.08c.07.46.13.91.19,1.37-1.76,2.84-4.28,2.65-6.81,1.46a21.881,21.881,0,0,1-5.99-3.62c-.57-3.21,1.88-2.29,3.48-2.55,2.77,1.87,6.55.98,9.13,3.34Z" fill="#141414"/>
        <path id="Path_3948-2" data-name="Path 3948" d="M124.74,224.79c-1.43.02-2.98-.22-3.73,1.49-1.6-.87-1.25-2.77-2.15-4.01.81-.64,2.17.99,2.59-.39.43-1.4-1.61-1.75-1.84-3.01.96-.28,1.92-.56,2.87-.84,1.36,1.71,1.2,4.12,2.67,5.78a1.31,1.31,0,0,1-.43.98h0Z" fill="#3b3b3b"/>
        <path id="Path_3949-2" data-name="Path 3949" d="M124.61,224.13c-2.69-1.34-1.98-3.86-2.11-6.09l.69-.84c.7,1.51,1.57.48,2.38.16,2.22,2.22.51,4.51.14,6.78a.848.848,0,0,1-1.1,0h0Z" fill="#727272"/>
        <path id="Path_3950-2" data-name="Path 3950" d="M125.74,223.89c-1.34-2.15-1.08-4.33-.18-6.54,1.73-1.4,3.42-2.85,5.22-4.16,1.6-1.18,2.87-1.03,2.84,1.31-.04,3.2.48,6.45-.58,9.59l-.06-.04c-2.46,2.45-4.85,1.38-7.23-.15Z" fill="#141414"/>
        <path id="Path_3951-2" data-name="Path 3951" d="M125.74,223.89l7.23.15c.22,1.01.43,2.02.64,3.04-3.09-.26-6.44.51-8.88-2.28-.04-.22-.08-.45-.13-.67.38-.07.75-.16,1.13-.23h0Z" fill="#6a6a6a"/>
      </g>
    </g>
  </g>
</svg>
