<svg id="Component_329_1" data-name="Component 329 – 1" xmlns="http://www.w3.org/2000/svg" width="342.24" height="342.24" viewBox="0 0 342.24 342.24">
  <g id="Component_230_40" data-name="Component 230 – 40">
    <g id="Rectangle_3295" data-name="Rectangle 3295" transform="translate(171.12) rotate(45)" fill="#fff" stroke="#000" stroke-width="3">
      <rect width="242" height="242" stroke="none"/>
      <rect x="1.5" y="1.5" width="239" height="239" fill="none"/>
    </g>
    <g id="Rectangle_3296" data-name="Rectangle 3296" transform="translate(171.421 30) rotate(45)" stroke="#000" stroke-width="3">
      <rect width="200" height="200" stroke="none"/>
      <rect x="1.5" y="1.5" width="197" height="197" fill="none"/>
    </g>
  </g>
  <g id="Layer_1-2" transform="translate(71.986 275.04)">
    <g id="Group_171" data-name="Group 171" transform="translate(-52 -257)">
      <path id="Path_3787" data-name="Path 3787" d="M117.82,138.54a5.92,5.92,0,1,0,5.92-5.92,5.919,5.919,0,0,0-5.92,5.92Z" fill="#fff"/>
      <path id="Path_3788" data-name="Path 3788" d="M181.41,137.68a5.92,5.92,0,1,0-5.92,5.92A5.919,5.919,0,0,0,181.41,137.68Z" fill="#fff"/>
      <path id="Path_3789" data-name="Path 3789" d="M108.5,107.84c1.63-1.22.84-2.75,2.53-6.94a13.714,13.714,0,0,0,1.03-3.17,12.025,12.025,0,0,0,.15-2.65,15.067,15.067,0,0,0-5.98,7.4c-.6,1.69-1.44,5.18-.21,5.95.68.42,1.82-.09,2.48-.58Z" fill="#fff"/>
      <path id="Path_3790" data-name="Path 3790" d="M185.39,124.39c-6.82-2.89-13.95-2.43-16.81-2.21-4.44.33-7.42,1.19-9.24-.62a8,8,0,0,1-1.95-3.47c-.28-1.24,0-1.77-.29-2.88a6.205,6.205,0,0,0-2.43-3.32,29.731,29.731,0,0,0-1.4,11.65c.17,2.05,1.01,9.57,5.38,12.9.66.5,2.6,1.98,3.69,1.33a1.631,1.631,0,0,0,.66-1.11,13.655,13.655,0,0,1,2.8-4.79c3.5-3.84,8.21-4.38,10.19-4.61a20.011,20.011,0,0,1,12.17,2.65,13.553,13.553,0,0,1,.11,8.4,12.153,12.153,0,0,1-1.99,3.71,12.441,12.441,0,0,1-4.17,3.26,15.663,15.663,0,0,1-8.85,1.92c-2.79-.29-3.82-1.28-4.64-.59-1.23,1.03-.5,4.59,1.33,6.86,2.9,3.6,8.2,3.17,8.92,3.1,3.44-.33,5.71-2.13,7.96-3.91,2.2-1.74,5.2-4.13,6.78-8.33,2.08-5.5,1.23-12.75-3.12-16.96a14.625,14.625,0,0,0-5.09-2.98Z" fill="#fff"/>
      <path id="Path_3791" data-name="Path 3791" d="M151.37,146.47c-.73-1.37-1.61-2.94-2.65-2.88-.91.06-1.52,1.34-1.92,2.21a113.982,113.982,0,0,0-4.94,13.93c-.35,1.14-.93,2.92-1.77,5.09.65.6,1.3,1.2,1.95,1.81.44,1.03.88,2.06,1.33,3.1a9.083,9.083,0,0,0,4.68-2.84c.95-1.13,1.17-2.05,1.84-2.14.73-.1,1.92.78,3.87,5.53a6.463,6.463,0,0,0,4.1-3.32l.32-3.98c-.59-2.23-1.16-4.04-1.59-5.31-1.53-4.58-2.85-6.74-5.23-11.21Z" fill="#fff"/>
      <path id="Path_3792" data-name="Path 3792" d="M146.28,123.54a29.731,29.731,0,0,0-1.4-11.65,6.151,6.151,0,0,0-2.43,3.32c-.29,1.11-.02,1.63-.29,2.88a7.876,7.876,0,0,1-1.95,3.47c-1.82,1.81-4.8.95-9.24.62-2.85-.21-9.98-.67-16.81,2.21a14.78,14.78,0,0,0-5.09,2.98c-4.35,4.2-5.2,11.46-3.12,16.96,1.59,4.2,4.58,6.59,6.78,8.33,2.25,1.78,4.53,3.58,7.96,3.91.72.07,6.02.5,8.92-3.1,1.83-2.27,2.56-5.83,1.33-6.86-.82-.69-1.86.3-4.64.59a15.6,15.6,0,0,1-8.85-1.92,11.537,11.537,0,0,1-6.16-6.97,13.547,13.547,0,0,1,.11-8.4,19.918,19.918,0,0,1,12.17-2.65c1.98.23,6.69.77,10.19,4.61a13.5,13.5,0,0,1,2.8,4.79,1.69,1.69,0,0,0,.66,1.11c1.09.66,3.02-.82,3.69-1.33,4.37-3.33,5.21-10.85,5.38-12.9Z" fill="#fff"/>
      <path id="Path_3793" data-name="Path 3793" d="M207.95,134.06c1.44-1.29,3.53.31,4.76-.33,3.14-1.63.14-17.67-9.07-33.51a64.807,64.807,0,0,0-5.31-8.07,62.99,62.99,0,0,0-25.44-19.24,55.808,55.808,0,0,0-25.44-4.87c-13.21.73-22.46,6.29-27.87,9.62a68.428,68.428,0,0,0-20.02,18.8,62.737,62.737,0,0,0-11.39,30.63c-.46,6.19.13,12.68,1.33,12.83.95.12,1.69-3.88,4.64-9.07a40.64,40.64,0,0,1,7.19-9.2C99.1,124.74,90,137.67,88.61,148.1c-.27,2.04-1,7.48,1.77,9.51,1.12.82,2.21.64,3.32,1.77,1.58,1.61,1.45,4.07,1.33,6.19a21.781,21.781,0,0,1-2.88,9.51,60.9,60.9,0,0,0,5.31,22.11c.62-3.96,1.77-9.94,3.32-9.95.56,0,1.69.75,3.1,7.52.51,9.49-.11,14.44-.88,17.25-.21.76-.93,3.17.22,5.2.26.46,1.25,2.01,2.76,1.99a3.616,3.616,0,0,0,3.1-3.1c-.22-1.25-.44-2.51-.66-3.76-.38-6.31-.51-13.61,1.12-13.95.78-.16,1.69,1.34,2.09,2,3.24,5.35,1.04,13.31.19,16.38-.75,2.7-1.43,4.13-.85,6.18.58,2.03,2.33,4.43,4.43,4.41,2.43-.02,4.04-3.3,4.2-3.64,2.03-4.29-.94-7.58-1.05-14.37a25.383,25.383,0,0,1,1.61-9.19,23.082,23.082,0,0,1,3.76,1.44c2.35,1.15,3.66,1.79,4.2,2.99.9,2.01-1.3,3.53-1.84,6.72-.82,4.83,2.65,10.58,5.17,10.5,2.09-.07,4.45-4.19,4.41-7.93-.06-4.28-3.22-5.85-2.54-9.95a7.429,7.429,0,0,1,2.43-4.42c2.98-2.46,8.11-1.95,8.96-.11.81,1.75-2.78,3.5-2.54,7.19.16,2.53,2.08,5.22,3.87,5.2,1.96-.02,3.69-3.27,4.09-5.97.63-4.2-2.01-6.53-.77-8.07,1.19-1.49,5.2-1.29,6.75.66.54.68.96,1.8-1.3,11.35a34.838,34.838,0,0,0-1.22,6.13c-.2,2.7-.52,6.9,1.63,8.07,1.42.77,3.58.07,4.76-1.11,2.1-2.11,1.91-6.67-1.12-10.92-1.69-6.68-1.41-11.93.9-13.08a2.521,2.521,0,0,1,2.21,0c1.94,1.05,1.12,4.87,1.02,10.58-.21,11.98,3.07,14.69.58,19.99a8.933,8.933,0,0,0-1.05,4.82c.22,2.3,1.56,4.82,2.76,4.76,1.36-.07,2.17-3.41,2.32-4.09a14.086,14.086,0,0,0-.39-7.27c-1.01-3.19-1.66-8.64.17-18.5a13.05,13.05,0,0,1,.06-2.6c.13-1.14.72-6.29,3.48-7.02,1.46-.39,3.41.49,3.76,1.66.35,1.15-1.07,1.85-.98,3.75a4.225,4.225,0,0,0,1.32,2.8,4.293,4.293,0,0,0,5.2.32,4,4,0,0,0,1.66-3.54c-.21-1.63-1.7-2.16-2.21-4.64a2.322,2.322,0,0,1,0-1.33c.41-1.17,1.85-1.4,2.65-1.88,1.08-.65,2.09-2.42,1.66-7.41a15.295,15.295,0,0,1,5.86,16.59c-.74,3.17-1.47,6.34-2.21,9.51.93,6.45,3.93,10.38,6.08,10.17,1.86-.17,3.53-3.45,4.2-7.52-.15-1-.29-1.99-.44-2.99-.07-2.18-.15-4.35-.22-6.53-.24-2.88-.18-5.27.66-5.53.76-.24,1.7,1.37,2.23,1.11.66-.33-.27-3.13-.66-5.59a21.325,21.325,0,0,1,.63-9.13c.87-.56,2.12-1.41,3.54-2.54,3.69-2.94,6.04-4.82,6.97-7.85a10.255,10.255,0,0,0-.33-6.75c-1.78-4.04-5.69-4.28-6.64-8.41a5.651,5.651,0,0,1,.11-3.32c.6-1.58,1.61-1.57,2.32-2.88,1.4-2.58-1.07-5.35.11-6.52,1.05-1.04,3.2.93,4.98-.11,1.95-1.14,2.54-5.36.88-7.52-1.31-1.71-3.18-1.04-4.42-3.1a5.979,5.979,0,0,1-.66-3.76,3.959,3.959,0,0,1,1-2.54Zm-68.97,53.85c-2.16,3.59-2.08,4.23-3.02,4.57a2.568,2.568,0,0,1-2.64-.5c-.46-.52-.42-1.21-.38-2.16.05-1.1.1-2.7.11-4.74.73-1.87,1.8-3.16,2.76-3.07.19.02.41.09,1.77,1.62,1.73,1.93,1.96,2.45,1.93,3a2.592,2.592,0,0,1-.53,1.28Zm8.4.29c-.5,1.64-.77,1.99-1.03,2.21-1.28,1.12-3.57.35-4.13.15.12-.98.25-1.97.37-2.95l-.66-5.97c.59-.93,1.18-1.87,1.77-2.8,1.08.74,2.16,1.47,3.24,2.21.43,1.18.86,2.35,1.29,3.53a28.937,28.937,0,0,1-.85,3.63Zm7.62,5.12c-1.24-.11-2.47-.22-3.71-.32-.07-2.53-.15-5.06-.22-7.59a8.806,8.806,0,0,1,.81-2.14c.59-1.1,1.22-2.27,2.17-2.36s2.07.94,2.64,2.52c.21,1.22.43,2.44.64,3.66-.78,2.08-1.55,4.16-2.33,6.23Zm10.59-5.93a6.17,6.17,0,0,1-.83,2.2,8.33,8.33,0,0,0-.72,4.43c-1.16-.17-2.31-.34-3.47-.52-.2-1.13-.38-2.31-.54-3.53a66.437,66.437,0,0,1-.5-6.71l3.24-.96,2.45,2.69a4.835,4.835,0,0,1,.35,2.4Zm5.91,9.97a4.473,4.473,0,0,1-3.65-.85c-1.52-1.42-1.62-4.44.37-6.78l2.01-2.04,2.41.12c.06.8.11,1.59.17,2.39l-1.32,7.17Zm34.01-68.5c-.75.15-1.69-4.9-6.19-10.62-1.4-1.78-3.97-4.52-4.98-3.98-.63.34-.43,1.86-.22,3.32.42,2.92,1.37,5.14,3.1,8.74,2.17,4.52,2.32,4.44,2.88,6.08a24.9,24.9,0,0,1,1.33,6.64c.14,2.88.22,4.54-.66,6.3-1.49,2.95-3.86,2.54-5.31,5.53-.42.87-.51,2.36-.66,5.31-.27,5.18-.41,7.77.33,8.96,1.57,2.52,3.91,1.6,6.41,4.65,1.9,2.3,2.66,5.39,1.99,5.86-.76.54-3.89-1.89-5.97-4.31-1.55-1.81-2.19-3.24-3.1-3.1a2.262,2.262,0,0,0-1.33,2.43c.18,1.21,1.39,1.25,2.88,3.21a8.1,8.1,0,0,1,1.44,2.76,6.953,6.953,0,0,1,0,3.98,5.308,5.308,0,0,1-8.19,3.32,7.917,7.917,0,0,1-3.43-5.09c-1.19-4.69,1.51-8.16-.11-9.51-.44-.37-1.19-.33-2.65-.22-3.4.24-5.97.43-7.08,2.1-1.53,2.32.31,6.69,2.1,8.96a15.4,15.4,0,0,1,2.21,3.21c.7,1.42,1.32,2.68.77,3.76-.57,1.13-2.33,1.61-3.65,1.33-2.26-.49-3.47-3.26-3.65-3.66-.59-1.34-.56-2.37-1.22-2.54-.54-.14-.81.5-2.03.92-.35.12-1.91.66-2.65,0-.6-.54-.02-1.28-.63-2.24-.63-1-1.57-.68-2.17-1.6-.77-1.17.18-2.53-.35-2.91-.81-.57-3.08,2.5-4.66,1.88-.88-.35-.58-1.47-1.88-2.68-.23-.22-1.61-1.5-2.99-1.3-2.38.35-2.56,4.81-4.72,5.01-1.13.11-2.22-1.01-2.8-1.62-1.3-1.35-1.06-2.36-2.21-3.1a3.345,3.345,0,0,0-3.1-.29c-2.08,1.06-.99,4.77-2.8,5.6-1.5.69-3.02-1.5-5.16-.74a4.354,4.354,0,0,0-2.06,1.92c-1.97,2.82-.87,4.8-2.21,6.19-1.67,1.73-6.05,1.47-8.41-.88-2.62-2.62-1.71-6.83-1.59-7.36.81-3.49,3.28-4.15,3.21-7.24a8.682,8.682,0,0,0-1.47-4.13,8.55,8.55,0,0,0-3.98-4.13c-.43-.18-2.84-1.19-4.57,0-.72.5-1.02,1.27-1.62,2.8a9.016,9.016,0,0,0-.74,5.06c.14.66.38,1.39.38,1.39.27.81.51,1.3.73,2.03,0,0,.18.61.33,1.45.32,1.88.9,5.26-.85,7.91a8.222,8.222,0,0,1-5.01,3.24,12.5,12.5,0,0,1-4.57-4.28,13.5,13.5,0,0,1-1.8-8.72c.6-4.25,3.04-5.62,2.2-8.72-.37-1.38-.9-1.27-1.58-3.2-.96-2.74-1.06-6.2,0-6.64,1.3-.53,3.79,3.73,4.46,3.32.16-.1.31-.51-1.81-6.41-.73-2.05-1.11-3.09-1.62-4.28-1.25-2.89-1.91-3.66-2.51-5.01-1.54-3.52-.87-7.03-.29-10.03.78-4.07,1.74-3.89,3.65-10.16,2.39-7.84,1.19-9.12.77-9.45a2.092,2.092,0,0,0-2.21-.28c-.54.36-.4,1.15-.67,2.23-.37,1.48-.45,2.41-.88,3.86-1.49,5.12-5.28,9.89-6.64,9.4-.66-.24-.09-1.49.55-10.73.09-1.24.2-3.06,1.44-3.87,1-.66,1.92-.01,3.1-.66,1.02-.56,1.44-1.64,1.99-3.48a50.063,50.063,0,0,0,1.55-6.48c.61-4.24.87-6.46,1.88-8.63a18.042,18.042,0,0,1,9.84-9.07,16.251,16.251,0,0,1,5.2-.88c1.34-.05,2.67-.09,2.88.44.39.99-3.46,2.79-3.1,3.87.25.75,2.38.78,3.87.44a8.05,8.05,0,0,0,4.42-2.88,11.42,11.42,0,0,0,1.88-3.76c.82-2.46.5-3.55,1.33-3.98a2.7,2.7,0,0,1,3.21,1.44c.34.95-.47,1.59-.11,2.21.57.99,3.61,1.12,4.87-.33,1.47-1.69-.73-4.08.66-6.19,1.02-1.54,2.46-.68,6.08-2.54,3-1.54,3.97-3.14,5.09-2.65.91.39,1.35,1.93,1.11,3.1-.35,1.69-1.93,1.66-2.76,3.65a4.864,4.864,0,0,0,.11,3.98c.11.2.95,1.73,2.21,1.77,1.48.05,2.82-1.97,3.32-3.65.98-3.31-1.33-5.26,0-7.19a3.437,3.437,0,0,1,3.65-1.33,3.042,3.042,0,0,1,1.55,1.66,18.988,18.988,0,0,1,1.88,6.08c.48,3.35,1.89,2.84,4.42,8.4,2.16,4.76,1.92,6.87,4.76,11.39,1.65,2.62,2.59,3.28,3.43,3.21,1.49-.12,2.52-2.53,2.88-4.09.93-4.08-1.46-7.85-2.76-9.84-2.47-3.77-4.07-3.8-7.85-8.96-1.28-1.75-3.57-4.87-2.88-5.64.56-.62,2.98.39,4.76,1.66,4.95,3.54,4.2,8.61,7.96,9.73,1.49.44,2.16-.19,5.09.55a9.31,9.31,0,0,1,3.54,1.33c2.62,1.98,1.06,5.09,3.65,9.4.36.6,2.54,4.24,4.87,3.98,1.47-.16,1.92-1.77,3.32-1.77,1.57,0,2.77,2.03,3.43,3.21a51.1,51.1,0,0,1,5.53,14.6c.99,5.61,1.5,12.11.66,12.28Z" fill="#fff"/>
    </g>
  </g>
</svg>
