<svg id="Component_240_1" data-name="Component 240 – 1" xmlns="http://www.w3.org/2000/svg" width="342.24" height="342.24" viewBox="0 0 342.24 342.24">
  <g id="Component_230_15" data-name="Component 230 – 15">
    <g id="Rectangle_3295" data-name="Rectangle 3295" transform="translate(171.12) rotate(45)" fill="#fff" stroke="#000" stroke-width="3">
      <rect width="242" height="242" stroke="none"/>
      <rect x="1.5" y="1.5" width="239" height="239" fill="none"/>
    </g>
    <g id="Rectangle_3296" data-name="Rectangle 3296" transform="translate(171.421 30) rotate(45)" stroke="#000" stroke-width="3">
      <rect width="200" height="200" stroke="none"/>
      <rect x="1.5" y="1.5" width="197" height="197" fill="none"/>
    </g>
  </g>
  <g id="Group_262" data-name="Group 262" transform="translate(14.517 13.287)">
    <path id="Path_3031" data-name="Path 3031" d="M157.31,254.78c13.98-.9,23.86-6.29,30.36-17.25,5.93-10.01,11.75-20.1,17.59-30.17q21.36-36.855,42.73-73.7a33.628,33.628,0,0,1,2.6-3.4l1.32.45c-.22,1.33-.07,2.88-.71,3.97-13.24,22.5-26.63,44.92-39.85,67.42-7.24,12.32-14.06,24.88-21.39,37.15-6.55,10.96-16.55,16.13-29.08,18.86-8.77,1.91-14.16-2.25-20.73-4.97.09-.44.19-.89.28-1.33,2.13.38,4.51.28,6.36,1.23,5.52,2.82,8.32-.06,10.76-4.42,6.34-11.31,12.68-22.61,19.11-33.86,4.61-8.08,9.56-15.96,13.99-24.13,10.74-19.85,21.24-39.82,31.87-59.72,2.74-5.13,5.75-10.12,8.4-15.29,1.61-3.13,2.97-2.75,5.2-.6,9.03,8.72,9.1,8.68,2.8,19.7-18.98,33.21-38.22,66.26-56.75,99.72-3.46,6.25-8.19,9.07-14.15,9.79-6.63.8-7.62,5.65-10.71,10.55Z" fill="#fff"/>
    <path id="Path_3032" data-name="Path 3032" d="M161.9,59.42c-9.77,6.58-16,16.28-21.63,27.33-1.54-4.79-2.03-5.11,8.16-21.14,3.89-6.11,10.63-10.39,16.08-15.51-.36-.46-.72-.93-1.08-1.39q-6.885,4.95-13.78,9.89l-.76-.73a17.867,17.867,0,0,1,1.74-3.2,52.183,52.183,0,0,1,4.52-4.65c2.61-2.42,5.33-6.63,7.95-6.59,2.7.04,5.4,4.19,7.98,6.68,4.63,4.46,9.17,9.03,14.52,14.32-7.2,6.42-14.47,11.75-20.23,18.38-6.03,6.94-10.59,15.15-15.82,22.78-1.46,2.13-3,4.2-4.51,6.3-.7-.44-1.39-.88-2.09-1.32,3.82-7.87,7.27-15.94,11.55-23.54,4.33-7.69,9.49-14.91,14.28-22.34-.5-.44-1-.87-1.5-1.31-1.91,1.4-4.19,2.49-5.68,4.24-6.25,7.38-11.68,15.19-14.33,24.8-.99,3.61-4.07,6.61-5.95,10.02a53.474,53.474,0,0,0-4.07,8.84c-1.41,4.25-2.44,8.63-3.48,12.99-1.22,5.12-2.3,10.28-3.4,15.43-.26,1.23-.38,2.49-.56,3.73-.59.02-1.18.04-1.77.07-.2-5.48-1.61-11.25-.33-16.36,2.29-9.13,6.29-17.81,9.42-26.74,4.91-14.03,11.93-26.66,23.5-36.37a8.977,8.977,0,0,0,1.56-1.94,12.483,12.483,0,0,0,.79-1.74c-.36-.31-.71-.62-1.07-.93Z" fill="#fff"/>
    <path id="Path_3033" data-name="Path 3033" d="M114.2,169.6c-1.29-9.64-2.66-19.26-3.85-28.91-1.85-14.93.46-29.6,3.85-44.02,1.29-5.49,4.69-10.54,7.47-15.61,4.3-7.84,8.74-15.61,13.43-23.22a60.716,60.716,0,0,1,7.18-8.87c3.48-3.81,7.25-7.34,10.75-11.13,1.83-1.98,3.16-3.21,5.5-.41,2,2.39,2.06,3.94-.64,5.54-11.32,6.68-17.63,17.65-22.74,28.93-4.23,9.33-8.88,19-6.78,30.12,1.04,5.53-.65,10.62-4.32,15.34a25.446,25.446,0,0,0-5.69,17.15c.3,6.1.82,12.33-3.29,17.77-.67.89-.08,2.81.08,4.23.49,4.28,1.06,8.55,1.6,12.83l-2.54.27Zm2.67-49.24c.59.22,1.18.44,1.76.66q3.375-9.765,6.76-19.52c-.6-.21-1.2-.42-1.79-.63-5.19,5.41-5.01,12.81-6.73,19.5Z" fill="#fff"/>
    <path id="Path_3034" data-name="Path 3034" d="M66.2,125.19c.5,5.4.6,9.49,1.32,13.48.86,4.72,2.22,9.34,3.43,13.99.29,1.12,1.23,2.19,1.19,3.25-.41,11.35,6.99,19.75,11.37,29.17,3.45,7.41,8.78,13.98,13.47,20.79,4.21,6.11,8.61,12.09,13.05,18.03,2.02,2.7,4.34,5.17,5.88,8.74a14.427,14.427,0,0,1-3.11-1.33c-14.62-10.78-26.02-24.57-36.66-39.11-9.79-13.37-14.92-28.4-16.61-44.75-.39-3.77-.96-7.54-1.07-11.32-.15-5.02,3.92-7.07,7.73-10.94Zm5.99,50.24a48.392,48.392,0,0,0,12.98,23.08c-1.87-10.19-7.13-16.81-12.98-23.08Z" fill="#fff"/>
    <path id="Path_3035" data-name="Path 3035" d="M132.34,215.12c-3.31-3.36-6.83-6.53-9.89-10.1-7.41-8.66-14.72-17.42-21.77-26.37-1.55-1.97-1.89-4.92-2.73-7.43-.15-.45.15-1.24-.1-1.43-4.14-3.18-2.07-7.45-2.28-11.43-.57-10.37-2.04-20.71-2.29-31.08-.26-10.55-1.36-21.44,3.92-31.27,1.51-2.81,4.32-4.91,6.54-7.34.8,2.92,2.58,5.99,2.17,8.72a38.691,38.691,0,0,1-4.39,12.53,34.042,34.042,0,0,0-2.86,26.81,14.23,14.23,0,0,1,.38,3.92c-.15,17.74,7.33,32.73,16.79,47.04,1.61,2.44,2.71,5.2,4.21,7.71a83.579,83.579,0,0,0,4.9,7.43c2.83,3.76,5.83,7.39,8.77,11.07-.45.4-.91.8-1.36,1.2Z" fill="#fff"/>
    <path id="Path_3036" data-name="Path 3036" d="M91.15,149.21c-6.9-9.75-7.9-20.1-8.25-30.54-4.41-.65-5.88-2.94-3.69-6.29,1.74-2.67,4.27-4.84,6.63-7.44,1.79,14.93,3.49,29.09,5.3,44.27Z" fill="#fff"/>
    <path id="Path_3037" data-name="Path 3037" d="M155.85,107.16q-2.55,13.35-5.1,26.71c-.53-.12-1.06-.23-1.59-.35-1.35-9.51.07-18.45,6.69-26.37Z" fill="#fff"/>
    <path id="Path_3038" data-name="Path 3038" d="M109.45,84.2c3.3-8.75,11.49-13.47,17.17-20.27l1.45,1.19-17.01,20.4c-.54-.44-1.07-.88-1.61-1.33Z" fill="#fff"/>
    <path id="Path_3039" data-name="Path 3039" d="M55.91,163.49c-7.19-5.68-4.52-14.02-6.2-21.15-.16-.66,1.15-1.66,2.09-2.94C53.28,148.09,54.6,155.79,55.91,163.49Z" fill="#fff"/>
    <path id="Path_3040" data-name="Path 3040" d="M151.04,177.14c1.52,4.52,3.03,9.05,4.87,14.53-8.42-3.04-5.96-9.08-6.41-14.01.51-.17,1.03-.35,1.54-.52Z" fill="#fff"/>
    <path id="Path_3041" data-name="Path 3041" d="M145.97,154.86c0-3.7-.2-7.42.13-11.09.09-.99,1.77-1.84,2.72-2.75.43,1.13,1.39,2.36,1.19,3.36-.71,3.52-1.82,6.97-2.78,10.44l-1.26.03Z" fill="#fff"/>
    <path id="Path_3042" data-name="Path 3042" d="M79.73,147.6c-1.77-3.52-4.51-6.81-1.32-11.53q1.545,5.475,3.1,10.95Z" fill="#fff"/>
    <path id="Path_3043" data-name="Path 3043" d="M132.91,167.28c3.2,1.9,2.84,5.11,2.68,8.25-.6.21-1.19.42-1.79.63-.9-2.75-1.8-5.49-2.69-8.24C131.71,167.71,132.31,167.49,132.91,167.28Z" fill="#fff"/>
    <path id="Path_3044" data-name="Path 3044" d="M147.94,172.69q-.915-3.765-1.84-7.53c.6-.12,1.71-.36,1.72-.34.59,2.5,1.1,5.01,1.61,7.53-.5.11-1,.23-1.5.34Z" fill="#fff"/>
  </g>
</svg>
