<svg id="Component_229_1" data-name="Component 229 – 1" xmlns="http://www.w3.org/2000/svg" width="342.24" height="342.24" viewBox="0 0 342.24 342.24">
  <g id="Rectangle_3292" data-name="Rectangle 3292" transform="translate(171.12) rotate(45)" fill="#fff" stroke="#000" stroke-width="3">
    <rect width="242" height="242" stroke="none"/>
    <rect x="1.5" y="1.5" width="239" height="239" fill="none"/>
  </g>
  <g id="Rectangle_3291" data-name="Rectangle 3291" transform="translate(171.421 30) rotate(45)" stroke="#000" stroke-width="3">
    <rect width="200" height="200" stroke="none"/>
    <rect x="1.5" y="1.5" width="197" height="197" fill="none"/>
  </g>
  <path id="Path_5557" data-name="Path 5557" d="M229.11,153.87c0,7.5-.22,15.01.09,22.5.16,3.9-1.37,4.89-4.89,4.86-13.17-.12-26.34.08-39.5-.16-4.32-.08-5.91,1.25-5.83,5.69.24,13.33.05,26.67.2,40,.05,4.07-.98,6.01-5.63,5.92-12.66-.25-25.34.17-38-.05a24.077,24.077,0,0,1-9.71-2.49c-1.14-.55-1.57-3.48-1.59-5.34-.11-12.5-.21-25.01.11-37.5.12-4.6-1.31-6.26-5.92-6.2-11.97.16-23.94.03-35.9-.1a16.406,16.406,0,0,1-5.77-1.08c-5.55-2.21-5.45-2.27-2.26-7.36a4.522,4.522,0,0,0,.05-3.11c-.6-2.38-1.98-4.69-2.04-7.06-.24-10.16.1-20.34-.24-30.5-.15-4.62,1.46-5.49,5.77-5.39,13.15.32,26.31.19,39.46.1,6.64-.05,6.82-.6,6.72-7.14-.19-12.5-.2-24.99-.11-37.49a8.278,8.278,0,0,1,8.24-8.07q19.755-.03,39.5-.04c6.51,0,7.11.49,7.16,7.54.1,12.83.06,25.66.04,38.49,0,6.44-.04,6.43,6.3,6.43,12.64,0,25.28.05,37.93-.03,4.25-.03,6.32,1.25,6.03,6.09-.44,7.14-.11,14.33-.11,21.5h-.09Z" transform="translate(20.729 18.14)" fill="#fff"/>
</svg>
