<svg id="Component_327_1" data-name="Component 327 – 1" xmlns="http://www.w3.org/2000/svg" width="342.24" height="342.24" viewBox="0 0 342.24 342.24">
  <g id="Component_230_36" data-name="Component 230 – 36">
    <g id="Rectangle_3295" data-name="Rectangle 3295" transform="translate(171.12) rotate(45)" fill="#fff" stroke="#000" stroke-width="3">
      <rect width="242" height="242" stroke="none"/>
      <rect x="1.5" y="1.5" width="239" height="239" fill="none"/>
    </g>
    <g id="Rectangle_3296" data-name="Rectangle 3296" transform="translate(171.421 30) rotate(45)" stroke="#000" stroke-width="3">
      <rect width="200" height="200" stroke="none"/>
      <rect x="1.5" y="1.5" width="197" height="197" fill="none"/>
    </g>
  </g>
  <g id="Layer_1-2" transform="translate(20.18 14.37)">
    <g id="Layer_1-2-2" data-name="Layer_1-2">
      <g id="Group_143" data-name="Group 143">
        <path id="Path_3659" data-name="Path 3659" d="M241.42,193.85c-14.2,14.39-28.17,28.54-41.17,41.72-4.23-2.21-8.07-4.21-11.89-6.25-.57-.31-1.37-.7-1.53-1.21-2.37-8.03-8.66-6.08-14.45-6.09-1.81,0-4.09-1.55-5.25-3.09-.72-.95-.28-3.61.61-4.78,3.34-4.41,3.57-8.96,2.23-14.12-1.16-4.47-1.29-9.21-2.48-13.68-2.05-7.7-8.38-11.9-17.03-11.91-8.51,0-15.05,4.34-17.05,11.94a86.982,86.982,0,0,0-3.18,17.04c-.19,3.37,1.85,6.85,2.76,10.31.47,1.77,1.54,4.33.78,5.26-1.26,1.54-3.69,2.51-5.78,2.89-3.61.65-7.33.62-11,.99-.56.06-1.52.71-1.52,1.09,0,5.62-4.54,5.45-8.13,6.88-2.14.85-3.75,3-5.19,4.21-13.31-13.52-27.08-27.5-41.07-41.71,1.49-.85,4.02-2.32,6.56-3.76q36.015-20.415,72.01-40.84c2.94-1.67,5.53-4,8.55-5.49a6.349,6.349,0,0,1,5.14-.06q42.735,24.27,85.31,48.83c1.09.63,2.11,1.38,2.79,1.83h-.02ZM185.87,176.5q4.125,2.925,8.13,5.86,11.19,6.465,22.39,12.94c-21.41-14.13-30.69-20.35-31.05-20.75-.01-.01-.15-.16-.34-.35a6.756,6.756,0,0,0-.97-.74c-10.4-7.05-20.81-14.09-31.29-21.02-.85-.57-2.24-.32-4.64-.6,12.41,7.46,25.04,15.65,37.77,24.67Zm-67.96-3.12q-16.35,10.125-32.69,20.24l-5.87,3.22q23.6-12.87,47.66-27.64,4.23-2.61,8.4-5.23,7.5-5.325,15.01-10.64c-.48-.31-.96-.63-1.44-.94-7.15,5.24-14.71,10.49-22.7,15.67q-4.215,2.73-8.37,5.31Z" fill="#fff"/>
        <path id="Path_3660" data-name="Path 3660" d="M263.37,169.59c-15.52-4.46-29.85-11.39-44.03-19.13-16.77-9.16-31.86-20.52-47.11-31.8-3.97-2.94-4.03-5.66-2.09-9.68,3.32-6.87,6.37-13.88,9.24-20.95,2.16-5.32-1.39-9.36-7.12-8.43-3.25.52-5.19-.4-3.84-3.97,2.03-5.36.99-9.62-3.67-13.04a10.433,10.433,0,0,1-3.16-3.15,24.616,24.616,0,0,1-2.84-7.34c-1.01-6.56-1.42-13.2-2.4-19.76-.2-1.34-1.84-2.47-2.81-3.69-.41.21-.83.42-1.24.63a50.911,50.911,0,0,1-.08,6.77,20.612,20.612,0,0,1-1.72,4.54c-.66-1.45-1.69-2.84-1.9-4.34a51.058,51.058,0,0,1-.09-7.11c-.58-.18-1.17-.35-1.75-.53-.9,1.51-2.37,2.95-2.59,4.56-.64,4.61-1.36,9.33-.94,13.91.36,3.9.54,6.74-3.92,8.03-.76.22-1.52,1.82-1.58,2.83a97.178,97.178,0,0,0-.18,11.82c.27,4.12-9.7,17.13-13.76,17.45-.48.03-.97-.24-1.46-.23-1.64.05-3.28.16-4.92.24.41,2.32.23,5,1.37,6.87a134.523,134.523,0,0,0,8.83,12,19.008,19.008,0,0,0,2.86,2.48c.35-.3.7-.61,1.05-.92q-2.5-4.38-5.02-8.76c-1.74-3.03-1.68-5.72,1.59-7.69,4.46-2.68,8.94-5.31,13.66-8.12.75,3.42,1.41,6.41,2.1,9.57h0c-3.53.27-6.93,0-9.94.96-1.6.5-3.8,3.44-3.49,4.76.73,3.09,2.14,6.68,4.48,8.61,4.11,3.41,2.8,4.95-.48,7.81-10.06,8.77-22.61,14.49-31.02,25.27-.24.3-.94.22-1.39.39a66.215,66.215,0,0,0-6.77,2.69c-12.71,6.54-25.24,13.45-38.1,19.68-6.63,3.22-13.82,5.3-21.32,8.1,3.23,3.27,5.98,6.57,9.28,9.18a7.489,7.489,0,0,0,6.06,1.13,128.9,128.9,0,0,0,15.13-6.44,534.192,534.192,0,0,0,74.66-44c2.7-1.92,4.7-2.41,6.5.73,2.39,4.19,4.56,3.56,6.77-.15,1.48-2.48,3.08-2.79,5.69-.99,8.21,5.67,16.33,11.6,25.04,16.41,20.79,11.5,41.89,22.46,62.95,33.47,2,1.05,5.45,2,6.86,1.02,3.96-2.75,7.2-6.53,11-10.17a14.135,14.135,0,0,0-2.39-1.52Zm-112.01-121-3.42,2.85,3.33-5.19c1.08,1.73,2.17,3.46,3.25,5.19C153.47,50.49,152.41,49.54,151.36,48.59Z" fill="#fff"/>
      </g>
    </g>
  </g>
</svg>
