<svg id="Component_299_1" data-name="Component 299 – 1" xmlns="http://www.w3.org/2000/svg" width="342.24" height="342.24" viewBox="0 0 342.24 342.24">
  <g id="Component_230_44" data-name="Component 230 – 44">
    <g id="Rectangle_3295" data-name="Rectangle 3295" transform="translate(171.12) rotate(45)" fill="#fff" stroke="#000" stroke-width="3">
      <rect width="242" height="242" stroke="none"/>
      <rect x="1.5" y="1.5" width="239" height="239" fill="none"/>
    </g>
    <g id="Rectangle_3296" data-name="Rectangle 3296" transform="translate(171.421 30) rotate(45)" stroke="#000" stroke-width="3">
      <rect width="200" height="200" stroke="none"/>
      <rect x="1.5" y="1.5" width="197" height="197" fill="none"/>
    </g>
  </g>
  <g id="Group_297" data-name="Group 297" transform="translate(15.774 11.83)">
    <path id="Path_3985" data-name="Path 3985" d="M121.73,206.56q-3.48-10.98-6.97-21.96c-.44-.8-.87-1.59-1.31-2.39a4.937,4.937,0,0,1,1.37-.99c2.09-1.01,3.71.13,4.94-.69.69-.46.84-1.51,1.12-3.6.38-2.86.69-5.24-.3-8.04-.64-1.8-1.8-3.69-2.31-3.54-.45.13.03,1.7-.29,4.1-.11.86-.66,4.97-3.69,6.98a4.516,4.516,0,0,1-2.97.92,4.592,4.592,0,0,1-3.11-1.95,6.884,6.884,0,0,1-1.01-4.71,7.606,7.606,0,0,1,.71-3.33c1.12-2.23,2.71-2.04,3.62-4.12.69-1.57.54-3.44-.05-3.68-.76-.31-1.91,2.16-3.11,1.86a1.941,1.941,0,0,1-1.05-2.28c.32-.87,1.46-.71,1.99-1.77.38-.77.23-1.78-.13-1.93-.43-.17-.9.97-1.66.89a1.628,1.628,0,0,1-1.17-1.81c.2-.65,1.09-.6,1.43-1.39a1.833,1.833,0,0,0-.02-1.31,5.2,5.2,0,0,1-4.2.15c-1.41-.63-2.82-2.12-2.66-3.55.15-1.36,1.59-1.57,2.23-2.64,2.12-3.51-6.26-12.96-13.8-19.65a100.193,100.193,0,0,0-9.64-7.58,68.316,68.316,0,0,0-1.95,9.89c-1.56,12.83.59,25.79,4.26,26.38,1.09.17,1.99-.8,2.96-.18,1.23.78,1.51,3.44.44,5.11-1.03,1.6-2.95,1.74-2.87,2.39.11.93,4.06.82,4.24,1.9.16.94-2.69,2.03-2.49,2.57.18.49,2.54-.44,4.42.81.18.12.98.65.88,1.1-.19.85-3.31.32-3.59,1.18-.26.79,1.95,2.58,4.52,3.56,3.52,1.35,4.69.21,6.64,1.63a6.752,6.752,0,0,1,2.59,5.73,4.187,4.187,0,0,1-1.16,2.99c-1.13,1.01-2.72.79-4.59.55a10.489,10.489,0,0,1-4.74-1.59c-2.51-1.66-3.35-4.02-3.97-3.77-.43.18-.26,1.44-.22,1.74a7.171,7.171,0,0,0,2.48,4.2c1.83,1.72,2.45,1.2,3.37,2.58.85,1.27.56,2.09,1.64,3.19a3.015,3.015,0,0,0,2.17,1.19c1.15-.1,1.3-1.47,3.6-3.17.77-.57,1.4-.89,2-.73a1.769,1.769,0,0,1,.98.85c1.14,1.89,9.2,20.44,10.13,22.58a10.923,10.923,0,1,0,10.35-4.66Zm-1.32,18.13a7.37,7.37,0,1,1,7.37-7.37A7.37,7.37,0,0,1,120.41,224.69Z" fill="#fff"/>
    <path id="Path_3986" data-name="Path 3986" d="M178.36,157.31c-.95,0-.76,3.55-3.15,7.1a14.994,14.994,0,0,1-5.36,4.67c-2.31,1.34-4.29,2.49-6.32,1.79a6.029,6.029,0,0,1-3.16-3.3,9.616,9.616,0,0,1,.27-8.93c1.79-2.94,3.95-2.08,7.83-5.77,2.83-2.68,4.76-6.24,3.98-7.14-.84-.97-4.65,1.42-5.36.41-.38-.54.38-1.66.55-1.92,1.78-2.67,5.39-2.74,5.36-3.48-.03-.81-4.37-.7-4.67-2.01-.35-1.51,4.9-3.53,4.53-4.81-.26-.89-2.85-.03-5.07-1.57-2.32-1.61-3.39-5.26-2.21-6.94.93-1.33,2.64-.55,3.98-1.37,4.51-2.78.25-20.96-8.79-36.95a97.231,97.231,0,0,0-7.96-11.92,143.942,143.942,0,0,0-8.52,15.21c-6.24,12.89-12.09,29.86-7.39,33.32,1.43,1.05,3.44.55,4.37,2.25.98,1.8-.05,4.52-1.56,6.11a7.368,7.368,0,0,1-5.6,2.1,2.594,2.594,0,0,0,.68,1.73c.88.85,2.01.3,2.63,1.04a2.314,2.314,0,0,1-.55,3.02c-.96.52-2.19-.72-2.66-.27-.4.39-.04,1.8.88,2.6,1.27,1.11,2.67.26,3.57,1.24a2.759,2.759,0,0,1-.14,3.57c-1.41,1.05-4.27-1.57-5.1-.74-.65.64.18,3.17,1.94,4.86,2.33,2.23,4.32,1.11,7,3.43a11.054,11.054,0,0,1,2.75,3.98c.83,1.77,1.9,4.06,1.24,6.73a6.531,6.531,0,0,1-3.02,4.26,6.415,6.415,0,0,1-4.4.41c-5.08-.99-8.03-6.07-8.65-7.14-1.73-2.97-1.95-5.29-2.61-5.22-.76.08-1.24,3.19-1.1,5.91.22,4.21,1.93,7.16,3.98,10.71,1.5,2.59,2.28,3.89,3.43,4.12,2.06.4,3.58-1.97,6.87-1.79a7.092,7.092,0,0,1,2.33.55l-.41,3.85q1.425,16.5,2.86,33.01h0a15.4,15.4,0,1,0,16.07.4h.01c.03-1.66.5-32.26.98-35.47a2.567,2.567,0,0,1,.82-1.65c.7-.54,1.7-.46,3.02-.14,3.95.97,4.89,2.69,6.46,2.2,1.25-.39,1.84-1.87,2.2-2.75.82-2.04,0-2.95.41-5.08.45-2.31,1.56-1.96,3.02-5.22,1.72-3.82,1.11-6.33.96-6.87-.11-.42-.58-2.16-1.24-2.16Zm-25,80.46a10.4,10.4,0,1,1,10.4-10.4A10.4,10.4,0,0,1,153.36,237.77Z" fill="#fff"/>
    <path id="Path_3987" data-name="Path 3987" d="M234.2,128.42a68.026,68.026,0,0,0-1.95-9.89,102.229,102.229,0,0,0-9.64,7.58c-7.53,6.69-15.92,16.14-13.8,19.65.65,1.07,2.08,1.29,2.23,2.64.16,1.43-1.26,2.92-2.66,3.55a5.182,5.182,0,0,1-4.2-.15,1.833,1.833,0,0,0-.02,1.31c.34.79,1.23.74,1.43,1.39a1.622,1.622,0,0,1-1.17,1.81c-.76.08-1.23-1.06-1.66-.89-.36.14-.51,1.15-.13,1.93.52,1.06,1.67.89,1.99,1.77a1.941,1.941,0,0,1-1.05,2.28c-1.2.31-2.35-2.17-3.11-1.86-.59.24-.74,2.11-.05,3.68.91,2.08,2.51,1.89,3.62,4.12a7.579,7.579,0,0,1,.71,3.33,6.95,6.95,0,0,1-1.01,4.71,4.619,4.619,0,0,1-3.11,1.95,4.516,4.516,0,0,1-2.97-.92c-3.03-2.01-3.58-6.11-3.69-6.98-.32-2.4.16-3.96-.29-4.1-.51-.15-1.67,1.74-2.31,3.54-1,2.8-.68,5.18-.3,8.04.28,2.09.43,3.14,1.12,3.6,1.23.82,2.86-.31,4.94.69a4.742,4.742,0,0,1,1.37.99c-.44.8-.87,1.59-1.31,2.39q-3.405,10.74-6.82,21.49a10.907,10.907,0,1,0,10.21,5.08c1-2.32,8.97-20.66,10.11-22.54a1.769,1.769,0,0,1,.98-.85c.6-.16,1.23.16,2,.73,2.31,1.7,2.45,3.07,3.6,3.17.92.08,1.7-.72,2.17-1.19,1.08-1.1.79-1.92,1.64-3.19.92-1.38,1.54-.85,3.37-2.58a7.171,7.171,0,0,0,2.48-4.2c.04-.3.2-1.56-.22-1.74-.61-.26-1.46,2.1-3.97,3.77a10.615,10.615,0,0,1-4.74,1.59c-1.87.25-3.46.46-4.59-.55a4.2,4.2,0,0,1-1.16-2.99,6.764,6.764,0,0,1,2.59-5.73c1.96-1.43,3.13-.29,6.64-1.63,2.56-.98,4.78-2.77,4.52-3.56-.28-.86-3.4-.33-3.59-1.18-.1-.45.69-.98.88-1.1,1.88-1.25,4.24-.33,4.42-.81.2-.54-2.65-1.63-2.49-2.57.18-1.07,4.14-.97,4.24-1.9.07-.65-1.84-.79-2.87-2.39-1.07-1.67-.79-4.33.44-5.11.97-.61,1.87.36,2.96.18,3.68-.59,5.82-13.55,4.26-26.38Zm-42.91,95.84a7.37,7.37,0,1,1,7.37-7.37A7.37,7.37,0,0,1,191.29,224.26Z" fill="#fff"/>
  </g>
</svg>
