<svg id="Component_227_1" data-name="Component 227 – 1" xmlns="http://www.w3.org/2000/svg" width="340" height="340" viewBox="0 0 340 340">
  <g id="Component_223_1" data-name="Component 223 – 1">
    <g id="Ellipse_834" data-name="Ellipse 834" fill="#fff" stroke="#000" stroke-width="3">
      <circle cx="170" cy="170" r="170" stroke="none"/>
      <circle cx="170" cy="170" r="168.5" fill="none"/>
    </g>
    <circle id="Ellipse_835" data-name="Ellipse 835" cx="150" cy="150" r="150" transform="translate(20 20)"/>
  </g>
  <g id="Group_251" data-name="Group 251" transform="translate(9.181 9.226)">
    <path id="Path_3050" data-name="Path 3050" d="M248.33,250.21c-1.64-.72-3.57-1.11-4.85-2.24a100.611,100.611,0,0,1-7.51-7.8c-.36-.4-.62-1.42-.38-1.75,2.41-3.31-.7-3.81-2.45-5.06-1.77-1.26-3.49-2.6-5.23-3.91.33-.53.65-1.06.98-1.59q7.755,4.44,15.52,8.87c.29-.41.58-.82.87-1.22q-6.6-4.365-13.21-8.73l.87-1.47c10.29,5.19,20.58,10.38,31.55,15.92a15.369,15.369,0,0,1-1.67,3.13c-19.87,23.6-44.56,39.9-75.04,45.14-15.39,2.65-31.75,3.74-47.12,1.59-29.61-4.15-55.29-17.81-75.86-40-18.59-20.06-29.95-43.6-34.4-70.71-3.83-23.36-.44-45.67,7.36-67.65,1.52-4.28,3.97-5.48,7.87-3.49,3.04,1.55,5.91,3.45,8.85,5.19l-.54,1.35q-4.86,1.185-9.73,2.38c-.03.59-.05,1.18-.08,1.77q8.31,1.4,16.61,2.78c0,.38,0,.76-.01,1.14l-23.3,5.97c.03.36.05.72.08,1.07,5.44,1.81,10.88,3.62,17.06,5.68-2.03.64-3.75,1.18-5.36,1.69,6.3,1.55,1.57,3.83-.32,5.99,6.51.68,12.59,1.31,18.68,1.95.04.41.09.83.13,1.24L56.66,149.9l.09,1.29c11.19,2.92,23.39-2.93,34.28,2.61.09.67.17,1.34.26,2.01q-17.295,3.675-34.58,7.36c0,.27.02.54.03.81l9.3-.54c-2.61,1.51-4.51,2.61-7.33,4.24,14.52,2.36,26.16-5.22,38.86-7.38-2.65,5.91-7.96,7.71-13.08,9.79.12.52.24,1.04.36,1.55,2.66-.39,5.32-.77,7.7-1.12.8,1.71,1.66,3.56,2.73,5.86-.95.6-2.67,1.7-4.61,2.93.82,1.47,1.52,2.73,2.39,4.29-2.87,1.64-5.66,3.24-8.45,4.83l.6,1.47q6.3-1.23,12.59-2.47c.08.21.17.41.25.62l-6.08,4.31.69,1.41c3.27-1.18,6.55-2.37,10.06-3.64a11.422,11.422,0,0,1-.02,2.16c-.42,1.61-.92,3.19-1.39,4.79,1.57-.94,3.2-1.8,4.68-2.85,2.3-1.64,3.36-5.75,8.33-3.45-12.94,14.64-25.61,28.99-38.29,43.34.43.45.85.9,1.28,1.35,5.7-4.88,11.4-9.77,17.64-15.11,1.21,4.92-6,7.26-1.8,12.12,5.63-6.46,11.03-12.66,16.44-18.86.45.3.89.61,1.34.91-3.92,8.91-10.32,16.86-11.79,27.96,12.9-10.97,16.85-26.2,24.78-39.21,1.37.11,2.98.23,6.16.47-6.03,18.87-11.91,37.27-17.8,55.66,8.55-9.77,12.09-22.19,17.63-33.43v11.86l1.71.12c.55-2.97,1.07-5.94,1.67-8.9.33-1.62,1.05-3.2,1.11-4.81a47.349,47.349,0,0,0-.53-6.26c-.51.04-1.02.08-1.53.13a22.9,22.9,0,0,1,1.21-4.81c.44-.93,1.72-1.46,2.62-2.18.49,1.09,1.47,2.23,1.39,3.28-.58,7.56-1.08,15.14-2.2,22.63-1.05,6.99-3.01,13.85-4.21,20.82-.51,2.98-.09,6.12-.09,9.19l1.7.53c1.47-3.79,3.49-7.47,4.29-11.4,2.27-11.18,4.19-22.44,5.93-33.72.68-4.4.38-8.94.82-13.39.14-1.41,1.24-2.72,1.9-4.08.42,1.3,1.24,2.61,1.21,3.9-.37,15.37-.89,30.74-1.3,46.11-.06,2.39.27,4.79.42,7.18.6.13,1.2.27,1.8.4a27.4,27.4,0,0,0,1.71-5.29c1.5-12.99,2.82-26.01,4.35-39,.16-1.31,1.4-2.5,2.14-3.74.66,1.37,1.82,2.71,1.89,4.1.5,9.95.89,19.91,1.07,29.87a87.845,87.845,0,0,1-.9,9.93l1.22.3c.42-.39,1.17-.75,1.2-1.17.75-10.47,1.36-20.96,2.18-31.43a10.239,10.239,0,0,1,2.75-5.93c1.86,16.39-1.04,33.04,4.2,48.88h1.96c0-2.78.06-5.56-.02-8.34-.04-1.48-1.06-3.6-.4-4.32,5.95-6.58-2.01-13.73,1.03-20.53.88-1.97-.59-4.98-.16-7.71,8.76,6.65,7.64,17.6,11.4,26.32.68-.18,1.35-.35,2.03-.53-.62-3.77-1.24-7.53-2.02-12.32,5.8,3.5,3.53,11.65,11.5,13.47-1.71-4.19-3.21-7.49-4.38-10.91a23.835,23.835,0,0,1-.6-5.12,29.285,29.285,0,0,1,4.54,1.88c2.32,1.43,4.47,3.13,7.32,5.16-.17-2.36-.28-4.03-.48-6.77,1.43,1.35,2.38,1.93,2.86,2.77,1.85,3.24,3.87,4.27,8.07,3.6,2.81-.45,6.44,2.36,9.27,4.33,2.99,2.08,5.47,4.89,8.58,6.99.02-6.6-4.79-10.28-7.94-14.89a82.312,82.312,0,0,1-4.61-7.02c-.51-.95-.16-2.37-.2-3.57,1.38.02,3.24-.54,4.05.15,2.97,2.54,5.45,5.67,8.39,8.26,5.15,4.53,10.52,8.82,15.79,13.22.91-.99,1.81-1.98,2.72-2.98ZM60.85,198.19c9.54,1.78,10.91-7.78,17.23-10.46l-1.05-1.44-16.18,11.9Zm65.4,44.38q-1.485,8.985-2.95,17.93C129.81,252.07,130.55,245.56,126.25,242.57ZM68.14,208.18c.49.67.97,1.34,1.46,2.01q4.83-3.33,9.65-6.65c-.36-.53-.72-1.06-1.07-1.59q-5.01,3.12-10.03,6.23Z" fill="#fff"/>
    <path id="Path_3051" data-name="Path 3051" d="M218.23,100.56q-8.13,2.325-16.26,4.66l-.48-1.23c4.1-2.7,7.69-6.22,13.24-6.37,10.73-.28,19.08-6.55,28.25-10.72-.21-.58-.42-1.16-.64-1.75q-13.41,4.83-26.83,9.67l-.56-.59q9.915-6.855,19.83-13.7l-.87-1.56q-9.375,3.87-18.76,7.73l-.92-.98,10.49-10.01-1.03-1.27c-7.33,5.81-14.36,12.05-22.06,17.32-7.81,5.35-16.26,9.75-24.44,14.57-.29-.38-.59-.76-.88-1.14,2.69-2.22,5.32-4.53,8.09-6.66,5.39-4.14,10.88-8.15,16.25-12.31a6.049,6.049,0,0,0,1.33-2.47c.66-1.52,1.15-3.12,1.89-4.6a66.185,66.185,0,0,1,3.84-6.96c1.54-2.33,3.39-4.45,5.11-6.67,1.87-2.41,3.73-4.82,5.96-7.69-10.72,4.14-17.61,11.77-24.56,19.36-1.23,1.34-2.64,2.52-3.96,3.77-.36-.33-.73-.66-1.09-.98l20.34-29.34-1.19-.98c-3.51,3.98-7.07,7.92-10.51,11.96-2.48,2.91-4.23,7.02-7.34,8.72-7.65,4.17-10.9,11.42-14.95,18.25-.27.46-1.05.62-2.52.38q6.39-14.22,12.77-28.43c-.65-.34-1.31-.68-1.96-1.02q-5.415,7.665-10.83,15.32c-.4-.2-.8-.41-1.2-.61q6.405-14.625,12.8-29.26c-.7-.32-1.4-.64-2.09-.97q-7.545,15.585-15.08,31.17c-.42-.1-.85-.2-1.27-.31,1.08-4.42,1.93-8.91,3.3-13.23,1.56-4.91,3.71-9.63,5.32-14.52.43-1.31-.2-2.96-.34-4.46-1.55.47-3.56.47-4.57,1.48-3.72,3.69-9.15,6.02-9.66,12.41a106.587,106.587,0,0,1-2.12,12.22,13.7,13.7,0,0,1-1.19,2.77l-1.59-.42c.94-3.86,2-7.7,2.74-11.6.22-1.16-.43-2.49-.68-3.74-.91.95-2.43,1.79-2.63,2.87-1.02,5.51-1.32,11.16-2.58,16.6-1.82,7.88-4.2,15.64-6.5,23.41a2.053,2.053,0,0,1-3.97-.76c-.27-4.71-.46-9.43-.43-14.15.05-8.82.3-17.64.38-26.46,0-.68-.6-1.37-2.02-2-.09,1.96-.16,3.92-.28,5.88-.73,11.4-1.42,22.81-2.27,34.2-.1,1.38-1.06,2.69-1.62,4.03-.48-.14-.97-.27-1.45-.41-.27-1.55-.54-3.11-.81-4.66-4.65.01-7.16-3.63-8.49-10.24-1.81-8.98-4.33-17.81-6.55-26.71-.61.13-1.22.26-1.82.39a63.454,63.454,0,0,1,1.26,6.37,22.822,22.822,0,0,1-.36,4.41,30.137,30.137,0,0,1-3.35-2.12c-.84-.7-1.45-1.69-3.23-2.14.99,3.62,1.98,7.24,3.21,11.74-1.57-.82-2.48-1.05-3.02-1.64-.53-.57-.57-2.09-1.02-2.17-8.79-1.59-8.79-10.55-13.04-15.85-5.41-6.73-7.55-6.96,3.94-13.05,13.71-7.26,28.65-10.48,43.55-13.9,3.25-.75,3.83.98,3.54,3.59-1.12,10.08-2.51,20.14-3.27,30.25-.35,4.58.54,9.25.87,13.88l2.24.09c1.99-13.23,3.97-26.46,6.04-40.18-1.06.23-2.02.45-2.98.66-2.77-6.85-1.68-8.54,5.34-8.82a127.687,127.687,0,0,1,69.41,16.95c15.2,8.68,28.68,19.76,39.34,33.85.98,1.3.44,3.76.62,5.91,3.55-.91,5.97,2.27,7.76,6.08,4.65,9.89,11.05,19.47,13.1,29.89,1.57,7.99,6.68,14.97,5.78,23.7-.86,8.41.06,16.98-.22,25.47-.64,19.21-6.6,36.97-15.55,53.79-.6,1.13-3.27,2.39-4.12,1.95-8.4-4.38-16.63-9.09-24.88-13.77-.47-.27-.69-.98-1.03-1.48.24-.5.48-1,.71-1.5q12.885,5.61,25.77,11.23c.21-.45.41-.9.62-1.35-5.5-9.23-18.53-7.34-24.92-15.27.25-.51.5-1.01.75-1.52q9.945,3.405,19.89,6.8c.24-.51.49-1.03.73-1.54q-9.945-4.545-19.88-9.1l.6-1.59q14.16,4.59,28.31,9.17c.14-.26.27-.53.41-.79a11.021,11.021,0,0,0-2.43-1.7c-3.9-1.35-8.39-1.38-9.99-6.68-.39-1.31-3.66-1.84-5.67-2.54-4.13-1.45-8.3-2.79-12.46-4.17.1-.57.2-1.15.29-1.72,9.68.28,19.36.66,29.05.77,1.71.02,3.43-1.04,5.14-1.61-.09-.57-.17-1.14-.26-1.71q-16.635-4.74-33.28-9.49c.04-.41.07-.82.11-1.23,1.78-.29,3.55-.58,6.35-1.03-4.62-6.17-11.2-8.33-16.92-11.63.16-.44.33-.88.49-1.32q10.98,2.895,21.97,5.78c.22-.65.44-1.31.66-1.96q-4.395-1.935-8.78-3.88c.09-.33.18-.67.27-1,1.85.29,3.7.57,5.56.86,2.84.44,5.53,1.79,8.01-1.68.97-1.35,4.47-.9,6.82-1.26.11-.51.23-1.02.34-1.52-6.41-1.85-12.81-3.7-19.45-5.62,2.93-5.66,8.62-1.85,12.41-3.79l.15-1.77-34.51-4.59-.54-1.65a42.832,42.832,0,0,1,4.89-1.99,55.02,55.02,0,0,1,5.6-.96c-.02-.61-.05-1.22-.07-1.82-4.65,0-9.3-.09-13.94.03-3.05.08-5.57.25-7.67-3.08-1.14-1.8-4.63-2.16-7.1-3.06-1.3-.48-2.68-.73-4.03-1.08l-.22-1.33c1.14-.61,2.21-1.54,3.42-1.77,9.46-1.8,18.9-3.86,28.45-5.07,8.29-1.05,16.69-1.13,24-7.13-6.72-1.7-13.27.16-19.69,1.01-6.68.89-13.21,2.88-19.8,4.39-.16-.49-.32-.97-.48-1.46q20.325-7.23,40.64-14.45c-.04-.42-.09-.83-.13-1.25-2.59,0-5.38-.64-7.74.1-14.91,4.69-29.66,9.87-44.59,14.47-4.2,1.3-8.83,1.28-13.27,1.7-.59.06-1.26-.86-1.9-1.33.75-.94,1.32-2.17,2.28-2.76,5.79-3.56,11.68-6.98,17.53-10.45-.16-.59-.33-1.17-.49-1.76ZM119.96,40.91l-1.63.45c2.24,16.84,8.69,32.44,14.99,48.12V69.29c-1.17,1.96-1.78,2.98-2.3,3.86-3.73-10.88-7.39-21.56-11.05-32.25Zm81.63,9.77c-.74-.51-1.49-1.03-2.23-1.54q-4.275,6.975-8.55,13.96c.64.4,1.28.8,1.91,1.2q4.44-6.81,8.87-13.62ZM155,50.37c.9.18,1.8.37,2.7.55q.9-6.06,1.81-12.13c-.77-.14-1.55-.28-2.32-.41l-2.19,12ZM131.75,65.34l1.24-.12V56.64h-1.24v8.7Z" fill="#fff"/>
    <path id="Path_3052" data-name="Path 3052" d="M224.79,208.36c-14.47,3.42-28.71,8.27-43.54-.48-8.92-5.27-16.35-11.95-23.27-19.42q-35.625-38.49-71.27-76.98c-9.19-9.94-18.34-19.93-27.35-30.04-.81-.91-.47-2.83-.66-4.29,1.49.33,3.54.15,4.39,1.07,6.77,7.33,13.27,14.92,19.95,22.34q19.365,21.54,38.84,42.98c14.01,15.39,27.58,31.23,42.38,45.82,7.19,7.09,16.27,12.73,25.36,17.31,8.39,4.22,17.77,1.64,26.64.12l.06-1.65a66.726,66.726,0,0,0-7.33-.35c-14.86.84-26.49-5.86-36.17-16.17q-38.655-41.175-76.87-82.78c-9.02-9.77-17.75-19.81-26.64-29.7a8.818,8.818,0,0,0-2.04-1.35c-3.28-2.02-3.44-4.21-.38-6.61a17.163,17.163,0,0,0,1.43-1.4c5.64-5.54,5.56-5.47,11.05.32,12.21,12.88,24.62,25.57,36.7,38.56,9.28,9.98,17.59,20.92,27.37,30.36,20.77,20.05,37.85,44.07,63.09,59.34,4.97,3.01,10.05,5.85,15.04,8.83a41.858,41.858,0,0,1,3.65,2.74c-.15.47-.3.95-.45,1.42Z" fill="#fff"/>
    <path id="Path_3053" data-name="Path 3053" d="M246.28,218.69c1.67.79,3.33,1.6,5.02,2.35,5.74,2.57,11.56,5,17.19,7.79,1.26.62,1.9,2.48,2.83,3.77-1.43-.11-3.07.2-4.25-.39-6.06-3.06-12.03-6.32-17.98-9.6a30.514,30.514,0,0,1-3.57-2.68c.26-.41.51-.82.77-1.24Z" fill="#fff"/>
    <path id="Path_3054" data-name="Path 3054" d="M269.43,236.56c-1.81,1.18-3.52,2.87-4.06,2.55-4.84-2.81-9.47-5.98-14.16-9.04.25-.48.51-.97.76-1.45,5.47,2.49,10.95,4.98,17.46,7.95Z" fill="#fff"/>
    <path id="Path_3055" data-name="Path 3055" d="M51.76,104.18c-3.05.27-6.11.55-10.63.95,1.58-2.52,2.46-5.05,3.28-5.03,2.52.06,5.02,1.1,7.53,1.76-.06.77-.12,1.55-.17,2.32Z" fill="#fff"/>
  </g>
</svg>
