<svg id="Component_259_1" data-name="Component 259 – 1" xmlns="http://www.w3.org/2000/svg" width="340" height="340" viewBox="0 0 340 340">
  <g id="Component_223_6" data-name="Component 223 – 6">
    <g id="Ellipse_834" data-name="Ellipse 834" fill="#fff" stroke="#000" stroke-width="3">
      <circle cx="170" cy="170" r="170" stroke="none"/>
      <circle cx="170" cy="170" r="168.5" fill="none"/>
    </g>
    <circle id="Ellipse_835" data-name="Ellipse 835" cx="150" cy="150" r="150" transform="translate(20 20)"/>
  </g>
  <g id="Layer_1-2" transform="translate(9.42 9.43)">
    <g id="Group_107" data-name="Group 107">
      <path id="Path_3153" data-name="Path 3153" d="M73.45,201.83c.61-5.67.77-10.43,1.7-15.03a16.147,16.147,0,0,1,9.63-12.01c2.84-1.24,2.99-2.73,2.22-5.47-4.53-16.27-8.85-32.59-13.21-48.91-.11-.42.13-.93,1.1-1.77,2.91,6.33,5.89,12.62,8.72,18.99,5.12,11.52,10.04,23.13,15.29,34.59a20.074,20.074,0,0,0,4.94,6.07c3.17,2.86,6.64,5.38,9.6,9.04-11.59,3.8-18.59,10.25-20.44,21.6,6.66-15.07,18.74-20.12,33.83-16.88,14.44,3.1,21.84,14.3,25.07,27.75,2.41,10.04.79,19.65-10.38,25.63-6.66-8.98-13.43-18.09-20.19-27.21l-1.61.9q8.475,18.75,16.96,37.5c-.23.21-.46.41-.69.62q-4.185-3.525-8.36-7.05c-.37.3-.74.61-1.11.91,1.41,2.03,2.75,4.11,4.25,6.08,5.34,6.99,10.9,13.83,16.02,20.98,1.49,2.09,1.8,5.02,3.1,8.94-5-1.89-8.64-2.94-11.95-4.62a9.489,9.489,0,0,0-9.41.04c-7.04,3.52-14.17,2.4-20.39-1.83-2.74-1.86-4.22-5.6-5.83-7.85-16.24-6.34-32.3-12.6-48.35-18.86.22-.76.44-1.53.66-2.29q15.42,3.36,30.85,6.73c.25-.41.51-.81.76-1.22-6.9-4.3-13.4-9-15.14-17.38-1.96-9.46.72-15.26,8.31-19.76-12.85-12.27-25.84-24.68-38.82-37.08.29-.38.58-.77.87-1.15q15.96,10,31.98,20.03ZM95.17,250.5c.14.48.27.95.41,1.43,2.82-.93,6.87-1.01,8.23-2.96,3.75-5.4,9.07-10.69,6.47-18.45-1.55-4.63-3.97-8.42-8.24-9.35,2.18,3.67,5.81,7.4,6.62,11.65,1.53,8-5.49,16.29-13.49,17.66Zm28.43,23.62c.17.26.35.52.52.78.8-1.74,2.75-4.22,2.19-5.08-2.25-3.46-4.7-7.45-8.13-9.33a9.967,9.967,0,0,0-12.63,1.98c10.73-2.63,12.99-2.05,18.28,5.92.86,1.29-.1,3.79-.22,5.73Z" fill="#fff"/>
      <path id="Path_3154" data-name="Path 3154" d="M180.47,245.52c-11.95-7.21-12.25-15.87-10.21-26.17,2.82-14.19,14.5-26.05,25.84-27.64,14.97-2.1,26.46,2.6,32.83,18.09.24-8.97-5.58-15.18-19.82-21.7,1.55-2,2.64-4.43,4.52-5.63,7.67-4.93,10.58-12.91,13.99-20.63q8.34-18.915,16.74-37.79a10.657,10.657,0,0,1,3.4-4.24q-5.415,19.71-10.81,39.43a82.441,82.441,0,0,0-2.56,10.62,5.377,5.377,0,0,0,1.97,4.36c9.85,6.06,13.2,13.06,11.44,24.72a38.334,38.334,0,0,0-.02,4.05c11.15-7.01,21.39-13.45,31.63-19.89.33.37.66.73.98,1.1q-18.705,17.955-37.38,35.88c7.4,3.34,9.43,10.56,8,19.13-1.45,8.7-7.89,13.5-14.94,17.7.16.48.31.95.47,1.43l30.83-6.69c.19.61.38,1.21.57,1.82-15.6,7.02-31.36,13.65-48.39,18.75-5.63,12.15-14.53,15.39-27.83,9.32-4.96-2.27-8.6,1.15-12.65,2.63-2.26.82-4.26,2.35-7.56,4.23,3.76-16.1,16.13-25.13,24-36.99-.31-.34-.62-.69-.93-1.03l-8.67,6.84c-.21-.15-.41-.31-.61-.46q8.58-18.84,17.15-37.68c-.53-.33-1.06-.67-1.6-1q-10.215,13.77-20.38,27.45Zm40.63-24.2c-8.99,3.01-12.32,11.77-7.88,19.82,1.2,2.18,2.61,4.24,3.85,6.4,2.03,3.55,5.24,4.43,8.94,3.8,4.82-.82,8.23-3.83,9.01-8.34-1.7,1.82-2.86,3.22-4.18,4.45-4.24,3.94-8.48,3.27-11.47-1.63-.58-.95-1.81-1.5-2.36-2.46-1.41-2.49-3.23-4.98-3.75-7.68-1.27-6.68,3.3-10.57,7.83-14.35Zm-22.24,53.12c-.41-1.99-1.72-4.4-1.01-5.51,4.45-6.93,10.1-11.49,19.14-6.33-8.23-5.72-17.68-2.92-20.96,5.55-1.21,3.12-.18,5.22,2.82,6.29Z" fill="#fff"/>
      <path id="Path_3155" data-name="Path 3155" d="M164.58,105.06v44.8c3.13-7.66,10.2-9.71,16.31-14.02.86,5.27-.09,8.97-4.18,11.4-3.54,2.1-7.24,3.94-10.67,6.19a4.923,4.923,0,0,0-1.76,3.54c-.34,24.99-.84,49.98-.49,74.96.06,4.07,3.32,8.65,6.25,12,4.46,5.11,5.04,9.64,2,15.73-3.6,7.22-6.14,14.98-9.51,23.44-1.33-1.9-2.24-2.81-2.69-3.91-3.23-8.02-6.6-16.01-9.38-24.19-.71-2.1-.41-5.84.99-7.15,9.34-8.69,9.64-19.6,9.4-31.22-.77-36.64-1.11-73.29-1.48-109.93-.11-11.31.22-22.63.34-33.95.01-1.31,0-2.62,0-3.13-3.35-1.62-6.19-2.68-8.69-4.27-5.33-3.38-10.36-7.26-15.77-10.51-4.77-2.86-7.87-6.34-8.09-12.21-.11-3.05-1.17-6.07-1.78-9.04.96-.3,1.39-.57,1.55-.46,9.7,7.02,19.47,13.94,28.96,21.24,1.83,1.41,2.51,4.3,3.96,6.93,0-8.15-.09-16.23.09-24.3.03-1.29,1.31-2.56,2.01-3.83.74,1.25,2.07,2.47,2.11,3.74.22,6.42.1,12.85.1,20.05,11.65-8.51,22.42-16.38,33.39-24.39,1.71,7.79-2.09,17.49-7.78,21.32-6.35,4.27-12.14,9.75-19.03,12.73-6.68,2.89-6.94,7.18-6.45,12.79.17,1.89.03,3.8.03,5.89,9.33-6.56,18.04-12.68,27.81-19.55a37.892,37.892,0,0,1-.03,4.97c-2.44,14.79-5.03,29.55-7.34,44.36a10.312,10.312,0,0,1-5.35,7.85c-3.14,1.88-6.04,4.13-9.12,6.12-3.66,2.36-4.91,1.68-4.97-2.78-.08-6.99-.02-13.99-.02-20.98-.25-.08-.49-.16-.74-.23Z" fill="#fff"/>
      <path id="Path_3156" data-name="Path 3156" d="M154.44,195.26a8.2,8.2,0,0,1-.04,2.48c-.76,2.29-1.69,4.52-2.56,6.78-1.85-1.42-3.96-2.61-5.52-4.31a39.013,39.013,0,0,0-23.24-12.57c-9.45-1.45-13.43-9.13-18.57-15.36-.83-1,.88-5.66,2.64-6.96,7.98-5.87,16.8-6.37,26.03-2.74,14.92,5.86,19.81,18.13,21.26,32.68Z" fill="#fff"/>
      <path id="Path_3157" data-name="Path 3157" d="M167.62,195.66c1.6-20.78,11.61-33.95,32.36-35.02,5.04-.26,10.48,2.57,15.32,4.86,3.6,1.7,4,5.96,1.15,8.93-5.74,6-10.54,12.71-20.28,13.99a31.951,31.951,0,0,0-20.96,12.51c-1.19,1.54-3.21,2.43-4.84,3.62-.87-1.9-1.87-3.74-2.55-5.71a11.482,11.482,0,0,1-.21-3.19Z" fill="#fff"/>
      <path id="Path_3158" data-name="Path 3158" d="M132.31,66.02c8.46,5.92,16.28,11.15,23.76,16.83,1.54,1.17,2.54,4,2.57,6.08.18,12.47.05,24.95-.09,37.42-.05,4.42-1.33,5.06-5.04,2.7a101.408,101.408,0,0,1-9.87-6.72c-1.7-1.38-3.55-3.44-3.91-5.45-2.85-15.87-5.36-31.79-7.94-47.71-.1-.6.2-1.25.53-3.14Z" fill="#fff"/>
      <path id="Path_3159" data-name="Path 3159" d="M247.31,77.58c-.52,1.54-.83,2.67-1.26,3.75-7.1,17.97-14.12,35.98-21.42,53.87-.92,2.26-4.16,5.84-4.9,5.52-4.09-1.77-1.55-4.96-.52-7.57q10.29-26.295,20.72-52.53a17.461,17.461,0,0,1,2.63-4.75,3.341,3.341,0,0,1,3.05-.7c.82.32,1.23,1.69,1.7,2.41Z" fill="#fff"/>
      <path id="Path_3160" data-name="Path 3160" d="M104.71,138.2c-.58.8-1.51,2.74-2,2.63-1.39-.3-3.26-1.14-3.77-2.29-2.92-6.54-5.54-13.21-8.18-19.86q-7.29-18.345-14.47-36.73a15.5,15.5,0,0,1-1.22-4.29,2.884,2.884,0,0,1,1.29-2.39,3.594,3.594,0,0,1,3.08.48,10.456,10.456,0,0,1,2.29,3.78q11.01,27.63,21.91,55.29c.36.92.61,1.89,1.08,3.38Z" fill="#fff"/>
      <path id="Path_3161" data-name="Path 3161" d="M73.25,161.24c-.72.85-1.35,2.29-2.12,2.37a4.443,4.443,0,0,1-3.37-1.3c-3.9-4.55-7.6-9.28-11.39-13.92-2.74-3.35-5.73-6.52-8.18-10.07-.76-1.1-.08-3.18-.06-4.81,1.6.28,3.89-.02,4.69.93,6.41,7.66,12.55,15.55,18.72,23.41a21.157,21.157,0,0,1,1.73,3.39Z" fill="#fff"/>
      <path id="Path_3162" data-name="Path 3162" d="M275.56,135.63a34.09,34.09,0,0,1-2.18,3.52c-6.05,7.46-12.07,14.95-18.33,22.24-1,1.17-3.15,1.35-4.77,1.99.04-1.78-.63-4.09.24-5.25,6.06-8.08,12.39-15.97,18.8-23.77.74-.9,2.57-1.3,3.85-1.2.79.06,1.48,1.48,2.39,2.48Z" fill="#fff"/>
      <path id="Path_3163" data-name="Path 3163" d="M153.42,141.64c2.96,3.16,6.88,5.98,4.2,11.27-9.66-2.32-15.55-9.06-14.31-16.74,3.52,1.93,6.9,3.78,10.28,5.63Z" fill="#fff"/>
      <path id="Path_3164" data-name="Path 3164" d="M131.03,53.9q13.47,9.255,26.95,18.5C153.07,74.12,131.37,59.04,131.03,53.9Z" fill="#fff"/>
      <path id="Path_3165" data-name="Path 3165" d="M62.66,226.21c-1.89.49-3.73,1.61-4.72,1.1a90.441,90.441,0,0,1-10.96-6.9,3.656,3.656,0,0,1-1.01-3.39c.32-.77,2.46-1.63,3.17-1.26,3.96,2.07,7.78,4.43,11.53,6.86.72.46.95,1.67,1.98,3.6Z" fill="#fff"/>
      <path id="Path_3166" data-name="Path 3166" d="M276.72,217.13c-.31,1.12-.29,1.82-.59,2.03-4.32,2.91-8.69,5.75-13.04,8.6-.84-1.35-2.46-3.86-2.41-3.9,4.28-2.92,8.64-5.73,13.16-8.27.53-.3,1.96,1.02,2.88,1.53Z" fill="#fff"/>
      <path id="Path_3167" data-name="Path 3167" d="M165.99,72.35c9.06-6.18,18.12-12.36,27.95-19.07-.93,4.87-21.98,20.12-26.93,20.61-.34-.52-.68-1.03-1.02-1.55Z" fill="#fff"/>
      <path id="Path_3168" data-name="Path 3168" d="M132.49,60.88l25.08,17.07c-.52.76-1.04,1.51-1.57,2.27-8.27-5.82-17.12-10.79-24.82-17.43.44-.63.87-1.26,1.31-1.9Z" fill="#fff"/>
      <path id="Path_3169" data-name="Path 3169" d="M166.38,78.02l25.38-17.28c.42.59.85,1.19,1.27,1.78-7.84,6.56-16.57,11.92-25.04,17.61-.54-.7-1.07-1.41-1.61-2.11Z" fill="#fff"/>
      <path id="Path_3170" data-name="Path 3170" d="M141.76,123.19c5.51,3.89,11.01,7.78,17.59,12.42C153.63,136.4,142.3,128.42,141.76,123.19Z" fill="#fff"/>
      <path id="Path_3171" data-name="Path 3171" d="M182.16,123.32c-.76,5.37-11.3,12.82-16.57,11.57Q173.87,129.1,182.16,123.32Z" fill="#fff"/>
      <path id="Path_3172" data-name="Path 3172" d="M181.86,132.29l-13.77,9.78c-.48-.67-.97-1.33-1.45-2l13.74-9.78c.5.67.99,1.33,1.49,2Z" fill="#fff"/>
      <path id="Path_3173" data-name="Path 3173" d="M153.59,141.8c-2.3-1.97-4.61-3.93-6.9-5.91-1.51-1.31-3-2.65-4.49-3.97l1.18-1.51q6.96,4.725,13.91,9.45l-.39,1.29c-1.16.17-2.32.33-3.48.5l.17.16Z" fill="#fff"/>
    </g>
  </g>
</svg>
