<svg id="Component_305_1" data-name="Component 305 – 1" xmlns="http://www.w3.org/2000/svg" width="342.24" height="342.24" viewBox="0 0 342.24 342.24">
  <g id="Component_230_50" data-name="Component 230 – 50">
    <g id="Rectangle_3295" data-name="Rectangle 3295" transform="translate(171.12) rotate(45)" fill="#fff" stroke="#000" stroke-width="3">
      <rect width="242" height="242" stroke="none"/>
      <rect x="1.5" y="1.5" width="239" height="239" fill="none"/>
    </g>
    <g id="Rectangle_3296" data-name="Rectangle 3296" transform="translate(171.421 30) rotate(45)" stroke="#000" stroke-width="3">
      <rect width="200" height="200" stroke="none"/>
      <rect x="1.5" y="1.5" width="197" height="197" fill="none"/>
    </g>
  </g>
  <g id="Group_304" data-name="Group 304" transform="translate(20.424 8.13)">
    <path id="Path_3328" data-name="Path 3328" d="M142.31,245.03c-.31,6.13-4.06,9.4-11.83,10.8-7.41,1.33-15.5-4.26-16.81-11.62-.06-.33-.23-.79-.08-.97,4.68-5.94.85-14.17,6.27-21.18-4.39,3.2-6.27,6.02-6.34,10.5-.05,3.06-1.73,6.09-2.68,9.13-.68.11-1.36.22-2.05.33-2.14-5.59-4.86-11.04-6.19-16.82-.78-3.39,6.54-9.51,11.09-10.97a52.4,52.4,0,0,0,10.41-4.73c-18.16,1.64-27.01,11.31-28.3,18.74-3.36-1.35-3.92-3.93-2.97-6.8a65.526,65.526,0,0,1,3.59-7.61c-7.83.08-11.18,6.6-8.47,16.94-2.36-2.01-4.27-2.88-4.94-4.34-3.09-6.72.74-14.99,6.36-19.6,4.03-3.3,6.13-8.97,9.08-13.59-.5-.34-1-.67-1.49-1.01a47.794,47.794,0,0,1-3.16,4.63c-4.13,4.81-8.28,9.61-12.59,14.26-2.64,2.85-14.14,1.81-17.59-2.46,8.42.81,15.16-1.1,19.51-8.21-1.14.4-2.28.79-3.41,1.22-10.59,3.99-20.89,2.69-29.06-4.66-5.59-5.02-8.31-12.96-15.75-16.65-1.42-.7-2.31-3.78-2.33-5.77-.11-10.23,2.2-20.08,10.95-26.1,6.02-4.15,8.32-10.12,11.7-15.73.62-1.03,1.38-1.97,2.28-3.25,2.87,6.42.84,10.76-3.65,14.67-5.05,4.4-11.81,7.31-13.61,14.72-.4,1.63-.62,3.3-.93,4.95.52.15,1.04.29,1.56.44a28.242,28.242,0,0,1,1.19-4.02c.9-2.02,1.62-5.2,3.12-5.68,6.32-2.03,10.05-6.85,14.17-11.38.38-.42,1.07-.56,2.6-.06-1.47,2.21-2.65,4.7-4.45,6.59-5.41,5.67-6.41,11.54-2.52,18.58,1.71,3.1,2.36,6.88,3.01,10.44.9,4.93,3.78,7.43,9.05,8.07-5.89-3.61-6.2-9.08-6.33-14.95-.05-2.17-2.43-4.24-3.49-6.47a11.827,11.827,0,0,1-1.13-5.8c1.53,2.34,3.07,4.68,4.21,6.43,1.9-4.87,3.73-9.28,5.29-13.78.45-1.3.1-2.88.11-4.34,0-.5-.19-1.11.03-1.48,4.24-7.21,4.07-16.31,9.79-22.87a4.53,4.53,0,0,1,3.5-1.33c-.97,1.77-3,3.73-2.71,5.27,1.17,6.27-2.07,11.53-3.14,17.25-.03.18.4.45,1.64,1.75,1.82-3.84,3.83-7.1,4.92-10.65,1.07-3.48,2.12-6.56,6.6-8.24-2.51,6.17-4.84,11.67-6.98,17.24-1.99,5.18-4.16,10.35-5.4,15.72-.4,1.72,1.38,5.12,3.05,5.93,5.71,2.76,11.81,4.74,17.78,6.97,4.04,1.51,8.85,11.69,8.11,17.32-.85,6.48.93,10.62,5.6,13.04,4.54,2.35,11.14,1.13,15.12-3.06,3.28-3.45,6.37-7.09,4.88-12.81-1.09,2.1-2.13,4.22-3.27,6.29-2.75,4.99-7.19,7.53-11.26,6.49-4.15-1.06-6.89-5.29-7.05-10.86-.35-12.59-4.23-17.66-16.2-21.3-1.75-.53-3.38-1.49-5.14-1.9-7.69-1.77-7.86-6.05-5.4-14.39a37.377,37.377,0,0,1,4.96-11.22c2.93-4.09,6.95-6.96,12.78-6.06,2,.31,4.27-1.07,7.53-2-1.33,3.91-3.88,5.14-7.03,5.03a11.652,11.652,0,0,0-11.85,7.54c-2.18,5.13-1.46,10.39,2.48,15.48,1.31-2.78,2.44-5.18,3.57-7.57.45.03.9.06,1.34.1a64.185,64.185,0,0,0,1.72,8.58c.49,1.45,2.14,2.51,3.26,3.75.93-1.87,2.44-3.68,2.61-5.61.14-1.6-1.71-3.28-1.93-5.03a11.922,11.922,0,0,1,1.2-6.51c.57,6.74,5.44,12.21,3.99,19.69-.61,3.12,4.81,7.64,7.97,11.08.64.7,3.94-.08,5.13-1.16.97-.88,1.3-3.59.66-4.83a11.482,11.482,0,0,0-4.73-4.76c-5.58-2.78-7.85-7.39-5.65-14.12.82,6.15,3.69,10.67,9.73,12.93-6.62-5.77-6.55-12.89-5.29-20.61.43-2.64-1.14-5.62-1.8-8.44.42-.24.83-.47,1.25-.71,1.62,2.72,3.23,5.44,5.01,8.43,3.32-1.18,5.34-3.11,3.16-7.24,4.83,2.08,5.22,3.46,2.24,7.43a64.369,64.369,0,0,0-4.42,6.04c-1.95,3.35-1.29,6.4,1.79,8.83,2.98,2.36,4.76.6,7.2-1.4,2.82-2.32,3.89-4.84,4.75-8.25.68-2.69,3.4-4.87,5.29-7.36-.54-.77-1.59-2.27-2.63-3.78,2.13-.89,4.22-1.91,6.41-2.61,1.22-.39,2.73.08,3.9-.39.96-.39,1.6-1.57,2.39-2.4a21.6,21.6,0,0,0-2.77-.34c-.43,0-1.1.7-1.25.58-6.05-5.03-8.97,1.99-13.8,3.52-2.31-1.81-5.22-3.54-7.35-5.95-1.31-1.48-1.46-3.99-2.11-6.05-.52-1.65-1.04-3.31-1.52-4.98a8.238,8.238,0,0,1-.29-4.77c2.01,1.92,4.01,3.85,6.02,5.77l.46-.6c.9,1.96,1.8,3.91,2.7,5.87,1.9-1,3.81-1.99,5.95-3.11-11.39-13.04-27.31-21.16-33.08-37.73.35-.35.7-.7,1.05-1.04.52.26,1.35.4,1.5.8,4.1,10.55,12.73,17.31,20.62,24.66,2.92,2.72,6.16,5.13,8.95,7.98,3.14,3.2,6.31,3.13,8.81-.09,1.38-1.78,1.37-4.65,2.22-7.96-8.55,3.67-9.15,3.49-15.74-3.51q3.42-3.61-.92-9.21l.82-1.06c2.65,2.13,5.29,4.25,8.63,6.94-1.36-5.9-1.52-11.87,3.54-16.57-.35-.44-.71-.87-1.06-1.31-2.62.89-5.51,1.35-7.81,2.75-3.93,2.39-5.89-.07-7.92-2.55-2.32-2.83-3.67-5.99-1.66-9.57a2.368,2.368,0,0,1,2.07-.88,106.914,106.914,0,0,0,48.68,1.47c2.31-.46,4.67-.7,7.54-1.12,2.71,2.63,2.86,5.78-.3,9.75-2.39,3.01-4.81,5.57-9.15,2.36-1.82-1.35-4.54-1.49-7.45-1.71,3.1,5.57,5.98,10.91,3.51,16.96q3.975-3.27,7.96-6.54c.57.61,1.14,1.22,1.71,1.84-1.42,1.08-3.67,1.93-4.02,3.29-.38,1.44,1.04,3.35,1.83,5.48-4.99,6.39-7.2,7.11-14.95,2.95.64,3.45.33,6.44,1.68,8.01,2.08,2.41,4.99,4.2,8.44.84,7.27-7.09,15.11-13.61,22.16-20.9,3.68-3.81,6.18-8.77,9.46-13.58,1.82,4.04-.61,7.04-2.56,9.39-4.79,5.74-10.04,11.11-15.34,16.39-4.32,4.3-9,8.25-14.38,13.14,2.4,1.31,4.38,2.38,6.36,3.46.87-1.8,1.75-3.61,2.37-4.88,2.39-2.1,4.53-3.99,6.82-6-.16-.07.38.06.37.19a13.08,13.08,0,0,1-.26,3.72c-2.13,6.59-2.67,14.24-10.72,17.08a3.542,3.542,0,0,1-2.67-.26c-2.82-1.65-5.52-3.49-8.27-5.27-.08.44-.15.88-.23,1.32-1.85,0-3.71-.1-5.55.05-.66.06-1.26.73-1.89,1.12.52.75.95,2.04,1.57,2.14,1.93.3,4.04-.25,5.87.27,1.92.56,3.59,1.98,5.38,3.02-1.11,1.36-2.22,2.71-3.46,4.24,3.82,1.68,6.08,4.86,7.02,9.98.53,2.88,4.44,5.41,7.31,7.41.77.53,4.1-1.04,4.83-2.4a9.794,9.794,0,0,0,.79-6.85c-.76-2.41-2.85-4.45-4.53-6.5-2.76-3.37-2.54-5.95.72-7.39,1.17,2.59,2.33,5.13,3.9,8.6,2.42-4.31,4-7.14,5.89-10.5,0,7.34.63,13.66-.23,19.78-.52,3.67-3.35,7.02-5.26,10.72,5.65-2.28,8.11-6.97,9-13.31,2.66,5.77.42,11.87-4.59,13.96-1.06.44-2.51.7-3.04,1.52-1.28,2.01-2.66,4.24-2.92,6.51-.12,1.07,2.42,3.56,3.45,3.41a11.884,11.884,0,0,0,6.23-3.16c3.6-3.61,6.15-7.7,4.46-13.4-.52-1.76.69-4.06,1.23-6.09.71-2.68,1.53-5.34,2.44-8.49,2.74,2.2,2.42,4.53,1.3,7.39-1.07,2.72-4.01,5.52-.76,8.59.73.69,2.02.8,3.05,1.18.96-2.91,1.99-5.79,2.85-8.72a19.9,19.9,0,0,0,.41-3.55c.48-.12.95-.23,1.43-.35q1.74,3.51,3.47,6.99c3.54-2.73,4.93-8.32,3.31-13.64a12.561,12.561,0,0,0-10.69-8.44c-6.23-.54-6.42-.65-7.86-4.23,3.42.3,7.13.13,10.53,1.07a16.949,16.949,0,0,1,7.61,4.44c5.68,6.06,7.6,13.77,7.46,21.84-.03,1.52-2.36,3.51-4.09,4.39a64.851,64.851,0,0,1-9.37,3.38c-9.7,3.18-14.02,8.96-14.39,19.18-.08,2.14.06,4.46-.69,6.39-2.87,7.4-10.96,8.52-15.83,2.18-2.05-2.67-3.5-5.81-5.43-9.1-1.35,5.85,4.02,14.29,9.93,16.39,6.43,2.28,13.17-.09,15.72-5.88a10.925,10.925,0,0,0,.57-5.79c-.84-5.39.67-9.5,3.73-14.25,2.63-4.07,5.62-4.49,9.23-5.75a62.019,62.019,0,0,0,13.74-6.51c4.01-2.64,2.29-6.99,1-10.53-2.58-7.07-5.5-14.02-8.35-20.98-.79-1.94-1.83-3.77-3.4-6.99,4.73,2.04,5.85,4.92,6.91,8.28,1.13,3.57,3.04,6.9,4.61,10.33.65-.25,1.3-.51,1.95-.76-1.74-7.81-3.49-15.62-5.15-23.1,3.27.81,8.65,8.33,8.1,12.24-.09.64-.7,1.57-.46,1.85,3.89,4.66,4.73,10.04,5.27,15.97.41,4.55,3.23,8.89,5.12,13.67,1.04-1.5,2.53-3.65,4.01-5.79.32.12.64.24.95.36-.89,2.02-1.78,4.03-2.68,6.05-1,2.24-2.96,4.55-2.82,6.72.38,5.71-1.07,10.15-6.77,13.19,5,.38,8.11-2.2,9.36-6.52,1.51-5.23,3.34-10.37,5.05-15.54,1.7-5.13.09-9.4-3.23-13.36-2.04-2.43-3.8-5.09-5.68-7.65.45-.38.9-.75,1.35-1.13q3.375,3.3,6.74,6.6c.95.93,1.73,2.33,2.87,2.73,6.01,2.13,10.41,5.44,9.61,13.2l1.65-.6c.12-1.09.73-2.48.28-3.22-2.48-4.01-5.07-7.96-7.93-11.7-1.17-1.53-3.09-2.5-4.68-3.71-5.31-4.03-8.65-8.8-5.5-16.67,2.22,3.64,4.19,6.98,6.27,10.25,1.41,2.21,2.51,5,4.53,6.36,9.01,6.07,13.29,14.61,14.32,25.12.72,7.39-1.85,11.49-8.71,14.48-1.48.65-3.5,2.05-3.69,3.35-1.8,11.94-21.58,17.74-31.41,14.33a27.023,27.023,0,0,0-6.61-1.65c4.25,6.87,11.07,8.08,19.33,7.62-1.17,1.65-1.54,2.64-2.24,3.06-3.75,2.26-13.67-.46-17.21-2.99-6.11-4.37-9.68-10.52-14.6-16.17a21.3,21.3,0,0,0,1.67,4.49c2.86,4.42,4.23,9.71,9.73,12.57,2.16,1.13,2.53,5.91,3.47,9.09.35,1.19-.31,2.68.02,3.88,1.09,3.99-.71,5.91-3.8,6.81-.51-3.68-.83-7.2-1.56-10.65a6.129,6.129,0,0,0-2.35-3.61c-1.34-.87-3.19-.96-4.81-1.39.3,1.5.21,3.26.98,4.45,2.38,3.64,2.87,6.85-.78,10.14-5.27-13.06-15.68-17.82-28.75-18.4,2.99,1.33,6.15,2.37,8.92,4.06a105.646,105.646,0,0,1,11.52,8.17,4.6,4.6,0,0,1,1.06,4.14c-1.97,5.25-4.34,10.34-6.57,15.49-.67-.03-1.34-.07-2.01-.1-.84-3.49-1.43-7.07-2.59-10.45a96.57,96.57,0,0,0-4.33-9.33c.32,4.49.55,8.14.87,11.78.1,1.11.15,2.49.8,3.24,3.73,4.31,3.07,8.59,0,12.72-3.42,4.6-8.14,7.38-13.84,5.96-3.82-.96-7.39-3.33-10.75-5.55-1.18-.78-1.44-2.97-1.26-5.1a10.445,10.445,0,0,1,2.33,1.35c2.81,2.78,5.9,2.99,9.07.91a7.984,7.984,0,0,0,3.72-9.04c-.07-.32-.33-.66-.28-.95,1.83-10.57-7.21-10.24-13.11-12.43-2.06-.77-5.14,1.45-7.82,1.98-1.64.33-3.79.69-5.03-.07-3.9-2.38-7.47-3.47-11.51-.36-.92.71-2.51.6-3.8.75-3.46.38-5.65,1.69-5.12,5.74a10.493,10.493,0,0,1-.55,4.39c-1.33,4.25-.12,7.62,3.47,10,3.63,2.41,6.94,1.58,9.78-1.61.28-.31.86-.35,1.8-.69Zm14.48-117.72c.06-6.24-1.9-7.8-7.19-7.29-4.12.4-6.18,2.36-5.4,8.01,1.73-2.51,2.81-4.07,4.38-6.36,0,6.44.8,12.07-.21,17.35-1.15,6.04-4.91,11.49-3.82,18.18.19,1.18-2.06,2.77-3.18,4.16-1.31-1.5-3.05-2.81-3.8-4.55-.57-1.32.13-3.19.27-4.81-.52-.09-1.04-.18-1.56-.26q-1.41,4.725-2.82,9.46c-.22-.26-.45-.52-.67-.78q-3.6,3.855-7.19,7.7c.28.28.56.55.84.83,1.54-.8,3.07-1.6,6.06-3.17-2,4.66-3.42,7.96-4.83,11.25l2.22.93c2.51-5.29,5.01-10.57,7.78-16.41,1.21,2.03,2.54,4.26,3.86,6.49.55-.4,1.09-.8,1.64-1.2,1.38-5.88,7.82-9.95,5.72-17.14-.17-.59,1.17-1.63,1.81-2.45.65.81,2.01,1.82,1.85,2.4-2.02,7.17,4.38,11.27,5.92,18.12,2.49-2.31,4.39-4.06,5.6-5.18,2.61,5.22,5.14,10.31,7.68,15.4.73-.32,1.47-.65,2.2-.97-1.44-3.3-2.87-6.6-4.8-11.05,2.93,1.35,4.42,2.03,5.92,2.72.26-.38.53-.76.79-1.15-2.64-2.41-5.29-4.82-7.84-7.15-.97-2.72-2.02-5.68-3.08-8.65-.43.14-.86.29-1.29.43a12.99,12.99,0,0,1-.1,1.4,40.658,40.658,0,0,1-1.4,6.84c-.19.52-3.25.75-3.39.43a31.279,31.279,0,0,1-1.97-6.79c-.38-2.24.5-5.17-.63-6.73-5.48-7.54-1.78-16.25-3.63-24.19-.02-.09.51-.32,1.01-.62q1.62,2.4,3.26,4.8Zm-17.38,65.31c3.65-4.95,7.29-9.91,11.34-15.41,4.04,5.47,7.67,10.4,11.31,15.32a24.733,24.733,0,0,0-11.33-18.08,25.317,25.317,0,0,0-11.32,18.17Zm97.86-21.04a69.832,69.832,0,0,0-7.59,3.4,4.487,4.487,0,0,0-2.04,3.22c.07,2.57.28,5.48,4.19,5.3,3.54-.17,5.52-2.09,5.87-5.44.2-1.91-.23-3.89-.43-6.47Zm-173.05-.02c-.2,2.53-1.04,4.69-.33,6.06a14.933,14.933,0,0,0,5.15,5.58c.63.4,3.52-1.54,4.37-3,1.99-3.39-.17-5.04-3.32-6.05A61.079,61.079,0,0,1,64.22,171.56Zm90.21-84.01c.44,1.35.56,2.63,1.24,3.46.46.56,1.71.47,2.61.67.16-.87.71-1.89.42-2.57-1.83-4.3-8.62-6.22-12.35-3.35-1.61,1.24-2.7,3.17-3.94,4.85a7.236,7.236,0,0,0,1.26,1.15c1.43-1.25,2.78-2.58,4.46-4.21ZM70.11,166.4c3.84,7.44,12.9,12.09,17.97,10.35C82.65,173.62,76.33,169.99,70.11,166.4Zm161.28-.09c-6.24,3.64-12.5,7.31-17.95,10.48C218.81,178.4,227.7,173.7,231.39,166.31Zm-89.2-68.27c-3.73,3.44-3.77,6.01,0,8.94Z" fill="#fff"/>
    <path id="Path_3329" data-name="Path 3329" d="M124.88,159.34c-1.48-.55-3.41-.68-4.36-1.72-2.11-2.31.62-6.99,6.31-9.84-1.07,1.69-2.2,3.36-3.2,5.09-.69,1.21-1.21,2.51-1.81,3.78,1.17.44,2.34.89,3.51,1.33-.15.45-.3.9-.45,1.36Z" fill="#fff"/>
    <path id="Path_3330" data-name="Path 3330" d="M176.63,146.34a103.306,103.306,0,0,1,4.76,10.69c.15.46-2.68,1.91-4.67,2.36,8.52-5.26-3.64-7.52-.1-13.05Z" fill="#fff"/>
    <path id="Path_3331" data-name="Path 3331" d="M143.76,62.58q-4.035-2.94-8.06-5.88c.43-.58.86-1.16,1.29-1.73,3.75.55,6.03,3.04,7.95,6.03-.39.53-.78,1.05-1.17,1.58Z" fill="#fff"/>
    <path id="Path_3332" data-name="Path 3332" d="M156.2,60.65c2.55-2.11,5.1-4.21,8.21-6.78.22,4.85-1.8,6.7-7.21,7.87Z" fill="#fff"/>
    <path id="Path_3333" data-name="Path 3333" d="M186.04,94.27q2.94-4.59,5.88-9.17C192.8,89.94,190.71,92.91,186.04,94.27Z" fill="#fff"/>
    <path id="Path_3334" data-name="Path 3334" d="M109.79,85.49q2.82,4.4,5.65,8.78C110.89,93.04,108.92,90.16,109.79,85.49Z" fill="#fff"/>
    <path id="Path_3335" data-name="Path 3335" d="M157.49,76.15H144.02c0-.31-.01-.62-.02-.93h13.47C157.47,75.53,157.48,75.84,157.49,76.15Z" fill="#fff"/>
  </g>
</svg>
