<svg id="Component_290_1" data-name="Component 290 – 1" xmlns="http://www.w3.org/2000/svg" width="340" height="340" viewBox="0 0 340 340">
  <g id="Component_223_17" data-name="Component 223 – 17">
    <g id="Ellipse_834" data-name="Ellipse 834" fill="#fff" stroke="#000" stroke-width="3">
      <circle cx="170" cy="170" r="170" stroke="none"/>
      <circle cx="170" cy="170" r="168.5" fill="none"/>
    </g>
    <circle id="Ellipse_835" data-name="Ellipse 835" cx="150" cy="150" r="150" transform="translate(20 20)"/>
  </g>
  <g id="Group_294" data-name="Group 294" transform="translate(6.996 10.3)">
    <path id="Path_4106" data-name="Path 4106" d="M164.7,101.62a5.615,5.615,0,0,0,.34-2.23c-.08-.8.02-.84-.29-1.2a1.068,1.068,0,0,0-.92-.26c-.39-.07-.91.46-.92.63v.27a.158.158,0,0,0-.07,0,.379.379,0,0,0-.15,0v-.26c-.01-.16-.53-.7-.92-.63a1.1,1.1,0,0,0-.92.26c-.3.37-.21.41-.29,1.2a5.428,5.428,0,0,0,.34,2.23c.01.16.59.74.76.73a.931.931,0,0,0,1.03-.94c.02,0,.05-.02.08-.02a.337.337,0,0,1,.17.05.929.929,0,0,0,1.03.92c.16.01.74-.57.76-.73Zm-1.87-.38h.07v.15l-.08-.15Z" fill="#fff"/>
    <path id="Path_4107" data-name="Path 4107" d="M166.07,102.94c.16.02.76-.54.78-.7a5.47,5.47,0,0,0,.41-2.21c-.05-.8.05-.84-.24-1.21a1.066,1.066,0,0,0-.91-.29c-.39-.09-.93.43-.94.59l-.08,2.32c-.02.52-.13,1.44.99,1.51Z" fill="#fff"/>
    <path id="Path_4108" data-name="Path 4108" d="M160.38,99.1c-.02-.16-.57-.67-.95-.58a1.1,1.1,0,0,0-.91.31c-.28.38-.19.42-.22,1.22a5.734,5.734,0,0,0,.45,2.21c.02.16.63.71.79.69,1.12-.09.99-1.01.96-1.53l-.12-2.31Z" fill="#fff"/>
    <path id="Path_4109" data-name="Path 4109" d="M163.61,54.48a.688.688,0,0,0-.58.39v.17h-.15v-.16c0-.1-.33-.44-.58-.39a.678.678,0,0,0-.58.16c-.19.23-.13.26-.18.75a3.579,3.579,0,0,0,.21,1.39,1.046,1.046,0,0,0,.47.46.574.574,0,0,0,.64-.59.09.09,0,0,0,.05-.01.2.2,0,0,1,.11.03.577.577,0,0,0,.64.57,1.046,1.046,0,0,0,.47-.46,3.579,3.579,0,0,0,.21-1.39c-.05-.5.01-.52-.18-.75a.678.678,0,0,0-.58-.16Zm-.62,2.07h.04v.1l-.05-.09Z" fill="#fff"/>
    <path id="Path_4110" data-name="Path 4110" d="M161.46,55.21a.666.666,0,0,0-.6-.36.676.676,0,0,0-.57.19c-.18.24-.12.26-.14.76a3.655,3.655,0,0,0,.28,1.38,1,1,0,0,0,.5.43c.7-.06.62-.63.6-.96l-.08-1.45Z" fill="#fff"/>
    <path id="Path_4111" data-name="Path 4111" d="M242.31,252.45c-.74,1.19-5.43,8.39-11.43,7.78a7.369,7.369,0,0,1-4.85-2.46c-.96-1.22-1.14-2.5-1.5-4.98-.45-3.16.02-3.91-.5-6.15a14.445,14.445,0,0,0-1.99-4.49c-1.48-2.43-3.1-4.4-9.64-9.97-3.81-3.25-5.55-5.07-5.15-6.48.44-1.54,2.83-1,4.32-2.99,1.95-2.59.78-7.38-1.16-10.3-2.02-3.04-3.63-2.49-6.31-6.31-.92-1.31-1.32-2.26-2.49-2.66-1.65-.57-2.48.75-4.49.66-2.47-.1-2.69-2.15-5.98-3.49-1.59-.65-3.22-.71-6.48-.83-4.32-.16-6.43.38-6.98-.66-.34-.65.35-1.08.66-2.99.17-1.01.54-3.21-.5-4.82-1.23-1.91-3.46-1.48-3.99-3.16-.29-.94.31-1.36.5-2.66s-.18-2.63-2.99-6.81c-1.61-2.4-2.81-3.92-4.49-6.15-1.61-2.14-2.87-3.89-3.66-4.98-.78,1.09-2.05,2.85-3.66,4.98-1.67,2.22-2.87,3.75-4.49,6.15-2.81,4.18-3.18,5.51-2.99,6.81s.79,1.72.5,2.66c-.52,1.68-2.76,1.25-3.99,3.16-1.03,1.61-.67,3.81-.5,4.82.32,1.91,1.01,2.34.66,2.99-.55,1.05-2.66.5-6.98.66-3.26.12-4.89.18-6.48.83-3.29,1.34-3.51,3.39-5.98,3.49-2.01.08-2.84-1.23-4.49-.66-1.17.4-1.57,1.34-2.49,2.66-2.68,3.83-4.29,3.27-6.31,6.31-1.94,2.92-3.11,7.71-1.16,10.3,1.49,1.99,3.88,1.45,4.32,2.99.4,1.41-1.34,3.23-5.15,6.48-6.53,5.57-8.15,7.54-9.64,9.97a14.217,14.217,0,0,0-1.99,4.49c-.52,2.24-.05,2.99-.5,6.15-.35,2.48-.53,3.77-1.5,4.98a7.408,7.408,0,0,1-4.85,2.46c-6,.61-10.68-6.59-11.43-7.78a19.334,19.334,0,0,1-2.82-8.47c-1.54,3.32-1.34,5.54-.83,6.98.67,1.87,1.81,3.46,3.99,6.15a31.907,31.907,0,0,1,2.33,2.82c1.65,2.63,1.26,4.26,1.99,5.98,1.82,4.3,9.62,6.93,15.28,5.32,3.54-1.01,4.46-3.2,7.31-2.82,2.6.34,4.03,2.37,5.81,4.32,1.31,1.43,9.15,10,16.95,9.97,4.27-.02,9.41-2.63,12.46-6.15,1.86-2.14,2.81-4.4,5.65-5.32,2.66-.86,3.74.51,5.65-.66,3.14-1.94,3.16-7.46,3.16-7.81a10.355,10.355,0,0,0-.17-1.83c-1.44,5.05-3.49,6.74-5.15,7.31-2.96,1.02-4.91-1.43-7.64-.17-3.18,1.47-2.45,5.66-5.65,6.65a4.354,4.354,0,0,1-4.49-1.16c-.98-1.21-1.05-3.21-.33-3.66.76-.47,1.8,1.14,3.49,1,1.48-.13,2.31-1.51,3.48-2.99,3.13-3.98,4.27-3.07,6.33-5.98,2.9-4.09,3.55-9.98,1.66-11.3a3.761,3.761,0,0,0-2.33-.33,5.958,5.958,0,0,0-3.32,1.33,4.358,4.358,0,0,1,2.66,1.16,4.6,4.6,0,0,1,1.16,3.49c-.41,5.31-12.93,7.99-15.16,8.46-3.74.8-5.84.68-7.44-.49-1.45-1.06-2.56-3.04-1.99-3.99.52-.86,2.06-.23,5.48-.33,1.36-.04,8.08-.25,9.47-3.49a3.215,3.215,0,0,0,.19-.6,7.3,7.3,0,0,0,.14-3.06c-.49,2.33-1.87,3.89-2.99,3.82-1.53-.09-2.83-3.23-1.99-4.98.56-1.18,1.91-1.4,1.83-1.66-.16-.46-4.58-.15-5.15,1.66-.39,1.24,1.31,2.25.83,3.66a2.928,2.928,0,0,1-2.33,1.66c-2.01.29-2.94-1.7-5.65-2.33a7.556,7.556,0,0,0-3.82.17c1.09.29,1.84.92,1.83,1.5-.02.74-1.29,1.34-2.33,1.33-1.18-.01-1.77-.81-3.66-2.33-2.67-2.15-2.91-1.68-3.66-2.66-2.13-2.8-.94-7.7,0-7.81.56-.07.48,1.82,2.16,3.32,2.25,2.01,6.11,1.96,8.64.5a4.062,4.062,0,0,0,2.16-2.33,4.111,4.111,0,0,0-1-3.49,5.444,5.444,0,0,1-1.83,4.15c-2.07,1.67-5.43,1.32-6.65-.33-.97-1.32-.34-3.17.5-5.65.69-2.03,1.4-3.34,4.32-7.97,2.97-4.7,3.21-5.43,3.32-6.31.35-2.7-.88-3.53-.33-5.98a9.517,9.517,0,0,1,3.66-5.15c2.7-2.22,4.56-1.93,9.47-4.32a41.847,41.847,0,0,0,4.15-2.33c-.78,1.22-1.55,2.44-2.33,3.66a13.441,13.441,0,0,1-2.66,1.66c-2.55,1.2-3.5.7-5.32,1.66a8.741,8.741,0,0,0-3.92,4.79,9.554,9.554,0,0,0-.07,4.85c.42,1.58,1.04,2.01.83,2.99-.29,1.37-1.67,1.38-2.82,2.82a7.032,7.032,0,0,0-.17,7.81c.71,1,1.14.71,2.66,2.16,1.85,1.77,2.02,2.97,2.99,4.15,2.66,3.23,8.42,2.69,10.47,2.49a14.683,14.683,0,0,0,8.64-3.16c4.11-3.48,5.98-9.62,4.15-14.62a11.676,11.676,0,0,0-2.49-3.99,17.918,17.918,0,0,1,.5,3.82c.05,2.36.19,8.84-3.99,10.97a7.7,7.7,0,0,1-8.47-1.5,8.166,8.166,0,0,1-2.26-6.44c.16-1.71.78-1.8,1.43-4.03,1.3-4.48-.61-6.16.83-7.97,1.24-1.57,2.8-.33,7.48-2.33,2.8-1.2,2.94-1.82,4.65-1.99,2.25-.22,3.24,1.16,6.65,2.33,0,0,.02,0,3.49,1a17.529,17.529,0,0,0,3.49-1c2.79-1.12,4.31-2.56,6.65-2.33,1.71.17,1.85.8,4.65,1.99,4.67,1.99,6.23.76,7.48,2.33,1.44,1.81-.47,3.49.83,7.97.65,2.23,1.27,2.32,1.43,4.03a8.183,8.183,0,0,1-2.26,6.44,7.718,7.718,0,0,1-8.47,1.5c-4.18-2.12-4.04-8.61-3.99-10.97a17.293,17.293,0,0,1,.5-3.82,11.576,11.576,0,0,0-2.49,3.99c-1.83,5,.04,11.14,4.15,14.62a14.683,14.683,0,0,0,8.64,3.16c2.05.19,7.8.74,10.47-2.49.97-1.18,1.14-2.38,2.99-4.15,1.51-1.45,1.95-1.16,2.66-2.16a7.032,7.032,0,0,0-.17-7.81c-1.16-1.45-2.54-1.45-2.82-2.82-.2-.98.41-1.42.83-2.99a9.425,9.425,0,0,0-.07-4.85,8.741,8.741,0,0,0-3.92-4.79c-1.82-.96-2.77-.46-5.32-1.66a13.441,13.441,0,0,1-2.66-1.66c-.78-1.22-1.55-2.44-2.33-3.66a41.847,41.847,0,0,0,4.15,2.33c4.91,2.39,6.77,2.1,9.47,4.32a9.568,9.568,0,0,1,3.66,5.15c.55,2.45-.68,3.28-.33,5.98.11.89.35,1.61,3.32,6.31,2.92,4.63,3.63,5.95,4.32,7.97.84,2.47,1.47,4.32.5,5.65-1.21,1.66-4.57,2-6.65.33a5.468,5.468,0,0,1-1.83-4.15,4.144,4.144,0,0,0-1,3.49,4.062,4.062,0,0,0,2.16,2.33c2.53,1.46,6.39,1.51,8.64-.5,1.68-1.5,1.59-3.39,2.16-3.32.94.11,2.13,5.01,0,7.81-.74.97-.98.51-3.66,2.66-1.88,1.51-2.47,2.31-3.66,2.33-1.04.01-2.31-.59-2.33-1.33-.01-.57.74-1.21,1.83-1.5a7.565,7.565,0,0,0-3.82-.17c-2.7.62-3.64,2.62-5.65,2.33a2.964,2.964,0,0,1-2.33-1.66c-.48-1.4,1.22-2.42.83-3.66-.57-1.81-5-2.12-5.15-1.66-.09.26,1.27.48,1.83,1.66.83,1.76-.46,4.89-1.99,4.98-1.12.07-2.5-1.49-2.99-3.82a7.3,7.3,0,0,0,.14,3.06,3.753,3.753,0,0,0,.19.6c1.39,3.24,8.11,3.45,9.47,3.49,3.42.11,4.96-.53,5.48.33.57.94-.54,2.93-1.99,3.99-1.59,1.16-3.69,1.29-7.44.49-2.23-.48-14.75-3.15-15.16-8.46a4.64,4.64,0,0,1,1.16-3.49,4.278,4.278,0,0,1,2.66-1.16,5.958,5.958,0,0,0-3.32-1.33,3.761,3.761,0,0,0-2.33.33c-1.89,1.31-1.23,7.2,1.66,11.3,2.06,2.91,3.19,2,6.33,5.98,1.16,1.48,2,2.86,3.48,2.99,1.69.15,2.73-1.47,3.49-1,.72.45.65,2.45-.33,3.66a4.354,4.354,0,0,1-4.49,1.16c-3.2-.99-2.47-5.17-5.65-6.65-2.74-1.27-4.68,1.18-7.64.17-1.66-.57-3.71-2.26-5.15-7.31a11.173,11.173,0,0,0-.17,1.83c0,.34.01,5.87,3.16,7.81,1.91,1.18,2.99-.19,5.65.66,2.84.92,3.79,3.17,5.65,5.32,3.05,3.52,8.19,6.13,12.46,6.15,7.79.04,15.64-8.54,16.95-9.97,1.78-1.95,3.22-3.98,5.81-4.32,2.85-.37,3.77,1.81,7.31,2.82,5.67,1.62,13.47-1.02,15.28-5.32.73-1.72.34-3.35,1.99-5.98a27.7,27.7,0,0,1,2.33-2.82c2.18-2.69,3.32-4.27,3.99-6.15.51-1.44.71-3.66-.83-6.98a19.6,19.6,0,0,1-2.82,8.47Z" fill="#fff"/>
    <path id="Path_4112" data-name="Path 4112" d="M238.87,111.48a21.884,21.884,0,0,0-1.04-2.25C238.17,110.06,238.52,110.79,238.87,111.48Z" fill="#fff"/>
    <path id="Path_4113" data-name="Path 4113" d="M292.32,186.99c-.35-.08-.34,2.14-2.16,3.66-2.22,1.84-4.33.41-6.48,1.99-1.3.96-1.64,2.63-2.33,5.98-.91,4.48.04,5.19-1,6.81-1.68,2.62-5.95,3.58-9.14,3.16-3.48-.46-5.7-2.56-6.98-1.5-.77.64-.26,1.64-1.33,2.82a4.143,4.143,0,0,1-3.16,1.33c-1.63-.06-3.49-1.11-3.49-2.16,0-1.2,2.42-1.37,4.65-3.66,1.87-1.91,1.12-3.73,2.49-4.32,1.44-.62,2.47,1.02,4.98,1.33,3.07.38,5.65-1.54,7.14-2.66,1.09-.81,4.77-3.56,5.15-7.64.22-2.31-.73-3.88.33-4.98.69-.71,1.43-.42,3.16-.83A10.355,10.355,0,0,0,289.8,183a8.941,8.941,0,0,0,1.83-5.98c-.19-2.13-1.14-2.6-1.5-4.49-.29-1.56-.15-3.96,2.16-7.31a6.8,6.8,0,0,0-3.66,3.49c-.93,2.5.96,3.98.17,6.98a6.83,6.83,0,0,1-4.82,4.98,5.835,5.835,0,0,1-3.16-.33,6.052,6.052,0,0,1-2.82-2.33,5.618,5.618,0,0,0-.83,2.99c.06,2,1.33,2.55,1.5,4.15.21,2.12-1.74,3.92-3.99,5.98a22.93,22.93,0,0,1-5.81,3.82,46.6,46.6,0,0,1-4.65,1.83c-1.8.64-4.38,1.53-5.98,1.99-3.4.99-8.95,2.6-15.28,1.33-2.76-.55-7.67-1.53-10.13-5.65a9.995,9.995,0,0,1-1.33-3.99,14.545,14.545,0,0,0,2.99,2.82c1.66,1.18,4.1,2.37,8.97,2.82a35.348,35.348,0,0,0,17.61-2.33c3.62-1.49,9.95-4.11,10.8-8.31.17-.84.48-3.51.66-5.98.09-1.19.14-2.18.17-2.82a11.852,11.852,0,0,0,5.15-1.33c2.63-1.4,3.41-3.23,7.48-9.14,3.68-5.35,3.96-5.17,4.32-6.48.46-1.65,1.12-5.84-3.49-12.13a43.977,43.977,0,0,0-13.46-10.13c-2.39-1.13-6.23-2.62-7.81-6.31a9.17,9.17,0,0,1-.66-4.32,15.069,15.069,0,0,0-11.47-13.13,50.848,50.848,0,0,1,4.49,3.99c2.46,2.47,2.69,3.22,2.49,3.66-.4.89-2.45.08-3.32,1.16-1.11,1.37.7,4.54,1.33,5.65a22.923,22.923,0,0,0,5.48,6.31c5.2,4.4,6.54,3.89,9.8,7.31,1.98,2.08,3.73,3.91,4.49,6.81,1.33,5.09-1.15,10.47-1.19,10.46-.38-.08.25-1.55.19-1.16a28.037,28.037,0,0,0-.5-4.49c-.58-3.05-1.06-5.56-2.82-7.48-1.56-1.7-2.48-1.15-5.98-3.16a31.654,31.654,0,0,1-6.15-4.82,49.2,49.2,0,0,1-6.81-7.81,19.156,19.156,0,0,0,3.32,7.31c3.36,4.45,6.89,4.75,7.64,8.14.39,1.75-.57,3.77-2.49,7.81-2.95,6.21-4.44,6.32-4.82,9.47-.45,3.8,1.57,4.82.5,8.14a11.075,11.075,0,0,1-3.99,5.15,14.873,14.873,0,0,1-6.48,2.99,18.7,18.7,0,0,0,4.98-6.48,24.112,24.112,0,0,0,1.83-6.98c.6-4.33-.25-4.52.5-6.81,1.13-3.45,3.13-3.21,4.65-7.14.52-1.36,1.77-4.56.17-6.81a5.074,5.074,0,0,0-2.82-1.83,8.09,8.09,0,0,1,1.66,5.65c-.15,1.03-.52,1.71-1.83,3.82-3.7,5.98-3.86,5.64-4.32,6.98-.62,1.81-.08,1.72-.83,7.31-.57,4.25-.97,4.89-1.33,5.32a6.292,6.292,0,0,1-7.97,1.16c-2.29-1.56-3.37-4.83-2.33-6.48,1.14-1.8,4.03-.5,7.31-2.99a14.409,14.409,0,0,0,2.49-2.82c2.9-3.77,4.36-5.66,4.49-7.97.09-1.63-.55-1.53-3.16-7.97-1.25-3.08-1.87-4.64-1.99-5.81-.39-3.66,1.12-4.98,0-7.14-.87-1.68-1.93-1.18-3.49-3.49a7.042,7.042,0,0,1-1.5-4.82c.25-1.6,1.34-1.87,1.33-3.16,0-1.56-1.55-2.66-2.46-3.42a18.328,18.328,0,0,1-4.47-5.79,16.383,16.383,0,0,1,1.12,5.06c.23,4.48-1.65,6.55-.17,9.14,1.17,2.04,2.94,1.76,3.82,4.15.53,1.44.75,3.78-.5,4.65-1.27.89-3.31-.23-3.49-.33-1.36-.77-2.22-2.13-3.16-5.15-1.79-5.76-.76-7.57-2.37-9.75-.9-1.22-2.66-2.6-6.43-3.04,3.36,1.88,4.36,3.77,4.65,5.15.41,1.94-.59,2.8-.17,5.32.3,1.81,1.06,2.05,2.49,5.15a36.907,36.907,0,0,1,1.62,4.02c-2.14-4.37-5.66-8.11-9.93-9.67a14.345,14.345,0,0,0-5.32-.83c2.41-.56,4.24-1.82,4.32-3.16.13-2.21-4.56-3.69-4.98-3.82a12.825,12.825,0,0,0-8.14.33q9.63.78,9.8,2.49c.06.63-.82,1.35-2.66,2.16a4.712,4.712,0,0,1-2.16,1.33,5.762,5.762,0,0,1-5.73-2.18,4.932,4.932,0,0,0,1.08,3.35c1.25,1.4,3.09,1.25,7.31,1.83,3.14.43,4.72.63,5.48,1,4.23,2.07,6.22,7.99,5.81,12.79-.32,3.77-2.11,8.41-4.15,8.47-.89.03-1.59-.83-1.99-1.33-2.67-3.29-.58-8.55-.33-9.14a6.32,6.32,0,0,0-3.16,2.16c-1.32,1.8-.71,3.44-1.33,7.64-.46,3.12-.83,5.62-2.33,6.15-1.25.44-3.12-.57-3.82-1.99-1.01-2.03.78-4.05,1.5-6.98.58-2.4.58-5.97-2.16-10.97a12.9,12.9,0,0,1,0,7.81c-1.21,3.46-3.4,3.95-3.82,6.98-.52,3.73,2.52,4.9,1.66,7.97-.75,2.69-3.22,2.32-5.32,6.15-1.45,2.64-.72,3.64-2.16,5.15-1.92,2.02-5.77,2.94-7.64,1.33-2.04-1.75-1.23-6.05.5-8.64,2.08-3.12,5.41-2.07,7.97-5.65a11.943,11.943,0,0,0,1.83-4.28c.74-3.12-.19-4.3.66-7.52.65-2.46,1.67-3.55,1.33-3.82-.46-.36-2.95,1.13-3.49,3.32-.3,1.23.25,1.73.33,3.66a12.526,12.526,0,0,1-.66,4.32c-1.1,2.97-4.21,4.42-6.48,5.48-2.17,1.01-4.78,1.74-4.98,1.33-.14-.29.95-1.01,2.82-2.49,3.07-2.44,4.61-3.66,5.32-4.65,2.88-4.08.95-10.87.5-12.46-.56-2-1.26-3.31-1-5.48.08-.67.46-3.83,2.66-4.65a3.667,3.667,0,0,1,2.33,0c-1.33-1.74-2.16-1.92-2.66-1.83-1.65.32-1.45,4.15-4.65,6.81a8.835,8.835,0,0,1-1.5,1,5.26,5.26,0,0,1-3.96-4.85,5.165,5.165,0,0,1,3.13-4.62c-.68.02-3.52.18-4.82,2.16-1.51,2.31.08,5.6.83,7.14,1.34,2.78,2.48,2.76,4.32,6.15,1.15,2.12,1.85,3.41,1.66,5.15a6.3,6.3,0,0,1-4.32,5.32c-1.53.4-2.79-.08-4.32-.66-1.16-.45-5.96-2.34-7.14-6.48-.95-3.34,1.33-5.06,0-6.98-1.63-2.37-5.84-.85-6.81-2.99a3.241,3.241,0,0,1,1.66-3.99,3.351,3.351,0,0,1,3.82,1.33c-1.04-3.95-2.7-5.38-3.99-5.98a5.628,5.628,0,0,0-3.39-.35,2.874,2.874,0,0,1-.75-2.23c.26-.88,1.49-1.33,2.42-1.56,2.79-.69,4.46,3.94,8.83,5.02a8.663,8.663,0,0,0,7.1-1.39,5.375,5.375,0,0,0,.49-.44c2.8-2.76,3-7.89,3.43-10.63a22.044,22.044,0,0,1,4.29-9.74c-6.74,2.12-8.84,4.72-9.35,6.88-.55,2.3.71,4.05-.65,6.24-1.15,1.85-3.7,3.24-5.31,2.49a3.589,3.589,0,0,1-1.56-2.08c-.95-2.29.04-3.42-.69-5.02-.88-1.95-3.4-2.64-4.5-2.94-2.93-.81-4.47.32-6.23-1.04a3.748,3.748,0,0,1-1.39-2.08c-.41-1.88.96-4.09,2.42-4.33,1.27-.21,1.73,1.21,3.46,1.39,1.32.13,2.31-.56,3.98-1.73a19.182,19.182,0,0,0,5.2-5.72c1.32-1.98,1.81-3.08,1.56-4.16-.39-1.66-2.2-2.04-2.05-2.92.23-1.35,4.67-1.43,4.65-1.77-.02-.32-3.83-1.56-6.53.22-3.46,2.28-3.05,8.19-5.42,8.46a1.665,1.665,0,0,1-.92-.17,3.957,3.957,0,0,0-.22-.34c-.3-.36-.55-.64-.36-1.01,0,0,.12-.02.26-.4a9.827,9.827,0,0,0,.36-2.61c.04-.09-.06-.17-.06-.18a.168.168,0,0,0-.15-.07,1.882,1.882,0,0,0-.75.34c.17-.32.35-.66.54-1.03a9.442,9.442,0,0,1,2.51-3.38c2.01-1.55,3.82-1.14,3.98-1.91.21-1-2.88-1.74-5.72-4.33-.13-.12-.22-.23-.34-.35a17.338,17.338,0,0,0-1.72-4.26c-.19-.22-.4-.45-.4-.45-.12-.12-.2-.21-.2-.21a14.844,14.844,0,0,0-1.83-1.61c-.02-.01-.03-.02-.05-.03-.05-.07-.09-.13-.14-.2a12.907,12.907,0,0,0-2.35-2.31,1.679,1.679,0,0,1-.4-1.32c.16-.56.95-.85,1.55-1,1.78-.44,2.85,2.52,5.65,3.21a5.54,5.54,0,0,0,4.54-.89,2.481,2.481,0,0,0,.31-.28c1.79-1.76,1.92-5.05,2.2-6.8a14.182,14.182,0,0,1,2.74-6.23c-4.31,1.35-5.65,3.02-5.98,4.4-.35,1.47.45,2.59-.42,3.99-.74,1.18-2.36,2.07-3.4,1.6a2.237,2.237,0,0,1-1-1.33c-.61-1.47.02-2.18-.44-3.21-.57-1.24-2.17-1.69-2.88-1.88-1.88-.52-2.86.2-3.99-.66a2.33,2.33,0,0,1,.66-4.1c.81-.13,1.11.77,2.22.89.84.09,1.48-.36,2.55-1.11a12.178,12.178,0,0,0,3.32-3.66c1.28-1.92,1.13-2.44,1-2.66-.25-.41-.78-.28-1.11-.78-.51-.76.17-1.92,0-1.99s-.79,1.02-1.44,1.99c-1.27,1.89-2.22,3.31-3.43,3.32a1.593,1.593,0,0,1-.43-.06,2,2,0,0,0-.16-.24c-.19-.22-.34-.4-.22-.63,0,0,.08-.01.16-.25a6.154,6.154,0,0,0,.23-1.63c.03-.05-.04-.11-.04-.11a.087.087,0,0,0-.09-.04,1.707,1.707,0,0,0-.61.29c-.05.03-.09.05-.14.08.13-.28.29-.57.47-.91a6.065,6.065,0,0,1,1.61-2.16c1.29-.99,2.44-.73,2.55-1.22.14-.64-1.84-1.11-3.66-2.77a1.594,1.594,0,0,1-.13-.13,10.581,10.581,0,0,0-1.03-2.52c-.12-.14-.25-.28-.25-.28-.07-.08-.12-.13-.12-.13a9.978,9.978,0,0,0-1.09-.96,5.31,5.31,0,0,0-.38-.53,10.521,10.521,0,0,0-5.82-3.52V35.7c-.09.02-.16.05-.25.07-.09-.02-.16-.05-.25-.07v.14a10.521,10.521,0,0,0-5.82,3.52c-1.32,1.69-1.2,2.9-2.99,4.54-1.81,1.66-3.79,2.13-3.65,2.77.1.49,1.26.23,2.55,1.22a5.978,5.978,0,0,1,1.61,2.16c.63,1.17,1.04,1.94.72,2.6a1.77,1.77,0,0,1-1.55.89c-1.22-.01-2.17-1.43-3.43-3.32-.65-.97-1.28-2.07-1.44-1.99s.51,1.23,0,1.99c-.33.5-.86.36-1.11.78-.13.22-.28.74,1,2.66a12.3,12.3,0,0,0,3.32,3.66c1.07.75,1.7,1.19,2.55,1.11,1.11-.11,1.4-1.02,2.22-.89a2.435,2.435,0,0,1,1.55,2.77,2.374,2.374,0,0,1-.89,1.33c-1.13.87-2.11.15-3.99.66-.71.19-2.31.64-2.88,1.88-.47,1.03.16,1.75-.44,3.21a2.237,2.237,0,0,1-1,1.33c-1.03.48-2.66-.41-3.4-1.6-.87-1.4-.07-2.52-.42-3.99-.33-1.39-1.67-3.05-5.98-4.4a14.182,14.182,0,0,1,2.74,6.23c.28,1.75.4,5.03,2.2,6.8a3.549,3.549,0,0,0,.31.28,5.577,5.577,0,0,0,4.54.89c2.8-.69,3.87-3.65,5.65-3.21.6.15,1.39.43,1.55,1a1.69,1.69,0,0,1-.4,1.32,13.238,13.238,0,0,0-2.35,2.31,16.126,16.126,0,0,0-1.85,3.16,15.688,15.688,0,0,0-1.79,2.87,12.809,12.809,0,0,1-1.04,1.08c-2.83,2.59-5.93,3.33-5.71,4.33.16.77,1.97.36,3.98,1.91a9.271,9.271,0,0,1,2.51,3.38c.21.4.41.76.58,1.11a16.945,16.945,0,0,0,.21,2.53.736.736,0,0,1,.28.5c-.55.62-1.46,1.48-2.38,1.32-1.98-.34-1.4-4.95-4.44-7.57s-7.84-1.65-7.86-1.44,4.63.47,4.87,1.99c.15.95-1.57,1.34-1.92,3.03-.23,1.1.25,2.19,1.56,4.16a19.167,19.167,0,0,0,5.2,5.72c1.67,1.17,2.66,1.86,3.98,1.73,1.73-.17,2.19-1.59,3.46-1.39,1.47.24,2.83,2.45,2.42,4.33a3.7,3.7,0,0,1-1.39,2.08c-1.76,1.36-3.3.23-6.23,1.04-1.11.3-3.62,1-4.5,2.94-.73,1.61.26,2.73-.69,5.02a3.589,3.589,0,0,1-1.56,2.08c-1.61.75-4.16-.64-5.31-2.49-1.36-2.19-.1-3.93-.65-6.24-.52-2.17-2.62-4.77-9.35-6.88a22.044,22.044,0,0,1,4.29,9.74c.43,2.74.63,7.87,3.43,10.63a5.374,5.374,0,0,0,.49.44,8.7,8.7,0,0,0,7.1,1.39c4.37-1.08,6.05-5.71,8.83-5.02.93.23,2.17.68,2.42,1.56.31,1.07-.86,2.32-1.26,2.96a4.751,4.751,0,0,0-1.9.45c-1.28.6-2.95,2.04-3.99,5.98a3.365,3.365,0,0,1,3.82-1.33,3.241,3.241,0,0,1,1.66,3.99c-.97,2.14-5.18.62-6.81,2.99-1.33,1.92.95,3.64,0,6.98-1.18,4.14-5.98,6.03-7.14,6.48-1.53.59-2.79,1.07-4.32.66a6.289,6.289,0,0,1-4.32-5.32c-.19-1.74.51-3.03,1.66-5.15,1.84-3.39,2.98-3.37,4.32-6.15.75-1.54,2.34-4.83.83-7.14-1.29-1.98-4.14-2.14-4.82-2.16a5.165,5.165,0,0,1,3.13,4.62,5.3,5.3,0,0,1-1.92,3.82,5.369,5.369,0,0,1-2.04,1.03,8.256,8.256,0,0,1-1.5-1c-3.2-2.66-3.01-6.49-4.65-6.81-.49-.1-1.33.09-2.66,1.83a3.662,3.662,0,0,1,2.33,0c2.19.83,2.58,3.98,2.66,4.65.26,2.18-.43,3.48-1,5.48-.45,1.59-2.39,8.38.5,12.46.7,1,2.24,2.21,5.32,4.65,1.87,1.49,2.97,2.2,2.82,2.49-.2.42-2.82-.32-4.98-1.33-2.27-1.06-5.38-2.51-6.48-5.48a12.273,12.273,0,0,1-.66-4.32c.09-1.93.63-2.43.33-3.66-.54-2.19-3.03-3.68-3.49-3.32-.34.27.68,1.36,1.33,3.82.85,3.22-.08,4.39.66,7.52a11.943,11.943,0,0,0,1.83,4.28c2.56,3.58,5.9,2.52,7.97,5.65,1.73,2.59,2.53,6.89.5,8.64-1.87,1.61-5.73.69-7.64-1.33-1.44-1.51-.71-2.51-2.16-5.15-2.1-3.83-4.57-3.46-5.32-6.15-.85-3.07,2.19-4.25,1.66-7.97-.43-3.03-2.61-3.51-3.82-6.98a12.9,12.9,0,0,1,0-7.81c-2.74,5-2.74,8.56-2.16,10.97.71,2.93,2.5,4.94,1.5,6.98-.71,1.43-2.57,2.43-3.82,1.99-1.49-.52-1.86-3.03-2.33-6.15-.62-4.2,0-5.84-1.33-7.64a6.279,6.279,0,0,0-3.16-2.16c.25.59,2.34,5.85-.33,9.14-.41.5-1.1,1.36-1.99,1.33-2.05-.06-3.83-4.7-4.15-8.47-.41-4.8,1.58-10.73,5.81-12.79.76-.37,2.34-.57,5.48-1,4.22-.58,6.06-.43,7.31-1.83a4.917,4.917,0,0,0,1.08-3.35,5.762,5.762,0,0,1-5.73,2.18,4.712,4.712,0,0,1-2.16-1.33c-1.83-.81-2.72-1.53-2.66-2.16q.165-1.71,9.8-2.49a12.755,12.755,0,0,0-8.14-.33c-.43.14-5.12,1.61-4.98,3.82.08,1.34,1.91,2.59,4.32,3.16a14.587,14.587,0,0,0-5.32.83c-4.49,1.63-8.18,5.7-10.27,10.36a56.91,56.91,0,0,1,2.17-5.54c1.43-3.1,2.19-3.34,2.49-5.15.42-2.51-.58-3.38-.17-5.32.29-1.38,1.29-3.27,4.65-5.15-3.77.44-5.53,1.82-6.43,3.04-1.61,2.18-.59,4-2.37,9.75-.94,3.02-1.8,4.38-3.16,5.15-.17.1-2.22,1.22-3.49.33-1.24-.88-1.03-3.21-.5-4.65.88-2.39,2.65-2.11,3.82-4.15,1.48-2.59-.39-4.66-.17-9.14a16.039,16.039,0,0,1,1.12-5.06,18.328,18.328,0,0,1-4.47,5.79c-.91.76-2.45,1.86-2.46,3.42,0,1.29,1.08,1.55,1.33,3.16a6.961,6.961,0,0,1-1.5,4.82c-1.55,2.31-2.62,1.81-3.49,3.49-1.12,2.16.39,3.48,0,7.14-.12,1.17-.75,2.74-1.99,5.81-2.61,6.44-3.25,6.34-3.16,7.97.13,2.31,1.58,4.2,4.49,7.97a14.409,14.409,0,0,0,2.49,2.82c3.28,2.49,6.17,1.19,7.31,2.99,1.05,1.65-.03,4.92-2.33,6.48a6.3,6.3,0,0,1-7.97-1.16c-.36-.43-.76-1.06-1.33-5.32-.75-5.59-.21-5.5-.83-7.31-.46-1.33-.62-1-4.32-6.98-1.31-2.12-1.68-2.79-1.83-3.82a8.09,8.09,0,0,1,1.66-5.65,5.042,5.042,0,0,0-2.82,1.83c-1.6,2.25-.36,5.46.17,6.81,1.52,3.94,3.52,3.69,4.65,7.14.75,2.29-.1,2.48.5,6.81a23.793,23.793,0,0,0,1.83,6.98,18.7,18.7,0,0,0,4.98,6.48,14.873,14.873,0,0,1-6.48-2.99,11.075,11.075,0,0,1-3.99-5.15c-1.08-3.32.95-4.34.5-8.14-.37-3.15-1.86-3.26-4.82-9.47-1.92-4.04-2.88-6.06-2.49-7.81.76-3.39,4.29-3.69,7.64-8.14a19.156,19.156,0,0,0,3.32-7.31,49.2,49.2,0,0,1-6.81,7.81,31.357,31.357,0,0,1-6.15,4.82c-3.51,2.01-4.42,1.46-5.98,3.16-1.76,1.92-2.24,4.43-2.82,7.48a29.126,29.126,0,0,0-.5,4.49c-.06-.39.57,1.08.19,1.16-.03,0-2.52-5.38-1.19-10.46.76-2.9,2.5-4.73,4.49-6.81,2.34-2.45,3.22-2.46,9.8-7.31,3.47-2.56,5.19-4.01,6.48-6.48.51-.99,1.89-3.62.83-5.32-.89-1.42-2.88-1.23-2.99-2.16-.11-.91,1.73-1.44,3.65-3.32A12.467,12.467,0,0,0,73,113.66a15.069,15.069,0,0,0-11.47,13.13,9.3,9.3,0,0,1-.66,4.32c-1.58,3.69-5.42,5.19-7.81,6.31A44.145,44.145,0,0,0,39.6,147.55c-4.61,6.28-3.95,10.48-3.49,12.13.36,1.31.64,1.13,4.32,6.48,4.07,5.91,4.85,7.74,7.48,9.14a11.852,11.852,0,0,0,5.15,1.33c.03.65.08,1.63.17,2.82.19,2.47.5,5.14.66,5.98.85,4.2,7.18,6.81,10.8,8.31a35.466,35.466,0,0,0,17.61,2.33c4.87-.46,7.31-1.65,8.97-2.82a14.819,14.819,0,0,0,2.99-2.82,10.044,10.044,0,0,1-1.33,3.99c-2.46,4.11-7.37,5.1-10.13,5.65-6.34,1.27-11.89-.34-15.29-1.33-1.6-.47-4.18-1.35-5.98-1.99a45.618,45.618,0,0,1-4.65-1.83,23.034,23.034,0,0,1-5.81-3.82c-2.25-2.07-4.2-3.86-3.99-5.98.16-1.6,1.44-2.15,1.5-4.15a5.618,5.618,0,0,0-.83-2.99,6.052,6.052,0,0,1-2.82,2.33,5.719,5.719,0,0,1-3.16.33,6.846,6.846,0,0,1-4.82-4.98c-.79-3,1.1-4.47.17-6.98a6.751,6.751,0,0,0-3.65-3.49c2.31,3.35,2.45,5.75,2.16,7.31-.35,1.89-1.31,2.36-1.5,4.49a8.941,8.941,0,0,0,1.83,5.98,10.323,10.323,0,0,0,5.65,3.32c1.73.41,2.47.12,3.16.83,1.06,1.11.12,2.68.33,4.98.38,4.08,4.06,6.83,5.15,7.64,1.49,1.11,4.07,3.04,7.14,2.66,2.52-.31,3.54-1.95,4.98-1.33,1.37.59.62,2.41,2.49,4.32,2.23,2.28,4.65,2.46,4.65,3.66,0,1.05-1.86,2.1-3.49,2.16a4.143,4.143,0,0,1-3.16-1.33c-1.07-1.19-.56-2.18-1.33-2.82-1.28-1.07-3.49,1.04-6.98,1.5-3.18.42-7.46-.54-9.14-3.16-1.04-1.63-.08-2.33-1-6.81-.68-3.35-1.02-5.02-2.33-5.98-2.15-1.58-4.26-.15-6.48-1.99-1.82-1.51-1.81-3.73-2.16-3.66-.53.11-1.05,5.21,1.5,7.14,2.01,1.52,4.18-.19,5.98,1.33,1.05.89.95,2.1,1.33,6.81.37,4.61.55,6.91,1,7.97.85,2.02,2,2.6,7.81,6.65,8.51,5.92,8.8,6.61,10.97,6.81,2.91.27,8-.47,9.8-3.49.45-.75.69-1.64,1.66-2.16,1.45-.78,2.84.55,4.65.5,1.63-.05,6.98-.21,9.97-3.82,1.39-1.68,1.71-3.44,2.33-6.81.97-5.33-.28-6.93,1.33-8.81,1.4-1.64,2.68-.81,5.81-3.16a34.438,34.438,0,0,0,3.49-3.49c4.29-4.58,4.54-5.44,4.65-5.98.25-1.26,0-2.56-.5-5.15a30.389,30.389,0,0,0-.83-3.32c4.45,3.52,5.09,5.83,4.82,7.31-.21,1.17-.86,1.07-3.49,5.32-1.29,2.08-1.94,3.15-2.16,4.32-.2,1.07-.1,1.76-.66,2.33-.83.83-2.1.39-3.32.5-3.59.31-5.91,5.3-6.15,5.81-.65,1.39-.55,4.55-.33,10.8.15,4.24.3,5.72,1.5,6.65,1.38,1.07,3.34.78,4.49.5l-.66-2.82a9.45,9.45,0,0,1-1.33-3.32,10.088,10.088,0,0,1,3.16-9.14,8.942,8.942,0,0,1,4.82-2.33,8.146,8.146,0,0,1,1.99,0l-.17,3.16c-.83.54-5.84,3.95-6.31,9.8-.05.65-.46,6.72,3.32,8.81a5.839,5.839,0,0,0,3.16.66,16.493,16.493,0,0,1-4.32,4.65c-1.67,1.21-4.35,3.15-7.81,2.82-3.25-.3-7.39-2.63-7.48-5.81a5.415,5.415,0,0,1,1.83-3.82c.28-1.44.55-2.88.83-4.32-5.82,4.21-8.8,10.64-7.48,16.28a12.369,12.369,0,0,0,5.15,7.48,12.116,12.116,0,0,0,10.97,1c1.71-.7,3.52-2.9,7.14-7.31,1.2-1.46,2.42-3.08,1.99-4.65-.28-1.05-1.1-1.31-1-1.99.23-1.62,5.15-1.24,5.48-3.16.2-1.16-1.14-1.74-2.66-4.32-3.75-6.38-3.67-7.6-3.49-8.31.4-1.53,1.51-1.47,5.32-4.32,3.76-2.82,3.88-3.77,7.97-6.65,3.54-2.48,4.8-2.71,5.82-2.66,1.91.09,2.56,1.14,4.32.83s1.86-1.49,3.99-2.66c1.11-.61,2.86-.86,6.31-1.33,4.44-.61,5.47-.47,5.98-1.33.91-1.53-1.46-3.35-.5-5.32.69-1.4,2.16-1.04,3.65-2.99a8.5,8.5,0,0,0,1.33-2.99,24.327,24.327,0,0,0,.83-5.98c.25-2.88,1.38-4.86,3.16-7.97a34.015,34.015,0,0,1,6.98-8.31,10.615,10.615,0,0,0,1.45-1.87,10.162,10.162,0,0,0,1.45,1.87,33.81,33.81,0,0,1,6.98,8.31c1.78,3.11,2.91,5.1,3.16,7.97a24.327,24.327,0,0,0,.83,5.98,8.325,8.325,0,0,0,1.33,2.99c1.49,1.95,2.97,1.59,3.66,2.99.96,1.97-1.41,3.79-.5,5.32.51.86,1.54.72,5.98,1.33,3.45.47,5.2.72,6.31,1.33,2.13,1.17,2.23,2.35,3.99,2.66s2.41-.74,4.32-.83c1.02-.05,2.28.18,5.81,2.66,4.1,2.87,4.21,3.83,7.97,6.65,3.8,2.85,4.92,2.79,5.32,4.32.19.71.26,1.92-3.49,8.31-1.52,2.58-2.86,3.16-2.66,4.32.34,1.92,5.25,1.54,5.48,3.16.1.69-.71.94-1,1.99-.43,1.57.8,3.19,1.99,4.65,3.62,4.41,5.43,6.61,7.14,7.31a12.12,12.12,0,0,0,10.97-1,12.343,12.343,0,0,0,5.15-7.48c1.33-5.65-1.66-12.07-7.48-16.28.28,1.44.55,2.88.83,4.32A5.476,5.476,0,0,1,238.2,228c-.09,3.19-4.23,5.51-7.48,5.81-3.46.32-6.14-1.61-7.81-2.82a16.627,16.627,0,0,1-4.32-4.65,5.949,5.949,0,0,0,3.16-.66c3.78-2.09,3.37-8.15,3.32-8.81-.47-5.85-5.49-9.26-6.31-9.8-.06-1.05-.11-2.1-.17-3.16a8.161,8.161,0,0,1,1.99,0,8.841,8.841,0,0,1,4.82,2.33,10.114,10.114,0,0,1,3.16,9.14,9.369,9.369,0,0,1-1.33,3.32l-.66,2.82c1.15.28,3.11.57,4.49-.5,1.19-.93,1.35-2.4,1.5-6.65.22-6.25.32-9.41-.33-10.8-.24-.52-2.56-5.5-6.15-5.81-1.22-.11-2.49.34-3.32-.5-.56-.57-.46-1.26-.66-2.33-.22-1.17-.87-2.24-2.16-4.32-2.63-4.25-3.27-4.15-3.49-5.32-.27-1.48.37-3.79,4.82-7.31a31,31,0,0,0-.83,3.32c-.5,2.59-.75,3.89-.5,5.15.11.54.36,1.4,4.65,5.98a34.44,34.44,0,0,0,3.49,3.49c3.13,2.35,4.41,1.52,5.81,3.16,1.6,1.88.36,3.47,1.33,8.81.61,3.38.93,5.13,2.33,6.81,2.99,3.61,8.33,3.77,9.97,3.82,1.81.05,3.2-1.28,4.65-.5.97.52,1.22,1.41,1.66,2.16,1.8,3.02,6.89,3.76,9.8,3.49,2.16-.2,2.46-.89,10.97-6.81,5.81-4.04,6.96-4.62,7.81-6.65.44-1.06.63-3.37,1-7.97.38-4.71.27-5.92,1.33-6.81,1.8-1.52,3.97.19,5.98-1.33,2.55-1.93,2.02-7.03,1.5-7.14ZM169.83,125.1c.98.28,1.96.65,2.38.82a8.921,8.921,0,0,1-5.49-.23,8.7,8.7,0,0,1-2.09-1.25A27.669,27.669,0,0,1,169.83,125.1ZM151.17,88.37c0-1.42.18-2.44,1.12-3.17a35.818,35.818,0,0,1,4.54-1.34h0c.17-.04.37-.09.58-.14a5.116,5.116,0,0,1,.56-.03,3.347,3.347,0,0,1,2.77,1.35,4.266,4.266,0,0,1,.67,1.35h-.23a3.574,3.574,0,0,0-.92.12,1.186,1.186,0,0,0-.81.62c-.19.61-.35,1.15-.5,1.64h0c-.53,1.76-.82,2.73-1.35,3.24-.52.49-1.26.57-2.84.57-1.76-.48-3.81-2.6-3.59-4.2Zm11.38,16.88h-.4c-.31-.02-.6-.06-.83-.09v.06a4.667,4.667,0,0,1-2.26-.81,1.635,1.635,0,0,1-.54-.46c-.12-.17-.23-.34-.34-.51h.08c.86-.82.25-1.26.02-2.11-.18-.67-.16-.6-.11-.97-.03-.16-.56-.72-.94-.59,0,0-.16-.06-.41.35-.03.05-.05.09-.08.14-.04-.16-.06-.33-.09-.49a.753.753,0,0,1,.23-.37.331.331,0,0,1,.23-.07,2.309,2.309,0,0,1,1,.43,2.785,2.785,0,0,1,.06-.58,1.131,1.131,0,0,1,1.08-.93,1.9,1.9,0,0,1,1.18.61,2.161,2.161,0,0,1,.16-.49.967.967,0,0,1,.58-.59,2.582,2.582,0,0,1,.4-.04,1.146,1.146,0,0,1,1.21.88,2.47,2.47,0,0,1,.29-.47,1.17,1.17,0,0,1,.85-.47h.05a1.036,1.036,0,0,1,.93.51c.06.1.12.2.17.3.06.12.1.21.15.21h0a1.108,1.108,0,0,0,.29-.14,1.928,1.928,0,0,1,.89-.34.44.44,0,0,1,.16.02,1.709,1.709,0,0,1,.82,1.53c0,.12,0,.19.04.19.02,0,.04-.02.08-.07a.916.916,0,0,1,.59-.37l-.06.3a1.309,1.309,0,0,0-.59.54c.05.37.07.3-.11.97-.15.58-.47.97-.4,1.42-.24.41-.49.81-.77,1.2a1.743,1.743,0,0,1-.54.46,4.666,4.666,0,0,1-2.26.81v-.06a8.115,8.115,0,0,1-.83.09Zm-2.69-31.79c.66-.24.76-.02,2.99.11,2.43.15,2.82-.09,3.88.33a5.989,5.989,0,0,1,1.88,1.22,6.907,6.907,0,0,1,1.99,3.1c.22.73.62,2.06.11,2.44-.65.48-2.84-.59-3.77-2.33-.48-.91-.35-1.5-.89-1.77-.77-.39-1.38.69-2.99.89-1.81.22-2.75-.93-3.54-.33-.67.5-.06,1.36-.78,2.1-.8.82-1.88.1-3.77,1-.78.37-.98.68-1.22.55-.62-.31-.5-2.87.89-4.1.82-.72,1.29-.29,2.66-1.11,1.48-.89,1.37-1.67,2.55-2.1Zm2.88,16.11s.61.97,1.21,2.02a9.671,9.671,0,0,1,1.21,2.69,2.618,2.618,0,0,1-.41,1.28c-.23.38-.49.64-.64.64a.09.09,0,0,1-.05-.01,12.023,12.023,0,0,1-1.26-1.33,6.5,6.5,0,0,1-.49.68c-.26.31-.63.68-.94.68a.384.384,0,0,1-.3-.15,4.015,4.015,0,0,1-.64-1.79,10.421,10.421,0,0,1,1.26-3.04c.53-.94,1.04-1.66,1.04-1.67Zm11.41-.4a13.366,13.366,0,0,1-.74,1.74,5.669,5.669,0,0,1-2.52,1.66c-1.58,0-2.33-.08-2.84-.57-.53-.51-.82-1.48-1.35-3.23-.14-.48-.31-1.03-.5-1.64a1.209,1.209,0,0,0-.81-.62,3.186,3.186,0,0,0-.92-.12h-.22a3.974,3.974,0,0,1,.67-1.35,3.321,3.321,0,0,1,2.77-1.35,5.254,5.254,0,0,1,.56.03c.22.05.41.1.59.14a35.821,35.821,0,0,1,4.54,1.35c.94.73,1.13,1.75,1.12,3.17a1.841,1.841,0,0,1-.08.8,2.255,2.255,0,0,1-.26,0Zm1.71-1.65a7.913,7.913,0,0,0-.43-1.24,2.782,2.782,0,0,0-.51-.84c-.63-.18-.56-2.15-.42-3.07.06-.42.13-.67.19-.67a.032.032,0,0,1,.03.03c.09.16,1.32,3.4,1.66,4.27a6.071,6.071,0,0,1-.46,1.77c-.02-.08-.03-.16-.05-.25Zm-20.91,8.76a1.881,1.881,0,0,1,.97,1.23.9.9,0,0,1-.07.67c-.4-.66-.79-1.33-1.17-2C154.77,96.22,154.87,96.24,154.95,96.28Zm1.41,14.99h3.77v-4.35h4.42v4.35h3.77c.02,1.86.04,3.72.06,5.59l-3.44.06-.06,5.19c-.65-.03-1.31-.05-1.96-.08v-.04c-.19,0-.39.01-.58.02s-.39-.02-.58-.02v.04c-.65.03-1.31.05-1.96.08l-.06-5.19-3.44-.06C156.32,115,156.34,113.14,156.36,111.27Zm9.24-56.23a.657.657,0,0,0-.57-.18.687.687,0,0,0-.59.37l-.05,1.45c-.01.33-.08.9.62.95a1.118,1.118,0,0,0,.47-.41,9.825,9.825,0,0,1-.68,1.12.945.945,0,0,1-.35.29,3,3,0,0,1-1.44.52v-.04c-.14.02-.33.05-.53.06h-.26c-.2-.01-.38-.04-.53-.06v.04a2.9,2.9,0,0,1-1.44-.52,1.033,1.033,0,0,1-.35-.29,8.074,8.074,0,0,1-.83-1.49c.51,1.09.96,1.11,1.06,1.09.53-.51.16-.79.02-1.32-.11-.42-.1-.38-.07-.61-.02-.1-.35-.45-.59-.37,0,0-.1-.04-.26.22a1.271,1.271,0,0,0-.21.86,5.029,5.029,0,0,1-.21-.54l.15-.09c.05-.03.09-.05.09-.05v-.06a.769.769,0,0,1,.2-.57.191.191,0,0,1,.15-.04,1.58,1.58,0,0,1,.63.27,1.472,1.472,0,0,1,.04-.36c.04-.17.12-.4.31-.47a.771.771,0,0,1,.36-.12,1.209,1.209,0,0,1,.74.38,1.6,1.6,0,0,1,.1-.31.625.625,0,0,1,.36-.37,1.948,1.948,0,0,1,.25-.02.776.776,0,0,1,.63.28.719.719,0,0,1,.13.28,1.415,1.415,0,0,1,.18-.29.762.762,0,0,1,.53-.3h.03a.65.65,0,0,1,.58.32,1.14,1.14,0,0,1,.1.19c.04.07.06.13.09.13h0a.608.608,0,0,0,.18-.09,1.19,1.19,0,0,1,.56-.21.34.34,0,0,1,.1.01,1.068,1.068,0,0,1,.51.96c0,.07,0,.12.02.12s.03-.01.05-.04a.228.228,0,0,1,.09-.08c-.02.09-.03.18-.05.26a.257.257,0,0,0-.07.12.373.373,0,0,0,.02.12,5.7,5.7,0,0,1-.3.78,6.647,6.647,0,0,0,.16-1.11c-.03-.5.03-.52-.15-.76Zm-9.91-6.53a2.212,2.212,0,0,1,.7-1.98,23.891,23.891,0,0,1,2.84-.84h0c.11-.03.23-.05.37-.09.12-.01.23-.02.35-.02a2.069,2.069,0,0,1,1.73.85,2.6,2.6,0,0,1,.42.85h-.14a1.828,1.828,0,0,0-.57.08.781.781,0,0,0-.51.39c-.12.38-.22.72-.31,1.02h0a5.065,5.065,0,0,1-.84,2.02c-.32.31-.79.36-1.78.36-1.1-.3-2.38-1.62-2.24-2.62Zm14.2.37a9.317,9.317,0,0,1-.53,1.26,4.27,4.27,0,0,1-.3.44,3.084,3.084,0,0,1-1.04.55c-.99,0-1.45-.05-1.78-.36a5.065,5.065,0,0,1-.84-2.02c-.09-.3-.19-.64-.31-1.02a.757.757,0,0,0-.51-.39,2.24,2.24,0,0,0-.57-.08h-.14a2.7,2.7,0,0,1,.42-.85,2.1,2.1,0,0,1,1.73-.85,2.056,2.056,0,0,1,.35.02c.14.03.26.06.37.09a23.89,23.89,0,0,1,2.84.84,2.233,2.233,0,0,1,.7,1.98c.01.1,0,.21,0,.33a.923.923,0,0,1-.37.05Zm-5.45,3.33a1.648,1.648,0,0,1-.26.8c-.14.24-.31.4-.4.4h-.03a8.1,8.1,0,0,1-.79-.83,2.529,2.529,0,0,1-.31.42c-.16.19-.39.42-.59.42a.258.258,0,0,1-.19-.1,2.539,2.539,0,0,1-.4-1.12,6.388,6.388,0,0,1,.79-1.9c.33-.59.65-1.04.65-1.04s.38.61.76,1.26a5.907,5.907,0,0,1,.76,1.68Zm6.65-4.36a4.97,4.97,0,0,0-.22-.65,1.738,1.738,0,0,0-.32-.52c-.39-.11-.35-1.34-.26-1.92.04-.26.08-.42.12-.42,0,0,.02.01.02.02.05.09.62,1.58.91,2.35a4.2,4.2,0,0,1-.24,1.14Zm-4.49-7.62a4.367,4.367,0,0,1,1.25,1.94c.14.45.39,1.29.07,1.52-.41.3-1.78-.37-2.35-1.45-.3-.57-.22-.94-.55-1.11-.48-.24-.87.43-1.87.55-1.13.14-1.72-.58-2.22-.21-.42.31-.04.85-.48,1.32-.5.51-1.18.06-2.35.62-.49.23-.61.42-.76.35-.39-.2-.31-1.79.55-2.56.51-.45.81-.18,1.66-.69.93-.56.85-1.05,1.59-1.32.41-.15.48-.01,1.87.07,1.52.09,1.76-.05,2.42.21a3.919,3.919,0,0,1,1.18.76Zm-4.41-2.46h.05v.04c.03-.01.07,0,.1-.02a.18.18,0,0,1,.1.02v-.04c.02,0,.03-.01.05,0a5.659,5.659,0,0,1,.82.16h-.09q-.315-.03-.63-.03a6.936,6.936,0,0,0-2.47.46c-.25.09-.48.21-.72.32a6.394,6.394,0,0,1,2.78-.91Zm-8.27,10.71c-.82-1.25-.86-3.47.39-4.42a8.174,8.174,0,0,0-.32,1.1,8.721,8.721,0,0,0-.16,1.25,5.531,5.531,0,0,0,.03,1.15s.06.12.14.12q.09,0,.15-.18a21.26,21.26,0,0,1,1.36-3.13h.02a.082.082,0,0,1,.06.04,2.77,2.77,0,0,1,.14,1.54,2.347,2.347,0,0,1-.39.78,4.644,4.644,0,0,0-.63,1.26,2.233,2.233,0,0,0-.05.89.865.865,0,0,1-.75-.38Zm3.52,4.86a.352.352,0,0,1,.02-.12,2.156,2.156,0,0,1,.61.24,1.188,1.188,0,0,1,.61.77.541.541,0,0,1-.18.59,1.71,1.71,0,0,0-.11.14c-.01-.01-.03-.02-.04-.04-.31-.52-.62-1.04-.91-1.57Zm3.25,13.29c-.73-.01-1.47-.03-2.2-.04.01-1.19.03-2.38.04-3.57h2.41V60.24h2.84v2.78h2.41c.01,1.19.03,2.38.04,3.57-.73.01-1.47.03-2.2.04-.01.9-.02,1.79-.03,2.69-.41-.13-.81-.27-1.26-.39a1.49,1.49,0,0,1,.02-.21c-.14.03-.26.07-.39.11-.13-.03-.25-.08-.39-.11a1.49,1.49,0,0,0,.02.21c-.44.12-.85.26-1.26.39-.01-.9-.02-1.79-.03-2.69ZM149.18,88.55a5.39,5.39,0,0,1-.65-1.53c.07-.03.13-.1.18-.25a32.112,32.112,0,0,1,2.18-5.01h.04a.11.11,0,0,1,.1.06,4.365,4.365,0,0,1,.22,2.46,3.845,3.845,0,0,1-.62,1.24,7.33,7.33,0,0,0-1,2.02,3.574,3.574,0,0,0-.1,1.38,1.465,1.465,0,0,1-.34-.36Zm4.78,7.54a1.126,1.126,0,0,1,.03-.18,3.03,3.03,0,0,1,.42.16A1.363,1.363,0,0,1,153.96,96.09Zm-1.68,29.93h0a26.541,26.541,0,0,1,2.59-.91,30.368,30.368,0,0,1,6.83-.71h.37a10.11,10.11,0,0,1-3.11,2.13c-2.93,1.21-5.26.11-7.53-.09.24-.13.51-.27.83-.42Zm2.74,31.58c-1.41.51-3.67-2.61-3.82-2.82-1.49-2.09-1.55-3.84-1.99-3.82-.72.03.09,4.61-1.99,9.14-2.24,4.85-5.43,4.47-6.31,8.47-.63,2.83.85,3.55,1,9.14a21.913,21.913,0,0,1-.5,6.48,16.687,16.687,0,0,1-11.96,11.3c-.4.1-9.18,2.07-13.12-2.82-1.96-2.43-2.24-5.97-2.33-6.98a24.8,24.8,0,0,1,.33-4.82,14.576,14.576,0,0,0-4.82-11.3c-5.35-4.26-10.59,2.19-18.11-1.99-4.29-2.39-5.99-6.38-10.13-8.31a4.241,4.241,0,0,1-2.33-2.16,3.981,3.981,0,0,1,.33-2.99c.46.27,1.16.67,1.99,1.16,10.39,6.14,11.77,8.31,16.78,10.13,4.61,1.68,10.08,2.27,10.63,1,.32-.75-1.1-2.03-1.83-2.66-2.03-1.77-4.4-.89-7.31-1.83a35.714,35.714,0,0,1-9.3-4.15c-3.24-2.12-5.58-3.66-6.48-6.65a10.307,10.307,0,0,1,.5-6.65c1.03-2.55,2.09-2.32,3.99-5.48a11.605,11.605,0,0,0,.76-1.45c-2.05,4.65-2.52,9.89-.63,13.91,1.79,3.8,5.59,5.66,9.3,7.48,7.46,3.65,11.11,1.51,15.62,5.48a17.641,17.641,0,0,1,5.15,9.3c1.47,6.7-1.99,9.61.33,14.12a10.158,10.158,0,0,0,7.81,5.32c5.42.47,10.21-4.55,11.8-8.97,1.04-2.89.91-6.1.66-12.13-.12-2.88-.38-4.88.66-7.31a11.7,11.7,0,0,1,3.99-4.82c-.17-.94-.33-1.88-.5-2.82-2.93.51-6.13.93-6.31.33-.13-.43,1.41-1.01,3.49-2.49,2.34-1.66,6.12-4.35,6.81-8.14.49-2.66-.93-3.76.17-5.81,1.01-1.9,3.29-2.95,3.82-2.49.66.57-2.1,3.03-1.99,6.81.08,2.79,1.7,6.04,3.74,6.23a3.6,3.6,0,0,0,2.77-1.37,1.351,1.351,0,0,0-.16.29c-.26.75.33,1.21.6,2.57.36,1.78-.04,4.19-1.1,4.58Zm61.37,11.96a14.576,14.576,0,0,0-4.82,11.3,24.8,24.8,0,0,1,.33,4.82c-.08,1.01-.36,4.54-2.33,6.98-3.95,4.9-12.72,2.92-13.13,2.82a16.67,16.67,0,0,1-11.96-11.3,21.913,21.913,0,0,1-.5-6.48c.14-5.59,1.63-6.31,1-9.14-.89-4-4.08-3.62-6.31-8.47-2.09-4.53-1.27-9.1-1.99-9.14-.44-.02-.5,1.73-1.99,3.82-.15.21-2.42,3.34-3.82,2.82-1.06-.39-1.46-2.79-1.1-4.58.27-1.35.87-1.82.61-2.57-.41-1.18-2.34-1.29-3.32-1.66a4.2,4.2,0,0,1-2.19-2.37,77.312,77.312,0,0,0-1.56-8.67c-.04-.81-.06-1.66-.07-2.59-.1.4-.19.77-.28,1.16-.1-.39-.18-.76-.28-1.16,0,.93-.03,1.78-.07,2.59a77.312,77.312,0,0,0-1.56,8.67,4.2,4.2,0,0,1-2.19,2.37c-.79.3-2.18.44-2.91,1.09a5.394,5.394,0,0,0,.55-.76c2.73-4.47-1.7-10.67.9-12.88.84-.72,1.7-.49,2.59-1.57.86-1.04.6-2.23.66-3.66a13.566,13.566,0,0,1,2.41-6.61h.09a12.288,12.288,0,0,1,1.92,5.78c.06,1.42-.19,2.62.66,3.66.89,1.08,1.75.86,2.59,1.57,2.6,2.21-1.83,8.41.9,12.88.75,1.23,2.17,2.55,3.57,2.41,2.04-.2,3.66-3.44,3.74-6.23.1-3.78-2.65-6.25-1.99-6.81.53-.46,2.81.59,3.82,2.49,1.09,2.05-.32,3.16.17,5.81.69,3.79,4.47,6.48,6.81,8.14,2.08,1.48,3.62,2.06,3.49,2.49-.18.6-3.38.17-6.31-.33-.17.94-.33,1.88-.5,2.82a11.773,11.773,0,0,1,3.99,4.82c1.04,2.43.78,4.43.66,7.31-.24,6.03-.37,9.24.66,12.13,1.59,4.42,6.38,9.44,11.8,8.97a10.158,10.158,0,0,0,7.81-5.32c2.32-4.51-1.14-7.42.33-14.12a17.607,17.607,0,0,1,5.15-9.3c4.51-3.97,8.15-1.84,15.62-5.48,3.71-1.81,7.52-3.67,9.3-7.48,1.64-3.49,1.5-7.89.1-12.04.07.13.15.26.24.41,1.9,3.16,2.96,2.93,3.99,5.48a10.307,10.307,0,0,1,.5,6.65c-.9,2.98-3.24,4.52-6.48,6.65a35.526,35.526,0,0,1-9.3,4.15c-2.91.94-5.28.06-7.31,1.83-.72.63-2.15,1.91-1.83,2.66.55,1.28,6.02.68,10.63-1,5.02-1.83,6.39-3.99,16.78-10.13.84-.49,1.53-.9,1.99-1.16a3.987,3.987,0,0,1,.33,2.99,4.18,4.18,0,0,1-2.33,2.16c-4.14,1.93-5.85,5.92-10.13,8.31-7.52,4.18-12.76-2.27-18.11,1.99Z" fill="#fff"/>
    <path id="Path_4114" data-name="Path 4114" d="M87.02,111.48a23.81,23.81,0,0,0,1.04-2.25A18.329,18.329,0,0,0,87.02,111.48Z" fill="#fff"/>
    <path id="Path_4115" data-name="Path 4115" d="M138.57,136.99a9.477,9.477,0,0,0-5.16,2.06c-2.85,2.38-4.45,6.9-2.79,9.72a4.468,4.468,0,0,0,2.54,2c2.07.54,4.36-.83,5.4-2.66a5.752,5.752,0,0,0,.42-4.4c-1.44,2.88-3.35,4.38-4.57,3.99a2.2,2.2,0,0,1-1.16-1.33c-.6-1.57.4-3.25,1.41-4.9a18.018,18.018,0,0,1,3.92-4.47Z" fill="#fff"/>
    <path id="Path_4116" data-name="Path 4116" d="M190.68,146.36c-1.22.39-3.13-1.11-4.57-3.99a5.7,5.7,0,0,0,.42,4.4c1.04,1.83,3.33,3.2,5.4,2.66a4.428,4.428,0,0,0,2.54-2c1.66-2.81.06-7.34-2.79-9.72a9.4,9.4,0,0,0-5.16-2.06,18.232,18.232,0,0,1,3.92,4.47c1.02,1.65,2.02,3.33,1.41,4.9a2.2,2.2,0,0,1-1.16,1.33Z" fill="#fff"/>
  </g>
</svg>
