<svg id="Component_296_1" data-name="Component 296 – 1" xmlns="http://www.w3.org/2000/svg" width="340" height="340" viewBox="0 0 340 340">
  <g id="Component_223_15" data-name="Component 223 – 15">
    <g id="Ellipse_834" data-name="Ellipse 834" fill="#fff" stroke="#000" stroke-width="3">
      <circle cx="170" cy="170" r="170" stroke="none"/>
      <circle cx="170" cy="170" r="168.5" fill="none"/>
    </g>
    <circle id="Ellipse_835" data-name="Ellipse 835" cx="150" cy="150" r="150" transform="translate(20 20)"/>
  </g>
  <g id="Group_296" data-name="Group 296" transform="translate(9.53 9.378)">
    <path id="Path_3663" data-name="Path 3663" d="M118.04,180.03c-1.97.56-3.08.64-3.94,1.15-4.88,2.91-8.93,2.19-12.46-2.34-4.6-5.88-4.42-17.14,1.86-20.73a48.361,48.361,0,0,1,21.03-6.29c6.29-.29,9.68,5.94,12.97,12.94-2.86-.91-4.29-1.49-5.78-1.81-3.07-.66-6.38-2.11-9.18-1.47-2.31.53-4.84,3.32-5.72,5.68-.6,1.62,1.45,4.23,2.38,6.55a12.194,12.194,0,0,0,2.08-1.25c1.27-1.71,2.51-3.46,3.76-5.19,2,1.76,4.67,3.16,5.87,5.36,2.19,4.04,1.18,8.32-2.08,11.46a33.82,33.82,0,0,1-8.52,5.95,92.417,92.417,0,0,1-12.95,4.95c-5.5,1.72-15.29-5.13-16.46-11.76-.65-3.67-1.58-6.05-5.35-7.91-5.48-2.7-6.27-12.64-2.16-18.34,4.37-6.07,9.5-11.72,13.01-18.25,4.76-8.88,7.17-18.75,5.69-28.94-.92-6.4-7.57-11.47-15.16-12.69-5.7-.92-14.3,2.83-17,7.53-.45.79-.89,2.12-.53,2.74,2.47,4.29,4.79,8.76,7.89,12.57,2.41,2.96,6.1,3.84,10.02,2.23,3.33-1.37,5.57-3.75,4.59-7.21-.38-1.36-3.47-1.95-6.35-3.41,1.64-1.19,3.47-3.52,5.38-3.59,1.59-.06,3.92,2.26,4.72,4.05.78,1.75.49,4.33-.13,6.29-1.64,5.24-3.79,10.32-5.58,15.51-.96,2.8-2.56,3.88-5.61,3.62-4.97-.44-9.39-1.48-12.84-5.62-1.16-1.4-3.7-2.08-5.69-2.28-6.71-.69-10.87-4.35-11.19-11.08-.32-6.55.44-12.95,4.58-18.54a7,7,0,0,0,1.22-4.54C58.7,80.72,70.36,70.43,84.88,73.76c7.9,1.81,16.3,2.12,22.48,8.5.39.4,1.46.15,3-.8a37.441,37.441,0,0,0-4.35-4.7c-5.27-4.09-11.42-5.19-17.94-4.67-4.07.33-7.44-.79-8.39-5.21-.69-3.18,2.93-6.6,7.43-7.36,5.8-.98,9.77,2.37,13.66,5.88,1.88,1.69,3.78,3.34,5.68,5.02.48-.39.96-.78,1.43-1.18-.76-1.36-1.22-3.07-2.32-4.03-4.92-4.27-7.88-9.24-5.2-15.75,2.04-4.96,11.92-8.99,18.29-7.83,8.84,1.61,15.39,6.02,17.93,15.17a7.25,7.25,0,0,0,2.4,3.52c2.49-4.12-.13-7.35-1.64-10.71-1.15-2.55-4.11-6.06-3.32-7.37a26.05,26.05,0,0,1,8.74-8.27c4.03-2.43,8.63-3.26,13.42-1.11,1.48.66,3.63.39,5.32-.05a19.776,19.776,0,0,1,21.46,7.67c1.73,2.47,1.63,4.01-.47,6.43-2.31,2.67-3.7,6.19-5.2,9.48-.49,1.08-.08,2.58-.08,3.89l1.63.33a26.667,26.667,0,0,0,2-4,21.174,21.174,0,0,1,33.9-10.15c4.71,3.84,4.61,12.26-.06,16.31-2,1.74-3.71,3.8-5.55,5.72l1.46,1.73c1.64-1.21,3.26-2.45,4.93-3.62,3.22-2.26,6.24-5.02,9.79-6.53,2.15-.92,5.33-.47,7.68.38,5.14,1.84,5.64,5.23,1.94,12.22,1.97.23,3.7.41,5.42.63,11.58,1.49,18.35,10.32,16.75,21.54a7.516,7.516,0,0,0,1.05,5.03c4.24,5.76,4.92,12.32,4.56,19.04-.31,5.82-3.88,9.21-9.57,10.58a27.1,27.1,0,0,0-6.6,3.08c-2.02,1.13-3.75,2.86-5.86,3.72-6.75,2.75-9.63,1.35-12.05-5.4-1.35-3.76-2.83-7.48-4.03-11.29-.59-1.87-1.43-4.14-.87-5.79.76-2.24,2.38-5.15,4.31-5.81,2.97-1.01,4.95,1.52,6.11,4.42-2.25,1.68-6.63-1.95-6.64,3.11,0,4.5,2.98,6.55,6.9,7.24,4.73.83,8.2-1.77,10.35-5.52,2.33-4.08,5.46-8.46,2.65-13.48-2.62-4.69-13.58-7.9-18.89-5.94-7.37,2.72-11.85,9.03-11.32,17.02a71.282,71.282,0,0,0,15.08,40.08c6.41,8.2,5.62,15.46-2.26,21.98-1.82,1.5-2.73,4.38-3.51,6.81-2.08,6.48-11.19,13.22-16.38,11.19a128.108,128.108,0,0,1-16.46-8.2,11.643,11.643,0,0,1-4.55-5.12c-.95-2.14-1.73-5.18-.9-7.09,1.19-2.74,3.9-4.83,5.97-7.19,1.71,1.65,3.42,3.3,5.81,5.61,2.25-.26,3.34-2.63,3.04-5.45-.37-3.42-2.34-6.46-6.03-6.07-4.19.44-8.28,1.99-12.34,3.29-1.5.48-2.8,1.61-4.7,2.02a20.178,20.178,0,0,1,9.42-13.95c3.98-2.45,7.87-1.63,11.68.97a9.977,9.977,0,0,0,5.41,1.68c6.44-.05,11.36,4.38,12.13,11.35.91,8.23-3.34,15.6-9.69,16.41-1.48.19-3.15-.59-4.64-1.16a37.5,37.5,0,0,1-4.13-2.25c-.4,4.92,2.27,6.18,5.27,6.57,8.47,1.09,15.65-5.15,16.73-14.29,1.21-10.21-4.37-18.91-12.73-20.23a33.9,33.9,0,0,1-8.45-2.41c-6.79-3-14.08-1.14-19.14,5.25-6.61,8.35-8.88,18.45-11.8,28.38-5.11,17.4-7.33,35.19-8.48,53.18a52.688,52.688,0,0,1-1.06,6.04c-.5,0-.99,0-1.49.01-.36-2.53-.9-5.04-1.06-7.58-1.11-16.98-2.3-33.99-8.25-50.12a203.537,203.537,0,0,0-10.8-24.68c-6.41-12.15-12.71-14.02-25.31-8.84a13.249,13.249,0,0,1-3.88.71c-9.35.8-15.05,8.06-14.56,18.6.45,9.73,6.99,16.27,16.17,16.04,3.28-.08,5.59-1.64,6.76-6.29Zm12.51-50.89c19.83-7.74,38.56-7.44,57.88.04-7.52-19.59-7.74-38.31-.22-58.14-19.21,6.75-38,6.99-57.64-.04,7.36,19.75,6.32,38.42-.02,58.13ZM121.1,86.99a10.178,10.178,0,1,0-.21,20.35,10.176,10.176,0,0,0,.2-20.35Zm38.97,42.06a10.368,10.368,0,0,0-10.22,10.14,10.531,10.531,0,0,0,10.76,10.18,10.212,10.212,0,0,0,9.78-10.49,9.911,9.911,0,0,0-10.32-9.83Zm52.38-32.02a9.987,9.987,0,0,0-10.18-10,10.153,10.153,0,1,0,.31,20.3,10,10,0,0,0,9.86-10.3ZM110.79,143.47c12.44-9.12,20.55-1.14,29.22,7.72-1.23-8.83-10.6-15.28-19.37-15.16-6.47.09-9.26,1.85-9.86,7.44Zm67.52,6.66c7.84-9.18,16.45-14.91,28.63-6.94-1.24-5.39-4.71-7.39-10.92-7.27C188.33,136.07,179.13,142.83,178.31,150.13Zm51.4-76.91c-8.17-3.24-21.73,2.45-21.41,8.66C215.4,79.01,222.61,76.09,229.71,73.22Z" fill="#fff"/>
    <path id="Path_3664" data-name="Path 3664" d="M47.32,205.19c13.28,3.81,26.57,7.63,41.39,11.88-2.52-7.72-4.58-14.03-7.05-21.56,2.21.87,3.44,1.09,4.35,1.75,6.34,4.59,12.73,9.13,18.87,13.97,3.05,2.4,4.67,1.75,5.87-1.59.34-.94.7-1.87,1.08-2.8,1.79-4.39,2.64-4.56,6.22-1.22.49.45.97.92,1.45,1.38q6.42,6.12,14.39,2.32a8.736,8.736,0,0,1,2.33-.38c-.31,7.27-4.26,11.47-10.73,11.67-6.16.19-12.33.27-18.49.51-5.64.22-10.93,1.56-14.94,5.88-3.81,4.11-3.75,7.68,0,11.84,4.49,4.97,4.52,6.74-.87,10.8-3.36,2.53-3.29,4.74-1.06,7.92,7.36,10.5,18.35,15.66,29.6,20.44,5.82,2.48,11.77,4.65,17.62,7.07a14.445,14.445,0,0,1,5.7,3.99,11.1,11.1,0,0,1-3.13.14c-20.51-5.06-40.5-11.56-57.06-25.28-5.54-4.59-9.75-10.82-14.38-16.46-2.27-2.77-1.24-4.54,2.28-4.99,4-.52,7.98-1.14,11.97-1.72.1-.51.2-1.03.3-1.54q-18.285-16.23-36.56-32.46c.28-.52.55-1.04.83-1.55Z" fill="#fff"/>
    <path id="Path_3665" data-name="Path 3665" d="M184.26,208.13c2.32,1.19,3.91,1.68,5.09,2.67,3.64,3.02,6.6,2.28,9.27-1.27a9.645,9.645,0,0,1,1.06-1.06c6.64-6.41,6.72-6.44,10.63,1.95,1.52,3.25,3.23,2.56,5.45.91,6.02-4.47,12.09-8.86,18.17-13.25,1.25-.9,2.6-1.66,3.91-2.49l1.08.81c-1.07,3.19-2.17,6.37-3.22,9.56-1.06,3.21-2.07,6.44-3.56,11.1,14.75-4.23,28.12-8.07,41.49-11.91.28.48.56.97.84,1.45q-18.225,16.215-36.46,32.42c.1.54.21,1.08.31,1.61,3.46.55,6.92,1.12,10.38,1.64,5.23.79,5.76,1.91,2.97,6.36-8.48,13.52-20.85,22.49-35.2,28.48-11.18,4.67-22.92,8-34.45,11.84a18.579,18.579,0,0,1-4.25.4l-.43-1.2c2.11-1.06,4.17-2.23,6.34-3.16,9.48-4.08,19.07-7.91,28.47-12.18a46.44,46.44,0,0,0,18.94-15.86c2.07-2.95,1.86-4.85-1.08-7.06-5.67-4.26-5.7-5.86-1.06-11.1,3.65-4.13,3.73-7.28.1-11.5-3.87-4.51-9.14-5.9-14.79-6.15-5.83-.26-11.66-.36-17.49-.51-7.94-.21-10.62-2.65-12.51-12.51Z" fill="#fff"/>
    <path id="Path_3666" data-name="Path 3666" d="M114.01,256.54c21.85,10.42,29.83-1.86,34.22-20.63,2.94,4.86,1.25,9.38-.69,13.73-3.99,8.93-13.79,15.42-21.85,14.73-5.79-.49-10.4-3.4-11.67-7.82Z" fill="#fff"/>
    <path id="Path_3667" data-name="Path 3667" d="M170.31,235.81c.65,8.45,2.89,16.02,10.02,21.18,7.64,5.52,15.13,4.55,22.64-1.49.24.58.47,1.16.71,1.73-.54.98-.87,2.57-1.64,2.83-4.59,1.53-9.39,4.18-13.9,3.8-10.7-.9-20.2-12.22-20.6-22.99a24.256,24.256,0,0,1,.79-4.86c.66-.07,1.33-.14,1.99-.2Z" fill="#fff"/>
    <path id="Path_3668" data-name="Path 3668" d="M135.07,247.2c.12,1.42.37,2,.18,2.35-2.56,4.69-7.06,5.15-11.62,4.92-5.27-.26-10.31-1.27-12.78-6.9-1.95-4.44-1.46-8.82,2.04-11.9a10.555,10.555,0,0,1,7.86-2.13c2.84.52,4.15,3.42,2.98,7.47a20.819,20.819,0,0,1-2.68-2.21c-2.56-3.08-4.78-2.89-6.7.66a7.258,7.258,0,0,0,3.59,10.4c4.62,1.89,9.32,2.38,13.67-1.04a18.416,18.416,0,0,1,3.46-1.62Z" fill="#fff"/>
    <path id="Path_3669" data-name="Path 3669" d="M192.91,240.17c.84-2.15,1.12-5.23,2.46-5.78,2.24-.93,5.67-1.19,7.68-.08,5.13,2.84,5.93,11.44,2.05,15.91-4.28,4.93-16.48,5.93-21.29,1.64a16.329,16.329,0,0,1-2.28-3.35c.31-.38.63-.75.94-1.13a16.909,16.909,0,0,1,3.53,1.6c4.44,3.34,9.2,2.84,13.68.66,1.81-.88,3.9-3.38,3.94-5.18a11.57,11.57,0,0,0-2.98-7.23c-.53-.59-4.04,1.48-7.74,2.96Z" fill="#fff"/>
    <path id="Path_3670" data-name="Path 3670" d="M160.05,94.76c1.21,1.62,3,3.08,3.5,4.9.8,2.86-.63,4.61-3.94,4.61-3.05,0-4.94-1.16-4.42-4.31.29-1.74,1.56-3.31,2.39-4.95.82-.08,1.65-.16,2.47-.25Z" fill="#fff"/>
  </g>
</svg>
