<svg id="Component_288_1" data-name="Component 288 – 1" xmlns="http://www.w3.org/2000/svg" width="340" height="340" viewBox="0 0 340 340">
  <g id="Component_223_16" data-name="Component 223 – 16">
    <g id="Ellipse_834" data-name="Ellipse 834" fill="#fff" stroke="#000" stroke-width="3">
      <circle cx="170" cy="170" r="170" stroke="none"/>
      <circle cx="170" cy="170" r="168.5" fill="none"/>
    </g>
    <circle id="Ellipse_835" data-name="Ellipse 835" cx="150" cy="150" r="150" transform="translate(20 20)"/>
  </g>
  <g id="Group_292" data-name="Group 292" transform="translate(9.208 9.913)">
    <path id="Path_3340" data-name="Path 3340" d="M192.05,235.61c-3.09-2.47-3.57-4.81-1.83-8.08,1.18-2.22,2.2-4.52,3.64-7.51H117.38c1.55,3.22,2.4,5.31,3.53,7.25,2.03,3.49,2.18,5.78-1.95,8.4a19.25,19.25,0,0,0-7.52,22.84c3.27,8.17,22.17,22.74,31.86,21.26a79.007,79.007,0,0,1,19.44-.16c13.26,1.3,23.18-4.58,31.68-13.71,9.86-10.61,9.05-21.17-2.35-30.29Zm-26.96,22.88c-3.6-.42-4.81,1.29-4.33,4.7.51,3.68-1.86,3.99-4.66,3.96-2.76-.02-5.26-.23-4.71-3.94.52-3.52-.86-5.04-4.36-4.72-3.44.31-4.71-1.25-4.7-4.69.02-3.26.89-5.18,4.49-4.94,3.21.21,5.19-.69,4.57-4.52-.56-3.47,1.57-4.36,4.71-4.09,3.14-.5,5.12.64,4.65,4.29-.44,3.37,1.04,4.65,4.23,4.28,3.9-.46,4.81,1.58,4.82,5.06,0,3.44-1.24,5.01-4.71,4.6Zm18.29-32.16q-27.675.135-55.34.03a20.344,20.344,0,0,1-4.62-1.08c.11-.54.21-1.09.32-1.63h63.77l.33,1.47C186.35,225.54,184.87,226.32,183.38,226.33Z" fill="#fff"/>
    <path id="Path_3341" data-name="Path 3341" d="M149.77,217.06a3.634,3.634,0,0,1-.34.46,3.145,3.145,0,0,1-.76.6,4.206,4.206,0,0,1-.96.39.292.292,0,0,0-.09.02c.2.09.41.19.61.28,2.16,0,4.32.04,6.47.07v-9.76h.67c.15-1.37.41-2.74.43-4.11.07-5.31-.09-10.63.18-15.93a7.7,7.7,0,0,1,1.47-3.29,2.656,2.656,0,0,1,.37.12h.02a1.865,1.865,0,0,1,.99,1.1.185.185,0,0,0,.02.07,2.251,2.251,0,0,1,.1.54c0,.04.01.08.01.12v31.19c1.93.04,3.85.07,5.78.11.13-.07.27-.13.41-.19h-.91a2.1,2.1,0,0,1-1.96-1.37,2.305,2.305,0,0,1-.72-1.55c-.06-.09-.12-.17-.18-.27h0c.03-14.63.02-29.27.12-43.9a16.413,16.413,0,0,0-.28-3.8v-1.02h0a3.071,3.071,0,0,1-.25.26c-.04-.09-.07-.18-.11-.26-1.51,1.4-2.79,3.05-4.35,4.4a12.329,12.329,0,0,1-1.36.79,5.674,5.674,0,0,0-1.53.97,4,4,0,0,0-.27.31,4.522,4.522,0,0,0-1.19.8,9.159,9.159,0,0,0-2.24,3.64,4.031,4.031,0,0,1,.68,2.95h0c.1,10.47.16,20.94.32,31.41a8.3,8.3,0,0,1-.3,2.59,2.488,2.488,0,0,1-.22,1.53,1.805,1.805,0,0,1-.63.68Z" fill="#fff"/>
    <path id="Path_3342" data-name="Path 3342" d="M268.53,162.18a19.012,19.012,0,0,1,.65,4.8A14.913,14.913,0,0,0,268.53,162.18Z" fill="#fff"/>
    <path id="Path_3343" data-name="Path 3343" d="M253.83,125.33c-.5-.52-1.04-1.03-1.58-1.52A10.9,10.9,0,0,0,253.83,125.33Z" fill="#fff"/>
    <path id="Path_3344" data-name="Path 3344" d="M227.26,134.64c-.6.19-1.2.39-1.8.58A2.628,2.628,0,0,0,227.26,134.64Z" fill="#fff"/>
    <path id="Path_3345" data-name="Path 3345" d="M164.78,142.29A39.732,39.732,0,0,0,168.06,156C167.19,153.24,166.26,149.1,164.78,142.29Z" fill="#fff"/>
    <path id="Path_3346" data-name="Path 3346" d="M248.5,108.55c-.05-.38-.11-.77-.17-1.15.04.31.08.63.11.94Z" fill="#fff"/>
    <path id="Path_3347" data-name="Path 3347" d="M215.16,143.05c-.3-.16-.59-.31-.89-.47A2.389,2.389,0,0,0,215.16,143.05Z" fill="#fff"/>
    <path id="Path_3348" data-name="Path 3348" d="M127.98,156.3a8.99,8.99,0,0,0,6.39-6.68c.75-3.1-.02-7.25-2.04-7.96-1.75-.62-3.39,1.72-7.74,2.32a9.758,9.758,0,0,1-5.77-.9,1.8,1.8,0,0,1-1.13.69c-.74.07-1.29-.56-1.96-1.07a7.514,7.514,0,0,0-3.21-1.39c-.68,1.2-1.58,1.77-2.84,1.26-.07.12-.14.23-.22.35a9.246,9.246,0,0,1-2.66,1.34c1.55-.27,3.1-.59,4.65-.93a2.769,2.769,0,0,1,1.01.42c1.77-.28,3.82-.37,4.48.68.49.77-.06,1.67-.19,2.61-.51,3.73,5.26,10.56,11.23,9.24Z" fill="#fff"/>
    <path id="Path_3349" data-name="Path 3349" d="M262.28,152.56h0c-1.16-1.48-2.22-1.29-2.75.4-.55,1.77-1.18,3.32-3.13,3.91h0c-1.54,6.31-7.41,8.96-11.29,13.3a1.434,1.434,0,0,1-2.21-.15c-.79-1.09.02-2.01.81-2.5,5.35-3.3,8.24-8.88,12.47-13.2,2.1-7.92,3.28-15.84.19-23.8a6.18,6.18,0,0,1,1.66,1.12,16.436,16.436,0,0,0-1.64-3.17,2.893,2.893,0,0,1-.19,1.21c-2.42-2.6-4.13-5.94-7.61-7.45-.85-.37-1.67-1.32-2.64-.52-.73.61-.25,1.53-.08,2.31a21.077,21.077,0,0,1-.63,10.66c-.7.85-.52,1.87-.49,2.84.04,1.63-.41,2.95-2.09,3.48-.96.3-2.04.35-2.64-.65a3.243,3.243,0,0,1,.13-4.1c.42-.5.81-1.04,1.26-1.52a21.156,21.156,0,0,0-.04-12.11c-2.38-1.06-4-2.59-3.36-5.5a3,3,0,0,1,1.15-1.45c-2.09-5.13-6.25-8.3-10.96-10.94-1.83-1.61-4.85.91-6.41-1.62-2.44,2.11-5.95.97-8.58,2.51-2.09.77-3.77,5.15-5.71,2.7-2.29-2.89,2.31-3.73,3.85-5.52a3.3,3.3,0,0,1,2.59-1.26h0c5.07-3.05,10.1-2.77,15.09.19h0c6.15,2.52,10.33,7.07,13.23,12.91,1.87,1.67,3.61,6.2,5.85.28a16.011,16.011,0,0,1-.44-4.16,65.02,65.02,0,0,0-8.15-22.81,52.733,52.733,0,0,0-15.1-13.02c-2.97-1.27-5.83-2.82-8.84-4.01a48.354,48.354,0,0,0-6.61-1.75c-4.72-.7-5.28.21-3.9,5.54,1.49,5.73,1.55,11.53,1.38,17.36-.04,1.33-.12,2.99-1.81,3.1-2.11.14-2.12-1.68-2.19-3.19-.29-6.45.06-12.86-1.54-19.33a35.116,35.116,0,0,0-11.22-18.94,10.894,10.894,0,0,1-1.44-1.99c.15.07.28.15.43.22-4.37-3.59-9.6-5.82-17.34-7.77-8.45-2.13-17.41-2.59-26.18-3.04-18.12-.94-43.09,13.76-53.18,31.12.39-.56.81-1.11,1.26-1.64-.09,2.95-1.71,5.38-2.9,7.89-1.99,4.23-2.31,8.61-2.13,13.13.5,3.4,2.48,6.47,2.16,10.05h0a6.4,6.4,0,0,0,.47,2.48A5.415,5.415,0,0,0,92,105.97c1.09,1.09,2.21,1.13,2.25,1.81a1.268,1.268,0,0,1-.38.83c-1.51,1.81-2.82-.61-4.27-.99-.5-.98-.99-1.95-1.49-2.93-.19-1.06-.39-2.12-.58-3.17.31-2.38.69-8-2.86-12.22a10.8,10.8,0,0,0-1.35-1.36c-.38-.12-.76-.25-1.14-.37a2.957,2.957,0,0,1,.3-.38,10.477,10.477,0,0,1-1.41.07c-1.7-.05-3.64,1.6-5.16,2.84a50.7,50.7,0,0,0-11.79,13.15c.36-.54.75-1.08,1.15-1.61.21,1.98-1.18,3.43-1.71,5.17-4.29,7.61-3.08,15.77-2.38,23.87,1.03,2.91,2.05,5.81,3.08,8.72l3.87,4.26a6.078,6.078,0,0,1-3.61-.63,6.978,6.978,0,0,1-2.76-3.07,10.805,10.805,0,0,1-1.22-2.76c-.79-2.56-2.37-2.25-4.21-1.53a2.288,2.288,0,0,1,.04-.47,16.1,16.1,0,0,0-1.63,2.4c-4.29,7.19-4.02,17.04,1.62,23.25-.02-.06-.04-.11-.06-.17,6.17,5.38,12.16,11,20.02,13.96,5.33.63,10.53,2.21,15.96,2.1h0a13.891,13.891,0,0,0,5.67-1.56c1.21-.58,2.77-1.26,3.33.44s-1.35,1.89-2.44,2.5a7.193,7.193,0,0,1-4.33.64c-6.26,2.1-12.33.74-18.37-1l-1.83-.03c-3.39-.29-6.74-.65-9.66-2.71-1.56-1.11-2.7-2.31-2.26-4.39-1.58-1.82-3.02-3.85-5.77-3.88a5.706,5.706,0,0,0-1.96,2.79c-5.05,11.73,2.46,28.17,14.67,31.73,1.76.51,3.8.07,6.51.07-1.56-2.42-2.46-3.82-4.03-6.27h0c-.16.07-1.34-1.7-2.26-4.2a19.016,19.016,0,0,1-.67-9.37,3.118,3.118,0,0,1,1.33-2.28,2.1,2.1,0,0,1,1.25-.17c.19.03,1.08.14,1.29.63.27.63-.77,1.39-1.54,2.58a8.869,8.869,0,0,0-1.16,4.26c-.48,4.61,1.97,8.45,1.75,8.55,12.84,9.92,23.03,10.14,35.35,1.47a40.489,40.489,0,0,0,11.37-11.68c1.71-5.03,4.31-9.74,4.47-15.33.2-7.11-1.23-13.48-5.99-18.94-1.24-1.42-2.47-2.7-4.48-2.8h0c-8.46,4.4-16.91,4.95-25.35-.04h0a16.962,16.962,0,0,1-7.95-7.59c-.13-.12-.26-.23-.39-.35l.03-.03c-.5-.38-1.01-.75-1.51-1.13-3.25-7.53-3.37-15.51-3.41-23.51,1.05-2.21,1.37-5.02,4.42-5.69,3.16.24,2.44,2.27,1.94,4.19v-.02c-2.74,4.31-2.07,9.3-2.8,14.01.5,3.42,1.1,6.82,3.07,9.78h0c.27.23.55.46.83.68a68.579,68.579,0,0,0,9.73,6.58,23.508,23.508,0,0,0,6.06.77,23.035,23.035,0,0,0,5.5-.68c-9.1-4.12-13.93-9.14-15.52-14.75h0c-1.47-1.73-1.72-3.85-1.81-5.98-.09-2.04.52-3.3,2.88-2.22q1.05,4.425,2.1,8.83a36.56,36.56,0,0,0,7.98,7.97h0c4.04-.63,8.6,1.9,12.11-1.97-1.8-2.11-4.08-3.91-4.69-6.81a13.845,13.845,0,0,1-1.13-2.97c-.2-1.47.09-3.07.45-3.1s.71,1.54,1.03,2.58a15.941,15.941,0,0,0,1.66,3.64l7.46,7.55a27.759,27.759,0,0,0,4.27,2.39c.8.35,1.46.59,1.83.72a30.175,30.175,0,0,0,15.41-2.16c5.03-1.65,7.2-.61,8.17.17,1.77,1.42,1.76,3.78,2.08,16.84.12,5,.14,5.63.25,6.77.56,5.85,2.03,13.05,2.85,12.97.23-.02.5-.63.65-3.42a3.842,3.842,0,0,1-1.16-1.29,3.167,3.167,0,0,1-.39-2.32,10.541,10.541,0,0,0,1.16,2.45,5.259,5.259,0,0,0,3.16,1.68c1.17-.59,2.6-1.54,2.77-2.9a3.305,3.305,0,0,0-.72-2.22c-1.96-2.93-4.04-9.12-2.44-13.07.71-1.75,2.1-2.99,1.55-4.45-.03-.08-.39-1-.97-1.03-1.27-.07-1.79,4.07-3.48,4.19a1.829,1.829,0,0,1-1.35-.71c-1.94-2.02-.41-6.02-.08-9.42.69-7.07-3.64-13.4-5.49-14.85a10.322,10.322,0,0,0-2.07-2.62c-.55-.52-1.05-1.1-1.55-1.67-.25-.2-.49-.4-.74-.6a10.512,10.512,0,0,1-2.46-.93c-1.48-.94-3.67-.75-4.5-2.65-.3-.69.27-1.28.97-1.4,2.03-.35,3.93-.16,5.27,1.7,5.45,2.67,9.08,6.78,10.17,12.89a2.32,2.32,0,0,1,.38,1.05c.25.68.49,1.36.74,2.04h0c2.77,4.02,2.07,8-.15,11.96-.04.63-.09,1.27-.14,1.9h0a1.408,1.408,0,0,0,2.02,1.07h0c.79-1.17,1.05-3.47,2.82-2.96a2.375,2.375,0,0,1,1.08.69c.28.31.84,1.21.23,3.66a14.938,14.938,0,0,1-1.74,4c-.83,1.62-1.07,4.43,1.78,9.58h1.86c.27-4.99-1.11-10.09.98-14.96l.32-1.94h0c2.37-7.4,6.44-14.21,7.56-22.04a4.476,4.476,0,0,1,2.16-5.9c.03-.31.06-.62.08-.94.95-2.1,1.89-4.21,2.84-6.31h0a103.5,103.5,0,0,0,.1-26.84h0q-1.17-3.885-2.33-7.77h0a32.7,32.7,0,0,0-18.74-18.73,1,1,0,0,0-.66-.86c.19.28.42.57.66.86-6.42-.99-12.77-1.02-18.91,1.51a17.948,17.948,0,0,0-4.44,2.97,18.55,18.55,0,0,0-3.57,4.51,20.512,20.512,0,0,0-1.95,4.5c-.02,3-.03,6-.05,9,.95,1.69,1.91,3.37,2.86,5.06-.34,2.22-1.18,3.25-2.91.98a9.136,9.136,0,0,1-2.1-4.85c-1.91-3.61-1.58-7.38-.83-11.18.29-.73.59-1.46.88-2.2h0c.62-.99,1.23-1.98,1.85-2.96-.04-.05-.09-.1-.13-.15.12-.11.25-.22.37-.32,1.56-3.55,4.57-5.62,7.79-7.49.74-.42,1.48-.81,2.22-1.18l.23-.2.05.06c6.28-3.07,12.72-4.3,19.58-.54A33.03,33.03,0,0,1,163,63.79c1.84,3.38,5.21,5.73,6.41,9.54h0c1.64,1.42,1.78,3.65,2.85,5.38.23.35.45.69.68,1.04.18.96.35,1.93.53,2.89-.05.63-.09,1.26-.14,1.9h0a8.843,8.843,0,0,1,2.19,6.37c-.06,6.58-.14,13.15-.2,19.73,4.09,2.41,3.76,5.7,1.9,9.35-1.23,2.42-1.23,5.04-1,7.67,1.67,2.33,1.8,4.65-.02,6.97q.555,3.99,1.11,7.99c.31.69.62,1.39.92,2.08l-.02-.05c.95,2.34,1.91,4.68,2.86,7.02,3.06,4.07,7.2,6.92,11.2,9.93,5.33.4,10.47,3.87,16,.96,1.47-.77,2.99-.76,3.83.71,1.03,1.82-.77,2.47-1.87,3.32-4.24.05-8.47.96-12.74.05-1.63-.35-3.25-.49-4.38-1.88-6.57-1.25-9.96-6.49-13.89-11.05a21.123,21.123,0,0,1-4.1-7.9h0c-.28-.07-.55-.15-.83-.24-5.39-2.22-3.56-7.47-4.65-11.44a2,2,0,0,1-.04-.24,70,70,0,0,0-.56,11.04,48.53,48.53,0,0,0,1.99,13.77q1.155,2.43,2.3,4.86c-.31-.27-.6-.52-.88-.76a31.519,31.519,0,0,0,3.86,3.79q1.95,1.605,3.97,3.01c-.35-.31-.69-.62-1.04-.95a16.539,16.539,0,0,1,3.18,1.29c8.65,5.77,17.82,7.84,27.88,4.2a14.893,14.893,0,0,1,2.94-.44h0c3.86-2.8,8.3-4.78,11.62-8.34.65-.7,1.58-1.62,2.52-.75,1.2,1.11.08,2.13-.65,2.95a27.216,27.216,0,0,1-9.4,7.1c-2.82,2.49-6.81,2.18-9.86,4.1h0c-3.18,10.59,2.5,17.57,9.74,23.92h0c1.34.57,2.69,1.14,4.03,1.72a1.242,1.242,0,0,1,1.78.29c5.61,3.05,11.5,1.56,17.33,1.05a22.481,22.481,0,0,0,9.89-5.1A66.718,66.718,0,0,0,264,178.58a1.513,1.513,0,0,1,.23-1.96c3.05-5.05,5.84-9.92,1.58-15.93-1.64-2.32-1.87-5.63-3.52-8.17ZM213.09,91.24c.94-.61,1.95-1.11,2.93-1.67,4.59-1.17,9.18-2.19,13.45.99h0c1.97,1.5,4,2.94,5.9,4.53.86.72,1.83,1.86.83,2.99-1.05,1.19-2.1.2-2.97-.59-1.35-1.23-2.67-2.49-4-3.74-4.98-2.42-9.98-1.5-14.99-.09-1.25.38-2.84,2-3.63-.13-.65-1.74,1.5-1.67,2.47-2.3ZM76.16,148.48c1.04-1.45,2.45-.27,3.49.45,4.23,2.91,8.29,6.13,13.66,6.74,4.67-.01,9.31-.07,13.8-1.69,1.2-.44,2.86-.86,3.46.79.62,1.7-.94,2.33-2.18,2.74-7.17,2.36-14.3,2.76-21.28-.72h0c-3.97-.21-6.46-3.15-9.47-5.12-1.1-.72-2.47-1.81-1.48-3.19Zm3.98-48.16a33.5,33.5,0,0,0-6.32,10.58,24.86,24.86,0,0,0-1.44,8.12h-.12c-.11,2.17,1.2,5.63-1.27,5.57-3.06-.07-1.42-3.96-1.59-6.21a2.632,2.632,0,0,1,.18-1.09,5.89,5.89,0,0,1-.16-1.32,22.514,22.514,0,0,1,.7-3.26c1.39-5.72,5.13-10.12,8.3-14.85.43-.83.75-1.78,1.89-1.92,1.04-.13,2.41-.11,2.71.53.39.84-1.28,2.17-2.86,3.84Zm37.42,26.45a13.115,13.115,0,0,0,.68,4.3,1.631,1.631,0,0,1,.19,1.34,1.363,1.363,0,0,1-.8.69,1.944,1.944,0,0,1-2.45-1.19c-1.58-3.29-.82-6.09,2.06-8.31h0c1.61-1.72,3.28-3.3,6.28-2.6-4.98,2.62-6.03,4.5-5.96,5.78Zm15.41-31.38c.41-1.75,1.91-1.52,3.23-1.52v-.04c3.38,1.96,6.73.73,10.07-.11,3.16-2.86,3.86-6.14,1.74-9.92h0l-5.04-2.79c3.14-1.85,5.45-.89,7.4,1.5,3.81,5.34,2.75,10.02-2.83,12.44-3.03,3.74-9.52,4.89-13.39,2.41-.75-.48-1.41-1.07-1.2-1.96Zm-14.68,11.34c4.04,1.03,8.17.91,12.29.98,1.28.02,3-.09,3.11,1.65a2.017,2.017,0,0,1-.26,1.22c-.64,1.01-2.37,1.17-2.86,1.2-12.41.84-20.25-5.09-20.25-5.09-1.67-1.26-4.11-4.51-8.97-11a6.886,6.886,0,0,1-1.41-3.06h0c-.14-.53-.33-1.29-.53-2.23a58.427,58.427,0,0,1-1.23-10.14c-.15-10.16,4.35-16.84,5.47-17.14a2.464,2.464,0,0,1,1.23-.01c2.7.63-.32,5.08-1.33,7.53-2.59,6.3-2.3,12.63-1.25,19.08,3.1,7.77,8,13.85,16.01,17.01Zm54.45-46.77a44.327,44.327,0,0,0-11.58-7.87h0a43.81,43.81,0,0,0-11.83-1.83c-13.38-.2-25.22,5.91-30.5,12.54a28.333,28.333,0,0,0-3.5,5.83,24.4,24.4,0,0,0-1.89,8.92h0c1,2.7,1.44,5.63,3.43,7.93a1.9,1.9,0,0,1,.12,2.68c-.91.79-1.82-.09-2.68-.49a24.528,24.528,0,0,1-1.57-3c-.89-2.02-3.17-7.18-1.8-13.19a17.276,17.276,0,0,1,1.87-4.75,1.918,1.918,0,0,1,.46-1.02,35.385,35.385,0,0,1,9.26-11.03c12.77-9.98,28.48-7.44,32.05-6.86a45.372,45.372,0,0,1,10.98,3.23A38.177,38.177,0,0,1,183.22,68.8h0a48.543,48.543,0,0,1,2.57,4.29s2.66,5.04,4.09,15.14a2.8,2.8,0,0,1-.45,2.37,2.074,2.074,0,0,1-1.34.56,1.83,1.83,0,0,1-1.25-.25c-.66-.53-.44-1.83-.39-2.18.19-1.32.07-3.64-1.31-8.01a45.481,45.481,0,0,0-12.42-20.74Zm30.13,91.25c-.86,1.29-2.42.54-3.58-.12-5.32-3.03-9.35-7.19-11.17-13.2-4.22-12.1-.94-23.71,2.33-35.32.27-.95.51-1.9.76-2.85-.21-.22-.26-.41-.15-.58s.19-.23.28-.23a31.169,31.169,0,0,0,2.73-15.23h0c-.51-.97-1.19-2.09.34-2.64,1.11-.4,1.58.59,1.9,1.5,3.37,5.45.37,10.7-.96,15.75-2.7,10.23-6.03,20.26-5.25,31.08a36.9,36.9,0,0,0,1.22,8.31h0a20.147,20.147,0,0,0,9.76,10.68c1.04.54,2.86,1.26,1.79,2.85Zm30.09-7.61c-5.27,2.78-10.7,4.79-16.81,3.31-7.09-2.83-12.49-7.2-13.93-15.21-.33-.33-.65-.67-.98-1l-.05-2.84h0c-1.2-7.51-2.12-15,1-22.32.1-1.07-.35-2.78.99-2.87,1.54-.11,1.13,1.63,1.17,2.67.05,1.13-.09,2.26-.15,3.4h0a73.545,73.545,0,0,0-.96,15.96c.31,2.03.61,4.05.92,6.08a1.954,1.954,0,0,0,.49-.12c.72,5.98,5.6,8.61,9.62,11.94h0a33.3,33.3,0,0,0,12.93.22l3.05-2.18h0a7.569,7.569,0,0,1,.78-.62c1.73-1.11,3.97-1.46,4.84.37.93,1.95-1.59,2.4-2.91,3.23Zm1.28-10.9a12.4,12.4,0,0,1-11.03,5.91h0c-1.59.06-3.24-.3-3.23-2.11.01-2.13,2.01-1.62,3.38-1.73,1.3-.1,2.6-.08,3.9-.11a23.734,23.734,0,0,0,5.96-5.95h0a24.875,24.875,0,0,0-.95-10h0c-2.11-4.8-6.06-7.88-10.14-10.83h0c-2.17-.09-3.98,1.12-5.98,1.66-.75.2-1.75.22-2.15-.58-.55-1.12.52-1.68,1.17-2.34a23.818,23.818,0,0,1,8.89-.7c.1.25.2.5.29.76,6.14,1.7,8.61,6.76,10.96,11.93a7.5,7.5,0,0,1,.31.95c.56,1.72,1.13,3.44,1.69,5.16-1.76,2.38-.15,6.07-3.08,8Z" fill="#fff"/>
    <path id="Path_3350" data-name="Path 3350" d="M217.2,203.76h0c-.57-.32-1.11-.67-1.63-1.02a23.8,23.8,0,0,0,3.15,2.02c-.51-.31-1.01-.64-1.52-1h0Z" fill="#fff"/>
    <path id="Path_3351" data-name="Path 3351" d="M87.14,84.36h0l.18-.72a7.952,7.952,0,0,1-.77,1.3A2.946,2.946,0,0,0,87.14,84.36Z" fill="#fff"/>
    <path id="Path_3352" data-name="Path 3352" d="M206.2,178.93c.06-.08.12-.16.19-.24a1.575,1.575,0,0,0-.13-.26C206.24,178.6,206.22,178.76,206.2,178.93Z" fill="#fff"/>
    <path id="Path_3353" data-name="Path 3353" d="M196,88.58c-.03-.3-.07-.61-.11-.93a6,6,0,0,1-.3-.63C195.47,87.69,195.47,88.27,196,88.58Z" fill="#fff"/>
  </g>
</svg>
