<svg id="Component_251_1" data-name="Component 251 – 1" xmlns="http://www.w3.org/2000/svg" width="342.24" height="342.24" viewBox="0 0 342.24 342.24">
  <g id="Component_230_9" data-name="Component 230 – 9">
    <g id="Rectangle_3295" data-name="Rectangle 3295" transform="translate(171.12) rotate(45)" fill="#fff" stroke="#000" stroke-width="3">
      <rect width="242" height="242" stroke="none"/>
      <rect x="1.5" y="1.5" width="239" height="239" fill="none"/>
    </g>
    <g id="Rectangle_3296" data-name="Rectangle 3296" transform="translate(171.421 30) rotate(45)" stroke="#000" stroke-width="3">
      <rect width="200" height="200" stroke="none"/>
      <rect x="1.5" y="1.5" width="197" height="197" fill="none"/>
    </g>
  </g>
  <g id="Group_269" data-name="Group 269" transform="translate(15.75 3.801)">
    <path id="Path_3990" data-name="Path 3990" d="M220.62,184.14V157.71H195.45v26.43H169.03v25.17h26.42v26.43h25.17V209.31h26.43V184.14Z" fill="#fff"/>
    <path id="Path_3991" data-name="Path 3991" d="M141.96,196.41l4.54-38.58q-5.445,1.92-10.88,3.85-1.845,17.13-3.7,34.25l2.18.18c-.62-.02-1.25-.05-1.88-.07-8.68-.32-18.33-.68-20.57-.77-.06.76-.13,1.51-.19,2.27q8.49,3.12,16.99,6.23c3.15.25,6.29.5,9.44.76q6.42-.2,12.84-.38c2.31-.5,4.61-1.01,6.92-1.51l3.84-1.6v-1.79q-7.17-1.32-14.35-2.64c-.43-.02-2.4-.09-5.17-.19Z" fill="#fff"/>
    <path id="Path_3992" data-name="Path 3992" d="M208.04,131.03a27.627,27.627,0,0,0,4.53-3.52l2.01-9.06-17.11,6.29-48.5,14.14q1.755-21.36,3.51-42.71,2.715-26.055,5.42-52.1c-3.23.03-6.45.05-9.68.08Q143.1,93.11,138,142.07l-8.74,2.55L88.74,155.19l-5.03-.25v-3.52c-1.38.08-2.77.17-4.15.25a62.57,62.57,0,0,0,.94,18.5q.525,2.55,1.2,4.84l4.02,1.83-.76-2.27v-3.78c.34-.9.67-1.8,1.01-2.71,35.97-8.2,63.59-15.8,78.78-20.45,24.16-7.4,28.89-11.01,37.28-13.81a27.777,27.777,0,0,0,6.01-2.8Z" fill="#fff"/>
    <path id="Path_3993" data-name="Path 3993" d="M73.7,159.41l-2.08.95v10.57h5.86v-13.1l-1.7-.12Z" fill="#fff"/>
    <path id="Path_3994" data-name="Path 3994" d="M69.04,165.26l-1.47-.83.16-3.21-3.35-1.11-.13,2.64-1.89-.1-2.14,1.41.94,3.83.72,4.38,8.49.42.13-2.64-1.64-1.21Z" fill="#fff"/>
    <path id="Path_3995" data-name="Path 3995" d="M57.66,164.32l-2.27-1.7-3.4,1.7.95,3.21-.95,1.32,1.14,3.59h6.04l.94-2.65-.94-1.32Z" fill="#fff"/>
    <path id="Path_3996" data-name="Path 3996" d="M45.53,164.82l1.22,6.49.46,2.41,4.27-1.76-1.5-7.98Z" fill="#fff"/>
    <path id="Path_3997" data-name="Path 3997" d="M41.96,165.07l-6.39,1.44-1.32,1.43v5.72l4.4,1.1h6.17l-.88-6.82Z" fill="#fff"/>
    <path id="Path_3998" data-name="Path 3998" d="M142.03,207.17H128.44l.38,2.45-6.98.95,2.83,4.15,5.09,10.38.76,2.64h10l2.84-4.15,3.56-7.45,1.91-6.14-6.8-.57Z" fill="#fff"/>
    <path id="Path_3999" data-name="Path 3999" d="M136.47,229.25h-5.95l-3.59,1.89v4.6l1.7,9.37,3.28,4.34h3.42l1.14-1.51,3.68-5.66,2.07-9.06-1.51-3.02Z" fill="#fff"/>
    <path id="Path_4000" data-name="Path 4000" d="M131.91,251.34h-3.37l-2.36,4.53,2.45,8.12,2.27,7.55h1.01l3.42-6.42,2.74-5.66v-8.12h-6.16Z" fill="#fff"/>
  </g>
</svg>
