<svg id="Component_275_1" data-name="Component 275 – 1" xmlns="http://www.w3.org/2000/svg" width="342.24" height="342.24" viewBox="0 0 342.24 342.24">
  <g id="Component_230_46" data-name="Component 230 – 46">
    <g id="Rectangle_3295" data-name="Rectangle 3295" transform="translate(171.12) rotate(45)" fill="#fff" stroke="#000" stroke-width="3">
      <rect width="242" height="242" stroke="none"/>
      <rect x="1.5" y="1.5" width="239" height="239" fill="none"/>
    </g>
    <g id="Rectangle_3296" data-name="Rectangle 3296" transform="translate(171.421 30) rotate(45)" stroke="#000" stroke-width="3">
      <rect width="200" height="200" stroke="none"/>
      <rect x="1.5" y="1.5" width="197" height="197" fill="none"/>
    </g>
  </g>
  <g id="Layer_1-2" transform="translate(20.26 17.21)">
    <g id="Group_109" data-name="Group 109">
      <path id="Path_3176" data-name="Path 3176" d="M117.36,222.91c2.91,2.97,5.89,5.88,8.71,8.92,4.84,5.22,9.82,10.34,14.24,15.89,1.27,1.59.84,4.54,1.2,6.86l-1.65.48q-9.27-8.04-18.55-16.07c-.47.41-.93.83-1.4,1.24,5.24,6.9,14.17,11.58,14.57,21.41l-1.23.97c-3.1-3.85-6.2-7.71-9.58-11.92-2.93,3.4-4.15.98-5.93-1.27-3.49-4.43-7.37-8.55-11.03-12.85-2.36-2.76-4.63-5.59-7.64-7.6-2.04-1.6-4.92-2.77-5.98-4.86-3.43-6.76-6.2-13.85-9.2-20.82-.46-1.07-.49-2.54-1.26-3.22-3.74-3.31-3.36-7.2-2.08-11.37.16-.53-.13-1.21-1.51-2.6-1.96,2.8-4.72,5.35-5.66,8.46-.88,2.91.17,6.41.35,9.24-3.48-1.66-5.17-6.22-2.64-10.46,1.93-3.23,4.77-5.9,7.04-8.95a46.955,46.955,0,0,0,2.98-5.22l-1.35-.84c-.98.92-1.96,1.84-3.99,3.75,1.81-10.32,6.62-17.83,11.21-25.58-9.91,5.2-15.91,14.06-22.16,22.81,2.47-7.03,2.4-14.98,10.13-19.39a53.962,53.962,0,0,0,12.63-10.49c3.15-3.42,5.21-7.86,8.52-13.05-2.9.96-4.33,1.43-6.69,2.21.51-4.75.73-8.98,1.56-13.09.23-1.12,2.22-2.02,3.55-2.75,3.46-1.89,7.01-3.63,10.53-5.43-.37-.78-.74-1.55-1.11-2.33-2.62,1.15-5.44,1.99-7.81,3.54-3.53,2.31-5.15.71-5.39-2.52-.22-3.04-.48-6.79,1.01-9.11a276.3,276.3,0,0,1,18.23-25.49c6.29-7.68,15.39-10.3,25.03-10.5,10.96-.23,21.93-.15,32.89,0,10.9.14,20.34,3.99,27.05,12.76a184.02,184.02,0,0,1,15.6,22.99c1.96,3.57,1.11,8.69,1.66,14.33-5.48-2.53-9.23-4.26-12.98-6,.56,5.42,4.94,6.18,8,6.96,4.59,1.17,5.11,4.07,5.51,7.55.34,2.87.43,5.77.69,9.41-2.33-1.12-3.72-1.79-5.95-2.87a23.588,23.588,0,0,0,1.04,3.77,45.6,45.6,0,0,0,18.28,19.22c7.89,4.62,8.98,12.28,11.02,19.97-5.98-8.89-12.45-17.23-22.38-23.81,4.34,8.66,8.22,16.39,12.09,24.12-.47.31-.93.62-1.4.93-1.1-.71-2.2-1.41-3.46-2.22-.27.42-.8.98-.7,1.14a38.689,38.689,0,0,0,4.26,6.35c3.51,3.72,6.9,7.47,6.08,13-.32,2.15-1.71,4.13-3.67,6.14,6.13-8.78-.79-13.12-4.86-18.53-.8.52-1.31.71-1.3.88.62,13.95-6.52,25.31-12.48,37.03-1.09,2.15-2.14,5.24-5.91,3.62-.4-.17-1.44.69-1.93,1.29-5.76,6.86-11.37,13.85-17.29,20.57-1.08,1.22-3.47,1.19-5.08,2.06a13.067,13.067,0,0,0-3.71,2.98c-2.37,2.81-4.53,5.79-7.48,8.2.27-10.06,8.25-15.29,13.5-22.41-7.96,2.99-12.6,10.17-19.29,15.15-2.8-2.94-2.15-6.05-.02-8.47,5.15-5.84,10.68-11.34,16.05-16.99a41.406,41.406,0,0,0,6.39-8.04c-22.54,12.93-44.69,13.7-66.7-.79l-1.17,1.71Zm72.84-56.3c8.87-1,12.19-6.63,8.59-15.16-1.23-2.9-3.18-5.81-3.33-8.79-.26-5.31-3.24-6.95-7.6-8.3-22.38-6.93-44.93-6.8-67.54-1.7-6.5,1.47-13.72,2.92-13.45,12.37.05,1.81-1.82,3.6-2.14,5.52-.63,3.66-1.29,7.45-.9,11.08.16,1.51,3.05,3.97,4.59,3.89,8.61-.45,17.42-.59,25.7-2.66,10.86-2.72,21.11-4.54,32.22-.74,7.57,2.59,15.87,3.06,23.84,4.48Zm-13.19-54.58c.18-.39.37-.78.55-1.18-1.95-.68-3.9-1.34-5.85-2.04-2.43-.87-5.02-1.46-7.23-2.72-4.12-2.34-7.92-5.23-12.06-7.53-.84-.47-2.68.47-3.86,1.11-6.42,3.49-11.49,9.65-19.72,9.59-1.08,0-2.17,1.53-3.78,2.77h51.96Zm-65.1,18.15.6,1.5c25.79-6.74,51.61-6.41,77.73-1.05-1.43-1.7-3.01-3.22-4.83-3.59-7.32-1.48-14.67-3.17-22.09-3.75-15.49-1.21-30.98-.9-46.02,3.8-1.93.6-3.6,2.03-5.39,3.08Zm28.73-47.25c.23.45.45.89.68,1.34a12.62,12.62,0,0,0,8.88-6.28c.33-.6-.98-3-1.32-2.96-2.92.38-5.78,1.13-8.67,1.77.06.3.12.61.18.91l6.42.61c-2.88,2.15-4.52,3.37-6.16,4.6Zm21.17,1.37.54-1.23c-1.78-1.4-3.57-2.8-6.27-4.93,3.01-.36,4.63-.55,6.24-.75a17.762,17.762,0,0,0-7.38-2.33c-.64-.04-2.32,2.67-1.99,3.26a11.742,11.742,0,0,0,8.85,5.97Zm14.51,17.19c.53-.62,1.05-1.24,1.58-1.85L164.68,88.67c-.47.56-.93,1.13-1.4,1.69Q169.805,95.925,176.32,101.49Zm-49.77-2.81c6.49-1.22,11.36-5.57,12.17-10.77-4.51,3.99-8.34,7.38-12.17,10.77Zm56.75-2.14c-.42.46-.83.93-1.25,1.39l10.99,9.31,1.07-1.28q-5.4-4.71-10.81-9.42Zm-74.34,9.42c.4.44.81.88,1.21,1.33l10.34-9.56c-.35-.38-.7-.76-1.04-1.14q-5.25,4.68-10.51,9.37Zm-1.18,17.65c-.89-.46-1.78-.93-2.67-1.39-1.16,2.42-2.31,4.84-3.47,7.25.65.36,1.3.71,1.95,1.07,1.39-2.31,2.79-4.62,4.18-6.93Zm91.44,7.14c.78-.39,1.57-.78,2.35-1.16l-3.99-6.93c-.7.39-1.41.77-2.11,1.16,1.25,2.31,2.5,4.63,3.75,6.94Z" fill="#fff"/>
      <path id="Path_3177" data-name="Path 3177" d="M64.67,151.88c-7.6-2.12-14.89-6.55-23.93-1.92C45.23,140.27,49.92,140.81,64.67,151.88Z" fill="#fff"/>
      <path id="Path_3178" data-name="Path 3178" d="M238.76,151.17c10.98-10.51,18.65-11.15,22.09-3.78-7.29,1.25-14.71,2.52-22.09,3.78Z" fill="#fff"/>
      <path id="Path_3179" data-name="Path 3179" d="M71.64,135.58c-2.77-1.25-3.82-3.33-2.09-7.15,1.3-2.88,1.38-6.3,2.24-9.42a14.182,14.182,0,0,1,2.04-3.36c.7,1.12,2.14,2.37,1.97,3.33-.59,3.19-1.83,6.25-2.67,9.4-.6,2.26-.96,4.59-1.49,7.19Z" fill="#fff"/>
      <path id="Path_3180" data-name="Path 3180" d="M231.15,135.7c-.69-2.91-1.37-5.69-2.02-8.47-.71-3.02-1.56-6.02-2-9.08-.1-.67,1.25-1.55,1.93-2.34.65.82,1.61,1.55,1.89,2.49,1.12,3.74,1.86,7.59,3.06,11.3,1.28,3.97-1.26,5.2-2.85,6.1Z" fill="#fff"/>
      <path id="Path_3181" data-name="Path 3181" d="M255.57,177.42c.63-6.63-1.07-12.02-7.93-14.79,5.03-1.3,8.27.69,10.13,5.59,2.28,6,2.12,7.03-2.2,9.2Z" fill="#fff"/>
      <path id="Path_3182" data-name="Path 3182" d="M45.97,177.71c-3.43-4.39-1.86-8.26.3-11.73,1.8-2.89,4.31-5.47,9.6-3.59-7.79,2.85-8.95,8.95-9.89,15.32Z" fill="#fff"/>
      <path id="Path_3183" data-name="Path 3183" d="M144.49,44.23c.79.72,2.31,1.42,2.55,2.43.93,3.84-1.06,6.36-5.03,9.01.91-4.23,1.59-7.37,2.47-11.44Z" fill="#fff"/>
      <path id="Path_3184" data-name="Path 3184" d="M158.9,55.28a55.991,55.991,0,0,1-3.37-7.83c-.22-.79,1.53-2.11,2.73-3.66,1.06,4.29,1.85,7.52,2.64,10.74l-2.01.75Z" fill="#fff"/>
      <path id="Path_3185" data-name="Path 3185" d="M137.9,64.62c-6.1-2.93-7.21-5.61-4.19-9.24C135.05,58.34,136.28,61.05,137.9,64.62Z" fill="#fff"/>
      <path id="Path_3186" data-name="Path 3186" d="M166.19,62.87c.74-2.24,1.47-4.48,2.47-7.53,1.11.93,2.76,2.05,2.65,2.26-1.11,2.13-2.51,4.11-3.82,6.13-.43-.28-.87-.57-1.3-.85Z" fill="#fff"/>
      <path id="Path_3187" data-name="Path 3187" d="M180.65,153.1c-2.36,3.63-5.04,4.72-9.01,1.86-1.1-.79-3.58.34-5.72.63,4.66-8.7,14.3-9.46,20.24-.72-2.4-.77-3.71-1.19-5.51-1.77Z" fill="#fff"/>
      <path id="Path_3188" data-name="Path 3188" d="M135.74,155.87c-1.52-1.01-2.71-1.81-3.87-2.58-4.11,4.45-5.73,4.36-9.8-.53a17.653,17.653,0,0,1-2.8,1.74,1.829,1.829,0,0,1-1.68-.51c-.27-.37-.14-1.59.1-1.69,3.47-1.33,7.1-3.73,10.45-3.4,2.96.29,5.61,3.66,8.37,5.71.02.02-.31.51-.77,1.25Z" fill="#fff"/>
      <path id="Path_3189" data-name="Path 3189" d="M126.51,136.51q7.74,2.385,15.48,4.78c-.11.51-.23,1.01-.34,1.52-2.44-.49-5.07-1.12-7.84-1.93s-5.31-1.7-7.62-2.6l.33-1.77Z" fill="#fff"/>
      <path id="Path_3190" data-name="Path 3190" d="M160.14,141.5c4.82-1.43,8.69-2.59,13.79-4.11C169.24,142.85,164.52,144.24,160.14,141.5Z" fill="#fff"/>
    </g>
    <path id="Path_3193" data-name="Path 3193" d="M145.22,157.68a5.653,5.653,0,0,0,1.27-2.91,5.522,5.522,0,0,0-.87-3.61h-1.69a4.482,4.482,0,0,1,0,6.51h1.29Z" fill="#fff"/>
    <path id="Path_3194" data-name="Path 3194" d="M157.38,157.68a4.2,4.2,0,0,1-1.81-2.56,4.029,4.029,0,0,1,1.18-3.49c.64-.16,1.28-.31,1.92-.47a3.915,3.915,0,0,0,0,6.51h-1.29Z" fill="#fff"/>
    <path id="Path_3195" data-name="Path 3195" d="M118.64,153.87a13.925,13.925,0,0,0,4.99,2.57,15.605,15.605,0,0,0,2.39.44,20.793,20.793,0,0,0,6.5-.16,27.608,27.608,0,0,1-3.35.06,25.866,25.866,0,0,1-5.1-.84,28.082,28.082,0,0,1-5.42-2.06Z" fill="#fff"/>
    <path id="Path_3196" data-name="Path 3196" d="M185.3,154.91a12.532,12.532,0,0,1-4.78,1.95,13.851,13.851,0,0,1-2.22.18,36.717,36.717,0,0,1-7.07-.6,29.012,29.012,0,0,0,5.17.1,37.444,37.444,0,0,0,4.61-.68c1.78-.33,3.24-.68,4.29-.95Z" fill="#fff"/>
    <path id="Path_3197" data-name="Path 3197" d="M115.78,138.4c2.7-2.7,8.16-3.61,13.29-2.71a15.738,15.738,0,0,1,5.42,1.55,42.238,42.238,0,0,0,4,2.32,12.319,12.319,0,0,0,2.67,1.02c.7.16,3.82.88,4.93-.52.76-.96.16-2.38.4-2.44.31-.07,1.87,2.33,1.16,4.13-.94,2.39-5.63,3.13-8.98,2.11-1.41-.43-1.25-.76-4.57-2.37a32.743,32.743,0,0,0-5.29-2.19,19.851,19.851,0,0,0-7.61-.9,16.239,16.239,0,0,0-4,.9h0c-1.33.44-2.28.89-2.45.65-.21-.31.83-1.34,1.03-1.55Z" fill="#fff"/>
    <path id="Path_3198" data-name="Path 3198" d="M188.06,138.4c-2.7-2.7-8.16-3.61-13.29-2.71a15.738,15.738,0,0,0-5.42,1.55,42.238,42.238,0,0,1-4,2.32,12.319,12.319,0,0,1-2.67,1.02c-.7.16-3.82.88-4.93-.52-.76-.96-.16-2.38-.4-2.44-.31-.07-1.87,2.33-1.16,4.13.94,2.39,5.63,3.13,8.98,2.11,1.41-.43,1.25-.76,4.57-2.37a32.743,32.743,0,0,1,5.29-2.19,19.851,19.851,0,0,1,7.61-.9,16.239,16.239,0,0,1,4,.9h0c1.33.44,2.28.89,2.45.65.21-.31-.83-1.34-1.03-1.55Z" fill="#fff"/>
  </g>
</svg>
