<svg id="Component_235_1" data-name="Component 235 – 1" xmlns="http://www.w3.org/2000/svg" width="342.24" height="342.24" viewBox="0 0 342.24 342.24">
  <g id="Component_230_1" data-name="Component 230 – 1">
    <g id="Rectangle_3295" data-name="Rectangle 3295" transform="translate(171.12) rotate(45)" fill="#fff" stroke="#000" stroke-width="3">
      <rect width="242" height="242" stroke="none"/>
      <rect x="1.5" y="1.5" width="239" height="239" fill="none"/>
    </g>
    <g id="Rectangle_3296" data-name="Rectangle 3296" transform="translate(171.421 30) rotate(45)" stroke="#000" stroke-width="3">
      <rect width="200" height="200" stroke="none"/>
      <rect x="1.5" y="1.5" width="197" height="197" fill="none"/>
    </g>
  </g>
  <g id="Group_255" data-name="Group 255" transform="translate(14.029 14.081)">
    <path id="Path_3083" data-name="Path 3083" d="M138.99,99.58c-4.96,5.61-10.22,10.98-14.77,16.9a84.272,84.272,0,0,0-7.99,13.64c-1.67,3.3-.12,6.35,3.23,7.06a39.735,39.735,0,0,0,13.2.86c21.49-2.88,41.45-10.96,61.43-18.87,8.05-3.19,15.94-6.74,23.93-10.09a33.915,33.915,0,0,1,3.78-1.05c-.9,3.17-1.62,5.72-2.56,9.01,11.63-11.88,13.3-12.33,19.42-4.95-5.54,2.77-10.89,5.57-16.35,8.14-14.3,6.73-28.49,13.71-43,19.94-17.26,7.41-34.63,14.67-52.32,20.96-8.34,2.96-17.48,4.12-26.36,4.99-9.61.94-13.81-5.14-9.05-13.49a163.221,163.221,0,0,1,17.45-24.79c8.92-10.49,18.79-20.17,28.25-30.2.57.65,1.15,1.3,1.72,1.96Z" fill="#fff"/>
    <path id="Path_3084" data-name="Path 3084" d="M139.72,207.11c3.83,9.38,1.14,21.19,12.79,27.86-5.49.46-9.49-2.43-10.74-6.83-1.99-7.02-3.56-14.16-5.72-21.13a11.565,11.565,0,0,0-4.12-5.71c-12.71-8.83-25.59-17.42-38.41-26.09-1.34-.91-2.64-1.87-4.18-2.97,2.25-3.86,4.51-2.27,6.73-.78,11.88,7.98,23.83,15.86,35.6,24,4.44,3.07,8.39,5.3,13.95,2.19,3.56-1.99,8.03-2.27,11.78-4.01,7.56-3.51,12.08,1.99,17.24,5.43.71.47.26,2.68.35,4.08,11.87-1.02,18.63,9.01,28.32,13.24-.14.61-.29,1.23-.43,1.84q-10.32,2.58-20.65,5.17c-4.42,1.11-7.79,7.02-7.15,11.45.65,4.53.63,9.16.9,13.74-.53-.27-1.06-.53-1.6-.8l-6.14,1.26c-.06.48-.11.96-.17,1.43q-4.95-3.795-9.9-7.58c.31-.53.61-1.05.92-1.58,2.37,1.21,4.74,2.41,8.2,4.18-1.19-8-1.68-15.26-3.59-22.13-.68-2.43-4.81-3.9-7.61-5.99-2.94,5.14,3.25,10.34-2.58,14.74-.98-1.78-2.19-3.28-2.66-4.99-.97-3.52-2.05-7.13-2.17-10.73-.2-5.81-4.11-7.75-8.96-9.31Zm50.3,3.54c-2.77-1.23-5.03-3.2-6.94-2.91-8.1,1.21-16.09,3.09-24.12,4.73-.11.54-.22,1.07-.32,1.61,3.45,2.49,6.91,4.97,10.55,7.59,4.08-8.47,13.7-5.89,20.83-11.02Zm-46.99-9.03-.03,1.86c2.85,1.5,6.09,4.72,8.49,4.19,6.63-1.49,12.92-4.54,19.34-6.98.09-.52.18-1.04.28-1.56-2.82-1.31-5.92-4.11-8.39-3.63-6.7,1.3-13.14,3.98-19.68,6.12Z" fill="#fff"/>
    <path id="Path_3085" data-name="Path 3085" d="M151.73,94.97c-2.81,3.62-5.85,7.08-8.39,10.88a114.243,114.243,0,0,0-9.18,15.33c-2.05,4.45-.25,6.75,4.5,5.68,8.56-1.94,17.2-4.09,25.32-7.36,18.35-7.4,36.39-15.58,54.63-23.26,1.43-.6,3.47.25,5.22.42-1.08,1.17-1.94,2.89-3.27,3.43q-36.975,14.97-74.1,29.6a26.8,26.8,0,0,1-9.81,1.5c-6.06-.05-9.18-4.25-6.83-9.72,4.66-10.82,12.37-19.41,20.92-27.24.33.25.66.51.99.76Z" fill="#fff"/>
    <path id="Path_3086" data-name="Path 3086" d="M104.52,84.87c.43,6.53-8.4,7.26-8.7,13.23,2.43,1.1,5.12,2.32,8.14,3.68-.25-3.28-.48-6.41-.72-9.53.7-.06,1.4-.11,2.09-.17q.675,9.54,1.36,19.08c-.47.17-.93.35-1.4.52-1.61-2.57-3.22-5.14-5.47-8.74-2.81,7.88-5.19,14.64-7.62,21.38-2.02,5.61-3.87,11.3-6.23,16.76-.8,1.86-2.91,3.16-4.42,4.72-.64-.42-1.27-.83-1.91-1.25,4.89-13.64,9.77-27.28,15.03-41.96-3.21,1.42-5.62,2.48-8.04,3.55-.31-.3-.62-.6-.93-.91q8.535-10.755,17.06-21.52l1.74,1.15Z" fill="#fff"/>
    <path id="Path_3087" data-name="Path 3087" d="M88.78,194.18l8.34,19.56c-.53.24-1.06.49-1.58.73-6.4-4.83-5.94-12.86-8.51-19.48.59-.27,1.17-.54,1.76-.81Z" fill="#fff"/>
    <path id="Path_3088" data-name="Path 3088" d="M67.7,149.31q-3.5-5.19-6.98-10.37c.55-.36,1.1-.72,1.66-1.08,4.07,2.28,4.61,6.93,6.59,10.61-.42.28-.84.56-1.27.84Z" fill="#fff"/>
    <path id="Path_3089" data-name="Path 3089" d="M57.79,164.63l9.22,1.53c-.07.56-.13,1.13-.2,1.69-3.15.04-6.44,1.43-9.29-1.25l.26-1.97Z" fill="#fff"/>
  </g>
</svg>
