<svg id="Component_323_1" data-name="Component 323 – 1" xmlns="http://www.w3.org/2000/svg" width="342.24" height="342.24" viewBox="0 0 342.24 342.24">
  <g id="Component_230_23" data-name="Component 230 – 23">
    <g id="Rectangle_3295" data-name="Rectangle 3295" transform="translate(171.12) rotate(45)" fill="#fff" stroke="#000" stroke-width="3">
      <rect width="242" height="242" stroke="none"/>
      <rect x="1.5" y="1.5" width="239" height="239" fill="none"/>
    </g>
    <g id="Rectangle_3296" data-name="Rectangle 3296" transform="translate(171.421 30) rotate(45)" stroke="#000" stroke-width="3">
      <rect width="200" height="200" stroke="none"/>
      <rect x="1.5" y="1.5" width="197" height="197" fill="none"/>
    </g>
  </g>
  <g id="Layer_1-2" transform="translate(20.632 24.691)">
    <path id="Path_3695" data-name="Path 3695" d="M147.123,192.437c-1.775-3.137-2.893-5.523-4.387-7.655-2.142-3.062-5.241-4.152-8.595-2.367a23.065,23.065,0,0,0-5.636,4.772c-2.912,3.119-4.978,7.007-10.408,6.744-1.785-.085-4.208,2.113-5.457,3.889-3.4,4.819-7.89,6.66-13.16,4.086-3.635-1.775-6.547-4.142-7.082-9.074-.451-4.1-2.78-8-4.274-12-.573.019-1.146.038-1.71.047Q84.4,193.86,82.376,206.846l-1.381.169c-.573-1.569-1.681-3.156-1.625-4.706.282-8.087.78-16.175,1.362-24.253.629-8.689,1.85-17.359,2.01-26.057.085-4.678-2.123-9.384-2.16-14.08-.047-5.007.874-10.163,6.923-12.211.817-.282.892-2.386,1.606-3.438,1.118-1.634,2.489-3.09,3.757-4.621.723,1.757,2.217,3.616,1.991,5.232-.376,2.762.77,3.983,2.442,5.908,4.264,4.894,2.179,10.811.554,15.959-1.118,3.551-1.747,5.26,1.653,8.106,3.034,2.536,4.255,7.148,6.538,10.671,2.555,3.945,4.621,3.917,6.519-.432,1.334-3.043,2.639-6.791,2.048-9.853-1.071-5.542.517-9.186,4.584-12.7,4.584-3.964,4.518-5.007-.178-8.66-3.673-2.856-5.082-6.2-5.3-10.83-.2-4.133-2.329-8.153-2.649-12.3C110.02,95.04,108.827,81.279,109,67.546c.047-3.879,4.584-7.7,7.054-11.554.714.188,1.428.376,2.132.564,1.381,6.134,2.837,12.258,4.1,18.42,1.071,5.213,4.1,6.641,8.294,3.4.8-.62.883-2.762.611-4.058-1.55-7.336-3.316-14.616-4.969-21.933A17.934,17.934,0,0,1,126,49.718c5.58-.451,11.234,3.579,13.752,9.976,1.888,4.791,3.438,9.722,5.1,14.6,2.978,8.717,6.077,17.405,8.839,26.188a43.208,43.208,0,0,1,1.362,9.177c.376,4.236,2.968,5.739,6.735,3.729,12.775-6.819,25.775-3.382,33.552,8.745,3.072,4.8,7.214,8.163,12.371,11.037,7.43,4.142,14.146,9.619,20.872,14.907,3.372,2.649,3.72,6.735,2.762,10.793a17.324,17.324,0,0,1-1.747,5.326c-4.2,6.6-1.212,12,2.865,16.992,2.517,3.081,2.47,5.129-.582,7.8-4.9,4.283-9.44,8.989-13.836,13.226-5.664-3.325-11.554-4.142-18-3.861-2.592.113-5.749-1.879-7.731-3.832-.883-.864-.244-4.781,1-6.021,4.114-4.114,3.983-9.243,3.56-14.052-.592-6.791-2.17-13.507-3.607-20.2-2.574-11.976-12.8-16.72-24.328-15.452-14.888,1.634-18.984,8.792-20.881,24.262a144.335,144.335,0,0,0-1.353,17.978c0,2.376,2.076,4.7,2.874,7.139.714,2.17,2.057,5.777,1.2,6.5-2.217,1.888-5.42,2.771-8.351,3.6-1.8.507-3.889-.066-5.767.291-4.894.93-11.225-.188-11.507,7.909-.028.78-3.372,1.625-5.27,2.132-3.382.9-6.218,1.935-7.74,5.767a8.151,8.151,0,0,1-5.58,4.142c-4.283.582-6.679,2.771-8.557,6.312-.517.977-1.982,1.447-3.015,2.142-.028-1.259-.554-2.818,0-3.71,2.348-3.814,4.565-7.9,9.853-8.473a4.16,4.16,0,0,0,2.987-1.86c2.2-5.41,6.885-7.186,11.835-8.783a4.072,4.072,0,0,0,2.264-1.822c2.583-5.5,5.523-7.035,11.206-7.336,4.6-.244,9.14-1.644,14.005-2.593Zm-13.517-84.679c-1.493-1.916-2.611-3.353-3.729-4.781-.817,1.324-2.442,2.762-2.273,3.936.244,1.691,1.8,3.2,2.8,4.791C131.342,110.548,132.281,109.392,133.606,107.758ZM138.2,114.6c.47.244.949.479,1.418.723l3.9-7.176c-4.1.751-6.134,2.724-5.317,6.462Zm-20.421-.977a28.123,28.123,0,0,0,3.006,2.621c1.4.817,2.884,1.484,4.33,2.207.225-.526.761-1.418.629-1.531a33.448,33.448,0,0,0-4.321-3.241c-.545-.329-1.456-.056-3.645-.056Z" transform="translate(0 0)" fill="#fff"/>
  </g>
</svg>
