<svg id="Component_331_1" data-name="Component 331 – 1" xmlns="http://www.w3.org/2000/svg" width="342.24" height="342.24" viewBox="0 0 342.24 342.24">
  <g id="Component_230_43" data-name="Component 230 – 43">
    <g id="Rectangle_3295" data-name="Rectangle 3295" transform="translate(171.12) rotate(45)" fill="#fff" stroke="#000" stroke-width="3">
      <rect width="242" height="242" stroke="none"/>
      <rect x="1.5" y="1.5" width="239" height="239" fill="none"/>
    </g>
    <g id="Rectangle_3296" data-name="Rectangle 3296" transform="translate(171.421 30) rotate(45)" stroke="#000" stroke-width="3">
      <rect width="200" height="200" stroke="none"/>
      <rect x="1.5" y="1.5" width="197" height="197" fill="none"/>
    </g>
  </g>
  <g id="Layer_1-2" transform="translate(17.917 12.31)">
    <g id="Group_169" data-name="Group 169" transform="translate(57.083 51.69)">
      <path id="Path_3782" data-name="Path 3782" d="M212.82,152.446c2.854-5.145.7-10.688.32-11.62a3.5,3.5,0,0,0-.126-2.718c-.553-.922-1.349-.757-2.116-1.631-1.194-1.359-.165-2.776-1.116-4.058-1.1-1.476-2.922-.233-4.524-1.553-1.893-1.544-.5-4.194-2.456-7.63a9.992,9.992,0,0,0-2.466-2.854,4.271,4.271,0,0,0-2.32,1.815c-.922,1.631-.34,3.825.262,6.077.544,2.039,1,2.573.65,3.359-.592,1.311-2.456,1.311-3.495,1.815-1.951.942-3.281,4.786-1.427,16.561,2.194,2.1,4.456,4.689,3.747,6.077-.563,1.116-2.427.252-4.4,1.417-3.165,1.883-1.65,6.135-5.048,11.125-.8,1.175-3.32,4.893-5.825,4.524-2.98-.437-4.669-6.514-5.048-10.475-.592-6.184,1.942-7.514.65-11.251-1.893-5.456-8.62-5.3-9.057-9.494-.262-2.534,2.155-2.708,4.9-8.164,2.417-4.8,1.631-6.815,4.378-12.795a41.278,41.278,0,0,1,3.136-5.64l.262-2.971q.917-24.725,1.835-49.441a16.461,16.461,0,0,0-2.087-3.97,17.215,17.215,0,0,0-7.5-5.834l-3.495,31.307c-2.126.417-5.825.825-7.8-1.252-2.126-2.242-1.078-6.184-.223-10.135a137.655,137.655,0,0,0,2.844-21.347,23.427,23.427,0,0,0-5.825,3.106,25.723,25.723,0,0,0-7.116,8.407c-3.369,5.834-2.864,7.883-6.854,18.629-2.058,5.543-2.242,5.116-4.135,10.475-2.514,7.087-3.767,10.63-4.135,14.358-.5,5.1.33,7.834-1.311,8.776-1.854,1.068-5.067-1.194-6.456-2.437-3.553-3.184-5.8-9.232-3.747-13.581,1.466-3.116,5.135-5.4,8.921-7.756a18.059,18.059,0,0,0,6.854-7.116,29.334,29.334,0,0,0-3.757.476c-1.456.282-13.406,2.631-16.94,10.649-2.4,5.456.515,10.319-1.679,11.387-1.689.815-4.475-1.563-6.727-3.495a22.324,22.324,0,0,1-3.864-3.864,66.18,66.18,0,0,1,6.252-5.97,64.474,64.474,0,0,1,23.755-12.649c3.5-.942,6.815-1.446,6.8-1.553a35.779,35.779,0,0,0-8.824,1.437c-6.116,1.679-10.8,4.64-20.173,10.562-.592.379-1.544.98-2.728,1.864a41.758,41.758,0,0,0-5.728,5.155,4.74,4.74,0,0,1-.408-1.718c-.116-3.155,3.068-5.524,6.077-7.756,3.252-2.417,7.815-4.32,16.814-8.019a36.577,36.577,0,0,0,6.465-3.233,33.543,33.543,0,0,0,5.951-4.912,56.84,56.84,0,0,0-21.862,2.33c-6.359,1.99-14.338,4.495-18.629,11.639a24.462,24.462,0,0,0-3.106,9.446,24.017,24.017,0,0,0,.65,7.271c2.728,10.009,15.027,14.61,16.037,14.979a16.3,16.3,0,0,1-3.747-.262c-4.786-.893-7.9-3.728-10.1-5.776-2.32-2.165-3.621-3.378-4.4-5.6a11.614,11.614,0,0,1,.262-7.766,8.3,8.3,0,0,0-4.135,2.2c-3.815,3.9-2.776,11.979.65,16.95.66.961,1.349,1.67,11.9,9.31,2.077,1.5,3.825,2.747,5.048,3.621a6.538,6.538,0,0,1-2.844,1.165c-3.2.456-5.931-1.864-7.116-2.844-11.339-9.426-20.231-11.863-19.532-17.338a10.279,10.279,0,0,1,2.33-4.66c2.077-2.514,3.776-2.281,5.66-4.757,1.388-1.825,2.563-4.815,1.582-5.98-1.1-1.3-4.893-.3-9.348,2.184a23.631,23.631,0,0,0-9.145,7.514c-8.717,12.232-1.136,28.676-.184,30.336,1.4,2.446,3.291,5.106,3.291,5.106h0a56.567,56.567,0,0,0,5.388,6.359,27.217,27.217,0,0,1-9.659-9.979,28.842,28.842,0,0,1-2.718-7.378,31.345,31.345,0,0,1-.223-12.63,31.6,31.6,0,0,0-6.63,13.795,20.932,20.932,0,0,0-.262,9.057c1.767,7.951,9.1,12.067,10.737,12.931a5.2,5.2,0,0,1-5.038,0c-2.747-1.33-4.776-4.349-5.3-5.174a12.678,12.678,0,0,0,.9,5.562c1.534,3.66,4.524,5.495,4.271,5.825-.214.272-2.582-.689-4.524-2.718-2.165-2.262-2.466-4.427-3.495-4.4-1.058.029-1.8,2.369-1.942,2.844-2.728,9.125,7.892,21.318,4.66,24.706-.747.786-2.1.942-2.718,2.456A5.025,5.025,0,0,0,59.6,186.6c1.524,4.223,65.575,65.672,79.943,79.428a60.463,60.463,0,0,1,11.125-8.533c3.912-2.32,8.193-4.233,8.281-7.242.049-1.514-1.01-1.961-.777-3.359.417-2.5,4.106-2.883,7.5-5.174,3.708-2.495,7.038-7.232,7.242-12.416.146-3.689-1.262-8.426-4.66-11.125-2.941-2.34-5.514-1.679-7.766-4.66-1.6-2.126-.854-3.2-2.068-5.689-2.437-4.98-8.465-6.863-12.164-8.019-6.97-2.175-12.047-1.3-12.164-2.33-.087-.777,2.835-1.243,7.766-3.359,8.048-3.466,8.863-5.931,12.678-5.689,4.514.291,8.067,4.126,8.8,4.912,2.776,3,2.446,5.058,5.087,6.446,3.087,1.621,4.64-.621,7.329,1.058,1.883,1.175,1.582,2.563,5.436,7.766a11.759,11.759,0,0,0,2.068,2.456c3.009,2.058,8.057.534,10.863-1.165,9.746-5.9,8.106-23.386,11.746-23.5.631-.019,1.495.476,2.573,2.67.165,2.64.311,5.31.437,8.028.311,6.931.427,13.668.4,20.182a3.817,3.817,0,0,0,2.893-.961,3.918,3.918,0,0,0,1.116-3.3c-.058-7.475-.223-13.775-.388-18.493,0,0-.456-13.212-1.456-24.589-.282-3.174-.67-6.951-1.4-11.5-.155-.971-.291-1.777-.388-2.33a11.975,11.975,0,0,0,3.174-3.64Zm-59.925-31.831c-1.136-.476-4.33-2.009-5.533-5.339a7.405,7.405,0,0,1-.388-1.621v-3.621a15.66,15.66,0,0,1,7.562,10.572h-1.65Zm8.116-3.4a2,2,0,0,1-1.155,0,11.214,11.214,0,0,1-.32-7.048,10.922,10.922,0,0,1,2.4-4.271c.417,1.3.835,2.592,1.252,3.893.34,3.912-.524,6.9-2.165,7.426Zm4.679,7.475-1.563-.524a12.966,12.966,0,0,1,4.65-4.815,12.684,12.684,0,0,1,4.912-1.679c-.165,1.068-.32,2.126-.485,3.194-.3.233-.612.466-.942.689a23.053,23.053,0,0,1-6.582,3.136Z" transform="translate(-57.083 -51.69)" fill="#fff"/>
      <path id="Path_3783" data-name="Path 3783" d="M250.193,121.785a81.52,81.52,0,0,0-54.334-24.793,21.3,21.3,0,0,1,12.581-1.476,18.313,18.313,0,0,1,2.456.7c3.815,1.359,10.339,3.485,22.163,7.038-6.931-7.591-11.94-13.319-15.251-17.163-4.271-4.951-7.31-8.62-11.377-8.892-1.437-.1-7.679-.1-9.232-.087-.369,0-1.01,0-1.864.029-1.961.049-3.6.165-4.766.262v1.893a23.846,23.846,0,0,1,11.785.777,23.022,23.022,0,0,1,5.63,2.767,42.866,42.866,0,0,0-18.464-1.291v14.1c.563,1.116,1.116,2.242,1.679,3.359a102.135,102.135,0,0,1,42.442,12.164,100.652,100.652,0,0,1,19.6,14.018c-.689-.815-1.728-2.009-3.058-3.4Z" transform="translate(-60.955 -52.433)" fill="#fff"/>
      <path id="Path_3784" data-name="Path 3784" d="M200.3,75.024a45.043,45.043,0,0,1,4.854.777,11.2,11.2,0,0,0-2.844-2.776,11.663,11.663,0,0,0-2.718-1.349,18.282,18.282,0,0,0-8.475-.592v3.038l.262.9a43.271,43.271,0,0,1,8.921,0Z" transform="translate(-61.002 -52.25)" fill="#fff"/>
    </g>
  </g>
</svg>
