<svg id="Component_278_1" data-name="Component 278 – 1" xmlns="http://www.w3.org/2000/svg" width="342.24" height="342.24" viewBox="0 0 342.24 342.24">
  <g id="Component_230_47" data-name="Component 230 – 47">
    <g id="Rectangle_3295" data-name="Rectangle 3295" transform="translate(171.12) rotate(45)" fill="#fff" stroke="#000" stroke-width="3">
      <rect width="242" height="242" stroke="none"/>
      <rect x="1.5" y="1.5" width="239" height="239" fill="none"/>
    </g>
    <g id="Rectangle_3296" data-name="Rectangle 3296" transform="translate(171.421 30) rotate(45)" stroke="#000" stroke-width="3">
      <rect width="200" height="200" stroke="none"/>
      <rect x="1.5" y="1.5" width="197" height="197" fill="none"/>
    </g>
  </g>
  <g id="Group_285" data-name="Group 285" transform="translate(20.67 17.68)">
    <path id="Path_3199" data-name="Path 3199" d="M166.95,144.84c-.1-.32-.11-.77-.32-.93-6.07-4.45-2.53-8.63.11-13.11,2.67-4.53,4.85-9.34,7.24-14.03-.39-.26-.79-.52-1.18-.78-4.15,5.81-8.23,11.66-12.49,17.39-.78,1.04-2.49,2.4-3.39,2.16-4.42-1.17-4.74,1.55-5.03,4.62-.17,1.77-.48,3.52-.73,5.27-.58,0-1.15-.02-1.73-.03-.14-1.28.02-2.71-.5-3.81-.86-1.83-2.37-3.36-3.23-5.19a61.485,61.485,0,0,1-2.71-7.5c-.07-.22.83-1.04,1.32-1.07a2.083,2.083,0,0,1,1.42.96,43.115,43.115,0,0,1,1.96,3.89c1.36-5.95,2.59-10.22-2.99-13.03-3.79-1.91-5.57-4.42-4.92-9.54.56-4.42-2.24-9.18-2.98-13.87-1.45-9.14-2.31-18.37-3.8-27.5-.67-4.09-2.28-8.02-3.47-12.02.35-.34.71-.68,1.06-1.01,5.62,3.82,11.23,7.64,17.72,12.04.35-4.47.65-8.21.95-11.95l2.39.02c.28,3.69.55,7.37.9,11.96,6.19-4.25,11.8-8.09,18.16-12.46,0,1.96.34,3.17-.06,4.04-2.81,6.08-3.16,12.46-3.77,19.06-.95,10.32-4.34,20.41-5.55,30.73-.66,5.67-2.37,9.06-7.25,12.24-2.17,1.41-1.7,6.88-2.43,10.51.57.16,1.14.33,1.71.49.53-.84,1.67-1.84,1.5-2.51-1.24-4.85,1.4-7.47,5.04-9.75,1.09-.68,2.63-1.78,2.7-2.78.36-4.89,4.3-6.61,7.26-9.43,3.16-3.02,5.88-2.82,9.31-.91,39.52,22,40.56,70.97,14.84,95.65-4.74,4.55-10.51,8.04-15.86,11.95-2.47,1.8-4.54,1.47-7.08-.62-12.7-10.47-27.19-10.62-40.28-.58-2.69,2.06-5.04,2.59-8.2,1.03-26.24-12.94-39.6-47.04-28.95-74.25,5.85-14.95,15.34-26.71,30.01-33.92,2.3-1.13,3.93-1.52,6.18.56,3.36,3.1,7.2,5.23,8.72,10.32.82,2.76,4.77,4.59,8.34,7.76-4.01.87-6.73,1.46-9.57,2.07l3.91,8.83-.88.73q-7.065-6.225-14.13-12.46l-1.11,1.02,7.74,8.96c-.2.3-.4.61-.61.91q-3.135-2.1-6.26-4.2c-.43.27-.87.55-1.3.82,1.69,3.2,3.03,6.69,5.33,9.38.59.69,4.18-1.18,7.12-2.1,1.76,2.45,4.21,5.84,7.23,10.03H127.83c-.89-1.3-2.07-3.02-3.24-4.74-.33.09-.67.17-1,.26.31,1.65.62,3.29.95,5.03-2.83,1.65-7.29-1.19-10.03,1.76.08.78.17,1.56.25,2.35l22.23,1.16c-.59,1.22-1.1,2.29-2.16,4.48,3.41-1.74,5.88-3.01,8.36-4.28.28.32.57.64.85.96l-8.77,10.9c.46.41.92.83,1.38,1.24,3.07-2.91,6.15-5.82,9.83-9.3.85,2.24,1.59,4.2,2.76,7.3-2.24-1.11-3.32-1.65-4.59-2.28,0,.62-.18,1.36.03,1.48,2.75,1.71,4.24,7.37,9.17,2.97.31-.28,2.83,1.92,4.83,3.32-.63-2.36-1.19-4.44-1.75-6.53.53-.39,1.06-.79,1.59-1.18q3,4.575,5.99,9.16c.87-.69,1.75-1.38,2.62-2.07-2.8-4.54-5.6-9.09-9.27-15.03,3.47.93,5.81,1.26,7.9,2.16q11.79,5.085,23.41,10.56c1.13.54,1.69,2.21,2.65,3.23a5.746,5.746,0,0,0,2.28,1.5c.34.11,1.42-.75,1.39-1.08-.09-.88-.37-2.15-1-2.5q-8.145-4.53-16.46-8.75c-5.44-2.76-10.97-5.36-16.46-8.03.05-.49.11-.98.16-1.46,3.39-.3,6.79-.6,11.55-1.01-2.33-2.09-4.41-3.95-6.49-5.81l.17.2Zm-42.06,33.07c.76-4.75,3.1-8.53,7.25-12.86-4.11.61-6.54.97-8.85,1.32C119.45,170.64,121.34,174.18,124.89,177.91Zm49.96,12.82c.38-.4.76-.79,1.14-1.19-1.01-2.77-1.75-5.7-3.18-8.23-.52-.92-3.03-1.61-4.01-1.13-.93.45-1.86,3.3-1.38,3.84a79.171,79.171,0,0,0,7.42,6.72Zm1.18-59.07c-.42-.28-.84-.56-1.27-.85a62.444,62.444,0,0,0-7.13,5.75c-.63.66-.31,3.36.48,3.97.85.66,3.61.5,4.04-.21a68.175,68.175,0,0,0,3.88-8.66ZM125.29,189.6c.35.34.71.68,1.06,1.01,2.41-1.88,4.91-3.67,7.19-5.69.75-.66,1.58-2.24,1.27-2.86a4.474,4.474,0,0,0-2.95-2.27,3.864,3.864,0,0,0-3.01,1.76c-1.41,2.56-2.4,5.35-3.56,8.05Zm26.79,2.58c.26-.93.52-1.86.78-2.78a21.109,21.109,0,0,0-3.74-.55c-1.87.05-3.76.68-5.6.53a57.432,57.432,0,0,1-7.02-1.42l-.27,1.65,15.85,2.58Zm-5.18-7.53c-5.51-3.68-10.53-7.04-16.17-10.82,4.07,6.25,9.08,9.68,16.17,10.82Zm-30.56-14.28c-.45.25-.91.49-1.36.74q3.42,6.315,6.84,12.62c.44-.24.89-.48,1.33-.73q-3.4-6.315-6.81-12.64Zm42.86,12.04.92,1.08,10.47-8.91c-.28-.32-.55-.65-.83-.97Q164.48,178,159.2,182.41Z" fill="#fff"/>
    <path id="Path_3200" data-name="Path 3200" d="M149.64,252.6c-2.19-5.77-4.73-11.45-6.34-17.39-.43-1.58,1.75-4.13,3.15-5.9,4.43-5.58,3.83-11.62,1.95-18.42,1.38-.07,2.69-.14,4.48-.24-2.37,8.5-2.28,15.98,4.07,22.22a3.626,3.626,0,0,1,.91,3.08c-2.1,5.53-4.44,10.96-6.7,16.42Z" fill="#fff"/>
    <path id="Path_3201" data-name="Path 3201" d="M219.2,213.72c-4.41-2.64-8.98-5.05-13.16-8.02-2.48-1.77-4.09-2.88-6.73-.18-2.5,2.56-4.29,4.68-1.17,7.86a3.95,3.95,0,0,1,1.08,1.66,23.948,23.948,0,0,1,.36,3.19c-1.16-.17-2.81.1-3.39-.57-3.61-4.17-7.2-3.97-11.1-.54a20.959,20.959,0,0,1-2.21,1.16c-6.05,4.03-11.74,5.7-17.18-1.25-1.53-1.95-4.37-2.88-6.6-4.28.26-.41.51-.81.77-1.22,3.44,2.28,7.18,4.23,10.24,6.95,2.71,2.4,4.86,2.6,8,1.04,11.27-5.59,20.08-13.96,27.7-24.37,5.25,5.58,10.24,10.88,15.23,16.18-.61.8-1.23,1.6-1.84,2.4Z" fill="#fff"/>
    <path id="Path_3202" data-name="Path 3202" d="M124.53,101.29c-11.68,5.73-21.58,13.55-28.88,24.95-5.28-5.72-10.1-10.93-14.92-16.14l1.05-1.59a13.6,13.6,0,0,1,3.8.85c3.2,1.76,6.6,3.4,9.3,5.78,3.95,3.48,6.47,1.85,8.95-1.51,1.44-1.94,2.85-3.75-.03-5.89-1.05-.78-1.34-2.59-2.19-4.38,1.39,0,2.09-.2,2.3.03,5.39,6.21,10.04,2.1,14.86-.93a43.109,43.109,0,0,1,5.2-2.41c.18.42.37.84.55,1.26Z" fill="#fff"/>
    <path id="Path_3203" data-name="Path 3203" d="M101.59,203.79c-2.65,1.06-5.39,1.94-7.92,3.24-3.91,2.01-7.66,4.31-11.48,6.49-.55-.7-1.1-1.41-1.65-2.11,4.93-5.37,9.86-10.73,15.26-16.6,1.91,3.07,3.79,6.09,5.68,9.11l.12-.12Z" fill="#fff"/>
    <path id="Path_3204" data-name="Path 3204" d="M200.86,117.75c1.72-.8,3.5-1.48,5.14-2.42,4.42-2.54,8.78-5.19,13.16-7.8.6.76,1.21,1.52,1.81,2.27-4.88,5.26-9.77,10.52-15.47,16.66-1.7-3.31-3.11-6.06-4.52-8.81l-.13.1Z" fill="#fff"/>
    <path id="Path_3205" data-name="Path 3205" d="M101.47,203.91c3.17,2.59,6.25,5.31,9.53,7.75,3.3,2.45,6.8,4.63,10.31,7-.46.23-.8.51-.94.44-3.04-1.64-5.99-4.43-9.12-4.65-2.67-.19-5.56,2.56-9.53,4.62.52-2.41.36-4.24,1.16-4.88,3.81-3.03,2.44-5.53-.31-8.19a6.677,6.677,0,0,1-.99-2.21l-.12.12Z" fill="#fff"/>
    <path id="Path_3206" data-name="Path 3206" d="M200.99,117.65c-2.36-1.69-4.78-3.3-7.05-5.11-2.71-2.16-5.29-4.49-7.88-6.71,2.31.15,4.86.95,6.93.29s3.68-2.79,6.53-5.12c0,2.69.45,4.2-.07,4.71-4.84,4.71-2.45,8.43,1.4,12.04l.14-.11Z" fill="#fff"/>
    <path id="Path_3207" data-name="Path 3207" d="M221.6,189.77c-5.5,2.18-11.2-3.62-14.14,3.11,1.44-3.47,2.89-6.94,4.61-11.08,3.1,2.6,5.84,4.89,9.52,7.97Z" fill="#fff"/>
    <path id="Path_3208" data-name="Path 3208" d="M208.4,130.57h12.07c-.49,5-5.45,5.32-8.22,8.69C210.66,135.68,209.36,132.74,208.4,130.57Z" fill="#fff"/>
    <path id="Path_3209" data-name="Path 3209" d="M166.95,144.84l-.17-.2c-.37,1.11-.59,3.08-1.14,3.18a84.42,84.42,0,0,1-8.84.78c1.62-8.08,3.84-8.82,10.15-3.77Z" fill="#fff"/>
    <path id="Path_3210" data-name="Path 3210" d="M92.06,188.46l-10.72,2.59c-.34-.64-.68-1.28-1.01-1.92,2.61-2.17,5.22-4.35,8.46-7.04,1.12,2.17,2.07,4.02,3.27,6.37Z" fill="#fff"/>
    <path id="Path_3211" data-name="Path 3211" d="M88.57,138.63c-2.32-1.77-4.74-3.43-6.87-5.4-.5-.46,0-2,.05-3.04,2.7,1.03,5.63,1.7,7.98,3.26.87.58.34,3.24.45,4.95C89.64,138.48,89.11,138.55,88.57,138.63Z" fill="#fff"/>
    <path id="Path_3212" data-name="Path 3212" d="M139.55,213.94q-5.94,4.5-11.87,9c-.3-.4-.59-.79-.89-1.19q5.85-4.56,11.71-9.11C138.85,213.07,139.2,213.51,139.55,213.94Z" fill="#fff"/>
  </g>
</svg>
