<svg id="Component_269_1" data-name="Component 269 – 1" xmlns="http://www.w3.org/2000/svg" width="342.24" height="342.24" viewBox="0 0 342.24 342.24">
  <g id="Component_230_22" data-name="Component 230 – 22">
    <g id="Rectangle_3295" data-name="Rectangle 3295" transform="translate(171.12) rotate(45)" fill="#fff" stroke="#000" stroke-width="3">
      <rect width="242" height="242" stroke="none"/>
      <rect x="1.5" y="1.5" width="239" height="239" fill="none"/>
    </g>
    <g id="Rectangle_3296" data-name="Rectangle 3296" transform="translate(171.421 30) rotate(45)" stroke="#000" stroke-width="3">
      <rect width="200" height="200" stroke="none"/>
      <rect x="1.5" y="1.5" width="197" height="197" fill="none"/>
    </g>
  </g>
  <g id="Group_279" data-name="Group 279" transform="translate(20.1 17.33)">
    <path id="Path_3215" data-name="Path 3215" d="M150.79,265.29c-1.52-2.93-3.08-5.45-4.16-8.15-5.25-13.11-15.45-20.19-28.48-24.24-17.76-5.52-30.51-17.63-39.88-33.04-4.76-7.83-6.92-17.21-11.2-25.39a33.971,33.971,0,0,0-10.08-11.23c-5.03-3.63-11-5.97-17.09-9.14a13.354,13.354,0,0,1,2.35-2.18c5.09-2.79,10.38-5.25,15.33-8.27A24.241,24.241,0,0,0,68.55,129.5c9.7-30.85,30.56-50.37,61.63-59.22a14.065,14.065,0,0,0,7.23-4.9c4.18-5.96,7.68-12.38,11.4-18.65.7-1.19,1.16-2.52,2.3-5.06,1.65,3.34,2.59,5.52,3.75,7.57,2.38,4.2,4.69,8.45,7.37,12.45a23.036,23.036,0,0,0,12.8,9.67c26.5,8.25,45.43,25.09,56.03,50.97a9.638,9.638,0,0,1,.93,2.31c2.06,15.56,13.79,21.71,26.3,27.13,1.05.46,2.11.91,3.13,1.44.23.12.28.56.62,1.3-4.39,2.36-8.88,4.66-13.24,7.17a64.315,64.315,0,0,0-7.45,5.02,21.827,21.827,0,0,0-7.88,11.59c-8.98,29.55-28.61,49.16-58.04,58.27-7.41,2.29-12.18,6.59-15.95,12.57-3.1,4.93-5.56,10.26-8.7,16.17Zm.31-158.86c-.9-1.7-1.57-3.04-2.31-4.34-3.44-6.05-6.83-12.13-10.38-18.11-2.33-3.92-5.66-4.34-9.9-2.91-20.01,6.76-35.7,18.88-45.01,37.92-9.22,18.87-10.02,17.67,8.44,28.74,3.58,2.15,7.46,3.82,12.07,6.16-1.86.97-2.95,1.5-4,2.1-6.61,3.79-13.25,7.53-19.79,11.44-3.17,1.9-3.63,4.71-2.53,8.22,6.57,20.88,19.45,36.38,38.84,46.56,1.74.91,2.92,2.9,3.61,3.61,2.58.25,4.95-.1,6.75.76,5.24,2.51,8.96,1.14,11.69-3.66,3.45-6.04,6.79-12.14,10.21-18.2.57-1,1.31-1.91,2.39-3.48.86,1.72,1.22,2.59,1.69,3.39,4.07,7.01,7.97,14.13,12.41,20.9.92,1.41,4.19,2.5,5.87,2.01,25.91-7.65,43.32-24.31,52.5-49.79,1.87-5.18.89-8.53-3.6-11.27-6.83-4.18-13.61-8.41-20.86-12.9,1.13-.57,2.53-1.19,3.85-1.96,6.56-3.87,13.2-7.6,19.53-11.8a6.209,6.209,0,0,0,2.03-5.38c-7.09-25.02-22.78-42.46-47.1-51.75-10.05-3.84-10.54-3.51-16.35,5.78-3.48,5.57-6.44,11.47-10.06,17.98Z" fill="#fff"/>
    <path id="Path_3216" data-name="Path 3216" d="M114.96,200.84c-7.72-5.25-11.2-11.77-8.18-20.47,1.13-3.25,1.91-6.62,3.08-9.85,2.74-7.59,5.46-15.2,8.55-22.65.75-1.8,2.71-3.29,4.42-4.47a85.462,85.462,0,0,1,10.09-6.08c1.85-.94,4.1-1.13,6.19-1.56,2.73-.56,4.43-1.42,2.63-4.68-2.48-4.5-1.15-14.1,2.22-17.77,3.87-4.22,11.81-4.25,14.99.48a17.869,17.869,0,0,1,2.28,16.55c-1.41,3.75-.7,4.25,2.96,5.65,6.51,2.5,12.44,6.5,18.58,9.91a2.225,2.225,0,0,1,.88,1.19c3.07,9.2,6.09,18.42,9.16,27.62,1.09,3.26,2.7,6.41,3.3,9.76,1.07,5.95-3.09,13.16-9.65,16.69.72-8.1-8.04-12.23-7.04-20.65.28-2.32-2.71-5.12-4.47-7.5-.34-.46-2.63-.32-2.84.1a7.114,7.114,0,0,0-.54,3.93c.27,1.87,1.06,3.66,1.49,5.51.19.78-.14,1.7.08,2.46,1.43,4.9,3.39,9.69,4.26,14.68.46,2.62-.38,5.82-1.55,8.33-5.05,10.9-6.39,11.08-13.55,1.52-3.17-4.23-5.6-9.03-8.37-13.56-2.35-3.84-3.32-3.69-5.75,0-4.19,6.36-8.62,12.57-13.06,18.76-2.07,2.89-3.98,2.5-5.56-.64-1.64-3.27-3.45-6.46-5.08-9.73a4.48,4.48,0,0,1-.57-2.85c1.4-4.96,3.04-9.86,4.48-14.81a38.6,38.6,0,0,0,.64-4.33,47.453,47.453,0,0,0,.92-5.37,33.394,33.394,0,0,0-.46-4.96c-.84-.11-1.68-.23-2.51-.34-1.52,3.96-3,7.93-4.56,11.88-.94,2.39-2,4.73-3.02,7.09q-2.205,5.085-4.45,10.17Z" fill="#fff"/>
  </g>
</svg>
