<svg id="Component_333_1" data-name="Component 333 – 1" xmlns="http://www.w3.org/2000/svg" width="342.24" height="342.24" viewBox="0 0 342.24 342.24">
  <g id="Component_230_27" data-name="Component 230 – 27">
    <g id="Rectangle_3295" data-name="Rectangle 3295" transform="translate(171.12) rotate(45)" fill="#fff" stroke="#000" stroke-width="3">
      <rect width="242" height="242" stroke="none"/>
      <rect x="1.5" y="1.5" width="239" height="239" fill="none"/>
    </g>
    <g id="Rectangle_3296" data-name="Rectangle 3296" transform="translate(171.421 30) rotate(45)" stroke="#000" stroke-width="3">
      <rect width="200" height="200" stroke="none"/>
      <rect x="1.5" y="1.5" width="197" height="197" fill="none"/>
    </g>
  </g>
  <g id="Group_315" data-name="Group 315" transform="translate(18.331 13.585)">
    <path id="Path_3359" data-name="Path 3359" d="M55.83,150.99c1.65-2.02,3.29-4.04,4.94-6.06a24.139,24.139,0,0,0,3.15-2.42c2.25-1.57,4.44-2.8,5.45,1.38.81,3.36,3.61,4.19,6.5,4.35-1.49-.98-1.44-3-2.42-4.46-1.52-6.95-1.28-13.38,5.25-17.98,1.04-1.35,2.03-2.76,3.94-2.94,2.49-.54,4.71-2.07,7.42-1.86,1.87.14,3.58.24,4.11,2.47-2.46,3.65.91,6.83.84,10.29-.73,1.7-2.59,2.06-3.77,3.23a8.533,8.533,0,0,1-1.18,1.79c-2.6,2.95-1.5,6.56-1.71,9.91-.16,2.45.09,4.92-.15,7.37a3.443,3.443,0,0,1-.58,1.33c-3.34.67-6.28,2.6-9.67,3.13-1.58.34-3.06,1.25-4.77.86-2.1-.63-3.68-2.75-6.22-2.15-.91.3-1.75,1.01-2.7.89-3.87-.48-.64,1.77-1.04,2.61-.49,2.63,1.89,4.05,2.64,6.17-1.68,4.2-2.05,4.26-7.16,1.02a11.363,11.363,0,0,1-4.82-6.5c-.06-4.26-.64-8.59,1.94-12.43Z" fill="#fff"/>
    <path id="Path_3360" data-name="Path 3360" d="M204.68,102.09c1,1.33,1.99,2.67,2.99,4,4.12,7.2,3.53,12.47-2.2,17.69A15.02,15.02,0,0,0,201.7,129c-1.35,5.07-4.49,7.21-9.83,6.56-5.82-.7-11.78.93-17.55-.95-2.01-4.43-.96-9.07-.77-13.62.09-2.06,1.6-2.77,3.55-1.64,3.3,1.4,7.67-.08,10.14,3.66a6.934,6.934,0,0,0,1.07.8,4.112,4.112,0,0,0,1.83.65,3.649,3.649,0,0,0-.56-.09,9.137,9.137,0,0,1-5.3-5.28c-.03-2.38.54-4.3,3.38-4.5.89-.13,1.92.72,2.62-.44-.14-2.96-1.93-4.92-3.86-6.81-2.15-2.48-1.24-4.51.96-6.3,5.97-2.82,11.75-2.96,17.29,1.05Z" fill="#fff"/>
    <path id="Path_3361" data-name="Path 3361" d="M179.77,66.05a38.521,38.521,0,0,1,15.02,13.97,2.029,2.029,0,0,1,.32,2.01c-1.7,1.4-3.03.61-4.24-.74a13.155,13.155,0,0,1-.84-1.22,47.131,47.131,0,0,0-14.99-13.04c2.13.9,4.42,2.73,7.3,3.56a3.968,3.968,0,0,1,2.79,3.75c-.04,1.93-1.22,2.97-3.14,3.15-3.73-.9-5.94,1.08-7.65,4.03-3.35,2.82-9.1,2.37-14.02-1.06-1.05-2.11,1.05-3.6,1.12-5.53.08-2.32.34-4.72-3.23-3.06-1.83.85-3.9.26-5.69,1.11-4.6,4.38-7.24,9.38-5.7,16,.56,2.41-.63,3.77-3.24,3.59-2.33-1.18-1.79-3.3-1.69-5.26.2-3.77,1.88-7.71-1.26-11.1a5.353,5.353,0,0,1-.13-2.42c2.04-6.59,8.48-10.73,17.97-11.21,7.32-.37,14.6-.13,21.3,3.46Z" fill="#fff"/>
    <path id="Path_3362" data-name="Path 3362" d="M238.76,155.97c3.54,6.51,2.75,13.89-2.13,19.92-.25.21-.51.43-.77.64-7.42,5.78-10.91,4.95-15.44-3.66-.37-3.79-.17-7.45,2.12-10.69,1.99-3.08,4.97-2.5,8.1-1.92-1.28-2.78-5.59-4-4.08-7.44,1.29-2.93,4.57-1.62,7.08-1.73a17.424,17.424,0,0,1,5.11,4.9Z" fill="#fff"/>
    <path id="Path_3363" data-name="Path 3363" d="M213.84,224.09c-1.26,3.84-4.31,6.2-7.17,8.73-6.64,4.85-14.54,6.23-22.26,8.09-2.21-.54-6.02,2.24-5.98-2.9,1.22-2.76,4.52-2.42,6.37-4.24,3.56-2.09,8.14-2.03,11.18-5.25,2.49-1.93,5.63-2.67,8.03-4.92,3.38-3.16,4.06-7.31,5.22-11.35.51-1.61,1.17-3.49,3.06-3.33,1.84.16,1.4,2.33,1.89,3.64a15.131,15.131,0,0,1-.32,11.54Z" fill="#fff"/>
    <path id="Path_3364" data-name="Path 3364" d="M179.79,238.02c.66,3.44,3.54,1.25,5.24,2.08-2.59,2.48-6.18,2.25-9.28,3.2a45.7,45.7,0,0,0-9.07,3.56l-10.74,6.2c-2.87.7-3.65,5.22-7.51,4.1-1.49-1.91-.16-3.39.73-4.94.66-1.11,1.27-2.26,2.58-2.75,3.94-3.37,8.57-5.63,13.1-8.04,3.38-1.15,6.9-1.81,10.09-3.6,1.4-.79,3.34-1.82,4.87.2Z" fill="#fff"/>
    <path id="Path_3365" data-name="Path 3365" d="M179.77,66.05c-8.31-2.03-16.46-4.37-25.28-2.18-6.08,1.51-10.75,3.92-12.57,10.26-3.69,3.03-3.77-1.42-5.45-2.59-2.14-2.99-5.12-1.64-7.81-1.44-2.12.16-4.06,1.33-6.24,1.33a2.244,2.244,0,0,1-1.58-1.35c6.15-5.41,13.45-6.02,21.01-4.58a8.459,8.459,0,0,0,5.55-.68c9.72-4.24,19.66-3.84,29.59-.75,1.03.32,1.86,1.31,2.78,1.99Z" fill="#fff"/>
    <path id="Path_3366" data-name="Path 3366" d="M105.91,94.11c.61-.72,1.21-1.44,1.82-2.17a1.287,1.287,0,0,1,1.44-.11,3.148,3.148,0,0,1,1.1,2.68c-.3,3.61.72,6.99,1.79,10.37a6.48,6.48,0,0,0,3.69,7.19c1.25,6.78,1.1,7.04-6.32,10.51-.33-.07-.8-.13-.89-.37-3.62-9.11-8.18-18.14-2.63-28.1Z" fill="#fff"/>
    <path id="Path_3367" data-name="Path 3367" d="M194.65,82.01c.05-.66.09-1.33.14-1.99,3.94,5.03,6.62,10.68,7.12,17.06.19,2.37,2.04,3.26,2.78,5.02-5.72-1.06-11.44-2.28-16.94.88a4.816,4.816,0,0,1-4.71.03c-2.53-3.26.04-4.26,2.37-5.37a5.261,5.261,0,0,0,2.78-.99c2.19-1.34,4.86-1.83,6.72-3.72.89-1.94-.27-3.48-.86-5.16-.69-1.96-1.81-4.07.6-5.75Z" fill="#fff"/>
    <path id="Path_3368" data-name="Path 3368" d="M155.81,242c1.97-1.63-1.3-4.88,1.91-6.12,8.29-1.66,15.8-5.47,23.54-8.61,1.52-.62,2.9-1.6,4.6-1.74a9.145,9.145,0,0,1,2.28.13,3.355,3.355,0,0,1,2.26,1.97c.37,2.41-1.46,3.14-3.12,3.77a17.154,17.154,0,0,0-5.63,3.85c-.47.17-.96.34-1.44.5-7.03.76-13.2,4.02-19.54,6.78-1.59.69-3.02,2.39-4.97.78a1.017,1.017,0,0,1,.1-1.31Z" fill="#fff"/>
    <path id="Path_3369" data-name="Path 3369" d="M212.94,193.08c-2.62,2.16-7.3.11-8.89,4.35-2.92,3.81-7.05,1.5-10.61,2.08-2.42-.04-4.85.06-7.27-.16-1.46-.39-2.91-.81-3.8-2.19-.35-3.88,2.6-4.53,5.31-5.18,1.53-.36,3.19-.14,4.76-.46,1.63-.08,3.27-.04,4.91-.04,3.82.71,7.68,1.8,11.11-1.21a3.754,3.754,0,0,1,3.17.69,4.255,4.255,0,0,1,1.31,2.11Z" fill="#fff"/>
    <path id="Path_3370" data-name="Path 3370" d="M75.79,144.04a4.389,4.389,0,0,0,4.37,3.92c1.08.09,3.06-1.21,2.79,1.16a3.068,3.068,0,0,1-3.93,2.8c-4.47-1.29-9.52-1.98-11.1-7.55-.67-2.36-1.91-2.25-3.67-1.15a33.167,33.167,0,0,1-3.49,1.71c1.85-3.96,7.33-3.84,9.01-7.99,1.45.01,2.85.7,2.85,2.07.01,2.49,1.82,3.55,3.16,5.03Z" fill="#fff"/>
    <path id="Path_3371" data-name="Path 3371" d="M185.68,226.91c-7.92,4.43-16.78,6.69-24.85,10.76-2.12,1.07-2.56-.36-3.12-1.79,1.29-1.34,2.26-3.09,4.39-3.35,2.67-3.5,7.16-3.15,10.6-5,2.32-.69,4.63-1.39,6.94-2.13,1.46-.43,2.88-1.11,4.47-.75,1.06.38,1.98.86,1.57,2.25Z" fill="#fff"/>
    <path id="Path_3372" data-name="Path 3372" d="M105.91,94.11c-.48,4.05-3.33,8.12-1.91,11.97,1.98,5.39,1.68,11.61,5.72,16.24,5.08.4,6.24,4.45,7.65,8.26a2.594,2.594,0,0,1-2.34,1.83c-6.08-.79-10.02-4.85-13.83-9.11a1.943,1.943,0,0,1,.7-1.39c4.09.34,5.44-.91,3.69-5.14-2.36-5.69-4.09-11.63-2.13-17.89.54-1.71.83-3.6,2.45-4.78Z" fill="#fff"/>
    <path id="Path_3373" data-name="Path 3373" d="M200.76,127.02c.85-1.2,1.43-2.83,2.59-3.53,7.34-4.41,7-10.58,4.33-17.4,3.36,2.56,3.35,6.3,2.96,9.85-.32,2.84.42,3.67,3.22,3.98a21.921,21.921,0,0,1,10.84,4.34,1.126,1.126,0,0,1-.01,1.32c-1.85,1.82-3.66.56-5.48-.06-6.34-2.17-8.7-1.56-13.03,3.42-1.38,1.59-2.47,3.62-5.11,3.24-3.14-1.55-1.34-3.38-.3-5.17Z" fill="#fff"/>
    <path id="Path_3374" data-name="Path 3374" d="M111.85,88.02c-.81-2.79.88-5.26,1.03-7.93a2.083,2.083,0,0,1,1.96-.61c2.42,1.1.81,5.21,4.19,5.53.37.1.73.24,1.11.37,2.81-.41,5.16.37,5.86,3.28s-1.1,4.97-3.71,5.59c-3.61.85-2.43,5.51-5.67,6.43-4.36-1.13-4.79-4.75-5.29-8.33-.21-1.49.89-2.82.51-4.33Z" fill="#fff"/>
    <path id="Path_3375" data-name="Path 3375" d="M97.87,195.08c-13.05,2.28-19.2-.35-25.95-11.11,0-2.34-3.23-1.95-3.47-4.09,1.6-1.93,1.02-5.85,5.06-5.55,2.15.68,1.86,3.14,3.22,4.41,1.39,3.34,3.83,6.05,5.31,9.38,1.34,3.01,4.56,3.53,7.53,3.92,2.5.33,5.07.09,7.56.71a3.021,3.021,0,0,1,1.03.98,1.411,1.411,0,0,1-.27,1.34Z" fill="#fff"/>
    <path id="Path_3376" data-name="Path 3376" d="M154.78,230.95c-14.8,7.45-28.59,3.56-42.08-3.74a1.231,1.231,0,0,1,0-1.52c4.54-1.65,8.45,1.01,12.21,2.48,7.99,3.12,15.79,2.8,23.81.87,1.72-.41,3.4-1.53,5.21-.29a1.878,1.878,0,0,1,.86,2.2Z" fill="#fff"/>
    <path id="Path_3377" data-name="Path 3377" d="M75.79,144.04c-3.77,2.13-5.6.98-5.34-3.29a6.345,6.345,0,0,0-.67-3.8c2.88-3.79,3.41-9.46,8.92-11.14-5.88,5.3-4.18,11.8-2.91,18.24Z" fill="#fff"/>
    <path id="Path_3378" data-name="Path 3378" d="M68.94,179.93c.93,1.4,3.38,1.67,2.98,4.04-5.96-7.04-14.1-12.03-18.94-20.13a1.518,1.518,0,0,1,1.98.05c.93,1.94,1.84,3.89,3.64,5.23a8.917,8.917,0,0,1,2.51,1.55c2.33,1.62,4.29,1.94,5.03-1.59.47-2.25,2-3.29,4.18-3.55,4.66.72,4.76.91,3.23,6.36-3.17,1.72-3.64,5.02-4.6,8.03Z" fill="#fff"/>
    <path id="Path_3379" data-name="Path 3379" d="M111.85,88.02c1.94,3.8.85,8.89,5,11.76,2.75-.83,3.87,1.41,5.42,2.86,2.04,2.55,3.36,5.01-.8,6.83-2.57.81-4.04-1.49-6.09-2.15a3.278,3.278,0,0,1-1.13-1.06c-1.81-4.73-2.94-9.74-5.75-14.07a1.335,1.335,0,0,1-.77-.25c.31-2.42,3.35-1.98,4.12-3.92Z" fill="#fff"/>
    <path id="Path_3380" data-name="Path 3380" d="M155.81,242c.07.39.15.78.22,1.17,2.85.58,4.61-2.44,7.35-2.23,1.02.32,1.92.72,1.46,2.07q-6.075,3.915-12.14,7.84c-2.91.95-3.94-1.35-5.3-3.07-.48-1.16-1.59-2.15-1.01-3.61,1.22-1.56,2.46-3.05,4.61-1.32-.06,1.98.79,2.17,2.24,1.12.87-.64,1.71-1.32,2.57-1.98Z" fill="#fff"/>
    <path id="Path_3381" data-name="Path 3381" d="M166.67,246.85c3.59-3.67,8.61-3.86,13.09-5.37,1.71-.58,3.5-.93,5.26-1.38a104.943,104.943,0,0,0,21.64-7.27c-4.89,5.51-11.99,6.14-18.41,7.99-7.17,2.07-14.51,3.58-21.58,6.04Z" fill="#fff"/>
    <path id="Path_3382" data-name="Path 3382" d="M224.59,125.35c.03-.36.06-.73.09-1.09,6.63,5.19,9.55,11.76,7.04,20.06-.75,2.5-.37,3.94,1.81,5.37,2.31,1.52,4.72,3.16,5.22,6.27l-4.88-4c-6.5-1.71-6.66-1.94-5.89-8.79.54-4.86,1.31-9.72-2.71-13.73a3.286,3.286,0,0,1-.7-4.1Z" fill="#fff"/>
    <path id="Path_3383" data-name="Path 3383" d="M221.97,172.92c4.88,7.23,5.38,7.33,14.66,2.96a5.729,5.729,0,0,1-3.49,3.24,15.5,15.5,0,0,0-7.32,6.02,4.367,4.367,0,0,1-1.33-.62c-3.16-3.11-6.81-5.96-6.03-11.19.94-2.14,2.15-1.89,3.51-.41Z" fill="#fff"/>
    <path id="Path_3384" data-name="Path 3384" d="M192.75,197.95l11.29-.51a10.5,10.5,0,0,1,5.9,4.19c.25.9,1.52,1.35,1.11,2.54-.69,1.2-2.15,1.71-2.98,1.15-4.17-2.83-8.93-1.31-13.35-2.15a4.639,4.639,0,0,1-2.01-1.3c-.79-1.32-1.06-2.62.05-3.91Z" fill="#fff"/>
    <path id="Path_3385" data-name="Path 3385" d="M154.78,230.95c-.47-.39-.94-.77-1.41-1.16.32-2.62,2.38-2.6,4.28-2.85,1.74-.23,3.46-.58,5.21-.69,3.31.3,6.47-1.54,9.83-.66.97.26,1.99.53,2.08,1.73.1,1.33-1.55.94-1.96,1.82-3.55,1.21-6.87,3.14-10.72,3.39-1.88-3.09-5.38,1.27-7.32-1.58Z" fill="#fff"/>
    <path id="Path_3386" data-name="Path 3386" d="M210.73,203.97c-.26-.78-.53-1.56-.79-2.34.58.27,1.32.4,1.7.84,4.27,4.96,5.4,16.37,2.2,21.63.22-4.4,1.24-8.87-1.29-13.23-.66,1-1.3,1.97-1.95,2.94-1.84-1.91-2.6-4.09-1.6-6.68a7.486,7.486,0,0,1,.78-2.05c.3-.38.62-.75.95-1.1Z" fill="#fff"/>
    <path id="Path_3387" data-name="Path 3387" d="M97.87,195.08c0-.33,0-.66.02-.98.06-3.13-1.38-6.36.88-9.35,1.25-1.65,2.36-3.18,4.74-2.16a4.7,4.7,0,0,1,1.66,2.81c-.28,3.91,1.49,8.13-1.74,11.6a1.4,1.4,0,0,1-1.62-.02,4.965,4.965,0,0,0-3.94-1.89Z" fill="#fff"/>
    <path id="Path_3388" data-name="Path 3388" d="M146.7,244.92a3.026,3.026,0,0,1,2.02,2.06c-1.27,2.72,2.2,3.72,2.17,5.99a7.53,7.53,0,0,0-2.19,3.98,1.848,1.848,0,0,1-1.37.34c-1.59-.53-2.14-1.88-2.61-3.29a6.493,6.493,0,0,1-.04-7.25c1-.25.24-2.44,2.02-1.83Z" fill="#fff"/>
    <path id="Path_3389" data-name="Path 3389" d="M101.81,196.98c.37,0,.75.01,1.12.02a1.876,1.876,0,0,1,2.26-.28,4.251,4.251,0,0,1,.86,4.77c-.87,2.34-.28,4.44.02,6.64a2.915,2.915,0,0,1-3.48,2.5c-1.91-.43-.58-2.77-2.02-3.47-1.04-3.57.72-6.8,1.24-10.18Z" fill="#fff"/>
    <path id="Path_3390" data-name="Path 3390" d="M101.91,121.92c.01.31.03.62.05.92-1.15,2.57-4.5,1.44-5.95,3.53a4,4,0,0,1-2.27-.2,2.474,2.474,0,0,1-1.07-1.1c-.2-2.61-1.76-3.34-4.13-3-1.97.29-3.94.53-5.9.8,6.21-4.62,12.75-2.52,19.27-.95Z" fill="#fff"/>
    <path id="Path_3391" data-name="Path 3391" d="M144.72,254c1.42.5,2.62,1.22,2.92,2.86.2,1.27,1.54,1.37,2.2,2.15-.97,2.3-2.5,5.62-4.98,3.88-2.9-2.04-2.4-5.86-.14-8.9Z" fill="#fff"/>
    <path id="Path_3392" data-name="Path 3392" d="M100.57,207.15c.71.99,1.41,1.98,2.12,2.97,3.2,4.29,5.93,8.94,9.67,12.83.89.93.73,2.11.44,3.25-.03.33-.06.67-.09,1-8-4.29-11.06-11.57-12.13-20.05Z" fill="#fff"/>
    <path id="Path_3393" data-name="Path 3393" d="M149.83,259.02c-.15.07-.29.16-.45.22-1.35.55-2.47,3.31-4,1.34-1.36-1.77,1.1-2.66,2.24-3.71l1.06.09c3.06-.11,4.24-3.7,7.24-3.91q-3.045,2.985-6.1,5.97Z" fill="#fff"/>
    <path id="Path_3394" data-name="Path 3394" d="M54.96,163.9c-.66-.02-1.32-.04-1.98-.05-.03-4.5-1.78-9.39,2.85-12.85-.78,4.27-1.47,8.55-.88,12.91Z" fill="#fff"/>
    <path id="Path_3395" data-name="Path 3395" d="M225.77,184.04c.02.37.04.73.05,1.1-3.4,4.11-7.87,6.46-12.89,7.94l-2.43-.33a2.178,2.178,0,0,1,.62-2.26c3.96-2.64,8.3-4.62,12.38-7.05.71-.42,1.59.06,2.26.6Z" fill="#fff"/>
    <path id="Path_3396" data-name="Path 3396" d="M146.7,244.92c-.67.61-1.35,1.22-2.02,1.83.09-2.55,2.03-4.08,3.3-5.97.67-1,1.67-1.83,2.91-.98s.77,2.01.11,3.05a5.174,5.174,0,0,0-4.3,2.06Z" fill="#fff"/>
    <path id="Path_3397" data-name="Path 3397" d="M114.66,79.79l-1.78.3a24.176,24.176,0,0,1,7.96-10.02c.64-.01,1.28-.03,1.93-.04-.17,5.35-3.98,7.69-8.1,9.76Z" fill="#fff"/>
    <path id="Path_3398" data-name="Path 3398" d="M96.06,125.02c.8-3.88,3.7-2.08,5.9-2.18,5.29,1.15,8.09,6.12,12.72,8.28,2.36,1.38,2.15,3.51-.11,3.85a58.942,58.942,0,0,1-19.25-.09c-.84-.15-1.15-1.13-1.53-1.86-.13-2.68-6.46-4.48-1.13-7.94.34.04.69.07,1.03.11.8.15,1.73,2.45,2.35-.15Z" fill="#fff"/>
    <path id="Path_3399" data-name="Path 3399" d="M93.8,133c6.56,1.99,13.28.73,19.93.86,2.14.04,1.65-1.47.96-2.75.71-.39,1.41-.78,2.12-1.16l.55-.58q9.9-1,9.94-11.39c.01-3.98-.03-7.97.04-11.95.03-1.61-.31-3.41,1.61-4.35a1.8,1.8,0,0,1,1.58.62c1.64,9.55.62,19.15.55,28.72a4.257,4.257,0,0,1-4.03,4.32c-4.73.67-9.42,1.56-14.22,1.17-7-.57-13.99,1.43-21.01.15a5.644,5.644,0,0,1-2.29-.72,1.722,1.722,0,0,1-.65-1.65c1.61-.56,3.55.15,4.92-1.29Z" fill="#fff"/>
    <path id="Path_3400" data-name="Path 3400" d="M88.88,134.29c.06.38.13.77.19,1.15,3.11,2.28,2.49,5.99,2.12,8.67-1.09,7.85,1.23,15.37,1.25,23.06.39,2.17.49,4.23-2.07,5.23-3.45-.47-4.17-3.72-5.96-5.87-2.34-3.09-5.49-1.95-8.49-1.6-1.45.34-2.89.95-4.3-.12a3.12,3.12,0,0,1-.71-3.61,2.136,2.136,0,0,1,1.91-1.12l5-1.14c2.65-2.25,5.93-1.67,9.01-1.96h0c1.13-5.52.19-11.1.5-16.64.1-1.79-.34-3.61.37-5.36.39-.24.78-.47,1.17-.71Z" fill="#fff"/>
    <path id="Path_3401" data-name="Path 3401" d="M61.86,162.99a26.331,26.331,0,0,1-3.25-4.29c-1.12-2.28.47-3.91,2.28-4.74,2.71-1.23,1.99.99,2.47,2.54.99,3.15,1.69-.27,2.6-.36,1.32,1.44,2.78,2.78,3.2,4.81-.25,4.82-3.71,2.66-6.11,2.82a2.886,2.886,0,0,1-1.2-.77Z" fill="#fff"/>
    <path id="Path_3402" data-name="Path 3402" d="M69.85,167.01a10.215,10.215,0,0,0-1.75,1.65c-3.64,5.69-4.24,5.73-9.5.46,1.24.45,2.47.96,3.73,1.32,1.24.35,2.01.03,1.54-1.49-.74-1.35-1.17-2.72-.27-4.16,2.56-.62,5.18-1.39,6.25,2.21Z" fill="#fff"/>
    <path id="Path_3403" data-name="Path 3403" d="M87.71,135c-.23,7.34.85,14.72-.88,22C87.15,149.67,85.88,142.27,87.71,135Z" fill="#fff"/>
    <path id="Path_3404" data-name="Path 3404" d="M67.51,161.22a8.867,8.867,0,0,1-1.54-5.09c3.27-.39,5.63.8,6.85,3.96-.35.32-.7.63-1.04.95-.94.89-1.98.5-3,.23a10.621,10.621,0,0,0-1.26-.05Z" fill="#fff"/>
    <path id="Path_3405" data-name="Path 3405" d="M86.83,157c-3,.65-6,1.31-9.01,1.96,1.44-1.97,4.25-2.5,5-5.2,2.12.44,1.86,3.35,4.01,3.24Z" fill="#fff"/>
    <path id="Path_3406" data-name="Path 3406" d="M63.87,164.96v4c-1.44-1.73-5.54-2.57-2.01-5.98h.99c.93.35,1.49.89,1.02,1.97Z" fill="#fff"/>
    <path id="Path_3407" data-name="Path 3407" d="M200.76,127.02c-.07,1.39-1.31,3.04.88,3.93,3.03.72,6.12.46,9.19.69,1.91.14,3.96,0,5.29,1.85,1.12,1.59,1.15,3.41,1.13,5.23-.15,11.68.57,23.35-.01,35.03-.11,2.15.74,4.84-2.43,5.74a2.467,2.467,0,0,1-1.6-.76,6.793,6.793,0,0,1-.84-5.06c1.64-8.41-.89-16.86.59-25.23a17.477,17.477,0,0,0,.07-5.45c-.59-4.19-2.44-5.99-6.68-5.51-9.79,1.11-19.4-2.09-29.17-1.02-1.58.17-3.48.06-3.53-2.4a1.132,1.132,0,0,1,1.53-.18c5.59,0,11.19-.15,16.78.02,3.79.11,6.95-.19,7.35-5,.05-.66.97-1.25,1.49-1.87Z" fill="#fff"/>
    <path id="Path_3408" data-name="Path 3408" d="M175.13,133.86c-.44.05-.87.09-1.31.14-3.06-.15-2.47-2.56-2.5-4.34-.1-5.73-.13-11.46.01-17.18a5.194,5.194,0,0,1,.38-1.6c.51-.99,1.53-1.31,2.42-1.8a3.14,3.14,0,0,1,2.69-.63,7.5,7.5,0,0,1,3.12,2.79c.73,3.02-.94,6-.17,9.03-.6,1.29-1.33,2.39-3.04,1.96-.82-.85-1.98-3.03-1.99.3-.01,3.77-.47,7.58.39,11.32Z" fill="#fff"/>
    <path id="Path_3409" data-name="Path 3409" d="M188.74,117.04c-2.19-.89-2.87.35-3.12,2.21a2.016,2.016,0,0,1-2.19-1.46,21.631,21.631,0,0,0-.87-6.19c.18-1.79,1.59-2.87,2.49-4.25a3.182,3.182,0,0,1,2.78-.37c4.39,1.07,6.33,5.05,4.88,9.99-1.35-1.3-2.66-.35-3.98.08Z" fill="#fff"/>
    <path id="Path_3410" data-name="Path 3410" d="M183.73,112.02c1.67,1.56,1.34,3.44.87,5.35-1.53,1.79.02,2.75.98,3.95.83,1.04,2.25,1.95,1.26,3.65-2.54-.28-4.64-4.35-7.75-.75-.5.57-1.87-.89-2.35-1.98.69-.74,1.39-1.48,2.08-2.21,1-1.39-.39-2.94.13-4.19.85-2.03,1.23-5.04,4.79-3.81Z" fill="#fff"/>
    <path id="Path_3411" data-name="Path 3411" d="M186.84,124.97c-1.48-1.72-3.27-3.27-4.37-5.21-1.05-1.85-1.08-3.82,2.13-2.4l1.02,1.89a9.668,9.668,0,0,0,5.14,3.78c.68.45,1.56,1.16.91,1.84-1.1,1.15-2.58.85-3.92.16-.3-.02-.61-.03-.91-.06Z" fill="#fff"/>
    <path id="Path_3412" data-name="Path 3412" d="M187.75,125.03c1.3-.22,3.19.45,3.01-2,2.07.29,4.35-.52,6.15,1.09a1.077,1.077,0,0,1-.26,1.71c-2.15,1.49-4.48.55-6.72.27a7.785,7.785,0,0,1-2.19-1.07Z" fill="#fff"/>
    <path id="Path_3413" data-name="Path 3413" d="M187.83,106.98c-.69.35-1.38.7-2.06,1.05-1.83.42-3.22,3.05-5.53,1.12-1.46-2.71,1.12-4.19,1.89-6.23a2.427,2.427,0,0,1,1.46-.4l4.15.45c-1.33,1.37-.4,2.68.09,4Z" fill="#fff"/>
    <path id="Path_3414" data-name="Path 3414" d="M200.9,117.29a1.379,1.379,0,0,1-1.54,1.45c-1.05,0-1.95-.35-1.93-1.59a1.487,1.487,0,0,1,1.53-1.53,1.722,1.722,0,0,1,1.94,1.67Z" fill="#fff"/>
    <path id="Path_3415" data-name="Path 3415" d="M188.74,117.04c.45-1.35.83-3.06,2.52-3.03,1.8.03,1.29,1.79,1.46,2.95-1.31.78-2.63,1.12-3.98.08Z" fill="#fff"/>
    <path id="Path_3416" data-name="Path 3416" d="M196.43,109.6c-.91,0-1.7-.33-1.84-1.26-.18-1.22.63-1.8,1.76-1.81a1.471,1.471,0,0,1,1.62,1.48C198,108.98,197.35,109.46,196.43,109.6Z" fill="#fff"/>
    <path id="Path_3417" data-name="Path 3417" d="M188.8,98.21c-.66.3-1.33.6-1.99.9-.9.61-2.29.78-2.77.21-2.74-3.32-6.76-2.38-10.2-3.35a12.111,12.111,0,0,0-7.46-2.44c-2.1-.08-3.58-.81-3.5-3.2-.89-2.11-1.87-.47-2.22.18-1.47,2.77-3.87,3.19-6.61,3.01a7.7,7.7,0,0,1-4.36-1.5c-2.86-4.07-2.96-8.48-1.63-13.05.82-2.16,1.91-4.1,4.14-5.15,3.35.91,7.66.26,8.59,5.2,4.3.59,8.35,4.45,12.97,1.01,3.16-.28,4.2-4.58,7.77-4.08,2.49-1.14,2.46-3.28.36-3.96-4.75-1.53-8.13-6.94-15.35-3.83,3.32-3.24,3.36-3.38,5.95-2.62,8.34,2.43,15.73,6.27,20.23,14.22A15.125,15.125,0,0,0,194.66,82q2.565,6,5.12,12.01c1.23,2.97-1.07,2.36-2.57,2.51-2.86.29-6.01-.9-8.4,1.69Z" fill="#fff"/>
    <path id="Path_3418" data-name="Path 3418" d="M114.66,79.79c1.68-4.1,4.77-7.04,8.1-9.76,4.73-1.76,9.41-3.74,14.66-3.06,1.61.21,3.46-.09,3.56,2.35-2.75,2.7-1.3,6.33-2.14,9.43.36-1.47.6-3.05,2.76-2.74,1.47.29,4.51-1.01,3.36,2.26-1.61,4.56-.94,9.15-1.18,13.73-.66,3.06-2.9,2.54-5.04,2.21-1.46-.7-2.84-1.55-4.34-2.21-3.31-1.45-4.96-.49-5.2,3.07-1.22,9.57-.85,19.17-.9,28.77,0,1.44-.16,2.7-2.01,2.76-2.81-1.22-2.02-4.14-2.94-6.25a5.41,5.41,0,0,0-2.82-5.58c-1.73-1.65-3.75-3-4.93-5.21-.67-1.26-1.05-2.35.26-3.4,1.98-.24,3.15,1.65,4.94,1.9a1.654,1.654,0,0,0,2.76-.79,1.846,1.846,0,0,0-.69-2.58c-.9-.42-1.62-1.07-2.49-1.51-2.05-.23-2.28-2.35-3.54-3.39a5.2,5.2,0,0,0-.04-1.48c-1.44-4.45-1.44-7.72,4.83-6.47a1.988,1.988,0,0,0,2.27-1.54,2.212,2.212,0,0,0-1.72-2.64,19.933,19.933,0,0,0-3.38-.61h0c-3.67-1.11-4.29-3.96-4.14-7.25Z" fill="#fff"/>
    <path id="Path_3419" data-name="Path 3419" d="M138.73,92.47a4.893,4.893,0,0,0,5.06-.49c1.48-.68,1.6-1.99,1.38-3.33-1.14-7.14,1.62-12.79,6.61-17.62a1.534,1.534,0,0,1,.86-.43c2.3.02,4.78.7,4.54,3.26-.28,2.88-2.99.32-4.42,1.1-1.58.92-2.02,2.69-2.98,4.06-2.11,4.53-.87,9.26-.85,13.92a6.831,6.831,0,0,1-3.57,3.39,9.4,9.4,0,0,1-1.45.55c-2.3.36-4.54-.28-6.78-.62a4.332,4.332,0,0,0-4.67,1.86c-1.07,1.21-.84,3.33-2.76,3.92-.27,0-.55-.01-.82-.02-.08-3.14-2.52-5.6-2.49-8.77.48-1.72,2.18-2.41,3.16-3.71,1.75-2.31,4.74-1.67,5.3-.08.82,2.31,3.04,1.55,3.89,3Z" fill="#fff"/>
    <path id="Path_3420" data-name="Path 3420" d="M152.75,74.96c.61-1.34,3.47.25,3-1.98-.36-1.74-2.34-1.88-3.98-1.95,2.28-1.21,4.83-1.61,7.13-3.05,4.08-2.57,4.66-1.72,5.42,2.94.62,3.82.1,6.48-3.55,8.12q-4.02-2.04-8.03-4.08Z" fill="#fff"/>
    <path id="Path_3421" data-name="Path 3421" d="M141.61,76c-1.19,2.5-.78,5.17-.85,7.78-.03,1.18-.08,2.57-1.51,2.72-1.67.18-2.3-1.25-2.37-2.6-.25-5.3.19-10.45,4.11-14.6.72,1.53-3.13,3.94.93,4.82-.1.62-.21,1.24-.31,1.87Z" fill="#fff"/>
    <path id="Path_3422" data-name="Path 3422" d="M181.52,75.97c-1.5,3.44-3.32,6.25-7.76,4.08-.96-1.03-3.45-.69-3.22-2.47.31-2.37,2.56-1.08,3.99-1.38a11.747,11.747,0,0,0,3.1-1.21c1.65-.89,3.06-1.23,3.89.98Z" fill="#fff"/>
    <path id="Path_3423" data-name="Path 3423" d="M214.81,134c-2.98-.02-5.97-.11-8.95-.04-2.24.05-3.98-.38-4.23-3.02.31-.39.65-.76.92-1.17,5.99-9.18,10.18-10.34,19.8-5.5.74.37,1.49.72,2.24,1.08,5.85,5.37,7.67,12.06,5.45,19.49-1.26,4.21,2.03,5.06,3.85,7.13a12.819,12.819,0,0,1-6.66,1.5c2.93,2.24,6.02,3.3,6.34,6.56.21,2.14.51,4.49-2.04,5.48-2.52.98-2.68-.85-3.37-2.73-.84-2.31-2.38,0-3.63.14a4.405,4.405,0,0,1,2.43-4.47c.6-.3-.06.78-.12.11-.02-.25-.17-.27-.47-.1a11.229,11.229,0,0,0-4.96,5.53,3.413,3.413,0,0,1-3.69,2.5c-2.3-.79-1.42-2.75-1.43-4.23-.08-7.78-.02-15.56-.06-23.34,0-1.74.57-3.73-1.42-4.93Z" fill="#fff"/>
    <path id="Path_3424" data-name="Path 3424" d="M218.77,165c1.63-2.91,3.28-5.82,6.3-7.57,3.38-1.97,5.72-.63,7.35,2.47.55,1.04.78,2.42-.35,3.2-1.57,1.09-1.71-.59-2.41-1.42-2.43-2.87-3.87-1.01-5.14,1.25-3.13,2.75-2.76,6.4-2.55,10a1.862,1.862,0,0,0-2.36,1.33,1.635,1.635,0,0,1-1.63-.64,8.967,8.967,0,0,1,.79-8.61Z" fill="#fff"/>
    <path id="Path_3425" data-name="Path 3425" d="M210.9,206.87q-.15,3.465-.3,6.94c-1.44,8.05-6.35,13.18-13.7,16.24-1.31.58-2.58.87-3.65-.47-.5-1.07-.06-2.12.08-3.17.28-1.46,1.39-2.13,2.58-2.73,6.4-1.32,10.37-7.87,9.36-15.44,1.26-3.04,3.25-3,5.63-1.37Z" fill="#fff"/>
    <path id="Path_3426" data-name="Path 3426" d="M164.84,243.02l-2.08-1.08c.56-3.1,3.72-2.91,5.57-3.61,3.9-1.46,7.81-2.99,11.75-4.39l.33.05a4.824,4.824,0,0,1,3.15-1.1,3.054,3.054,0,0,1,2.42,2.14c-2.06.99-4.13,1.98-6.19,2.98q-7.47,2.5-14.95,5Z" fill="#fff"/>
    <path id="Path_3427" data-name="Path 3427" d="M185.98,235.04l-2.28-1.32c2.41-3.59,5.94-4.82,10.08-4.74,1.04.35,2.09.71,3.13,1.06-3.15,2.74-7.3,3.3-10.92,5Z" fill="#fff"/>
    <path id="Path_3428" data-name="Path 3428" d="M150.88,252.97c-3.46-1.01-5.43-2.56-2.16-6a10.234,10.234,0,0,1,3.98,3.88c-.6.71-1.21,1.41-1.81,2.12Z" fill="#fff"/>
    <path id="Path_3429" data-name="Path 3429" d="M124.87,119.02c1.26,2.2.84,4.62.94,6.97-2.81,1.55-5.49,3.43-8.9,3.41a1.155,1.155,0,0,0-.11.55c-2.52-2.4-5.53-4.33-7.08-7.63-.21-2.06-1.64-4.57,2.48-4.53,3.23.03,1.99-3.07,2.69-4.8,1.46-1.02,2.7-.02,4,.43,2.72,1.08,3.74,3.99,5.98,5.59Z" fill="#fff"/>
    <path id="Path_3430" data-name="Path 3430" d="M117.73,115.06c-.95-.69-1.89-1.38-2.84-2.07-3.21-1.55-.25,5.5-4.02,2.93-2.29-1.56-2.31-7.93-.25-10.78l.63-.42c3.42,2.85,6.38,6.04,7.78,10.4a.849.849,0,0,1-1.3-.07Z" fill="#fff"/>
    <path id="Path_3431" data-name="Path 3431" d="M108.5,92.2c5.02,2.84,5.16,8.43,7.3,12.9-1.73,1.39-3.05.82-3.98-.95a13.178,13.178,0,0,0-1.97-3.36c.17-2.04-1.92-3.62-1.16-5.78-.06-.94-.13-1.87-.19-2.81Z" fill="#fff"/>
    <path id="Path_3432" data-name="Path 3432" d="M108.69,95c1.16,1.52,3.27,2.82,1.21,5.1,1.08,1.43,2.46,2.8,1.1,4.79l-.38.25a12.261,12.261,0,0,1-1.93-10.15Z" fill="#fff"/>
    <path id="Path_3433" data-name="Path 3433" d="M174.78,95c2.93-2.48,7.48-.21,10.25-3.51.44-.52,1.84.44,2.24,1.43a2.148,2.148,0,0,1-1.11,2.89c-.87.51-2.71.11-2.27,1.89.33,1.33,1.85,1.09,2.91,1.41-1.17,1.04-3.94.57-3.21,3.4a8.172,8.172,0,0,1-.71.49c-.94.73-1.53,1.97-2.92,2.08-5.31-.91-3.66,3.28-4.25,5.83-.12.73.04,1.81-.95,1.84-.97.02-.88-1.08-1.08-1.79-2.44-5.11-1.68-10.34-.57-15.59a1.321,1.321,0,0,1,1.68-.37Z" fill="#fff"/>
    <path id="Path_3434" data-name="Path 3434" d="M188.8,98.21c1.36-2.17,3.55-2.15,5.73-2.2,1.98-.04,4.07.18,5.24-2,1.63,2.66-.46,2.81-2.12,2.9a30.767,30.767,0,0,0-8.85,1.29Z" fill="#fff"/>
    <path id="Path_3435" data-name="Path 3435" d="M180.08,233.95c-3.2,3.87-8.35,3.6-12.36,5.76-1.59.86-3.3,1.5-4.96,2.24-2.32,0-3.93,3.88-6.74,1.23,5.97-3.89,12.76-5.93,19.28-8.61,1.53-.63,3.08-1.19,4.78-.62Z" fill="#fff"/>
    <path id="Path_3436" data-name="Path 3436" d="M185.68,226.91c-.66-.34-1.33-.68-1.99-1.02a1.689,1.689,0,0,1,.71-2.16c3.97-1.84,7.5-4.56,11.74-5.85,2.55.88,4.85,1.88,2.91,5.24-4.16.15-6.96,4.39-11.37,3.81-.67,0-1.33-.02-2-.02Z" fill="#fff"/>
    <path id="Path_3437" data-name="Path 3437" d="M193.77,228.98q-5.04,2.37-10.07,4.74c-1.09.09-2.18.19-3.28.28,1.96-3.76,6.64-3.38,9.29-6.09,1.48-1.57,2.98-3.02,5.24-1.2-.39.75-.78,1.51-1.18,2.26Z" fill="#fff"/>
    <path id="Path_3438" data-name="Path 3438" d="M194.95,226.71l-5.23,1.2c-.68-.33-1.35-.66-2.03-.99,2.15-1.4,4.28-2.84,6.46-4.19,1.15-.71,2.44-2.08,3.48.17.23,1-.36,1.58-1.07,2.1-.54.57-1.08,1.13-1.62,1.7Z" fill="#fff"/>
    <path id="Path_3439" data-name="Path 3439" d="M218.8,173.98a6.965,6.965,0,0,1,.81.26,12.214,12.214,0,0,0,4.59,6.17c1.27.96,2.28,1.88,1.57,3.63a43.241,43.241,0,0,1-15.26,8.71c-.42-.17-.85-.34-1.27-.51-3.48,1.11-5.73-1.36-8.35-2.8-2.52-2.07-5.12-4.04-7.72-6.02-2.75-2.09-2.46-3.11,1.14-4.87,6.04,0,12.08-.32,18.11.17,5.43,2.28,3.36-2.14,3.81-4.29.18-.87-.4-2.2.87-2.44,1.31-.25.94,1.46,1.69,1.98Z" fill="#fff"/>
    <path id="Path_3440" data-name="Path 3440" d="M192.77,193.04c-3.37,1.38-7.33,1.18-10.22,3.84-.94,3.28-3.83,4.07-6.46,4.01-3.24-.07-3.32-3.4-3.6-5.65a73.839,73.839,0,0,1-.11-13.3c.22-4.01,3.12-4.53,6.35-4.41,5.15.84,10.2,1.92,14.1,5.82C196.28,187.58,196.28,190.88,192.77,193.04Z" fill="#fff"/>
    <path id="Path_3441" data-name="Path 3441" d="M179.41,179.09c-4.05-.31-5.74,1.44-5.36,5.58.3,3.3-.04,6.65.18,9.96.34,5.19.92,5.48,5.59,3.45.91-.4,1.82-.8,2.74-1.19,1.07.36,2.14.73,3.21,1.09a5.7,5.7,0,0,1-.87,3.46c-2.49,2.32-6.37,3.12-7.52,6.91-.96,2.57-2.04,5.1-2.11,7.9-.04,1.51-.31,2.92-2.06,3.44a2.839,2.839,0,0,1-1.69-.29,3.24,3.24,0,0,1-1.05-1.43c-.16-.59-.34-1.17-.53-1.75,2.41-10.98.98-22.11,1.32-33.17.08-2.75.04-5.42,3.4-6.36,2.87.35,6.4-1.9,8.32,2.13-1.11,1.02-2.33.73-3.56.27Z" fill="#fff"/>
    <path id="Path_3442" data-name="Path 3442" d="M201.85,187.95c3.37-.13,4.37,3.81,7.39,4.29a12.93,12.93,0,0,1-11.48.67c-2.1-1.19-2.3-2.56-.38-4.11,1.35-.99,3.2.6,4.47-.85Z" fill="#fff"/>
    <path id="Path_3443" data-name="Path 3443" d="M198.88,189.92c-1.56.55-1.71,1.64-1.12,3l-4.99.12c.09-.14.29-.37.26-.4-1.97-2.35,0-5.31-1.19-7.77,4.22-.92,6.06,1.46,7.04,5.05Z" fill="#fff"/>
    <path id="Path_3444" data-name="Path 3444" d="M183.47,199.84c.76-.62,1.53-1.24,2.29-1.86,2.33,0,4.66-.02,6.99-.03.33,1.02.67,2.04,1,3.05-1.03,1.73-2.71,1.44-4.31,1.44C187.44,201.62,184.49,202.89,183.47,199.84Z" fill="#fff"/>
    <path id="Path_3445" data-name="Path 3445" d="M195.78,218.98c-3.57,3.1-8.14,4.46-12.08,6.91-1.26.4-2.52.79-3.78,1.19-1.06.5-2.59.81-3.01-.17-.87-2.06.72-3.46,2.14-4.74,5.43-1.94,10.27-5.07,15.34-7.76,2.3-1.56,4.09-1.66,4.7,1.63-.06,2.15-1.37,2.9-3.31,2.94Z" fill="#fff"/>
    <path id="Path_3446" data-name="Path 3446" d="M180.79,224.02c.14,1.14-4.38.94-.88,3.05-2.37.69-4.73,1.37-7.1,2.06,1.39-3.12-1.04-2.17-2.11-1.71a15.857,15.857,0,0,1-8.07,1.46c3.36-4.53,8.66-4.9,13.49-6.28,1.86-.53,3.57-.59,4.66,1.41Z" fill="#fff"/>
    <path id="Path_3447" data-name="Path 3447" d="M118.81,87.04c.53,1.09,3.14,1.65,1.21,3.32a2.206,2.206,0,0,1-3.3-1.04c-.89-1.97.88-1.97,2.09-2.28h0Z" fill="#fff"/>
    <path id="Path_3448" data-name="Path 3448" d="M75.97,163.1c2.57-1.46,5.48-1.12,8.24-1.57,1.87-.3,3.26.39,3.61,2.46-1.2,3.15-1.03,6.12,1.16,8.82a3.262,3.262,0,0,1,.06,1.32c-.46,2.01-3.97,2.13-3.07,4.98,1.66,2.05,3.1,4.25,4.62,6.4,1.43,1.14,3.35,1.39,4.77,2.44,1.96,1.46,4.77,2.98,1.5,5.88-3.44.56-6.87,1.2-10.37.33-3.74-.93-6.84-2.57-7.82-6.71-.31-1.31-.79-2.68-2.15-3.17-2.97-1.07-2.16-3.25-1.75-5.35-.94-1.1.8-2.76-.76-3.74-2.39.83-1.88,4.75-5.06,4.74-2.88-3.7-1.94-6.64,1.81-9.01,4.18-.97,2.68-5.75,5.23-7.82Z" fill="#fff"/>
    <path id="Path_3449" data-name="Path 3449" d="M96.84,193.83c.86-2.85-1.55-2.96-3.15-3.84-1.67-.92-3.25-2.03-4.86-3.06a3.549,3.549,0,0,0-.31-3.73,2.548,2.548,0,0,1,.5-3.89c4.03-2.81,8.59-1.91,12.94-1.58,3,.23,3.17,2.01.77,5.12-1.76,2.66-3.87,5.16-2.91,8.79.35,1.31-.98,1.88-1.94,2.46l-1.05-.27Z" fill="#fff"/>
    <path id="Path_3450" data-name="Path 3450" d="M73.99,175.19c.99-.78,2.44-2.55,3.2-1.43,1.66,2.45-1.54,3.43-2.44,5.17-4.03-.48-.09-2.58-.76-3.74Z" fill="#fff"/>
    <path id="Path_3451" data-name="Path 3451" d="M180.79,224.02a138.809,138.809,0,0,0-18.15,4.87l-9.27.9c-9.55,4.05-19.1,4.98-28.94.77-3.79-1.62-7.95-2.39-11.65-4.35-5.13-4.25-9.77-8.81-10.1-16.08.35-1.01.97-1.53,2.09-1.14a2.5,2.5,0,0,1,2.06.64c4.8,7.9,12.42,9.74,20.91,9.72,10.11.58,20.23,0,30.35.1,4.7.04,9.37,1.99,14.1.25a2.644,2.644,0,0,0,2.38-2.19c1.22-2.27,3.41-3.34,5.54-4.51,3.88-1.99,7.78-3.68,12.13-1.36,1.43,1.07,4.16,1.4,2.36,4.26-3.78,4.11-8.91,5.94-13.82,8.13Z" fill="#fff"/>
    <path id="Path_3452" data-name="Path 3452" d="M75.97,163.1c.96,4.42-1.16,6.77-5.23,7.82.5-1.11,2.21-1.63,1.9-3.03-.34-1.52-1.89-.44-2.79-.88-1.99-.68-3.99-1.36-5.98-2.05-.34-.66-.68-1.31-1.02-1.97.6-3.1,3.91.93,4.66-1.77.15-.1.31-.2.46-.31,2.48-.43,2.56,2.16,3.93,3.13,1.36-.31,2.71-.63,4.07-.94Z" fill="#fff"/>
    <path id="Path_3453" data-name="Path 3453" d="M111,104.9a9.091,9.091,0,0,1-1.1-4.79c3.17.24,2.58,4.94,5.91,4.99.02.35.04.71.06,1.06.39,3.81,3.63,5.48,5.9,7.88-.28,2.46-1.74,1.41-2.98,1-3.03-3.04-5.98-6.15-7.79-10.13Z" fill="#fff"/>
    <path id="Path_3454" data-name="Path 3454" d="M120.39,103.17a6.552,6.552,0,0,1,.99-.03c1.47.18,1.63-3.17,3.48-1.44,1.44,1.34.45,3.11.03,4.66-.62,2.24-1.96,2.94-4.07,1.69,3.98-1.98,0-3.28-.42-4.88Z" fill="#fff"/>
    <path id="Path_3455" data-name="Path 3455" d="M188.77,200.98c1.66,0,3.33.01,4.99.02.58.03,1.16.07,1.74.1,1.73.7,3.22,2.03,5.39.49a3.728,3.728,0,0,1,4.1.54,1.7,1.7,0,0,1-.03,1.46c-2.86,1.71-4.09,5.83-8.26,5.62-2.13-1.61-4.69-2.2-7.12-3.14-2.8-1.07-4.32-2.8-.8-5.09Z" fill="#fff"/>
    <path id="Path_3456" data-name="Path 3456" d="M204.88,202.74c-2.9-1.82-6.81,2.05-9.39-1.65,5.57-1.66,10.3,1.15,15.24,2.87.01.32.02.64.02.96-2.71,1.3-5.35,2.42-5.87-2.18Z" fill="#fff"/>
    <path id="Path_3457" data-name="Path 3457" d="M204.88,202.74c1.39,2.24,3.63,2.21,5.87,2.18.05.65.1,1.3.15,1.94-2.17.07-3.94.66-4.2,3.22-.63,1.13-.51,2.7-1.96,3.36-2.99,1.33-4.18-.06-4.41-2.91-.3-3.44,2.53-5.04,4.27-7.28.1-.17.2-.35.29-.52Z" fill="#fff"/>
    <path id="Path_3458" data-name="Path 3458" d="M102.74,182.85c.66-2.34.36-3.72-2.66-3.7-3.86.03-7.65.05-11.16,1.92-4.21,2.38-6.53,1.38-7.18-3.12,1.45-2.15,4.04-2.63,6-4.04,4.22,1.69,8.65,1.68,13.1,1.65,2.8-.02,5.67-.08,7.67,2.47a3.858,3.858,0,0,1,.64,1.5,5.475,5.475,0,0,1-2.11,5.2,4.089,4.089,0,0,1-3.23.25c-.36-.71-.71-1.42-1.07-2.14Z" fill="#fff"/>
    <path id="Path_3459" data-name="Path 3459" d="M103.81,184.98c.67-.34,1.33-.67,2-1.01,1.36.71,1.95,1.89,1.32,3.24-1.12,2.4.22,4.22,1.14,6.18-.06,2.17-.67,3.85-3.32,3.65-.67-.02-1.34-.03-2.02-.05C104.21,193.06,103.32,188.97,103.81,184.98Z" fill="#fff"/>
    <path id="Path_3460" data-name="Path 3460" d="M104.95,197.04a8.082,8.082,0,0,0,1.82-4.06c-1.44-3.79,1.08-6,3.42-8.14a14.934,14.934,0,0,1,8.8-4.29c4.03.51,4.11,2.99,3.04,6.05-3.99,3.86-9.35,6.57-10.75,12.64-1.51,2.92-3.02,5.83-2.4,9.3-.72,1.15-1.52,2.12-3.09,1.42l-1.02-.99c-1.98-4.01.1-7.96.17-11.94Z" fill="#fff"/>
    <path id="Path_3461" data-name="Path 3461" d="M96.06,125.02c2.36,1.04,4.21,2.52,4.18,5.36,0,.39-1,1.19-1.32,1.09a7.432,7.432,0,0,1-4.98-4.86,7.567,7.567,0,0,1-.23-1.45l2.35-.15Z" fill="#fff"/>
    <path id="Path_3462" data-name="Path 3462" d="M116.91,129.41c.13-.1.33-.18.38-.32q2.47-6.5,8.52-3.1c2.21-1.15,1.95-3.25,1.92-5.19-.12-9.29.99-18.68-1.94-27.77a.691.691,0,0,1,1.09.04c.83,2.95,1.89,5.84,1.98,8.96q-.09,11.43-.19,22.86c-.06,7.55-2.54,9.04-9.61,5.75-.75-.35-1.44-.82-2.16-1.23Z" fill="#fff"/>
    <path id="Path_3463" data-name="Path 3463" d="M71.9,164.04c-2.43.36-3.09-1.5-3.93-3.13.1-.79-.08-1.87.88-2.1,1.74-.42,1.89,1.54,2.92,2.24a3.371,3.371,0,0,1,.13,3Z" fill="#fff"/>
    <path id="Path_3464" data-name="Path 3464" d="M89.79,171.93c-.62.41-1.24.81-1.85,1.22-2.73-3.02-1.56-6.08-.12-9.15A13.726,13.726,0,0,0,89.79,171.93Z" fill="#fff"/>
    <path id="Path_3465" data-name="Path 3465" d="M183.15,178.8c3.71,1.98,6.97-1.11,10.63-.9,6.62.38,13.28.06,19.93.03.04.38.08.75.12,1.13-.26.13-.53.25-.79.38-6.42.26-12.85-.26-19.27.28-2.18.96-1.17,1.72.11,2.6,2.69,1.84,5.32,3.76,7.98,5.64.47,1.13,2.45,2.22,1.29,3.3-1.58,1.46-2.79-.9-4.26-1.34q-3.525-2.52-7.04-5.05c-3.27-3.79-8.08-4.28-12.42-5.77,1.24-.1,2.49-.19,3.74-.29Z" fill="#fff"/>
    <path id="Path_3466" data-name="Path 3466" d="M218.8,173.98c-3.01-1.49-1.8,1.2-2.02,2.18-.41,1.82,0,4.14-3.06,3.73-.71-.37-.68-.65.1-.85h0c1.59-.73,1.95-2.13,1.95-3.69.05-12.54.13-25.07.1-37.61,0-1.25-.7-2.5-1.07-3.75,2.3,1.38,1.91,3.69,1.92,5.8.04,6.98-.05,13.96.07,20.94.03,1.57-1.01,3.93,1.97,4.25.01,2.99.02,5.99.03,8.98Z" fill="#fff"/>
    <path id="Path_3467" data-name="Path 3467" d="M161.87,87.45a36.1,36.1,0,0,1,3.55-1.7c1.33-.49,3.12-1.47,3.79.54.64,1.94-1.31,2.28-2.67,2.79-.61.23-1.22.49-1.83.73-.61.95-2.39,2.16.22,2.64,1.9.35,3.9,0,5.85.11,1.55.08,3.46-.08,2.97,2.5q-.03,7.95-.06,15.9a6.838,6.838,0,0,1-.91.07q0-4.485-.02-8.96c-.03-7.86-.41-8.27-8.06-8.15" fill="#fff"/>
    <path id="Path_3468" data-name="Path 3468" d="M180.6,108.91c1.65-.73,3.15-2.33,5.17-.88.59,1.98-.59,3.06-2.04,3.99-3.53,1.51-2.64,5.73-4.92,8-1.94-2.97-.15-6.02-.19-9.03-.6-1.88,0-2.64,1.97-2.09Z" fill="#fff"/>
    <path id="Path_3469" data-name="Path 3469" d="M175.71,110.9c-1.06-1.65-.99-3.52-.88-5.33.1-1.75-.91-4.43.9-4.99,1.96-.61,3.2,1.76,4.11,3.54.59,2.68-.69,4.14-3.15,4.82-.33.66-.66,1.31-.98,1.97Z" fill="#fff"/>
    <path id="Path_3470" data-name="Path 3470" d="M176.69,108.94c1.05-1.61,2.1-3.21,3.15-4.82,1.01-.37,2.02-.74,3.03-1.12.21,2.34-1.55,3.92-2.28,5.9a2.759,2.759,0,0,0-1.97,2.09c-2.97,1.5-1.31-1.35-1.94-2.06Z" fill="#fff"/>
    <path id="Path_3471" data-name="Path 3471" d="M151.03,91.18c-.13,2.26-1.55,2.09-3.11,1.65-.3-4.73-1.05-9.52,1.85-13.82.09,4.09-1.78,8.38,1.26,12.16Z" fill="#fff"/>
    <path id="Path_3472" data-name="Path 3472" d="M173.74,95.06c-2.12-3.44-5.57-2.02-8.55-2.34-.93-.1-2.24.23-2.44-1.02-.18-1.18,1.04-1.5,1.95-1.87.18,2.94,2.47,2.03,4.08,2.14,2.47.17,5.07-.09,6.01,3.04-.35.02-.7.04-1.05.05Z" fill="#fff"/>
    <path id="Path_3473" data-name="Path 3473" d="M126.89,93.07c-.36-.01-.73-.02-1.09-.04,4.11-7.43,5.83-7.5,12.93-.56-.96-.11-2.46.14-2.8-.38-3.74-5.67-6.25-1.2-9.04.97Z" fill="#fff"/>
    <path id="Path_3474" data-name="Path 3474" d="M118.8,115.03c.99-.33,1.99-.67,2.98-1a5.659,5.659,0,0,1,3.1,4.99c-3.52.74-4.29-3.48-7.14-3.96.35-.01.71-.02,1.07-.04Z" fill="#fff"/>
    <path id="Path_3475" data-name="Path 3475" d="M121.74,81.88c0,1.27-.95,1.61-1.93,1.75a1.7,1.7,0,0,1-2.16-1.41c-.17-1.22.75-1.71,1.81-1.76a2.076,2.076,0,0,1,2.28,1.42Z" fill="#fff"/>
    <path id="Path_3476" data-name="Path 3476" d="M127.43,75.38a2,2,0,0,1-1.69-2.14c.05-.92.57-1.66,1.56-1.57,1.21.12,1.56,1.13,1.61,2.17a1.3,1.3,0,0,1-1.49,1.54Z" fill="#fff"/>
    <path id="Path_3477" data-name="Path 3477" d="M226.03,135.33c-2.52,1.61-2.91,5-5.23,7.02-.7.61-1.48.37-1.87-.68-.68-1.81,3.31-7.97,5.31-8.09.95-.06,1.5.44,1.8,1.74Z" fill="#fff"/>
    <path id="Path_3478" data-name="Path 3478" d="M204.69,211.92a2.844,2.844,0,0,1,2.02-1.83c2.33,7.1-2.37,14.02-10.14,14.92.36-.7.71-1.4,1.07-2.1,1.98-2.54-.92-2.77-1.85-3.93l2.13-2.88a6.166,6.166,0,0,0,.64-1.22c.19-1.37-.8-3.16,1.06-3.94,1.9-.79,1.3,1.34,2.01,1.96C203.13,214.2,203.95,213.12,204.69,211.92Z" fill="#fff"/>
    <path id="Path_3479" data-name="Path 3479" d="M213.82,179.05c-.03.28-.06.57-.1.85q-9.975-.09-19.96-.19C200.4,178.11,207.13,179.26,213.82,179.05Z" fill="#fff"/>
    <path id="Path_3480" data-name="Path 3480" d="M188.77,200.98c-.93,2.3.5,2.61,2.28,3.29,2.01.77,5.32-.06,5.55,3.58a5.335,5.335,0,0,1-.33,1.42,3.108,3.108,0,0,1-3.37,2.16c-3.2-.59-6.38-1.89-9.58.23-1.27.84-3.21.91-2.58,3.19-1.06,2.69-3.99,1.93-5.85,3.15-1.13-4.01-.74-8.04-.18-12.08,2.19-3.08,5.83-4.08,8.77-6.08,1.75.42,3.97-1.31,5.29,1.14Z" fill="#fff"/>
    <path id="Path_3481" data-name="Path 3481" d="M172.8,220.06c-1.53.98-3.07,1.94-4.59,2.93-1.89,1.23-3.73,2.6-5.26-.49a2.245,2.245,0,0,0-1.49-1.16c-6.61-.29-13.36-1.25-19.77.39-2.51.64-3.95,1.34-6.47-.11-1.93-1.1-4.85-.46-7.34-.59-.38-3.04,2.25-2.39,3.79-3.09.55.01,1.1.03,1.64.05,4.35,1.51,8.86.99,13.31.94,7.79-.09,15.57.43,23.36-.07a2.939,2.939,0,0,1,1.61-.09l1.19.21c.58.35.59.71.03,1.09Z" fill="#fff"/>
    <path id="Path_3482" data-name="Path 3482" d="M172.8,220.06c0-.36-.02-.73-.03-1.09,2.44-4.09-.2-8.93,1.93-13.06q.09,6.045.18,12.08a3.542,3.542,0,0,1-2.08,2.07Z" fill="#fff"/>
    <path id="Path_3483" data-name="Path 3483" d="M192.84,209.85c1-.6,2-1.2,3.01-1.8,1.5,1.18,3.02,2.34,3.39,4.39-.13,1.16.44,2.41-.5,3.45-.27.08-.55.14-.82.2-.97-2.19-2.17-.61-3.3-.2-.35-1.59-1.88-1.97-2.94-2.84a3.384,3.384,0,0,1,1.16-3.2Z" fill="#fff"/>
    <path id="Path_3484" data-name="Path 3484" d="M81.75,177.95c1.3,3.55,3.81,4.33,7.18,3.12-.14,1.95,5.14,3.99-.1,5.86a6.647,6.647,0,0,0-4.76-4.29c-2.15-.55-3.83-2-2.32-4.68Z" fill="#fff"/>
    <path id="Path_3485" data-name="Path 3485" d="M131.85,219.04c-1.33.66-2.65,1.33-3.98,1.99a23.456,23.456,0,0,1-20.44-7.68c-.97-1.02-1.74-1.93-1.64-3.38.72-.69,1.43-1.39,2.15-2.08a2.5,2.5,0,0,1,1.24-.58c2.62.36,2.08,3.47,3.93,4.49,4.86,3.04,9.69,6.16,15.79,3.36,1.79.67,2.25,2.36,2.94,3.87Z" fill="#fff"/>
    <path id="Path_3486" data-name="Path 3486" d="M192.84,209.85c.5,1.39.43,2.57-1.16,3.2-4.05-1.85-7.57-.51-10.94,1.79-1.23-.11-2.93.69-3.49-.91-.63-1.81,1.26-1.94,2.34-2.51,4.21-2.26,8.56-3.4,13.25-1.57Z" fill="#fff"/>
    <path id="Path_3487" data-name="Path 3487" d="M198.64,211.76c-1.9-.51-2.59-1.93-2.8-3.71a3.213,3.213,0,0,1,.75-.21c2.79-1.33,4.56-4.42,8.01-4.58-.11,2.68-1.63,4.74-3.01,6.86a8.848,8.848,0,0,0-2.96,1.63Z" fill="#fff"/>
    <path id="Path_3488" data-name="Path 3488" d="M198.64,211.76a2.4,2.4,0,0,1,2.96-1.63c.32,1.82,1.09,2.87,3.09,1.79-.26,1.23-1.4,2.75-2.14,2.09-3.22-2.84-2.71,1.01-3.81,1.88-.03-1.38-.06-2.75-.09-4.13Z" fill="#fff"/>
    <path id="Path_3489" data-name="Path 3489" d="M118.79,182.03a28.045,28.045,0,0,0-12.02,10.96c-3.98-2.61-1.1-5.96-.96-9.01-.22-1.77,1.17-2.67,2.08-3.82,3.26-1.93,7.09-1.31,10.55-2.34,2.83,1.18,3.82,2.51.34,4.21Z" fill="#fff"/>
    <path id="Path_3490" data-name="Path 3490" d="M118.83,179.04c-3.55,1.32-7.3.65-10.93,1.12-.02-.34-.04-.68-.06-1.03,1.59-1.45,3.73-1.17,5.59-1.77,2.71.36,5.48-.8,8.17.27a1.217,1.217,0,0,1,.33,1.47,2.781,2.781,0,0,1-3.09-.07Z" fill="#fff"/>
    <path id="Path_3491" data-name="Path 3491" d="M108.78,197.92a22.632,22.632,0,0,1,10.83-12c1.15-.62,2.42-1.19,2.34-2.8-.2-3.63,1.95-4.44,4.98-4.23,3.61,3.4,3.45,10.37-.49,13.2a47.635,47.635,0,0,0-10.38,9.61,10.3,10.3,0,0,1-1.92,1.69,4.457,4.457,0,0,1-4.93.36c-1.48-1.84-1.07-3.83-.44-5.83Z" fill="#fff"/>
    <path id="Path_3492" data-name="Path 3492" d="M108.78,197.92c.07,1.78,0,3.59,1.13,5.14a2.338,2.338,0,0,0,.79.53c2.23.53,4.34,1.5,3.2,4.18-1.53,3.59-3.31-.05-5-.16-.32.1-.63.19-.95.28-1.41-3.46-.68-6.75.83-9.97Z" fill="#fff"/>
    <path id="Path_3493" data-name="Path 3493" d="M127.45,179.92c-4.39-.33-4.16,5.39-7.84,6,1.32-1.64,2.61-3.27-.83-3.9.98-.98,1.11-1.98.04-2.99.99-.01,1.98-.03,2.97-.04,2.12-1.15,4.17-1.87,5.65.93Z" fill="#fff"/>
    <path id="Path_3494" data-name="Path 3494" d="M127.45,179.92c-1.76-1.08-3.8-.4-5.65-.93q0-.42-.03-.84c1.97-1.14,3.99-.84,6.02-.2a4.863,4.863,0,0,0,.85.14,2.492,2.492,0,0,1,1.65,2.74c-.17,9.43.15,18.86-.09,28.29a1.7,1.7,0,0,1-.78,1.19c-2.86.56-2.71-1.63-2.99-3.36a29.174,29.174,0,0,1-.11-2.96c-.08-1.45.32-3.27-1.2-4.05-1.85-.95-2.96.83-4.21,1.81a7.762,7.762,0,0,1-2.4,1.72c-1.72-.24-4.84,1.54-3.83-2.64a18.056,18.056,0,0,1,7.66-7.37c6.34-3,6.27-7.94,5.1-13.51Z" fill="#fff"/>
    <path id="Path_3495" data-name="Path 3495" d="M128.68,214.05c.09.61.17,1.22.26,1.83-2.36,3.81-5.73,3.55-9.13,1.96a29.579,29.579,0,0,1-8.03-4.85c-.77-4.3,2.52-3.07,4.66-3.42C120.15,212.07,125.22,210.88,128.68,214.05Z" fill="#fff"/>
    <path id="Path_3496" data-name="Path 3496" d="M116.78,210.99c-1.92.03-3.99-.3-5,2-2.14-1.16-1.68-3.71-2.88-5.38,1.09-.86,2.91,1.33,3.47-.52.57-1.87-2.16-2.34-2.46-4.04,1.28-.37,2.57-.75,3.85-1.12,1.82,2.29,1.61,5.52,3.58,7.75a1.763,1.763,0,0,1-.57,1.31Z" fill="#fff"/>
    <path id="Path_3497" data-name="Path 3497" d="M116.6,210.1c-3.61-1.8-2.66-5.17-2.83-8.16.31-.38.62-.75.93-1.13.94,2.03,2.1.64,3.19.21,2.98,2.97.68,6.05.19,9.09a1.149,1.149,0,0,1-1.48,0Z" fill="#fff"/>
    <path id="Path_3498" data-name="Path 3498" d="M118.12,209.78c-1.79-2.88-1.45-5.81-.24-8.77,2.32-1.87,4.59-3.82,6.99-5.58,2.15-1.58,3.85-1.38,3.8,1.76-.06,4.29.64,8.64-.78,12.85l-.08-.06c-3.3,3.28-6.5,1.85-9.69-.2Z" fill="#fff"/>
    <path id="Path_3499" data-name="Path 3499" d="M118.12,209.78c3.23.07,6.46.13,9.69.2.29,1.36.57,2.71.86,4.07-4.14-.35-8.63.68-11.9-3.06q-.075-.45-.18-.9c.51-.1,1.01-.21,1.52-.31Z" fill="#fff"/>
  </g>
  <g id="Group_311" data-name="Group 311" transform="translate(18.331 13.585)" opacity="0.57">
    <path id="Path_3359-2" data-name="Path 3359" d="M55.83,150.99c1.65-2.02,3.29-4.04,4.94-6.06a24.139,24.139,0,0,0,3.15-2.42c2.25-1.57,4.44-2.8,5.45,1.38.81,3.36,3.61,4.19,6.5,4.35-1.49-.98-1.44-3-2.42-4.46-1.52-6.95-1.28-13.38,5.25-17.98,1.04-1.35,2.03-2.76,3.94-2.94,2.49-.54,4.71-2.07,7.42-1.86,1.87.14,3.58.24,4.11,2.47-2.46,3.65.91,6.83.84,10.29-.73,1.7-2.59,2.06-3.77,3.23a8.533,8.533,0,0,1-1.18,1.79c-2.6,2.95-1.5,6.56-1.71,9.91-.16,2.45.09,4.92-.15,7.37a3.443,3.443,0,0,1-.58,1.33c-3.34.67-6.28,2.6-9.67,3.13-1.58.34-3.06,1.25-4.77.86-2.1-.63-3.68-2.75-6.22-2.15-.91.3-1.75,1.01-2.7.89-3.87-.48-.64,1.77-1.04,2.61-.49,2.63,1.89,4.05,2.64,6.17-1.68,4.2-2.05,4.26-7.16,1.02a11.363,11.363,0,0,1-4.82-6.5c-.06-4.26-.64-8.59,1.94-12.43Z" fill="#050505"/>
    <path id="Path_3360-2" data-name="Path 3360" d="M204.68,102.09c1,1.33,1.99,2.67,2.99,4,4.12,7.2,3.53,12.47-2.2,17.69A15.02,15.02,0,0,0,201.7,129c-1.35,5.07-4.49,7.21-9.83,6.56-5.82-.7-11.78.93-17.55-.95-2.01-4.43-.96-9.07-.77-13.62.09-2.06,1.6-2.77,3.55-1.64,3.3,1.4,7.67-.08,10.14,3.66a6.934,6.934,0,0,0,1.07.8,4.112,4.112,0,0,0,1.83.65,3.649,3.649,0,0,0-.56-.09,9.137,9.137,0,0,1-5.3-5.28c-.03-2.38.54-4.3,3.38-4.5.89-.13,1.92.72,2.62-.44-.14-2.96-1.93-4.92-3.86-6.81-2.15-2.48-1.24-4.51.96-6.3,5.97-2.82,11.75-2.96,17.29,1.05Z" fill="#040404"/>
    <path id="Path_3361-2" data-name="Path 3361" d="M179.77,66.05a38.521,38.521,0,0,1,15.02,13.97,2.029,2.029,0,0,1,.32,2.01c-1.7,1.4-3.03.61-4.24-.74a13.155,13.155,0,0,1-.84-1.22,47.131,47.131,0,0,0-14.99-13.04c2.13.9,4.42,2.73,7.3,3.56a3.968,3.968,0,0,1,2.79,3.75c-.04,1.93-1.22,2.97-3.14,3.15-3.73-.9-5.94,1.08-7.65,4.03-3.35,2.82-9.1,2.37-14.02-1.06-1.05-2.11,1.05-3.6,1.12-5.53.08-2.32.34-4.72-3.23-3.06-1.83.85-3.9.26-5.69,1.11-4.6,4.38-7.24,9.38-5.7,16,.56,2.41-.63,3.77-3.24,3.59-2.33-1.18-1.79-3.3-1.69-5.26.2-3.77,1.88-7.71-1.26-11.1a5.353,5.353,0,0,1-.13-2.42c2.04-6.59,8.48-10.73,17.97-11.21,7.32-.37,14.6-.13,21.3,3.46Z" fill="#0b0b0b"/>
    <path id="Path_3362-2" data-name="Path 3362" d="M238.76,155.97c3.54,6.51,2.75,13.89-2.13,19.92-.25.21-.51.43-.77.64-7.42,5.78-10.91,4.95-15.44-3.66-.37-3.79-.17-7.45,2.12-10.69,1.99-3.08,4.97-2.5,8.1-1.92-1.28-2.78-5.59-4-4.08-7.44,1.29-2.93,4.57-1.62,7.08-1.73a17.424,17.424,0,0,1,5.11,4.9Z" fill="#040404"/>
    <path id="Path_3363-2" data-name="Path 3363" d="M213.84,224.09c-1.26,3.84-4.31,6.2-7.17,8.73-6.64,4.85-14.54,6.23-22.26,8.09-2.21-.54-6.02,2.24-5.98-2.9,1.22-2.76,4.52-2.42,6.37-4.24,3.56-2.09,8.14-2.03,11.18-5.25,2.49-1.93,5.63-2.67,8.03-4.92,3.38-3.16,4.06-7.31,5.22-11.35.51-1.61,1.17-3.49,3.06-3.33,1.84.16,1.4,2.33,1.89,3.64a15.131,15.131,0,0,1-.32,11.54Z" fill="#080808"/>
    <path id="Path_3364-2" data-name="Path 3364" d="M179.79,238.02c.66,3.44,3.54,1.25,5.24,2.08-2.59,2.48-6.18,2.25-9.28,3.2a45.7,45.7,0,0,0-9.07,3.56l-10.74,6.2c-2.87.7-3.65,5.22-7.51,4.1-1.49-1.91-.16-3.39.73-4.94.66-1.11,1.27-2.26,2.58-2.75,3.94-3.37,8.57-5.63,13.1-8.04,3.38-1.15,6.9-1.81,10.09-3.6,1.4-.79,3.34-1.82,4.87.2Z" fill="#1a1a1a"/>
    <path id="Path_3365-2" data-name="Path 3365" d="M179.77,66.05c-8.31-2.03-16.46-4.37-25.28-2.18-6.08,1.51-10.75,3.92-12.57,10.26-3.69,3.03-3.77-1.42-5.45-2.59-2.14-2.99-5.12-1.64-7.81-1.44-2.12.16-4.06,1.33-6.24,1.33a2.244,2.244,0,0,1-1.58-1.35c6.15-5.41,13.45-6.02,21.01-4.58a8.459,8.459,0,0,0,5.55-.68c9.72-4.24,19.66-3.84,29.59-.75,1.03.32,1.86,1.31,2.78,1.99Z" fill="#989898"/>
    <path id="Path_3366-2" data-name="Path 3366" d="M105.91,94.11c.61-.72,1.21-1.44,1.82-2.17a1.287,1.287,0,0,1,1.44-.11,3.148,3.148,0,0,1,1.1,2.68c-.3,3.61.72,6.99,1.79,10.37a6.48,6.48,0,0,0,3.69,7.19c1.25,6.78,1.1,7.04-6.32,10.51-.33-.07-.8-.13-.89-.37-3.62-9.11-8.18-18.14-2.63-28.1Z" fill="#121212"/>
    <path id="Path_3367-2" data-name="Path 3367" d="M194.65,82.01c.05-.66.09-1.33.14-1.99,3.94,5.03,6.62,10.68,7.12,17.06.19,2.37,2.04,3.26,2.78,5.02-5.72-1.06-11.44-2.28-16.94.88a4.816,4.816,0,0,1-4.71.03c-2.53-3.26.04-4.26,2.37-5.37a5.261,5.261,0,0,0,2.78-.99c2.19-1.34,4.86-1.83,6.72-3.72.89-1.94-.27-3.48-.86-5.16-.69-1.96-1.81-4.07.6-5.75Z" fill="#6d6d6d"/>
    <path id="Path_3368-2" data-name="Path 3368" d="M155.81,242c1.97-1.63-1.3-4.88,1.91-6.12,8.29-1.66,15.8-5.47,23.54-8.61,1.52-.62,2.9-1.6,4.6-1.74a9.145,9.145,0,0,1,2.28.13,3.355,3.355,0,0,1,2.26,1.97c.37,2.41-1.46,3.14-3.12,3.77a17.154,17.154,0,0,0-5.63,3.85c-.47.17-.96.34-1.44.5-7.03.76-13.2,4.02-19.54,6.78-1.59.69-3.02,2.39-4.97.78a1.017,1.017,0,0,1,.1-1.31Z" fill="#6e6e6e"/>
    <path id="Path_3369-2" data-name="Path 3369" d="M212.94,193.08c-2.62,2.16-7.3.11-8.89,4.35-2.92,3.81-7.05,1.5-10.61,2.08-2.42-.04-4.85.06-7.27-.16-1.46-.39-2.91-.81-3.8-2.19-.35-3.88,2.6-4.53,5.31-5.18,1.53-.36,3.19-.14,4.76-.46,1.63-.08,3.27-.04,4.91-.04,3.82.71,7.68,1.8,11.11-1.21a3.754,3.754,0,0,1,3.17.69,4.255,4.255,0,0,1,1.31,2.11Z" fill="#787878"/>
    <path id="Path_3370-2" data-name="Path 3370" d="M75.79,144.04a4.389,4.389,0,0,0,4.37,3.92c1.08.09,3.06-1.21,2.79,1.16a3.068,3.068,0,0,1-3.93,2.8c-4.47-1.29-9.52-1.98-11.1-7.55-.67-2.36-1.91-2.25-3.67-1.15a33.167,33.167,0,0,1-3.49,1.71c1.85-3.96,7.33-3.84,9.01-7.99,1.45.01,2.85.7,2.85,2.07.01,2.49,1.82,3.55,3.16,5.03Z" fill="#6f6f6f"/>
    <path id="Path_3371-2" data-name="Path 3371" d="M185.68,226.91c-7.92,4.43-16.78,6.69-24.85,10.76-2.12,1.07-2.56-.36-3.12-1.79,1.29-1.34,2.26-3.09,4.39-3.35,2.67-3.5,7.16-3.15,10.6-5,2.32-.69,4.63-1.39,6.94-2.13,1.46-.43,2.88-1.11,4.47-.75,1.06.38,1.98.86,1.57,2.25Z" fill="#151515"/>
    <path id="Path_3372-2" data-name="Path 3372" d="M105.91,94.11c-.48,4.05-3.33,8.12-1.91,11.97,1.98,5.39,1.68,11.61,5.72,16.24,5.08.4,6.24,4.45,7.65,8.26a2.594,2.594,0,0,1-2.34,1.83c-6.08-.79-10.02-4.85-13.83-9.11a1.943,1.943,0,0,1,.7-1.39c4.09.34,5.44-.91,3.69-5.14-2.36-5.69-4.09-11.63-2.13-17.89.54-1.71.83-3.6,2.45-4.78Z" fill="#9b9b9b"/>
    <path id="Path_3373-2" data-name="Path 3373" d="M200.76,127.02c.85-1.2,1.43-2.83,2.59-3.53,7.34-4.41,7-10.58,4.33-17.4,3.36,2.56,3.35,6.3,2.96,9.85-.32,2.84.42,3.67,3.22,3.98a21.921,21.921,0,0,1,10.84,4.34,1.126,1.126,0,0,1-.01,1.32c-1.85,1.82-3.66.56-5.48-.06-6.34-2.17-8.7-1.56-13.03,3.42-1.38,1.59-2.47,3.62-5.11,3.24-3.14-1.55-1.34-3.38-.3-5.17Z" fill="#8a8a8a"/>
    <path id="Path_3374-2" data-name="Path 3374" d="M111.85,88.02c-.81-2.79.88-5.26,1.03-7.93a2.083,2.083,0,0,1,1.96-.61c2.42,1.1.81,5.21,4.19,5.53.37.1.73.24,1.11.37,2.81-.41,5.16.37,5.86,3.28s-1.1,4.97-3.71,5.59c-3.61.85-2.43,5.51-5.67,6.43-4.36-1.13-4.79-4.75-5.29-8.33-.21-1.49.89-2.82.51-4.33Z" fill="#151515"/>
    <path id="Path_3375-2" data-name="Path 3375" d="M97.87,195.08c-13.05,2.28-19.2-.35-25.95-11.11,0-2.34-3.23-1.95-3.47-4.09,1.6-1.93,1.02-5.85,5.06-5.55,2.15.68,1.86,3.14,3.22,4.41,1.39,3.34,3.83,6.05,5.31,9.38,1.34,3.01,4.56,3.53,7.53,3.92,2.5.33,5.07.09,7.56.71a3.021,3.021,0,0,1,1.03.98,1.411,1.411,0,0,1-.27,1.34Z" fill="#4d4d4d"/>
    <path id="Path_3376-2" data-name="Path 3376" d="M154.78,230.95c-14.8,7.45-28.59,3.56-42.08-3.74a1.231,1.231,0,0,1,0-1.52c4.54-1.65,8.45,1.01,12.21,2.48,7.99,3.12,15.79,2.8,23.81.87,1.72-.41,3.4-1.53,5.21-.29a1.878,1.878,0,0,1,.86,2.2Z" fill="#777"/>
    <path id="Path_3377-2" data-name="Path 3377" d="M75.79,144.04c-3.77,2.13-5.6.98-5.34-3.29a6.345,6.345,0,0,0-.67-3.8c2.88-3.79,3.41-9.46,8.92-11.14-5.88,5.3-4.18,11.8-2.91,18.24Z" fill="#454545"/>
    <path id="Path_3378-2" data-name="Path 3378" d="M68.94,179.93c.93,1.4,3.38,1.67,2.98,4.04-5.96-7.04-14.1-12.03-18.94-20.13a1.518,1.518,0,0,1,1.98.05c.93,1.94,1.84,3.89,3.64,5.23a8.917,8.917,0,0,1,2.51,1.55c2.33,1.62,4.29,1.94,5.03-1.59.47-2.25,2-3.29,4.18-3.55,4.66.72,4.76.91,3.23,6.36-3.17,1.72-3.64,5.02-4.6,8.03Z" fill="#cfcfcf"/>
    <path id="Path_3379-2" data-name="Path 3379" d="M111.85,88.02c1.94,3.8.85,8.89,5,11.76,2.75-.83,3.87,1.41,5.42,2.86,2.04,2.55,3.36,5.01-.8,6.83-2.57.81-4.04-1.49-6.09-2.15a3.278,3.278,0,0,1-1.13-1.06c-1.81-4.73-2.94-9.74-5.75-14.07a1.335,1.335,0,0,1-.77-.25c.31-2.42,3.35-1.98,4.12-3.92Z" fill="#7f7f7f"/>
    <path id="Path_3380-2" data-name="Path 3380" d="M155.81,242c.07.39.15.78.22,1.17,2.85.58,4.61-2.44,7.35-2.23,1.02.32,1.92.72,1.46,2.07q-6.075,3.915-12.14,7.84c-2.91.95-3.94-1.35-5.3-3.07-.48-1.16-1.59-2.15-1.01-3.61,1.22-1.56,2.46-3.05,4.61-1.32-.06,1.98.79,2.17,2.24,1.12.87-.64,1.71-1.32,2.57-1.98Z" fill="#7b7b7b"/>
    <path id="Path_3381-2" data-name="Path 3381" d="M166.67,246.85c3.59-3.67,8.61-3.86,13.09-5.37,1.71-.58,3.5-.93,5.26-1.38a104.943,104.943,0,0,0,21.64-7.27c-4.89,5.51-11.99,6.14-18.41,7.99-7.17,2.07-14.51,3.58-21.58,6.04Z" fill="#a6a6a6"/>
    <path id="Path_3382-2" data-name="Path 3382" d="M224.59,125.35c.03-.36.06-.73.09-1.09,6.63,5.19,9.55,11.76,7.04,20.06-.75,2.5-.37,3.94,1.81,5.37,2.31,1.52,4.72,3.16,5.22,6.27l-4.88-4c-6.5-1.71-6.66-1.94-5.89-8.79.54-4.86,1.31-9.72-2.71-13.73a3.286,3.286,0,0,1-.7-4.1Z" fill="#969696"/>
    <path id="Path_3383-2" data-name="Path 3383" d="M221.97,172.92c4.88,7.23,5.38,7.33,14.66,2.96a5.729,5.729,0,0,1-3.49,3.24,15.5,15.5,0,0,0-7.32,6.02,4.367,4.367,0,0,1-1.33-.62c-3.16-3.11-6.81-5.96-6.03-11.19.94-2.14,2.15-1.89,3.51-.41Z" fill="#828282"/>
    <path id="Path_3384-2" data-name="Path 3384" d="M192.75,197.95l11.29-.51a10.5,10.5,0,0,1,5.9,4.19c.25.9,1.52,1.35,1.11,2.54-.69,1.2-2.15,1.71-2.98,1.15-4.17-2.83-8.93-1.31-13.35-2.15a4.639,4.639,0,0,1-2.01-1.3c-.79-1.32-1.06-2.62.05-3.91Z" fill="#0d0d0d"/>
    <path id="Path_3385-2" data-name="Path 3385" d="M154.78,230.95c-.47-.39-.94-.77-1.41-1.16.32-2.62,2.38-2.6,4.28-2.85,1.74-.23,3.46-.58,5.21-.69,3.31.3,6.47-1.54,9.83-.66.97.26,1.99.53,2.08,1.73.1,1.33-1.55.94-1.96,1.82-3.55,1.21-6.87,3.14-10.72,3.39-1.88-3.09-5.38,1.27-7.32-1.58Z" fill="#757575"/>
    <path id="Path_3386-2" data-name="Path 3386" d="M210.73,203.97c-.26-.78-.53-1.56-.79-2.34.58.27,1.32.4,1.7.84,4.27,4.96,5.4,16.37,2.2,21.63.22-4.4,1.24-8.87-1.29-13.23-.66,1-1.3,1.97-1.95,2.94-1.84-1.91-2.6-4.09-1.6-6.68a7.486,7.486,0,0,1,.78-2.05c.3-.38.62-.75.95-1.1Z" fill="#444"/>
    <path id="Path_3387-2" data-name="Path 3387" d="M97.87,195.08c0-.33,0-.66.02-.98.06-3.13-1.38-6.36.88-9.35,1.25-1.65,2.36-3.18,4.74-2.16a4.7,4.7,0,0,1,1.66,2.81c-.28,3.91,1.49,8.13-1.74,11.6a1.4,1.4,0,0,1-1.62-.02,4.965,4.965,0,0,0-3.94-1.89Z" fill="#7d7d7d"/>
    <path id="Path_3388-2" data-name="Path 3388" d="M146.7,244.92a3.026,3.026,0,0,1,2.02,2.06c-1.27,2.72,2.2,3.72,2.17,5.99a7.53,7.53,0,0,0-2.19,3.98,1.848,1.848,0,0,1-1.37.34c-1.59-.53-2.14-1.88-2.61-3.29a6.493,6.493,0,0,1-.04-7.25c1-.25.24-2.44,2.02-1.83Z" fill="#6e6e6e"/>
    <path id="Path_3389-2" data-name="Path 3389" d="M101.81,196.98c.37,0,.75.01,1.12.02a1.876,1.876,0,0,1,2.26-.28,4.251,4.251,0,0,1,.86,4.77c-.87,2.34-.28,4.44.02,6.64a2.915,2.915,0,0,1-3.48,2.5c-1.91-.43-.58-2.77-2.02-3.47-1.04-3.57.72-6.8,1.24-10.18Z" fill="#262626"/>
    <path id="Path_3390-2" data-name="Path 3390" d="M101.91,121.92c.01.31.03.62.05.92-1.15,2.57-4.5,1.44-5.95,3.53a4,4,0,0,1-2.27-.2,2.474,2.474,0,0,1-1.07-1.1c-.2-2.61-1.76-3.34-4.13-3-1.97.29-3.94.53-5.9.8,6.21-4.62,12.75-2.52,19.27-.95Z" fill="#515151"/>
    <path id="Path_3391-2" data-name="Path 3391" d="M144.72,254c1.42.5,2.62,1.22,2.92,2.86.2,1.27,1.54,1.37,2.2,2.15-.97,2.3-2.5,5.62-4.98,3.88-2.9-2.04-2.4-5.86-.14-8.9Z" fill="#c7c7c7"/>
    <path id="Path_3392-2" data-name="Path 3392" d="M100.57,207.15c.71.99,1.41,1.98,2.12,2.97,3.2,4.29,5.93,8.94,9.67,12.83.89.93.73,2.11.44,3.25-.03.33-.06.67-.09,1-8-4.29-11.06-11.57-12.13-20.05Z" fill="#7d7d7d"/>
    <path id="Path_3393-2" data-name="Path 3393" d="M149.83,259.02c-.15.07-.29.16-.45.22-1.35.55-2.47,3.31-4,1.34-1.36-1.77,1.1-2.66,2.24-3.71l1.06.09c3.06-.11,4.24-3.7,7.24-3.91q-3.045,2.985-6.1,5.97Z" fill="#575757"/>
    <path id="Path_3394-2" data-name="Path 3394" d="M54.96,163.9c-.66-.02-1.32-.04-1.98-.05-.03-4.5-1.78-9.39,2.85-12.85-.78,4.27-1.47,8.55-.88,12.91Z" fill="#7d7d7d"/>
    <path id="Path_3395-2" data-name="Path 3395" d="M225.77,184.04c.02.37.04.73.05,1.1-3.4,4.11-7.87,6.46-12.89,7.94l-2.43-.33a2.178,2.178,0,0,1,.62-2.26c3.96-2.64,8.3-4.62,12.38-7.05.71-.42,1.59.06,2.26.6Z" fill="#636363"/>
    <path id="Path_3396-2" data-name="Path 3396" d="M146.7,244.92c-.67.61-1.35,1.22-2.02,1.83.09-2.55,2.03-4.08,3.3-5.97.67-1,1.67-1.83,2.91-.98s.77,2.01.11,3.05a5.174,5.174,0,0,0-4.3,2.06Z" fill="#d2d2d2"/>
    <path id="Path_3397-2" data-name="Path 3397" d="M114.66,79.79l-1.78.3a24.176,24.176,0,0,1,7.96-10.02c.64-.01,1.28-.03,1.93-.04-.17,5.35-3.98,7.69-8.1,9.76Z" fill="#6a6a6a"/>
    <path id="Path_3398-2" data-name="Path 3398" d="M96.06,125.02c.8-3.88,3.7-2.08,5.9-2.18,5.29,1.15,8.09,6.12,12.72,8.28,2.36,1.38,2.15,3.51-.11,3.85a58.942,58.942,0,0,1-19.25-.09c-.84-.15-1.15-1.13-1.53-1.86-.13-2.68-6.46-4.48-1.13-7.94.34.04.69.07,1.03.11.8.15,1.73,2.45,2.35-.15Z" fill="#0c0c0c"/>
    <path id="Path_3399-2" data-name="Path 3399" d="M93.8,133c6.56,1.99,13.28.73,19.93.86,2.14.04,1.65-1.47.96-2.75.71-.39,1.41-.78,2.12-1.16l.55-.58q9.9-1,9.94-11.39c.01-3.98-.03-7.97.04-11.95.03-1.61-.31-3.41,1.61-4.35a1.8,1.8,0,0,1,1.58.62c1.64,9.55.62,19.15.55,28.72a4.257,4.257,0,0,1-4.03,4.32c-4.73.67-9.42,1.56-14.22,1.17-7-.57-13.99,1.43-21.01.15a5.644,5.644,0,0,1-2.29-.72,1.722,1.722,0,0,1-.65-1.65c1.61-.56,3.55.15,4.92-1.29Z" fill="#757575"/>
    <path id="Path_3400-2" data-name="Path 3400" d="M88.88,134.29c.06.38.13.77.19,1.15,3.11,2.28,2.49,5.99,2.12,8.67-1.09,7.85,1.23,15.37,1.25,23.06.39,2.17.49,4.23-2.07,5.23-3.45-.47-4.17-3.72-5.96-5.87-2.34-3.09-5.49-1.95-8.49-1.6-1.45.34-2.89.95-4.3-.12a3.12,3.12,0,0,1-.71-3.61,2.136,2.136,0,0,1,1.91-1.12l5-1.14c2.65-2.25,5.93-1.67,9.01-1.96h0c1.13-5.52.19-11.1.5-16.64.1-1.79-.34-3.61.37-5.36.39-.24.78-.47,1.17-.71Z" fill="#707070"/>
    <path id="Path_3401-2" data-name="Path 3401" d="M61.86,162.99a26.331,26.331,0,0,1-3.25-4.29c-1.12-2.28.47-3.91,2.28-4.74,2.71-1.23,1.99.99,2.47,2.54.99,3.15,1.69-.27,2.6-.36,1.32,1.44,2.78,2.78,3.2,4.81-.25,4.82-3.71,2.66-6.11,2.82a2.886,2.886,0,0,1-1.2-.77Z" fill="#222"/>
    <path id="Path_3402-2" data-name="Path 3402" d="M69.85,167.01a10.215,10.215,0,0,0-1.75,1.65c-3.64,5.69-4.24,5.73-9.5.46,1.24.45,2.47.96,3.73,1.32,1.24.35,2.01.03,1.54-1.49-.74-1.35-1.17-2.72-.27-4.16,2.56-.62,5.18-1.39,6.25,2.21Z" fill="#282828"/>
    <path id="Path_3403-2" data-name="Path 3403" d="M87.71,135c-.23,7.34.85,14.72-.88,22C87.15,149.67,85.88,142.27,87.71,135Z" fill="#2d2d2d"/>
    <path id="Path_3404-2" data-name="Path 3404" d="M67.51,161.22a8.867,8.867,0,0,1-1.54-5.09c3.27-.39,5.63.8,6.85,3.96-.35.32-.7.63-1.04.95-.94.89-1.98.5-3,.23a10.621,10.621,0,0,0-1.26-.05Z" fill="#484848"/>
    <path id="Path_3405-2" data-name="Path 3405" d="M86.83,157c-3,.65-6,1.31-9.01,1.96,1.44-1.97,4.25-2.5,5-5.2,2.12.44,1.86,3.35,4.01,3.24Z" fill="#2d2d2d"/>
    <path id="Path_3406-2" data-name="Path 3406" d="M63.87,164.96v4c-1.44-1.73-5.54-2.57-2.01-5.98h.99c.93.35,1.49.89,1.02,1.97Z" fill="#171717"/>
    <path id="Path_3407-2" data-name="Path 3407" d="M200.76,127.02c-.07,1.39-1.31,3.04.88,3.93,3.03.72,6.12.46,9.19.69,1.91.14,3.96,0,5.29,1.85,1.12,1.59,1.15,3.41,1.13,5.23-.15,11.68.57,23.35-.01,35.03-.11,2.15.74,4.84-2.43,5.74a2.467,2.467,0,0,1-1.6-.76,6.793,6.793,0,0,1-.84-5.06c1.64-8.41-.89-16.86.59-25.23a17.477,17.477,0,0,0,.07-5.45c-.59-4.19-2.44-5.99-6.68-5.51-9.79,1.11-19.4-2.09-29.17-1.02-1.58.17-3.48.06-3.53-2.4a1.132,1.132,0,0,1,1.53-.18c5.59,0,11.19-.15,16.78.02,3.79.11,6.95-.19,7.35-5,.05-.66.97-1.25,1.49-1.87Z" fill="#575757"/>
    <path id="Path_3408-2" data-name="Path 3408" d="M175.13,133.86c-.44.05-.87.09-1.31.14-3.06-.15-2.47-2.56-2.5-4.34-.1-5.73-.13-11.46.01-17.18a5.194,5.194,0,0,1,.38-1.6c.51-.99,1.53-1.31,2.42-1.8a3.14,3.14,0,0,1,2.69-.63,7.5,7.5,0,0,1,3.12,2.79c.73,3.02-.94,6-.17,9.03-.6,1.29-1.33,2.39-3.04,1.96-.82-.85-1.98-3.03-1.99.3-.01,3.77-.47,7.58.39,11.32Z" fill="#555"/>
    <path id="Path_3409-2" data-name="Path 3409" d="M188.74,117.04c-2.19-.89-2.87.35-3.12,2.21a2.016,2.016,0,0,1-2.19-1.46,21.631,21.631,0,0,0-.87-6.19c.18-1.79,1.59-2.87,2.49-4.25a3.182,3.182,0,0,1,2.78-.37c4.39,1.07,6.33,5.05,4.88,9.99-1.35-1.3-2.66-.35-3.98.08Z" fill="#1f1f1f"/>
    <path id="Path_3410-2" data-name="Path 3410" d="M183.73,112.02c1.67,1.56,1.34,3.44.87,5.35-1.53,1.79.02,2.75.98,3.95.83,1.04,2.25,1.95,1.26,3.65-2.54-.28-4.64-4.35-7.75-.75-.5.57-1.87-.89-2.35-1.98.69-.74,1.39-1.48,2.08-2.21,1-1.39-.39-2.94.13-4.19.85-2.03,1.23-5.04,4.79-3.81Z" fill="#202020"/>
    <path id="Path_3411-2" data-name="Path 3411" d="M186.84,124.97c-1.48-1.72-3.27-3.27-4.37-5.21-1.05-1.85-1.08-3.82,2.13-2.4l1.02,1.89a9.668,9.668,0,0,0,5.14,3.78c.68.45,1.56,1.16.91,1.84-1.1,1.15-2.58.85-3.92.16-.3-.02-.61-.03-.91-.06Z" fill="#828282"/>
    <path id="Path_3412-2" data-name="Path 3412" d="M187.75,125.03c1.3-.22,3.19.45,3.01-2,2.07.29,4.35-.52,6.15,1.09a1.077,1.077,0,0,1-.26,1.71c-2.15,1.49-4.48.55-6.72.27a7.785,7.785,0,0,1-2.19-1.07Z" fill="#6c6c6c"/>
    <path id="Path_3413-2" data-name="Path 3413" d="M187.83,106.98c-.69.35-1.38.7-2.06,1.05-1.83.42-3.22,3.05-5.53,1.12-1.46-2.71,1.12-4.19,1.89-6.23a2.427,2.427,0,0,1,1.46-.4l4.15.45c-1.33,1.37-.4,2.68.09,4Z" fill="#292929"/>
    <path id="Path_3414-2" data-name="Path 3414" d="M200.9,117.29a1.379,1.379,0,0,1-1.54,1.45c-1.05,0-1.95-.35-1.93-1.59a1.487,1.487,0,0,1,1.53-1.53,1.722,1.722,0,0,1,1.94,1.67Z" fill="#121212"/>
    <path id="Path_3415-2" data-name="Path 3415" d="M188.74,117.04c.45-1.35.83-3.06,2.52-3.03,1.8.03,1.29,1.79,1.46,2.95-1.31.78-2.63,1.12-3.98.08Z" fill="#373737"/>
    <path id="Path_3416-2" data-name="Path 3416" d="M196.43,109.6c-.91,0-1.7-.33-1.84-1.26-.18-1.22.63-1.8,1.76-1.81a1.471,1.471,0,0,1,1.62,1.48C198,108.98,197.35,109.46,196.43,109.6Z" fill="#313131"/>
    <path id="Path_3417-2" data-name="Path 3417" d="M188.8,98.21c-.66.3-1.33.6-1.99.9-.9.61-2.29.78-2.77.21-2.74-3.32-6.76-2.38-10.2-3.35a12.111,12.111,0,0,0-7.46-2.44c-2.1-.08-3.58-.81-3.5-3.2-.89-2.11-1.87-.47-2.22.18-1.47,2.77-3.87,3.19-6.61,3.01a7.7,7.7,0,0,1-4.36-1.5c-2.86-4.07-2.96-8.48-1.63-13.05.82-2.16,1.91-4.1,4.14-5.15,3.35.91,7.66.26,8.59,5.2,4.3.59,8.35,4.45,12.97,1.01,3.16-.28,4.2-4.58,7.77-4.08,2.49-1.14,2.46-3.28.36-3.96-4.75-1.53-8.13-6.94-15.35-3.83,3.32-3.24,3.36-3.38,5.95-2.62,8.34,2.43,15.73,6.27,20.23,14.22A15.125,15.125,0,0,0,194.66,82q2.565,6,5.12,12.01c1.23,2.97-1.07,2.36-2.57,2.51-2.86.29-6.01-.9-8.4,1.69Z" fill="#030303"/>
    <path id="Path_3418-2" data-name="Path 3418" d="M114.66,79.79c1.68-4.1,4.77-7.04,8.1-9.76,4.73-1.76,9.41-3.74,14.66-3.06,1.61.21,3.46-.09,3.56,2.35-2.75,2.7-1.3,6.33-2.14,9.43.36-1.47.6-3.05,2.76-2.74,1.47.29,4.51-1.01,3.36,2.26-1.61,4.56-.94,9.15-1.18,13.73-.66,3.06-2.9,2.54-5.04,2.21-1.46-.7-2.84-1.55-4.34-2.21-3.31-1.45-4.96-.49-5.2,3.07-1.22,9.57-.85,19.17-.9,28.77,0,1.44-.16,2.7-2.01,2.76-2.81-1.22-2.02-4.14-2.94-6.25a5.41,5.41,0,0,0-2.82-5.58c-1.73-1.65-3.75-3-4.93-5.21-.67-1.26-1.05-2.35.26-3.4,1.98-.24,3.15,1.65,4.94,1.9a1.654,1.654,0,0,0,2.76-.79,1.846,1.846,0,0,0-.69-2.58c-.9-.42-1.62-1.07-2.49-1.51-2.05-.23-2.28-2.35-3.54-3.39a5.2,5.2,0,0,0-.04-1.48c-1.44-4.45-1.44-7.72,4.83-6.47a1.988,1.988,0,0,0,2.27-1.54,2.212,2.212,0,0,0-1.72-2.64,19.933,19.933,0,0,0-3.38-.61h0c-3.67-1.11-4.29-3.96-4.14-7.25Z" fill="#050505"/>
    <path id="Path_3419-2" data-name="Path 3419" d="M138.73,92.47a4.893,4.893,0,0,0,5.06-.49c1.48-.68,1.6-1.99,1.38-3.33-1.14-7.14,1.62-12.79,6.61-17.62a1.534,1.534,0,0,1,.86-.43c2.3.02,4.78.7,4.54,3.26-.28,2.88-2.99.32-4.42,1.1-1.58.92-2.02,2.69-2.98,4.06-2.11,4.53-.87,9.26-.85,13.92a6.831,6.831,0,0,1-3.57,3.39,9.4,9.4,0,0,1-1.45.55c-2.3.36-4.54-.28-6.78-.62a4.332,4.332,0,0,0-4.67,1.86c-1.07,1.21-.84,3.33-2.76,3.92-.27,0-.55-.01-.82-.02-.08-3.14-2.52-5.6-2.49-8.77.48-1.72,2.18-2.41,3.16-3.71,1.75-2.31,4.74-1.67,5.3-.08.82,2.31,3.04,1.55,3.89,3Z" fill="#7b7b7b"/>
    <path id="Path_3420-2" data-name="Path 3420" d="M152.75,74.96c.61-1.34,3.47.25,3-1.98-.36-1.74-2.34-1.88-3.98-1.95,2.28-1.21,4.83-1.61,7.13-3.05,4.08-2.57,4.66-1.72,5.42,2.94.62,3.82.1,6.48-3.55,8.12q-4.02-2.04-8.03-4.08Z" fill="#3e3e3e"/>
    <path id="Path_3421-2" data-name="Path 3421" d="M141.61,76c-1.19,2.5-.78,5.17-.85,7.78-.03,1.18-.08,2.57-1.51,2.72-1.67.18-2.3-1.25-2.37-2.6-.25-5.3.19-10.45,4.11-14.6.72,1.53-3.13,3.94.93,4.82-.1.62-.21,1.24-.31,1.87Z" fill="#616161"/>
    <path id="Path_3422-2" data-name="Path 3422" d="M181.52,75.97c-1.5,3.44-3.32,6.25-7.76,4.08-.96-1.03-3.45-.69-3.22-2.47.31-2.37,2.56-1.08,3.99-1.38a11.747,11.747,0,0,0,3.1-1.21c1.65-.89,3.06-1.23,3.89.98Z" fill="#4a4a4a"/>
    <path id="Path_3423-2" data-name="Path 3423" d="M214.81,134c-2.98-.02-5.97-.11-8.95-.04-2.24.05-3.98-.38-4.23-3.02.31-.39.65-.76.92-1.17,5.99-9.18,10.18-10.34,19.8-5.5.74.37,1.49.72,2.24,1.08,5.85,5.37,7.67,12.06,5.45,19.49-1.26,4.21,2.03,5.06,3.85,7.13a12.819,12.819,0,0,1-6.66,1.5c2.93,2.24,6.02,3.3,6.34,6.56.21,2.14.51,4.49-2.04,5.48-2.52.98-2.68-.85-3.37-2.73-.84-2.31-2.38,0-3.63.14a4.405,4.405,0,0,1,2.43-4.47c.6-.3-.06.78-.12.11-.02-.25-.17-.27-.47-.1a11.229,11.229,0,0,0-4.96,5.53,3.413,3.413,0,0,1-3.69,2.5c-2.3-.79-1.42-2.75-1.43-4.23-.08-7.78-.02-15.56-.06-23.34,0-1.74.57-3.73-1.42-4.93Z" fill="#080808"/>
    <path id="Path_3424-2" data-name="Path 3424" d="M218.77,165c1.63-2.91,3.28-5.82,6.3-7.57,3.38-1.97,5.72-.63,7.35,2.47.55,1.04.78,2.42-.35,3.2-1.57,1.09-1.71-.59-2.41-1.42-2.43-2.87-3.87-1.01-5.14,1.25-3.13,2.75-2.76,6.4-2.55,10a1.862,1.862,0,0,0-2.36,1.33,1.635,1.635,0,0,1-1.63-.64,8.967,8.967,0,0,1,.79-8.61Z" fill="#767676"/>
    <path id="Path_3425-2" data-name="Path 3425" d="M210.9,206.87q-.15,3.465-.3,6.94c-1.44,8.05-6.35,13.18-13.7,16.24-1.31.58-2.58.87-3.65-.47-.5-1.07-.06-2.12.08-3.17.28-1.46,1.39-2.13,2.58-2.73,6.4-1.32,10.37-7.87,9.36-15.44,1.26-3.04,3.25-3,5.63-1.37Z" fill="#8a8a8a"/>
    <path id="Path_3426-2" data-name="Path 3426" d="M164.84,243.02l-2.08-1.08c.56-3.1,3.72-2.91,5.57-3.61,3.9-1.46,7.81-2.99,11.75-4.39l.33.05a4.824,4.824,0,0,1,3.15-1.1,3.054,3.054,0,0,1,2.42,2.14c-2.06.99-4.13,1.98-6.19,2.98q-7.47,2.5-14.95,5Z" fill="#6f6f6f"/>
    <path id="Path_3427-2" data-name="Path 3427" d="M185.98,235.04l-2.28-1.32c2.41-3.59,5.94-4.82,10.08-4.74,1.04.35,2.09.71,3.13,1.06-3.15,2.74-7.3,3.3-10.92,5Z" fill="#737373"/>
    <path id="Path_3428-2" data-name="Path 3428" d="M150.88,252.97c-3.46-1.01-5.43-2.56-2.16-6a10.234,10.234,0,0,1,3.98,3.88c-.6.71-1.21,1.41-1.81,2.12Z" fill="#6f6f6f"/>
    <path id="Path_3429-2" data-name="Path 3429" d="M124.87,119.02c1.26,2.2.84,4.62.94,6.97-2.81,1.55-5.49,3.43-8.9,3.41a1.155,1.155,0,0,0-.11.55c-2.52-2.4-5.53-4.33-7.08-7.63-.21-2.06-1.64-4.57,2.48-4.53,3.23.03,1.99-3.07,2.69-4.8,1.46-1.02,2.7-.02,4,.43,2.72,1.08,3.74,3.99,5.98,5.59Z" fill="#0c0c0c"/>
    <path id="Path_3430-2" data-name="Path 3430" d="M117.73,115.06c-.95-.69-1.89-1.38-2.84-2.07-3.21-1.55-.25,5.5-4.02,2.93-2.29-1.56-2.31-7.93-.25-10.78l.63-.42c3.42,2.85,6.38,6.04,7.78,10.4a.849.849,0,0,1-1.3-.07Z" fill="#3e3e3e"/>
    <path id="Path_3431-2" data-name="Path 3431" d="M108.5,92.2c5.02,2.84,5.16,8.43,7.3,12.9-1.73,1.39-3.05.82-3.98-.95a13.178,13.178,0,0,0-1.97-3.36c.17-2.04-1.92-3.62-1.16-5.78-.06-.94-.13-1.87-.19-2.81Z" fill="#6a6a6a"/>
    <path id="Path_3432-2" data-name="Path 3432" d="M108.69,95c1.16,1.52,3.27,2.82,1.21,5.1,1.08,1.43,2.46,2.8,1.1,4.79l-.38.25a12.261,12.261,0,0,1-1.93-10.15Z" fill="#3c3c3c"/>
    <path id="Path_3433-2" data-name="Path 3433" d="M174.78,95c2.93-2.48,7.48-.21,10.25-3.51.44-.52,1.84.44,2.24,1.43a2.148,2.148,0,0,1-1.11,2.89c-.87.51-2.71.11-2.27,1.89.33,1.33,1.85,1.09,2.91,1.41-1.17,1.04-3.94.57-3.21,3.4a8.172,8.172,0,0,1-.71.49c-.94.73-1.53,1.97-2.92,2.08-5.31-.91-3.66,3.28-4.25,5.83-.12.73.04,1.81-.95,1.84-.97.02-.88-1.08-1.08-1.79-2.44-5.11-1.68-10.34-.57-15.59a1.321,1.321,0,0,1,1.68-.37Z" fill="#343434"/>
    <path id="Path_3434-2" data-name="Path 3434" d="M188.8,98.21c1.36-2.17,3.55-2.15,5.73-2.2,1.98-.04,4.07.18,5.24-2,1.63,2.66-.46,2.81-2.12,2.9a30.767,30.767,0,0,0-8.85,1.29Z" fill="#0b0b0b"/>
    <path id="Path_3435-2" data-name="Path 3435" d="M180.08,233.95c-3.2,3.87-8.35,3.6-12.36,5.76-1.59.86-3.3,1.5-4.96,2.24-2.32,0-3.93,3.88-6.74,1.23,5.97-3.89,12.76-5.93,19.28-8.61,1.53-.63,3.08-1.19,4.78-.62Z" fill="#474747"/>
    <path id="Path_3436-2" data-name="Path 3436" d="M185.68,226.91c-.66-.34-1.33-.68-1.99-1.02a1.689,1.689,0,0,1,.71-2.16c3.97-1.84,7.5-4.56,11.74-5.85,2.55.88,4.85,1.88,2.91,5.24-4.16.15-6.96,4.39-11.37,3.81-.67,0-1.33-.02-2-.02Z" fill="#3a3a3a"/>
    <path id="Path_3437-2" data-name="Path 3437" d="M193.77,228.98q-5.04,2.37-10.07,4.74c-1.09.09-2.18.19-3.28.28,1.96-3.76,6.64-3.38,9.29-6.09,1.48-1.57,2.98-3.02,5.24-1.2-.39.75-.78,1.51-1.18,2.26Z" fill="#373737"/>
    <path id="Path_3438-2" data-name="Path 3438" d="M194.95,226.71l-5.23,1.2c-.68-.33-1.35-.66-2.03-.99,2.15-1.4,4.28-2.84,6.46-4.19,1.15-.71,2.44-2.08,3.48.17.23,1-.36,1.58-1.07,2.1-.54.57-1.08,1.13-1.62,1.7Z" fill="#818181"/>
    <path id="Path_3439-2" data-name="Path 3439" d="M218.8,173.98a6.965,6.965,0,0,1,.81.26,12.214,12.214,0,0,0,4.59,6.17c1.27.96,2.28,1.88,1.57,3.63a43.241,43.241,0,0,1-15.26,8.71c-.42-.17-.85-.34-1.27-.51-3.48,1.11-5.73-1.36-8.35-2.8-2.52-2.07-5.12-4.04-7.72-6.02-2.75-2.09-2.46-3.11,1.14-4.87,6.04,0,12.08-.32,18.11.17,5.43,2.28,3.36-2.14,3.81-4.29.18-.87-.4-2.2.87-2.44,1.31-.25.94,1.46,1.69,1.98Z" fill="#070707"/>
    <path id="Path_3440-2" data-name="Path 3440" d="M192.77,193.04c-3.37,1.38-7.33,1.18-10.22,3.84-.94,3.28-3.83,4.07-6.46,4.01-3.24-.07-3.32-3.4-3.6-5.65a73.839,73.839,0,0,1-.11-13.3c.22-4.01,3.12-4.53,6.35-4.41,5.15.84,10.2,1.92,14.1,5.82C196.28,187.58,196.28,190.88,192.77,193.04Z" fill="#090909"/>
    <path id="Path_3441-2" data-name="Path 3441" d="M179.41,179.09c-4.05-.31-5.74,1.44-5.36,5.58.3,3.3-.04,6.65.18,9.96.34,5.19.92,5.48,5.59,3.45.91-.4,1.82-.8,2.74-1.19,1.07.36,2.14.73,3.21,1.09a5.7,5.7,0,0,1-.87,3.46c-2.49,2.32-6.37,3.12-7.52,6.91-.96,2.57-2.04,5.1-2.11,7.9-.04,1.51-.31,2.92-2.06,3.44a2.839,2.839,0,0,1-1.69-.29,3.24,3.24,0,0,1-1.05-1.43c-.16-.59-.34-1.17-.53-1.75,2.41-10.98.98-22.11,1.32-33.17.08-2.75.04-5.42,3.4-6.36,2.87.35,6.4-1.9,8.32,2.13-1.11,1.02-2.33.73-3.56.27Z" fill="#868686"/>
    <path id="Path_3442-2" data-name="Path 3442" d="M201.85,187.95c3.37-.13,4.37,3.81,7.39,4.29a12.93,12.93,0,0,1-11.48.67c-2.1-1.19-2.3-2.56-.38-4.11,1.35-.99,3.2.6,4.47-.85Z" fill="#151515"/>
    <path id="Path_3443-2" data-name="Path 3443" d="M198.88,189.92c-1.56.55-1.71,1.64-1.12,3l-4.99.12c.09-.14.29-.37.26-.4-1.97-2.35,0-5.31-1.19-7.77,4.22-.92,6.06,1.46,7.04,5.05Z" fill="#292929"/>
    <path id="Path_3444-2" data-name="Path 3444" d="M183.47,199.84c.76-.62,1.53-1.24,2.29-1.86,2.33,0,4.66-.02,6.99-.03.33,1.02.67,2.04,1,3.05-1.03,1.73-2.71,1.44-4.31,1.44C187.44,201.62,184.49,202.89,183.47,199.84Z" fill="#1a1a1a"/>
    <path id="Path_3445-2" data-name="Path 3445" d="M195.78,218.98c-3.57,3.1-8.14,4.46-12.08,6.91-1.26.4-2.52.79-3.78,1.19-1.06.5-2.59.81-3.01-.17-.87-2.06.72-3.46,2.14-4.74,5.43-1.94,10.27-5.07,15.34-7.76,2.3-1.56,4.09-1.66,4.7,1.63-.06,2.15-1.37,2.9-3.31,2.94Z" fill="#838383"/>
    <path id="Path_3446-2" data-name="Path 3446" d="M180.79,224.02c.14,1.14-4.38.94-.88,3.05-2.37.69-4.73,1.37-7.1,2.06,1.39-3.12-1.04-2.17-2.11-1.71a15.857,15.857,0,0,1-8.07,1.46c3.36-4.53,8.66-4.9,13.49-6.28,1.86-.53,3.57-.59,4.66,1.41Z" fill="#666"/>
    <path id="Path_3447-2" data-name="Path 3447" d="M118.81,87.04c.53,1.09,3.14,1.65,1.21,3.32a2.206,2.206,0,0,1-3.3-1.04c-.89-1.97.88-1.97,2.09-2.28h0Z" fill="#3e3e3e"/>
    <path id="Path_3448-2" data-name="Path 3448" d="M75.97,163.1c2.57-1.46,5.48-1.12,8.24-1.57,1.87-.3,3.26.39,3.61,2.46-1.2,3.15-1.03,6.12,1.16,8.82a3.262,3.262,0,0,1,.06,1.32c-.46,2.01-3.97,2.13-3.07,4.98,1.66,2.05,3.1,4.25,4.62,6.4,1.43,1.14,3.35,1.39,4.77,2.44,1.96,1.46,4.77,2.98,1.5,5.88-3.44.56-6.87,1.2-10.37.33-3.74-.93-6.84-2.57-7.82-6.71-.31-1.31-.79-2.68-2.15-3.17-2.97-1.07-2.16-3.25-1.75-5.35-.94-1.1.8-2.76-.76-3.74-2.39.83-1.88,4.75-5.06,4.74-2.88-3.7-1.94-6.64,1.81-9.01,4.18-.97,2.68-5.75,5.23-7.82Z" fill="#070707"/>
    <path id="Path_3449-2" data-name="Path 3449" d="M96.84,193.83c.86-2.85-1.55-2.96-3.15-3.84-1.67-.92-3.25-2.03-4.86-3.06a3.549,3.549,0,0,0-.31-3.73,2.548,2.548,0,0,1,.5-3.89c4.03-2.81,8.59-1.91,12.94-1.58,3,.23,3.17,2.01.77,5.12-1.76,2.66-3.87,5.16-2.91,8.79.35,1.31-.98,1.88-1.94,2.46l-1.05-.27Z" fill="#0d0d0d"/>
    <path id="Path_3450-2" data-name="Path 3450" d="M73.99,175.19c.99-.78,2.44-2.55,3.2-1.43,1.66,2.45-1.54,3.43-2.44,5.17-4.03-.48-.09-2.58-.76-3.74Z" fill="#999"/>
    <path id="Path_3451-2" data-name="Path 3451" d="M180.79,224.02a138.809,138.809,0,0,0-18.15,4.87l-9.27.9c-9.55,4.05-19.1,4.98-28.94.77-3.79-1.62-7.95-2.39-11.65-4.35-5.13-4.25-9.77-8.81-10.1-16.08.35-1.01.97-1.53,2.09-1.14a2.5,2.5,0,0,1,2.06.64c4.8,7.9,12.42,9.74,20.91,9.72,10.11.58,20.23,0,30.35.1,4.7.04,9.37,1.99,14.1.25a2.644,2.644,0,0,0,2.38-2.19c1.22-2.27,3.41-3.34,5.54-4.51,3.88-1.99,7.78-3.68,12.13-1.36,1.43,1.07,4.16,1.4,2.36,4.26-3.78,4.11-8.91,5.94-13.82,8.13Z" fill="#030303"/>
    <path id="Path_3452-2" data-name="Path 3452" d="M75.97,163.1c.96,4.42-1.16,6.77-5.23,7.82.5-1.11,2.21-1.63,1.9-3.03-.34-1.52-1.89-.44-2.79-.88-1.99-.68-3.99-1.36-5.98-2.05-.34-.66-.68-1.31-1.02-1.97.6-3.1,3.91.93,4.66-1.77.15-.1.31-.2.46-.31,2.48-.43,2.56,2.16,3.93,3.13,1.36-.31,2.71-.63,4.07-.94Z" fill="#484848"/>
    <path id="Path_3453-2" data-name="Path 3453" d="M111,104.9a9.091,9.091,0,0,1-1.1-4.79c3.17.24,2.58,4.94,5.91,4.99.02.35.04.71.06,1.06.39,3.81,3.63,5.48,5.9,7.88-.28,2.46-1.74,1.41-2.98,1-3.03-3.04-5.98-6.15-7.79-10.13Z" fill="#919191"/>
    <path id="Path_3454-2" data-name="Path 3454" d="M120.39,103.17a6.552,6.552,0,0,1,.99-.03c1.47.18,1.63-3.17,3.48-1.44,1.44,1.34.45,3.11.03,4.66-.62,2.24-1.96,2.94-4.07,1.69,3.98-1.98,0-3.28-.42-4.88Z" fill="#151515"/>
    <path id="Path_3455-2" data-name="Path 3455" d="M188.77,200.98c1.66,0,3.33.01,4.99.02.58.03,1.16.07,1.74.1,1.73.7,3.22,2.03,5.39.49a3.728,3.728,0,0,1,4.1.54,1.7,1.7,0,0,1-.03,1.46c-2.86,1.71-4.09,5.83-8.26,5.62-2.13-1.61-4.69-2.2-7.12-3.14-2.8-1.07-4.32-2.8-.8-5.09Z" fill="#696969"/>
    <path id="Path_3456-2" data-name="Path 3456" d="M204.88,202.74c-2.9-1.82-6.81,2.05-9.39-1.65,5.57-1.66,10.3,1.15,15.24,2.87.01.32.02.64.02.96-2.71,1.3-5.35,2.42-5.87-2.18Z" fill="#1a1a1a"/>
    <path id="Path_3457-2" data-name="Path 3457" d="M204.88,202.74c1.39,2.24,3.63,2.21,5.87,2.18.05.65.1,1.3.15,1.94-2.17.07-3.94.66-4.2,3.22-.63,1.13-.51,2.7-1.96,3.36-2.99,1.33-4.18-.06-4.41-2.91-.3-3.44,2.53-5.04,4.27-7.28.1-.17.2-.35.29-.52Z" fill="#767676"/>
    <path id="Path_3458-2" data-name="Path 3458" d="M102.74,182.85c.66-2.34.36-3.72-2.66-3.7-3.86.03-7.65.05-11.16,1.92-4.21,2.38-6.53,1.38-7.18-3.12,1.45-2.15,4.04-2.63,6-4.04,4.22,1.69,8.65,1.68,13.1,1.65,2.8-.02,5.67-.08,7.67,2.47a3.858,3.858,0,0,1,.64,1.5,5.475,5.475,0,0,1-2.11,5.2,4.089,4.089,0,0,1-3.23.25c-.36-.71-.71-1.42-1.07-2.14Z" fill="#8b8b8b"/>
    <path id="Path_3459-2" data-name="Path 3459" d="M103.81,184.98c.67-.34,1.33-.67,2-1.01,1.36.71,1.95,1.89,1.32,3.24-1.12,2.4.22,4.22,1.14,6.18-.06,2.17-.67,3.85-3.32,3.65-.67-.02-1.34-.03-2.02-.05C104.21,193.06,103.32,188.97,103.81,184.98Z" fill="#0c0c0c"/>
    <path id="Path_3460-2" data-name="Path 3460" d="M104.95,197.04a8.082,8.082,0,0,0,1.82-4.06c-1.44-3.79,1.08-6,3.42-8.14a14.934,14.934,0,0,1,8.8-4.29c4.03.51,4.11,2.99,3.04,6.05-3.99,3.86-9.35,6.57-10.75,12.64-1.51,2.92-3.02,5.83-2.4,9.3-.72,1.15-1.52,2.12-3.09,1.42l-1.02-.99c-1.98-4.01.1-7.96.17-11.94Z" fill="#7d7d7d"/>
    <path id="Path_3461-2" data-name="Path 3461" d="M96.06,125.02c2.36,1.04,4.21,2.52,4.18,5.36,0,.39-1,1.19-1.32,1.09a7.432,7.432,0,0,1-4.98-4.86,7.567,7.567,0,0,1-.23-1.45l2.35-.15Z" fill="#2d2d2d"/>
    <path id="Path_3462-2" data-name="Path 3462" d="M116.91,129.41c.13-.1.33-.18.38-.32q2.47-6.5,8.52-3.1c2.21-1.15,1.95-3.25,1.92-5.19-.12-9.29.99-18.68-1.94-27.77a.691.691,0,0,1,1.09.04c.83,2.95,1.89,5.84,1.98,8.96q-.09,11.43-.19,22.86c-.06,7.55-2.54,9.04-9.61,5.75-.75-.35-1.44-.82-2.16-1.23Z" fill="#212121"/>
    <path id="Path_3463-2" data-name="Path 3463" d="M71.9,164.04c-2.43.36-3.09-1.5-3.93-3.13.1-.79-.08-1.87.88-2.1,1.74-.42,1.89,1.54,2.92,2.24a3.371,3.371,0,0,1,.13,3Z" fill="#b6b6b6"/>
    <path id="Path_3464-2" data-name="Path 3464" d="M89.79,171.93c-.62.41-1.24.81-1.85,1.22-2.73-3.02-1.56-6.08-.12-9.15A13.726,13.726,0,0,0,89.79,171.93Z" fill="#3c3c3c"/>
    <path id="Path_3465-2" data-name="Path 3465" d="M183.15,178.8c3.71,1.98,6.97-1.11,10.63-.9,6.62.38,13.28.06,19.93.03.04.38.08.75.12,1.13-.26.13-.53.25-.79.38-6.42.26-12.85-.26-19.27.28-2.18.96-1.17,1.72.11,2.6,2.69,1.84,5.32,3.76,7.98,5.64.47,1.13,2.45,2.22,1.29,3.3-1.58,1.46-2.79-.9-4.26-1.34q-3.525-2.52-7.04-5.05c-3.27-3.79-8.08-4.28-12.42-5.77,1.24-.1,2.49-.19,3.74-.29Z" fill="gray"/>
    <path id="Path_3466-2" data-name="Path 3466" d="M218.8,173.98c-3.01-1.49-1.8,1.2-2.02,2.18-.41,1.82,0,4.14-3.06,3.73-.71-.37-.68-.65.1-.85h0c1.59-.73,1.95-2.13,1.95-3.69.05-12.54.13-25.07.1-37.61,0-1.25-.7-2.5-1.07-3.75,2.3,1.38,1.91,3.69,1.92,5.8.04,6.98-.05,13.96.07,20.94.03,1.57-1.01,3.93,1.97,4.25.01,2.99.02,5.99.03,8.98Z" fill="#090909"/>
    <path id="Path_3467-2" data-name="Path 3467" d="M161.87,87.45a36.1,36.1,0,0,1,3.55-1.7c1.33-.49,3.12-1.47,3.79.54.64,1.94-1.31,2.28-2.67,2.79-.61.23-1.22.49-1.83.73-.61.95-2.39,2.16.22,2.64,1.9.35,3.9,0,5.85.11,1.55.08,3.46-.08,2.97,2.5q-.03,7.95-.06,15.9a6.838,6.838,0,0,1-.91.07q0-4.485-.02-8.96c-.03-7.86-.41-8.27-8.06-8.15" fill="#757575"/>
    <path id="Path_3468-2" data-name="Path 3468" d="M180.6,108.91c1.65-.73,3.15-2.33,5.17-.88.59,1.98-.59,3.06-2.04,3.99-3.53,1.51-2.64,5.73-4.92,8-1.94-2.97-.15-6.02-.19-9.03-.6-1.88,0-2.64,1.97-2.09Z" fill="#070707"/>
    <path id="Path_3469-2" data-name="Path 3469" d="M175.71,110.9c-1.06-1.65-.99-3.52-.88-5.33.1-1.75-.91-4.43.9-4.99,1.96-.61,3.2,1.76,4.11,3.54.59,2.68-.69,4.14-3.15,4.82-.33.66-.66,1.31-.98,1.97Z" fill="#0b0b0b"/>
    <path id="Path_3470-2" data-name="Path 3470" d="M176.69,108.94c1.05-1.61,2.1-3.21,3.15-4.82,1.01-.37,2.02-.74,3.03-1.12.21,2.34-1.55,3.92-2.28,5.9a2.759,2.759,0,0,0-1.97,2.09c-2.97,1.5-1.31-1.35-1.94-2.06Z" fill="#858585"/>
    <path id="Path_3471-2" data-name="Path 3471" d="M151.03,91.18c-.13,2.26-1.55,2.09-3.11,1.65-.3-4.73-1.05-9.52,1.85-13.82.09,4.09-1.78,8.38,1.26,12.16Z" fill="#222"/>
    <path id="Path_3472-2" data-name="Path 3472" d="M173.74,95.06c-2.12-3.44-5.57-2.02-8.55-2.34-.93-.1-2.24.23-2.44-1.02-.18-1.18,1.04-1.5,1.95-1.87.18,2.94,2.47,2.03,4.08,2.14,2.47.17,5.07-.09,6.01,3.04-.35.02-.7.04-1.05.05Z" fill="#131313"/>
    <path id="Path_3473-2" data-name="Path 3473" d="M126.89,93.07c-.36-.01-.73-.02-1.09-.04,4.11-7.43,5.83-7.5,12.93-.56-.96-.11-2.46.14-2.8-.38-3.74-5.67-6.25-1.2-9.04.97Z" fill="#151515"/>
    <path id="Path_3474-2" data-name="Path 3474" d="M118.8,115.03c.99-.33,1.99-.67,2.98-1a5.659,5.659,0,0,1,3.1,4.99c-3.52.74-4.29-3.48-7.14-3.96.35-.01.71-.02,1.07-.04Z" fill="#383838"/>
    <path id="Path_3475-2" data-name="Path 3475" d="M121.74,81.88c0,1.27-.95,1.61-1.93,1.75a1.7,1.7,0,0,1-2.16-1.41c-.17-1.22.75-1.71,1.81-1.76a2.076,2.076,0,0,1,2.28,1.42Z" fill="#343434"/>
    <path id="Path_3476-2" data-name="Path 3476" d="M127.43,75.38a2,2,0,0,1-1.69-2.14c.05-.92.57-1.66,1.56-1.57,1.21.12,1.56,1.13,1.61,2.17a1.3,1.3,0,0,1-1.49,1.54Z" fill="#202020"/>
    <path id="Path_3477-2" data-name="Path 3477" d="M226.03,135.33c-2.52,1.61-2.91,5-5.23,7.02-.7.61-1.48.37-1.87-.68-.68-1.81,3.31-7.97,5.31-8.09.95-.06,1.5.44,1.8,1.74Z" fill="#0e0e0e"/>
    <path id="Path_3478-2" data-name="Path 3478" d="M204.69,211.92a2.844,2.844,0,0,1,2.02-1.83c2.33,7.1-2.37,14.02-10.14,14.92.36-.7.71-1.4,1.07-2.1,1.98-2.54-.92-2.77-1.85-3.93l2.13-2.88a6.166,6.166,0,0,0,.64-1.22c.19-1.37-.8-3.16,1.06-3.94,1.9-.79,1.3,1.34,2.01,1.96C203.13,214.2,203.95,213.12,204.69,211.92Z" fill="#0d0d0d"/>
    <path id="Path_3479-2" data-name="Path 3479" d="M213.82,179.05c-.03.28-.06.57-.1.85q-9.975-.09-19.96-.19C200.4,178.11,207.13,179.26,213.82,179.05Z" fill="#575757"/>
    <path id="Path_3480-2" data-name="Path 3480" d="M188.77,200.98c-.93,2.3.5,2.61,2.28,3.29,2.01.77,5.32-.06,5.55,3.58a5.335,5.335,0,0,1-.33,1.42,3.108,3.108,0,0,1-3.37,2.16c-3.2-.59-6.38-1.89-9.58.23-1.27.84-3.21.91-2.58,3.19-1.06,2.69-3.99,1.93-5.85,3.15-1.13-4.01-.74-8.04-.18-12.08,2.19-3.08,5.83-4.08,8.77-6.08,1.75.42,3.97-1.31,5.29,1.14Z" fill="#0d0d0d"/>
    <path id="Path_3481-2" data-name="Path 3481" d="M172.8,220.06c-1.53.98-3.07,1.94-4.59,2.93-1.89,1.23-3.73,2.6-5.26-.49a2.245,2.245,0,0,0-1.49-1.16c-6.61-.29-13.36-1.25-19.77.39-2.51.64-3.95,1.34-6.47-.11-1.93-1.1-4.85-.46-7.34-.59-.38-3.04,2.25-2.39,3.79-3.09.55.01,1.1.03,1.64.05,4.35,1.51,8.86.99,13.31.94,7.79-.09,15.57.43,23.36-.07a2.939,2.939,0,0,1,1.61-.09l1.19.21c.58.35.59.71.03,1.09Z" fill="#363636"/>
    <path id="Path_3482-2" data-name="Path 3482" d="M172.8,220.06c0-.36-.02-.73-.03-1.09,2.44-4.09-.2-8.93,1.93-13.06q.09,6.045.18,12.08a3.542,3.542,0,0,1-2.08,2.07Z" fill="#3c3c3c"/>
    <path id="Path_3483-2" data-name="Path 3483" d="M192.84,209.85c1-.6,2-1.2,3.01-1.8,1.5,1.18,3.02,2.34,3.39,4.39-.13,1.16.44,2.41-.5,3.45-.27.08-.55.14-.82.2-.97-2.19-2.17-.61-3.3-.2-.35-1.59-1.88-1.97-2.94-2.84a3.384,3.384,0,0,1,1.16-3.2Z" fill="#4f4f4f"/>
    <path id="Path_3484-2" data-name="Path 3484" d="M81.75,177.95c1.3,3.55,3.81,4.33,7.18,3.12-.14,1.95,5.14,3.99-.1,5.86a6.647,6.647,0,0,0-4.76-4.29c-2.15-.55-3.83-2-2.32-4.68Z" fill="#494949"/>
    <path id="Path_3485-2" data-name="Path 3485" d="M131.85,219.04c-1.33.66-2.65,1.33-3.98,1.99a23.456,23.456,0,0,1-20.44-7.68c-.97-1.02-1.74-1.93-1.64-3.38.72-.69,1.43-1.39,2.15-2.08a2.5,2.5,0,0,1,1.24-.58c2.62.36,2.08,3.47,3.93,4.49,4.86,3.04,9.69,6.16,15.79,3.36,1.79.67,2.25,2.36,2.94,3.87Z" fill="#818181"/>
    <path id="Path_3486-2" data-name="Path 3486" d="M192.84,209.85c.5,1.39.43,2.57-1.16,3.2-4.05-1.85-7.57-.51-10.94,1.79-1.23-.11-2.93.69-3.49-.91-.63-1.81,1.26-1.94,2.34-2.51,4.21-2.26,8.56-3.4,13.25-1.57Z" fill="#7d7d7d"/>
    <path id="Path_3487-2" data-name="Path 3487" d="M198.64,211.76c-1.9-.51-2.59-1.93-2.8-3.71a3.213,3.213,0,0,1,.75-.21c2.79-1.33,4.56-4.42,8.01-4.58-.11,2.68-1.63,4.74-3.01,6.86a8.848,8.848,0,0,0-2.96,1.63Z" fill="#969696"/>
    <path id="Path_3488-2" data-name="Path 3488" d="M198.64,211.76a2.4,2.4,0,0,1,2.96-1.63c.32,1.82,1.09,2.87,3.09,1.79-.26,1.23-1.4,2.75-2.14,2.09-3.22-2.84-2.71,1.01-3.81,1.88-.03-1.38-.06-2.75-.09-4.13Z" fill="#3f3f3f"/>
    <path id="Path_3489-2" data-name="Path 3489" d="M118.79,182.03a28.045,28.045,0,0,0-12.02,10.96c-3.98-2.61-1.1-5.96-.96-9.01-.22-1.77,1.17-2.67,2.08-3.82,3.26-1.93,7.09-1.31,10.55-2.34,2.83,1.18,3.82,2.51.34,4.21Z" fill="#090909"/>
    <path id="Path_3490-2" data-name="Path 3490" d="M118.83,179.04c-3.55,1.32-7.3.65-10.93,1.12-.02-.34-.04-.68-.06-1.03,1.59-1.45,3.73-1.17,5.59-1.77,2.71.36,5.48-.8,8.17.27a1.217,1.217,0,0,1,.33,1.47,2.781,2.781,0,0,1-3.09-.07Z" fill="#7d7d7d"/>
    <path id="Path_3491-2" data-name="Path 3491" d="M108.78,197.92a22.632,22.632,0,0,1,10.83-12c1.15-.62,2.42-1.19,2.34-2.8-.2-3.63,1.95-4.44,4.98-4.23,3.61,3.4,3.45,10.37-.49,13.2a47.635,47.635,0,0,0-10.38,9.61,10.3,10.3,0,0,1-1.92,1.69,4.457,4.457,0,0,1-4.93.36c-1.48-1.84-1.07-3.83-.44-5.83Z" fill="#090909"/>
    <path id="Path_3492-2" data-name="Path 3492" d="M108.78,197.92c.07,1.78,0,3.59,1.13,5.14a2.338,2.338,0,0,0,.79.53c2.23.53,4.34,1.5,3.2,4.18-1.53,3.59-3.31-.05-5-.16-.32.1-.63.19-.95.28-1.41-3.46-.68-6.75.83-9.97Z" fill="#1f1f1f"/>
    <path id="Path_3493-2" data-name="Path 3493" d="M127.45,179.92c-4.39-.33-4.16,5.39-7.84,6,1.32-1.64,2.61-3.27-.83-3.9.98-.98,1.11-1.98.04-2.99.99-.01,1.98-.03,2.97-.04,2.12-1.15,4.17-1.87,5.65.93Z" fill="#0c0c0c"/>
    <path id="Path_3494-2" data-name="Path 3494" d="M127.45,179.92c-1.76-1.08-3.8-.4-5.65-.93q0-.42-.03-.84c1.97-1.14,3.99-.84,6.02-.2a4.863,4.863,0,0,0,.85.14,2.492,2.492,0,0,1,1.65,2.74c-.17,9.43.15,18.86-.09,28.29a1.7,1.7,0,0,1-.78,1.19c-2.86.56-2.71-1.63-2.99-3.36a29.174,29.174,0,0,1-.11-2.96c-.08-1.45.32-3.27-1.2-4.05-1.85-.95-2.96.83-4.21,1.81a7.762,7.762,0,0,1-2.4,1.72c-1.72-.24-4.84,1.54-3.83-2.64a18.056,18.056,0,0,1,7.66-7.37c6.34-3,6.27-7.94,5.1-13.51Z" fill="#8a8a8a"/>
    <path id="Path_3495-2" data-name="Path 3495" d="M128.68,214.05c.09.61.17,1.22.26,1.83-2.36,3.81-5.73,3.55-9.13,1.96a29.579,29.579,0,0,1-8.03-4.85c-.77-4.3,2.52-3.07,4.66-3.42C120.15,212.07,125.22,210.88,128.68,214.05Z" fill="#141414"/>
    <path id="Path_3496-2" data-name="Path 3496" d="M116.78,210.99c-1.92.03-3.99-.3-5,2-2.14-1.16-1.68-3.71-2.88-5.38,1.09-.86,2.91,1.33,3.47-.52.57-1.87-2.16-2.34-2.46-4.04,1.28-.37,2.57-.75,3.85-1.12,1.82,2.29,1.61,5.52,3.58,7.75a1.763,1.763,0,0,1-.57,1.31Z" fill="#3b3b3b"/>
    <path id="Path_3497-2" data-name="Path 3497" d="M116.6,210.1c-3.61-1.8-2.66-5.17-2.83-8.16.31-.38.62-.75.93-1.13.94,2.03,2.1.64,3.19.21,2.98,2.97.68,6.05.19,9.09a1.149,1.149,0,0,1-1.48,0Z" fill="#727272"/>
    <path id="Path_3498-2" data-name="Path 3498" d="M118.12,209.78c-1.79-2.88-1.45-5.81-.24-8.77,2.32-1.87,4.59-3.82,6.99-5.58,2.15-1.58,3.85-1.38,3.8,1.76-.06,4.29.64,8.64-.78,12.85l-.08-.06c-3.3,3.28-6.5,1.85-9.69-.2Z" fill="#141414"/>
    <path id="Path_3499-2" data-name="Path 3499" d="M118.12,209.78c3.23.07,6.46.13,9.69.2.29,1.36.57,2.71.86,4.07-4.14-.35-8.63.68-11.9-3.06q-.075-.45-.18-.9c.51-.1,1.01-.21,1.52-.31Z" fill="#6a6a6a"/>
  </g>
</svg>
