<svg id="Component_247_1" data-name="Component 247 – 1" xmlns="http://www.w3.org/2000/svg" width="342.24" height="342.24" viewBox="0 0 342.24 342.24">
  <g id="Component_230_7" data-name="Component 230 – 7">
    <g id="Rectangle_3295" data-name="Rectangle 3295" transform="translate(171.12) rotate(45)" fill="#fff" stroke="#000" stroke-width="3">
      <rect width="242" height="242" stroke="none"/>
      <rect x="1.5" y="1.5" width="239" height="239" fill="none"/>
    </g>
    <g id="Rectangle_3296" data-name="Rectangle 3296" transform="translate(171.421 30) rotate(45)" stroke="#000" stroke-width="3">
      <rect width="200" height="200" stroke="none"/>
      <rect x="1.5" y="1.5" width="197" height="197" fill="none"/>
    </g>
  </g>
  <g id="Group_268" data-name="Group 268" transform="translate(10.115 17.53)">
    <path id="Path_3356" data-name="Path 3356" d="M208.44,94.47c8.02,11.47,15.91,22.75,23.93,34.2-7.47,2.42-10.64,1.5-14.41-3.61-3.04-4.12-6.16-8.18-9.21-12.23-7.83,5.41-10.55,11.4-6.81,15.79,1.92-2.46,3.77-4.82,6.26-7.99,8.21,11.76,16.04,22.97,23.9,34.24-5.63,2.78-10.19,1.84-13.66-2.61-3.4-4.37-6.78-8.77-10.17-13.15l-1.57.45c-.18,1.6-.75,3.27-.49,4.8,2.22,13.22.93,26.01-5.8,37.66-9.11,15.77-22.22,26.34-40.57,30.26-30.88,6.59-61.86-14.09-69.17-43.68-4.52-18.26-.32-34.76,11.03-49.78,19.1-25.27,55.56-29.44,79.62-12.78a41.174,41.174,0,0,1,7.94,6.81c2.7,3.16,4.07,2.15,5.95-.67,3.59-5.41,7.4-10.67,11.16-15.97a13.579,13.579,0,0,1,2.08-1.72Z" fill="#fff"/>
    <g id="Group_128" data-name="Group 128">
      <path id="Path_3357" data-name="Path 3357" d="M208.33,112.05l12.77,17.42h12.39l-25.36-36-25.35,36h12.77Z" fill="#fff" stroke="#707070" stroke-width="1"/>
      <path id="Path_3358" data-name="Path 3358" d="M182.78,156.96h12.77l12.78-17.42,12.77,17.42h12.39l-25.36-36Z" fill="#fff" stroke="#707070" stroke-width="1"/>
    </g>
  </g>
</svg>
