<svg id="Component_245_1" data-name="Component 245 – 1" xmlns="http://www.w3.org/2000/svg" width="342.24" height="342.24" viewBox="0 0 342.24 342.24">
  <g id="Component_230_12" data-name="Component 230 – 12">
    <g id="Rectangle_3295" data-name="Rectangle 3295" transform="translate(171.12) rotate(45)" fill="#fff" stroke="#000" stroke-width="3">
      <rect width="242" height="242" stroke="none"/>
      <rect x="1.5" y="1.5" width="239" height="239" fill="none"/>
    </g>
    <g id="Rectangle_3296" data-name="Rectangle 3296" transform="translate(171.421 30) rotate(45)" stroke="#000" stroke-width="3">
      <rect width="200" height="200" stroke="none"/>
      <rect x="1.5" y="1.5" width="197" height="197" fill="none"/>
    </g>
  </g>
  <g id="Layer_1-2" transform="translate(20.487 21.361)">
    <g id="Group_99" data-name="Group 99">
      <path id="Path_3092" data-name="Path 3092" d="M201.02,182.83c-4.12,5.07-7.76,9.1-10.81,13.54-1.05,1.53-.33,4.16-.92,6.14-2.24,7.62-8.46,11.68-14.59,15.75-2.63,1.75-5.46,3.25-7.82,5.3-.64.56-.38,3.05.32,4.06,1.46,2.13,3.87,3.64,5.21,5.83,2.6,4.24,1.2,8.59-2.92,10.49a8.408,8.408,0,0,1-11.16-4.14c-.82-1.69-3.08-4.07-4.33-3.87a9.578,9.578,0,0,0-5.6,3.96c-1.77,2.58-2.69,5.75-3.98,8.67-.47-.09-.94-.19-1.4-.28-.4-1.61-.8-3.23-1.27-5.13-4.81,1.69-9.99,3.33-12.88-2.18-3.59-6.85,2.39-10.49,7.08-15.44-2.97-2.41-5.51-4.93-8.46-6.79-6.9-4.35-12.69-9.37-15.9-17.29-2.61-6.44-6.38-12.42-9.63-18.61-.54.06-1.08.12-1.62.17-1.26,3.76-2.09,7.74-3.89,11.22a66.983,66.983,0,0,1-7.24,10.34c-1.67,2.12-3.68,1.51-4.87-.59-5.66-10.02-14.23-18.82-14.38-31.25-.08-6.21.56-12.63,5.27-17.38,3.19-3.22,4.12-6.41,2.17-10.5a11.547,11.547,0,0,1-.48-2.99c1.67-.59,3.12-1.11,5.39-1.92-1.77-1.54-3-2.6-5.14-4.47,2.04-2.11,3.99-4.13,5.69-5.89-.57-1.66-1.85-3.89-1.88-6.13-.01-1.1,2.3-2.23,3.78-3.55,1.78,2.42-3.39,8.92,4.09,5.41.84-.39,3.03,2.11,4.79,3.42,3.32-4.55,7.37-8.28,2.81-14.49-2.16-2.94-2.74-7.1-3.85-10.76-1.09-3.58-.56-6.58,2.48-9.42,5.93-5.52,11.44-11.48,18.21-18.36,0,5.24.19,8.93-.04,12.6-.55,9.05,4.11,15.85,9.41,22.36a84.269,84.269,0,0,0,5.92,6.04c11.71,11.78,36.22,11.34,47.24-3.39,3.46-4.62,7.92-8.97,9.74-14.21,2.04-5.89,1.63-12.63,2.25-19,.09-.95.01-1.91.01-3.6a17.887,17.887,0,0,1,3.01,1.91c5.31,5.29,10.78,10.45,15.71,16.07a10.368,10.368,0,0,1,2.34,7.4c-.62,4.2-1.74,8.7-4.01,12.18-3.97,6.09-.84,10.08,2.75,14.89,1.92-1.61,3.63-3.04,5.34-4.47.31.16.62.32.94.48-.76,1.73-1.52,3.47-2.33,5.32,4.53-1.32,5.47-2.77,6.76-9.31.96,1.4,3.01,3.14,2.7,4.14-1.48,4.68,6.54,10.25-2.5,14.52,2.56.97,4.21,1.59,6.09,2.3a16.393,16.393,0,0,1-.53,2.91c-1.41,3.7-1.41,6.49,1.51,10.17,7.07,8.9,8.34,19.14,2.94,29.52-3.29,6.33-7.1,12.39-10.73,18.53-1.83,3.09-3.59,3.26-6.74.9-5.46-4.09-6.69-10.02-8.5-15.84-.51-1.63-.97-3.27-1.57-5.29Zm-42.07-6.32q-8.07-10.5-17.8,2.06c-.34-1.27-.63-2.36-1.1-4.1-5.98,4.74-11.95,5.52-18.53,2.46-2.67-1.24-2.87,1.24-3.54,3.28-4.38,13.33,6.16,22.34,9.46,33.43.05.18.59.21,1.71.56.42-1.78,1.25-3.53,1.15-5.23-.29-5.08,2.42-8.79,7.67-8.95,8.48-.26,16.97-.24,25.45,0,5.42.15,8.1,3.85,7.72,9.38a34.54,34.54,0,0,0,.54,5.78l1.81.22c2.06-4.89,2.91-11.13,6.49-14.34,4.77-4.29,2.51-10.19,4.95-14.67.46.11.93.22,1.39.34v6.22l1.17.45c1.59-2.13,3.18-4.26,5.1-6.82-1.68-.35-2.76-.58-4.08-.85.58-1.02.77-1.8,1.26-2.13,4.2-2.82,2.88-7.08,2.67-10.87-.17-3.07-3.27-4.17-5.86-2.33a37.566,37.566,0,0,0-3.88,3.12c-6.97,6.48-10.71,6.95-19.12,2.64-.94-.48-2.46.16-4.65.36Zm-40.32-34.23c-1.25.48-1.77.9-2.13.79-4.66-1.36-5.77,2.67-7.02,5.33-.39.84,2.27,4.2,4.08,4.81,9.09,3.09,18.2,6.62,27.61,8.19,17.13,2.87,33.3-1.59,48.67-9.21,2.7-1.34,3.52-3.26,1.17-5.42a86.077,86.077,0,0,0-7.56-5.56c2.72-2.12,6.12-4.38,9.05-7.14a114.014,114.014,0,0,0,7.66-8.74c-33.53,28.06-66.04,27.83-99.45-2.05,3.87,9.37,11.95,12.97,17.91,18.99Zm49.3,72.05a84.086,84.086,0,0,1-6.32-5.99c-4.91-5.78-16.62-5.92-21.49-.33-2.02,2.32-4.61,4.13-7.1,6.32,3.02,7.57,8.61,12.84,17.9,12.55,8.74-.28,15.51-3.58,17.01-12.55ZM92.72,177.5c.68-.04,1.36-.09,2.04-.13.46-2.68,2.28-6.57,1.15-7.84-4.74-5.32-5.1-14.55-14.82-16.99.65,8.22.95,15.6,1.95,22.89.46,3.38,2.1,6.47-2.29,8.4-.55.24-.6,1.63-.88,2.49.99-.02,2.26.33,2.89-.15.65-.5.69-1.81,1.1-3.06,2.78,3.42,4.29,5.26,6.29,7.72,2.39-4.9,3.85-8.67.78-13.16-4.2-6.13-6.28-13.86-5.27-17.97,2.41,6.1,4.74,11.96,7.06,17.82Zm123.84-19.51c0,2.69.37,4.11-.06,5.22a130.484,130.484,0,0,1-6.41,15.03c-2.41,4.44-1.3,7.96.78,12.02,7.99-7.25,11.41-25.54,6.78-37.75a57.369,57.369,0,0,0-5.27,5.66c-1.91,2.69-3.18,5.84-5.19,8.43-3.13,4.04-3.19,6.31,1.28,11.49,2.62-6.51,5.06-12.56,8.1-20.11Zm-8.06-21.2c4.3,2.46,7.2,4.49,4.56,8.13-.94,1.3-3.23,1.62-4.9,2.39-.65-2.78-1.3-5.56-2.02-8.63a34.249,34.249,0,0,0-5.04,1.36c-1.47.6-3.97,2.12-3.83,2.64.74,2.68,2.28,7.39,3.34,7.34,4.94-.24,10.2-1.02,14.61-3.15,4.13-1.99.08-5.92.03-8.99-.02-1.07-1.06-2.83-1.9-3C212.29,134.66,210.96,135.74,208.5,136.79ZM95.83,139.07c-.78,3.23-1.17,5.68-2.14,7.88-.14.32-3.55-.06-4.61-1.03-4.14-3.76.15-6.24,2.57-9.68-1.86-.46-3.29-1.3-4.37-.97-2.31.7-3.28,10.98-1.03,11.86,4.24,1.66,8.71,3.24,13.19,3.62,4.35.37,3.72-4.34,4.72-7.06.3-.82-.81-2.92-1.7-3.25a38.734,38.734,0,0,0-6.63-1.39Zm18.74,54.88c.3-5.67.4-9.69.77-13.69.36-3.97,1.95-8.26-3.62-10.28-4.77,5.63-3.54,10.79,1.53,15.73-1.82.31-2.84.48-4.49.76,1.93,2.48,3.46,4.45,5.81,7.48Zm31.69,36.8c-6.08-2.69-9.85-.89-12.49,3.34-.87,1.39-.58,3.5-.83,5.28,1.97-.01,4.56.77,5.77-.19,2.73-2.18,4.77-5.21,7.54-8.42Zm9.05.41c2.59,2.94,4.49,5.88,7.13,7.8,1.42,1.03,4.11.3,6.23.37-.39-1.93-.27-4.19-1.27-5.72-2.62-3.98-6.23-5.8-12.09-2.46Zm47.93-65c.48.17.96.33,1.44.5,1.76-3,3.52-6,5.96-10.14l-10.01,1.92c.97,2.88,1.79,5.3,2.61,7.72Zm-76.96-4.66c-1.19,1.75-2.64,3.56-2.48,3.71a18.523,18.523,0,0,0,5.44,4.11c.58.24,2.24-2.15,3.4-3.33-1.91-1.34-3.81-2.69-6.36-4.49Zm-29.57,5.15c.61-.2,1.23-.4,1.84-.6.64-2.44,1.27-4.88,2.02-7.75-3.15-.5-5.74-.91-9.93-1.58,2.55,4.17,4.3,7.05,6.06,9.93Zm81.55-.89c-.1-.55-.21-1.11-.31-1.66-1.3-.46-2.89-1.63-3.84-1.24-1.99.83-3.65,2.47-5.44,3.78,1.35.96,2.96,2.94,3.98,2.67,2.04-.53,3.76-2.3,5.61-3.56Zm19.73-33.27c.34.52.68,1.05,1.02,1.57a29.976,29.976,0,0,0,5.01-3.52c.3-.3-1.15-2.32-2.06-4.05-1.69,2.56-2.83,4.28-3.96,6Zm-99.07-6.12c-.57,2.24-1.6,4.19-1.1,4.74,1.19,1.29,3.1,1.92,5.64,3.32-.39-1.98-.35-2.53-.59-2.87-1.01-1.43-2.11-2.8-3.95-5.19Z" fill="#fff"/>
      <path id="Path_3093" data-name="Path 3093" d="M176.43,90.42c-1.19,1.63-2.09,2.86-3.79,5.19-.89-9.51-8.32-7.79-13.32-9.84-.86-.35-2.23.8-3.41.95-3.02.38-6.87,1.9-8.93.62-6.3-3.91-10.92.67-16.08,2.14-1.03.29-1.4,2.91-2.4,5.21-1.23-1.46-2.17-2.59-3.48-4.15a35.076,35.076,0,0,0,4.7-2.69,11.393,11.393,0,0,0,1.94-2.87c-1.3-.03-2.87-.54-3.86,0-4.32,2.36-5.8,9.03-3.29,13.43a24.366,24.366,0,0,0,15.8,11.97c1.99.51,3.91,1.3,5.86,1.96-.13.6-.26,1.2-.38,1.79-2.5-.54-5.05-.93-7.5-1.64-7.78-2.27-13.62-6.8-16.47-14.65-.28-.77-.45-2.02-.96-2.2-6.89-2.36-2.25-5.37-.37-7.93,4.58-6.27,11.41-8.82,18.53-10.98,3.41-1.03,6.59-2.79,9.95-4.01a5.534,5.534,0,0,1,3.55-.05c4.28,1.59,8.38,3.75,12.73,5.06,7.1,2.15,12.99,5.84,17.36,11.84,1.69,2.32,3.17,4.6-1.16,6.06-1.01.34-1.6,2.27-2.17,3.57-3.84,8.76-15.34,15.72-24.9,13.82a61.272,61.272,0,0,0,6.63-2.68c4.54-2.58,9.54-4.73,13.32-8.18,6.42-5.88,4.03-14.64-1.03-17.52-.9-.51-2.3-.15-3.48-.2.47,1.05.67,2.42,1.47,3.08a33.733,33.733,0,0,0,5.15,2.91ZM155.55,78.05c1.29,4.92,6.25,7.44,11.67,4.91-3.77-1.59-7.55-3.17-11.67-4.91Zm-20.38,7.22,7.45-2.49c-.17-.48-.33-.96-.5-1.43-2.94-.46-6.04-1.34-6.95,3.93Z" fill="#fff"/>
      <path id="Path_3094" data-name="Path 3094" d="M239.91,164.73c8.81-6.33,19.89-1.09,20.18,8.82.05,1.82-2.72,3.73-4.19,5.59a35.036,35.036,0,0,1-3.18-4.06c-.46-.79-.27-1.95-.42-2.94-.93-6.42-2.17-7.4-8.81-7.16a33.519,33.519,0,0,1-3.59-.26Z" fill="#fff"/>
      <path id="Path_3095" data-name="Path 3095" d="M61.28,164.78c-1.49,0-2.99.07-4.48-.01-5.2-.28-7.19,1.42-7.68,6.63a6.848,6.848,0,0,1-.3,2.44c-.96,1.75-2.15,3.39-3.25,5.07-2.26-1.84-4.77-3.25-3.87-7.13,2.06-8.89,9.1-12.63,19.59-7Z" fill="#fff"/>
      <path id="Path_3096" data-name="Path 3096" d="M258.22,147.33c-9.95-4.4-18.54-1.24-27.35,5.39,2.93-6.71,10.11-10.75,18.94-11.65C253.43,140.7,255.13,141.81,258.22,147.33Z" fill="#fff"/>
      <path id="Path_3097" data-name="Path 3097" d="M105.2,208.48c-1.63,2.04-3.04,4.31-4.95,6.06a52.36,52.36,0,0,1-9.01,6.87c-1.06.61-3.24-.71-4.9-1.15.42-1.3.45-3.09,1.34-3.79,1.65-1.3,3.82-1.9,5.73-2.89,3.58-1.85,7.13-3.77,10.69-5.66.36.19.72.37,1.09.56Z" fill="#fff"/>
      <path id="Path_3098" data-name="Path 3098" d="M69.94,151.53c-8.11-4.78-16.03-9.52-25.94-3.76-.22-.71-.45-1.42-.67-2.12,2.13-1.55,4.39-4.58,6.36-4.4,7.89.71,15.72,2.34,20.25,10.28Z" fill="#fff"/>
      <path id="Path_3099" data-name="Path 3099" d="M196.88,208.53c4.68,2.19,9.44,4.33,14.11,6.65a17.641,17.641,0,0,1,4.66,3.36c.2.2-1.28,2.39-2.29,3.31a2.7,2.7,0,0,1-2.6.29c-4.51-3.85-8.92-7.82-13.25-11.86a2.889,2.889,0,0,1-.62-1.75Z" fill="#fff"/>
      <path id="Path_3100" data-name="Path 3100" d="M191.18,229.25c2.22,3.45,3.86,5.76,5.18,8.24a2.633,2.633,0,0,1-.94,2.41,3.246,3.246,0,0,1-2.95-.22c-2.39-2.43-3.68-5.29-1.28-10.43Z" fill="#fff"/>
      <path id="Path_3101" data-name="Path 3101" d="M170.39,101.84,158.14,89.59c.22-.23.43-.46.65-.7q6.255,6.03,12.51,12.05c-.3.3-.61.6-.91.9Z" fill="#fff"/>
      <path id="Path_3102" data-name="Path 3102" d="M110.07,229.62c2.55,4.58,1.29,7.42-1.17,9.84a2.327,2.327,0,0,1-3.64-2.75A81.052,81.052,0,0,1,110.07,229.62Z" fill="#fff"/>
      <path id="Path_3103" data-name="Path 3103" d="M141.83,90.24c-3.02,3.02-7.1,7.11-11.17,11.19l.26.23c4-4.18,7.99-8.36,10.92-11.42Z" fill="#fff"/>
      <path id="Path_3104" data-name="Path 3104" d="M238.89,127.83c-3.28,2.64-6.55,5.29-10.17,8.2C228.41,131.18,232.68,127.39,238.89,127.83Z" fill="#fff"/>
      <path id="Path_3105" data-name="Path 3105" d="M72.45,136.08c-3.5-2.93-6.7-5.6-10.46-8.75C67.91,126.84,73.05,131.23,72.45,136.08Z" fill="#fff"/>
      <path id="Path_3106" data-name="Path 3106" d="M156,254.46c.35-4.38.6-7.53.85-10.68.47,0,.94,0,1.4.01a78.1,78.1,0,0,1,1.67,8.49c.05.47-2.01,1.15-3.93,2.18Z" fill="#fff"/>
      <path id="Path_3107" data-name="Path 3107" d="M128.28,199.82c-.57-6.06,8.55-17.91,13.41-16.73-.77.82-1.37,1.48-2,2.12-2.58,2.64-1.99,5.19,1.47,6.33,9.22,3.05,9.94,3.04,19.05-.03,3.19-1.08,3.91-3.52,1.78-6.07-.66-.79-1.36-1.55-2.31-2.63,5.54-.26,14.33,11.6,12.47,18.34-.87-1.36-1.52-2.96-2.66-4.03-2.38-2.22-4.93-2.8-8.56-2.23-6.32.99-13.09,1.58-19.26.32-5.34-1.09-8.59.17-11.77,3.77a6.451,6.451,0,0,1-1.15.92c-.1.06-.31-.04-.47-.07Z" fill="#fff"/>
      <path id="Path_3108" data-name="Path 3108" d="M180.23,153.47c-.64-1.47-1.93-3.03-1.73-4.37a4.4,4.4,0,0,1,3.19-2.84c1.17-.05,2.42,1.6,3.63,2.5q-1.485,1.71-2.97,3.43c-.71.43-1.42.85-2.13,1.28Z" fill="#fff"/>
      <path id="Path_3109" data-name="Path 3109" d="M124.35,148.82c-2.22,1.4-3.52,2.88-4.7,2.79-1.28-.11-2.44-1.68-3.65-2.61,1.13-.98,2.19-2.64,3.39-2.76,1.24-.12,2.62,1.28,4.95,2.58Z" fill="#fff"/>
      <path id="Path_3110" data-name="Path 3110" d="M164.76,156.2c-1.5-1.63-2.4-2.61-3.3-3.6,1.39-.9,2.7-2.16,4.21-2.53.75-.18,1.89,1.31,2.86,2.05-1.11,1.2-2.22,2.4-3.77,4.07Z" fill="#fff"/>
      <path id="Path_3111" data-name="Path 3111" d="M141.65,152.37c-2.58,1.48-3.8,2.78-4.84,2.64-1.39-.19-2.64-1.48-3.95-2.29.92-.93,1.82-2.61,2.75-2.62,1.51-.02,3.03,1.06,6.04,2.28Z" fill="#fff"/>
      <path id="Path_3112" data-name="Path 3112" d="M161.4,212.73H141.76c.73-2.49,3.48-4.45,7.38-4.98C153.89,207.11,157.45,209.18,161.4,212.73Z" fill="#fff"/>
      <path id="Path_3113" data-name="Path 3113" d="M145.76,218.05c3.89-3.64,6.36-3.72,9.39,0Z" fill="#fff"/>
    </g>
    <path id="Path_3116" data-name="Path 3116" d="M142.26,46.87c-1.37-.56-4.3,2.3-5.64,5.39-1.83,4.21-.85,9.21.21,9.38.92.14,2.28-3.28,2.52-3.87.49-1.24.53-1.81,1.13-3.6.49-1.45.98-2.6,1.31-3.35a1.84,1.84,0,0,0,1.16-.66,2.5,2.5,0,0,0-.69-3.29Z" fill="#fff"/>
    <path id="Path_3117" data-name="Path 3117" d="M158.42,45.71c1.37-.56,4.3,2.3,5.64,5.39,1.83,4.21.85,9.21-.21,9.38-.92.14-2.28-3.28-2.52-3.87-.49-1.24-.53-1.81-1.13-3.6-.49-1.45-.98-2.6-1.31-3.35a1.84,1.84,0,0,1-1.16-.66,2.5,2.5,0,0,1,.69-3.29Z" fill="#fff"/>
  </g>
</svg>
