<svg id="Component_286_1" data-name="Component 286 – 1" xmlns="http://www.w3.org/2000/svg" width="340" height="340" viewBox="0 0 340 340">
  <g id="Component_223_11" data-name="Component 223 – 11">
    <g id="Ellipse_834" data-name="Ellipse 834" fill="#fff" stroke="#000" stroke-width="3">
      <circle cx="170" cy="170" r="170" stroke="none"/>
      <circle cx="170" cy="170" r="168.5" fill="none"/>
    </g>
    <circle id="Ellipse_835" data-name="Ellipse 835" cx="150" cy="150" r="150" transform="translate(20 20)"/>
  </g>
  <path id="Path_5562" data-name="Path 5562" d="M98.58,198.04c-1.61,2.42-3.22,4.83-5.62,8.43-.6-3.23-.97-5.2-1.23-6.61-3.46-2.35-6.61-4.48-11.26-7.64-6.87-.11-1.57-7.94-4.19-11.88-1.24.27-2.61.57-4.07.89.26-3.85.51-7.5.75-10.88-4.61-.4-8.67-1.07-12.73-1.03-5.73.06-9.15-3.25-12.32-7.29-2.67-3.39-5.33-6.8-8.22-10-3.11-3.45-3.36-6.63-.07-10.07,4.49-4.7,9.07-9.33,13.19-14.34,1.34-1.63,2.45-4.82,1.74-6.44a8.5,8.5,0,0,0-5.84-4.14c-5.99-.77-11.12-2.67-15.95-7.92,6.17-3.38,11.76-6.44,17.6-9.64-.6-1.76-1.14-3.37-2.12-6.28,2.67,1.79,4.29,2.87,6.16,4.13,2.73-4.48-1.23-10.89,5.98-14.86.94,1.92,2.04,4.15,3.13,6.38.55-.33,1.11-.67,1.66-1,.49-3.48.98-6.96,1.57-11.14,1.63,1.31,2.56,2.05,3.73,3,1.28-1.68,2.17-3.35,3.52-4.47a10.787,10.787,0,0,1,4.04-1.53c.74-.2,1.83.28,2.33-.1,2.89-2.19,5.53-5.21,9.18-.99.26.3,1.78-.5,2.72-.78,1.27-.38,3.17-1.48,3.72-1.01,4.27,3.66,8.37-.1,12.5.01,4.83.13,6.8,1.39,8.73,5.87,4.38-.46,8.8-.93,13.61-1.44.1,1.68.17,2.9.25,4.29,5.89,1.71,13.26,1.86,17.48,5.58,5.13,4.53,11.49,5.91,16.86,9.98-.31,1.26-.64,2.59-.94,3.82,4.63,1.99,9.01,3.87,13.66,5.87-2.35,5.32-.18,7.06,4.57,7.14,16.04.27,31.98-.6,47.48-4.97,5.96-1.68,6.25-4.78,1.29-8.6-3.93-3.03-8.01-5.86-12.37-9.03,3.88-3.9,1.06-5.38-2.34-5.34-6.78.09-9.97-5.28-14.6-8.98,1.27-.15,2.53-.3,3.81-.46-3.53-5.38-7.23-10.29-10.12-15.64-3.25-6.01,3.1-14.27,10.57-13.78a15.309,15.309,0,0,1-1.25,2.63c-3.96,5.39-3.45,10.32,1.74,14.18a5.279,5.279,0,0,0,3.6.67c2.37-.37,4.67-1.15,7.71-1.94,2.57-5.46,5.45-5.89,9.42.3,2.8,4.37,4.45,9.49,6.63,14.26.32.7.75,1.34,1.67,2.97,3.12-4.7,2.89-8.75,1.56-13.16a70.293,70.293,0,0,1-2.83-12.41c-.53-4.8,2.32-7.78,7.73-8.8a14.877,14.877,0,0,1-.35,2.81c-1.5,4.59-2.24,8.35,3.13,11.72,3.86,2.42,6.38,6.98,9.41,10.47,4.13-1.52,8.36-3.07,12.59-4.63.53.46,1.06.92,1.58,1.38-6.58,4.86-5.24,10.6-3.47,16,5.88-1.03,11.41-2,17.28-3.03-.09,3.51-2.65,4.35-5.37,5.17-5.49,1.65-7.64,4.44-7.35,9.85,3.18-3,6.14-5.81,9.1-8.61-9.88,30.31-32.85,44.86-61.54,52.61,3.64,2.9,21.47,1.48,29.98-3.46,8.82-5.12,16.87-11.57,25.69-17.75-4.93,10.51-11.94,18.99-21.48,24.93-9.39,5.85-19.35,10.78-28.86,16.63,6.97-2.7,13.84-5.71,20.95-8,4.93-1.59,10.21-2.08,15.29-3.26a6.96,6.96,0,0,0,3.75-2.09c4.91-6.27,9.63-12.69,14.43-19.04,1.11-1.47,2.31-2.87,4.28-5.29.16,2.21.48,3.07.22,3.68-3.16,7.33-6.22,14.71-9.69,21.89-3.66,7.54-8.41,9.87-16.86,9.07a4.212,4.212,0,0,0-2.41.28c-10.17,5.93-20.59,11.62-25.08,24.56,5.6-1.57,10.02-4.39,14.3-7.71a115.057,115.057,0,0,1,14.18-9.98c3.24-1.81,7.33-2.03,10.96-3.22,4.22-1.38,8.36-3.01,12.52-4.56,2.54-.95,5.07-1.94,7.6-2.91.34.4.68.79,1.02,1.19-.46.99-.64,2.38-1.42,2.9-5.05,3.43-10.34,6.53-15.3,10.09a6.85,6.85,0,0,0-2.39,4.74c-.25,7-1.31,8.63-7.77,10.94a29.683,29.683,0,0,0-6.28,2.99c-7.54,4.94-14.86,10.41-25.59,6.61,6.07,7.84,10.35,8.49,17.33,4.63,6.53-3.61,13.71-6.09,20.12-9.89,5.19-3.08,9.66-7.37,14.45-11.12a9.713,9.713,0,0,1,3.39-1.94c-2.91,7.3-7.19,13.6-13.68,18.02-3.54,2.41-7.79,3.77-11.43,6.06-4.85,3.06-9.27,6.82-14.17,9.79-2.26,1.37-5.22,1.58-8.45,2.48-.64,4.5-5.79,9.26-1.29,16.14,2.04-1.42,4.16-2.76,6.13-4.29,8.37-6.56,16.64-13.26,25.1-19.72,1.5-1.15,3.71-1.37,6.08-1.39-9.42,6.72-14.51,15.99-18.39,27.07,5.81-1.28,7.4-9.38,14.12-7.2-4.58,17.35-16.34,26.04-32.61,22.44-6.23-1.38-11.61-1.95-17.57-.04-3.42,1.09-4.91-1.73-6.34-4.33-1.65-3.01.7-3.94,2.22-5.68,1.51-1.72,2.99-4.03,3.2-6.2.42-4.28-.1-8.65-.13-12.98-.03-3.72-1.52-6.1-5.46-6.36-4.28-.29-4.17,2.8-3.82,5.9h-4.67l.93,1.17c-3.42,3.54-6.72,7.2-10.29,10.58-3.45,3.26-4.78,6.93-3.27,12.92,2.78-4.38,4.98-7.83,7.18-11.29.52.24,1.05.48,1.57.72-2.07,7.23-.09,13.77,2.11,20.62,2.81,8.73.25,12.01-8.51,12.21-6.64.15-11.08-1.56-14.05-7.75-1.69-3.52-4.96-6.25-6.91-9.69a33.052,33.052,0,0,1-3.1-9.03c-.39-1.71.47-3.68.22-5.45-.23-1.66-.95-4.38-1.87-4.57-1.54-.31-3.55.81-5.12,1.73a25.738,25.738,0,0,0-3.87,3.37c-.69-.79-1.05-1-1.1-1.27-.99-6.23-4.38-9.19-10.25-6.69-4.74,2.02-7.04-.44-10.18-2.18-1.13-.63-2.2-1.35-3.87-2.38-.45,10.62-9.64,16.18-12.85,25.32,8.68.65,8.09-10.24,15.59-11.74-1.61,3.9-2.26,7.92-4.54,10.48-5.21,5.87-8.96,13.69-18.13,15-5.62.8-6.56,1.63-8.66,5.37,4.81-.33,9.67-.38,14.43-1.06,5.06-.72,6.21-5.52,8.44-9.13a11.477,11.477,0,0,1,3.65-3.83c-1.8,8.11-2.84,16.46-11.48,20.71-6.07,2.99-11.58,7.64-17.94,9.4-6.7,1.85-14.1,1.31-21.2,1.37-1.38.01-3.13-1.83-3.98-3.25-.34-.57,1.06-2.65,2.11-3.48,4.25-3.37,9.32-5.94,12.84-9.92,3.15-3.57,5.08-8.44,6.81-13.02,3.57-9.43,5.46-19.04,2.13-29.14-.85-2.59-.06-5.69-.15-8.56-.12-3.68-.36-7.36-.54-11.04-.38-.22-.76-.45-1.14-.67ZM254.97,82.82c-.47,11.38-4.77,20.64-13.05,29.45,14.97-4.72,20.97-18.89,13.05-29.45ZM81.13,126.73c1.87-2.31,3.92-3.75,3.86-5.09-.06-1.36-2.22-3.65-3.46-3.65-1.37,0-3.62,1.99-3.85,3.39-.21,1.27,1.76,2.91,3.44,5.35Z" transform="translate(9.24 9.15)" fill="#fff"/>
</svg>
