<svg id="Component_226_1" data-name="Component 226 – 1" xmlns="http://www.w3.org/2000/svg" width="340" height="340" viewBox="0 0 340 340">
  <g id="Component_223_1" data-name="Component 223 – 1">
    <g id="Ellipse_834" data-name="Ellipse 834" fill="#fff" stroke="#000" stroke-width="3">
      <circle cx="170" cy="170" r="170" stroke="none"/>
      <circle cx="170" cy="170" r="168.5" fill="none"/>
    </g>
    <circle id="Ellipse_835" data-name="Ellipse 835" cx="150" cy="150" r="150" transform="translate(20 20)"/>
  </g>
  <g id="Group_250" data-name="Group 250" transform="translate(9.65 10.331)">
    <path id="Path_3118" data-name="Path 3118" d="M163.27,274.59c4.76-2.24,9.17-4.49,13.72-6.41,3.29-1.39,4.08-3.07,2.65-6.54-3.23-7.81-6.06-15.78-8.96-23.72q-9.345-25.53-18.59-51.09c-7.14-19.65-14.68-39.18-21.22-59.03a111.222,111.222,0,0,1-5.03-26.78c-.79-11.47,6.68-19.8,13.41-28.1,1.64-2.03,3.52-3.86,5.3-5.79.44.25.89.49,1.33.74.15,2.24.41,4.47.43,6.71.28,25.87,8.1,49.93,17.17,73.79,9.12,24.02,17.57,48.29,26.27,72.46q5.535,15.39,10.91,30.83c1.38,3.97,3.36,4.6,7.1,2.42a71.9,71.9,0,0,1,12.74-5.67c1.27-.44,3.17.91,4.78,1.43-.68,1.77-.85,4.4-2.12,5.14a144.045,144.045,0,0,1-13.53,6.37c-2.67,1.19-4.55,2.45-3.16,6.05.42,1.09-.91,3.81-2.11,4.38a120.221,120.221,0,0,1-14.38,5.66c-1.19.39-3.79-.2-4.08-.97-1.36-3.56-3.29-2.96-5.86-1.61-2.65,1.39-5.47,2.45-8.17,3.73q-5.83,2.76-8.6-3.99ZM143.37,75.65c-.47-.23-.95-.45-1.42-.68-6.19,7.97-13.03,16.11-11.9,27.02,1.13,10.81,2.9,21.86,6.55,32.04,12.41,34.64,25.76,68.95,38.78,103.37,2.94,7.77,5.85,15.56,9.03,23.23.47,1.13,2.32,1.69,3.53,2.51.42-1.24,1.51-2.72,1.17-3.69-4.18-11.83-8.62-23.56-12.9-35.35-12.7-34.96-25.5-69.88-37.95-104.93-4.55-12.82-4.88-25.74,2.35-38.03,1.04-1.76,1.85-3.66,2.76-5.49Z" fill="#fff"/>
    <path id="Path_3119" data-name="Path 3119" d="M119.39,49.98q-4.065,4.95-8.13,9.89c.14.24.29.48.43.71q4.125-2.28,8.26-4.56c.31.3.62.6.93.91-5.99,7.63-17.25,10.59-20.77,21.91a25.406,25.406,0,0,0,3.58-1.87c8.56-6.83,17.26-13.5,25.54-20.66,4.12-3.56,7.44-8.05,11.11-12.13,2.35-2.61,4.95-4.41,8.53-3.04-17.22,13.14-25.7,32.88-37.82,50.51-2.1-6.13,3.21-9.82,4.51-15.72-1.8,1.14-2.81,1.75-3.78,2.41-14.78,10-22.66,25.21-30.54,40.42-4.93,9.51-5.29,19.66-2.63,29.62,1.29,4.83,5.07,9,7.99,13.93a21.879,21.879,0,0,1-13.85-9.82c-1.58-2.49-2.36-5.48-3.69-8.15a29.976,29.976,0,0,0-3.05-4.01c-1.54,9.63,3.62,18.56,12.55,23.29,9.89,5.24,20.71,5.83,31.53,6.41,7.03.37,14.05.8,19.72,5.75a56.133,56.133,0,0,1,4.03,4.49c-1.86,0-2.6.23-3.06-.03-11.66-6.58-24.11-5.8-36.49-3.4-16.47,3.19-29.32-2.01-38.31-16.31-2.98-4.73-6.23-9.32-8.82-14.25-1.23-2.34-1.2-5.35-1.75-8.05.71-.31,1.42-.62,2.13-.92q4.6,6.36,9.21,12.71c.63-.28,1.25-.57,1.88-.85a59.845,59.845,0,0,0-1.08-7.95c-4.41-16.42.68-30.72,10.42-43.5A310.863,310.863,0,0,1,90.93,71.46c4.9-5.11,10.8-9.28,16.3-13.8,3.61-2.97,7.33-5.8,11-8.7.38.35.77.69,1.15,1.04ZM65.67,130.17c5.1-14.16,10.07-27.95,15.16-42.09C71.33,93.09,59.88,120.46,65.67,130.17Z" fill="#fff"/>
    <path id="Path_3120" data-name="Path 3120" d="M48.77,166.67c5.64,7.12,10.86,14.88,20.11,17,8.36,1.92,17.06,2.36,25.75,3.47-5.98,3.7-12.8,4.32-19.58,2.94-6.73-1.37-13.24-3.78-20.75-5.99a43.612,43.612,0,0,0,2.74,3.99c6.43,7.25,13.86,13.82,19.12,21.83,6.72,10.23,16.68,12.14,27.15,13.9a24.258,24.258,0,0,0,5.02-.2c.06-.41.12-.81.18-1.22q-7.14-2.745-14.29-5.5c.03-.87.05-1.74.08-2.61,16.37,7.21,27.85.55,36.9-13.03.44.61.88,1.21,1.32,1.82-1.47,2.59-2.95,5.17-4.41,7.77-2.97,5.3-5.87,10.64-8.9,15.91-4.31,7.47-11.45,10.48-19.88,8.6-10.21-2.28-20.43-4.51-31.97-7.05,6.9-5,12.62.73,19.58-.55-8.74-5.37-17.07-6.79-26.55-5.9,2.71-6.11,8.35-3.94,12.31-6.29-4.47-7.84-15.93-4.86-19.24-13.91,2.05.78,4.11,1.55,6.16,2.33.19-.21.38-.41.57-.62a31.381,31.381,0,0,1-4.04-3.35c-3.75-4.31-7.51-8.63-10.96-13.18-1.99-2.62-1.32-4.61,2.14-4.27-2.38-6.78-4.68-13.35-6.98-19.91.73-.34,1.45-.68,2.18-1.01q3.48,6.615,6.96,13.24c.37-.09.73-.19,1.1-.28-.6-2.63-1.21-5.27-1.81-7.9Z" fill="#fff"/>
    <path id="Path_3121" data-name="Path 3121" d="M214.28,82.89c5.36.39,9.64,1.73,13.19.66,3.65-1.09,6.6-4.53,10.01-7.07.73,5.51-1.76,10.93-6.55,11.98-5.57,1.22-11.43,1.36-17.17,1.44-6.46.09-12.71-.65-18.61,3.59-12.28,8.81-14.03,21.4-13.84,34.95.06,4.32.45,8.67.11,12.95-.51,6.39-4.09,10.57-9.37,11.77-.08-.29-.31-.79-.22-.86,6.73-5.24,5.92-12.57,6.11-19.96.36-13.91.86-27.87,2.5-41.66.83-6.98,4.03-13.9,11.45-17.07,2.21-.94,4.9-.76,7.1-1.71,3.94-1.7,7.68-3.87,11.52-5.82,1.18-.6,2.39-1.12,3.59-1.68l1.27,1.47q-4.5,5.475-8.99,10.95c.14.38.28.76.43,1.13,7.95-2.99,15.9-5.97,24.52-9.21-.52,4.85-3.8,6.54-6.74,8.36-3.02,1.87-6.2,3.49-10.32,5.78Z" fill="#fff"/>
    <path id="Path_3122" data-name="Path 3122" d="M255.56,169.34c4.66,1.79,9.32,3.58,13.83,5.31-.91-6.21-6.32-11.76-13.29-13.27-10.84-2.34-20.76,1.04-30.43,5.3-4.24,1.87-8.11,4.55-12.26,6.63a66.258,66.258,0,0,1-7.21,2.7c-.22-.4-.44-.81-.65-1.21a13.868,13.868,0,0,1,2.72-2.05c7.73-3.31,13.09-9.42,18.83-15.24,11.28-11.45,24.41-17.78,40.94-12.76,8.34,2.53,13.57,10.4,12.46,20.22-8.19-13.05-20-14.64-32.99-12.39-2.24.39-4.32,1.64-6.48,2.49.14.52.28,1.03.42,1.55a37.169,37.169,0,0,0,4.61-.25c16.5-2.87,28.17,4.75,30.81,21,.85,5.26-.18,10.89-.81,16.29-.16,1.39-2.32,2.44-3.13,3.88a19.669,19.669,0,0,0-1.65,4.94,18.643,18.643,0,0,1-1.89,5.8c-2.35-13.66-.11-28.76-15.49-37.22l1.66-1.75Z" fill="#fff"/>
    <path id="Path_3123" data-name="Path 3123" d="M155.24,104.02c4.26-9.86,2.66-19.83,1.75-29.97A58.863,58.863,0,0,1,158.96,54c1.98-7.41,8.4-10.87,15.81-12.48-4.81,4.57-11.61,7.33-13.18,15.47,4.7-3.63,8.65-7.63,13.39-10.08,4.69-2.42,10.15-4.02,15.64-1.46-5.44,3.06-12.06,3.65-15.51,10.08,2.54-.81,5.08-1.61,7.91-2.51,1.61,3.89,4.77,2.65,7.8,1.98,9.68-2.11,19.41-3.23,29.05-.13a16.162,16.162,0,0,1,7.13,5.3c-19.45-8.93-35.24-3.16-49.16,11.3l-1.04-1.22c1.68-3.01,3.35-6.03,5.91-10.63-2.8.93-4.69,1.06-5.89,2.03A34.411,34.411,0,0,0,164.6,81.09c-1.56,6.77-3.47,13.46-5.41,20.12-.39,1.35-1.63,2.44-2.47,3.66-.49-.28-.99-.56-1.48-.84Z" fill="#fff"/>
    <path id="Path_3124" data-name="Path 3124" d="M171.84,158.39c5.28-1.96,11.4-2.33,13.01-5.22,3.36-6.03,4.46-13.36,6.27-20.22,1.51-5.74,2-11.85,4.23-17.27,3.45-8.39,9.22-10.3,17.87-7.68a141.537,141.537,0,0,0,17.38,4.35c9.74,1.63,18.95.52,26.22-7.25a3.445,3.445,0,0,1,1.31-.61c.12-.05.31.06.46.09-1.32,5.87-8.89,11.75-15.26,11.71-6.16-.04-12.38-.85-18.44-.17-4.76.53-9.52,2.4-13.9,4.47-2.51,1.19-4.32,2.21-6.65.18-3.76-3.28-6.62-1.15-7.7,2.32a146.071,146.071,0,0,0-4.36,19.33c-1.28,7.7-3.44,14.2-11.65,17.58-3.63,1.5-5.41.3-8.78-1.61Z" fill="#fff"/>
    <path id="Path_3125" data-name="Path 3125" d="M116.55,269.61c4.21-6.14,8.03-11.71,11.85-17.29-.39-.56-.79-1.11-1.18-1.67-8.93,7.52-18.65,10.96-29.96,6.29,3.16-.52,6.3-1.1,9.47-1.55,12.99-1.85,20.45-10.64,25.23-21.62,3.07-7.05,4.21-14.94,6.23-22.45a5.523,5.523,0,0,1,2.29-3.43c.15,1.86.65,3.77.41,5.59-1.7,12.65-3.38,25.32-5.42,37.92-1.44,8.9-9.9,17.05-18.91,18.21Z" fill="#fff"/>
    <path id="Path_3126" data-name="Path 3126" d="M240.49,196.2c-.98-1.63-1.8-2.73-2.36-3.95-3.2-6.99-9.56-9.47-16.88-7.3-10.32,3.07-20.71,2.2-30.94-.78-1.08-.31-1.88-1.57-2.81-2.39l.63-1.08c4.32.69,8.66,1.27,12.96,2.09,8.79,1.67,17.18-.43,25.6-2.45a88,88,0,0,1,10.26-1.98c10.18-1.16,20.57,8.38,19.55,19.19-2.73-3.86-4.44-7.49-7.22-9.88-2.67-2.29-6.44-3.3-10.39-5.19,1.23,4.58,5.63,8.29,1.58,13.71Z" fill="#fff"/>
    <path id="Path_3127" data-name="Path 3127" d="M217.7,123.95c3.49,1,6.01,1.52,8.37,2.45A15.778,15.778,0,0,0,240,125.37c5.76-3.19,11.4-6.62,16.82-10.36,2.51-1.73,4.34-4.44,6.48-6.7.95-1.01,1.91-2.01,3.01-3.17,3.97,7.76-7.09,24.61-19.62,29.5l10.4-11.89-.66-.6c-6.27,3.29-12.26,7.39-18.89,9.63-6.84,2.32-16.58-1.82-19.85-7.84Z" fill="#fff"/>
    <path id="Path_3128" data-name="Path 3128" d="M202.1,99.22c3.13-.89,6.21-1.98,9.39-2.57a10.889,10.889,0,0,1,5.43.42c11.62,4.19,19.52-4.48,23.08-14.06.38-1.01.82-1.99,1.82-4.41.54,2.41,1.12,3.46.92,4.34a86.836,86.836,0,0,1-3.19,12c-2.35,6.09-8.81,9.56-15.53,8.62-3.75-.52-7.42-1.66-11.18-2.17-3.36-.45-6.78-.41-10.18-.58-.19-.53-.37-1.05-.56-1.58Z" fill="#fff"/>
    <path id="Path_3129" data-name="Path 3129" d="M98.83,105.42c-.91,4.02-1.44,8.19-2.81,12.05-5.87,16.48-3.35,28.93,13.92,40.06.38.24.61.72.64,2.36-2.13-.53-4.44-.7-6.37-1.65-11.11-5.46-17.06-16.07-14.75-28.39,1.58-8.48,4.83-16.65,7.33-24.95l2.05.52Z" fill="#fff"/>
    <path id="Path_3130" data-name="Path 3130" d="M71.22,236.09c3.72,1.12,7.54,2.01,11.15,3.41a29.917,29.917,0,0,0,20.48.38c1.22-.39,2.69-.02,4.04,0-.8,1.24-1.32,3.01-2.46,3.62a23.868,23.868,0,0,1-7.83,2.9c-8.24,1.1-15.62-1.98-22.75-5.64-1.34-.69-2.33-2.04-3.48-3.08.29-.53.57-1.06.86-1.59Z" fill="#fff"/>
    <path id="Path_3131" data-name="Path 3131" d="M235.61,104.64c8.7-3.57,14.9-9.47,18.2-18.29,3.08,5.05.33,9.01-1.65,12.56-3.24,5.79-9.68,5.87-14.95,7.99-.53-.75-1.07-1.5-1.6-2.25Z" fill="#fff"/>
    <path id="Path_3132" data-name="Path 3132" d="M154.12,251.11c3.22,8.22-.11,15.16-4.19,21.68-2.75,4.38-4.95,5.01-9.27,3.73,7.45-7.12,12.7-15.09,13.47-25.41Z" fill="#fff"/>
    <path id="Path_3133" data-name="Path 3133" d="M115.47,149.58c4.86,5.31,13.98,2.84,18.97,10.39C124.26,159.31,116.18,154.89,115.47,149.58Z" fill="#fff"/>
  </g>
</svg>
