<svg id="Component_258_1" data-name="Component 258 – 1" xmlns="http://www.w3.org/2000/svg" width="340" height="340" viewBox="0 0 340 340">
  <g id="Component_223_7" data-name="Component 223 – 7">
    <g id="Ellipse_834" data-name="Ellipse 834" fill="#fff" stroke="#000" stroke-width="3">
      <circle cx="170" cy="170" r="170" stroke="none"/>
      <circle cx="170" cy="170" r="168.5" fill="none"/>
    </g>
    <circle id="Ellipse_835" data-name="Ellipse 835" cx="150" cy="150" r="150" transform="translate(20 20)"/>
  </g>
  <g id="Layer_1-2" transform="translate(9.9 9.37)">
    <g id="Group_119" data-name="Group 119">
      <path id="Path_3270" data-name="Path 3270" d="M158.76,72.96c-3.74-2.12-6.9-3.74-9.89-5.64-3.93-2.5-7.42-5.89-11.62-7.69-9.88-4.23-10.86-12.95-12.16-21.71a1.917,1.917,0,0,1,.12-.98,7.107,7.107,0,0,1,.97-1.14q7.1,5.205,14.27,10.46c4.43,3.25,9.07,6.25,13.24,9.81,2.31,1.97,3.84,4.85,5.59,7.15,0-7.04-.09-15.05.09-23.05.03-1.33,1.19-2.64,1.83-3.96.8,1.34,2.21,2.65,2.3,4.04.29,4.65.07,9.32.13,13.99.02,1.56.28,3.12.49,5.36,11.38-8.3,22.04-16.07,32.87-23.97,1.79,7.56-2.03,17.48-7.67,21.26-5.8,3.89-11.45,7.99-17.28,11.85-2.29,1.52-4.86,2.61-7.9,4.22V87.97c8.96-6.25,17.69-12.33,27.42-19.11a38.871,38.871,0,0,1-.03,5.03c-2.49,15.11-4.95,30.24-7.69,45.31a10.448,10.448,0,0,1-3.53,5.62,112.2,112.2,0,0,1-10.69,7.33c-3.47,2.24-4.77,1.6-4.84-2.5-.12-6.82-.03-13.64-.65-20.47V152.6c3.08-7.4,10.1-9.37,16.15-13.73.93,5.5-.23,9.05-4.12,11.39-3.52,2.12-7.24,3.94-10.67,6.19a4.913,4.913,0,0,0-1.79,3.53c-.33,24.99-.83,49.98-.48,74.96.06,4.08,3.29,8.67,6.22,12.01,4.46,5.1,5.11,9.6,2.05,15.71-3.61,7.22-6.14,14.98-9.14,22.5l-1.59.21c-2.17-5.21-3.84-10.71-6.62-15.58-5.97-10.49-6.07-19.63,3.43-28.33,2.01-1.84,2.5-6.12,2.48-9.26-.31-46.14-.84-92.27-1.29-138.41-.07-7.27,0-14.54,0-20.8Z" fill="#fff"/>
      <path id="Path_3271" data-name="Path 3271" d="M132.52,69.44c7.98,5.74,16.06,11.35,23.85,17.33,1.26.97,1.76,3.56,1.77,5.41.1,12.3.02,24.6-.11,36.9-.05,4.75-1.29,5.34-5.27,2.83a3.7,3.7,0,0,0-.43-.25c-10.13-4.69-14.84-12.38-15.51-23.77-.62-10.55-3.32-20.98-5.04-31.47-.33-2.02-.39-4.08-.58-6.13.44-.28.88-.57,1.32-.85Z" fill="#fff"/>
      <path id="Path_3272" data-name="Path 3272" d="M232.86,241.74c-15.29,10.4-29.82,20.28-44.34,30.16-.44-.44-.88-.89-1.32-1.33,3.2-5.92,6.23-11.93,9.62-17.73q19.515-33.405,39.29-66.66c1.04-1.74,3.1-2.87,4.68-4.28-.31,2.05-.18,4.3-1.01,6.11-5.1,11-10.89,21.71-15.53,32.89-4.52,10.89-2.64,14.91,8.62,20.84Z" fill="#fff"/>
      <path id="Path_3273" data-name="Path 3273" d="M132.44,271.92Q110.6,257.025,88.8,242.17c.63-1.06.68-1.27.81-1.33,9.72-5.28,11.57-9.13,7.23-19.72-4.47-10.9-10.13-21.31-15.08-32.02-1-2.17-1.16-4.73-1.71-7.11,1.77,1.62,4.08,2.94,5.24,4.92q23.265,39.615,46.25,79.39c.81,1.39,1.44,2.87,2.16,4.31l-1.25,1.31Z" fill="#fff"/>
      <path id="Path_3274" data-name="Path 3274" d="M218.43,184.65q16.95-32.895,33.89-65.78c.62.19,1.25.39,1.87.58-.14,1.21.06,2.6-.46,3.62q-15.33,30.03-30.84,59.97a15.185,15.185,0,0,1-2.46,2.77c-.67-.39-1.33-.78-2-1.16Z" fill="#fff"/>
      <path id="Path_3275" data-name="Path 3275" d="M68.6,118.81q16.98,32.895,33.96,65.8c-.59.41-1.18.81-1.77,1.22a20.6,20.6,0,0,1-3.08-3.57q-15.135-29.19-30.09-58.47a32.912,32.912,0,0,1-1.39-3.83l2.37-1.14Z" fill="#fff"/>
      <path id="Path_3276" data-name="Path 3276" d="M199.44,167.81a36.506,36.506,0,0,1-1.12,4.44q-11.01,27.78-22.16,55.5c-.4.98-1.72,1.58-2.6,2.36-.24-1.27-1.04-2.76-.64-3.77q11.28-28.215,22.83-56.31a16.975,16.975,0,0,1,1.99-2.95l1.71.72Z" fill="#fff"/>
      <path id="Path_3277" data-name="Path 3277" d="M123.99,167.18q3.645,8.88,7.29,17.77c5.58,13.68,11.19,27.35,16.65,41.07.45,1.12-.1,2.63-.18,3.96-1-.78-2.52-1.36-2.94-2.38q-11.13-27.465-21.99-55.04a28.668,28.668,0,0,1-1.02-5.04c.73-.12,1.46-.23,2.19-.35Z" fill="#fff"/>
      <path id="Path_3278" data-name="Path 3278" d="M177.31,185.01c5.58-22.13,12.88-43.74,19.77-66.79C199.68,123.01,181.83,181.81,177.31,185.01Z" fill="#fff"/>
      <path id="Path_3279" data-name="Path 3279" d="M141.48,185.66q-10.125-32.55-20.25-65.11c.63-.29,1.27-.59,1.9-.88.76,1.15,1.83,2.2,2.23,3.46q9.03,28.785,17.87,57.62a22.9,22.9,0,0,1,.47,4.41c-.74.17-1.48.34-2.21.51Z" fill="#fff"/>
      <path id="Path_3280" data-name="Path 3280" d="M103.46,154.46c9.06,18.93,18.72,37.57,27.05,56.85-.83.4-1.66.8-2.49,1.19q-13.695-28.365-27.38-56.74c.94-.43,1.89-.87,2.83-1.3Z" fill="#fff"/>
      <path id="Path_3281" data-name="Path 3281" d="M190.29,211.23c8.7-19.08,18.02-37.87,27.24-56.71.58.15,1.15.29,1.73.44-.08,1.21.2,2.59-.29,3.6q-12.465,26.115-25.13,52.12c-.31.63-1.11,1.02-1.68,1.52-.62-.33-1.25-.65-1.87-.98Z" fill="#fff"/>
      <path id="Path_3282" data-name="Path 3282" d="M102.77,117.6c4.05,4.44,17.87,40,17.06,43.34-3.6-2.52-18.13-38.76-17.06-43.34Z" fill="#fff"/>
      <path id="Path_3283" data-name="Path 3283" d="M219.78,118.68c-5.72,14.26-11.43,28.52-17.46,43.56-2.3-4.03,11.54-40.33,15.72-44.17.58.2,1.16.41,1.75.61Z" fill="#fff"/>
      <path id="Path_3284" data-name="Path 3284" d="M221.63,148.59c5.12-14.5,12.31-28.04,19.58-43.02C242.7,110.46,226.47,145.42,221.63,148.59Z" fill="#fff"/>
      <path id="Path_3285" data-name="Path 3285" d="M97.75,149.37C90.82,135.71,83.97,122.02,77.83,108c.87-.41,1.73-.83,2.6-1.24q9.99,20.7,19.98,41.39C99.52,148.56,98.63,148.97,97.75,149.37Z" fill="#fff"/>
      <path id="Path_3286" data-name="Path 3286" d="M142.78,139.85c9.82,2.31,16.1,9.28,14.32,15.9C148.52,154.61,141.47,146.77,142.78,139.85Z" fill="#fff"/>
      <path id="Path_3287" data-name="Path 3287" d="M137.27,283.58q-32.925-15.765-65.85-31.52c.24-.49.47-.98.71-1.47q32.925,15.765,65.86,31.54c-.24.49-.48.97-.72,1.46Z" fill="#fff"/>
      <path id="Path_3288" data-name="Path 3288" d="M122.47,225.99c-5.45-3.91-18.8-31.33-17.4-36.3C111.63,202.33,118.16,213.62,122.47,225.99Z" fill="#fff"/>
      <path id="Path_3289" data-name="Path 3289" d="M198.8,226.94c-.43-4.24,12.62-30.75,17.92-36.6.11,1.88.6,3.18.18,4.01-5.28,10.37-10.69,20.69-16.11,30.99-.26.5-.95.78-1.98,1.59Z" fill="#fff"/>
      <path id="Path_3290" data-name="Path 3290" d="M213.37,76.59q-5.8,18.54-11.6,37.08c-.79-.24-1.59-.48-2.38-.72a296.935,296.935,0,0,1,11.32-37.2c.88.28,1.77.56,2.65.83Z" fill="#fff"/>
      <path id="Path_3291" data-name="Path 3291" d="M110.37,75.81c4.45,12.16,8.06,24.57,11.45,37.04-.87.26-1.74.52-2.6.77-3.8-12.38-8.37-24.52-11.17-37.2.78-.2,1.55-.4,2.33-.61Z" fill="#fff"/>
      <path id="Path_3292" data-name="Path 3292" d="M157.91,76.67c-5.85.15-27.11-14.76-28.77-20.59C139.24,63.2,148.95,68.49,157.91,76.67Z" fill="#fff"/>
      <path id="Path_3293" data-name="Path 3293" d="M194.27,59.11q-13.53,9.465-27.06,18.94l-1.56-2.22c8.35-7.23,18.06-12.55,26.92-19.07C193.14,57.54,193.7,58.33,194.27,59.11Z" fill="#fff"/>
      <path id="Path_3294" data-name="Path 3294" d="M127.08,232.13c4.49,8.77,8.98,17.54,14,27.32C135.72,257.92,124.83,236.94,127.08,232.13Z" fill="#fff"/>
      <path id="Path_3295" data-name="Path 3295" d="M180.4,258.42q6.765-13.155,13.52-26.31l1.4.27c.18.96.81,2.14.46,2.84-4.09,8.28-8.33,16.5-12.53,24.73Z" fill="#fff"/>
      <path id="Path_3296" data-name="Path 3296" d="M260.03,151c-4.85,8.78-9.7,17.56-14.87,26.91-2.03-4.15,8.88-24.53,13.73-27.64.38.24.76.48,1.15.72Z" fill="#fff"/>
      <path id="Path_3297" data-name="Path 3297" d="M75.45,177.32c-4.83-8.78-9.66-17.56-15.03-27.31C65.78,151.96,77.69,172.89,75.45,177.32Z" fill="#fff"/>
      <path id="Path_3298" data-name="Path 3298" d="M131.88,63.91q12.525,8.46,25.05,16.93c-4.27,1.33-23.47-11.57-25.05-16.93Z" fill="#fff"/>
      <path id="Path_3299" data-name="Path 3299" d="M165.78,81.02q12.615-8.55,25.24-17.1c.47.68.95,1.36,1.42,2.04q-12.5,8.64-25,17.27c-.56-.74-1.11-1.48-1.67-2.22Z" fill="#fff"/>
      <path id="Path_3300" data-name="Path 3300" d="M267.55,184.27q-10.89,11.91-21.77,23.83c-.34-.29-.68-.58-1.01-.87l20.59-24.91c.73.65,1.46,1.3,2.19,1.96Z" fill="#fff"/>
      <path id="Path_3301" data-name="Path 3301" d="M55.61,182.33l19.87,23.92-1.05.93L53.41,184.27c.73-.65,1.47-1.29,2.2-1.94Z" fill="#fff"/>
      <path id="Path_3302" data-name="Path 3302" d="M242.9,101.95l9.42-19.41,1.94.91c-1.16,7.35-5.73,13.18-8.71,19.71C244.67,102.76,243.78,102.35,242.9,101.95Z" fill="#fff"/>
      <path id="Path_3303" data-name="Path 3303" d="M215.24,267.93c3.14-2,6.14-4.29,9.44-5.96,7.37-3.72,14.89-7.16,22.38-10.65a9.215,9.215,0,0,1,2.62-.37c.14.4.28.8.43,1.2q-17.49,7.83-34.98,15.65l.11.12Z" fill="#fff"/>
      <path id="Path_3304" data-name="Path 3304" d="M67.32,83.19c5.01,5.5,7.77,12.05,9.39,19.13C71.79,96.78,68.35,90.55,67.32,83.19Z" fill="#fff"/>
      <path id="Path_3305" data-name="Path 3305" d="M165.12,137.78c5.46-3.82,10.92-7.64,17.24-12.07-.95,5.36-11.01,12.98-16.22,13.55l-1.02-1.47Z" fill="#fff"/>
      <path id="Path_3306" data-name="Path 3306" d="M141.39,126.12q8.175,5.985,16.36,11.97c-.45.61-.9,1.21-1.34,1.82-5.92-3.4-12.1-6.43-16.45-12C140.44,127.31,140.92,126.72,141.39,126.12Z" fill="#fff"/>
      <path id="Path_3307" data-name="Path 3307" d="M181.33,135.31l-13.85,9.86c-.5-.73-1.01-1.46-1.51-2.19q6.99-4.83,13.98-9.67c.46.67.92,1.33,1.37,2Z" fill="#fff"/>
      <path id="Path_3308" data-name="Path 3308" d="M142.96,133.4c4.62,3.19,9.23,6.38,14.8,10.24-4.75.56-12.98-4.79-15.62-8.98l.82-1.26Z" fill="#fff"/>
      <path id="Path_3309" data-name="Path 3309" d="M261.5,142.93q4.35-7.335,8.71-14.68c.55.32,1.11.63,1.66.95l-8.01,15.03-2.37-1.29Z" fill="#fff"/>
      <path id="Path_3310" data-name="Path 3310" d="M50.82,128.2q4.29,7.395,8.58,14.8c-.7.4-1.41.8-2.11,1.2L49.1,129.17l1.72-.97Z" fill="#fff"/>
      <path id="Path_3311" data-name="Path 3311" d="M73.6,229.47q-9.15-6.315-18.3-12.64l.84-1.2q9.225,6.285,18.46,12.58l-.99,1.26Z" fill="#fff"/>
      <path id="Path_3312" data-name="Path 3312" d="M246.38,228.22q9.21-6.3,18.41-12.61c.28.41.56.82.85,1.22q-9.2,6.33-18.38,12.66c-.3-.43-.59-.85-.89-1.28Z" fill="#fff"/>
      <path id="Path_3313" data-name="Path 3313" d="M215.13,267.81q-9.81,5.16-19.61,10.32l-.93-2.04q10.32-4.1,20.65-8.17Z" fill="#fff"/>
    </g>
  </g>
</svg>
