<svg id="Component_273_1" data-name="Component 273 – 1" xmlns="http://www.w3.org/2000/svg" width="342.24" height="342.24" viewBox="0 0 342.24 342.24">
  <g id="Component_230_18" data-name="Component 230 – 18">
    <g id="Rectangle_3295" data-name="Rectangle 3295" transform="translate(171.12) rotate(45)" fill="#fff" stroke="#000" stroke-width="3">
      <rect width="242" height="242" stroke="none"/>
      <rect x="1.5" y="1.5" width="239" height="239" fill="none"/>
    </g>
    <g id="Rectangle_3296" data-name="Rectangle 3296" transform="translate(171.421 30) rotate(45)" stroke="#000" stroke-width="3">
      <rect width="200" height="200" stroke="none"/>
      <rect x="1.5" y="1.5" width="197" height="197" fill="none"/>
    </g>
  </g>
  <g id="Group_284" data-name="Group 284" transform="translate(19.717 11.94)">
    <path id="Path_3136" data-name="Path 3136" d="M151.37,94.49c6.39-4.34,12.79-8.69,19.8-13.45.15,1.74.69,3.02.27,3.79-3.61,6.62-2.83,14.01-4.06,21.05-1.72,9.87-4.45,19.56-6.73,29.33-.11.46-.33,1.15-.12,1.39,4.44,4.98-.42,7.19-3.32,8.61-4.12,2.02-4.91,4.77-4.54,8.73a15.8,15.8,0,0,1-.67,4c-.52.01-1.04.02-1.56.04a34.715,34.715,0,0,1-.71-5.77c.1-2.96-.5-5.18-3.64-6.24a12.2,12.2,0,0,1-3.34-2.15c-3.59-2.8-3.53-4.31,1.02-7.53-1.5-2.78-3.53-5.53-4.53-8.61-1.34-4.15-1.89-8.55-2.76-12.85-.73-3.58-1.42-7.18-2.14-10.76-.83-4.18-.18-7.48,6.43-8.15-6.47-3.12-10.43-6.73-9.75-14.4,7.24,4.48,13.97,8.65,20.69,12.81l-.34.18Zm-2.45,5.8c-.66.07-1.32.14-1.98.2-.33,2.58-2.87,5.46,2.46,8.28-.19-3.45-.34-5.96-.48-8.48Zm-2.8,33.67c.4,2.95.74,5.5,1.09,8.04.69-.16,1.38-.32,2.08-.47-.98-2.45,2.06-6.12-3.16-7.56Z" fill="#fff"/>
    <path id="Path_3137" data-name="Path 3137" d="M174.65,70.15c-.49-1.99-.35-5-1.6-5.77-4.28-2.66-5.78-6.67-7-11.05-1.18-4.24-2.38-8.47-4-14.27a53.2,53.2,0,0,1,4.2,3.41c5.98,6.17,12.21,12.15,17.68,18.75,1.45,1.75.55,5.47.65,8.28a8.369,8.369,0,0,0,.66,4.11c.9-1.27,1.56-2.93,2.78-3.71,1.12-.72,2.85-.51,4.31-.71-.21,1.28-.02,3.4-.7,3.73-7.67,3.69-6.35,10.2-5.52,16.59,1.84,13.99,3.79,27.97,5.52,41.98,1.61,13.03,3.39,26.06,4.3,39.14.41,5.84,1.67,10.79,5.88,14.77,2.7,2.55,3.5,5.06,2.02,8.79-1.63,4.11-2.29,8.61-3.64,13.97a23.529,23.529,0,0,1-3-3.2c-1.17-2.01-1.78-4.42-3.22-6.18-4.24-5.22-3.48-9.56-.65-15.69,2.28-4.95.82-11.91.17-17.89-1.51-13.86-3.52-27.67-5.37-41.49-.57-4.25-1.32-8.47-1.92-12.71q-2.025-14.295-3.97-28.59c-.32-2.4-.58-4.4-3.79-4.87-2-.29-3.98-1.73-5.6-3.09-.78-.66-.92-2.33-.88-3.53.01-.31,1.78-.57,2.76-.87,2.13,1.42,4.24,2.85,6.29,4.26-.33-3.19-.64-6.23-1.03-10.03-2.13,2.33-3.74,4.09-5.36,5.86Z" fill="#fff"/>
    <path id="Path_3138" data-name="Path 3138" d="M138.37,42.46c-3.29,8.87-6.58,17.75-10.08,27.21,2.17,1.68,1.54,4.68-1.77,5.57-8.01,2.16-8.94,8.13-9.38,14.78a16.427,16.427,0,0,1-1.06,3.58c-.57-.05-1.13-.11-1.7-.16a57.522,57.522,0,0,1,.58-7.57c.96-4.74.7-8.58-4.24-11.28-4.76-2.59-2.14-4.1.81-6.86,7.76-7.26,14.74-15.36,22.06-23.1,1.04-1.1,2.24-2.05,3.37-3.07.47.3.94.6,1.42.9ZM120.14,73.74c.43.18.87.36,1.3.53,1.2-2.92,2.4-5.84,3.65-8.89-5.7.87-5.92,1.25-4.95,8.36Z" fill="#fff"/>
    <path id="Path_3139" data-name="Path 3139" d="M152.64,162.69c0,4.08.02,8.17,0,12.25-.17,23.65-.45,47.3-.39,70.96a14.4,14.4,0,0,0,2.98,8.6c3.08,3.71,3.71,6.97,1.56,11.26-1.91,3.81-3.23,7.91-5.3,13.11a44.979,44.979,0,0,1-2.49-4.29c-.52-1.21-.55-2.67-1.19-3.8-3.63-6.45-5.53-12.62.97-18.68,1.22-1.13,1.55-3.67,1.57-5.56q.2-22.23.05-44.47c-.08-10.99-.47-21.97-.61-32.96a55.192,55.192,0,0,1,.67-6.62c.73.07,1.47.13,2.2.2Z" fill="#fff"/>
    <path id="Path_3140" data-name="Path 3140" d="M227.24,104.14c1.56,5.16,3.31,10.28,4.63,15.5,2.31,9.14,4.03,18.44,6.7,27.47a15.937,15.937,0,0,0,6.11,8.03c3.91,2.61,5.26,5.59,4.34,9.91-.91,4.28-1.9,8.53-3.18,14.31-4.3-6.01-8.1-10.94-11.37-16.2-.66-1.06.34-3.54,1.15-5.06a15.354,15.354,0,0,0,.14-14.8,18.006,18.006,0,0,1-1.19-3.27q-4.7-17.7-9.34-35.4C225.9,104.47,226.57,104.31,227.24,104.14Z" fill="#fff"/>
    <path id="Path_3141" data-name="Path 3141" d="M109.82,146.05q-1.47,10.935-2.94,21.88c-.46,3.45-1.37,6.92-1.2,10.34a13.747,13.747,0,0,0,2.64,7.73c2.9,3.47,2.59,6.24.28,9.7-2.53,3.79-4.61,7.88-6.89,11.84l-1.47.02c-1.43-6.09-3.13-12.14-4.1-18.3-.21-1.34,1.98-3.28,3.38-4.62a14.9,14.9,0,0,0,4.75-10.45c.63-9.08,2.12-18.11,3.29-27.16.05-.41.49-.78.75-1.16.51.06,1.02.12,1.52.17Z" fill="#fff"/>
    <path id="Path_3142" data-name="Path 3142" d="M53.8,177.65c-.54-6.01-2.23-12.23-1.18-17.95.62-3.38,5.58-5.95,9-9.3,1.82,3.97,3.28,6.93,4.5,9.99a4.066,4.066,0,0,1,0,3.23c-3.36,4.86-6.92,9.58-10.41,14.34-.64-.1-1.27-.21-1.91-.31Z" fill="#fff"/>
    <path id="Path_3143" data-name="Path 3143" d="M108.96,134.35c1.62-13.26,3.14-25.7,4.66-38.13,3.37,3.54-.83,34.31-4.66,38.13Z" fill="#fff"/>
    <path id="Path_3144" data-name="Path 3144" d="M61.47,148.11q4.245-16,8.5-32.01c.7.18,1.4.35,2.09.53l-8.41,31.98c-.73-.17-1.46-.33-2.19-.5Z" fill="#fff"/>
    <path id="Path_3145" data-name="Path 3145" d="M151.37,94.49l.34-.18c-2.94-4.84-3.09-9.79.3-13.4,1.06,4.99,1.25,9.28-.65,13.58Z" fill="#fff"/>
    <path id="Path_3146" data-name="Path 3146" d="M76.16,103.83c-1.32,3.91-2.26,6.71-3.58,10.64C70.7,108.89,71.41,106.68,76.16,103.83Z" fill="#fff"/>
  </g>
</svg>
