<svg id="Component_320_1" data-name="Component 320 – 1" xmlns="http://www.w3.org/2000/svg" width="342.24" height="342.24" viewBox="0 0 342.24 342.24">
  <g id="Component_230_24" data-name="Component 230 – 24">
    <g id="Rectangle_3295" data-name="Rectangle 3295" transform="translate(171.12) rotate(45)" fill="#fff" stroke="#000" stroke-width="3">
      <rect width="242" height="242" stroke="none"/>
      <rect x="1.5" y="1.5" width="239" height="239" fill="none"/>
    </g>
    <g id="Rectangle_3296" data-name="Rectangle 3296" transform="translate(171.421 30) rotate(45)" stroke="#000" stroke-width="3">
      <rect width="200" height="200" stroke="none"/>
      <rect x="1.5" y="1.5" width="197" height="197" fill="none"/>
    </g>
  </g>
  <g id="Layer_1-2" transform="translate(25.353 21.26)">
    <g id="Group_140" data-name="Group 140" transform="translate(26.648 30.74)">
      <path id="Path_3633" data-name="Path 3633" d="M222.787,163.665c-3.506-16.083-6.775-32.242-10.8-48.2-2.41-9.544-5.9-18.861-13.57-26.137,1.682-2.721,3.506-5.443,5.056-8.306.5-.936.832-2.618.331-3.326-2.5-3.562-5.311-6.917-8.089-10.432-4.781,4-7.843,6.558-9.818,8.2-8.353-3.9-15.705-8.07-23.558-10.8-8.391-2.92-17.1-5.169-25.845.236a27.289,27.289,0,0,1-11.85,3.94c-6.067.454-9.742,4.215-13.976,7.692a3.739,3.739,0,0,1-1.143-.5c-2.618-2.419-5.112-6.681-7.8-6.794-2.466-.1-4.8,4.791-7.758,6.52-4.215,2.466-2.854,4.715-.822,7.531,2.343,3.241,4.555,6.586,6.832,9.894-3.61-3.326-5.755-2.476-7.437,1.663-.576,1.417-1.975,2.523-2.485,3.95-3.071,8.542-6.539,16.99-8.826,25.75-3.392,13.021-5.9,26.279-8.807,39.433-.3,1.361-.9,2.665-1.172,4.025-1.295,6.463-2.627,12.918-3.676,19.419-.2,1.257.813,2.7,1.266,4.063.378-.076.756-.151,1.125-.236q1.956-7.073,3.912-14.155c.624.18,1.257.369,1.88.548a24.545,24.545,0,0,1-1.295,4.98c-3.288,6.624-2.419,12.266,2.816,17.519q34.132,34.259,68.273,68.538a13.007,13.007,0,0,0,2.825,1.663c-.18-.529-.369-1.068-.548-1.6,1.7-1.436,3.383-2.882,5.093-4.3a37.418,37.418,0,0,0,2.929-2.344c3.515-3.572,6.879-7.3,10.442-10.82q25.641-25.415,51.339-50.763c6.161-6.095,6.511-9.251,2.674-17.406-.86-1.824-.529-4.215-.747-6.35.728-.076,1.465-.161,2.192-.236q1.658,7.413,3.307,14.836c.529.009,1.058.019,1.6.038.331-1.417,1.153-2.929.907-4.243-1.455-7.862-3.071-15.686-4.772-23.492Zm-42.92-70.654c3.288,3.175,6.01,7.465,11.642,5.982.293-.076,1.021,1.474,1.54,2.268-1.172.369-2.788,1.417-3.43.992-3.695-2.438-7.153-5.226-10.687-7.9.312-.454.624-.9.945-1.351Zm-2.816-15.837v7.456l-1.559-.057c-.18-2.419-.359-4.848-.539-7.267C175.653,77.259,176.352,77.221,177.052,77.174ZM171.429,74c2.069,7.1,2.693,14.864,6.473,20.534,3.7,5.566,10.6,9.005,15.97,13.277-4.271,1.512-11.6-2.258-16.187-8.6-6.832-9.431-9.7-20.751-6.246-25.211ZM103.562,98.87c7.1,1.578,9.771-3.988,13.56-7.928-2.173,5.537-6.53,8.883-11.614,11.339-.794.387-2.268-.633-3.421-1.011.5-.841,1.181-2.466,1.474-2.4Zm2.06,5.528c8.637-3.043,14.751-10.583,15.28-19.551-.841.917-1.37,1.493-2.107,2.287a46.468,46.468,0,0,1-.973-6.057,16.566,16.566,0,0,1,.9-4.1c1.21.756,2.41,1.512,3.638,2.277.255-1.361.643-3.383,1.021-5.405.6.132,1.191.274,1.786.406,1.729,9.544-2.277,17.623-7.579,25.164-4.281,6.076-11.7,9.629-17.009,7.408a48.433,48.433,0,0,1,5.046-2.429Zm-6.076,11.84c.066-1.663,1.937-4.29,3.449-4.7,16.867-4.545,23.2-17.349,24.191-32.809.435-6.728,4.281-8.24,8.259-10.555,2.882-1.682,6.341-2.391,9.922-3.666a17.827,17.827,0,0,1,.586,3.166q0,18.823-.076,37.656c0,2.589-.142,5.169-.095,7.749.019,1.068.038,2.863.576,3.09,4.375,1.833,2.882,5.83,3.411,8.949,1.191,7.153,2.088,14.363,3.1,21.554.614-.321,1.219-.643,1.833-.964,2.287,1.465,4.536,3,6.87,4.375a7.427,7.427,0,0,0,3.355,1.285c4.233.076,8.722.737,12.653-.416,4.1-1.2,7.664-4.243,12.454-7.068-4.895-.6-8.523-.728-12.01-1.531-18.257-4.2-29.331-19.116-28.717-37.666.387-11.472.076-22.972.076-34.463V64.1c6.284,2.778,11.717,5.046,16.971,7.664.841.416.954,2.419,1.266,3.723,1.588,6.511,2.5,13.267,4.848,19.485,3.109,8.249,9.62,13.541,18.19,15.771,3.827,1,5.755,2.958,5.575,6.86-.416,9.062-.661,18.143-1.446,27.167-.217,2.476-1.814,5.008-3.3,7.153-2.032,2.929-4.961,5.188-3.591,9.582.255.822-2.306,3.392-3.893,3.761a22.771,22.771,0,0,0-13.39,8.675c-2.844,3.6-7.446,6.076-11.67,8.249-4.111,2.117-8.75,3.232-13.154,4.781V187c-1.588-1.115-3.062-2.731-4.81-3.128-7.777-1.739-13.192-6.463-18.323-12.284-2.495-2.835-6.634-4.574-10.366-5.849-3.525-1.21-5.528-2.391-4.8-6.558.246-1.4-1.021-3.09-1.691-4.592-2.088-4.649-5.443-9.109-6.057-13.938-1.039-8.032-.529-16.291-.2-24.437Zm78.308,64.739c-.454-.18-.9-.369-1.351-.548,1.625-3.26,3.241-6.53,4.952-9.969,2.069,3.43.558,7.512-3.6,10.517Zm-58.568-.009c-4.574-.888-7.068-5.519-6.18-11.51,2.343,4.366,4.111,7.654,6.18,11.51Zm73.423-5.915c-8.334,11.047-15.686,22.679-20.921,35.559a3.015,3.015,0,0,1-.217.425c-2.381,3.893-.954,10.319-7.437,11.462-4.592.8-9.242,1.937-13.853,1.89a97.267,97.267,0,0,1-18.568-1.994c-2.221-.454-4.668-2.958-5.764-5.15-4.4-8.835-7.994-18.077-12.53-26.837-2.523-4.867-6.076-9.261-9.572-13.541-5.755-7.049-6.01-14.5-2.022-23.8,1.465,2.013,2.863,3.288,3.43,4.867.926,2.561,1.21,5.348,1.928,7.994,1.72,6.341,3.534,12.653,5.6,20.024,4.375-2.372,7.352-4.186,10.5-5.594,1.2-.539,3.855-.6,4.063-.1,1.984,4.555,6.5,3.685,9.95,4.885a74.269,74.269,0,0,0,8.429,1.966c-.491,1.039-1.134,2.892-1.436,2.835a120.515,120.515,0,0,1-13.862-2.967c-2.665-.794-4.829-4.044-7.881-.992.255,1.909.52,3.9.784,5.9,3-.369,6.161-1.417,8.845,2.665-2.069.274-3.61.482-6.766.907a35.8,35.8,0,0,0,4.441,2.825c3.194,1.342,6.445,2.542,9.714,3.695a3.989,3.989,0,0,0,2.6.142c5.764-2.447,10.669-1,15.242,2.91a5.711,5.711,0,0,0,4.432,1.077l-6.624-4.952c5.33-1.654,9.648-3,13.976-4.337-.123-.51-.246-1.021-.378-1.531-1.72-.142-3.44-.283-6.473-.539,3.241-3.4,5.708-4.186,9.072-2.154,3.052,1.843,6.785.529,7.408-2.636.17-.841-.841-1.909-1.3-2.873a10.594,10.594,0,0,0-2.353,1.417,20.2,20.2,0,0,0-1.975,2.835c-.454-.236-.917-.463-1.37-.7.435-1.465.869-2.929,1.72-5.821-8.467,1.106-15.97,4.819-24.748,4.186,1.068-.85,2.013-2.079,3.222-2.466,3.1-.992,6.407-1.361,9.459-2.466,2.117-.765,3.827-2.618,5.925-3.459a6.785,6.785,0,0,1,4.687-.1,98.454,98.454,0,0,1,8.8,4.574c6.435-8,7.853-17.17,9.374-26.336.293-1.777,1.578-3.392,2.91-6.1,3.922,8.59,4.7,15.592-.472,22.433Z" transform="translate(-28.899 -32.439)" fill="#fff"/>
      <path id="Path_3634" data-name="Path 3634" d="M271.738,146.563c-3.837,5.244-8.089,8.741-15.346,7.862-5.783-.709-11.132,1.143-13.872,6.813,4.7-1.37,9.374-4.2,13.673-3.7,10.5,1.2,15.006-5.726,19.882-12.8a5.667,5.667,0,0,0-4.347,1.843Z" transform="translate(-38.53 -37.015)" fill="#fff"/>
      <path id="Path_3635" data-name="Path 3635" d="M46.466,154.387c-7.437,1.153-11.878-2.277-15.762-7.72-.747-1.049-2.06-1.691-3.468-2.807-.359,1.361-.709,1.937-.548,2.192,3.8,6,8.571,11.585,15.979,11.585,6.218,0,11.651.869,16.867,4.318-2.485-5.991-7.371-8.448-13.069-7.569Z" transform="translate(-26.648 -36.967)" fill="#fff"/>
      <path id="Path_3636" data-name="Path 3636" d="M246.689,136.31a53.142,53.142,0,0,0,10.489-6.426c.841-.6.709-2.551,1.021-3.874-1.295.425-3.1.463-3.8,1.351-2.769,3.553-6.331,5.131-10.621,6.227-3.572.917-6.785,3.222-10.158,4.914.208.387.416.765.614,1.153,4.167-1.077,8.514-1.71,12.445-3.345Z" transform="translate(-38.04 -35.984)" fill="#fff"/>
      <path id="Path_3637" data-name="Path 3637" d="M52.914,135.432c4.97,2,10.376,2.91,15.6,4.271.208-.331.416-.671.614-1-1.88-1.238-3.619-2.816-5.67-3.638-5.689-2.277-12.351-2.665-15.97-8.779-.217-.378-2.221-.312-2.372.009-.369.813-.576,2.353-.1,2.8,2.476,2.306,4.885,5.131,7.89,6.341Z" transform="translate(-27.643 -35.985)" fill="#fff"/>
      <path id="Path_3638" data-name="Path 3638" d="M76.022,111.494a37.811,37.811,0,0,1,1.455,5.348c3.553-5.519.643-15.6-4.044-17.227-.7-.246-1.673.274-2.523.444a11.189,11.189,0,0,0,.6,2.495c1.465,3,3.109,5.915,4.507,8.939Z" transform="translate(-29.084 -34.528)" fill="#fff"/>
      <path id="Path_3639" data-name="Path 3639" d="M174.4,41.892a2.165,2.165,0,0,0-1.625-1.172c-.614.057-1.625.794-1.673,1.3-.387,4.035-.586,8.1-.888,12.927,3.251-2.91,5.311-10.262,4.186-13.059Z" transform="translate(-34.55 -31.289)" fill="#fff"/>
      <path id="Path_3640" data-name="Path 3640" d="M227.752,107.556c-.832-.076-1.673-.161-2.5-.236-.189,2.655-.369,5.311-.558,7.966.747.057,1.484.123,2.23.18q.411-3.955.832-7.909Z" transform="translate(-37.549 -34.955)" fill="#fff"/>
      <path id="Path_3641" data-name="Path 3641" d="M143.369,149.235c4.952-6.841,4.413-15.346,3.44-24.115-9.072,13.683-20.647,22.471-38.3,21.725,11.1,11.651,22.66,10.215,34.85,2.391Z" transform="translate(-31.154 -35.935)" fill="#fff"/>
      <path id="Path_3642" data-name="Path 3642" d="M134.712,174.073a35,35,0,0,1-5.471-3.629c-2.277-2.088-2.353-4.829.491-6.2,2.192-1.058,5-.841,7.163-1.143-4.574-3.355-13.116-.964-17.085,5.415a14.7,14.7,0,0,0,1.739,1.408c7.654,4.517,15.441,8.835,22.962,13.551,4.64,2.91,8.24,2.825,12.908-.69a98.235,98.235,0,0,1,9.506-5.859c4.885-2.873,9.809-5.689,14.779-8.571-5.726-6.634-14.222-8.75-18.124-3.78,4.47-3.081,8.051-2.013,9.251,1.673.52,1.606-2.7,4.46-4.318,6.681-.331.454-1.1.576-1.635.907-3.865,2.334-7.881,4.46-11.538,7.078-3.751,2.684-6.86,1.965-10.309-.472-3.288-2.325-6.879-4.233-10.309-6.35Z" transform="translate(-31.776 -37.942)" fill="#fff"/>
      <path id="Path_3643" data-name="Path 3643" d="M172.815,210.171c-.813,1.153-1.484,2.419-2.334,3.544-4.025,5.348-4.611,5.651-10.111,1.843-6.511-4.517-12.7-4.781-19.031.047-.624.472-1.323.86-1.918,1.37-2.287,1.928-4.309,1.531-6.038-.728-2.457-3.2-4.857-6.445-7.276-9.667-.312.283-.624.576-.936.86,2.665,3.648,5.254,7.361,8.032,10.914,1.6,2.041,3.534,2.8,6.133,1.143,7.616-4.848,15.28-4.772,23.085-.113,1.257.747,4.177.747,4.989-.132,3.27-3.581,6.01-7.645,8.939-11.528l-1.087-.775c-.822,1.068-1.682,2.117-2.457,3.222Z" transform="translate(-32.071 -40.419)" fill="#fff"/>
      <path id="Path_3644" data-name="Path 3644" d="M126.39,199.5c.076.028.151.066.227.094h0a.73.73,0,0,0-.019-.142.184.184,0,0,0-.076.009.577.577,0,0,0-.123.028Z" transform="translate(-32.138 -40.027)" fill="#fff"/>
      <path id="Path_3645" data-name="Path 3645" d="M119.36,196.585c.274,1.3,1.276,3.024,2.391,3.421,1.191.416,2.807-.387,4.262-.718q-3.09-1.332-6.171-2.665c.869-1.786-.624-.737-.472-.038Z" transform="translate(-31.751 -39.817)" fill="#fff"/>
      <path id="Path_3646" data-name="Path 3646" d="M134.829,47.58c-.463-1.739-.936-3.9-3.459-3.572l1.389,7.5c2.164-.274,2.542-2.145,2.069-3.94Z" transform="translate(-32.412 -31.468)" fill="#fff"/>
      <path id="Path_3647" data-name="Path 3647" d="M143.2,36.649c-.2-1.89-.208-3.959-2.882-3.969l.945,7.6C143.353,40.334,143.032,38.142,143.2,36.649Z" transform="translate(-32.905 -30.847)" fill="#fff"/>
      <path id="Path_3648" data-name="Path 3648" d="M162.387,38.337l.945-7.6c-2.674.009-2.684,2.079-2.882,3.969C160.62,36.2,160.3,38.385,162.387,38.337Z" transform="translate(-34.013 -30.74)" fill="#fff"/>
      <path id="Path_3649" data-name="Path 3649" d="M135.9,58.4a1.939,1.939,0,0,0,1.465-2.5L133.4,57.006a1.838,1.838,0,0,0,2.5,1.4Z" transform="translate(-32.524 -32.125)" fill="#fff"/>
    </g>
  </g>
</svg>
