<svg id="assassin-charm" xmlns="http://www.w3.org/2000/svg" width="60" height="60" viewBox="0 0 60 60">
  <rect id="Rectangle_3304" data-name="Rectangle 3304" width="60" height="60" fill="none"/>
  <g id="Layer_1-2" transform="translate(13 10)">
    <g id="Group_63" data-name="Group 63" transform="translate(0 0)">
      <path id="Path_2812" data-name="Path 2812" d="M2.831,13.795a2.166,2.166,0,0,1-.488.134,6.77,6.77,0,0,1-.723-.07c.026-.218.066-.436.078-.655.065-1.17.931-1.982,1.318-2.986a20.764,20.764,0,0,0,.779-3.656,7.644,7.644,0,0,1,2.58-4.71A9.441,9.441,0,0,1,8.551.675C10.737-.3,13.092,0,15.311.241a10.337,10.337,0,0,1,4.447,1.979A18.175,18.175,0,0,1,22.7,5.382a1.109,1.109,0,0,1,.3.7c-.082,1.029.542,1.328,1.379,1.56,3,.832,5.978,1.7,8.964,2.563a1.606,1.606,0,0,1,1.06,2.367c-.633,1.614-1.187,3.26-1.729,4.907-1,3.058-1.98,6.126-2.958,9.192-.741,2.32-1.457,4.649-2.2,6.97-.636,1.989-1.294,3.973-1.946,5.959-.293.891-1.032.671-1.6.521C22.032,39.613,20.128,39,18.2,38.463q-6.76-1.87-13.534-3.7c-1.149-.312-2.3-.6-3.457-.907C-.157,33.5-.3,33.034.357,31.772a12.071,12.071,0,0,0,.72-2.23c.948-3.26,1.878-6.527,2.835-9.785Q6.121,12.239,8.364,4.73c.373-1.246,1.009-1.471,2.256-1.091,2.5.764,5.019,1.457,7.529,2.183a6.106,6.106,0,0,0,.828.255,4.057,4.057,0,0,0,.791-.044c-.059-.265-.028-.64-.194-.776a21.7,21.7,0,0,0-3.039-2.3A8.277,8.277,0,0,0,8.985,2.62,5.707,5.707,0,0,0,6.61,5.141,60.982,60.982,0,0,0,4.168,10.8a.821.821,0,0,0,.052.654,1.449,1.449,0,0,1-.014,1.708c-.155.253-.11.619-.22.91a5.23,5.23,0,0,1-.441.762c-.2-.206-.4-.4-.581-.621a1.544,1.544,0,0,1-.141-.417ZM9.189,25.839c1.114,0,2.008-.077,2.885.014a17.58,17.58,0,0,1,8.786,3.04,2.431,2.431,0,0,0,.694.235,1.986,1.986,0,0,0,.166-.628,15.933,15.933,0,0,1,3-10.746.736.736,0,0,0,.12-.619c-.07-.131-.394-.2-.589-.18a14.483,14.483,0,0,1-5.926-.661,14.184,14.184,0,0,1-5.009-2.369.654.654,0,0,0-.542-.129c-.113.051-.192.335-.176.506a16.876,16.876,0,0,1-2.235,9.607c-.329.614-.725,1.192-1.175,1.925ZM21.443,5.973l.262-.225L19.711,3.509l-.094.085Z" transform="translate(0.022 0.002)" fill="#fff"/>
      <path id="Path_2813" data-name="Path 2813" d="M93.3,119.121c.758.017.912-.549.969-1.095.089-.823-.624-.92-1.161-.978-.7-.075-.934.5-.969,1.077-.049.8.579.887,1.159,1Z" transform="translate(-76.069 -96.637)" fill="#fff"/>
      <path id="Path_2814" data-name="Path 2814" d="M93.307,119.12c-.581-.108-1.208-.2-1.159-1,.035-.582.268-1.154.969-1.077.535.058,1.248.155,1.161.978-.059.546-.213,1.112-.969,1.095Z" transform="translate(-76.077 -96.636)" fill="#fff"/>
    </g>
  </g>
</svg>
