<svg id="benkeis-last-stand-charm" xmlns="http://www.w3.org/2000/svg" width="60" height="60" viewBox="0 0 60 60">
  <rect id="Rectangle_3303" data-name="Rectangle 3303" width="60" height="60" fill="none"/>
  <g id="Layer_1-2" transform="translate(15 9)">
    <g id="Group_62" data-name="Group 62" transform="translate(0 0)">
      <path id="Path_2804" data-name="Path 2804" d="M96.726,58.086l.242-.152.45-.295c.021-.094.04-.188.061-.282a.236.236,0,0,0-.19-.227.279.279,0,0,0-.3.136c-.031.141-.061.282-.092.424l-.277.213-.223-.218c-.016-.056-.033-.112-.049-.169l-.181-.2-.746-.051c.031.173.065.347.1.52Z" transform="translate(-78.788 -47.165)" fill="#fff"/>
      <path id="Path_2805" data-name="Path 2805" d="M97.173,85.5l-.293.776.72.033.293-.27.134-.472-.359-.152-.5.084Z" transform="translate(-79.994 -70.52)" fill="#fff"/>
      <path id="Path_2806" data-name="Path 2806" d="M92.856,69.394l.675-.225c.059-.12.12-.241.18-.359a.341.341,0,0,0-.584-.314c-.091.18-.18.359-.27.54l-.427.18c-.068-.127-.134-.255-.2-.382v-.248l-.157-.338-.922-.359-.068.743,1.417.877.359-.113Z" transform="translate(-75.205 -56.055)" fill="#fff"/>
      <path id="Path_2807" data-name="Path 2807" d="M61.945,111.138c-.021.275-.044.551-.064.826l.7-.167.206-.34c0-.164,0-.328,0-.492l-.389-.045Z" transform="translate(-51.095 -91.583)" fill="#fff"/>
      <path id="Path_2808" data-name="Path 2808" d="M53.934,97.235c.1-.07.209-.139.314-.207.2-.134.391-.268.586-.4l.073-.4a.342.342,0,0,0-.65-.141l-.11.594-.361.291c-.1-.1-.2-.207-.3-.31l-.068-.237-.246-.281c-.12-.01-.239-.021-.359-.033l-.251.741q.685.191,1.37.384Z" transform="translate(-43.4 -79.176)" fill="#fff"/>
      <path id="Path_2809" data-name="Path 2809" d="M89.4,82.6v-.968l-.936-.4-.1,1.036.518.427C89.05,82.663,89.223,82.633,89.4,82.6Z" transform="translate(-72.959 -67.069)" fill="#fff"/>
      <path id="Path_2810" data-name="Path 2810" d="M51.7,110.35l.194,1.022.615.267.472-.23c-.089-.31-.18-.619-.268-.929L51.7,110.35Z" transform="translate(-42.69 -91.113)" fill="#fff"/>
      <path id="Path_2811" data-name="Path 2811" d="M29.984,9.752c-1.126-.868-2.214-1.785-3.33-2.667-.952-.753-1.029-.727-1.471.378-.488,1.217-.795,1.356-2.061.913a16.6,16.6,0,0,1-1.708-.642c-.574-.274-1.213-.57-.893-1.428a3.368,3.368,0,0,0-.669-3.255A6.868,6.868,0,0,0,15.607.364a13.811,13.811,0,0,0-6.29,0A6.636,6.636,0,0,0,5.028,5.085C4.345,7.341,3.8,9.639,3.2,11.919c-.1.368-.15.748-.223,1.123l1.246-.15a1.5,1.5,0,0,0,.2.49,5.24,5.24,0,0,0,.654.567c.164-.244.431-.471.474-.734.371-2.245.678-4.5,1.049-6.747a5.346,5.346,0,0,1,3.537-4.3,7.207,7.207,0,0,1,5.05.024,5.082,5.082,0,0,1,3.2,2.985,1.179,1.179,0,0,1-.181,1.009c-.145.164-.642.126-.934.031-.633-.2-1.219-.565-1.855-.748-.809-.232-1.13-.6-.781-1.452.227-.547.044-1.077-.6-1.077a23.024,23.024,0,0,0-3.971.251A1.976,1.976,0,0,0,8.862,4.4c-.746,2.373-1.356,4.787-2.028,7.182-.242.863-.516,1.717-.774,2.575C5.71,15.32,5.37,16.486,5,17.644a6.866,6.866,0,0,1-.41.875c-.188-.258-.371-.521-.565-.774a3.459,3.459,0,0,0-.483-.558c-.044-.037-.34.1-.34.159a2.369,2.369,0,0,0,.113.807c.155.425.384.825.554,1.245a6.9,6.9,0,0,0,.668,1.665,15.826,15.826,0,0,0,1.693,1.532,2.4,2.4,0,0,1,.357.654c-.065.059-.131.117-.2.176a5.784,5.784,0,0,1-.9-.57c-.865-.805-1.686-1.66-2.557-2.46-.178-.164-.5-.169-.757-.248.049.281.01.628.164.828.277.361.732.589,1,.957.194.27.38.889.265.985-.919.762-.671,1.928-1.023,2.866C1.6,28.424.843,31.153.032,33.857A.927.927,0,0,0,.3,34.6c.636.633,1.341,1.2,1.986,1.822.418.4.713.425,1.173.005a1.266,1.266,0,0,1,1.111-.167q3.295,1.36,6.532,2.857c.384.178.621.659.947.976a4.228,4.228,0,0,0,.384.319h0c0,.488,2.854,1.452,4.292.286a1.855,1.855,0,0,0,.513-.615c.694-1.435,1.342-2.889,2-4.341.807-1.789,1.649-3.562,2.387-5.38.513-1.264.823-1.539,2.162-1.477a5.7,5.7,0,0,0,.978-.119c-.009-.138-.019-.274-.028-.411a6.63,6.63,0,0,1-1.086-.016,1.966,1.966,0,0,1-.6-.361c.164-.166.3-.422.5-.479.385-.112.823-.049,1.2-.173a5.443,5.443,0,0,0,1.1-.6.692.692,0,0,0-.112-.279c-.415.059-.823.157-1.238.214a8.388,8.388,0,0,1-.839.037,3.283,3.283,0,0,1,.024-.9,7.234,7.234,0,0,1,.474-.818c.729-1.607,1.428-3.229,2.165-4.831,1.342-2.917,2.73-5.814,4.036-8.748a1.291,1.291,0,0,0-.363-1.651ZM6.169,26.545c-.7,2.172-1.484,4.318-2.24,6.471-.258.736-.5,1.482-.8,2.2a.69.69,0,0,1-.537.361,3.419,3.419,0,0,1-1.6-2.017c.26-.886.507-1.776.779-2.659Q2.666,28,3.59,25.116c.056-.176.263-.465.34-.446a7.213,7.213,0,0,1,2.012.635c.244.145.345.87.227,1.239Zm.27-2.272a2.235,2.235,0,0,1-.542.343c-.546-.275-1.088-.521-1.6-.825-.131-.077-.155-.333-.228-.507.174-.061.384-.218.516-.169a19.388,19.388,0,0,1,1.776.781.392.392,0,0,1,.073.375ZM20.054,19.12a.7.7,0,0,0,.652-.045l-.961,1.112c.051.078.1.159.15.237.007.323.016.645.023.968h-1.3c-.016.045-.03.091-.045.134l-.293.7.45.877.225.427c-.068.059-.134.12-.2.18q-.758.889-1.517,1.776-.39.157-.778.316l.225-.652.675-1.036.5-.675.225-.472-.084-.5c-.138-.178-.274-.357-.411-.535l1.013-.652.45-1.6c.12.127.241.255.359.382l.359-1.281a.638.638,0,0,0,.293.338Zm-3.093,8.012c-.221.248-.443.493-.666.741l-.72.8c-.818-.234-1.454-.432-2.1-.593-.553-.138-1.119-.223-1.677-.343a1.722,1.722,0,0,1-.483-.166c-.98-.554-1.951-1.123-2.927-1.679-.385-.22-.907-1.525-.65-1.855a.855.855,0,0,1,.779-.146,2.213,2.213,0,0,1,.72.61A8.418,8.418,0,0,0,15.9,26.84,3.772,3.772,0,0,1,16.962,27.133ZM13.981,20.92c.03-.248.059-.5.091-.743l.359-.225.359-1.124c.134-.03.27-.059.4-.091.232-.241.465-.479.7-.72.007-.241.016-.479.023-.72l-.068-.788L14.5,15.385c-.016-.382-.03-.765-.045-1.147l.717.272c.023-.227.047-.452.07-.678-.021-.532-.04-1.063-.061-1.6.155.1.31.2.465.291v-2.9l.584.359-.068-.788L16,8.542l1.1.382c.209.375.42.75.629,1.124.18-.157.359-.316.54-.472l-.45-1.036q.562.068,1.124.134c.016.2.03.391.045.584l.629.2.068.832-.675,1.056c.173-.045.345-.091.518-.134q-.337.664-.675,1.327l.18.4c.037.2.071.4.108.6-.291.347-.582.7-.872,1.042.068.209.134.42.2.629l.157.743-1.958.9c-.059.225-.12.45-.18.675l-.225,1.238q-.484.269-.968.54a2.333,2.333,0,0,1-.134.472c-.068.166-.124.244-.18.359a1.877,1.877,0,0,0-.18.7.552.552,0,0,0-.4.2c-.068.1-.045.166-.134.338a2.053,2.053,0,0,1-.18.27l.54.584q-.753.62-1.508,1.238-.068-1.012-.134-2.024h.7l.293-.54ZM6.76,22.129c-.328-.4-.727-.746-1.062-1.142a1.791,1.791,0,0,1-.347-2.123A43.464,43.464,0,0,0,6.8,14.33q.573-1.859,1.128-3.725C8.421,8.971,8.965,7.351,9.371,5.7c.413-1.675.589-1.886,2.312-1.909h.349l.005-.073,1.518.143A10.179,10.179,0,0,1,13.3,5.3c-.76,2.366-1.548,4.723-2.336,7.08q-.737,2.2-1.484,4.405c.2-.438.4-.877.574-1.323l.413-.016.19-.214.35-.408c-.007-.1-.014-.192-.019-.289a.238.238,0,0,0-.246-.166.276.276,0,0,0-.249.214c.01.145.019.289.03.432-.07.094-.138.188-.207.281l-.162-.087q.165-.437.293-.886a.2.2,0,0,0,.042-.059,5.819,5.819,0,0,1,.481-.809l.042.112.661.019c.1.26.2.521.3.781-.119.4-.235.8-.354,1.2l.46-.274c-.092.488-.187.975-.279,1.463.1.113.19.227.286.338.091.181.18.364.27.546q-.275.622-.547,1.245l.37.549c.119.223.239.446.357.669q-.816.7-1.63,1.409l.016.7c.044.417.085.833.129,1.252l-.779.788a2.253,2.253,0,0,1,0,.492,2.86,2.86,0,0,1-.061.34c-.162-.119-.328-.23-.5-.335a.326.326,0,0,0-.056-.026.313.313,0,0,0-.04-.044l.021-.758.364-.2c.157-.295.314-.591.469-.886l-.178-.7c-.094-.246-.19-.492-.284-.737l-1.588-.7a8.061,8.061,0,0,1,.324-1.041l.056.005-.021-.115a3.341,3.341,0,0,0,.106-.408c.08-.427.153-.854.239-1.278-.113.336-.228.673-.342,1.009C8.428,19.926,8.085,20.97,7.7,22c-.209.567-.525.636-.938.129Zm2.645,11a2.369,2.369,0,0,1-1-.584,2.326,2.326,0,0,1-.472-.675l.293-.607-.2-.338-.248-.134v-.563c-.007-.134-.016-.27-.023-.4l-.45-.157c-.1-.12-.209-.241-.316-.359l.068-.382.359-.113.248.472c.18.218.359.434.54.652.038.218.075.434.113.652l.248.472.607.225a2.216,2.216,0,0,1,.237,1.844Zm2.059,3.813c.01.225.023.45.033.675l-1.958.1.978-1.552.743.235q.86-.792,1.721-1.586c.192.045.382.091.574.134-.045.214-.091.427-.134.642l-1.958,1.349Zm8.874-5.029c-.92,1.9-1.668,3.884-2.608,5.774-.821,1.649-.931,1.954-1.449,2.278a3.906,3.906,0,0,1-3.176.153,1.3,1.3,0,0,0,.1-.244c.146-.493.157-1.032.333-1.511.53-1.436,1.117-2.854,1.677-4.28.5-1.267.947-2.557,1.51-3.8a1.179,1.179,0,0,1,.962-.577,13.188,13.188,0,0,1,2.165.851c.633.274.84.614.483,1.351Zm1.154-2.535c-.275.248-.683.617-.952.553A17.7,17.7,0,0,1,17.945,29c-.159-.066-.359-.448-.31-.516a2.643,2.643,0,0,1,.594-.5c1.077.258,2.01.45,2.915.729a.966.966,0,0,1,.347.666Zm7.93-18.01c-1.194,2.6-2.324,5.232-3.485,7.848-1.022,2.3-2.055,4.6-3.084,6.895a1.851,1.851,0,0,1-2.012,1.072c-.518-.056-1.039-.1-1.553-.173-.854-.126-1.116-.61-.791-1.424Q20.925,19.5,23.354,13.4c.662-1.665,1.363-3.319,1.94-5.014.268-.788.673-.723,1.149-.378.938.68,1.832,1.421,2.737,2.144a.864.864,0,0,1,.241,1.208Z" transform="translate(-0.018 0)" fill="#fff"/>
    </g>
  </g>
</svg>
