<svg id="bomb-pack" xmlns="http://www.w3.org/2000/svg" width="60" height="60" viewBox="0 0 60 60">
  <rect id="Rectangle_3300" data-name="Rectangle 3300" width="60" height="60" fill="none"/>
  <g id="Layer_1-2" transform="translate(6 11)">
    <g id="Group_53" data-name="Group 53" transform="translate(0)">
      <path id="Path_2684" data-name="Path 2684" d="M93.509,51.271c-2.537-.534-5.021-1.019-7.477-1.613-.4-.1-.763-.637-1-1.053-.519-.9-.953-1.846-1.411-2.777a.9.9,0,0,1,.417-1.346q5.444-2.978,10.881-5.968a5.25,5.25,0,0,0,.605-.376,1.749,1.749,0,0,1,2.081-.073c3.038,1.7,6.093,3.363,9.13,5.06a1.007,1.007,0,0,1,.487.637c.018.17-.263.444-.473.559q-5.965,3.228-11.95,6.421a13.074,13.074,0,0,1-1.287.528Zm-2.757-3.128a13.394,13.394,0,0,0,2.347-1.09c.822-.6.8-1.377.136-2.165a3.483,3.483,0,0,0-4.99.242,1.236,1.236,0,0,0,.177,1.773A16.341,16.341,0,0,0,90.752,48.143Z" transform="translate(-68.525 -30.997)" fill="#fff"/>
      <path id="Path_2685" data-name="Path 2685" d="M104.627,82.356c.48.1,1.25.215,1.989.432a3.161,3.161,0,0,0,2.634-.288c4.059-2.261,8.168-4.43,12.258-6.636.261-.141.482-.4.754-.467.38-.1.92-.247,1.166-.066a27.668,27.668,0,0,1,2.67,2.306A7.482,7.482,0,0,1,127.108,79a1.3,1.3,0,0,1-.406,1.993c-1.015.77-1.966,1.628-2.985,2.392a1.745,1.745,0,0,1-1.117.376c-3.368-.41-5.823,1.107-7.762,3.656a1.875,1.875,0,0,1-1.792.868c-1.7-.1-3.4-.143-5.1-.1a10.8,10.8,0,0,1-6.723-2.528.981.981,0,0,1-.328-.811c.179-.793,2.582-2.469,3.73-2.485Z" transform="translate(-82.822 -61.772)" fill="#fff"/>
      <path id="Path_2686" data-name="Path 2686" d="M92.85,142.406c.118-1.724.168-3.035.31-4.335.1-.919.509-1.038,1.252-.464a10.759,10.759,0,0,0,6.913,2.5c1.549-.027,3.1.075,4.65.12.972.029,1.132.252,1,1.207a8.223,8.223,0,0,0,1.047,6.183.766.766,0,0,1-.306,1.209c-1.436.845-2.861,1.71-4.331,2.492a3.692,3.692,0,0,1-1.382.209c-.385.032-.775.011-1.162.013a7.878,7.878,0,0,1-7.436-4.96,17.88,17.88,0,0,1-.55-4.179Z" transform="translate(-76.226 -112.682)" fill="#fff"/>
      <path id="Path_2687" data-name="Path 2687" d="M67.833,99.969a5.307,5.307,0,0,0-1.028.532,7.574,7.574,0,0,0-2.879,5.98c-.018,1.339-.077,2.686.02,4.02a28.434,28.434,0,0,0,.55,2.938,5.614,5.614,0,0,1,.027.834,3.183,3.183,0,0,1-.865-.2,21.981,21.981,0,0,1-1.955-1.243,6.208,6.208,0,0,1-2.711-4.73,20.883,20.883,0,0,1,.308-7.364,7,7,0,0,1,3.542-4.055,1.016,1.016,0,0,1,.927.322A3.076,3.076,0,0,0,66.99,99.3a1.388,1.388,0,0,1,.476.2l.369.467Z" transform="translate(-48.287 -79.342)" fill="#fff"/>
      <path id="Path_2688" data-name="Path 2688" d="M58.451,31.246a5.728,5.728,0,0,1-.784.671c-3.782,2.079-7.576,4.134-11.352,6.22-1.185.655-1.192.795-.483,1.991.482.811.337,1.234-.451,1.769a15.5,15.5,0,0,0-1.943,1.56.843.843,0,0,1-1.307.068c-.911-.718-1.871-1.375-2.815-2.052-.922-.662-.994-.972-.093-1.6,1.565-1.081,3.192-2.072,4.813-3.071q4.182-2.576,8.389-5.106a8.138,8.138,0,0,1,5.1-.945c.27.025.519.265.929.489Z" transform="translate(-31.677 -25.202)" fill="#fff"/>
      <path id="Path_2689" data-name="Path 2689" d="M175.22,143.1a7.758,7.758,0,0,1,2.356-5.749c.63-.612,1.028-.639,1.533.059,1.092,1.515,2.131,3.069,3.182,4.614a1.475,1.475,0,0,1-.054,1.83,16.638,16.638,0,0,0-2.383,5.153c-.224.754-.645.87-1.339.313a8.2,8.2,0,0,1-3.293-6.22Z" transform="translate(-143.847 -112.38)" fill="#fff"/>
      <path id="Path_2690" data-name="Path 2690" d="M222.953,152.374a8.5,8.5,0,0,1-3.372,6.8,1.809,1.809,0,0,1-2.258.095,18.721,18.721,0,0,1-2.743-2.385,1.714,1.714,0,0,1,.075-2.238,16.707,16.707,0,0,1,6.326-5.54c.68-.353,1.058.052,1.237.593C222.552,150.707,222.786,151.751,222.953,152.374Z" transform="translate(-175.844 -122.297)" fill="#fff"/>
      <path id="Path_2691" data-name="Path 2691" d="M32.924,107.155c-.534-.362-1.046-.714-1.565-1.058a6.667,6.667,0,0,1-3.171-5.944c.013-1.549,0-3.1.124-4.641a8.544,8.544,0,0,1,.62-2.213c.184-.5.569-.539,1-.217,1.053.781,2.106,1.558,3.178,2.31.51.358.509.75.362,1.314a16.214,16.214,0,0,0-.7,3.536c-.066,2.213.084,4.433.152,6.913Z" transform="translate(-23.142 -76.246)" fill="#fff"/>
      <path id="Path_2692" data-name="Path 2692" d="M3.268,63a8.347,8.347,0,0,1,3.6,1.357c.609.433.655.824.109,1.363-1.875,1.853-3.051,4-2.731,6.748A1.532,1.532,0,0,1,4.256,73c-.1.406-.245.8-.372,1.2a5.4,5.4,0,0,1-1.178-.585A8.2,8.2,0,0,1,.063,68.493a6.142,6.142,0,0,1,1.38-4.58C1.807,63.426,2.647,63.294,3.268,63Z" transform="translate(-0.003 -51.72)" fill="#fff"/>
      <path id="Path_2693" data-name="Path 2693" d="M107.227,0c.514.122,1.542.3,2.521.616.781.256.793.625.245,1.244s-1.087,1.259-1.586,1.923a2.849,2.849,0,0,1-1.726.929A5.942,5.942,0,0,1,101.4,3.568c-.63-.433-.743-.763-.181-1.307A8.561,8.561,0,0,1,107.227,0Z" transform="translate(-82.801)" fill="#fff"/>
      <path id="Path_2694" data-name="Path 2694" d="M202.265,125.87c.231.274.6.526.691.856a1.734,1.734,0,0,0,2.655,1.051,2,2,0,0,1,2.637.974.835.835,0,0,1-.4.682,14.648,14.648,0,0,0-4.53,3.289c-.421.435-.7.328-1.035-.186q-1.579-2.417-3.277-4.757c-.4-.551-.313-.906.263-1.094.9-.3,1.832-.5,2.988-.813Z" transform="translate(-163.177 -103.333)" fill="#fff"/>
      <path id="Path_2695" data-name="Path 2695" d="M22.277,19.33c-.236.091-.621.363-.756.27a4.989,4.989,0,0,0-3.218-.859.569.569,0,0,1-.457-.3.634.634,0,0,1,.242-.521c.675-.457.627-.936.365-1.671a3.542,3.542,0,0,1,1.167-3.961,17.409,17.409,0,0,1,2.7-1.708,8.383,8.383,0,0,1,1.325-.727,3.015,3.015,0,0,1,.963-.034c-.124.3-.163.725-.387.872a13.971,13.971,0,0,1-1.98,1.021,4.554,4.554,0,0,0-2.666,2.369,4.037,4.037,0,0,0-.236,1.733c.068.872.487,1.128,1.345.893.636-.174.976.025,1.123.636.14.578.276,1.158.473,1.991Z" transform="translate(-14.648 -8.039)" fill="#fff"/>
      <path id="Path_2696" data-name="Path 2696" d="M152.91,15.918c-.209.068-.528.29-.7.206-1.522-.731-3.028-1.5-4.5-2.31a.883.883,0,0,1-.107-.849,11.7,11.7,0,0,1,1.642-1.873,1.1,1.1,0,0,1,1.051-.1A8.063,8.063,0,0,1,152.91,15.918Z" transform="translate(-121.117 -8.949)" fill="#fff"/>
      <path id="Path_2697" data-name="Path 2697" d="M45.454,49.708c-.116-.578-.209-1.164-.356-1.733-.251-.967.059-1.377,1-1.123a25.965,25.965,0,0,1,2.926,1.042.89.89,0,0,1,.512.616c0,.215-.281.489-.5.636-.747.485-1.508.953-2.294,1.372a6.7,6.7,0,0,1-1.191.381l-.306-1.141.215-.05Z" transform="translate(-36.955 -38.402)" fill="#fff"/>
      <path id="Path_2698" data-name="Path 2698" d="M235.2,87.366a4.178,4.178,0,0,1-2.072,3.139,20.055,20.055,0,0,0-2.02,1.468c-.349.31-.494.842-.807,1.209a3.432,3.432,0,0,1-.834.541c-.082-.3-.331-.709-.22-.886a7.225,7.225,0,0,1,1.352-1.629c.858-.736,1.83-1.336,2.707-2.05a1.672,1.672,0,0,0-.057-2.856c-.337-.283-1.114-.4-.7-1.071a1.956,1.956,0,0,1,1.339.394A11.35,11.35,0,0,1,235.2,87.366Z" transform="translate(-188.181 -69.943)" fill="#fff"/>
      <path id="Path_2699" data-name="Path 2699" d="M89.142,26.059c.292-.927.573-1.86.888-2.781a.914.914,0,0,1,.4-.449c.408-.226,2.736.94,2.784,1.409a.725.725,0,0,1-.274.575q-1.421.913-2.89,1.749c-.471.269-.806.159-.911-.5Z" transform="translate(-73.18 -18.718)" fill="#fff"/>
      <path id="Path_2700" data-name="Path 2700" d="M207.72,199.267a15.79,15.79,0,0,1-1.844-.279c-.27-.072-.7-.428-.673-.578a17.453,17.453,0,0,1,.732-2.435,1.528,1.528,0,0,1,.777.2c.757.641,1.472,1.332,2.188,2.02a4.3,4.3,0,0,1,.449.611,2.406,2.406,0,0,1-.646.363,5.059,5.059,0,0,1-.976.016l-.007.081Z" transform="translate(-168.461 -160.88)" fill="#fff"/>
      <path id="Path_2701" data-name="Path 2701" d="M244.673,123.184c-.365.381-.736.888-.829.842a4.948,4.948,0,0,1-1-.847,4.978,4.978,0,0,1,1-.813C243.941,122.319,244.289,122.8,244.673,123.184Z" transform="translate(-199.36 -100.453)" fill="#fff"/>
    </g>
  </g>
</svg>
