<svg id="Component_280_1" data-name="Component 280 – 1" xmlns="http://www.w3.org/2000/svg" width="342.24" height="342.24" viewBox="0 0 342.24 342.24">
  <g id="Component_230_45" data-name="Component 230 – 45">
    <g id="Rectangle_3295" data-name="Rectangle 3295" transform="translate(171.12) rotate(45)" fill="#fff" stroke="#000" stroke-width="3">
      <rect width="242" height="242" stroke="none"/>
      <rect x="1.5" y="1.5" width="239" height="239" fill="none"/>
    </g>
    <g id="Rectangle_3296" data-name="Rectangle 3296" transform="translate(171.421 30) rotate(45)" stroke="#000" stroke-width="3">
      <rect width="200" height="200" stroke="none"/>
      <rect x="1.5" y="1.5" width="197" height="197" fill="none"/>
    </g>
  </g>
  <g id="Group_287" data-name="Group 287" transform="translate(19.28 14.14)">
    <path id="Path_3796" data-name="Path 3796" d="M200.94,192.11c-3.14-.18-7.06-.79-9.14-2.77-12.78-12.16-25.15-24.75-37.59-37.26a3.51,3.51,0,0,1-.92-2.64c.56-2.84,1.46-5.62,2.14-8.44.79-3.26-.61-5.57-3.69-7.74-.68,4.21-2.41,8-1.83,12.13-.24.24-.48.48-.71.72l1.12,1.1a10.437,10.437,0,0,0,.44,1.21L128.15,126.3c.15-.09.31-.17.47-.25,3.53,3.45,7.03,6.94,10.6,10.35,2.28,2.17,3.24,1.88,3.86-1.14.52-2.54.81-5.11,1.41-7.63a7.27,7.27,0,0,0-1.32-6.58c-6.33-8.48-12.51-17.07-18.77-25.61a28.578,28.578,0,0,0-2.49-2.47c-1.36,8.32-2.57,15.74-3.86,23.69-1.05-1.03-1.95-2.05-2.99-2.89-3.07-2.52-5.11-4.77-3.27-9.57,1.9-4.95,1.99-10.58,2.97-15.89.88-4.76-2.14-11.47-6.92-14.45-1.37,9.49-2.72,18.81-4.18,28.9-3.63-3.56-6.82-6.79-10.17-9.85-.66-.61-1.93-.54-2.93-.78.3.98.3,2.25.94,2.91,3.98,4.08,8.11,8.02,12.22,12.04-2.04-.57-3.84-1.65-5.45-1.42-8.37,1.19-16.69,2.7-25.02,4.13-.13.03-.21.38-.53,1.01a38.625,38.625,0,0,1,5.44,3.57c3.07,2.79,6.36,2.94,10.16,1.95,4.31-1.13,8.75-1.75,13.09-2.77a64.832,64.832,0,0,0,6.45-2.28c.26.25.92.89,1.58,1.55,5.65,5.65,11.21,11.41,16.97,16.94,18.68,17.9,37.34,35.83,56.22,53.53,5.98,5.62,11.34,11.16,11.12,20.16-.03,1.35,1.71,3.35,3.12,4.03,5.5,2.64,11.2,4.88,16.84,7.21a18.084,18.084,0,0,0,3.3.57c-2.61-5.88-5.27-10.99-7.14-16.37-1.57-4.54-4.15-6.49-8.93-6.76Z" fill="#fff"/>
    <path id="Path_3797" data-name="Path 3797" d="M117.07,121.33a6.1,6.1,0,0,0-4.34-1.7c-6.56.97-13.06,2.34-20.23,3.68h.01a10.651,10.651,0,0,0,1.32,1.82c9.31,6.56,18.58,13.15,28,19.55a7.51,7.51,0,0,0,4.68.72,71.62,71.62,0,0,0,8.27-1.66c3.02-.71,3.33-1.67,1.13-3.88-6.23-6.23-12.46-12.46-18.84-18.52Z" fill="#fff"/>
    <path id="Path_3798" data-name="Path 3798" d="M148.86,153.44c-1.33-3.91-4.61-3.4-7.62-3.44-2.59.79-5.19,1.58-7.89,2.4,3.26,4.42,9.57,4.77,15.52,1.04Z" fill="#fff"/>
    <path id="Path_3799" data-name="Path 3799" d="M108.4,113.5l-22.65,4.47C88.51,120.34,106.84,116.83,108.4,113.5Z" fill="#fff"/>
    <path id="Path_3800" data-name="Path 3800" d="M112.33,109.43Z" fill="#fff"/>
    <path id="Path_3801" data-name="Path 3801" d="M113.61,109.68c2.2-2.74,4.89-20.9,2.89-23.77-1.47,8.27-2.82,15.9-4.17,23.52.43.08.85.16,1.28.25Z" fill="#fff"/>
    <path id="Path_3802" data-name="Path 3802" d="M90,120.68h0c.11.54.21,1.07.31,1.6,7.15-.61,14.03-2.62,21.05-3.92-.12-.64-.24-1.28-.37-1.91l-21,4.23Z" fill="#fff"/>
    <path id="Path_3803" data-name="Path 3803" d="M117.24,112.27c1.31-7.08,2.92-14.14,3.48-21.33l-1.53-.24q-1.9,10.665-3.81,21.34c.62.07,1.24.16,1.86.23Z" fill="#fff"/>
    <path id="Path_3804" data-name="Path 3804" d="M140.98,144.02c-5.59,1.03-10.27,1.89-14.95,2.75C128.94,149.08,138.56,147.3,140.98,144.02Z" fill="#fff"/>
    <path id="Path_3805" data-name="Path 3805" d="M146.04,126.44q-1.17,7.035-2.34,14.08C146.93,138.48,148.38,129.48,146.04,126.44Z" fill="#fff"/>
    <path id="Path_3806" data-name="Path 3806" d="M148.56,142.8l1.86-11.78h0l-1.75-.24q-.93,5.88-1.85,11.76c.58.09,1.15.17,1.73.26Z" fill="#fff"/>
    <path id="Path_3807" data-name="Path 3807" d="M142.11,147.16q-5.82,1.185-11.64,2.35c.06.44.12.9.18,1.34,1.4-.1,2.81-.19,4.22-.31,2.09-.18,4.19-.37,6.28-.56h-.06c.49-.66.98-1.32,1.46-1.99-.15-.28-.31-.56-.46-.83Z" fill="#fff"/>
    <path id="Path_3808" data-name="Path 3808" d="M214.57,87.11l12.16,11.2,2.49-2.49L214.57,82.27q-16.35,16.77-32.71,33.54l-13.73-13.92-3.87,4.15,42.16,41.74,3.46-3.59-11.67-11.82q14.34-14.61,28.67-29.23L211.95,89.18l2.63-2.07Zm-1.23,23.03-.69-.07.24-2.43c-.42-1.04-.8-2.35-.26-2.84.34-.31.84-.13,1.66-.14a6.328,6.328,0,0,0,3.15-.92c.33.91.65,1.82.98,2.74-1.7,1.22-3.39,2.44-5.09,3.66Zm-.87-15.58,4.69,3.74c.68,1.66.56,2.22.33,2.42-.37.31-.97-.27-2.36-.34-1.43-.07-2.01.49-2.49.14-.36-.27-.58-1.01,0-3.04-.05-.97-.11-1.95-.16-2.92Zm-9.38,5.13,4.15-4.7,2.63,1.24-4.33,4.15H203.1v-.69ZM184.1,118.1a3.558,3.558,0,0,0,1.71-.02c1.39-.31,4.58,2.27,12.38,14.3L184.1,118.1Zm14.43,2.19a2.868,2.868,0,0,1-.42.97l-1.38,1.11a7.41,7.41,0,0,0-2.21-3.46,7.5,7.5,0,0,0-4.56-1.8c.78-.83,1.57-1.66,2.35-2.49,1.61.69,3.23,1.38,4.84,2.07.19.18,1.79,1.76,1.38,3.59Zm11.02-8.42c-1.04.61-2.07,1.22-3.11,1.84l-5.37-2.07c-.39-1.59-.78-3.17-1.16-4.76a4.641,4.641,0,0,1,1.94-2.49,4.909,4.909,0,0,1,4.23-.29,6.473,6.473,0,0,1,3.51,3.75,6.242,6.242,0,0,1-.04,4.02Z" fill="#fff"/>
    <path id="Path_3809" data-name="Path 3809" d="M155.5,152.61l4.73,4.76,24.48-24.24h2.9v2.9q-12.135,12.225-24.28,24.46,1.5,1.515,3.01,3.02,13.635-13.71,27.28-27.42-8.55-8.715-17.1-17.42l-19.48,19.54a7.445,7.445,0,0,1-.21,2.3c-.75,3.08-1.73,6.1-2.34,9.2a3.794,3.794,0,0,0,1,2.87Z" fill="#fff"/>
    <path id="Path_3810" data-name="Path 3810" d="M116.16,208.05a32.147,32.147,0,0,1-7.33,5.11,34.955,34.955,0,0,1-22.39,2.76c1.52-1.57,3.04-3.13,4.56-4.7a24.477,24.477,0,0,0,9.68-.14c6.9-1.51,13.54-8.15,13.54-8.15q8.07-7.965,16.26-15.95,13.7-13.35,27.33-26.37c-2.81-2.63-4.93-4.72-6.39-6.19,0,0-.46-.46-3.45-3.5l1.69,2.12c.04.72.07,1.44.11,2.16a19.516,19.516,0,0,1-4.98,1.8,19.167,19.167,0,0,1-6.68.23q-30.81,30.9-61.62,61.81a38.992,38.992,0,0,0,5.08,1.56c8.5,1.98,15.63.59,20.53-.41a63.758,63.758,0,0,0,11.29-3.43q25.155-25.275,50.32-50.56l-3.02-3.02c-2.99,3.14-31.06,32.58-44.53,44.87Z" fill="#fff"/>
  </g>
</svg>
