<svg id="Component_242_1" data-name="Component 242 – 1" xmlns="http://www.w3.org/2000/svg" width="342.24" height="342.24" viewBox="0 0 342.24 342.24">
  <g id="Component_230_16" data-name="Component 230 – 16">
    <g id="Rectangle_3295" data-name="Rectangle 3295" transform="translate(171.12) rotate(45)" fill="#fff" stroke="#000" stroke-width="3">
      <rect width="242" height="242" stroke="none"/>
      <rect x="1.5" y="1.5" width="239" height="239" fill="none"/>
    </g>
    <g id="Rectangle_3296" data-name="Rectangle 3296" transform="translate(171.421 30) rotate(45)" stroke="#000" stroke-width="3">
      <rect width="200" height="200" stroke="none"/>
      <rect x="1.5" y="1.5" width="197" height="197" fill="none"/>
    </g>
  </g>
  <g id="Group_263" data-name="Group 263" transform="translate(19.777 18.921)">
    <path id="Path_3020" data-name="Path 3020" d="M91.37,228.41a28.653,28.653,0,0,1,9.07-18.15c7.37-6.94,15.14-13.46,22.45-20.46,2.44-2.34,4-5.6,5.98-8.43.54-.77,1.07-2.06,1.74-2.16,7.77-1.15,10.91-8.28,16.09-12.64,9.54-8.03,17.17-19.48,27.93-24.59,10.84-5.15,17.18-14.24,26.36-20.41,1.02-.69,3.76-.83,3.95-.43,1.16,2.54,3.58,5.23.58,8.09-5.67,5.4-11.44,10.69-16.97,16.23-1.16,1.16-1.41,3.21-2.18,4.8a10.714,10.714,0,0,1-1.92,3.22c-7.88,7.42-15.76,14.85-23.81,22.09-4.46,4.01-9.24,7.67-13.87,11.49-.26.21-.67.4-.73.66-1.58,7.35-9.16,7.88-13.56,12-6.07,5.7-11.83,11.72-17.86,17.46a39.657,39.657,0,0,1-23.26,11.23Zm7.77-5.69c.34.49.68.98,1.01,1.48,3.72-2.61,7.5-5.13,11.14-7.84,10.1-7.54,16.69-19.19,28.68-24.55.53-.24.76-1.06,1.21-1.54,2.33-2.46,4.83-4.79,6.97-7.41.77-.95,1.35-2.91.88-3.82A13.044,13.044,0,0,0,145,174.7a3.392,3.392,0,0,0-3.24.32c-5.53,5.32-10.71,11.03-16.37,16.2-6.26,5.72-13.1,10.82-19.34,16.56-3.96,3.65-7.57,7.8-8.84,13.44q23.07-21.2,46.14-42.38l1.62,1.77q-22.905,21.06-45.82,42.11Zm52.99-44.38c.59-.58,1.18-1.17,1.78-1.75q-2.97-3.03-5.94-6.07l-1.62,1.56q2.895,3.135,5.78,6.27Z" fill="#fff"/>
    <path id="Path_3021" data-name="Path 3021" d="M144.84,137.35c6.35,4.15,11.57,7.56,17.13,11.19-1.14,3.2-3.62,3.69-6.87,2.58-6.61-2.27-13.29-4.35-19.82-6.85a11.547,11.547,0,0,0-9.98.43c-7.23,3.45-14.74,6.32-22.14,9.43-.2-.46-.4-.92-.6-1.37,7.52-3.51,15.05-7.03,23.72-11.08-2.58-1.07-4-1.76-5.48-2.26-15.12-5.14-30.26-10.21-45.36-15.4a36.544,36.544,0,0,1-7.2-3.35c-3.01-1.87-2.43-3.84.28-5.71a49.833,49.833,0,0,0,5.47-4.47c2.33-2.16,5.63-2.79,7.04-.37,4.12,7.06,9.24,2.79,13.71,1.55,5.57-1.55,6.59-1.3,7.73,4.68.43,2.28.67,4.83,1.89,6.67,1.37,2.06,3.52,4.29,5.74,4.87,1.63.42,4.33-1.34,5.71-2.89.57-.64-.73-3.52-1.8-4.9-1.7-2.2-4.19-3.81-5.81-6.05-.71-.98-.08-2.92-.07-4.42,1.63.22,3.89-.16,4.8.77,5.51,5.67,10.71,11.63,16.01,17.5.22.24.26.66.5.85.88.71,2.3,2.13,2.64,1.91,5.57-3.54,8.68,5.89,15.13,2.11,9.4-5.51,19.85-9.27,29.92-13.61,1.2-.52,2.87.06,4.33.13-1.03,1.07-1.86,2.6-3.11,3.15-9.74,4.27-19.56,8.35-29.34,12.52-.98.42-1.87,1.06-4.2,2.41Z" fill="#fff"/>
    <path id="Path_3022" data-name="Path 3022" d="M230.91,160.64q1.2-5.64,2.41-11.28c.6.13,1.21.25,1.81.38-.3,5.32,1.71,10.81-2.48,15.84-.91,1.09-.53,3.42-.4,5.15a63.735,63.735,0,0,0,1.39,6.81c-6.95-2.17-12.75-3.78-18.41-5.78-9.29-3.29-9.29-3.41-14.08,4.86-7.41,12.81-14.74,25.67-22.14,38.49a7.179,7.179,0,0,1-3.71,3.39c4.38-8.28,8.71-16.58,13.14-24.82,4.02-7.47,8.04-14.94,12.27-22.29,1.85-3.21,1.29-4.62-2.32-5.66-5.36-1.55-10.57-3.62-15.85-5.48v-1.93c1.88-.19,3.94-.95,5.61-.44a98.015,98.015,0,0,1,12.55,4.86c2.71,1.26,4.17.89,5.54-1.86,2.37-4.76,5.01-9.39,7.71-13.97a20.7,20.7,0,0,1,5.51-5.8c-5.97-9.85-11.55-19.97-18.01-29.5-8.14-12-17.3-23.15-29.85-31.09-9.01-5.7-21-2.58-21.02,10.14,0,5.54.88,11.08,1.37,16.62-.41.27-.82.54-1.22.8-1.39-1.96-2.79-3.92-4.02-5.65-10.72,1.24-21.73,2.5-32.74,3.77-.06-.38-.11-.76-.17-1.14q9.855-1.8,19.72-3.59c.65-.12,1.33-.09,1.99-.15,10.55-1.06,10.25-1.1,11.43-11.69,1.56-14.01,9.53-16.8,21.15-15.11.86.13,1.56,1.14,2.42,1.58,2.86,1.46,5.56,4.81,8.98.86a1.709,1.709,0,0,1,1.41-.35c2.1.44,5.99.98,5.99,1.48,0,3.86-3.21,1.88-5.18,2.28-.59.12-1.18.21-2.43.44,24.48,22.33,40.63,49.26,51.64,79.83Zm-3.73,12.22c.62-.27,1.24-.55,1.86-.82q-4.155-13.6-8.3-27.22c-.53,0-1.05,0-1.58.01-3.73,6.53-7.46,13.06-11.58,20.27,6.84,2.71,13.22,5.23,19.6,7.76Z" fill="#fff"/>
    <path id="Path_3023" data-name="Path 3023" d="M224.33,100.05c7.32,3.35,7.77,5.25,3.05,9.53-3.08,2.79-6.03,5.73-9.22,8.37-1.06.88-2.7,1.04-4.07,1.54-.51-1.96-1.74-4.11-1.32-5.84a7.233,7.233,0,0,1,3.97-4.16c4.33-1.76,9.02-2.83,7.59-9.44Z" fill="#fff"/>
    <path id="Path_3024" data-name="Path 3024" d="M187.79,96.99c-12.16,1.65-23.18,3.14-35.27,4.78C156.27,96.77,182.82,93.09,187.79,96.99Z" fill="#fff"/>
    <path id="Path_3025" data-name="Path 3025" d="M210.83,92.08c-2.67,3.39-11.49,4.37-15.84,1.76C198.43,90.93,206.84,89.99,210.83,92.08Z" fill="#fff"/>
    <path id="Path_3026" data-name="Path 3026" d="M100.03,106.01c-1.51-2.52-3.06-5.02-4.38-7.63-.05-.09,2.46-2.14,3.18-1.84,3.87,1.63,3.68,4.95,2.94,8.31l-1.74,1.17Z" fill="#fff"/>
    <path id="Path_3027" data-name="Path 3027" d="M129.23,115.64c1.81,3.52,3.13,5.82,4.1,8.25.15.38-1.29,1.39-2,2.11a70.457,70.457,0,0,1-4.82-6.4C126.28,119.22,127.69,117.82,129.23,115.64Z" fill="#fff"/>
    <path id="Path_3028" data-name="Path 3028" d="M87.26,104.1c-2.42-1.43-4.93-2.73-7.19-4.38-.63-.46-.47-1.99-.67-3.02,1.15-.15,2.76-.86,3.36-.36a72.029,72.029,0,0,1,5.88,6.09l-1.38,1.67Z" fill="#fff"/>
  </g>
</svg>
