<svg id="demon-cutter-katana" xmlns="http://www.w3.org/2000/svg" width="60" height="60" viewBox="0 0 60 60">
  <rect id="Rectangle_3306" data-name="Rectangle 3306" width="60" height="60" fill="none"/>
  <g id="Layer_1-2" transform="translate(-96.458 -63.126)">
    <g id="Group_45" data-name="Group 45" transform="translate(104.458 72.125)">
      <path id="Path_2601" data-name="Path 2601" d="M-.008,29.917a3.754,3.754,0,0,1,.635-.54c1.035-.549,1.131-.708.827-1.852C1.235,26.7.9,25.9.758,25.065c-.068-.411.236-.871.3-1.318.2-1.527.365-3.057.546-4.585a1.13,1.13,0,0,1,.045-.257c.348-.944.724-1.892-.736-2.5.736-.315,1.63.255,1.757-.719a13.464,13.464,0,0,0,.014-1.722l-.268-.03A3.208,3.208,0,0,0,3.417,13.7,1.187,1.187,0,0,0,3.582,11.7a10.61,10.61,0,0,1-.694-.811l.163-.234a4.957,4.957,0,0,1,.846.386c.8.561,1.243.512,1.576-.43A2.07,2.07,0,0,1,6.582,9.28c.3-.143.505-.474.768-.706.444-.392.577-.762.073-1.238a3.477,3.477,0,0,1-.5-.838l.192-.192a5.62,5.62,0,0,0,.846.591,5.035,5.035,0,0,0,.955.248A3.815,3.815,0,0,0,8.9,6.076,5.28,5.28,0,0,0,8.238,5c.308.017.439-.009.467.031.967,1.436,2.009.484,3,.072a22.4,22.4,0,0,0,2.973-1.441c.367-.222.521-.8.89-1.411A1.661,1.661,0,0,0,15.9,2.8c.173.143.535.292.673.208,1.182-.719,2.543-.463,3.8-.7.8-.15,1.415-.315,1.7-1.24.213.247.348.336.378.451.233.9.789.748,1.423.491.233-.094.6-.2.752-.087.631.477.717.107.829-.416s.3-1.028.448-1.542c.157.035.315.07.472.107-.087.526-.177,1.051-.259,1.577-.035.219-.052.439-.079.657a6.272,6.272,0,0,1,.631.061,2.051,2.051,0,0,1,.845.222c.948.727,1.256.649,1.82-.469a4.08,4.08,0,0,1,.673-.769l.266.152a5.832,5.832,0,0,0-.142.682c-.04.456-.231,1.051-.019,1.331.175.231.839.093,1.415.126-.021-.073-.009.068.056.177.122.2.264.523.42.535.2.016.448-.192.616-.362.344-.348.647-.734.969-1.1.1.059.2.119.3.18a6.172,6.172,0,0,1-.332.874c-.554.993-.56.981.427,1.617.561.364,1.1.766,1.656,1.135s.483.729-.009,1.082c-1.11.8-2.2,1.633-3.349,2.364a1.507,1.507,0,0,1-1.249.1,18.043,18.043,0,0,0-17.126.056A17.789,17.789,0,0,0,4.96,20.889a18.658,18.658,0,0,0-.871,7.832,13,13,0,0,0,.458,2.217,1.225,1.225,0,0,1-.654,1.523c-.535.346-.881.212-1.1-.334A14.307,14.307,0,0,1,2.209,30.4c-.142-.567-.432-.7-.957-.523-.367.121-.75.191-1.128.283-.045-.08-.089-.161-.135-.24Z" transform="translate(0.01 0.03)" fill="#fff"/>
      <path id="Path_2602" data-name="Path 2602" d="M92.519,38.1c.64-.421,1.3-.813,1.917-1.271q5.7-4.257,11.384-8.542c2.737-2.072,5.44-4.184,8.164-6.271a2.513,2.513,0,0,0,1.028-2.355A23.033,23.033,0,0,1,115,17.3a1.441,1.441,0,0,1,.192-.736.7.7,0,0,1,.565-.283.611.611,0,0,1,.353.488,41.046,41.046,0,0,1-.7,4.818c-.142.586-.838,1.1-1.38,1.518q-7.58,5.833-15.2,11.611c-2.765,2.088-5.594,4.087-8.376,6.152-.479.355-.848.355-1.194-.1-.722-.95-1.422-1.917-2.132-2.875-.365-.495-.087-.782.31-1.07,2.188-1.593,4.363-3.2,6.549-4.795,3.361-2.455,6.734-4.894,10.09-7.357,3.05-2.238,6.08-4.5,9.13-6.739a.906.906,0,0,1,.691-.2c.152.065.217.421.248.659s-.094.474-.052.691c.337,1.731-.685,2.644-1.932,3.564Q105.136,27.826,98.2,33.13c-1.871,1.425-3.669,2.948-5.5,4.435a2.275,2.275,0,0,0-.308.381l.119.154Z" transform="translate(-71.748 -13.425)" fill="#fff"/>
      <path id="Path_2603" data-name="Path 2603" d="M197.084,71.257a9.758,9.758,0,0,1-.848.967.933.933,0,0,0-.275,1.228,26.605,26.605,0,0,1,1.885,6.867,6.32,6.32,0,0,1,.037,2.431c-.128.572.259,1.257.4,1.845a4.2,4.2,0,0,0-.726,1.436,4.763,4.763,0,0,0,.509,1.656c-1.2.017-1.215,1.019-1.478,1.941a15.493,15.493,0,0,1-1.117,2.562c-.381.775-1.186,1.483-.068,2.445-1.436-.652-1.775.57-2.34,1.172-1.778,1.89-3.475,3.854-5.882,4.994a.678.678,0,0,1-.595.023c.325-.282.643-.572.976-.845a19.064,19.064,0,0,0,5.276-6.092,18.376,18.376,0,0,0,1.63-12.7,17.449,17.449,0,0,0-3.27-7.052.63.63,0,0,1,.1-1.035c.827-.644,1.654-1.285,2.494-1.913.388-.29.776-.428,1.075.147.264.507.614.4,1.009.129a9.768,9.768,0,0,1,.953-.514Z" transform="translate(-153.96 -58.525)" fill="#fff"/>
      <path id="Path_2604" data-name="Path 2604" d="M58.869,131.381c.156-.226.25-.362.346-.5.637-.9,1.179-.876,1.791.019.542.792,1.13,1.551,1.707,2.319.287.379.514.769.007,1.117-.439.3-.883.409-1.3-.119-.619-.789-1.282-1.544-1.925-2.313-.068.047-.135.1-.2.143.486.729.944,1.478,1.462,2.184,1.117,1.523,2.28,3.011,3.382,4.546.178.248.131.658.187.993-.3-.143-.717-.206-.894-.444-1.493-2-2.939-4.045-4.407-6.068-1.04-1.434-2.109-2.849-3.123-4.3a2.529,2.529,0,0,1-.182-.972c.308.143.708.212.906.448.539.645.984,1.367,1.483,2.048.217.3.474.561.762.9Z" transform="translate(-45.975 -105.604)" fill="#fff"/>
      <path id="Path_2605" data-name="Path 2605" d="M39.931,214.3a25.984,25.984,0,0,1-3-1.932,43.6,43.6,0,0,1-3.459-3.434c-.164-.175-.061-.6-.08-.913.306.031.79-.049.89.112a25.551,25.551,0,0,0,5.819,5.921c-.056.082-.114.164-.17.248Z" transform="translate(-27.539 -171.64)" fill="#fff"/>
      <path id="Path_2606" data-name="Path 2606" d="M12.289,199.977a11.918,11.918,0,0,1-1.3-1.871c-.1-.217.282-.764.574-1.005a.933.933,0,0,1,.876.114,5.02,5.02,0,0,1,.983,1.207.753.753,0,0,1-.01.7A7.132,7.132,0,0,1,12.289,199.977Z" transform="translate(-9.056 -162.573)" fill="#fff"/>
      <path id="Path_2607" data-name="Path 2607" d="M35.5,181.377c.021-.626.112-1.235.948-1.112.586.086,1.392-.009,1.3.99-.054.621-.229,1.158-1.012,1.145C35.758,182.385,35.468,182.145,35.5,181.377Z" transform="translate(-29.288 -148.725)" fill="#fff"/>
      <path id="Path_2608" data-name="Path 2608" d="M52.389,170.544c-.619-.1-1.332-.114-1.256-.99.049-.56-.023-1.338.929-1.236.588.063,1.352.058,1.25.941-.061.535-.024,1.306-.925,1.284Z" transform="translate(-42.185 -138.872)" fill="#fff"/>
      <path id="Path_2609" data-name="Path 2609" d="M24.982,193.184c-.047.058-.226.278-.406.5q-.6-.716-1.2-1.43c.175-.129.355-.378.523-.371C24.541,191.911,25.048,192.152,24.982,193.184Z" transform="translate(-19.29 -158.321)" fill="#fff"/>
      <path id="Path_2610" data-name="Path 2610" d="M66.419,158.92c.017-.019.208-.219.4-.42l1.138,1.457c-.184.126-.376.369-.549.355C66.765,160.261,66.274,159.992,66.419,158.92Z" transform="translate(-54.782 -130.779)" fill="#fff"/>
    </g>
  </g>
</svg>
