<svg id="Component_263_1" data-name="Component 263 – 1" xmlns="http://www.w3.org/2000/svg" width="342.24" height="342.24" viewBox="0 0 342.24 342.24">
  <g id="Component_230_17" data-name="Component 230 – 17">
    <g id="Rectangle_3295" data-name="Rectangle 3295" transform="translate(171.12) rotate(45)" fill="#fff" stroke="#000" stroke-width="3">
      <rect width="242" height="242" stroke="none"/>
      <rect x="1.5" y="1.5" width="239" height="239" fill="none"/>
    </g>
    <g id="Rectangle_3296" data-name="Rectangle 3296" transform="translate(171.421 30) rotate(45)" stroke="#000" stroke-width="3">
      <rect width="200" height="200" stroke="none"/>
      <rect x="1.5" y="1.5" width="197" height="197" fill="none"/>
    </g>
  </g>
  <g id="Group_273" data-name="Group 273" transform="translate(20.52 17.6)">
    <path id="Path_3149" data-name="Path 3149" d="M255.11,153.83c-4.81,2.48-8.65,4.35-12.38,6.41-8.09,4.47-13.47,10.4-16.57,19.9-8.55,26.17-27.24,42.83-53.44,50.79-5.35,1.63-9.35,4.3-12.13,8.8-3.44,5.57-6.5,11.38-10.13,17.82-.91-1.62-1.57-2.81-2.25-4-2.72-4.75-5.25-9.63-8.21-14.22-2.86-4.44-6.97-6.84-12.25-8.58-28.2-9.3-46.92-28.05-54.98-57.04a14.488,14.488,0,0,0-4.7-7.35c-5-3.75-10.56-6.77-15.93-10.03-1.47-.89-3.09-1.56-5.66-2.84,3.64-1.91,6.18-3.37,8.82-4.61,9.84-4.64,16.54-11.28,20.21-22.31,8.77-26.35,27.76-42.83,54.3-50.32,6.98-1.97,10.22-7.12,13.58-12.37,2.74-4.28,4.76-9.03,7.57-14.48,1.79,3.53,3.34,6.46,4.79,9.44,4.61,9.48,11.27,15.61,21.86,19.32,25.58,8.98,42.64,27.12,50.16,53.47,1.97,6.91,6.61,10.99,12.27,14.32,4.53,2.67,9.32,4.89,15.07,7.86Zm-60.48-.11c2.54-1.22,4.04-1.8,5.39-2.61,5.96-3.59,11.99-7.09,17.73-11,1.23-.84,2.32-3.55,1.9-4.89-7.8-24.6-23.47-41.65-48.35-49.74-3.34-1.08-5.92-.57-7.79,2.38-3.11,4.9-6.12,9.86-9.12,14.83-1.13,1.87-2.14,3.82-3.77,6.74-1.19-2.67-1.74-4.19-2.52-5.59-2.73-4.91-5.47-9.81-8.32-14.64-2.79-4.71-6.64-5.02-11.55-3.2-23.26,8.59-38.74,24.53-46.04,48.24a5.813,5.813,0,0,0,1.37,5.07,134.083,134.083,0,0,0,13.1,9.03c2.87,1.78,6.02,3.1,9.98,5.1-2.24,1.14-3.52,1.76-4.76,2.44-4.79,2.65-9.76,5.05-14.31,8.06-6.73,4.46-6.87,4.74-4.27,12.44,7.88,23.28,24.3,37.97,47.22,45.69,1.78.6,5.18-.33,6.32-1.76a139.789,139.789,0,0,0,9.63-14.43c1.49-2.42,2.58-5.09,4.25-8.46.91,1.85,1.27,2.71,1.74,3.51,3.84,6.56,7.52,13.22,11.71,19.55.85,1.28,3.89,2.23,5.45,1.77,20.7-6.14,36.04-18.77,45.4-38.39,6.73-14.1,5.95-16.49-7.78-23.76-3.85-2.04-7.77-3.94-12.62-6.38Z" fill="#fff"/>
    <path id="Path_3150" data-name="Path 3150" d="M180.29,148.54c-1.19-2.09-2.37-4.19-3.56-6.28l-1.44.21c.19,1.83-.24,4.12.69,5.41,3.59,4.94,4.23,9.67,1.37,14.62.27,2.08.49,4.16.83,6.23a47.56,47.56,0,0,0,1.01,4.71c.8,2.96.5,5.43-2.96,6.21-3.19.72-5.62.12-5.86-3.94a4.732,4.732,0,0,0-1.69-3.19c-.45-.33-2.46.5-2.81,1.25-.44.94.08,2.34.22,3.54.18,1.62.39,3.23.59,4.85-3.09.23-3.35,6.38-8.02,3.6a14.306,14.306,0,0,0-14.43-.23c-5.35,2.85-6.83-2.75-10.9-3.63,1.03-2.16,2.31-3.85,2.53-5.67.15-1.21-1.22-2.61-1.91-3.92a26.054,26.054,0,0,0-2.5,2.77c-1,1.5-1.49,4.01-2.77,4.47-1.52.55-4.38-.04-5.33-1.21-.99-1.23-.5-3.74-.48-5.69a25.163,25.163,0,0,1,.48-3.85,17.994,17.994,0,0,1,1.71-5.92c-3.51-5.19-2.85-10.16.57-15.3.94-1.42.72-3.62,1.03-5.46-.61-.15-1.22-.31-1.82-.46-1.23,2.51-2.45,5.01-3.68,7.52-.49-.25-.97-.5-1.46-.74,1.36-9.36,4.71-17.82,13.16-23.31,14.79-9.61,22.84-7.69,34.87-.6,8.72,5.14,13.22,13.39,13.98,23.36-.47.22-.95.45-1.42.67Zm-27.96-5.49c.18,1.71.03,4.18.76,6.36,1.74,5.21,2.65,5.31,6.82,1.69.99-.86,2.34-2.12,3.34-1.96a53.736,53.736,0,0,1,7.7,2.28c-.9,2.25-1.27,5.04-2.85,6.62-1.67,1.67-4.48,2.18-6.79,3.2-.11.46-.22.91-.33,1.37,2.29.49,5.24,2.11,6.73,1.24,2.92-1.7,5.91-4.43,7.14-7.45.81-1.99-.59-6.29-2.42-7.64-2.74-2.04-6.7-2.49-10.19-3.45-2.91-.8-5.9-1.36-9.91-2.26Zm-2.92.03c-5.22,1.08-9.43,1.85-13.59,2.84a25.1,25.1,0,0,0-6.04,2.14c-3.7,1.98-4.57,5.89-2.58,10.33,1.81,4.04,6.63,6.92,9.95,5.65a9.2,9.2,0,0,0,2.71-2.26c-3.35-2.09-6.59-3.4-8.85-5.68-2.84-2.87-1.8-5.34,2.14-6.56a7.743,7.743,0,0,1,8.59,2.22c1.49,1.58,3.75,3.4,5.18.38s1.83-6.51,2.49-9.06Zm1.12,14.37c-1.9,4.46-3.48,7.48-4.44,10.69-.63,2.09.34,3.36,3.05,2.92,7.9-1.28,8-1.37,3.97-9.08-.52-1-1.11-1.96-2.57-4.53Zm-9.31-3.04c-2.34-1.17-3.57-2.31-4.64-2.17s-1.96,1.56-2.94,2.42c1.07.82,2.08,2.19,3.22,2.31,1,.1,2.15-1.19,4.35-2.56Zm23.38,3.84c1.26-1.56,2.54-2.52,2.78-3.7.14-.66-1.83-2.54-2.19-2.38a7.969,7.969,0,0,0-3.28,2.84c-.19.29,1.42,1.74,2.69,3.23Z" fill="#fff"/>
  </g>
</svg>
