<svg id="Component_243_1" data-name="Component 243 – 1" xmlns="http://www.w3.org/2000/svg" width="342.24" height="342.24" viewBox="0 0 342.24 342.24">
  <g id="Component_230_13" data-name="Component 230 – 13">
    <g id="Rectangle_3295" data-name="Rectangle 3295" transform="translate(171.12) rotate(45)" fill="#fff" stroke="#000" stroke-width="3">
      <rect width="242" height="242" stroke="none"/>
      <rect x="1.5" y="1.5" width="239" height="239" fill="none"/>
    </g>
    <g id="Rectangle_3296" data-name="Rectangle 3296" transform="translate(171.421 30) rotate(45)" stroke="#000" stroke-width="3">
      <rect width="200" height="200" stroke="none"/>
      <rect x="1.5" y="1.5" width="197" height="197" fill="none"/>
    </g>
  </g>
  <g id="Group_265" data-name="Group 265" transform="translate(19.877 17.62)">
    <path id="Path_3058" data-name="Path 3058" d="M175.99,175.58c-2.05-6.79-4.12-13.57-6.14-20.36-3.89-13.05-7.64-26.15-11.74-39.14-.9-2.86-.35-4.27,2.05-5.68,10.18-5.98,20.25-12.16,30.53-17.96,1.51-.85,4.54-.88,5.85.08,8.07,5.91,15.7,12.27,20.05,21.73,2.54,5.53,5.68,10.77,8.46,16.19,1.4,2.72.84,4.76-1.76,6.85-9.59,7.72-18.92,15.76-28.45,23.57-1.31,1.07-3.31,2.29-4.73,2.03-5.57-1.02-7.77,2.2-9.47,6.52-.86,2.18-1.86,4.31-2.8,6.46-.62-.1-1.24-.19-1.86-.29Z" fill="#fff"/>
    <path id="Path_3059" data-name="Path 3059" d="M86.52,166.18c5.46,2.06,10.35,4.14,15.4,5.76,5.79,1.86,9.21,5.52,11.78,11.09,5.64,12.2,11.95,24.09,18.18,36.01,1.52,2.9,1.35,4.76-1.36,6.72a82.034,82.034,0,0,0-6.7,5.98q-6.21,5.63-13.52,1.28a73.18,73.18,0,0,1-29.59-32.17c-1.42-3.01-1.42-6.65-2.45-9.88a90.524,90.524,0,0,0-3.77-9.08c-2.34-5.24-1.86-7.12,2.88-10.12,3.05-1.93,6.16-3.77,9.14-5.58Z" fill="#fff"/>
    <path id="Path_3060" data-name="Path 3060" d="M162.18,186.84a26.018,26.018,0,0,1-3.69-.56c-13.57-4.52-27.08-9.2-40.7-13.57a15.173,15.173,0,0,1-9.62-8.68c-1.6-3.46-3.35-6.84-5.4-10.98,5.31-3.19,10.67-6.37,15.99-9.61,7.18-4.38,14.34-8.81,21.51-13.23,4.67-2.88,5-2.67,6.36,2.81,2.11,8.52,4.09,17.09,6.58,25.5,2.51,8.45,5.6,16.73,8.39,25.1a26.419,26.419,0,0,1,.58,3.22Z" fill="#fff"/>
    <path id="Path_3061" data-name="Path 3061" d="M157.3,98.99a29,29,0,0,0-4.15,1.67Q134.535,111.775,115.98,123c-2.22,1.34-3.62.88-4.72-1.49-3.29-7.07-6.86-14.02-9.91-21.19a6.631,6.631,0,0,1,.73-5.73,70.308,70.308,0,0,1,37.48-23.3c8.33-2.03,8.5-1.85,10.78,6.36,1.82,6.53,3.3,13.16,4.93,19.74l2.04,1.59Z" fill="#fff"/>
    <path id="Path_3062" data-name="Path 3062" d="M183.15,178.78c15.08-12.79,29.2-24.76,43.64-37,.71,1.19,1.44,1.83,1.44,2.48,0,7.05.71,14.24-.4,21.12-1.15,7.13-4.03,13.98-6.27,20.92-1.3,4.04-3.61,5.23-7.97,3.51-7.73-3.06-15.73-5.44-23.6-8.16-1.82-.63-3.56-1.49-6.83-2.87Z" fill="#fff"/>
    <path id="Path_3063" data-name="Path 3063" d="M152.98,244.17c-1.78-1.56-3.9-2.74-5.01-4.53a100.567,100.567,0,0,1-6.37-12.39c-.49-1.12-.21-3.42.63-4.17,7.65-6.91,15.51-13.6,23.3-20.36,1.91-1.66,3.21-1.4,3.97,1.13,2.91,9.71,5.72,19.46,8.85,29.1.91,2.82.02,4.24-2.37,4.93-7.32,2.1-14.68,4.03-22.99,6.29Z" fill="#fff"/>
    <path id="Path_3064" data-name="Path 3064" d="M137.62,219.38c-7.09-13.9-13.8-27.06-20.51-40.23l.83-.89c15.55,5.42,31.1,10.84,47.84,16.68C156.09,203.34,147.1,211.15,137.62,219.38Z" fill="#fff"/>
    <path id="Path_3065" data-name="Path 3065" d="M178.07,183.18c13.06,4.53,25.11,8.72,37.76,13.1a78.294,78.294,0,0,1-23.92,22.46c-.58.35-2.92-.76-3.2-1.6-3.54-10.84-6.86-21.75-10.64-33.97Z" fill="#fff"/>
    <path id="Path_3066" data-name="Path 3066" d="M195.48,71.95a21.324,21.324,0,0,0-3.27,1.22c-8.54,4.86-17.11,9.66-25.53,14.72-3.28,1.98-4.65,1.32-5.53-2.29-1.58-6.43-3.37-12.81-5.26-19.15-.73-2.44-.56-4.1,2.33-4.07,12.54.12,24.71,1.94,37.26,9.58Z" fill="#fff"/>
    <path id="Path_3067" data-name="Path 3067" d="M85.13,105.74c4.98,7.94,9.51,15.01,13.77,22.24.45.76-.39,2.81-1.24,3.68-1.72,1.78-4.2,2.87-5.74,4.76-4.18,5.1-8.84,2.98-13.46,1.24a3.412,3.412,0,0,1-1.84-2.59,72.641,72.641,0,0,1,8.51-29.32Z" fill="#fff"/>
    <path id="Path_3068" data-name="Path 3068" d="M142.12,243.31l-16.95-3.39c-.19-.51-.38-1.03-.57-1.54,3.5-3.01,6.96-6.08,10.57-8.96.34-.27,2.07.41,2.41,1.04,1.97,3.71,3.73,7.53,5.55,11.32l-1.02,1.53Z" fill="#fff"/>
    <path id="Path_3069" data-name="Path 3069" d="M102.57,167.19q-6.24-2.37-12.49-4.74c-.16-.48-.31-.96-.47-1.44,2.84-1.44,6.78-4.77,8.29-3.9,2.77,1.59,4.12,5.67,6.06,8.72Z" fill="#fff"/>
  </g>
</svg>
