<svg id="Component_237_1" data-name="Component 237 – 1" xmlns="http://www.w3.org/2000/svg" width="342.24" height="342.24" viewBox="0 0 342.24 342.24">
  <g id="Component_230_3" data-name="Component 230 – 3">
    <g id="Rectangle_3295" data-name="Rectangle 3295" transform="translate(171.12) rotate(45)" fill="#fff" stroke="#000" stroke-width="3">
      <rect width="242" height="242" stroke="none"/>
      <rect x="1.5" y="1.5" width="239" height="239" fill="none"/>
    </g>
    <g id="Rectangle_3296" data-name="Rectangle 3296" transform="translate(171.421 30) rotate(45)" stroke="#000" stroke-width="3">
      <rect width="200" height="200" stroke="none"/>
      <rect x="1.5" y="1.5" width="197" height="197" fill="none"/>
    </g>
  </g>
  <g id="Group_257" data-name="Group 257" transform="translate(22.33 17.614)">
    <path id="Path_3072" data-name="Path 3072" d="M82.86,112.84c24.35-7.33,49.68-10.59,74.44-16.22-.02-.44-.05-.88-.07-1.33a9.914,9.914,0,0,0-2.89-.47c-9.71,1.45-19.4,3.13-29.13,4.42-3.53.47-7.73,3.11-10.52-1.92-.24-.44-2.5,0-3.72.38-14.59,4.47-29.16,9-45.42,14.04,28.6-28.05,56.26-55.18,83.92-82.32,8.9,9.09,17.79,18.19,27.06,27.67-4.44,1.86-8.84,3.7-13.25,5.54l.6,1.68c3.49-1.11,7.24-1.74,10.39-3.47,4.09-2.23,6.8-1.3,9.38,2.09,1.14,1.49,2.58,2.76,4.37,4.64-16.57,4.6-32.26,8.95-47.94,13.31.15.72.3,1.44.45,2.17a47.216,47.216,0,0,0,4.76-.78c14.3-3.79,28.57-7.68,42.89-11.39,1.24-.32,3.26-.12,4.06.69,6.05,6.13,11.89,12.47,18.19,19.17-4.19,1.02-8.69,2.28-13.26,3.19-18.6,3.7-37.24,7.18-55.81,10.98-11.24,2.3-22.33,5.43-33.62,7.46-8.05,1.45-16.32,1.72-24.48,2.51-.13-.67-.27-1.35-.4-2.02Z" fill="#fff"/>
    <path id="Path_3073" data-name="Path 3073" d="M208.29,218.51c-2.03.52-4.24,1.84-6.08,1.44-17.87-3.91-35.65-8.18-53.51-12.15-4.43-.99-9.02-1.27-13.54-1.87-.1.48-.2.95-.3,1.43,8.98,2.62,17.95,5.24,28.02,8.18-1.88,1.12-2.69,1.61-3.56,2.13,10.4,7,24.75,4.41,33.23,15.89a22.516,22.516,0,0,1-3.69-.58c-6.14-2-12.25-4.09-18.37-6.14-.26.76-.51,1.52-.77,2.28,6.39,2.31,12.77,4.61,19.27,6.96-.02.35.13,1.01-.12,1.27-6.83,7.03-13.59,14.15-20.69,20.9-1.08,1.03-3.9.62-5.81.3-4.94-.84-9.83-2-14.74-3.04-.18.64-.36,1.28-.55,1.92,5.24,1.75,10.47,3.5,16.42,5.49-4.86,5.25-9.12,9.99-13.63,14.48-.5.5-2.93-.05-3.72-.86q-30.57-31.23-60.94-62.65c-3.89-4.02-7.62-8.2-11.87-12.79,14.69,3.91,29.02,7.73,43.36,11.55.25-.78.49-1.56.74-2.33L70.97,194.54l.3-1.32c4.11.28,8.24.37,12.33.87,10.41,1.27,20.79,2.77,31.2,4.08,18.48,2.32,37.01,4.36,55.44,7.02,3.97.57,7.59,3.36,11.46,4.91a57.424,57.424,0,0,0,8.49,2.71c5.92,1.36,11.89,2.48,17.84,3.69.08.68.17,1.36.25,2.04Z" fill="#fff"/>
    <path id="Path_3074" data-name="Path 3074" d="M45.95,172.71c7.76-1.8,15.24-3.29,22.56-5.35,3.71-1.04,7-3.58,10.72-4.62,9.89-2.78,19.89-5.14,29.87-7.6,10.47-2.58,20.88-5.52,31.46-7.53A405.961,405.961,0,0,1,235,141.25c6.74.31,11.3,2.1,16.49,7.42a37.112,37.112,0,0,1-5.04.36c-25.65-2.48-51.19-1.09-76.57,2.71-16.25,2.43-32.6,4.9-48.45,9.1-20.55,5.45-40.65,12.6-60.92,19.12-7.3,2.35-9.88,1.37-14.56-7.25Z" fill="#fff"/>
    <path id="Path_3075" data-name="Path 3075" d="M65.73,127.8c2.88-.85,4.39-1.41,5.95-1.75,21.09-4.66,42.74-7.63,63.1-14.43,17.59-5.87,35.79-6.88,53.41-11.4,5.95-1.52,11.8-3.42,17.73-5.02,8.24-2.22,10.31-1.45,15.66,5.47C207.81,114.75,87.96,136.24,65.72,127.8Zm125.89-20.45c-.15-.63-.3-1.26-.45-1.9q-17.22,3.975-34.43,7.94l.45,1.9,34.43-7.95Z" fill="#fff"/>
    <path id="Path_3076" data-name="Path 3076" d="M99.41,187.77c9.43-5.24,109.02,3.81,126.61,11.16-2.32,4.05-5.09,6.67-10.23,5.72-10.95-2.01-21.92-3.88-32.89-5.76-2.2-.38-4.54-1.41-5.95,1.74-.32.72-2.37,1.14-3.49.95q-35.865-6.255-71.71-12.72a12.807,12.807,0,0,1-2.35-1.09Z" fill="#fff"/>
    <path id="Path_3077" data-name="Path 3077" d="M35.67,161.3c-.12-.47,34.31-12.31,78.92-20.06a512.666,512.666,0,0,1,117.73-6.64q7.47,5.22,14.94,10.43-7.86-4.545-15.71-9.08a451.291,451.291,0,0,0-75.1,2.32c-10.1,1.15-17.36,2.32-27.4,3.95-54.95,8.92-93.25,19.56-93.38,19.07Z" fill="#fff"/>
    <path id="Path_3078" data-name="Path 3078" d="M214.26,211.44c-6.55-1.71-13.11-3.42-20.24-5.28,4.55-1.85,15.39.37,20.52,3.8-.1.49-.19.98-.29,1.48Z" fill="#fff"/>
    <path id="Path_3079" data-name="Path 3079" d="M167.89,135.2q5.8-.555,11.6-1.1c.05.5.11.99.16,1.49q-5.85.63-11.69,1.27c-.02-.55-.05-1.1-.07-1.65Z" fill="#fff"/>
    <path id="Path_3080" data-name="Path 3080" d="M158.15,137.99q-5.7.69-11.41,1.39l-.21-1.32q5.61-1.02,11.22-2.05c.13.66.27,1.32.4,1.98Z" fill="#fff"/>
  </g>
</svg>
