<svg id="heavenly-rebuke-charm" xmlns="http://www.w3.org/2000/svg" width="60" height="60" viewBox="0 0 60 60">
  <rect id="Rectangle_3319" data-name="Rectangle 3319" width="60" height="60" fill="none"/>
  <g id="Layer_1-2" transform="translate(15 9)">
    <path id="Path_2832" data-name="Path 2832" d="M29.984,9.752c-1.126-.868-2.214-1.785-3.33-2.667-.952-.753-1.029-.727-1.471.378-.488,1.217-.795,1.356-2.061.913a16.6,16.6,0,0,1-1.708-.642c-.574-.274-1.213-.57-.893-1.428a3.368,3.368,0,0,0-.669-3.255A6.868,6.868,0,0,0,15.607.364a13.811,13.811,0,0,0-6.29,0A6.636,6.636,0,0,0,5.028,5.085C4.345,7.341,3.8,9.639,3.2,11.919c-.1.368-.15.748-.223,1.123l1.246-.15a1.5,1.5,0,0,0,.2.49,5.24,5.24,0,0,0,.654.567c.164-.244.431-.471.474-.734.371-2.245.678-4.5,1.049-6.747a5.349,5.349,0,0,1,3.537-4.3,7.217,7.217,0,0,1,5.05.024,5.082,5.082,0,0,1,3.2,2.985,1.179,1.179,0,0,1-.181,1.009c-.145.164-.642.126-.934.03-.633-.2-1.219-.565-1.855-.748-.809-.232-1.13-.6-.781-1.452.227-.547.044-1.077-.6-1.077a23.024,23.024,0,0,0-3.971.251A1.976,1.976,0,0,0,8.862,4.4c-.746,2.373-1.356,4.787-2.028,7.182-.242.863-.516,1.717-.774,2.575C5.71,15.318,5.37,16.485,5,17.642a6.866,6.866,0,0,1-.41.875c-.188-.258-.371-.521-.565-.774a3.459,3.459,0,0,0-.483-.558c-.044-.037-.34.1-.34.159a2.369,2.369,0,0,0,.113.807c.155.425.384.825.554,1.245a6.9,6.9,0,0,0,.668,1.665,15.826,15.826,0,0,0,1.693,1.532,2.4,2.4,0,0,1,.357.654l-.2.176a5.784,5.784,0,0,1-.9-.57c-.865-.805-1.686-1.66-2.557-2.46-.178-.164-.5-.169-.757-.248.049.281.01.628.164.828.277.361.732.589,1,.957.194.27.38.889.265.985-.919.762-.671,1.928-1.023,2.866C1.6,28.423.843,31.151.032,33.855A.927.927,0,0,0,.3,34.6c.636.633,1.341,1.2,1.986,1.822.418.4.713.425,1.173.005a1.266,1.266,0,0,1,1.111-.167q3.295,1.36,6.532,2.857c.384.178.621.659.947.976a4.228,4.228,0,0,0,.384.319h0c0,.488,2.854,1.452,4.292.286a1.855,1.855,0,0,0,.513-.615c.694-1.435,1.342-2.889,2-4.341.807-1.789,1.649-3.562,2.387-5.38.513-1.264.823-1.539,2.162-1.477a5.7,5.7,0,0,0,.978-.119c-.009-.138-.019-.274-.028-.411a6.63,6.63,0,0,1-1.086-.016,1.966,1.966,0,0,1-.6-.361c.164-.166.3-.422.5-.479.385-.112.823-.049,1.2-.173a5.443,5.443,0,0,0,1.1-.6.692.692,0,0,0-.112-.279c-.415.059-.823.157-1.238.214a8.386,8.386,0,0,1-.839.037,3.283,3.283,0,0,1,.024-.9,7.234,7.234,0,0,1,.474-.818c.729-1.607,1.428-3.229,2.165-4.831,1.342-2.917,2.73-5.814,4.036-8.748a1.291,1.291,0,0,0-.363-1.651Zm-11.236,1.8a1.909,1.909,0,0,1,.884-.286,3.9,3.9,0,0,1,2.115.769c.22.127.4.241.507.314q-3.5,1.81-7,3.621l-1.381.6c-.066.377-.131.755-.2,1.133.213.009.441.007.682-.005.1-.005.207-.014.307-.023a.7.7,0,0,1,0,.565.679.679,0,0,1-.284.3l-2.17,2.216c2.688-1.18,4.737-2.02,5.6-2.331.282-.1.919-.331,1.233-.031.443.422,0,.828-.176,1.185-.7,1.44-1.487,2.835-2.1,4.318a3.386,3.386,0,0,0-.5.628c-.012.012-.026.026-.038.04a.115.115,0,0,0,0,.024A5.538,5.538,0,0,0,15.654,26l-.837.774c-.274-.01-.568-.033-.884-.071-.343-.044-.662-.1-.95-.164l1.546-1.069c.148-.4.293-.835.427-1.3.153-.526.274-1.027.371-1.5l.485-.143c-.1-.275-.19-.551-.286-.826q.173-.374.345-.764c.1-.221.192-.439.282-.657L14.7,20.71q-2.16.633-4.317,1.259c-.2-.033-.408-.068-.612-.1A29.832,29.832,0,0,0,11.5,19.4c.267-.424.513-.84.743-1.248l-1.665-1.44c.493-.364.87-.633,1.041-.746l.124-.082c.063-.042.166-.11.356-.23l.865-.547c3.067-1.911,3.973-2.458,5.788-3.556ZM16.962,27.133c-.221.248-.443.493-.666.741l-.72.8c-.818-.234-1.454-.432-2.1-.593-.553-.138-1.119-.223-1.677-.343a1.721,1.721,0,0,1-.483-.166c-.98-.554-1.951-1.123-2.927-1.679-.385-.22-.907-1.525-.65-1.855a.855.855,0,0,1,.779-.146,2.213,2.213,0,0,1,.72.61A8.418,8.418,0,0,0,15.9,26.84,3.772,3.772,0,0,1,16.962,27.133ZM5.7,20.988a1.791,1.791,0,0,1-.347-2.123A43.464,43.464,0,0,0,6.8,14.33q.573-1.859,1.128-3.725C8.421,8.971,8.965,7.351,9.371,5.7c.413-1.675.589-1.886,2.312-1.909h.349l.005-.073,1.518.143A10.179,10.179,0,0,1,13.3,5.3c-.76,2.366-1.548,4.723-2.336,7.08q-1.088,3.253-2.191,6.5C8.423,19.926,8.079,20.97,7.7,22c-.209.567-.525.636-.938.129-.328-.4-.727-.746-1.062-1.142Zm.469,5.558c-.7,2.172-1.484,4.318-2.24,6.471-.258.736-.5,1.482-.8,2.2a.69.69,0,0,1-.537.361,3.419,3.419,0,0,1-1.6-2.017c.26-.886.507-1.776.779-2.659q.894-2.9,1.818-5.786c.056-.176.263-.465.34-.446A7.2,7.2,0,0,1,5.94,25.3c.244.145.345.87.227,1.239Zm.27-2.272a2.235,2.235,0,0,1-.542.343c-.546-.275-1.088-.521-1.6-.825-.131-.077-.155-.333-.228-.507.174-.061.384-.218.516-.169a19.388,19.388,0,0,1,1.776.781.392.392,0,0,1,.073.375Zm1.3,5.756-.052,2.362q-.154-1.111-.31-2.224c-.134.108-.268.216-.4.326-.134,3.236-.187,4.085-.2,4.085s.058-1.482-.127-3.553c-.035-.4-.073-.736-.1-.99q1-.468,2.012-.966,1.417-.7,2.767-1.4c.329.084.676.164,1.041.235q.345.068.675.12l-5.293,2Zm12.6,1.881c-.92,1.9-1.668,3.884-2.608,5.774-.821,1.649-.931,1.954-1.449,2.278a3.906,3.906,0,0,1-3.176.153,1.3,1.3,0,0,0,.1-.244c.146-.493.157-1.032.333-1.511.53-1.436,1.117-2.854,1.677-4.28.5-1.267.947-2.557,1.51-3.8a1.179,1.179,0,0,1,.962-.577,13.188,13.188,0,0,1,2.165.851C20.485,30.834,20.692,31.174,20.335,31.911Zm1.152-2.535c-.275.248-.683.617-.952.553A17.7,17.7,0,0,1,17.941,29c-.159-.066-.359-.448-.31-.516a2.643,2.643,0,0,1,.594-.5c1.077.258,2.01.45,2.915.729.178.056.4.621.347.666Zm7.93-18.01c-1.194,2.6-2.324,5.232-3.485,7.848-1.022,2.3-2.055,4.6-3.084,6.895a1.851,1.851,0,0,1-2.012,1.072c-.518-.056-1.039-.1-1.553-.173-.854-.126-1.116-.61-.791-1.424q2.429-6.088,4.859-12.179c.662-1.665,1.363-3.319,1.94-5.014.268-.788.673-.723,1.149-.378.938.68,1.832,1.421,2.737,2.144a.862.862,0,0,1,.241,1.206Z" transform="translate(-0.018 0)" fill="#fff"/>
  </g>
</svg>
