<svg id="hunter-charm" xmlns="http://www.w3.org/2000/svg" width="60" height="60" viewBox="0 0 60 60">
  <rect id="Rectangle_3323" data-name="Rectangle 3323" width="60" height="60" fill="none"/>
  <g id="Layer_1-2" transform="translate(13 10)">
    <path id="Path_2833" data-name="Path 2833" d="M33.324,10.206c-2.758-.807-5.5-1.667-8.276-2.411-1.116-.3-2.2-.462-2.078-1.98a.175.175,0,0,0-.033-.08A10.25,10.25,0,0,0,15.739.3,14.308,14.308,0,0,0,8.717.6a6.436,6.436,0,0,0-4.266,4A38.922,38.922,0,0,0,3.194,9.564c-.1.391-.087.955-.342,1.133-.994.69-.847,1.823-1.219,2.746-.19.472.077.647.528.591.2-.024.389-.078.629-.129a2.012,2.012,0,0,0,.164.321c.19.218.389.427.584.642a6.133,6.133,0,0,0,.483-.814,7.546,7.546,0,0,1,.234-.91A1.387,1.387,0,0,0,4.3,11.52a1.023,1.023,0,0,1-.033-.812C4.991,8.911,5.7,7.1,6.527,5.353a4.822,4.822,0,0,1,2.43-2.728A9.024,9.024,0,0,1,17.8,3.707a14.448,14.448,0,0,1,1.874,1.677c.132.132.1.474.058.7-.012.061-.37.126-.537.077-2.76-.795-5.519-1.588-8.265-2.425-1.712-.521-2.169-.286-2.69,1.473-.746,2.524-1.525,5.04-2.273,7.562C5.27,15.108,4.6,17.449,3.917,19.789c-.945,3.26-1.867,6.527-2.836,9.78-.268.9-.661,1.771-1,2.653A1.025,1.025,0,0,0,.75,33.713c.574.2,1.175.321,1.763.481C7,35.414,11.482,36.621,15.96,37.858c2.683.743,5.345,1.559,8.033,2.28.561.152,1.316.391,1.609-.506q.988-3.018,1.956-6.041c.743-2.319,1.468-4.642,2.212-6.961.947-2.953,1.892-5.908,2.863-8.854q.868-2.633,1.82-5.237A1.589,1.589,0,0,0,33.319,10.2ZM19.546,3.491l1.719,1.965-.288.237Zm.141,12.3a.632.632,0,0,1,.588-.1c1.6.778,1.576.251.823,1.989q-.7,1.624-1.428,3.237a2.218,2.218,0,0,1-2.211,1.428h0c.265-1.022.5-1.954.748-2.882.214-.8.4-1.607.69-2.38a5.106,5.106,0,0,1,.788-1.29Zm-3.661,4.7c.1-1.7.265-3.4.422-5.092a.531.531,0,0,1,.23-.384,1.393,1.393,0,0,1,1.933,1.424c-.417,1.914-.961,3.8-1.477,5.791h0A1.8,1.8,0,0,1,16.027,20.488ZM9.548,23.581c-.323-1.527-.317-1.532,1.3-1.707,1.227-.132,2.455-.274,3.684-.378a2.161,2.161,0,0,1,2.235,1.212h0c-1.159.307-2.252.6-3.344.887a17.718,17.718,0,0,1-2.073.513A5.284,5.284,0,0,1,9.826,24C9.711,23.98,9.582,23.738,9.548,23.581Zm6.4,1.2c-1.647.833-3.33,1.6-5.111,2.448v0h0v0c-.274-.574-.675-1.032-.642-1.457A1.553,1.553,0,0,1,11,24.632c1.885-.635,3.813-1.144,5.729-1.7A1.571,1.571,0,0,1,15.948,24.784ZM21.9,28.807c-.392.333-.811.633-1.3,1.008h0c-1.117-1.527-2.235-2.993-3.276-4.51a1.935,1.935,0,0,1,.094-2.134,3.328,3.328,0,0,1,.445.319c1.185,1.194,2.39,2.373,3.534,3.609a4.3,4.3,0,0,1,.649,1.3.474.474,0,0,1-.139.413Zm2.106-2.367a2.709,2.709,0,0,0-.241.35,1.2,1.2,0,0,1-1.878.312c-1.379-1.262-2.7-2.585-4.039-3.889a1.551,1.551,0,0,1-.2-.35h0a1.958,1.958,0,0,1,2.169-.007c1.37.933,2.725,1.893,4.092,2.833.335.23.361.458.1.751Z" transform="translate(0.034 -0.001)" fill="#fff"/>
  </g>
</svg>
