<svg id="Component_249_1" data-name="Component 249 – 1" xmlns="http://www.w3.org/2000/svg" width="342.24" height="342.24" viewBox="0 0 342.24 342.24">
  <g id="Component_230_11" data-name="Component 230 – 11">
    <g id="Rectangle_3295" data-name="Rectangle 3295" transform="translate(171.12) rotate(45)" fill="#fff" stroke="#000" stroke-width="3">
      <rect width="242" height="242" stroke="none"/>
      <rect x="1.5" y="1.5" width="239" height="239" fill="none"/>
    </g>
    <g id="Rectangle_3296" data-name="Rectangle 3296" transform="translate(171.421 30) rotate(45)" stroke="#000" stroke-width="3">
      <rect width="200" height="200" stroke="none"/>
      <rect x="1.5" y="1.5" width="197" height="197" fill="none"/>
    </g>
  </g>
  <path id="Path_5559" data-name="Path 5559" d="M201.71,121.06a21.55,21.55,0,0,1,.62-4.28c.31-.9,1.29-1.58,1.97-2.35.54.7,1.62,1.46,1.55,2.1-.65,6.53,3.32,5.86,7.94,6.01,11.65.38,23.28,1.42,34.89,2.5,1.13.1,2.69,2.14,2.97,3.5.49,2.39.14,4.95.14,7.86a27.455,27.455,0,0,1-4.02.35c-11.62-.75-23.24-1.5-34.85-2.4-4.38-.34-8.26-.51-7.1,5.8.1.53-.43,1.18-.77,2.04-1.5-.32-2.88-.62-4.23-.91-2.32,6.92-1.61,8.27,4.88,9.14,4.46.6,8.95.96,13.41,1.49,6.03.71,3.51,5.45,3.79,8.62.34,3.8-2.45,3.63-5.13,3.19a59.43,59.43,0,0,0-7.9-1.14c-6.61-.19-10.05,3.4-10,10,.03,3.5-.28,7.01,0,10.49.26,3.39,1.52,6.74,1.53,10.12.02,5.48-.61,10.96-.94,16.12-4.71,1.43-7.3.77-10.11-1.94-4.11-3.96-9.52-5.09-15.27-4.59-1.69.15-3.89.07-5.11-.87-4.66-3.61-9.93-4.41-15.54-4.29-5.83.12-11.66.22-17.49.35-.66.01-1.55-.08-1.95.29-5.51,5.19-12.6,4.22-19.23,5.3-2.47.4-5.46,1.69-6.86,3.58-2.64,3.56-6.31,4.07-9.13,2.54-1.99-1.08-3.2-4.97-3.36-7.68-.22-3.84,1.13-7.73,1.3-11.63.46-10.58,3.7-18.28.21-21.44a17.7,17.7,0,0,1-3.1-2.88,14.857,14.857,0,0,1-2.58-4.9q-12.225,1.245-24.45,2.5a8.419,8.419,0,0,1-.41-3.24A8.759,8.759,0,0,1,70,154.96a10.286,10.286,0,0,1,6.12-2.65c5.62-.72,11.24-1.48,16.89-1.89,4.54-.33,5.78-2.84,4.9-6.71a27.527,27.527,0,0,0-2.93-7.87c-.56-.95-2.03-.89-4.28-1.31a41.807,41.807,0,0,0-6.98-.75,201.289,201.289,0,0,0-21.16,1.55c-4.25.55-10.56,1.29-18.45,1.87a12.168,12.168,0,0,1,2.9-7.35,12.083,12.083,0,0,1,6.58-3.48c15.23-3.46,39.02-4.08,39.02-4.08,1.15-.03,3.66-.22,4.86-1.8.7-.92.9-2.27.58-4.24-.51-3.12-.17-5.64,4.04-5.75s5.24,2.05,4.77,5.65c-.58,4.48,1.32,5.5,5.74,5.44q36.495-.5,72.99-.23c4.56.03,6.15-1.32,5.54-5.64-.55-3.89,1.05-5.5,5.06-5.24a3.959,3.959,0,0,1,2.89,1.1,4.5,4.5,0,0,1,.7,3.06,13.322,13.322,0,0,0,1.94,6.42Zm-10.95,40.75-1.89-.12c-.23,1.12-.39,2.26-.7,3.35-.4,1.37-.92,2.71-1.4,4.06-.58-1.34-1.75-2.74-1.61-3.99.36-3.23-.59-4.4-3.95-4.63-23.42-1.64-46.8-.7-70.19.48-2.87.14-4.27,1.25-4.21,4.24.1,5.49,0,10.98.08,16.47a5.005,5.005,0,0,0,.89,3.19c3.85,3.85,16.31,4.51,20.99,1.23,12.26-8.58,24.94-9.76,37.78-1.62,4.08,2.59,7.82,4.1,12.86,3.8,8.6-.52,11.74-3.06,11.78-11.39.01-3.32.25-6.65.22-9.97a41.759,41.759,0,0,0-.65-5.08Zm-1.71-13.04c.73-.02,1.45-.05,2.18-.07,0-3.36-.22-6.74.06-10.08.34-4.17-1.31-5.51-5.44-5.48-23.32.21-46.64.09-69.96.36-7.7.09-9.55-1.75-9.11,8.94.28,6.79-.13,6.6,6.88,6.54,22.14-.16,44.29-.24,66.43-.12,3.65.02,5.34-.77,5-4.66-.07-.78,1.08-1.67,1.67-2.51a9.84,9.84,0,0,1,1.71,2.57,27.829,27.829,0,0,1,.58,4.5Zm-39.79,34.99c-1.77,2.21-3.44,3.42-3.6,4.8-.1.89,1.95,2.77,3.14,2.86,1.13.08,3.34-1.56,3.37-2.5.04-1.36-1.45-2.76-2.9-5.16Z" transform="translate(22.89 10.547)" fill="#fff"/>
</svg>
