<svg id="Component_318_1" data-name="Component 318 – 1" xmlns="http://www.w3.org/2000/svg" width="342.24" height="342.24" viewBox="0 0 342.24 342.24">
  <g id="Component_230_38" data-name="Component 230 – 38">
    <g id="Rectangle_3295" data-name="Rectangle 3295" transform="translate(171.12) rotate(45)" fill="#fff" stroke="#000" stroke-width="3">
      <rect width="242" height="242" stroke="none"/>
      <rect x="1.5" y="1.5" width="239" height="239" fill="none"/>
    </g>
    <g id="Rectangle_3296" data-name="Rectangle 3296" transform="translate(171.421 30) rotate(45)" stroke="#000" stroke-width="3">
      <rect width="200" height="200" stroke="none"/>
      <rect x="1.5" y="1.5" width="197" height="197" fill="none"/>
    </g>
  </g>
  <g id="Layer_1-2" transform="translate(34.11 34.088)">
    <g id="Group_148" data-name="Group 148" transform="translate(46.89 70.09)">
      <path id="Path_3676" data-name="Path 3676" d="M170.53,70.09c7.169,4.424,14.246,8.867,21.433,13.135.817.486,2.286.184,3.35-.119a20.628,20.628,0,0,0,2.763-1.6c2.506-1.193,6.131-3.956,7.38-3.13,3.837,2.506,7,6.214,9.876,9.895.606.78-.615,4.094-1.891,5.058-14.255,10.776-28.675,21.332-40.121,35.311-2.91,3.552-6.086,6.829-6.031,11.988,0,.826-2.377,2.432-3.616,2.4a20.164,20.164,0,0,1-13.97-6.049c-3.451-3.46-6.838-6.994-10.033-10.693-.606-.7-.174-2.286-.22-3.46a13.145,13.145,0,0,1,3.635,1.221c.789.551,1.01,1.863,1.661,2.7,4.314,5.59,8.1,5.131,11.96-.468,8.041-11.648,14.576-24.526,26.077-33.485,2.653-2.065,2.185-3.488-.542-5.094-4.6-2.717-9.014-5.746-13.585-8.509-3.148-1.9-4.488-3.727-.67-6.343a17.257,17.257,0,0,0,2.552-2.744Z" transform="translate(-54.482 -70.09)" fill="#fff"/>
      <path id="Path_3677" data-name="Path 3677" d="M193.384,185.927c-8.215,1.065-15.678,2.139-23.167,2.919-1.671.174-4.149-.092-5.058-1.175-4.745-5.636-9.105-11.593-13.759-17.642,5.682-2.387,11.5-4.947,17.431-7.205.863-.33,2.644.5,3.369,1.349a34.776,34.776,0,0,1,4.369,6.425c3.029,5.746,7.251,9.6,14,10.51,3.616.486,3.506,3.112,2.827,4.81Z" transform="translate(-55.472 -77.699)" fill="#fff"/>
      <path id="Path_3678" data-name="Path 3678" d="M174.907,211.267c-4.351-.229-8.178-.8-11.969-.569-7.3.441-11.712-3.745-15.375-9.069A121.545,121.545,0,0,0,117.19,171.44c-3.4-2.4-6.15-5.773-8.931-8.94-.569-.643.083-2.359.165-3.58a17.527,17.527,0,0,1,2.79,1.726c2.35,2.139,4.277,4.957,6.948,6.508a98.467,98.467,0,0,1,32.613,30.988c4.213,6.333,9.445,8.83,16.384,8.454,9.583-.514,19.156-1.358,28.711-2.331,2.506-.257,4.874-1.689,7.38-2.194,1.028-.211,2.267.606,3.415.955a9.677,9.677,0,0,1-1.808,2.368c-9.307,6.361-20.111,4.81-29.941,5.847Z" transform="translate(-51.91 -77.384)" fill="#fff"/>
      <path id="Path_3679" data-name="Path 3679" d="M199.7,194.158c-.294-3.1-.5-5.305-.716-7.628,4.745.688,11.042,8.05,9.941,11.676a6.652,6.652,0,0,1-4.03,3.846c-6.343,1.579-12.8,2.717-19.239,3.837a45.174,45.174,0,0,1-6.416.193c-7.609.2-7.481.211-7.545-7.2-.028-2.836.945-4.553,3.7-4.709,6.214-.358,12.437-.542,18.661-.661a43.516,43.516,0,0,1,5.654.652Z" transform="translate(-57.139 -79.651)" fill="#fff"/>
      <path id="Path_3680" data-name="Path 3680" d="M162.945,157.206c-6.031,1.744-12.052,3.571-18.128,5.149-.716.184-1.753-1.01-2.689-1.478-1.34-.679-3.13-2.166-4.02-1.762-5.012,2.295-6.131-1.7-7.719-4.553-1.762-3.176-3.075-6.609-4.727-10.253,13,3.791,25.012,7.3,37.018,10.794.083.7.174,1.4.257,2.1Z" transform="translate(-53.358 -76.184)" fill="#fff"/>
      <path id="Path_3681" data-name="Path 3681" d="M158.69,200.557c-6.37-7.215-12.456-14.108-18.78-21.267,1.23-1.368,2.506-2.772,3.745-4.14,9.684,5.012,17.642,18.165,15.035,25.4Z" transform="translate(-54.528 -78.717)" fill="#fff"/>
      <path id="Path_3682" data-name="Path 3682" d="M130.383,171.244c-4.9-3.516-10.051-6.746-14.64-10.647-3.589-3.047-3.258-10.556.2-14.218.358-.386,2.662.174,3.1.89,3.8,6.168,7.426,12.456,11.005,18.762a29.925,29.925,0,0,1,1.661,4.3c-.441.3-.881.606-1.322.918Z" transform="translate(-52.335 -76.344)" fill="#fff"/>
      <path id="Path_3683" data-name="Path 3683" d="M95.795,191.375c-3.8.174-7.6.477-11.4.5-10.95.083-21.91.046-32.87.064-.459,0-1.028.184-1.349-.028-1.138-.725-2.194-1.579-3.286-2.387,1.083-.624,2.148-1.744,3.258-1.8,4.25-.193,8.518-.037,12.786-.028,6.691,0,13.392-.092,20.083.018a90.855,90.855,0,0,1,10.1.789c1.01.129,1.928,1.065,2.882,1.625-.064.4-.129.817-.2,1.221Z" transform="translate(-46.89 -79.742)" fill="#fff"/>
      <path id="Path_3684" data-name="Path 3684" d="M80.69,142.464c-5.93,0-11.868.092-17.789-.083-1.092-.037-2.148-1.157-3.222-1.772.955-.716,1.9-2.038,2.873-2.047,10.987-.184,21.983-.266,32.98-.11,2.129.028,4.241,1.23,6.361,1.882-2.038.725-4.057,1.955-6.131,2.074-5,.3-10.042.1-15.072.1v-.046Z" transform="translate(-47.94 -75.697)" fill="#fff"/>
      <path id="Path_3685" data-name="Path 3685" d="M74.737,174.617c-5.507,0-11.015.138-16.513-.092-1.386-.055-2.735-1.267-4.094-1.946,1.294-.7,2.588-1.973,3.9-1.992q17.2-.248,34.4-.028c1.313.018,2.6,1.358,3.9,2.093-1.23.606-2.451,1.707-3.7,1.744-5.957.184-11.923.083-17.89.083v.147Z" transform="translate(-47.485 -78.331)" fill="#fff"/>
      <path id="Path_3686" data-name="Path 3686" d="M125.91,207.8c-1.423.514-2.836,1.432-4.268,1.469-8.041.193-16.081.2-24.122.211-3.9,0-7.8-.055-11.685-.3-.762-.046-1.459-1.129-2.185-1.744.872-.679,1.716-1.918,2.616-1.955,4.562-.193,9.133-.193,13.7-.046,6.489.211,12.979.7,19.468.89a40.221,40.221,0,0,0,6.058-.716c.138.734.285,1.459.422,2.194Z" transform="translate(-49.908 -81.195)" fill="#fff"/>
      <path id="Path_3687" data-name="Path 3687" d="M163.5,112.228c-.257,5.085-5.03,7.921-8.27,6.333-.817-.4-1.6-.89-2.4-1.331-4.525-2.524-5.012-7.527-1.056-10.95.22-.193.624-.5.753-.431,3.864,2.212,7.71,4.47,10.969,6.379Z" transform="translate(-55.283 -73.025)" fill="#fff"/>
      <path id="Path_3688" data-name="Path 3688" d="M84.607,159.947c-2.744,0-5.507.165-8.233-.1-.863-.083-1.615-1.322-2.414-2.029.762-.6,1.505-1.7,2.286-1.726,5.489-.2,10.987-.266,16.476-.129.817.018,1.6,1.358,2.387,2.093-.753.606-1.478,1.661-2.276,1.726-2.726.22-5.489.083-8.233.083v.073Z" transform="translate(-49.113 -77.135)" fill="#fff"/>
      <path id="Path_3689" data-name="Path 3689" d="M94.242,130.568a64.056,64.056,0,0,1-7.747-.1c-1.028-.129-1.909-1.4-2.855-2.148.936-.587,1.854-1.643,2.809-1.671,5.168-.165,10.345-.193,15.512.018.982.037,1.909,1.368,2.855,2.1-.936.6-1.827,1.625-2.809,1.716-2.561.248-5.168.083-7.756.083Z" transform="translate(-49.908 -74.723)" fill="#fff"/>
      <path id="Path_3690" data-name="Path 3690" d="M125.97,137.055c4.387-4.488,11.363-.964,15.081,7.462-5.452-2.7-10.014-4.957-15.081-7.462Z" transform="translate(-53.384 -75.428)" fill="#fff"/>
      <path id="Path_3691" data-name="Path 3691" d="M105.412,114.637c3.7,0,7.417-.129,11.1.147.523.037,1.6,2.552,1.221,3.084-1.368,1.946-10.877.56-12.52-1.615.064-.542.138-1.074.2-1.615Z" transform="translate(-51.679 -73.745)" fill="#fff"/>
      <path id="Path_3692" data-name="Path 3692" d="M102.9,188.98h15.017c-2.8,3.442-9.151,3.708-15.017,1.2Z" transform="translate(-51.489 -79.852)" fill="#fff"/>
    </g>
  </g>
</svg>
