<svg id="long-bow" xmlns="http://www.w3.org/2000/svg" width="60" height="60" viewBox="0 0 60 60">
  <rect id="Rectangle_3318" data-name="Rectangle 3318" width="60" height="60" fill="none"/>
  <g id="Layer_1-2" transform="translate(-3.308 4)">
    <g id="Group_59" data-name="Group 59" transform="translate(8.308 2)">
      <path id="Path_2732" data-name="Path 2732" d="M26.594,67.523l38.471-36.4.363.226a6.266,6.266,0,0,1-.75,1.644c-.954,1.1-1.989,2.14-3.049,3.142q-8.487,8.028-17,16.023Q36.907,59.428,29.19,66.7A3.176,3.176,0,0,1,26.8,67.8l-.215-.276Z" transform="translate(-21.828 -25.549)" fill="#fff"/>
      <path id="Path_2733" data-name="Path 2733" d="M245.149.788c-.3.254-.5.541-.761.623-.825.258-1.073.852-1.318,1.624-.791,2.491-1.7,4.945-2.568,7.411-.158.449-.344.89-.541,1.321-.244.532-.6.811-1.207.485-.53-.288-.9-.643-.492-1.273,1.7-2.625,2.31-5.651,3.221-8.573a6.17,6.17,0,0,1,1.13-1.9,1.588,1.588,0,0,1,1.971-.3c.188.073.312.313.564.584Z" transform="translate(-195.459 -0.005)" fill="#fff"/>
      <path id="Path_2734" data-name="Path 2734" d="M133.667,168.77a10.648,10.648,0,0,1-1.166,1.295c-1.081.879-2.217,1.7-3.325,2.543-.825.63-.877.591-1.875-.423-.577-.585-.562-1.055.036-1.57,1.173-1.008,2.3-2.072,3.522-3.017,1.139-.881,1.71-.739,2.492.417a4.679,4.679,0,0,1,.315.756Z" transform="translate(-104.161 -137.122)" fill="#fff"/>
      <path id="Path_2735" data-name="Path 2735" d="M213.458,90.126a4.329,4.329,0,0,1-.256.645c-.759,1.176-1.511,2.358-2.3,3.513-.285.417-.634.863-1.239.4-.569-.435-.811-.893-.31-1.583.79-1.083,1.483-2.236,2.283-3.312a1.109,1.109,0,0,1,.942-.358C212.916,89.517,213.183,89.895,213.458,90.126Z" transform="translate(-171.642 -73.409)" fill="#fff"/>
      <path id="Path_2736" data-name="Path 2736" d="M170.165,146.631c-.079.244-.081.355-.136.408-.915.885-1.808,1.8-2.793,2.6-.131.106-.811-.3-1.1-.609a.925.925,0,0,1,0-.91,29.806,29.806,0,0,1,2.376-2.283.846.846,0,0,1,.793-.048A5,5,0,0,1,170.165,146.631Z" transform="translate(-136.296 -119.624)" fill="#fff"/>
      <path id="Path_2737" data-name="Path 2737" d="M49.82,231.814c-.107.136-.272.537-.56.671-1.021.473-2.075.874-3.135,1.255-.244.088-.716.086-.8-.048a1.1,1.1,0,0,1-.041-.9,1.877,1.877,0,0,1,.72-.845,27.384,27.384,0,0,1,2.557-1.244C49.351,230.365,49.785,230.691,49.82,231.814Z" transform="translate(-37.114 -189.294)" fill="#fff"/>
      <path id="Path_2738" data-name="Path 2738" d="M3.682,246.24c.052.039.442.181.5.4a1.835,1.835,0,0,1-.161,1.067.9.9,0,0,1-.589.365,2.725,2.725,0,0,0-2.19,1.592c-.1.242-.684.283-1.046.417-.063-.4-.272-.836-.167-1.18a3.53,3.53,0,0,1,3.656-2.664Z" transform="translate(0.004 -202.152)" fill="#fff"/>
      <path id="Path_2739" data-name="Path 2739" d="M103.52,200.956a5.522,5.522,0,0,1,.686-.867A9.542,9.542,0,0,1,105.733,199a1.1,1.1,0,0,1,.951-.057,2.919,2.919,0,0,1,.8,1.115c.052.115-.229.451-.424.6a20.452,20.452,0,0,1-1.767,1.214c-.281.17-.781.4-.929.281a4.919,4.919,0,0,1-.84-1.2Z" transform="translate(-84.984 -163.255)" fill="#fff"/>
      <path id="Path_2740" data-name="Path 2740" d="M74.282,224.2l1.182-.859c.269.406.686.791.748,1.227.034.243-.521.571-.811.859-.326-.356-.65-.713-1.121-1.227Z" transform="translate(-60.98 -183.352)" fill="#fff"/>
      <path id="Path_2741" data-name="Path 2741" d="M88.92,215.918c.473-.4.722-.732,1.049-.85.385-.138,1.021.662.877,1.207-.086.322-.508.555-.779.827l-1.146-1.184Z" transform="translate(-72.998 -176.548)" fill="#fff"/>
      <path id="Path_2742" data-name="Path 2742" d="M233.735,75.234c-.53.347-.9.725-1.037.654a5.4,5.4,0,0,1-1.038-.922c.218-.2.5-.612.643-.569a7.688,7.688,0,0,1,1.434.838Z" transform="translate(-190.181 -61.073)" fill="#fff"/>
      <path id="Path_2743" data-name="Path 2743" d="M200.794,124.5a5.585,5.585,0,0,1-.736.673,5.579,5.579,0,0,1-1.026-.976,1.718,1.718,0,0,1,.476-.575,11.738,11.738,0,0,1,1.286.879Z" transform="translate(-163.393 -101.491)" fill="#fff"/>
      <path id="Path_2744" data-name="Path 2744" d="M32.033,243.838c.091.238.319.544.242.7a3.289,3.289,0,0,1-.709.75c-.145-.186-.448-.428-.4-.55a4.678,4.678,0,0,1,.585-.951Z" transform="translate(-25.578 -200.14)" fill="#fff"/>
      <path id="Path_2745" data-name="Path 2745" d="M190.8,134c.27.4.555.8.788,1.226.029.054-.328.39-.338.381a10.119,10.119,0,0,1-1.067-.926c-.036-.036.152-.29.236-.442.127-.079.254-.159.383-.238Z" transform="translate(-156.123 -110.008)" fill="#fff"/>
    </g>
  </g>
</svg>
