<svg id="masamunes-edge-katana" xmlns="http://www.w3.org/2000/svg" width="60" height="60" viewBox="0 0 60 60">
  <rect id="Rectangle_3309" data-name="Rectangle 3309" width="60" height="60" fill="none"/>
  <g id="Layer_1-2" transform="translate(-130.295 -63.126)">
    <g id="Group_46" data-name="Group 46" transform="translate(139.294 76.126)">
      <path id="Path_2611" data-name="Path 2611" d="M82.065,22.763c.507-.32,1.04-.605,1.52-.965q6.18-4.637,12.34-9.3c2.593-1.971,5.153-3.989,7.734-5.977a1.919,1.919,0,0,0,.78-1.743c-.04-.93-.026-1.862-.012-2.794a1.112,1.112,0,0,1,.163-.656.939.939,0,0,1,.64-.318c.115,0,.35.346.33.511a42.8,42.8,0,0,1-.691,4.734,3.253,3.253,0,0,1-1.277,1.5q-8.881,6.793-17.806,13.529c-1.927,1.457-3.91,2.838-5.846,4.284-.642.479-1.025.29-1.427-.3-.575-.839-1.173-1.668-1.817-2.455-.442-.54-.379-.864.182-1.268q4.4-3.155,8.757-6.367t8.715-6.425q4.147-3.056,8.3-6.1a.876.876,0,0,1,.7-.178c.147.065.187.427.224.666.026.166-.086.357-.051.518.437,1.981-.876,2.964-2.212,3.961q-8.438,6.282-16.855,12.6c-.918.691-1.731,1.52-2.591,2.285.066.086.135.173.2.261Z" transform="translate(-63.048 -0.833)" fill="#fff"/>
      <path id="Path_2612" data-name="Path 2612" d="M12.057,0A14.315,14.315,0,0,1,13.33,1.007q5.694,5.611,11.357,11.251c.657.657,1.249,1.238,2.249.691.117-.063.317.024.488.044a1.676,1.676,0,0,1-2.1,1.219,1.112,1.112,0,0,0-.505-.079q-2.872.5-5.736,1.021a3.374,3.374,0,0,0-.614.322,10,10,0,0,0,1.124.6c.628.227,1.285.369,1.906.612.21.082.344.358.512.547-.255.084-.546.289-.762.231a21.649,21.649,0,0,1-2.64-.86,6.026,6.026,0,0,0-4.024-.5c-2.443.623-4.966.937-7.456,1.373a1.054,1.054,0,0,1-.684-.122,59.382,59.382,0,0,1,7.633-2.027C11.438,14.155,8.582,13.6,6.05,12.253l.079-.262a16.137,16.137,0,0,1,2,.369c2.13.671,4.235,1.418,6.363,2.095a6.013,6.013,0,0,0,3.663.275c1.782-.518,3.642-.759,5.464-1.142a3.037,3.037,0,0,0,.717-.362,3.778,3.778,0,0,0-.414-.623Q18.466,7.126,13,1.658c-.435-.437-.8-.941-1.2-1.413L12.057,0Z" transform="translate(-4.995)" fill="#fff"/>
      <path id="Path_2613" data-name="Path 2613" d="M157.019,125.094a10.209,10.209,0,0,1-.981-.762c-3.551-3.489-7.106-6.974-10.625-10.5a5.186,5.186,0,0,0-2.821-1.773,2.786,2.786,0,0,1-.762-.446c.427-.334.71-.692,1.063-.789a1.161,1.161,0,0,1,.934.315,5.45,5.45,0,0,0,2.373,1.362c3.356,1.037,6.673,2.2,10,3.315a.518.518,0,0,1,.323.334c-3.45-.493-6.682-1.808-9.99-2.824l-.2.318q5.506,5.548,11.013,11.1l-.329.351Z" transform="translate(-117.032 -91.434)" fill="#fff"/>
      <path id="Path_2614" data-name="Path 2614" d="M48.209,116.035c.2-.324.306-.528.444-.706.523-.68,1.1-.645,1.6.051.591.829,1.2,1.645,1.829,2.443.311.392.5.761.026,1.117-.455.341-.915.483-1.357-.094-.612-.8-1.271-1.565-1.911-2.345l-.222.149c.54.8,1.056,1.623,1.626,2.4,1.046,1.432,2.125,2.84,3.186,4.258.1.14.255.28.276.435a2.354,2.354,0,0,1-.077.643c-.208-.042-.49-.016-.61-.142a10.426,10.426,0,0,1-.841-1.1c-2.347-3.219-4.7-6.435-7.023-9.672-.157-.22-.089-.6-.124-.911.29.121.677.164.853.378.533.649.979,1.371,1.474,2.053.247.339.528.652.85,1.046Z" transform="translate(-37.159 -92.877)" fill="#fff"/>
      <path id="Path_2615" data-name="Path 2615" d="M2.854,183.05c-.32.3-.523.633-.806.727a1.283,1.283,0,0,1-1.019-.066,3.609,3.609,0,0,1-.9-1.145c-.315-.565.075-.911.5-1.217s.757-.161,1.046.2c.372.469.741.941,1.18,1.5Z" transform="translate(-0.016 -149.499)" fill="#fff"/>
      <path id="Path_2616" data-name="Path 2616" d="M41.616,155.152c-.619-.045-1.224-.107-1.284-.887s.369-1.392.969-1.353c.621.04,1.3.131,1.252.974C42.518,154.463,42.489,155.169,41.616,155.152Z" transform="translate(-33.278 -126.172)" fill="#fff"/>
      <path id="Path_2617" data-name="Path 2617" d="M25.875,165.141c.577.091,1.317-.019,1.212.95-.063.595-.11,1.277-.934,1.179-.56-.066-1.406.063-1.315-.972.058-.649.126-1.271,1.037-1.154Z" transform="translate(-20.492 -136.253)" fill="#fff"/>
      <path id="Path_2618" data-name="Path 2618" d="M55.645,144.042c.045-.047.238-.245.432-.442l1.149,1.408c-.164.114-.337.336-.491.322-.607-.052-1.177-.212-1.088-1.287Z" transform="translate(-45.911 -118.49)" fill="#fff"/>
      <path id="Path_2619" data-name="Path 2619" d="M12.04,177.2c1.2-.379,1.927.161,1.726,1.114-.1.47-.369.647-.713.282A12.632,12.632,0,0,1,12.04,177.2Z" transform="translate(-9.937 -146.116)" fill="#fff"/>
    </g>
  </g>
</svg>
