<svg id="melee-charm" xmlns="http://www.w3.org/2000/svg" width="60" height="60" viewBox="0 0 60 60">
  <rect id="Rectangle_3338" data-name="Rectangle 3338" width="60" height="60" fill="none"/>
  <g id="Layer_1-2" transform="translate(13 10)">
    <g id="Group_66" data-name="Group 66" transform="translate(0 0)">
      <path id="Path_2835" data-name="Path 2835" d="M2.826,13.753a3.093,3.093,0,0,1-.436.078c-.244.007-.49-.009-.736-.016a7.229,7.229,0,0,0,.061-.723c-.019-1.238,1.022-2.01,1.349-3.065.394-1.267.528-2.613.816-3.917a7.146,7.146,0,0,1,3.563-5.1,9.717,9.717,0,0,1,3.2-.9A19.641,19.641,0,0,1,14.12.048c3.936.16,6.687,2.251,8.729,5.457a.705.705,0,0,1,.143.4c-.141,1.3.791,1.471,1.719,1.731,3.046.851,6.081,1.735,9.116,2.62.676.2.908,1.334.575,2.219q-.928,2.474-1.756,4.988c-1.008,3.056-1.989,6.121-2.967,9.185-.934,2.927-1.848,5.859-2.779,8.788-.4,1.243-.805,2.479-1.22,3.715-.317.945-.849,1.165-1.787.877-1.937-.593-3.881-1.168-5.833-1.7-4.336-1.194-8.68-2.36-13.021-3.537-1.231-.335-2.46-.683-3.7-.99-1.459-.361-1.634-.828-.964-2.174a14.214,14.214,0,0,0,.774-2.394C2.3,25.279,3.431,21.32,4.587,17.368q1.833-6.26,3.7-12.512c.45-1.5.992-1.712,2.524-1.243,2.415.737,4.85,1.4,7.277,2.1a5.638,5.638,0,0,0,.832.244,5.085,5.085,0,0,0,.859-.033c-.089-.284-.091-.675-.282-.832A20.949,20.949,0,0,0,16.6,2.906a8.618,8.618,0,0,0-7.554-.415A4.426,4.426,0,0,0,7.167,4.206a21.718,21.718,0,0,0-1.5,3.114c-.342.767-.619,1.562-.961,2.329-.323.725-.854,1.389-.241,2.245.131.183-.042.6-.112.9A8.218,8.218,0,0,1,4,14.03a4,4,0,0,1-.481.722c-.187-.216-.378-.427-.553-.654a1.526,1.526,0,0,1-.143-.342ZM15.7,28.944c.71-.035.9-.289.717-.927a1.291,1.291,0,0,1,.132-.767c.164-.389.453-.73.581-1.126.825-2.57,1.667-5.134,2.408-7.728.6-2.118,1.792-4.212.617-6.5a4.669,4.669,0,0,0-.492-.649c-.16.183-.4.34-.471.554q-.643,1.893-1.219,3.811c-.95,3.168-1.836,6.356-2.857,9.5-.286.879-.1,1.942-.926,2.65-.063.054.023.441.138.511.436.261.912.457,1.372.676ZM16,7.721c-.063-.117-.124-.235-.187-.352A8.834,8.834,0,0,0,14.8,7.71a15.059,15.059,0,0,0-2.231,1.151,17.1,17.1,0,0,0-2.6,2.2,1.84,1.84,0,0,0-.124,1.4,1.637,1.637,0,0,0,2.666,1.105,2.133,2.133,0,0,1,.788-.349c2.113-.27,3.168-1.993,4.54-3.279.024-.023-.012-.108-.037-.279-.2.024-.453-.017-.607.085-.6.4-1.179.828-1.74,1.278a9.387,9.387,0,0,1-.954.882,2.445,2.445,0,0,1-.957.106c.016-.305.023-.612.051-.917a6.139,6.139,0,0,1,.16-.666,6.16,6.16,0,0,1-.741.643.559.559,0,0,1-.476.044c-.1-.059-.2-.377-.15-.422.567-.532.588-1.471,1.532-1.768a10.48,10.48,0,0,0,2.082-1.208Zm11.572,6.7-.305-.129a1.58,1.58,0,0,1-.324.091c-.357.023-.717.03-1.074.042.2-.34.378-.694.6-1.015a1.311,1.311,0,0,1,.436-.279c.523-.3,1.065-.568,1.56-.9.132-.091.131-.38.19-.579-.188-.016-.42-.11-.56-.033-1.165.643-2.561.913-3.321,2.211-.458.784-1.105,1.456-1.6,2.223-.289.455-.007.727.479.872.434.129.837.356,1.264.511a1.29,1.29,0,0,0,.72.145c1.015-.333,2.024-.7,3.006-1.112.232-.1.356-.452.53-.687a2.539,2.539,0,0,0-.842-.089,8.712,8.712,0,0,0-1.264.513c.2-.706.345-1.243.493-1.78ZM10.595,20.459c-.253.139-.513.267-.755.422a7.718,7.718,0,0,1-1.224.8,3.163,3.163,0,0,0-2.4,3.558c.017.6.3.882.851.839a4.622,4.622,0,0,0,1.339-.3,17.16,17.16,0,0,0,2.181-1.027.963.963,0,0,0,.434-.771A1.927,1.927,0,0,1,12.4,21.69c.277-.085.554-.176.832-.263,0-.091-.007-.181-.012-.272a3.293,3.293,0,0,0-.734-.136,2.275,2.275,0,0,0-1.928,1.321C9.946,23.5,8.991,23.4,7.955,23.4c-.084-.7.342-.975.847-1.158a2.786,2.786,0,0,0,1.792-1.782Zm16.959-1.477c-.364-.192-.485-.312-.6-.307a6.7,6.7,0,0,0-5.164,2.54c-.382.472-.349,1.126.255,1.3a10.29,10.29,0,0,0,2.77.368,8.624,8.624,0,0,0,2.026-.4c.476-.115,1.034-.164,1.111-.826-.952,0-1.86.047-2.761-.023a3.705,3.705,0,0,1-1.091-.467,4.1,4.1,0,0,1,.76-.772c.821-.479,1.681-.891,2.7-1.419Zm-5.073,11.64-.141-.284c-.518.216-1.03.445-1.553.643-1.036.392-.938,1.541-1.513,2.245-.394.485-.7,1.062-.122,1.635a1.436,1.436,0,0,0,1.907.282,7.533,7.533,0,0,1,2.978-1.681c.145-.024.23-.4.343-.612a1.96,1.96,0,0,0-.753-.132c-.328.078-.607.345-.933.436-.178.051-.411-.1-.621-.155a3.38,3.38,0,0,1,.178-.535c.446-.847,1.381-.868,2.113-1.233.275-.138.544-.289.816-.436-.033-.087-.066-.176-.1-.263a5.9,5.9,0,0,0-.788.131,5.087,5.087,0,0,0-2.544,1.567c-.167.2-.579.2-.879.286.08-.3.071-.68.258-.868a11.454,11.454,0,0,1,1.351-1.03Zm.347-3.931-.122-.415,3.6-1.707a1.979,1.979,0,0,0-1.353-.164A27.052,27.052,0,0,0,22.01,25.68c-.253.124-.415.46-.581.723-.2.316-.34.669-.537.987A.817.817,0,0,0,21.32,28.7a3.291,3.291,0,0,0,2.763-.518,7.421,7.421,0,0,1,1.614-.851c.563-.249,1.175-.42,1.285-1.215-1.47-.031-2.765.743-4.153.575Zm-9-11.975c-.047-.112-.094-.225-.139-.336a4.826,4.826,0,0,1-1.236.415A6.985,6.985,0,0,0,8.541,16.66c-.445.347-.852.729-.4,1.384.092.134-.049.425-.073.647-.03.268-.157.711-.058.772a1.431,1.431,0,0,0,.948.194,19.727,19.727,0,0,0,2.418-.694,9.168,9.168,0,0,0,1.264-.671l-.124-.3c-.234.037-.467.087-.7.11-.262.024-.525.024-.786.033a2.912,2.912,0,0,1,.375-.856,11.619,11.619,0,0,1,1.182-1.016c-.026-.038-.052-.077-.078-.117L10.084,17c.692-.92,1.262-1.939,2.659-1.74.329.047.723-.35,1.088-.544Zm-3.2,11.806-.262-.255A7.391,7.391,0,0,0,9.477,27c-.746.833-1.443,1.712-2.2,2.537-.139.152-.472.127-.717.183a2.338,2.338,0,0,1,.3-.725c.288-.317.678-.542.976-.854a1.7,1.7,0,0,0,.223-.6,1.763,1.763,0,0,0-.626-.009c-1.389.521-2.087,1.778-2.906,2.876-.166.221,0,.778.16,1.112.065.139.549.216.762.127C6.2,31.344,6.9,30.928,7.636,30.6A11.093,11.093,0,0,1,9.3,30.011c.521-.138,1-.248.992-1l-1.2.071c-.061-.063-.122-.126-.183-.19l1.714-2.373Zm3.923,6.539c-.394-.268-.607-.514-.849-.547-.173-.024-.387.234-.581.364a3.411,3.411,0,0,0,.69.633c.1.051.359-.209.739-.45ZM19.981,3.683l-.089.115,1.52,2.087.288-.237Z" transform="translate(-0.003 0.003)" fill="#fff"/>
      <path id="Path_2836" data-name="Path 2836" d="M110.432,81.033l.394.167.762-1.529-.4-.192q-.377.777-.755,1.553Z" transform="translate(-91.179 -65.624)" fill="#fff"/>
      <path id="Path_2837" data-name="Path 2837" d="M110.44,81.033q.377-.777.755-1.553l.4.192-.762,1.529-.394-.167Z" transform="translate(-91.187 -65.624)" fill="#fff"/>
    </g>
  </g>
</svg>
