<svg id="moon-katana" xmlns="http://www.w3.org/2000/svg" width="60" height="60" viewBox="0 0 60 60">
  <rect id="Rectangle_3297" data-name="Rectangle 3297" width="60" height="60" fill="none"/>
  <g id="Layer_1-2" transform="translate(8 8)">
    <g id="Group_42" data-name="Group 42" transform="translate(0 0)">
      <path id="Path_2562" data-name="Path 2562" d="M31.89,3.287a2.828,2.828,0,0,1-.584-.005A18.376,18.376,0,0,0,11.8,11.989a17.49,17.49,0,0,0-2.306,6.173,1.5,1.5,0,0,1-.871,1.166c-1.388.792-1.331,1.24-.6,2.168A4.449,4.449,0,0,1,9.41,24.512a1.705,1.705,0,0,1-.421,1.123C6.972,27.261,4.91,28.83,2.859,30.412c-.511.4-.9.222-1.075-.336-.462-1.5-.939-3-1.289-4.52a15.5,15.5,0,0,1-.5-3.59A21.568,21.568,0,0,1,7.6,5.3,20.044,20.044,0,0,1,17.992.474c.9-.135,1.8-.414,2.7-.458C24.408-.161,27.837,1,31.194,2.4a3.773,3.773,0,0,1,.825.668C31.976,3.144,31.932,3.216,31.89,3.287Z" transform="translate(0.004 0.002)" fill="#fff"/>
      <path id="Path_2563" data-name="Path 2563" d="M86.868,26.111c.479-.306.979-.582,1.432-.922q6.114-4.574,12.209-9.172c2.64-2,5.248-4.048,7.878-6.066a2.069,2.069,0,0,0,.883-1.876c-.047-.9-.04-1.8-.005-2.705a1.827,1.827,0,0,1,.3-.867.588.588,0,0,1,.533-.157.588.588,0,0,1,.273.453,10.416,10.416,0,0,1-.626,4.707,4.2,4.2,0,0,1-1.325,1.579Q99.651,17.8,90.834,24.46c-2,1.509-4.048,2.941-6.056,4.436-.589.439-.984.323-1.38-.236-.57-.808-1.126-1.631-1.77-2.378-.572-.663-.439-1.063.227-1.541,2.793-2,5.562-4.025,8.334-6.05q8.283-6.046,16.56-12.1c.28-.2.514-.476.8-.664a.826.826,0,0,1,.619-.17c.145.061.255.367.261.57.016.609-.028,1.221-.044,1.831a2.284,2.284,0,0,1-1.044,1.824q-5.718,4.3-11.431,8.614-3.9,2.946-7.778,5.919c-.523.4-.974.894-1.458,1.345l.194.255Z" transform="translate(-67.057 -3.574)" fill="#fff"/>
      <path id="Path_2564" data-name="Path 2564" d="M54.49,181.513a8.434,8.434,0,0,1-1.476.906c-1.336.486-2.73.818-4.059,1.322-2.772,1.047-5.655.7-8.442.453a18.761,18.761,0,0,1-5.748-1.882,21.4,21.4,0,0,1-7.238-5.515c-.553-.624-.493-.977.163-1.457,1.689-1.236,3.34-2.525,4.994-3.809.521-.4.881-.327,1.193.24C37.428,178.25,43,181.4,50.29,181.632a23.225,23.225,0,0,0,3.293-.357c.25-.028.5-.045.752-.068l.157.31Z" transform="translate(-22.403 -141.328)" fill="#fff"/>
      <path id="Path_2565" data-name="Path 2565" d="M53.337,119.641c1.492-1.485,1.485-1.478,2.616.224.369.556.8,1.074,1.215,1.6.313.393.741.79.142,1.242a.88.88,0,0,1-1.415-.2c-.567-.766-1.231-1.46-1.855-2.184-.012-.014-.056,0-.283,0,.561.839,1.037,1.605,1.57,2.333,1.116,1.523,2.275,3.015,3.378,4.548.164.229.117.61.168.922-.308-.133-.733-.18-.906-.413-1.609-2.174-3.17-4.384-4.751-6.577-.918-1.273-1.864-2.527-2.754-3.819-.152-.22-.08-.595-.112-.9.283.138.65.206.832.427.518.626.951,1.32,1.437,1.974.217.292.476.553.72.832Z" transform="translate(-41.545 -96.054)" fill="#fff"/>
      <path id="Path_2566" data-name="Path 2566" d="M8.038,186.987a4.066,4.066,0,0,1-.9.754.98.98,0,0,1-.864-.084,3.185,3.185,0,0,1-.943-1.315c-.084-.3.248-.831.542-1.088a1,1,0,0,1,.937.154A12.97,12.97,0,0,1,8.038,186.987Z" transform="translate(-4.384 -152.806)" fill="#fff"/>
      <path id="Path_2567" data-name="Path 2567" d="M46.379,158.5c-.535-.063-1.219-.075-1.1-.925.075-.532-.086-1.378.878-1.283.563.054,1.31.024,1.3.929S47.12,158.523,46.379,158.5Z" transform="translate(-37.351 -128.959)" fill="#fff"/>
      <path id="Path_2568" data-name="Path 2568" d="M29.7,169.446c-.021-.668.2-1.2,1.037-1.091.549.07,1.268.024,1.193.915-.056.645-.245,1.271-1.06,1.222C30.286,170.455,29.56,170.441,29.7,169.446Z" transform="translate(-24.493 -138.904)" fill="#fff"/>
      <path id="Path_2569" data-name="Path 2569" d="M59.08,147.878l.605-.908c.215.154.434.3.642.463a.56.56,0,0,1,.133.22c.133.323.261.65.39.976a1.946,1.946,0,0,1-.787,0A5.957,5.957,0,0,1,59.08,147.878Z" transform="translate(-48.748 -121.27)" fill="#fff"/>
      <path id="Path_2570" data-name="Path 2570" d="M19.306,181.352c-.091.1-.3.315-.505.533q-.556-.677-1.11-1.353c.18-.121.358-.341.54-.343.726-.009,1.089.337,1.075,1.161Z" transform="translate(-14.596 -148.68)" fill="#fff"/>
    </g>
  </g>
</svg>
