<svg id="Component_232_1" data-name="Component 232 – 1" xmlns="http://www.w3.org/2000/svg" width="340" height="340" viewBox="0 0 340 340">
  <g id="Component_223_1" data-name="Component 223 – 1">
    <g id="Ellipse_834" data-name="Ellipse 834" fill="#fff" stroke="#000" stroke-width="3">
      <circle cx="170" cy="170" r="170" stroke="none"/>
      <circle cx="170" cy="170" r="168.5" fill="none"/>
    </g>
    <circle id="Ellipse_835" data-name="Ellipse 835" cx="150" cy="150" r="150" transform="translate(20 20)"/>
  </g>
  <g id="Group_253" data-name="Group 253" transform="translate(9.547 9.559)">
    <path id="Path_4072" data-name="Path 4072" d="M190.41,95.14c2.96,1.87,4.5.91,8.52,2.9a21.178,21.178,0,0,1,6.99,5.63,11.683,11.683,0,0,0-2.56-6.99c-1.14-1.34-3.11-2.39-6.99-4.43-4.2-2.21-5.39-2.51-6.82-4.26a6.972,6.972,0,0,1-1.88-4.77,6.131,6.131,0,0,1,1.19-3.24c-2.68.63-3.69,1.87-4.09,2.56-2.07,3.5,1.21,9.84,5.63,12.62Z" fill="#fff"/>
    <path id="Path_4073" data-name="Path 4073" d="M97.24,121.56c.34.27,3.76,2.83,7.16,1.53,1.73-.66,2.62-1.98,3.58-3.41a17.5,17.5,0,0,0,2.56-11.08,16.4,16.4,0,0,0-.85-4.43,15,15,0,0,0-2.22-4.09c.63.06,1.25.11,1.88.17,0,.01,5.43,7.48,4.43,14.66-.33,2.38-1.07,2.61-1.53,6.14-.23,1.76-.91,6.22.85,7.33,1.48.93,3.3-1.35,5.28-.34,1.26.64,1.69,2.16,2.05,3.41.88,3.09-.15,4.52.17,6.31.73,4.05,7.96,7.32,14.15,6.99,5.05-.27,8.49-2.88,13.13-6.48,3.23-2.51,6.08-4.72,7.84-8.69.65-1.46,1.01-4.18,1.7-9.55.85-6.57.53-7.85,1.53-11.59a19.722,19.722,0,0,1,3.24-7.33,14.362,14.362,0,0,1,5.97-4.43,10.391,10.391,0,0,0-4.6-.68,12.131,12.131,0,0,0-7.33,3.75,13.513,13.513,0,0,0-4.26,6.65c-.65,2.62-.13,4.71-.51,4.77-.5.09-.91-3.61-3.41-7.16a16.51,16.51,0,0,0-3.92-3.92c1.52-4.74,3.22-5.67,3.92-5.91a.966.966,0,0,0,.17-.06,7.205,7.205,0,0,1,4.26,0c-.68-.97-1.36-1.93-2.05-2.9-2.62-.11-4.15-.17-4.6-.17h0c-.1.03-.26.08-.45.14a11.1,11.1,0,0,0-3.98,2.41c-2.15,2.13-2.2,5.67-2.22,6.82-.03,2.42.54,3.99,2.21,8.38,3.62,9.5,3.88,9.89,3.93,11.4.05,1.48-.05,6.62-3.92,10.06a10.86,10.86,0,0,1-7.84,2.73c-.52-.04-4.93-.43-6.31-3.24-.71-1.45-.02-2.35-1.02-4.09-.78-1.36-1.5-1.32-2.73-2.73a11.737,11.737,0,0,1-2.39-5.11c-.46-2.55.43-4.29.85-6.31,1-4.74-.09-11.49-3.84-14.6-3.12-2.59-5.92-.85-8.27-3.81-1.9-2.39-.79-4.43-2.56-6.82-1.63-2.21-4.59-3.22-8.35-3.41,3.23,3.24,3.98,5.97,4.09,7.84.18,3.08-1.35,4.71-.34,7.5.85,2.32,2.2,1.99,3.24,4.43,1.57,3.69-.21,7.52-.68,8.52-.76,1.63-2.31,4.02-3.24,3.75-.76-.22-.81-2.16-.85-3.75-.11-4.13.94-5.5.68-8.01a9.913,9.913,0,0,0-2.73-5.63,16.221,16.221,0,0,1,0,4.6,14.864,14.864,0,0,1-1.36,4.6c-1.42,2.85-2.71,2.73-3.58,4.6-1.4,3.01-.15,7.74,3.07,10.23Z" fill="#fff"/>
    <path id="Path_4074" data-name="Path 4074" d="M131.67,129.23a8.272,8.272,0,0,0,6.4-.35c4.67-2.49,5.53-9.84,3.32-13.63-.55-.94-.86-.92-2.05-2.73a18.6,18.6,0,0,1-2.9-6.14c-.41-1.7-1.02-4.23.17-6.82a8.115,8.115,0,0,1,1.36-2.05,4.024,4.024,0,0,0-2.9,0c-2.95,1.34-2.6,7.16-2.56,7.84.1,1.61.42,2.63,3.24,9.72,2.05,5.15,2.79,6.88,1.88,8.18a3.677,3.677,0,0,1-3.55,1.24c-2.04-.38-3.01-2.54-3.27-3.11-1.78-3.95.83-7.91,0-8.35-.74-.4-3.88,2.19-4.6,5.8-.77,3.89,1.27,8.84,5.46,10.4Z" fill="#fff"/>
    <path id="Path_4075" data-name="Path 4075" d="M181.24,141.71a6.417,6.417,0,0,1-3.24,3.41,2.714,2.714,0,0,1-2.13.09,2.86,2.86,0,0,1-1.36-2.73,3.844,3.844,0,0,0-3.15,1.11c-1.48,1.87.74,4.96.85,5.11a5.557,5.557,0,0,0,4.01,2.39c1.8.03,3.03-1.22,5.28-3.49,1.95-1.98,2.93-2.96,3.49-4.52,1.05-2.91-.4-4.25.68-7.67.59-1.88,1.29-2.31,1.88-3.58.99-2.16,1.23-5.8-2.56-12.27a12.8,12.8,0,0,1-.34,5.63c-.74,2.44-1.72,2.78-2.22,5.11-.48,2.27.32,2.53.09,5.97a13.41,13.41,0,0,1-1.28,5.46Z" fill="#fff"/>
    <path id="Path_4076" data-name="Path 4076" d="M261.32,110.49c1.06,8.2.17,9.22,1.53,12.1.99,2.1,2.92,4.64,6.99,6.82a47.075,47.075,0,0,1-3.07-8.52c-.31-1.21-.89-3.73-2.22-13.98-.74-5.77-.9-7.65-2.56-9.55a10.659,10.659,0,0,0-5.9-3.22,34.114,34.114,0,0,1,3,6.12,44.783,44.783,0,0,1,2.22,10.23Z" fill="#fff"/>
    <path id="Path_4077" data-name="Path 4077" d="M258.69,167.08c.38-.11,3.21-.6,8.87-1.6.98-.17,1.78-.31,2.29-.4a29.956,29.956,0,0,1-4.21,13.35,28.334,28.334,0,0,1-3.52,4.64,81.63,81.63,0,0,1-13.72,11.81,65.794,65.794,0,0,1-15.04,8.01,61.55,61.55,0,0,1-7.89,2.34q-38.67-.075-77.35-.14a7.881,7.881,0,0,1-1.13,1.82,9.81,9.81,0,0,1-1.68,1.51,21.454,21.454,0,0,1-6.65,4.09,19.493,19.493,0,0,1-11.59.17,26.556,26.556,0,0,1-9.04-4.49,37.269,37.269,0,0,1-5.91-5.06l-67.05-5.34c-.04-.34-.09-.68-.13-1.02l75.48,5.85a10.9,10.9,0,0,0,6.99,4.43c1.14.15,3.71.48,5.11-1.19a4.123,4.123,0,0,0,.85-2.73c51.8,1.62,89.52,1.21,94.27.08a59.865,59.865,0,0,0,8-2.59,39.939,39.939,0,0,0,4.27-2.03c22.01-13.01,26.86-23.93,26.86-23.93a35.085,35.085,0,0,0,2.46-8.23l-3.67.36c-.95.17-1.98.4-3.07.7-.93.26-1.8.54-2.59.83-2.52.74-3.87,1.1-4.64,1.3-.17.04-1.36.37-3,.78a.528.528,0,0,0-.12.03c-2.39.58-4.78,1.1-7.17,1.58a7.383,7.383,0,0,1,.49-1.13,1.369,1.369,0,0,1,.08-.14,7.548,7.548,0,0,1,2.22-2.39,52.22,52.22,0,0,0,4.6-3.75,10.945,10.945,0,0,0,2.9-8.69,10.749,10.749,0,0,0-2.22-5.28c-1.64-2.04-2.78-1.76-3.75-3.41-1.77-3.01.54-6.55-.34-6.99-.85-.43-4.04,2.36-4.43,5.97a7.136,7.136,0,0,0,1.36,5.11c1.29,1.56,2.44,1.15,3.58,2.73a5.129,5.129,0,0,1,.68,4.94c-.86,1.73-2.46,1-4.6,2.73-3.06,2.47-2.13,5.84-5.63,8.35a8.233,8.233,0,0,1-1.88,1.02,6.661,6.661,0,0,1,.24-2.36,8.612,8.612,0,0,1,2.83-3.95c3.13-3.12,2.73-10.57.51-15.17-1.54-3.2-3.67-4.43-3.41-7.33a7.765,7.765,0,0,1,1.53-3.58c3.77-6.23,3.63-15.13,1.19-18.92a16.906,16.906,0,0,0-2.77-3.02c-1.3-1.36-1.21-1.58-2-2.43-1.95-2.11-2.6-1.87-3.58-3.24-1.26-1.76-1.83-4.45-.85-5.28a1.7,1.7,0,0,1,2.18.15c.62.78-.65,1.92-.31,3.43a4.11,4.11,0,0,0,4.16,2.83c2.08-.27,3.35-2.83,3.68-4.7.71-3.98-2.79-5.41-4.43-11.93-1.14-4.52.29-4.54-1.02-7.84-1.99-4.97-6.41-7.84-9-9.52-1.35-.88-3.38-2.03-3.61-1.73-.25.33,1.93,2.14,4.09,4.77,2.21,2.69,4.12,5.03,4.94,8.18,1.54,5.93-1.63,11.6-2.22,12.62-1.95,3.35-3.39,3.23-3.92,5.8-.43,2.08.35,2.94,2.05,9.21,1.49,5.52,1.41,6.8,1.36,7.33a12.542,12.542,0,0,1-3.92,7.5c-.17-1.7-.35-3.15-.51-4.26,0,0-.84-5.86-2.39-8.18a6.178,6.178,0,0,0-.67-.89c-.61-.67-1.04-.8-1.38-1.67-.86-2.22.45-4.17,1.19-6.48,1.22-3.76.46-7.01-.68-11.93-1.08-4.65-1.73-7.44-4.26-9.72-3.83-3.45-9.44-3.43-9.55-3.07-.06.19,1.44.45,3.24,1.7,3.59,2.5,4.86,6.5,5.46,8.35a22.825,22.825,0,0,1,.85,9.21c-.39,4.87-1.71,5.35-1.88,10.06a19.443,19.443,0,0,0,.85,7.67c1.42,4.07,3.69,5.28,3.24,8.01-.32,1.95-1.59,2-1.96,4.1-.44,2.51,1.09,4.11,2.13,6.64,1.53,3.76,1.01,7.22.51,10.57-.54,3.63-1.62,10.79-6.48,12.44-2.65.9-3.36-1.76-8.35-1.88-2.51-.06-4.76.5-9.38,2.56a37.972,37.972,0,0,1-4.77,2.05,16.006,16.006,0,0,1-4.94,1.02,16.8,16.8,0,0,1-7.5-1.88,23.037,23.037,0,0,0-2.39-1.19,9.63,9.63,0,0,0-7.33.68,10.793,10.793,0,0,0-3.45,3.5c.82.14,1.81.42,3.45.59,2.03.2,2.42-.06,4.26,0,3.37.1,5.9,1.08,9.21,2.39,5.39,2.14,4.44,2.74,6.82,3.24,1.79.38,2.83.14,15.51-3.41a36.246,36.246,0,0,1,4.94-1.19c3.51-.54,4.46.05,6.48-.85,1.39-.62,2.27-1.52,4.01-3.32a18.824,18.824,0,0,0,3.49-4.52,16.136,16.136,0,0,0,1.7-6.31,15.151,15.151,0,0,1-1.45,8.61c-.37.78-3.2,6.53-8.86,8.1-2.15.6-2.67.02-6.31.6a31.617,31.617,0,0,0-7.25,2.05,24.612,24.612,0,0,1-9.46,1.96,27.023,27.023,0,0,1-9.94-2.01c-3.52-1.33-2.89-1.8-5.66-2.68a25.524,25.524,0,0,0-12.1-.51,28.461,28.461,0,0,0-4.86,1.11,23.489,23.489,0,0,1-3.58,1.11,14.68,14.68,0,0,1-3.21.26c.92-.91,1.96-1.98,3.12-3.24,4.07-4.44,3.78-5.11,5.63-6.65,3.67-3.06,8.06-3.11,13.98-3.24,13.99-.3,16.74.94,23.36-.68,4.69-1.15,9.51-1.85,11.93-5.63a13.349,13.349,0,0,0,1.27-3.12,46.546,46.546,0,0,0,2.65-17.34c-.09-1.99-.24-2.17-.68-8.18-.28-3.81-.25-4.2-.34-5.11-.85-8.75-7.37-15.39-8.18-16.2-2.32-2.3-4.82-4.79-8.86-5.97-3.84-1.11-5.81-.09-9.21-2.05a11.335,11.335,0,0,1-4.94-5.28c-1.56-3.78.11-7.05-.68-7.33-.82-.29-3.6,2.88-3.75,6.65-.18,4.4,3.31,7.63,4.09,8.35,2.98,2.76,4.82,2.05,10.91,5.11,4.2,2.11,6.3,3.17,8.01,5.28,2.91,3.6,3.04,7.82,3.24,14.49.13,4.43.22,7.27-1.19,10.74-1.06,2.6-2.49,4.38-5.11,7.67a50.33,50.33,0,0,1-5.63,5.97c-.66.6-4.33,3.99-4.77,3.58-.3-.27,1.17-1.87,2.73-5.11,1.16-2.42,2.04-4.26,2.22-6.65.28-3.8-1.54-4.59-.68-7.33.78-2.49,2.47-2.5,2.9-4.77.58-3.13-2.06-6.35-2.73-6.14-.54.18.64,2.5-.51,5.28-.98,2.38-2.4,2.06-3.41,4.26-1.07,2.34.29,3.3-.34,7.84a15.488,15.488,0,0,1-1.19,4.6,16.962,16.962,0,0,1-4.43,5.63c-1.98,1.84-2.98,2.77-4.26,3.07a7.8,7.8,0,0,1-8.01-3.75c-2.21-3.91.45-8.59,1.19-9.89,1.74-3.04,3.05-2.65,5.63-6.31a18.076,18.076,0,0,0,3.58-8.35c.23-1.86,1.09-6.88-1.88-9.55a5.823,5.823,0,0,0-2.05-1.19,18.453,18.453,0,0,1,.17,4.09,20.131,20.131,0,0,1-3.24,9.38c-3.53,5.33-6.17,3.5-8.86,8.01-2.1,3.51-2.3,7.65-2.56,12.79-.2,4.03.46,3.71,0,4.94-2.01,5.42-10.6,4.47-13.47,10.74-.67,1.46-.53,2.22-1.53,3.24-2.1,2.13-6.27,2.52-9.38.85-4.15-2.24-4.55-7.18-4.6-8.18a10.56,10.56,0,0,1,4.56-9.33c.16-.1.28-.16.38-.22,3.42-1.87,6.36-.99,9.38-1.19a17.151,17.151,0,0,0,6.65-2.22c6.36-3.6,9.78-13.1,9.55-20.8-.1-3.48-.94-6.17.51-10.06a16.23,16.23,0,0,1,3.64-5.64,6.992,6.992,0,0,0-3.98,1.21c-.83.59-2.16,1.84-3.07,5.8-.97,4.21-.08,5.8-.51,9.21a22.373,22.373,0,0,1-3.92,9.89c-3.74,5.08-8.98,6.85-12.96,8.18-3.26,1.09-7.7,2.52-13.13,1.36a19.409,19.409,0,0,1-6.82-2.9c-1.89-1.28-4.68-3.17-5.63-6.65a9.571,9.571,0,0,1-.17-4.09,6.871,6.871,0,0,0-3.92,2.9c-.93,1.61-.8,3.41,1.19,11.25,1.54,6.03,1.82,6.33,1.7,7.84-.32,4.31-2.99,7.38-4.43,9.04-3.4,3.9-7.7,6-8.01,5.63-.27-.32,3.06-2.23,5.63-6.48a23.983,23.983,0,0,0,3.07-13.81c-.28-4.67-1.73-7.9-3.24-11.25-2.38-5.28-3.94-8.75-7.16-9.72-4.03-1.21-6.62,2.71-9.21,1.19-2.9-1.7.1-6.77-3.75-12.62a58.935,58.935,0,0,0-5.11-6.31c-1.79-1.94-2.56-2.54-2.9-3.92-.76-3.06,1.49-5.65,1.02-5.97-.5-.34-4.04,2.07-5.11,5.97-1.41,5.14,2.11,10.54,3.24,12.27,1.74,2.67,2.36,2.36,2.9,4.09.87,2.82-.55,4.41-.68,10.06-.08,3.23.35,4.06.73,4.57a5.931,5.931,0,0,0,5.92,1.91c1.73-.42,1.92-1.4,3.41-1.88,2.84-.91,5.98,1.46,7.22,2.39,5.65,4.26,6.48,11.36,6.76,13.81.3,2.62.56,5.13-.85,7.67-1.78,3.2-5.57,5.25-6.49,4.48-.62-.52.35-2.09,1.21-4.99.52-1.76,3.08-10.4-.67-16.25-1.36-2.12-3.98-4.56-5.98-4.03-1.64.43-1.47,2.49-3.92,4.09a7.765,7.765,0,0,1-5.93.94c-3.38-.86-5.05-4.32-6.18-6.74-3.84-8.24-2.96-17.37-2.05-22.5a23.9,23.9,0,0,0-4.43,12.1c-.42,6.96,3,9.77,1.44,17.14-.43,2.01-1.07,3.63-.59,6.04.55,2.75,2.53,6.42,5.11,6.65,1.75.15,3.84-1.43,8.01-4.6,1.2-.91,1.84-1.47,2.73-1.36,1.83.22,3.25,3.06,3.41,5.46a9.134,9.134,0,0,1-1.88,5.63c-1.76,2.8-4.6,5.26-5.28,4.77-.52-.37.2-2.6,1.02-4.09.86-1.55,1.68-2.01,1.88-3.41.04-.29.26-1.82-.51-2.39-1.29-.95-5.23.91-5.8,3.41-.33,1.44.64,2.34,0,3.24a2.9,2.9,0,0,1-3.41.51c-1.31-.67-1.07-2.01-2.05-3.58-1.33-2.15-3.18-1.9-8.01-4.26-3.36-1.64-5.04-2.46-5.97-3.92-1.87-2.93-1.61-7.54.68-9.72,1.54-1.46,2.68-.59,4.26-1.87,2.95-2.4,2.08-7.99,1.19-13.64-.68-4.32-1.17-7.21-3.58-9.89a13.385,13.385,0,0,0-4.73-3.33,22.032,22.032,0,0,1,.98,2.48,18.724,18.724,0,0,1,1.02,9.04,16.081,16.081,0,0,1-2.05,5.8,17.586,17.586,0,0,1-3.41,3.92c-5.94,5.99-3.42,19.23-.32,21.97a11.081,11.081,0,0,0,2.06,1.49c1.81.93,2.8.6,3.38,1.44a2.447,2.447,0,0,1-.52,3.14c-.75.41-1.78-.23-3.4-1.26-2.57-1.64-2.75-2.59-4.35-3.06-1.92-.56-3.9.15-3.92.55-.02.42,2.17.22,4.52,1.83a12.127,12.127,0,0,1,2.9,3.07c.97,1.3,1.46,1.96,1.36,2.73-.2,1.62-2.36,2.48-2.56,2.56-3.08,1.19-5.28-1.44-7.5-1.19a3.768,3.768,0,0,0-2.13,1.15c-.03-.04-.07-.06-.1-.1-1.34-1.64-.74-4.17-.47-5.32,1.02-4.45,2.03-10.48,3.16-18.68-1.61-.65-3.23-1.3-4.84-1.95l-4.93.36c-1.16,9.82-1.91,17-1.99,20.85-.02.93-.05,3.67-1.69,4.67-.95.58-1.72.14-2.51.56-1.94,1.04-1.23,5.88-.86,8.47C33.1,195,32.19,195,34.07,200.35a56.382,56.382,0,0,0,3.81,8.52,22.577,22.577,0,0,0,1.87-3.97c.61-1.68.82-2.86,1.12-3.77a3.363,3.363,0,0,0,1.1.87c1.48.71,2.45-.36,5.97.17a14.374,14.374,0,0,1,3.28.84,24.55,24.55,0,0,1,5.58,3.25c5.3,3.68,12.52,2.55,14.66,2.22A27.455,27.455,0,0,0,78,206.41c9.27-3.44,19.13-.21,22.95,1.05,15.96,5.23,14.23,17.44,24.89,18.92,13.08,1.82,21.32-15.79,35.51-11.88,1.28.35,2.96,1.3,6.26,3.18,16.31,9.3,17.85,13.78,27.67,19.28,3.94,2.2,19.75,10.75,37.1,6.46a39.728,39.728,0,0,0,6.48-2.21c-2.73-.28-5.46-.57-8.18-.85-1.79-.08-4.18-.25-6.97-.63a76.035,76.035,0,0,1-8.24-1.55c-11.3-2.9-20.39-11.51-22.63-13.67a61.643,61.643,0,0,1-6.99-8.01l6.48,4.77c1.66,1.45,4.02,3.43,6.99,5.63,5.36,3.97,8.78,6.51,12.96,8.18,5.14,2.06,10.13,1.83,20.12,1.36,8.17-.38,12.34-.61,16.92-2.79,5.03-2.39,6.25-4.87,10.52-8.12,4.18-3.18,10.97-6.86,21.99-8.01a20.284,20.284,0,0,0-5.63-.85c-4.05-.04-7.24,1.22-13.64,3.75a62.848,62.848,0,0,0-6.31,2.73c-2.21,1.14-3.73,2.15-3.93,1.91-.25-.31,2.38-1.97,4.1-5.32a11.452,11.452,0,0,0,1.53-5.97c-.25-4.34-3.64-6.17-2.6-8.56.42-.97,1.43-1.7,1.92-1.5.86.35-.43,3.33.56,6.64a9.255,9.255,0,0,0,3.53,4.96c5.33,3.35,13.83-2.19,15.68-3.41.56-.37,1.24-.84,2.01-1.45a32.985,32.985,0,0,0,7.54-9.29c4.19-7.79,7-30.65-2.69-46.61a103.941,103.941,0,0,0-8.4-11.53c-3.56-4.28-5.97-6.42-7.5-8.18-3.77-4.34-7.98-11.63-9.21-24.38a28.664,28.664,0,0,0-1.53,6.82c-.84,8.46,2.04,17.76,7.7,23.23.98.94,1.58,1.33,3.04,2.85a41.547,41.547,0,0,1,6.48,8.86,42.013,42.013,0,0,1,4.52,13c.6,3.45.89,5.18.61,7.08-1.24,8.41-9.77,10.98-9.4,17.6a8.733,8.733,0,0,0,1.32,4.02c.49.29,2.42,1.35,4.13.58a4.273,4.273,0,0,0,1.06-.73c1.61-1.4,1.84-3.1,2.04-3.05.24.06.59,2.87-1.06,4.81a5.961,5.961,0,0,1-7.62,1.01,5.236,5.236,0,0,1-1.92-3.06c-.54-2.42.73-4.49,1.88-6.48,0,0,2.09-3.62,4.89-9.32,3.64-7.41,2.95-18.45-1.82-21.53-2.53-1.63-5.07-.31-7.16-2.73-1.43-1.65-.94-3.07-2.05-5.97a18.775,18.775,0,0,0-4.94-6.82c-2.55-2.66-5.5-7.87-6.92-19.13a15.961,15.961,0,0,0-2.12,4.47c-1.64,5.58.3,10.59,1.19,12.79,1.67,4.12,2.53,3.08,4.26,7.33,1.1,2.71,3.04,7.47,1.53,12.1-.32.98-1.01,2.86-1.73,4.75-1.31,3.45-1.84,4.52-1.36,5.07s1.51.05,4.81-.86Zm-140.31-.6c1.3-2.08,1.34-3.34,3.07-5.11.84-.86,1.51-1.54,2.05-1.36,1.54.51,1.19,7.74-1.02,8.54-.15.05-.15.02-.69.15a16.316,16.316,0,0,0-2.9,1.02c-.92.39-3.5,1.36-3.82.88-.28-.43,1.62-1.41,3.31-4.11ZM76.05,192.79c-6.91-.34-17.6-.82-30.8-1.25a3.039,3.039,0,0,1-2.61-.34,2.939,2.939,0,0,1-1.14-1.7,3.058,3.058,0,0,1,1.73-2.05,1.732,1.732,0,0,1,.44-.07q5.4.12,10.8.28c7.2.22,14.4.48,21.59.72q5.4.18,10.8.35,32.025.96,64.04,1.94,32.025.945,64.04,1.71s17.89.55,30.17-7.32a37,37,0,0,0,9.99-9.65,30.51,30.51,0,0,0,1.95-3.45c.83-.52,1.67-1.04,2.5-1.56a26.931,26.931,0,0,1-.7,2.63,27.611,27.611,0,0,1-5.4,9.66,31.854,31.854,0,0,1-5.46,4.77,47.76,47.76,0,0,1-11.19,6.82c-3.43,1.43-6.26,1.82-9.4,2.73a44.177,44.177,0,0,1-9.34,1.46,71.992,71.992,0,0,1-9.05.25c-38.53-1.28-132.97-5.91-132.97-5.91Z" fill="#fff"/>
  </g>
</svg>
