<svg id="ranged-charm" xmlns="http://www.w3.org/2000/svg" width="60" height="60" viewBox="0 0 60 60">
  <rect id="Rectangle_3347" data-name="Rectangle 3347" width="60" height="60" fill="none"/>
  <g id="Layer_1-2" transform="translate(13 10)">
    <g id="Group_67" data-name="Group 67" transform="translate(0 0)">
      <path id="Path_2838" data-name="Path 2838" d="M86.361,124.978a2.786,2.786,0,0,1,.4.031l.408-1.443a2.214,2.214,0,0,0-.324-.026,2.264,2.264,0,0,0-2.256,2.075,2.776,2.776,0,0,1,1.773-.636Z" transform="translate(-69.842 -102.003)" fill="#fff"/>
      <path id="Path_2839" data-name="Path 2839" d="M81.928,142.732a2.263,2.263,0,0,0,1.133,2.932l.4-1.426a2.787,2.787,0,0,1-1.534-1.508Z" transform="translate(-67.497 -117.847)" fill="#fff"/>
      <path id="Path_2840" data-name="Path 2840" d="M101.7,127.471a2.264,2.264,0,0,0-1.243-2.981l-.4,1.433A2.8,2.8,0,0,1,101.7,127.471Z" transform="translate(-82.606 -102.787)" fill="#fff"/>
      <path id="Path_2841" data-name="Path 2841" d="M93.127,149.518a2.838,2.838,0,0,1-.52-.051l-.408,1.443a2.309,2.309,0,0,0,.443.044A2.264,2.264,0,0,0,94.9,148.88a2.776,2.776,0,0,1-1.773.636Z" transform="translate(-76.125 -122.925)" fill="#fff"/>
      <path id="Path_2842" data-name="Path 2842" d="M84.84,135.582a2.27,2.27,0,0,0,1.316,1.586l.669-2.373a2.532,2.532,0,0,0-.258-.016,2.267,2.267,0,0,0-1.728.8Z" transform="translate(-70.048 -111.283)" fill="#fff"/>
      <path id="Path_2843" data-name="Path 2843" d="M106.048,68.413c-.044-.558-.089-1.116-.132-1.674l-1.051-.439-.1.861q.63.675,1.26,1.351l.028-.1Z" transform="translate(-86.495 -54.742)" fill="#fff"/>
      <path id="Path_2844" data-name="Path 2844" d="M97.464,137.23a2.269,2.269,0,0,0-1.428-1.63L95.36,138a2.22,2.22,0,0,0,.377.033A2.267,2.267,0,0,0,97.464,137.23Z" transform="translate(-78.734 -111.96)" fill="#fff"/>
      <path id="Path_2845" data-name="Path 2845" d="M115.368,71.207a7.485,7.485,0,0,0-.321.767c-.023.066-.042.127-.063.192l-.054.192,1.407-.645.235-.549-.642-.413-.565.455Z" transform="translate(-94.892 -58.416)" fill="#fff"/>
      <path id="Path_2846" data-name="Path 2846" d="M110.6,85.705l-.23.844q.777-.455,1.552-.912c.045-.382.091-.765.134-1.147l-1.257.5-.2.711Z" transform="translate(-91.127 -69.76)" fill="#fff"/>
      <path id="Path_2847" data-name="Path 2847" d="M33.793,10.263q-4.6-1.339-9.207-2.65c-.858-.244-1.764-.389-1.59-1.632a.706.706,0,0,0-.129-.41c-2-3.253-4.8-5.289-8.7-5.516a19.2,19.2,0,0,0-3.569.051A9.236,9.236,0,0,0,7.481.985,7.221,7.221,0,0,0,3.865,6.164,23.009,23.009,0,0,1,3,10.153a14.4,14.4,0,0,0-1.365,3.065c-.1.568-.028.791.568.676.194-.038.384-.091.6-.143a1.923,1.923,0,0,0,.153.34c.171.23.359.448.54.669a5.688,5.688,0,0,0,.5-.8c.108-.26.047-.6.185-.833a1.5,1.5,0,0,0,.045-1.787.8.8,0,0,1-.035-.649C4.95,8.842,5.664,6.971,6.534,5.178a4.979,4.979,0,0,1,3.6-3.127A9.71,9.71,0,0,1,18.337,4a10.856,10.856,0,0,1,1.313,1.266.846.846,0,0,1,.066.7c-.03.089-.417.141-.607.085-2.763-.79-5.525-1.581-8.276-2.411-1.634-.493-2.1-.275-2.582,1.374Q6.6,10.652,4.96,16.3,3.085,22.687,1.193,29.07a16.939,16.939,0,0,1-.809,2.57c-.678,1.409-.546,1.78.948,2.163,1.94.5,3.868,1.041,5.8,1.564,3.644.988,7.291,1.965,10.929,2.969,1.954.54,3.9,1.114,5.837,1.707.9.274,1.457.065,1.75-.811q.926-2.764,1.818-5.538c.76-2.374,1.494-4.757,2.249-7.134.976-3.068,1.947-6.138,2.951-9.2q.811-2.469,1.733-4.9c.336-.891.091-1.994-.612-2.2ZM20.326,4.037l1.349,1.64-.281.214L20.176,4.151l.148-.115Zm1.566,10c-.1.112-.2.225-.3.338-.126.138-.251.27-.375.4.014.432.026.863.04,1.3l-.575.968c-.005.6-.012,1.2-.017,1.808q-.892.557-1.789,1.114l-.655.406-.234.832a2.785,2.785,0,0,1,1.292,4.21,2.7,2.7,0,0,1,.026.357,2.789,2.789,0,0,1-2.789,2.789,2.831,2.831,0,0,1-.586-.063l-.706,2.5-.38-.108.894.263a.062.062,0,0,1,.026.1l-1.147,1.17a.062.062,0,0,1-.1-.031l-.333-1.606a.062.062,0,0,1,.078-.071l.448.131.71-2.516a2.786,2.786,0,0,1-1.18-4.167A2.694,2.694,0,0,1,14.2,23.8a2.789,2.789,0,0,1,2.789-2.789,2.755,2.755,0,0,1,.467.042l.253-.9c-.042-.061-.084-.122-.124-.183l-1.417-1.991.844-1.367c.1-.518.207-1.036.312-1.552l.295-.235q.031-1.109.065-2.219l.425-.413.084-1.45c.235.045.472.091.708.134l1.2,1.721,1.367-.826.811-.2c.035.268.071.535.106.8-.181.261-.363.521-.546.783.017.293.033.584.051.877Z" transform="translate(0.008 0.002)" fill="#fff"/>
      <path id="Path_2848" data-name="Path 2848" d="M97.8,94.51c-.092.532-.183,1.063-.275,1.6a2.454,2.454,0,0,0,.35.666,2.229,2.229,0,0,0,.235.27,2.366,2.366,0,0,0,.375.305l.446-1.585Q98.362,95.137,97.8,94.51Z" transform="translate(-80.518 -78.034)" fill="#fff"/>
      <path id="Path_2849" data-name="Path 2849" d="M102.53,82.381c.033-.174.073-.357.122-.546.078-.307.167-.589.26-.846-.129-.211-.246-.387-.338-.523-.256-.378-.354-.476-.488-.549a.916.916,0,0,0-.373-.108c-.031.209-.065.418-.1.633-.049.288-.1.568-.152.844q.526.581,1.049,1.159l.017-.063Z" transform="translate(-83.771 -65.896)" fill="#fff"/>
      <path id="Path_2850" data-name="Path 2850" d="M106.36,102.08l1.628-1.046q.123-.5.244-1l-1.477.635C106.623,101.137,106.492,101.608,106.36,102.08Z" transform="translate(-87.816 -82.591)" fill="#fff"/>
    </g>
  </g>
</svg>
