<svg id="restorative-rhythem-charm" xmlns="http://www.w3.org/2000/svg" width="60" height="60" viewBox="0 0 60 60">
  <rect id="Rectangle_3312" data-name="Rectangle 3312" width="60" height="60" fill="none"/>
  <g id="Layer_1-2" transform="translate(15 9)">
    <g id="Group_68" data-name="Group 68" transform="translate(0 0)">
      <path id="Path_2851" data-name="Path 2851" d="M55.257,92.98,55.182,93l-.042.126A.406.406,0,0,0,55.257,92.98Z" transform="translate(-45.53 -76.771)" fill="#fff"/>
      <path id="Path_2852" data-name="Path 2852" d="M58.893,82.45c.019-.005.04-.01.059-.017a1.038,1.038,0,0,0-.117-.324.349.349,0,0,0-.024-.028c-.021.061-.04.122-.061.183C58.8,82.324,58.846,82.387,58.893,82.45Z" transform="translate(-48.511 -67.771)" fill="#fff"/>
      <path id="Path_2853" data-name="Path 2853" d="M29.985,9.752c-1.126-.868-2.214-1.785-3.33-2.667-.952-.753-1.029-.727-1.471.378-.488,1.217-.795,1.356-2.061.913a16.6,16.6,0,0,1-1.708-.642c-.574-.274-1.213-.57-.893-1.428a3.368,3.368,0,0,0-.669-3.255A6.868,6.868,0,0,0,15.608.364a13.811,13.811,0,0,0-6.29,0A6.636,6.636,0,0,0,5.029,5.085C4.346,7.341,3.8,9.639,3.2,11.919c-.1.368-.15.748-.223,1.123l1.246-.15a1.5,1.5,0,0,0,.2.49,5.24,5.24,0,0,0,.654.567c.164-.244.431-.471.474-.734.371-2.245.678-4.5,1.049-6.747a5.346,5.346,0,0,1,3.537-4.3,7.217,7.217,0,0,1,5.05.024,5.082,5.082,0,0,1,3.2,2.985,1.179,1.179,0,0,1-.181,1.009c-.145.164-.642.126-.934.03-.633-.2-1.219-.565-1.855-.748-.809-.232-1.13-.6-.781-1.452.227-.547.044-1.077-.6-1.077a23.024,23.024,0,0,0-3.971.251A1.976,1.976,0,0,0,8.863,4.4c-.746,2.373-1.356,4.787-2.028,7.182-.241.863-.516,1.717-.774,2.575-.35,1.163-.69,2.329-1.056,3.487a6.866,6.866,0,0,1-.41.875c-.188-.258-.371-.521-.565-.774a3.459,3.459,0,0,0-.483-.558c-.044-.037-.34.1-.34.159a2.369,2.369,0,0,0,.113.807c.155.425.384.825.554,1.245a6.9,6.9,0,0,0,.668,1.665,15.826,15.826,0,0,0,1.693,1.532,2.4,2.4,0,0,1,.357.654l-.2.176a5.784,5.784,0,0,1-.9-.57c-.865-.805-1.686-1.66-2.557-2.46-.178-.164-.5-.169-.757-.248.049.281.01.628.164.828.277.361.732.589,1,.957.194.27.38.889.265.985-.919.762-.671,1.928-1.023,2.866C1.6,28.423.843,31.151.033,33.855A.933.933,0,0,0,.3,34.6c.636.633,1.341,1.2,1.986,1.822.418.4.713.425,1.173.005a1.266,1.266,0,0,1,1.111-.167q3.295,1.36,6.532,2.857c.384.178.621.659.947.976a4.228,4.228,0,0,0,.384.319h0c0,.488,2.854,1.452,4.292.286a1.855,1.855,0,0,0,.513-.615c.694-1.435,1.342-2.889,2-4.341.807-1.789,1.649-3.562,2.387-5.38.513-1.264.823-1.539,2.162-1.477a5.7,5.7,0,0,0,.978-.119c-.009-.138-.019-.274-.028-.411a6.63,6.63,0,0,1-1.086-.016,1.966,1.966,0,0,1-.6-.361c.164-.166.3-.422.5-.479.385-.112.823-.049,1.2-.173a5.443,5.443,0,0,0,1.1-.6.692.692,0,0,0-.112-.279c-.415.059-.823.157-1.238.214a8.386,8.386,0,0,1-.839.037,3.283,3.283,0,0,1,.024-.9,7.234,7.234,0,0,1,.474-.818c.729-1.607,1.428-3.229,2.165-4.831,1.342-2.917,2.73-5.814,4.036-8.748a1.291,1.291,0,0,0-.363-1.651ZM6.169,26.545c-.7,2.172-1.484,4.318-2.24,6.471-.258.736-.5,1.482-.8,2.2a.69.69,0,0,1-.537.361,3.419,3.419,0,0,1-1.6-2.017c.26-.886.507-1.776.779-2.659q.894-2.9,1.818-5.786c.056-.176.263-.465.34-.446a7.213,7.213,0,0,1,2.012.635c.244.145.345.87.227,1.239Zm.27-2.272a2.234,2.234,0,0,1-.542.343c-.546-.275-1.088-.521-1.6-.825-.131-.077-.155-.333-.228-.507.174-.061.384-.218.516-.169a19.388,19.388,0,0,1,1.776.781.392.392,0,0,1,.073.375ZM20.627,10.54a1.072,1.072,0,0,1,1.158.912.328.328,0,0,0,.117.183,1.251,1.251,0,0,1,.4,1.412,1.141,1.141,0,0,1-.837.767,1.348,1.348,0,0,1-.547-.009,2.3,2.3,0,0,0-.624-.146c-.293.017-.586-.418-.6-.783-.007-.141-.073-.279-.092-.42a1.1,1.1,0,0,1-.01-.439.955.955,0,0,1,1.764.167.6.6,0,0,1-.174.586.285.285,0,0,0-.071.183.63.63,0,0,0,.4-.7.9.9,0,0,0-.64-.809,2.033,2.033,0,0,0-2.055.635,5.749,5.749,0,0,0-.7.877c-.031.042-.012.12-.017.181-.031-.009-.063-.019-.094-.03a2.243,2.243,0,0,1,.6-1.2,2.783,2.783,0,0,1,2.575-.915c-.825-.415-1.482.071-2.2.389a4.072,4.072,0,0,1,.347-.347,2.324,2.324,0,0,1,1.3-.5Zm-1.949,9.736c.059.04.237-.016.3-.085a.472.472,0,0,0,.054-.335c-.077.2-.18.328-.4.237a.365.365,0,0,1-.145-.506.453.453,0,0,1,.631-.213.5.5,0,0,1,.232.678,4.07,4.07,0,0,0-.2.68,1.754,1.754,0,0,1-.073.357c-.119.218-.31.221-.467.031a2.97,2.97,0,0,1-.575-2.279c.065.361.361.643.309,1.051C18.325,20.01,18.536,20.18,18.678,20.276Zm.108-1.968-1.972-.76c-.256.666-.506,1.309-.758,1.968L13.929,18.7c.253-.654.5-1.29.755-1.956-.662-.255-1.3-.5-1.963-.757l.825-2.136,1.961.757c.26-.673.507-1.316.758-1.968l2.125.819c-.251.652-.5,1.3-.758,1.966l1.975.762-.819,2.125Zm-1.417,1.928a4.084,4.084,0,0,1-.119-2.357c.04.8.078,1.578.119,2.357Zm-.363-.183a.553.553,0,0,1-.038.176c-.038-.04-.108-.077-.11-.119-.045-.636-.082-1.271-.117-1.907,0-.024.033-.052.1-.146.014.42.012.764.042,1.1.026.3.089.6.127.894Zm-2.041,3.835.122.078s.014-.009.058-.035a.8.8,0,0,0-.113-.1.332.332,0,0,1-.122-.474.3.3,0,0,1,.445-.077A.864.864,0,0,1,15.69,24a.531.531,0,0,1-.826.3,1.146,1.146,0,0,0-.441-.139,1.3,1.3,0,0,1-1.058-.816c-.112.028-.221.054-.329.084a1.155,1.155,0,0,1-1.095-.256.748.748,0,0,0-.309-.12c-.234-.049-.455-.141-.483-.389a.687.687,0,0,1,.148-.5A.613.613,0,0,1,12,21.99a.4.4,0,0,1,.183.333c-.023.2-.185.309-.42.277a.318.318,0,0,0,.486-.1.4.4,0,0,0-.139-.594.773.773,0,0,0-.582,0,1.037,1.037,0,0,1-1.048-.049,1.5,1.5,0,0,1-1.011-1.37,1.277,1.277,0,0,1,.685-1.238,1.222,1.222,0,0,1,1.4.122.548.548,0,0,0,.354.092,1.011,1.011,0,0,1,1.095,1.248.969.969,0,0,1-.6.607,1.4,1.4,0,0,1-1.381-.014.443.443,0,0,1-.171-.661.463.463,0,0,1,.7-.223.246.246,0,0,0,.167.033.568.568,0,0,1,.6.122c-.033-.059-.051-.148-.1-.174a1.221,1.221,0,0,0-.392-.136c-.364-.047-.748-.242-1.049.188a.644.644,0,0,0,.171,1,1.618,1.618,0,0,0,1.965-.305c.521-.567.948-1.217,1.421-1.827a.759.759,0,0,1,.185-.129.612.612,0,0,1-.007.234,6.282,6.282,0,0,1-1.471,2.233.115.115,0,0,0-.017.127,5.776,5.776,0,0,0,1.7-2.493c.063.014.113.023.16.037s.1.037.178.068a5.7,5.7,0,0,0-.4,3.025,7.465,7.465,0,0,1,.535-2.941l.089-.012a.792.792,0,0,1,.045.232c-.065.636-.162,1.271-.2,1.909a1.793,1.793,0,0,0,.964,1.848.7.7,0,0,0,1.076-.809.488.488,0,0,0-.352-.4.752.752,0,0,1-.256-.162.431.431,0,0,0-.642-.021.455.455,0,0,1,.586.239.231.231,0,0,0,.146.085c.319.073.439.275.371.638a.445.445,0,0,1-.574.371,1.491,1.491,0,0,1-1.088-1.065.939.939,0,0,1,1-1.234,1.041,1.041,0,0,1,.687.366.448.448,0,0,0,.255.143,1.222,1.222,0,0,1,1.165.856c.115.934-.129,1.442-.816,1.71a1.881,1.881,0,0,1-1.769-.289c-.058-.037-.075-.134-.117-.2a2.551,2.551,0,0,0-.326-.476.409.409,0,0,0-.612.052.416.416,0,0,0,.134.631Zm-.68-6.724c-.063.389-1.267,1.5-1.517,1.419Zm-1.858,1.212L14.112,16.7A4.127,4.127,0,0,1,12.426,18.376Zm1.447-.227c-.124.371-.518.675-.755.608Zm-.023.76c.021.024.044.047.065.071q-.285.371-.572.743c.01.014.019.03.03.045a.968.968,0,0,0,.213-.155c.126-.159.227-.338.354-.5.045-.056.141-.07.213-.1.024.031.051.063.075.1l-.9,1.292c-.18-.35-.329-.645-.471-.919l.988-.575Zm1.923,1.743c.033-.307.068-.614.1-.92.037,0,.073-.007.112-.009.044.185.075.373.134.554s.15.38.211.526l-.983.377c.066-.514.132-1.034.2-1.553l.119-.028c.033.07.1.141.092.211-.012.277-.045.554-.07.833l.089.01Zm.671-1.557.16,1C16.387,20.008,16.287,19.441,16.444,19.1Zm-4.977-1.6a.384.384,0,0,0,.549-.087c.218-.343.624-.324.9-.547a2.936,2.936,0,0,1-1.926,1.292c-.1.014-.289-.024-.316-.087a.56.56,0,0,1,.019-.394c.058-.132.2-.227.272-.357a1.234,1.234,0,0,0,.153-.448.339.339,0,0,1,.35-.328c.221-.024.478-.031.558.221a.73.73,0,0,1-.061.513.262.262,0,0,1-.432.054c-.068-.07-.049-.223-.075-.382-.047.07-.162.16-.16.251a.423.423,0,0,0,.171.3Zm4.543-6.157a.129.129,0,0,1,.1-.056,1.9,1.9,0,0,1,.258.082c.031.2.061.4.092.6-.016,0-.031,0-.047,0-.132-.173-.265-.343-.392-.52a.129.129,0,0,1-.014-.112Zm2.666,1.491a4.021,4.021,0,0,1,.478-.37c.051-.03.173.052.255.1.023.012.03.108.026.108-.065.021-.132.028-.2.049-.173.056-.342.117-.513.176-.016-.021-.033-.04-.049-.061Zm.117-2.681a.706.706,0,0,1,.886-.391A.645.645,0,0,1,20,10.1a.315.315,0,0,1-.2.41c-.08.038-.164.1-.242.1a.818.818,0,0,1-.434-.113c-.054-.044.019-.246.044-.448-.1.131-.268.26-.248.34a1.928,1.928,0,0,0,.317.492,5.119,5.119,0,0,0-1.379,1.776l-.091-.028a2.407,2.407,0,0,1,.1-.465c.3-.673.61-1.342.926-2.008ZM17.3,9.084a.49.49,0,0,1,.7.1.688.688,0,0,1,.185.711c-.241.753-.479,1.508-.73,2.258a1.036,1.036,0,0,1-.188.26c.056-.784.112-1.555.164-2.28a1.624,1.624,0,0,0,.49-.126c.07-.042.049-.239.023-.356-.071.1-.145.295-.211.293a.645.645,0,0,1-.4-.185.45.45,0,0,1-.031-.676Zm-2.435-.157a.377.377,0,0,0,.235-.065,1.085,1.085,0,0,1,1.538.2,2.2,2.2,0,0,1,.568,1.588.431.431,0,0,1-.035.092c-.282-.769-.438-1.62-1.416-1.815a1.44,1.44,0,0,1,1,.961,5.079,5.079,0,0,1,.378,1.375A2.137,2.137,0,0,1,16.8,12.66l-.078-.024c.047-.253.108-.5.141-.76a2.685,2.685,0,0,0-.5-1.942,1.123,1.123,0,0,0-1.405-.417.745.745,0,0,0-.448.753,1.1,1.1,0,0,1-.03.223l.077.028a1.135,1.135,0,0,0,.087-.3.69.69,0,0,1,.591-.657.993.993,0,0,1,1.137.98.934.934,0,0,1-.281.507,4.23,4.23,0,0,1-.476.349.791.791,0,0,1-1.022.021,1.117,1.117,0,0,0-.277-.148,1.162,1.162,0,0,1-.767-1.325,1.277,1.277,0,0,1,1.311-1.022Zm-8.1,13.2c-.328-.4-.727-.746-1.062-1.142a1.791,1.791,0,0,1-.347-2.123A43.464,43.464,0,0,0,6.805,14.33q.573-1.859,1.128-3.725C8.422,8.971,8.965,7.351,9.372,5.7c.413-1.675.589-1.886,2.312-1.909h.349l.005-.073,1.518.143A10.179,10.179,0,0,1,13.3,5.3c-.511,1.59-1.036,3.175-1.562,4.759a.784.784,0,0,1,.073-.052l.34.952c.176-.11.3-.033.4.127.112.185.255.293.458.213l-.347-.354a.634.634,0,0,0-.131-.126.794.794,0,0,1-.488-.849.891.891,0,0,1,.818-.577,4.649,4.649,0,0,1,.612.052,1.331,1.331,0,0,0-.051,1.328,1.806,1.806,0,0,0,.964.828c-.262.547-1.145.948-1.6.211a.32.32,0,0,0-.249-.112,1.16,1.16,0,0,1-1.112-.7c-.153.462-.309.922-.462,1.382l-.068.2a.939.939,0,0,1,.225.478,1.591,1.591,0,0,1-.274,1.145c.058.007.132.014.206.024a.819.819,0,0,1,.743.811.931.931,0,0,1-.617.985.306.306,0,0,1-.42-.155,1.633,1.633,0,0,0-.725-.716l-.078.232a1.179,1.179,0,0,1,.561.586c.077.173.221.312.305.481a.775.775,0,0,1-.178.924.56.56,0,0,0-.138.211.591.591,0,0,1-.636.514.97.97,0,0,1-.717-.343c-.017.054-.037.106-.054.16a1.828,1.828,0,0,0,.682.427,2.628,2.628,0,0,0,2.892-.828,10.641,10.641,0,0,0,.736-.842c.031-.037.068-.07.12-.124-.054.488-1.236,1.637-2.061,2.034a7.848,7.848,0,0,1,.954.087,2.122,2.122,0,0,1,.528.295,1.012,1.012,0,0,1-.758.305,1.309,1.309,0,0,1-.744-.227,1.75,1.75,0,0,0-.544-.174l.206-.181a4.234,4.234,0,0,1-.924.037,3.73,3.73,0,0,1-1.133-.371.459.459,0,0,0-.094-.033c-.014.044-.03.085-.044.129l.947.364c-.143.155-.617.087-1.013-.16.01-.031.021-.066.03-.1-.037.106-.071.213-.108.319C8.422,19.922,8.078,20.967,7.7,22c-.209.567-.525.636-.938.129Zm5.038,5.6a1.722,1.722,0,0,1-.483-.166c-.98-.554-1.951-1.123-2.927-1.679-.385-.22-.907-1.524-.65-1.855a.855.855,0,0,1,.779-.146,2.213,2.213,0,0,1,.72.61A8.418,8.418,0,0,0,15.9,26.838a3.772,3.772,0,0,1,1.058.293c-.221.248-.443.493-.666.741l-.72.8c-.818-.234-1.454-.432-2.1-.593-.553-.138-1.119-.223-1.677-.343Zm8.539,4.177c-.92,1.9-1.668,3.884-2.608,5.774-.821,1.649-.931,1.954-1.449,2.278a3.906,3.906,0,0,1-3.176.153,1.3,1.3,0,0,0,.1-.244c.146-.493.157-1.032.333-1.511.53-1.436,1.117-2.854,1.677-4.28.5-1.267.947-2.557,1.51-3.8a1.179,1.179,0,0,1,.962-.577,13.188,13.188,0,0,1,2.165.851c.633.274.84.614.483,1.351Zm1.152-2.535c-.275.248-.683.617-.952.553A17.7,17.7,0,0,1,17.944,29c-.159-.066-.359-.448-.31-.516a2.643,2.643,0,0,1,.594-.5c1.077.258,2.01.45,2.915.729.178.056.4.621.347.666Zm7.93-18.01c-1.194,2.6-2.324,5.232-3.485,7.848-1.022,2.3-2.055,4.6-3.084,6.895a1.851,1.851,0,0,1-2.012,1.072c-.518-.056-1.039-.1-1.553-.173-.854-.126-1.116-.61-.791-1.424l1.093-2.739a2.38,2.38,0,0,1-.772-.5,1.273,1.273,0,0,1-.148-.227c.45.216.774.364,1.025.458.009-.021.016-.042.024-.061a2.665,2.665,0,0,1-1.625-1.236.305.305,0,0,0-.082-.065c.063.153.127.305.19.458a7.954,7.954,0,0,0-.92-.319.972.972,0,0,1-.671-.959,1.166,1.166,0,0,1,.849.26c.152.117.3.242.446.364a5.986,5.986,0,0,1-.213-2.81l.084-.005a1.082,1.082,0,0,1,.009.183,4.72,4.72,0,0,0,.288,2.441,2.272,2.272,0,0,0,1.5,1.276,1.891,1.891,0,0,0,.284.063c.021-.051.04-.1.061-.152a.926.926,0,0,1-.514-.275.585.585,0,0,1-.071-.734.434.434,0,0,0,.051-.22.812.812,0,0,1,.872-.934.306.306,0,0,0,.126-.019,1.607,1.607,0,0,1,.46-.127c.035-.087.07-.173.1-.26a1.732,1.732,0,0,0-.633.1.333.333,0,0,1-.453-.2.957.957,0,0,1,.248-1.14.833.833,0,0,1,1.1-.054c.049.035.092.078.134.115a1.624,1.624,0,0,1,.45-.943q.35-.876.7-1.754a1.009,1.009,0,0,1-.765-.366.218.218,0,0,0-.174-.045c-.786.129-1.252-.364-1.1-1.208.961.277,1.759.145,2.155-.919a1.081,1.081,0,0,1,.673.574c.028-.068.054-.136.082-.2.662-1.665,1.363-3.319,1.94-5.014.268-.788.673-.723,1.149-.378.938.68,1.832,1.421,2.737,2.144a.864.864,0,0,1,.241,1.208Z" transform="translate(-0.018 0)" fill="#fff"/>
      <path id="Path_2854" data-name="Path 2854" d="M125.173,83.916c-.176-.024-.357-.005-.535-.016-.11-.007-.22-.031-.338-.051.094.227.268.248.472.187a.415.415,0,0,1,.455.141l.162-.087c.03-.073.058-.146.087-.22a.628.628,0,0,1-.3.044Z" transform="translate(-102.633 -69.232)" fill="#fff"/>
    </g>
    <path id="Path_2855" data-name="Path 2855" d="M53.369,56.076l-.113-.056-3.075,9.2.087.037Z" transform="translate(-41.435 -46.254)" fill="#fff"/>
    <path id="Path_2856" data-name="Path 2856" d="M115.244,77.079c-.01-.07-.021-.139-.03-.209q-1.9,4.8-3.8,9.6l.082.049,3.753-9.438Z" transform="translate(-91.991 -63.469)" fill="#fff"/>
  </g>
</svg>
