<svg id="Component_267_1" data-name="Component 267 – 1" xmlns="http://www.w3.org/2000/svg" width="342.24" height="342.24" viewBox="0 0 342.24 342.24">
  <g id="Component_230_21" data-name="Component 230 – 21">
    <g id="Rectangle_3295" data-name="Rectangle 3295" transform="translate(171.12) rotate(45)" fill="#fff" stroke="#000" stroke-width="3">
      <rect width="242" height="242" stroke="none"/>
      <rect x="1.5" y="1.5" width="239" height="239" fill="none"/>
    </g>
    <g id="Rectangle_3296" data-name="Rectangle 3296" transform="translate(171.421 30) rotate(45)" stroke="#000" stroke-width="3">
      <rect width="200" height="200" stroke="none"/>
      <rect x="1.5" y="1.5" width="197" height="197" fill="none"/>
    </g>
  </g>
  <g id="Group_277" data-name="Group 277" transform="translate(18.6 11.779)">
    <path id="Path_3219" data-name="Path 3219" d="M131.78,91.38c.94,7.1-1.66,11.4-6.96,14.05-1,.5-2.84.6-3.59,0a4.1,4.1,0,0,1-.84-3.5c2.82-11.74,1.9-22.9-3.86-33.74-3.01-5.67-1.9-11.35,2.67-16.04,5.23-5.36,10.69-10.5,15.81-15.96,2.44-2.6,4.5-2.63,6.59-.06,6.81,8.38,13.35,16.97,20.34,25.19,3.26,3.84,6.86,7.75,11.09,10.34a38.593,38.593,0,0,1,12.2,11.41c4.4,6.44,9.37,12.49,13.9,18.85.78,1.1.61,2.89.88,4.35-1.53.09-3.67.87-4.5.15-4.87-4.22-10.43-8.14-13.87-13.4-5.52-8.44-14.25-11.03-22.41-14.74-3.55-1.61-7.69-1.99-11.61-2.7-8.4-1.52-11.66.33-14.48,8.5a42.3,42.3,0,0,0-1.36,7.28Z" fill="#fff"/>
    <path id="Path_3220" data-name="Path 3220" d="M113.64,122.12c1.19,5.76,1.92,10.13,3.04,14.4a8.58,8.58,0,0,0,2.7,4.62c8.3,5.96,16.78,11.67,25.4,17.6,4.53-10.37-1.01-16.19-9.18-20.97.41-.24.81-.49,1.22-.73,2.74,1.47,5.48,2.94,8.62,4.63,0-5.62.09-10.35-.03-15.08-.09-3.74.58-6.93,5.11-6.91,4.65.02,4.4,3.78,4.43,6.89.03,3.06-.37,6.12-.58,9.19-.64,0-1.29-.01-1.93-.02q-.555-6.18-1.12-12.36l-2.36.09c-1.55,30.94.04,61.99-.68,92.95-.58.03-1.15.06-1.73.08a39.635,39.635,0,0,1-.75-5.48c-.05-10.83-.09-21.65.09-32.48.06-3.53-1.04-5.91-4.08-7.87-6.94-4.46-13.68-9.23-21.89-14.83.67,3.58,1.12,5.67,1.44,7.78,2.1,13.95,3.99,27.95,6.42,41.84.41,2.36,2.71,4.9,4.83,6.34,4.59,3.11,9.69,5.45,14.43,8.36.88.54,1.45,2.23,1.47,3.4q.435,28.335.63,56.67c0,.58-.44,1.16-1.29,3.27-.9-2.62-1.72-3.91-1.74-5.22-.17-9.43-.02-18.88-.39-28.3-.08-1.93-1.95-3.79-3.04-5.66a1.93,1.93,0,0,0-.8-.58c-9.49-4.64-13.44-11.97-14.51-22.77-1.83-18.41-5.7-36.62-8.62-54.93-.94-5.88-1.41-11.85-2.42-17.72-1.03-6.01-2.45-11.96-3.71-17.94a9.837,9.837,0,0,1-.56-2.42c.19-2.72.55-5.43.84-8.15a51.531,51.531,0,0,1,6.74,3.34c4.42,3.03,8.64,6.36,12.95,9.56-.48.67-.96,1.34-1.43,2.01-5.55-4.02-11.1-8.03-17.48-12.64Zm27.99,40.89-.76,1.12q-10.095-6.585-20.18-13.16c-.4.6-.79,1.2-1.19,1.8,8.28,5.72,16.57,11.43,25.81,17.81-.49-2.94-.61-4.35-.97-5.69-.47-1.78-.59-4.26-1.8-5.14-7.11-5.15-14.48-9.95-21.81-14.78-.62-.41-1.63-.23-2.47-.32-.23.42-.45.84-.68,1.27L141.62,163Zm3.5,78.84c1.6-6.3-6.13-14.75-13.85-15.14C132.41,234.28,137.05,239.34,145.13,241.85ZM130.1,212.84c-.61.54-1.23,1.08-1.84,1.62,2.07,3.45,3.63,7.4,6.36,10.22,2.77,2.85,6.69,4.58,10.11,6.8l1.04-1.49q-6.645-5.085-13.3-10.17c.28-.36.56-.71.84-1.07q5.8,3.615,11.62,7.22c.38-.6.75-1.2,1.13-1.8q-7.98-5.67-15.96-11.33Z" fill="#fff"/>
    <path id="Path_3221" data-name="Path 3221" d="M96.16,189.8c-4.35-12.49-7.43-23.52-12.04-33.88-3.74-8.4-2.14-14.51,3.78-20.83,3.91-4.17,6.95-9.15,11.39-15.13,1.12,5.48,2.02,9.52,2.76,13.58,1.42,7.8,2.74,15.61,4.12,23.42.78,4.41,1.62,8.82,2.4,13.23.11.64.36,1.51.06,1.94-3.85,5.57-7.8,11.08-12.47,17.67Z" fill="#fff"/>
    <path id="Path_3222" data-name="Path 3222" d="M217.83,191.93c2.35-6.74,4.37-12.6,6.43-18.44,2.65-7.5,5.13-15.07,8.12-22.42a8.607,8.607,0,0,1,4.88-4.24c7.39-2.32,14.93-4.19,22.44-6.13a17.513,17.513,0,0,1,3.83-.04c-4.45,8.21-8.66,16.01-12.91,23.8-3.33,6.12-6.48,12.35-10.18,18.24a13.945,13.945,0,0,1-6.42,5.62c-4.76,1.68-9.9,2.28-16.2,3.61Z" fill="#fff"/>
    <path id="Path_3223" data-name="Path 3223" d="M208.9,188.84c-3.83-5.11-7.66-9.68-10.8-14.68-1.06-1.69-.8-4.55-.43-6.76,2.55-15.09,5.29-30.15,8-45.21.05-.26.43-.45,1.25-1.26,1.02,1.41,1.97,2.73,2.94,4.04,4.15,5.59,8.49,11.06,12.38,16.83,1.24,1.83,2.33,4.79,1.73,6.67-4.08,12.65-8.63,25.16-13.08,37.69a14.155,14.155,0,0,1-1.98,2.7Z" fill="#fff"/>
    <path id="Path_3224" data-name="Path 3224" d="M87.13,192.43c-6.42-1.87-12.41-3.54-18.34-5.41a5.078,5.078,0,0,1-2.51-2.32q-11.73-21.12-23.31-42.32c-.14-.25-.02-.64-.02-1.94,3.7.84,7.21,1.58,10.7,2.44,4.99,1.24,10.03,2.38,14.9,3.99,1.87.62,4.24,2.11,4.85,3.77,4.79,12.92,9.21,25.98,13.71,39.02a12.087,12.087,0,0,1,.02,2.77Z" fill="#fff"/>
    <path id="Path_3225" data-name="Path 3225" d="M160.5,139.49c-.49.86-.76,2.09-1.51,2.54-6.65,3.98-4.32,10.23-4.72,17.33,3.8-2.56,6.62-4.46,9.43-6.35,2.76-1.86,5.39-3.94,8.28-5.54,7.31-4.04,13.13-9.03,13.5-18.2.03-.82.8-1.6,2.33-2.09l-7.02,41.97-2.1-.24c.48-3.77.96-7.53,1.61-12.61-4.56,3-8.22,5.34-11.81,7.77q-14.03,9.5-14.04,26.6v29.4c1.98-1.04,3.48-1.7,4.83-2.58,2.79-1.81,5.34-4.07,8.29-5.53,5.96-2.95,5.52-8.86,6.52-13.84,1.52-7.63,2.17-15.43,3.27-23.15.1-.71.81-1.33,2-3.15.47,2.26,1.08,3.44.87,4.45-2.3,11.34-4.89,22.63-7.04,34-.87,4.59-1.56,9.44-1.03,14.01.94,8.19-3.97,12.38-9.45,16.63-3.39,2.63-6.56,5.56-10.72,9.11V238.66q0-12.675.02-25.35,0-31.425,0-62.86,0-8.5,8.61-10.83l-.12-.13Zm8.52,86.88c-9.63,2.64-15.37,9.09-14.04,15.42C163.74,239.52,168.2,234.75,169.02,226.37Zm13.61-80.36c-.51-.66-1.02-1.33-1.54-1.99q-13.3,9.21-26.61,18.41c.49.69.99,1.38,1.48,2.07q13.335-9.255,26.67-18.5Zm-28.12,22.08c.49.63.98,1.26,1.48,1.89q12.435-8.64,24.87-17.29c-.43-.6-.85-1.2-1.28-1.8Q167.04,159.485,154.51,168.09Zm-.32,56.14c.51.71,1.03,1.42,1.54,2.12,4.93-4.32,11.38-6.56,15.73-11.65-.41-.56-.83-1.12-1.24-1.69q-8.01,5.61-16.03,11.22Zm.38,5.48c.29.39.59.79.88,1.18,5.96-1.93,12.97-7.51,13.63-11.42-5.1,3.6-9.8,6.92-14.51,10.24Z" fill="#fff"/>
    <path id="Path_3226" data-name="Path 3226" d="M112.5,248.32c-1.58-2.56-3.67-4.93-4.66-7.7Q89.045,188.15,70.52,135.58c-2.44-6.88-4.95-13.73-7.2-20.67-.62-1.92-.42-4.1-.6-6.17l2.3-.47,49.17,138.99-1.68,1.05Z" fill="#fff"/>
    <path id="Path_3227" data-name="Path 3227" d="M241.45,112.1c.17,1.59.9,3.38.42,4.74-8.7,24.75-17.55,49.46-26.36,74.17-4.85,13.59-9.59,27.23-14.61,40.76-1,2.71-3.01,5.04-4.55,7.55-.55-.3-1.11-.6-1.66-.9q22.335-63.075,44.66-126.14l2.1-.17Z" fill="#fff"/>
    <path id="Path_3228" data-name="Path 3228" d="M212.93,86.94c6.92,10.1,14.43,19.88,20.38,30.52,1.66,2.98-1.29,8.53-2.12,12.9-.54.08-1.07.15-1.61.23-1.12-1.29-2.32-2.52-3.35-3.89-5-6.62-10.1-13.19-14.84-20a10.786,10.786,0,0,1-1.64-6.39c.27-4.4,1.21-8.75,1.88-13.13l1.3-.25Z" fill="#fff"/>
    <path id="Path_3229" data-name="Path 3229" d="M93.96,86.73c.89,5.59,1.8,10.57,2.39,15.59a5.945,5.945,0,0,1-1.38,3.6q-8.5,11.7-17.19,23.25c-.43.57-1.28.81-2.29,1.42-2.77-6.54-5.79-12.07.04-18.84,6.14-7.13,10.9-15.44,16.3-23.22a13.277,13.277,0,0,1,2.13-1.82Z" fill="#fff"/>
    <path id="Path_3230" data-name="Path 3230" d="M167.13,93.9c.15,2.82.49,5.64.37,8.45-.05,1.29-.99,2.54-1.53,3.81-1.1-.83-2.83-1.45-3.2-2.53a67.053,67.053,0,0,1-2.94-11.3c-.46-2.87-.09-5.87-.09-9.57,7.19,3.98,15.01,6.68,18.23,15.28,1.22,3.26,2.81,6.4,3.84,9.71.42,1.35-.2,3.02-.34,4.54-1.42-.53-3.51-.64-4.16-1.66-2.44-3.85-4.45-7.98-6.52-12.05-.82-1.61-1.39-3.34-2.07-5.01-.53.11-1.06.22-1.58.33Z" fill="#fff"/>
    <path id="Path_3231" data-name="Path 3231" d="M44.35,126.85c3.99-2.27,4.98-8.78,11.25-7.65,7.79,1.4,9.97,4.53,11.13,15.28-7.59-2.14-14.86-4.18-22.12-6.23-.09-.47-.17-.93-.26-1.4Z" fill="#fff"/>
    <path id="Path_3232" data-name="Path 3232" d="M257.62,129.26c-6.31,1.84-11.33,3.42-16.43,4.64-.55.13-2.43-2.01-2.24-2.71a34.035,34.035,0,0,1,3.16-7.8c2.24-3.98,5.53-4.3,8.83-1.07,2.08,2.03,4.04,4.18,6.68,6.93Z" fill="#fff"/>
    <path id="Path_3233" data-name="Path 3233" d="M229.06,202.33c-.58,6.67-9.15,11.64-18.08,10.49C212.2,205.53,216.7,202.92,229.06,202.33Z" fill="#fff"/>
    <path id="Path_3234" data-name="Path 3234" d="M94.54,213.01c-11.29-.14-17.42-3.79-17.93-10.68,12.46,1.65,18.88,2.83,17.93,10.68Z" fill="#fff"/>
    <path id="Path_3235" data-name="Path 3235" d="M103.77,209.41c-3.55-6.05-.75-12.6,7.8-19.18C114.58,197.28,112.22,203.2,103.77,209.41Z" fill="#fff"/>
    <path id="Path_3236" data-name="Path 3236" d="M201.99,209.52c-6.09-3.45-10.14-12.32-8.64-18.92C199.57,191.64,205.33,204.26,201.99,209.52Z" fill="#fff"/>
    <path id="Path_3237" data-name="Path 3237" d="M160.62,139.62c3.47-3.15,6.82-6.46,10.46-9.42,4.12-3.36,8.46-6.46,12.79-9.54.97-.69,2.69-1.51,3.37-1.11.93.56,1.2,2.23,1.45,2.77-2.74,1.36-4.93,2.13-6.76,3.42-5.97,4.18-11.76,8.61-17.72,12.8-.98.69-2.46.66-3.7.96l.12.13Z" fill="#fff"/>
    <path id="Path_3238" data-name="Path 3238" d="M67.47,140.01,40.4,132.84c.02-.61.04-1.23.06-1.84,1.07-.36,2.42-1.33,3.17-.99,7.92,3.64,17.25,3.42,24.86,7.82-.34.73-.68,1.45-1.02,2.18Z" fill="#fff"/>
    <path id="Path_3239" data-name="Path 3239" d="M227.89,137.33c-7.23-9.82-13.79-18.72-20.74-28.16C211.54,109.62,228.26,131.99,227.89,137.33Z" fill="#fff"/>
    <path id="Path_3240" data-name="Path 3240" d="M40.76,134.33c10.26,2.91,19.98,5.66,29.7,8.42C65.92,145.39,42.17,138.28,40.76,134.33Z" fill="#fff"/>
    <path id="Path_3241" data-name="Path 3241" d="M97.75,110.31q-9.54,12.945-19.09,25.9c-.67-.49-1.34-.99-2.02-1.48q9.585-12.93,19.16-25.87c.65.48,1.3.97,1.95,1.45Z" fill="#fff"/>
    <path id="Path_3242" data-name="Path 3242" d="M144.86,82.06c1.53-1.25,2.98-3.06,3.58-2.81,1.79.73,3.26,2.27,4.81,3.54.11.09-.11.62-.23.92q-1.845,4.44-3.7,8.86C147.92,89.26,146.51,85.96,144.86,82.06Z" fill="#fff"/>
    <path id="Path_3243" data-name="Path 3243" d="M263.37,134.83c-.28,1.51-.26,3.03-.63,3.13-9,2.48-18.04,4.81-27.07,7.17-.21-.71-.42-1.41-.63-2.12,9.22-2.66,18.44-5.33,28.32-8.18Z" fill="#fff"/>
    <path id="Path_3244" data-name="Path 3244" d="M208.57,115q9.225,12.465,18.44,24.93l-1.86,1.35q-9.2-12.48-18.39-24.97C207.36,115.87,207.96,115.44,208.57,115Z" fill="#fff"/>
    <path id="Path_3245" data-name="Path 3245" d="M99.13,116.07q-9.39,12.69-18.77,25.38c-.62-.46-1.24-.92-1.86-1.39q9.45-12.645,18.89-25.29C97.97,115.2,98.55,115.64,99.13,116.07Z" fill="#fff"/>
    <path id="Path_3246" data-name="Path 3246" d="M236.91,138.61c.95-.8,1.81-2.13,2.87-2.32,6.83-1.22,13.26-4.92,20.35-4.57l.48,2.16q-11.34,3.075-22.67,6.15l-1.03-1.42Z" fill="#fff"/>
    <path id="Path_3247" data-name="Path 3247" d="M152.66,278.2V253.66l1.35.03v24.85c-.45-.12-.9-.23-1.35-.35Z" fill="#fff"/>
    <path id="Path_3248" data-name="Path 3248" d="M216.49,195.65q9.27-2.8,18.54-5.62c.19.64.39,1.28.58,1.92-5.26,4.9-12.27,4.18-18.58,5.72C216.85,197,216.67,196.32,216.49,195.65Z" fill="#fff"/>
    <path id="Path_3249" data-name="Path 3249" d="M110.7,178.82,98.67,194.66c-.65-.48-1.29-.97-1.94-1.45q5.94-7.965,11.87-15.92Z" fill="#fff"/>
    <path id="Path_3250" data-name="Path 3250" d="M88.54,198.4q-8.13-2.34-16.27-4.67c7.3-2.24,14.28-.34,16.27,4.67Z" fill="#fff"/>
    <path id="Path_3251" data-name="Path 3251" d="M207.55,195.43c-4.73-6.25-8.77-11.58-13.21-17.46C198.83,178.18,207.51,189.59,207.55,195.43Z" fill="#fff"/>
    <path id="Path_3252" data-name="Path 3252" d="M74.91,196.31q7.9,2.19,15.8,4.38l-.68,2.48q-7.9-2.16-15.82-4.31l.7-2.56Z" fill="#fff"/>
    <path id="Path_3253" data-name="Path 3253" d="M204.45,199.06q-5.07-6.96-10.15-13.92c.58-.42,1.17-.84,1.75-1.26q5.145,6.945,10.3,13.9c-.63.43-1.27.85-1.9,1.28Z" fill="#fff"/>
    <path id="Path_3254" data-name="Path 3254" d="M98.85,197.91q4.95-6.15,9.89-12.3c.44.33.89.66,1.33.99q-4.59,6.435-9.17,12.87c-.68-.52-1.37-1.04-2.05-1.57Z" fill="#fff"/>
    <path id="Path_3255" data-name="Path 3255" d="M219.5,199.56q5.94-1.68,11.89-3.36c.23.84.46,1.69.68,2.53q-5.955,1.62-11.92,3.23c-.21-.8-.43-1.6-.64-2.4Z" fill="#fff"/>
  </g>
</svg>
