<svg id="Component_309_1" data-name="Component 309 – 1" xmlns="http://www.w3.org/2000/svg" width="342.24" height="342.24" viewBox="0 0 342.24 342.24">
  <g id="Component_230_29" data-name="Component 230 – 29">
    <g id="Rectangle_3295" data-name="Rectangle 3295" transform="translate(171.12) rotate(45)" fill="#fff" stroke="#000" stroke-width="3">
      <rect width="242" height="242" stroke="none"/>
      <rect x="1.5" y="1.5" width="239" height="239" fill="none"/>
    </g>
    <g id="Rectangle_3296" data-name="Rectangle 3296" transform="translate(171.421 30) rotate(45)" stroke="#000" stroke-width="3">
      <rect width="200" height="200" stroke="none"/>
      <rect x="1.5" y="1.5" width="197" height="197" fill="none"/>
    </g>
  </g>
  <g id="Group_308" data-name="Group 308" transform="translate(20.015 24.17)">
    <path id="Path_3502" data-name="Path 3502" d="M117.63,224.51c-2.09-3.14-4.04-6.4-6.33-9.39-1.42-1.86-3.09-3.99-5.13-4.83a109.549,109.549,0,0,1-30.06-18.45c-3.97-3.42-7.08-7.96-10.13-12.31-1.87-2.68-3.31-4.92-7.59-2.43,4.95-4.41,1.42-8.1.15-11.83-1.97-5.78-5.12-11.37-5.9-17.29-.73-5.53-5.05-11.09-1.11-16.98.62-.93.93-2.17,1.72-2.89,4.76-4.34,9.62-8.58,14.88-13.24a38.209,38.209,0,0,0-5.63,27.84c2.23,1.02,5.58,2.56,10.09,4.62-2.46,1.15-3.69,1.73-4.93,2.32-.46,3.45,11.19,3.4,2.49,9.23,2.56,3.77,9.75,2.86,8.73,10.48,2.72-1.53,4.71-2.66,7.33-4.14.16,2.44.29,4.3.42,6.22,4.03,1.56,7.99,3.1,13.02,5.05-2.12,2.93-4.11,5.69-6.11,8.45.15.44.3.87.44,1.31,1.64-.59,4.42-.84,4.73-1.84,1.81-5.88,4.57-12.14,3.86-17.87-.41-3.25-6.52-6.47-10.66-8.39-4.83-2.23-6.45-3.54-5.51-8.95-3.79-2.81-7.74-5.75-11.69-8.69l.26-.69q2.865.465,5.72.93c.27-.42.53-.84.8-1.25-7.99-1.93-5.72-9.98-9.6-14.89-1.42,1.27-2.65,2.38-3.88,3.48-.25-.2-.51-.39-.76-.59,1.71-2.4,3.41-4.8,5.36-7.54,1.24.46,2.59.95,3.74,1.38,1.08,6.58-1.28,14.55,8.92,16.2-2.08,4.24-1.55,7.49,2.11,10.19,2.69,1.98,4.74,1.9,6.91-.55,5.06-5.73,10.47-11.19,15.03-17.28,1.15-1.54-.38-5.04-.59-7.65-.11-1.43-.02-2.88-.02-4.32.46,0,.93-.01,1.39-.02,3.71,3.56,7.23,7.36,11.24,10.54,1.26,1,3.84.35,6.33.48.03.43.11,1.62.21,3.13,3.07.69,6.26,1.41,10.16,2.29-1.49,1.57-2.74,2.89-4.04,4.25,4.38.12,5.44-.92,6.45-6.35,2.08,1.38,4.05,3.66,6.18,3.82,2.33.17,4.8-1.62,7.76-2.77,1.44.83,3.58,2.08,6.68,3.87v-7.58c.4-.07.8-.14,1.21-.22.84,2,1.69,4,2.51,5.95-1.03,1.4-1.95,2.66-2.87,3.91l1.11,1.16c1.79-1.61,3.58-3.23,5.2-4.69-.99-2.23-1.8-4.07-2.61-5.91l.71-.49c1.25.87,2.51,1.73,4.18,2.89,1.3-4.3,2.5-8.25,3.73-12.33,3.75,3.12,3.46,6.46-1.21,17.62l.12-.13c-4.18-1.41-5.2,2.6-7.34,4.48-1.02.9-.9,3.7-1.82,3.98-2.53.79-5.33.72-8.66,1.04.75-2.67,1.24-4.4,1.91-6.81-4.48.73-6.74,2.22-6.21,6.5.14,1.11-.46,2.31-.72,3.46l.14.14c-1.42-1.07-2.71-2.47-4.3-3.11-1.69-.68-3.68-.63-5.9-.96,1.19-2.5,2.06-4.3,3.37-7.06-11.84,1.19-9.43,11.66-13.3,17.3-4.24-1.47-8.25-2.87-12.97-4.51,1.53-2.53,2.99-4.96,4.33-7.18,3.57,1.15,6.78,2.18,10,3.21.31-.7.62-1.41.92-2.11-2.55-1.41-5.11-2.82-8.93-4.93,1.89-.65,3.62-1.23,5.34-1.82-.46-.72-.91-1.44-1.37-2.16-1.56.13-3.13.26-4.81.41a21.373,21.373,0,0,0-1.21-3.62c-2.71-5.01-7.28-5.56-10.96-1.42-4.42,4.97-9.23,9.66-13.11,15.02-1.38,1.91-1.69,6.27-.42,8.04,1.96,2.74,5.64,4.28,8.69,6.18a15.751,15.751,0,0,0,3.53,1.18c-.58,1.28-1.15,2.56-1.73,3.84-.23-.4-.46-.81-.69-1.21l-4.08,18.51c5.73-3.76,3.31-10.19,5.82-14.97,2.48-4.72,4.61-9.62,6.8-14.25,4.98,1.68,9.31,3.14,13.68,4.61q-1.08,11.39,1.45,11.53c.68-3.77,1.35-7.5,1.98-10.98,6.11.87,11.64,1.66,17.69,2.52v14.33c1.31-.97,3.05-2.25,4.12-3.04-.65-4.18-1.2-7.75-1.74-11.23,6.34-.92,11.7-1.69,17.71-2.56-.3,4.37,5.64,7.63,2.41,13.13-.27.46.8,1.66,1.17,2.55,3.44,8.2,1.81,12.15-6.38,15.68-1.81.78-3.54,1.77-5.83,2.92q3.79,2.2,13.25-4.99c1.24,4.16,2.43,8.16,3.62,12.15.7-.19,1.4-.39,2.09-.58-.42-3.64-.83-7.29-1.28-11.18,2.2-.84,4.27-1.64,6.35-2.43-.03-.46-.06-.92-.1-1.38h-6.58c-.97-3.72-2.26-7.87-3.03-12.1-.19-1.08,1.26-2.46,1.7-3.23-1.5-3.86-2.89-7.43-4.21-10.84,4.99-1.82,9.13-3.33,13.97-5.09.33,4.3,7.65,5.99,4.45,12.28-.18.36,1.59,1.71,2.46,2.59l-.12-.12c.99,1.31,2.06,2.56,2.95,3.93.58.89,1.58,2.41,1.26,2.86-3.55,5.06.66,9.65.78,14.45.02.8,1.3,1.58,2,2.36.58-1.04,1.81-2.23,1.61-3.08a91.49,91.49,0,0,0-3.09-8.86c1.63.19,2.69.32,3.96.47.11-1.06.22-2.13.39-3.71,1.54.89,2.7,1.57,4.14,2.41.84-2.93,1.57-5.49,2.3-8.05l1.45.35v6.06c.54.16,1.09.32,1.63.49,1.18-2.89,2.81-5.69,3.39-8.69.49-2.49.91-3.74,3.59-4.98,3.03-1.41,5.5-4.49,7.62-7.3,2.14-2.84,3.52-6.23,5.29-9.36.32-.56.8-1.29,1.34-1.43,6.69-1.84,8.81-5.25,7.08-11.65-1.85-6.86-3.74-13.7-5-18.3,4.55,4.48,10.87,10.69,17.5,17.21-.3.53-1.07,1.89-2.37,4.18,2.49-.84,4.04-1.35,5.58-1.87.26.3.52.59.77.89-1.62,1.6-3.33,3.11-4.84,4.81-2.76,3.12-5.51,5.57-4.96,11.04.46,4.56-2.62,9.69-4.85,14.23-2.61,5.33-6.04,10.26-9.01,15.42a50.788,50.788,0,0,0-2.21,4.82c-2.3,1.6-4.41,3.09-6.54,4.55-6.69,4.61-13.37,9.25-20.1,13.8-2.88,1.94-5.88,3.83-8.22-1.33-3.98,7.25-7.44,13.83-11.15,20.26a41.522,41.522,0,0,1-57.7,14.58c-2.29-1.41-5.77-2.35-3.11-6.82.85-1.43-1.35-4.68-2.15-7.09-.54.16-1.09.33-1.63.49.74,2.08,1.49,4.17,2.23,6.25-.56.28-1.11.55-1.67.83q-2.52-4.455-5.06-8.93c3.88-2.38,7.98-9.55,6.08-13.05-2.2,4.88-4.08,9.04-5.97,13.21Zm13.45-14.35c.54-.37,1.09-.74,1.63-1.12,1.49,1.3,2.98,2.6,4.45,3.88,8.85-6.87,18.58-6.77,29.59.13,1.37-1.46,2.71-2.89,4.04-4.32.37.19.73.37,1.1.56v6.46c2.97-2.63,5.02-4.44,7.02-6.2-3.85-2.11-6.91-3.77-10.04-5.48-1.32.95-2.8,2.01-4.28,3.08.12-.54.23-1.08.35-1.62-2.07-1.54-3.95-3.85-6.26-4.46-6.02-1.56-12.13-.87-18.04,1.03-.51,1.66-1.01,3.25-1.69,5.45-1.99-1.7-3.28-2.79-4.34-3.69-3.35,2.06-6.31,3.89-9.27,5.71,4.02,5.27,6.79,7.06,8.78,6.27-.99-1.85-2.01-3.77-3.04-5.69Zm39.34,15.79c2.36-3.27,4.2-5.81,6.03-8.34-7.06,3.2-7.24,3.36-12.48-2.55-2.74-3.08-5.38-3.83-9.19-2.46a8.876,8.876,0,0,1-5.78.03c-4.28-1.69-7.3-.58-9.98,2.92-2.92,3.81-6.2,6.17-10.26,1.2-.08-.1-.58.14-2.07.54,2.22,2.86,4.15,5.34,6.64,8.55,2.76-2.95,5.25-4.95,6.86-7.5,1.72-2.72,3.34-2.67,6.19-2.06a24.793,24.793,0,0,0,10.5.12c3.07-.72,4.88-.58,6.76,2.07,1.79,2.53,4.16,4.65,6.78,7.5Zm-28.72,6.48c4.44,1.5,8.6,2.9,11.88,4,2.64-1.61,4.61-3.45,6.9-4.04,2.5-.65,5.3-.15,8.48-.15-2.57-4.38-6.81-5.58-12.09-3.35-3.69,1.55-6.77,1.13-10.49.06-3.85-1.11-8.72-3.24-11.54,1.69,1.99,2.24,3.6,4.04,5.45,6.12.51-1.57.94-2.88,1.41-4.35Zm3.39-53.14a27.079,27.079,0,0,0-.83,5.48,5.843,5.843,0,0,0,1.69,3.88c.46.41,2.83-.38,3.41-1.25,2.12-3.15,3.51-2.95,5.3.27.37.67,2.36.45,3.6.64a62.919,62.919,0,0,0-.17-8.91c-.08-.58-2.74-1.15-4.18-1.1-2.88.1-5.75.62-8.82,1Zm-27.46,6.06c3.36,3.25,5.91,5.71,9.35,9.03.66-7.15,1.27-13.78,1.88-20.41l-2.04-.3c-.84,3.87-1.67,7.75-2.52,11.68h-6.67Zm-11.6,21.96c.32-.51.64-1.03.95-1.54q-10.455-6.18-20.92-12.36c-.3.49-.61.98-.91,1.47,5.93,5.82,13.56,8.87,20.88,12.43Zm113.64-12.74c-.48-.66-.95-1.33-1.43-1.99l-17.1,10.83c.41.63.82,1.27,1.24,1.9q8.655-5.37,17.3-10.74ZM130,188.61c4.43,6.55,7.41,7.98,12.02,5.44C137.97,192.22,134.6,190.69,130,188.61Zm49.52,23.81-1.48.93c1.82,3.33,3.62,6.68,5.53,9.96.12.21,1.35.08,1.73-.27a1.826,1.826,0,0,0,.4-1.71c-1.99-3.02-4.1-5.95-6.18-8.91Zm-54.41-8.51c-.27-3.43-.48-6.04-.73-9.23C118.93,198.52,119.12,200.27,125.11,203.91Zm108.13-23.17c-.37-.52-.75-1.05-1.12-1.57q-3.2,3.225-6.39,6.46c.64.64,1.27,1.28,1.91,1.92q2.79-3.405,5.59-6.81ZM77.4,185.38c-.57.61-1.14,1.22-1.71,1.84q3.27,2.85,6.54,5.69c.48-.53.96-1.07,1.43-1.6q-3.135-2.955-6.26-5.92Z" fill="#fff"/>
    <path id="Path_3503" data-name="Path 3503" d="M194.43,73.98q-4.245,2.25-8.5,4.5c.19.39.37.78.56,1.16,1.19-.47,2.38-.95,3.28-1.31,2.2,2.54,4.27,4.82,6.19,7.23.62.78,1.44,2.28,1.12,2.75-.56.83-1.92,1.13-3.31,1.83,1.28,2.73,2.72,5.8,4.17,8.87-.67.34-1.35.68-2.02,1.01-1.77-3.47-3.47-6.99-5.33-10.42-3.39-6.23-4.42-8.72-9.42-7.15,1.34-4.27-.08-6.33-4.8-6.78-2.45-.23-4.93-.26-8.73-.45,3.25,3.71,6.01,6.96,8.9,10.07a2.492,2.492,0,0,0,2.27.35c4.58-2.19,6.61,1.57,7.66,4.24,3.39,8.61,6.02,17.51,8.99,26.28.57,1.69,1.37,3.3,2.56,6.13H188.9a30.386,30.386,0,0,1,2.94,3.93,14.708,14.708,0,0,1,.87,3.63c-1.2.21-2.45.77-3.59.59-6.18-1.02-10.85,3.84-9.39,9.83a3.6,3.6,0,0,1-.43,2.13c-1.04-.03-2.43.01-3.05-.62a29.445,29.445,0,0,1-3.09-4.46,1.659,1.659,0,0,1-.13.14c4.42-1.21,6.35-4.04,5.67-8.63,7.2-.31,9.05-3.56,6.58-11.92-1.82-6.18-3.74-12.33-5.53-18.52-.87-2.99-1.92-5.31-5.85-4.23-.82.22-2.03-1-3.46-1.77-.76.85-1.7,1.9-2.59,2.9,1.27,1.79,2.33,3.28,3.38,4.77-.4.36-.79.72-1.19,1.07-1.12-.95-2.23-1.9-3.3-2.81-1.8.57-3.6,1.13-5.39,1.7l.09.15c1.32-2.37,2.55-4.8,3.99-7.1,1.53-2.43-1.34-8.59-4.28-8.94-1.25.56-2.5,1.13-4.31,1.94.15-2.68.26-4.7.39-6.99-1.46-.08-2.65-.15-3.55-.21-1.71-3.16,1.46-8.2-4.38-8.87l.14.12c.09-.86.18-1.71.28-2.57,1.55.17,3.13.24,4.65.56a28.566,28.566,0,0,1,3.74,1.3c-.1-1.37-.56-2.83-.23-4.09.89-3.36,2.11-6.63,3.28-10.17,4.51,1.67,8.2,3.03,13.06,4.82.39-.71,1.19-2.14,2.31-4.17,5.89,5.36,11.29,10.18,16.56,15.15.74.7.83,2.08,1.22,3.14l.13-.13Zm-23.11-8.82c-1.03-6.36-5.87-2.58-9.17-3.95,1.31,4.16,1.86,4.35,9.31,3.81-.42,1.29-.85,2.57-.99,2.99,4.27,2.54,8.14,4.84,12.01,7.15-1.63-6.18-5.68-9-11.16-9.99Zm7.87,23.81c2.57,8.23,5.35,15.99,7.31,23.94.8,3.24,1.5,5.62,5.01,6.26.33-2.45.67-4.89.99-7.34.02-.14-.12-.3-.18-.46-2.17-5.69-4.62-11.29-6.42-17.09C184.71,90.46,182.51,88.99,179.19,88.97Zm-17.72-15.2-1.3,1.24c2.4,3.69,4.68,7.46,7.26,11.03a20.187,20.187,0,0,0,4.54,4.25,2.105,2.105,0,0,0,2.83-2.92c-4.36-4.61-8.86-9.08-13.33-13.58Z" fill="#fff"/>
    <path id="Path_3504" data-name="Path 3504" d="M109.59,112.94c-1.61,2.05-3.23,4.11-4.45,5.66-1.83-3.94-3.16-7.49-5.06-10.72-2.47-4.21,1.25-5.97,2.99-8.41,1.91-2.68,4.27-5.05,6.44-7.55-.37-.35-.73-.71-1.1-1.06q-4.335,3.87-8.66,7.75c-.35-.33-.7-.65-1.05-.98a4.846,4.846,0,0,1,.52-1.65c3.49-4.16,7.08-8.23,10.51-12.44.72-.89,1.54-2.8,1.15-3.27a5.336,5.336,0,0,0-3.7-1.82c-1.49.02-2.97,1.02-4.67,1.69,7.6-7.75,14.99-15.27,22.69-23.12,1,1.22,2.06,2.54,3.23,3.97,5.5-3.55,11.2-5.61,18.66-2.82-.55,2.87-1.17,6.13-2.04,10.7.51.15,2.44.71,4.38,1.27l-.14-.12c.41,1.89,1.25,3.8,1.14,5.66-.33,5.45-4.8,7.93-9.11,5.31l.12.16c.33-2.06.66-4.12,1.07-6.74-7.1,5.52-13.68,10.63-20.25,15.74l.14-.14c-4.28-.12-4.9,3.36-5.94,6.23-1.81,4.94-3.35,9.97-5.13,14.92-.28.77-1.25,1.3-1.91,1.94,2.31-7.35,4.31-14.83,7.1-22,1.08-2.77,1.93-7.25,6.74-6.38,6.98,1.27,8.23-4.11,10.19-9.51-5.22.86-10.45,1.72-16.41,2.71,1.96,1.42,3.07,2.22,5.24,3.78-7.82,1.91-9.27,8.23-12.22,13.38-2.54,4.44-5.04,8.71-4.62,14.3.25,3.32,1.24,4.13,4.14,3.56Zm21.69-47.91c-7.11,2.26-10.13,5.36-9.98,10.12,3.82-2.37,7.71-4.79,11.71-7.28-.33-.53-1.09-1.76-1.85-2.97,3.82.36,7.85,1.37,10.01-3.24-3.39.84-8.11-2.09-9.9,3.37Z" fill="#fff"/>
    <path id="Path_3505" data-name="Path 3505" d="M135.42,46.48c1.35.66,2.71,1.32,4.81,2.34-.67-2.27-1.12-3.76-1.7-5.73,3.09-2.11,6.25-4.27,10.63-7.26.78,4.79,1.44,8.82,2.1,12.85l1.4.18q1.605-4.815,3.22-9.64l2.32.63c-.8,3.08-1.13,6.39-2.52,9.17-1.5,3.01-3.99,5.53-6.21,8.49-6.48-3.07.11-11.55-6.09-15.58-.47,4.11-.9,7.77-1.49,12.91-3.24-3.09-5.36-5.11-7.49-7.14l1.01-1.22Z" fill="#fff"/>
    <path id="Path_3506" data-name="Path 3506" d="M216.06,150.64c.94-2.36,1.84-4.16,2.37-6.06.63-2.27.88-4.64,1.4-6.95.27-1.21.52-3.26,1.18-3.43,6.2-1.65,5.61-6.62,5.73-11.63,1.21.15,2.25.28,3.45.42-.16-.98-.35-2.12-.54-3.27l1.32-.69c2.18,3.44,4.35,6.88,6.78,10.72-1.27.12-1.68.29-1.85.16-1.45-1.16-2.86-2.38-4.27-3.58-.97,1.94-2.06,3.82-2.88,5.82-1.44,3.5-3.34,6.99-.83,10.87.21.33-.43,1.65-.99,1.96-3.25,1.81-6.6,3.46-10.87,5.66Z" fill="#fff"/>
    <path id="Path_3507" data-name="Path 3507" d="M122.27,90.15c2.27.21,4.63.92,6.78.51,2.62-.49,5.07-1.92,8.63-3.37-1.49,2.68-2.82,5.07-4.48,8.03a34.318,34.318,0,0,1,4.64-1.99c.78-.21,1.75.27,2.63.44-.21.9-.14,2.32-.67,2.6-2.45,1.26-5.07,2.2-7.86,3.35a12.618,12.618,0,0,0-1.65-2.69c-1.49-1.38-3.15-2.58-4.74-3.86-.51,1.55-1.03,3.1-1.53,4.65-2.3,7.18-4.58,14.36-8.09,21.44,0-1.39-.32-2.87.05-4.15,2.06-7.07,4.35-14.07,6.41-21.13.36-1.22.02-2.64,0-3.97l-.14.14Z" fill="#fff"/>
    <path id="Path_3508" data-name="Path 3508" d="M196.62,114.21c.98-1.9,1.37-4.02,2.58-4.7,1.98-1.12,4.8-2.29,6.7-1.68,5.18,1.65,10.04,4.29,15.08,6.39,1.08.45,3.02.83,3.51.29a4.892,4.892,0,0,0,1.12-3.94c-1.38-4.78-2.69-9.84-9.44-10.22.17-.46.34-.91.5-1.37,1.34.06,3.03-.38,3.97.27,5.96,4.09,7.67,10.46,9.02,17.15-1.88.9-3.46,1.65-4.69,2.23-6.56-3.04-12.66-6.44-19.18-8.55-2.02-.65-5.17,2.22-9.17,4.12Z" fill="#fff"/>
    <path id="Path_3509" data-name="Path 3509" d="M161.35,100.02c-.34.74-.67,1.48-1.29,2.85-3.14-5.27-6.21-3.04-8.62-.7-3.25-1.24-6.02-2.29-9.07-3.46,4.67-5,1.15-9.16-2.28-13.28-1.85-2.23-2.87-4.06,1.37-4.28l-.12-.16A74.967,74.967,0,0,1,145.02,89c2.25,6.78,2.13,6.81,8.14,3.68.16-.08.55.26,1.24.62-1.55,1.85-3.03,3.62-4.51,5.4l.88.88q5.865-4.305,11.72-8.61c.34.31.68.63,1.03.94a36.527,36.527,0,0,1-3.41,4.69c-2.36,2.4-.69,2.98,1.34,3.57l-.09-.15Z" fill="#fff"/>
    <path id="Path_3510" data-name="Path 3510" d="M167.14,148.71c.73,2.49,1.59,5.37,2.47,8.38-5.62.29-10.67.54-16.19.82v-6.95c4.66-.77,9.1-1.5,13.71-2.26Z" fill="#fff"/>
    <path id="Path_3511" data-name="Path 3511" d="M185.28,152.01c-4.38,1.43-8.27,2.71-12.57,4.11-1.63-4.79-3.17-9.34-4.72-13.89l1.48-.74c1.73,2.82,3.45,5.65,5.5,8.98,2.41-2.67,4.03-4.45,6.03-6.66,1.58,3.02,2.87,5.49,4.29,8.2Z" fill="#fff"/>
    <path id="Path_3512" data-name="Path 3512" d="M194.42,169.19l1.64-6.68c-1.04-1.19-2.18-2.47-3.31-3.76,6.84,5.22,10.62-.84,15.22-3.86,1.24.62,2.5,1.25,3.95,1.98.85-1.17,1.59-2.19,2.6-3.57.47.83,1.14,1.56.99,1.82-.89,1.56-2.45,4.43-2.9,4.28-4.98-1.71-7.65,2.51-11.17,4.17-2.66,1.25-4.79,3.62-7.15,5.49l.12.12Z" fill="#fff"/>
    <path id="Path_3513" data-name="Path 3513" d="M150.31,150.01q.51,8.02-7.47,7.48c-2.6-.18-5.19-.37-7.85-.56,1.04-4.85,4.01-7.13,8.08-6.84,2.45.17,4.92.05,7.38.06Z" fill="#fff"/>
    <path id="Path_3514" data-name="Path 3514" d="M144.13,106.79c.73,2.97,2.3,6.03,2,8.89-.46,4.33-2.21,8.53-3.41,12.78l-2.2-.36q.945-10.575,1.9-21.14c.57-.06,1.15-.11,1.72-.17Z" fill="#fff"/>
    <path id="Path_3515" data-name="Path 3515" d="M36.37,145.51c.51,1.29,1.45,2.57,1.46,3.86.01,3.1,1.6,3.82,4.34,4.14a26.6,26.6,0,0,1,7.98,2.57c-12.21,2.74-18.05-.73-13.77-10.58Z" fill="#fff"/>
    <path id="Path_3516" data-name="Path 3516" d="M248.73,175.15c1.42-3.06,2.82-6.13,4.28-9.17,1.87-3.91,5.45-5.19,10.87-3.58-.9.71-1.51,1.6-2.21,1.68-3.91.48-6.01,2.17-6.91,6.38-.46,2.16-3.54,3.76-5.43,5.61-.2-.31-.4-.62-.59-.93Z" fill="#fff"/>
    <path id="Path_3517" data-name="Path 3517" d="M266.5,148.37c1.57,7.61,2.43,9.27-13.32,7.62,2.33-.83,4.63-2.24,7-2.37,3.59-.19,6.13-.93,6.31-5.25Z" fill="#fff"/>
    <path id="Path_3518" data-name="Path 3518" d="M52.83,175.05c-1.36-1.36-3.73-2.6-3.9-4.09-.54-4.83-3.32-6.48-7.56-6.97-.51-.06-.95-.72-1.52-1.18,6.31-3.02,9.45-1.39,12.98,12.24Z" fill="#fff"/>
    <path id="Path_3519" data-name="Path 3519" d="M72.6,115.98c2.8-5.6,3.85-12.36,11.8-16.13-.98,1.89-1.34,2.63-1.74,3.35-1.74,3.22-3.45,6.46-5.26,9.64-.91,1.6-2.01,3.09-3.03,4.64l-1.77-1.5Z" fill="#fff"/>
    <path id="Path_3520" data-name="Path 3520" d="M194.3,74.1c4.42,3.65,8.84,7.3,13.84,11.42-4.33,1.05-12.51-6.72-13.72-11.55l-.13.13Z" fill="#fff"/>
    <path id="Path_3521" data-name="Path 3521" d="M78.97,116.06q8.415-3.885,16.84-7.77l.85,1.83q-8.415,3.855-16.84,7.7c-.29-.59-.57-1.17-.86-1.76Z" fill="#fff"/>
    <path id="Path_3522" data-name="Path 3522" d="M168.12,49.15c-1.98.53-3.96,1.05-5.94,1.58-.04-2.5-.08-4.99-.12-7.49l6.02,3.7c.01.74.03,1.47.04,2.21Z" fill="#fff"/>
    <path id="Path_3523" data-name="Path 3523" d="M154.3,118.89c.96,1.25,2.76,2.56,2.69,3.75-.11,1.94-1.44,3.81-2.26,5.71l-1.87-.38c-.14-2.74-.29-5.47-.43-8.21.62-.29,1.25-.58,1.87-.87Z" fill="#fff"/>
    <path id="Path_3524" data-name="Path 3524" d="M130.47,110.88c-1.4-3.18-2.29-6.32,1.87-9.11v9.14Z" fill="#fff"/>
    <path id="Path_3525" data-name="Path 3525" d="M171.59,115.09v-8.5c.61,0,1.21.02,1.82.03v8.54C172.8,115.14,172.2,115.11,171.59,115.09Z" fill="#fff"/>
    <path id="Path_3526" data-name="Path 3526" d="M127.67,114.97c1.63,1.28,2.29,1.55,2.31,1.85.13,2.49.15,4.98.19,7.47-.84-.14-2.39-.24-2.4-.43-.16-2.61-.11-5.24-.11-8.89Z" fill="#fff"/>
    <path id="Path_3527" data-name="Path 3527" d="M131.97,257.69c1.67-6.07,5.14-7.95,9.69-5.74C138.47,253.84,135.67,255.5,131.97,257.69Z" fill="#fff"/>
    <path id="Path_3528" data-name="Path 3528" d="M161.8,251.89c4.46-2.12,7.73-.31,9.57,5.76-3.67-2.21-6.43-3.88-9.57-5.76Z" fill="#fff"/>
    <path id="Path_3529" data-name="Path 3529" d="M204.41,96.77c.53,1.29.83,1.76.75,1.84-2,1.97-4.04,3.89-6.08,5.83a12.2,12.2,0,0,1-1.23-1.8c2.05-1.96,4.2-3.8,6.56-5.87Z" fill="#fff"/>
    <path id="Path_3530" data-name="Path 3530" d="M200.94,138.81c2.38,2.31,6.35,3.41,5.07,8.56q-3.06-3.825-6.11-7.66C200.25,139.41,200.59,139.11,200.94,138.81Z" fill="#fff"/>
  </g>
</svg>
