<svg id="ronin-charm" xmlns="http://www.w3.org/2000/svg" width="60" height="60" viewBox="0 0 60 60">
  <rect id="Rectangle_3313" data-name="Rectangle 3313" width="60" height="60" fill="none"/>
  <g id="Layer_1-2" transform="translate(13 10)">
    <g id="Group_69" data-name="Group 69" transform="translate(0 0)">
      <path id="Path_2857" data-name="Path 2857" d="M2.83,13.705a2.316,2.316,0,0,1-.546.146,1.1,1.1,0,0,1-.622-.12c-.08-.061.026-.363.045-.554.108-1.149.908-1.989,1.318-2.985A23.164,23.164,0,0,0,3.887,6.2,7.214,7.214,0,0,1,7.474,1,10.158,10.158,0,0,1,10.761.1,18.067,18.067,0,0,1,14.07.045c3.961.167,6.769,2.212,8.806,5.483a.717.717,0,0,1,.148.4c-.146,1.252.737,1.443,1.646,1.7,3.047.851,6.086,1.736,9.126,2.62.744.216,1.006,1.233.657,2.172-.6,1.627-1.191,3.258-1.733,4.906-1.015,3.086-2,6.182-2.983,9.276-.732,2.292-1.445,4.592-2.179,6.883q-.954,2.984-1.942,5.957c-.223.668-.832.844-1.64.607-2.754-.805-5.511-1.606-8.276-2.376-3.581-1-7.17-1.966-10.758-2.941-1.288-.35-2.589-.664-3.875-1.023-1.182-.329-1.316-.872-.725-1.973a11.409,11.409,0,0,0,.741-2.216c.947-3.23,1.876-6.466,2.821-9.7q1.443-4.929,2.906-9.851C7.3,8.3,7.8,6.633,8.3,4.964c.472-1.593.957-1.823,2.524-1.349,2.777.84,5.566,1.644,8.358,2.441.183.052.417-.073.626-.117-.078-.289-.061-.692-.249-.847A21.142,21.142,0,0,0,16.648,2.9,8.77,8.77,0,0,0,9,2.471a5.14,5.14,0,0,0-2.5,2.789c-.363.687-.582,1.447-.877,2.17C5.311,8.209,5,8.99,4.654,9.751c-.316.683-.751,1.306-.194,2.1.139.2-.051.65-.126.978A7.189,7.189,0,0,1,4.021,13.9a7.41,7.41,0,0,1-.457.84c-.2-.237-.4-.471-.591-.713a1.837,1.837,0,0,1-.146-.326Zm14.5,2.033a6.259,6.259,0,1,0-.087,12.517,6.259,6.259,0,1,0,.087-12.515Zm4.154-9.8c.089-.7-.758-1.749-1.71-2.279C20.3,4.361,20.872,5.125,21.482,5.935Z" transform="translate(0.001 0.005)" fill="#fff"/>
      <path id="Path_2858" data-name="Path 2858" d="M78.955,115.008a3.727,3.727,0,0,1-2.449-2.041,1.054,1.054,0,0,1,.275-.758,2.561,2.561,0,0,0-1.724-4.519,3.12,3.12,0,0,1-.676-.183,2.851,2.851,0,0,1,2.378-.954c.723-.054.894.53,1.112,1.034a2.488,2.488,0,0,0,2.238,1.679,2.416,2.416,0,0,0,2.533-1.473.85.85,0,0,1,.361-.464,2.1,2.1,0,0,1-.044,2.054c-.328.844-.765,1.294-1.831,1.039a2.329,2.329,0,0,0-2.577,1.217,2.087,2.087,0,0,0,.084,2.652,3.656,3.656,0,0,1,.319.718Z" transform="translate(-61.413 -87.974)" fill="#fff"/>
    </g>
  </g>
</svg>
