<svg id="Component_265_1" data-name="Component 265 – 1" xmlns="http://www.w3.org/2000/svg" width="342.24" height="342.24" viewBox="0 0 342.24 342.24">
  <g id="Component_230_20" data-name="Component 230 – 20">
    <g id="Rectangle_3295" data-name="Rectangle 3295" transform="translate(171.12) rotate(45)" fill="#fff" stroke="#000" stroke-width="3">
      <rect width="242" height="242" stroke="none"/>
      <rect x="1.5" y="1.5" width="239" height="239" fill="none"/>
    </g>
    <g id="Rectangle_3296" data-name="Rectangle 3296" transform="translate(171.421 30) rotate(45)" stroke="#000" stroke-width="3">
      <rect width="200" height="200" stroke="none"/>
      <rect x="1.5" y="1.5" width="197" height="197" fill="none"/>
    </g>
  </g>
  <g id="Group_275" data-name="Group 275" transform="translate(20.32 13.13)">
    <path id="Path_3258" data-name="Path 3258" d="M143.49,273.95c-2,1.65-2.05,1.7-4.19-.47-4.68-4.74-9.26-9.58-13.95-14.31-10.09-10.16-20.31-20.19-30.31-30.44-10.52-10.79-21.2-21.47-31.15-32.78-10.42-11.85-20.09-24.37-30-36.66a89.316,89.316,0,0,1-6.24-8.94,3.175,3.175,0,0,1,.29-2.97c1.72-1.92,3.75-3.57,6.01-5.63q22.335,34,44.46,67.66c.54-.35,1.08-.71,1.62-1.06-3.89-6.11-7.81-12.19-11.65-18.33-10.04-16.06-20.09-32.11-29.93-48.29-.73-1.2-.36-3.67.41-5.03,1.2-2.11,3.18-3.78,5.62-6.52,13.95,22.02,27.4,43.24,40.84,64.46.35-.22.7-.43,1.05-.65-5.55-9.09-11.17-18.14-16.63-27.29-7.06-11.81-13.9-23.74-21.03-35.51-2.79-4.61,1.51-6.1,3.55-7.96,2.72-2.48,3.32.89,4.3,2.63,15.41,27.58,30.69,55.24,46.31,82.7,8.8,15.47,18.05,30.7,27.36,45.88,4.14,6.75,8.92,13.1,13.41,19.63l-.12-.12Z" fill="#fff"/>
    <path id="Path_3259" data-name="Path 3259" d="M280.91,150.97c-37.02,48.29-82.44,87.72-123.74,131.09-.35-.28-.7-.55-1.05-.83L246.6,131.86c-.38-.27-.77-.53-1.15-.8-1.11.79-2.22,1.59-3.33,2.38-.36-.22-.71-.44-1.07-.65,1.93-4.25,3.8-8.53,5.89-12.7.22-.44,1.71-.36,2.59-.29.36.03.65.71,1,1.05,9.45,9.05,9.11,8.83,2.11,19.99-5.67,9.04-9.98,18.93-15.6,28-9.02,14.56-18.64,28.75-27.99,43.1-.34.51-.55,1.11.08,2.29,3.41-4.71,6.79-9.44,10.23-14.13q21.99-30,44.07-59.93c.84-1.14,2.67-1.55,4.04-2.3-.46,1.44-.62,3.1-1.44,4.29q-23.145,33.75-46.42,67.4a7.7,7.7,0,0,0-1.48,5.05,23.6,23.6,0,0,0,3-2.51q26.88-31.185,53.7-62.42c3.08-3.59,4.34-.25,6.07,1.29Z" fill="#fff"/>
    <path id="Path_3260" data-name="Path 3260" d="M121.15,204.92a26.278,26.278,0,0,1-2.38-3.68c-1.85-4.63-3.39-9.39-5.43-13.92-1.26-2.79-1.32-4.99.87-7.25,4.69-4.84,6.06-10.53,5.72-17.33-.69-13.96-.54-27.95-.7-41.93-.03-2.81-.56-4.6-3.71-6.08-4.31-2.02-8.75-4.49-7.22-11.35.77-3.45-1.39-7.52-2.14-11.33-1.21-6.13-2.4-12.26-3.46-18.41-.11-.63.57-1.58,1.14-2.12,3.91-3.74,7.89-7.41,12.12-11.36.31,3.2.55,5.8.8,8.4l1.5-.06c.25-.4.8-.88.71-1.17-2.66-8.42,2.48-13.68,7.77-18.68,5.75-5.43,11.79-10.53,17.71-15.78l1.89.99c-.69,2.87-.92,5.96-2.16,8.57-2.59,5.45-2.78,11.02-2.75,16.91.03,5.25-1.41,10.51-2.26,15.76-.67,4.11-1.65,8.18-2.08,12.31-.43,4.03-2.17,6.82-5.8,8.65a32.254,32.254,0,0,0-4.46,3.27c.27.36.54.73.8,1.09,2.13-1.52,4.26-3.03,6.28-4.48,0,4.06.99,8.2-.29,11.44-1.2,3.02-4.93,4.97-7.33,7.59-1.38,1.5-3.27,3.37-3.32,5.12-.43,16.31-.7,32.64-.5,48.95.04,2.98,1.87,6.38,3.83,8.81,3.3,4.08,3.88,7.45.84,12.06-2.12,3.22-2.79,7.38-4.15,11.11-.37,1.01-.92,1.97-1.84,3.91Zm-2.04-93.12c0-3.97.07-7.05-.06-10.12-.03-.58-.82-1.21-1.39-1.65-.16-.12-.93.27-1.17.6-.99,1.34.43,9.21,2.63,11.16Zm5.95-53.95c-.44-.08-.88-.16-1.33-.24V68.48c.44.02.88.05,1.33.07V57.84Zm-1.53,53.03,1.33.12V100.24c-.44-.01-.89-.02-1.33-.04Z" fill="#fff"/>
    <path id="Path_3261" data-name="Path 3261" d="M143.62,274.07q.15-37.425.31-74.84c.04-9.16-.02-18.33.15-27.49.06-3.39-.99-4.98-4.6-4.66-2.66.23-5.36.05-8.04.05-.09-.83-.18-1.65-.27-2.48a52.653,52.653,0,0,1,6.32-.85c6.7-.14,6.76-.07,6.75-6.65,0-8.14-.02-16.28-.27-24.41-.1-3.13.97-4.76,4.07-5.01.33-.03.66-.08,1-.08,12.4-.17,13.76-.9,12.33,11.1-.64,5.42-.08,10.99-.06,16.49.03,8.47.03,8.42,8.39,8.7a25.2,25.2,0,0,1,4.61,1.01c-.04.6-.07,1.2-.11,1.79a48.325,48.325,0,0,1-6.98.41c-3.78-.29-5.32.8-5.29,4.96.17,25.63.1,51.25.08,76.88,0,9.52-9.84,22.72-18.53,24.96l.12.12Zm11.71-104.52c-.14,2.12-.35,3.92-.35,5.71,0,24.33-.03,48.66.08,72.98a15.841,15.841,0,0,1-5.38,12.35c-1.6,1.5-2.2,4.06-3.26,6.14,6.02-1.12,11.91-9.67,11.93-15.44q.12-38.43.04-76.85c-.02-6.56-2.85-8.29-10.56-6.02,2.98.45,5.13.78,7.5,1.14Zm-3.06-18.43c.81.5,1.62,1.01,2.43,1.51.71-1.67,2.19-3.49,1.9-4.95s-2.37-3.58-3.66-3.58c-1.38,0-2.76,2.14-4.14,3.35,1.16,1.22,2.32,2.45,3.48,3.67Z" fill="#fff"/>
    <path id="Path_3262" data-name="Path 3262" d="M177.8,83.65c-.09-2.25,1.42-5.2-2.89-5.47-.83-.05-1.98-2.14-2.22-3.43-1.76-9.45-3.31-18.94-4.97-28.41-.47-2.7-1.08-5.37-1.83-9.05,1.65.93,2.69,1.25,3.37,1.93,9.08,9.07,18.15,18.16,27.11,27.35,1.46,1.5,3.06,3.43,3.35,5.35a7.364,7.364,0,0,1-2.08,5.33c-1.68,1.74-4.11,2.74-6.4,4.18-2.15-4.22,3.12-4.75,4.58-7.3-7.77,1.6-8.1,2.18-7.42,13.82,1.86-1.43,3.43-2.69,5.05-3.88,1.54-1.13,3.15-2.18,4.72-3.26.56.4,1.13.79,1.69,1.19-1.1,1.94-1.74,4.94-3.37,5.63-8.43,3.58-9.06,10.07-8.76,18.06.48,12.62.05,25.3-.43,37.93-.19,5.03,2.08,8.64,4.94,12.1,2.57,3.11,2.71,6.11,1.02,9.67-2.23,4.7-4.11,9.57-6.71,15.7-1.5-2.65-2.36-3.94-2.98-5.34-.53-1.21-.55-2.68-1.21-3.79-4.58-7.71-6.26-15.03,1.63-21.91,1.1-.96,1.28-3.41,1.27-5.17-.06-15.96-.3-31.92-.39-47.89-.01-2.75-.39-4.55-3.57-5.54-2.4-.75-4.59-2.74-6.38-4.65-1.04-1.11-1.09-3.13-1.58-4.75,1.51.51,3.01,1.02,4.55,1.51,2.05,1.44,4.08,2.89,6.23,4.45,1.66-10.05.14-12.62-8.8-14.68a21.956,21.956,0,0,0,2.87,2.76c1.27,1.19,2.43,2.48,3.64,3.73-1.34,1.28-2.69,2.56-4.03,3.83Z" fill="#fff"/>
    <path id="Path_3263" data-name="Path 3263" d="M220,89.82a15.247,15.247,0,0,1,.99,3.68c.03,6.31.31,12.67-.31,18.93-.68,6.87.57,12.92,5.39,17.88,2.46,2.53,2.06,4.85.82,7.64-2.33,5.26-4.48,10.6-7.11,16.87a39.057,39.057,0,0,1-2.43-3.78c-.64-1.34-.96-2.84-1.62-4.18-3.85-7.86-7.4-15.51,1.2-22.93,1.46-1.26,1.49-4.64,1.5-7.04.04-7.98-.24-15.96-.35-23.94a20,20,0,0,1,.34-2.76c.53-.13,1.05-.25,1.58-.38Z" fill="#fff"/>
    <path id="Path_3264" data-name="Path 3264" d="M87.5,89.87c0,4.55.45,9.15-.11,13.62-.74,5.93.62,10.92,4.82,15.04,2.83,2.78,2.84,5.57,1.25,9-2.41,5.22-4.45,10.6-7.28,17.44-1.95-4.49-3.32-7.55-4.62-10.64-1.28-3.06-2.65-6.09-3.65-9.24-.39-1.22-.43-3.39.31-4,8.98-7.49,6.31-17.86,7.04-27.39.1-1.32.27-2.64.41-3.96l1.82.13Z" fill="#fff"/>
    <path id="Path_3265" data-name="Path 3265" d="M247.33,173.7c2.36-3.27,4.62-6.61,7.09-9.79,4.87-6.26,9.76-12.52,14.88-18.57.87-1.03,2.93-1.05,4.45-1.53-.33,1.45-.21,3.32-1.08,4.3-6.81,7.68-13.84,15.17-20.72,22.79a32.644,32.644,0,0,0-2.89,4.42l-1.73-1.61Z" fill="#fff"/>
    <path id="Path_3266" data-name="Path 3266" d="M68.04,140.25c-5.31-6.35-9.71-13.17-11.12-21.49C62.96,124.71,65.14,132.67,68.04,140.25Z" fill="#fff"/>
    <path id="Path_3267" data-name="Path 3267" d="M29.65,163.86c-2.88-3.04-5.76-6.09-8.97-9.48,3.86-.88,8.22,3.41,8.97,9.48Z" fill="#fff"/>
  </g>
</svg>
