<svg id="Component_321_1" data-name="Component 321 – 1" xmlns="http://www.w3.org/2000/svg" width="342.24" height="342.24" viewBox="0 0 342.24 342.24">
  <g id="Component_230_39" data-name="Component 230 – 39">
    <g id="Rectangle_3295" data-name="Rectangle 3295" transform="translate(171.12) rotate(45)" fill="#fff" stroke="#000" stroke-width="3">
      <rect width="242" height="242" stroke="none"/>
      <rect x="1.5" y="1.5" width="239" height="239" fill="none"/>
    </g>
    <g id="Rectangle_3296" data-name="Rectangle 3296" transform="translate(171.421 30) rotate(45)" stroke="#000" stroke-width="3">
      <rect width="200" height="200" stroke="none"/>
      <rect x="1.5" y="1.5" width="197" height="197" fill="none"/>
    </g>
  </g>
  <g id="Layer_1-2" transform="translate(19.024 14.91)">
    <g id="Group_163" data-name="Group 163">
      <path id="Path_3747" data-name="Path 3747" d="M146.12,124.77c-.6-.69-1.26-1.41-1.26-1.41-.36-.39-.61-.65-.61-.65a47.05,47.05,0,0,0-5.71-5.02,51.973,51.973,0,0,0-18.18-8.66,44.721,44.721,0,0,0-9.34-1.37,29.824,29.824,0,0,0-3.13-.16,36.009,36.009,0,0,0-12.36,2.31,47.843,47.843,0,0,0-11.61,6.25,54.61,54.61,0,0,0-9.83,9.14,48.268,48.268,0,0,0-7.01,10.99,46.107,46.107,0,0,0-2.23,7.64,45.122,45.122,0,0,0-.8,6.24,31.469,31.469,0,0,0,.13,5.74s.31.59.71.59c.28,0,.54-.3.76-.88,1.76-5.22,5.33-13.41,6.81-15.66a.254.254,0,0,1,.12-.02.435.435,0,0,1,.31.18c.72.84,1.18,4.55.69,7.67a12.168,12.168,0,0,1-1.95,3.88,23.19,23.19,0,0,0-3.14,6.32,11.257,11.257,0,0,0,.95,8.34,53.185,53.185,0,0,0,4.1,6.2,33.336,33.336,0,0,1,1.92,2.76c-.05-.04-5.12-3.7-6.64-3.7a.558.558,0,0,0-.33.1c-.66,1.68.45,8.69.49,8.99,1.65,1.49.87,2.52-.2,3.96a7.284,7.284,0,0,0,1.36,11.43,9.592,9.592,0,0,0,5.34,1.63,5.58,5.58,0,0,0,4.51-1.78,5.4,5.4,0,0,0,1.6-4.84,23.062,23.062,0,0,1,.56-6.88,10.2,10.2,0,0,1,3.06,1.19,5.82,5.82,0,0,1,3.03,3.83,2.676,2.676,0,0,1-.91,2.93,9,9,0,0,0-1.48,1.9,15.393,15.393,0,0,0-1.53,4.19c-.11.98,1.13,2.73,2.18,4.02a21.941,21.941,0,0,0,2.51,2.68h.02a1.237,1.237,0,0,0,.76-.27.153.153,0,0,0,.03-.16,15.657,15.657,0,0,0-.86-1.97c-.59-1.23-1.21-2.5-1-3.01a13.217,13.217,0,0,1,1.73-1.04c.26-.14.45-.25.46-.26a2.662,2.662,0,0,0,.03-.28,4,4,0,0,1,1.02-2.84,1.127,1.127,0,0,1,.73-.22,7.236,7.236,0,0,1,3.14,1.35,9.294,9.294,0,0,1,.19-1.82,3.126,3.126,0,0,1,1.55-2.35,3.277,3.277,0,0,1,1.82-.58,5.79,5.79,0,0,1,3.68,1.91,7.4,7.4,0,0,1,.5-1.53,3.065,3.065,0,0,1,1.82-1.84,8.535,8.535,0,0,1,1.23-.12,3.743,3.743,0,0,1,3.13,1.39,3.437,3.437,0,0,1,.66,1.39,6.6,6.6,0,0,1,.92-1.47,3.615,3.615,0,0,1,2.66-1.48h.15a3.26,3.26,0,0,1,2.91,1.59,7.908,7.908,0,0,1,.52.95c.18.37.31.64.46.64h0a2.792,2.792,0,0,0,.9-.44,5.966,5.966,0,0,1,2.78-1.06,2.22,2.22,0,0,1,.51.06,5.368,5.368,0,0,1,2.57,4.79c.02.37.03.59.12.59.05,0,.13-.07.25-.22a2.841,2.841,0,0,1,2.45-1.28,2.1,2.1,0,0,1,1.78.77,1.457,1.457,0,0,1,.04,1.43c.56,1.08.79,1.29,1,1.29a.475.475,0,0,0,.23-.07h0l.04-.02a.946.946,0,0,1,.37-.08,1.957,1.957,0,0,1,1.1.5c.16.4-.39,1.88-.87,3.19a7,7,0,0,0-.68,2.37.06.06,0,0,0,.06.03h0a6.038,6.038,0,0,0,2.51-1.61,8.268,8.268,0,0,0,2.43-3.64,36.328,36.328,0,0,0-.44-4.23h0c-2.24-2.3-2.61-3.41-2.87-4.23a3.494,3.494,0,0,0-.35-.82,4.5,4.5,0,0,1,1.32-3.29,8.427,8.427,0,0,1,2.71-1.85,6.928,6.928,0,0,1,2.14-.62l1.02,10.27a10.6,10.6,0,0,0,1.83,1.43,8.828,8.828,0,0,0,4.57,1.43c2.9,0,5.54-1.77,7.84-5.25a7.352,7.352,0,0,0-.12-4.68,10.432,10.432,0,0,0-1.92-2.91c-.95-1.12-1.7-2.01-1.11-3.16,0,0,.38-.06.8-1.24.39-1.09.9-3.39,1.13-8.15.14-.27-.18-.54-.19-.55a.5.5,0,0,0-.46-.21,8.427,8.427,0,0,0-3.04,1.47,8.556,8.556,0,0,1-2.59,1.32,13.374,13.374,0,0,1,2.44-4.34,31.137,31.137,0,0,0,3.27-5.2c.63-1.1.52-3.61-.3-6.72a25.3,25.3,0,0,0-1.34-3.87,8.865,8.865,0,0,0-1.6-2.61c-1.96-.57-1.74-6.71-1.33-9.6.19-1.3.42-2.11.6-2.11.05,0,.08.06.09.08.3.51,4.29,11.03,5.24,13.54-.11,1.12.53,1.88,1.01,1.88.51,0,.92-1.05,1.07-1.42a9.009,9.009,0,0,0,.18-5.37s-5.37-20.14-8.38-23.64Zm-44.34,29.96a3.809,3.809,0,0,0-2.54,1.93c-.6,1.91-1.1,3.61-1.55,5.11h0c-1.64,5.5-2.55,8.52-4.22,10.11-1.62,1.54-3.94,1.79-8.89,1.79-5.49-1.49-11.92-8.12-11.22-13.11-.03-4.43.55-7.63,3.49-9.91a115.679,115.679,0,0,1,14.2-4.2h0c.54-.13,1.16-.27,1.83-.43a14.5,14.5,0,0,1,1.74-.1,10.412,10.412,0,0,1,8.66,4.23,12.657,12.657,0,0,1,2.08,4.23s-.28-.02-.71-.02a10.672,10.672,0,0,0-2.87.38Zm14.04,28.33c-.72,1.19-1.54,2.01-2,2.01a.26.26,0,0,1-.15-.04,37.946,37.946,0,0,1-3.93-4.15,18.69,18.69,0,0,1-1.53,2.12c-.8.97-1.96,2.12-2.93,2.12a1.151,1.151,0,0,1-.93-.48c-.96-1.6-2.18-4.44-2-5.59.46-2.95,2.4-6.8,3.93-9.51,1.67-2.94,3.24-5.2,3.26-5.22.02.04,1.92,3.03,3.79,6.32,1.73,3.04,3.79,6.97,3.79,8.42a8.174,8.174,0,0,1-1.3,4Zm30.43-22.5c.7,5-5.73,11.62-11.22,13.11-4.94,0-7.27-.25-8.89-1.79-1.67-1.59-2.57-4.61-4.22-10.11-.45-1.5-.96-3.2-1.55-5.11a3.8,3.8,0,0,0-2.54-1.93,10.288,10.288,0,0,0-2.87-.38h0c-.25,0-.49,0-.7.02h-.01a12.849,12.849,0,0,1,2.08-4.23,10.424,10.424,0,0,1,8.66-4.23,16.911,16.911,0,0,1,1.74.1c.68.16,1.29.31,1.83.44a116.481,116.481,0,0,1,14.2,4.2c2.95,2.28,3.52,5.48,3.49,9.91Z" fill="#fff"/>
      <path id="Path_3748" data-name="Path 3748" d="M112.91,190.46c-1.23-.22-2.85,1.45-2.89,1.96v.85a.474.474,0,0,0-.23-.03.976.976,0,0,0-.48-.01v-.8c-.04-.51-1.66-2.18-2.89-1.96,0,0-1.94-.33-2.89.82s-.65,1.28-.89,3.76c.23,5.66,1.05,6.96,1.05,6.96.04.51,1.86,2.32,2.36,2.28,2.47-.07,3.08-1.52,3.22-2.95a2.1,2.1,0,0,1,.24-.06,1.114,1.114,0,0,1,.54.14c.16,1.4.79,2.8,3.21,2.87.5.04,2.33-1.78,2.36-2.28,0,0,.82-1.3,1.05-6.96-.24-2.49.05-2.62-.89-3.77s-2.89-.82-2.89-.82Zm-3.1,10.36a.784.784,0,0,0,.22-.02,3.867,3.867,0,0,0,.03.48l-.25-.46Z" fill="#fff"/>
      <path id="Path_3749" data-name="Path 3749" d="M122.9,193.21c-.9-1.18-2.86-.92-2.86-.92-1.22-.27-2.9,1.35-2.95,1.86l-.26,7.24c-.07,1.64-.41,4.51,3.09,4.73.5.05,2.39-1.69,2.44-2.2,0,0,.86-1.27,1.29-6.92-.15-2.49.14-2.62-.76-3.79Z" fill="#fff"/>
      <path id="Path_3750" data-name="Path 3750" d="M102.15,194.11c-.06-.5-1.77-2.09-2.98-1.81,0,0-1.95-.23-2.84.97s-.59,1.31-.7,3.8c.53,5.64,1.41,6.89,1.41,6.89.06.5,1.97,2.22,2.48,2.16,3.49-.28,3.11-3.14,3.01-4.78l-.38-7.24Z" fill="#fff"/>
      <path id="Path_3751" data-name="Path 3751" d="M95.26,198.02c-.11-.5-1.76-2.24-2.95-1.84,0,0-.5-.19-1.28,1.08s-1.14,1.96-1.04,4.46c2.67,6.01,5.04,6.06,5.54,5.95,2.67-2.57.79-3.94.08-6.6-.57-2.1-.52-1.89-.35-3.04Z" fill="#fff"/>
      <path id="Path_3752" data-name="Path 3752" d="M127.21,196.18c-1.19-.39-2.84,1.35-2.95,1.84.16,1.16.22.95-.35,3.04-.71,2.66-2.6,4.03.08,6.6.5.11,2.87.06,5.54-5.95a6.216,6.216,0,0,0-1.03-4.46c-.78-1.27-1.28-1.08-1.28-1.08Z" fill="#fff"/>
    </g>
    <g id="Group_164" data-name="Group 164">
      <path id="Path_3753" data-name="Path 3753" d="M232.44,123.35a46.565,46.565,0,0,0-7.58-7.07,51.974,51.974,0,0,0-18.18-8.66,44.721,44.721,0,0,0-9.34-1.37,29.824,29.824,0,0,0-3.13-.16,36.009,36.009,0,0,0-12.36,2.31,47.843,47.843,0,0,0-11.61,6.25,54.61,54.61,0,0,0-9.83,9.14,48.268,48.268,0,0,0-7.01,10.99,46.1,46.1,0,0,0-2.23,7.64c-.43,2.16-1.54,4.14-.8,6.24.1.28.17.43.31.77,0,0,.16.41.31.82.5,1.33,1.02,4.33,1.52,4.45.52.13,1.98-2.58,6.27-16.24a.254.254,0,0,1,.12-.02.435.435,0,0,1,.31.18c.72.84,1.18,4.55.69,7.67a12.168,12.168,0,0,1-1.95,3.88,23.19,23.19,0,0,0-3.14,6.32,11.257,11.257,0,0,0,.95,8.34,53.184,53.184,0,0,0,4.1,6.2,33.334,33.334,0,0,1,1.92,2.76c-.05-.04-5.12-3.7-6.64-3.7a.558.558,0,0,0-.33.1c-.66,1.68.45,8.69.49,8.99,1.65,1.49.87,2.52-.2,3.96a7.284,7.284,0,0,0,1.36,11.43,9.592,9.592,0,0,0,5.34,1.63,5.58,5.58,0,0,0,4.51-1.78,5.4,5.4,0,0,0,1.6-4.84,23.062,23.062,0,0,1,.56-6.88,10.2,10.2,0,0,1,3.06,1.19,5.82,5.82,0,0,1,3.03,3.83,2.676,2.676,0,0,1-.91,2.93,9,9,0,0,0-1.48,1.9,15.393,15.393,0,0,0-1.53,4.19c-.11.98,1.13,2.73,2.18,4.02a21.941,21.941,0,0,0,2.51,2.68h.02a1.237,1.237,0,0,0,.76-.27.153.153,0,0,0,.03-.16,15.658,15.658,0,0,0-.86-1.97c-.59-1.23-1.21-2.5-1-3.01a13.218,13.218,0,0,1,1.73-1.04c.26-.14.45-.25.46-.26a2.658,2.658,0,0,0,.03-.28,4,4,0,0,1,1.02-2.84,1.127,1.127,0,0,1,.73-.22,7.236,7.236,0,0,1,3.14,1.35,9.294,9.294,0,0,1,.19-1.82,3.126,3.126,0,0,1,1.55-2.35,3.277,3.277,0,0,1,1.82-.58,5.79,5.79,0,0,1,3.68,1.91,7.4,7.4,0,0,1,.5-1.53,3.065,3.065,0,0,1,1.82-1.84,8.535,8.535,0,0,1,1.23-.12,3.743,3.743,0,0,1,3.13,1.39,3.437,3.437,0,0,1,.66,1.39,6.6,6.6,0,0,1,.92-1.47,3.615,3.615,0,0,1,2.66-1.48h.15a3.26,3.26,0,0,1,2.91,1.59,7.91,7.91,0,0,1,.52.95c.18.37.31.64.46.64h0a2.792,2.792,0,0,0,.9-.44,5.966,5.966,0,0,1,2.78-1.06,2.22,2.22,0,0,1,.51.06,5.368,5.368,0,0,1,2.57,4.79c.02.37.03.59.12.59.05,0,.13-.07.25-.22a2.84,2.84,0,0,1,2.45-1.28,2.1,2.1,0,0,1,1.78.77,1.457,1.457,0,0,1,.04,1.43c.56,1.08.79,1.29,1,1.29a.475.475,0,0,0,.23-.07h0l.04-.02a.946.946,0,0,1,.37-.08,1.957,1.957,0,0,1,1.1.5c.16.4-.39,1.88-.87,3.19a7,7,0,0,0-.68,2.37.06.06,0,0,0,.06.03h0a6.038,6.038,0,0,0,2.51-1.61,8.268,8.268,0,0,0,2.43-3.64,36.328,36.328,0,0,0-.44-4.23h0c-2.24-2.3-2.61-3.41-2.87-4.23a3.494,3.494,0,0,0-.35-.82,4.5,4.5,0,0,1,1.32-3.29,8.427,8.427,0,0,1,2.71-1.85,6.928,6.928,0,0,1,2.14-.62l1.02,10.27a10.6,10.6,0,0,0,1.83,1.43,8.828,8.828,0,0,0,4.57,1.43c2.9,0,5.54-1.77,7.84-5.25a7.352,7.352,0,0,0-.12-4.68,10.432,10.432,0,0,0-1.92-2.91c-.95-1.12-1.7-2.01-1.11-3.16,0,0,.38-.06.8-1.24.39-1.09.9-3.39,1.13-8.15.14-.27-.18-.54-.19-.55a.5.5,0,0,0-.46-.21,8.427,8.427,0,0,0-3.04,1.47,8.556,8.556,0,0,1-2.59,1.32,13.374,13.374,0,0,1,2.44-4.34,31.137,31.137,0,0,0,3.27-5.2c.63-1.1.52-3.61-.3-6.72a25.3,25.3,0,0,0-1.34-3.87,8.865,8.865,0,0,0-1.6-2.61c-1.96-.57-1.74-6.71-1.33-9.6.19-1.3.42-2.11.6-2.11a.116.116,0,0,1,.09.08c3.03,5.63,6.29,12.03,6.7,16.78.1.26.24.39.4.39.54,0,1.2-1.5,1.21-1.51a38.787,38.787,0,0,0-9.18-30.67ZM188.1,153.31a3.809,3.809,0,0,0-2.54,1.93c-.6,1.91-1.1,3.61-1.55,5.11h0c-1.64,5.5-2.55,8.52-4.22,10.11-1.62,1.54-3.94,1.79-8.89,1.79-5.49-1.49-11.92-8.12-11.22-13.11-.03-4.43.55-7.63,3.49-9.91a115.679,115.679,0,0,1,14.2-4.2h0c.54-.13,1.16-.27,1.83-.43a14.5,14.5,0,0,1,1.74-.1,10.412,10.412,0,0,1,8.66,4.23,12.657,12.657,0,0,1,2.08,4.23s-.28-.02-.71-.02a10.671,10.671,0,0,0-2.87.38Zm14.04,28.33c-.72,1.18-1.54,2.01-2,2.01a.26.26,0,0,1-.15-.04,37.946,37.946,0,0,1-3.93-4.15,18.691,18.691,0,0,1-1.53,2.12c-.8.97-1.96,2.12-2.93,2.12a1.151,1.151,0,0,1-.93-.48c-.96-1.6-2.18-4.44-2-5.59.46-2.95,2.4-6.8,3.93-9.51,1.67-2.94,3.24-5.2,3.26-5.22.02.04,1.92,3.03,3.79,6.32,1.73,3.04,3.79,6.97,3.79,8.42a8.174,8.174,0,0,1-1.3,4Zm30.43-22.5c.7,5-5.73,11.62-11.22,13.11-4.94,0-7.27-.25-8.89-1.79-1.67-1.59-2.57-4.61-4.22-10.11-.45-1.5-.96-3.2-1.55-5.11a3.8,3.8,0,0,0-2.54-1.93,10.288,10.288,0,0,0-2.87-.38h0c-.25,0-.49,0-.7.02h-.01a12.849,12.849,0,0,1,2.08-4.23,10.424,10.424,0,0,1,8.66-4.23,16.911,16.911,0,0,1,1.74.1c.68.16,1.29.31,1.83.43a116.481,116.481,0,0,1,14.2,4.2c2.95,2.28,3.52,5.48,3.49,9.91Z" fill="#fff"/>
      <path id="Path_3754" data-name="Path 3754" d="M199.23,189.03c-1.23-.22-2.85,1.45-2.89,1.96v.85a.474.474,0,0,0-.23-.03.976.976,0,0,0-.48-.01V191c-.04-.51-1.66-2.18-2.89-1.96,0,0-1.94-.33-2.89.82s-.65,1.28-.89,3.76c.23,5.66,1.05,6.96,1.05,6.96.04.51,1.86,2.32,2.36,2.28,2.47-.07,3.08-1.52,3.22-2.95a2.1,2.1,0,0,1,.24-.06,1.114,1.114,0,0,1,.54.14c.16,1.4.79,2.8,3.21,2.87.5.04,2.33-1.78,2.36-2.28,0,0,.82-1.3,1.05-6.96-.24-2.49.05-2.62-.89-3.77s-2.89-.82-2.89-.82Zm-3.1,10.36a.784.784,0,0,0,.22-.02,3.865,3.865,0,0,0,.03.48l-.25-.46Z" fill="#fff"/>
      <path id="Path_3755" data-name="Path 3755" d="M209.22,191.79c-.9-1.18-2.86-.92-2.86-.92-1.22-.27-2.9,1.35-2.95,1.86l-.26,7.24c-.07,1.64-.41,4.51,3.09,4.73.5.05,2.39-1.69,2.44-2.2,0,0,.86-1.27,1.29-6.92-.15-2.49.14-2.62-.76-3.79Z" fill="#fff"/>
      <path id="Path_3756" data-name="Path 3756" d="M188.47,192.68c-.06-.5-1.77-2.09-2.98-1.81,0,0-1.95-.23-2.84.97s-.59,1.31-.7,3.8c.53,5.64,1.41,6.89,1.41,6.89.06.5,1.97,2.22,2.48,2.16,3.49-.28,3.11-3.14,3.01-4.78l-.38-7.24Z" fill="#fff"/>
      <path id="Path_3757" data-name="Path 3757" d="M181.58,196.59c-.11-.5-1.76-2.24-2.95-1.84,0,0-.5-.19-1.28,1.08s-1.14,1.96-1.04,4.46c2.67,6.01,5.04,6.06,5.54,5.95,2.67-2.57.79-3.95.08-6.6-.57-2.1-.52-1.89-.35-3.04Z" fill="#fff"/>
      <path id="Path_3758" data-name="Path 3758" d="M213.53,194.75c-1.19-.39-2.84,1.35-2.95,1.84.16,1.16.22.95-.35,3.04-.71,2.66-2.6,4.03.08,6.6.5.11,2.87.06,5.54-5.95a6.216,6.216,0,0,0-1.03-4.46c-.78-1.27-1.28-1.08-1.28-1.08Z" fill="#fff"/>
    </g>
  </g>
</svg>
