<svg id="Component_304_1" data-name="Component 304 – 1" xmlns="http://www.w3.org/2000/svg" width="342.24" height="342.24" viewBox="0 0 342.24 342.24">
  <g id="Component_230_25" data-name="Component 230 – 25">
    <g id="Rectangle_3295" data-name="Rectangle 3295" transform="translate(171.12) rotate(45)" fill="#fff" stroke="#000" stroke-width="3">
      <rect width="242" height="242" stroke="none"/>
      <rect x="1.5" y="1.5" width="239" height="239" fill="none"/>
    </g>
    <g id="Rectangle_3296" data-name="Rectangle 3296" transform="translate(171.421 30) rotate(45)" stroke="#000" stroke-width="3">
      <rect width="200" height="200" stroke="none"/>
      <rect x="1.5" y="1.5" width="197" height="197" fill="none"/>
    </g>
  </g>
  <g id="Group_301" data-name="Group 301" transform="translate(37.858 35.522)">
    <path id="Path_3533" data-name="Path 3533" d="M186.945,61.022c.1-.3.2-.593.3-.881q.2-6.426.358-12.862-11.662-11.806-23.184-23.751c-7.46-7.757-14.86-12.085-25.627-10.506-2.862.419-5.157.873-7.251,3.045-10.052,10.41-20.322,20.6-30.5,30.88-.07,3-.1,6.047.087,9.057a10.674,10.674,0,0,1,1.352,4.468c.052.4.1.8.14,1.2.157.384.323.759.471,1.143a5.822,5.822,0,0,1,.384,1.606c2.6,6.911,7.7,11.9,13.533,16.2,2.9-.148,5.785-.288,8.682-.445,2.6-.14,3.944-1.571,4.136-4.127.218-2.871.061-6.623-3.106-6.754-6.2-.244-9.1-4.153-12.006-8.647a8.817,8.817,0,0,0,1.588,8.883c.454.585,1.073,1.178.707,1.911-.585,1.152-1.51.419-2.225.113-4.851-2.059-7.111-6.186-8.455-10.942-.27-.951-.305-2.548.6-2.8,4.049-1.152,4.31-5.148,6.317-7.818.925-1.23,1.728-2.731,3.682-2.7.524,0,1.4-.332,1.518-.7,2.181-6.963,7.548-1.7,11.221-2.9,1.3-.428,2.879,0,4.328.026,0,0-.009,0-.017-.017,3.97,2.67,8.516,2.635,13,2.513a52.649,52.649,0,0,0,7.4-1.274c-.052-1.7-2.906-2.059-2.129-4.075-.558.122-1.117.244-1.684.375.061.969-.5,1.283-1.309,1.047a1.319,1.319,0,0,1-.8-.89c-.113-.873.384-1.283,1.274-1.161,1.126-2.225,3.246-3.429,5.087-4.921.681-.55,1.579-.873,2.277-.14s.122,1.571-.131,2.347c1.64.192,2.67-.811,3.717-1.85.628-.628,1.466-1.143,2.286-.375.951.89.541,1.92-.174,2.7a30.054,30.054,0,0,1-6.239,5.3c4-.14,8.01,1.422,11.719-.986a1.376,1.376,0,0,1,2.2.532c1.78,4.817,7.53,6.858,8.455,12.268a2.8,2.8,0,0,0,1.126,1.8c1.867,1.03,4.337,1.571,3.211,4.6-1.544,4.127-3.324,8.115-7.871,9.842a1.788,1.788,0,0,1-1.579-.183c-.829-.873-.017-1.606.541-2.2,3.586-3.822,1.527-8.211,1.274-12.408-.044-.759-.454-1.518-1.379-1.187-.96.34-.471.977-.244,1.71,1.736,5.663-2.818,11.7-9,11.806q-12.395.2-24.807.061c-3.5-.035-4.607,1-2.818,4.354,1.379,2.574,2.53,5.445,1.771,8.342-.716,2.74-.026,3.429,2.557,3,4.834-.8,9.493.881,14.258,1.056,1.335.052,3.394.358,2.984,2.286-.4,1.885-2.417,2.024-3.953,1.44-3.927-1.5-8.019-.9-12.024-1.344-5.148-.567-7.871,1.658-9.118,6.344a.345.345,0,0,0,.471.288c2.565-.82,4.659,1,7.076,1.3,6.474.794,12.111-1.893,18.062-3.342A129.322,129.322,0,0,0,183.332,70.01a17.833,17.833,0,0,0,3.15-6.3,8.363,8.363,0,0,1,.436-2.7ZM140.088,42.463a46.167,46.167,0,0,1-6.125,1.248c-1.8-2.007-4.668-2.618-6.326-4.851-.768-1.038-2.051-2.068-.995-3.3,1.239-1.44,2.356-.209,3.028.89.777,1.274,1.885,1.03,3,1.047-.672-2.557.131-3.56,2.469-1.955,1.85,1.265,3.822,2.548,4.843,4.721,2.426.62,1.571,1.7.1,2.19Z" transform="translate(-11.321 0)" fill="#fff"/>
    <path id="Path_3534" data-name="Path 3534" d="M253.534,145.619c-.122-2.757-.044-5.009.017-8.281.017-1.047.044-1.911.061-2.5-.393-.41-.977-1.038-1.693-1.789-9.555-10.061-17.041-17.085-20.235-20.287Q220.94,101.987,210.159,91.25c-.061.113-.131.236-.192.349a49.089,49.089,0,0,1-4.546,8.952,3.963,3.963,0,0,1-.576,2.129c-2.722,5.131-3.3,10.41-.82,15.846.715,1.571.428,2.7-1.623,2.2-7.478-1.85-13.237,1.422-18.542,6.108-.462,3.167,2.9,2.242,3.97,3.708,3.324,4.537,6.056,2.661,9.834.052,5.113-3.543,10.846-6.684,17.495-6.09,3.569.323,3.874-2.443,4.939-4.433.794-1.492,1.4-3.255,3.359-2.478,2.181.855.48,2.391.087,3.6-.794,2.434,1.352,5.209,4.625,5.305,2.914.079,4.808,1.693,6.771,3.377.794.681,1.51,1.606.716,2.618-.811,1.03-1.92.489-2.749-.061-3.665-2.443-7.5-4.276-12.024-4.485-10.645-.506-20.025,2.216-27.39,10.357-1.073,1.187-2.312,2.7-3.961,2.277-2.216-.576-.462-2.408-.646-3.673-.436-2.975-6.789-6.047-11.326-5.645-2.024.175-3.822,1.51-5.942,1.047a10.375,10.375,0,0,0-5,5.5c.026,2.391.314,4.843-1.632,6.762-.14.838-.27,1.667-.41,2.5a5.562,5.562,0,0,1,.471,1.108c.262,1.431-2.452,2.731-.358,4.18a6.194,6.194,0,0,0,5.454.532c4.075-1.2,7.932-2.722,10.75-6.152.724-.881,1.745-1.763,2.958-.637.8.75.419,1.632-.148,2.338-5.9,7.277-15.287,10.977-23.4,6a1.935,1.935,0,0,1-1.161-1.684c-2.269-2.216-4.817-4.18-6.4-7.015-2.277-4.066-.969-8.8-2.618-13.08-1.963-5.113-2.871-10.7-8.586-13.307-1.03.646-1.893.663-2.426-.628a3.459,3.459,0,0,0-3.516.192c2.461,4.2,5.008,8.307,6.605,13,1.492,4.363,2.295,8-.462,12.539-1.632,2.679-1.44,6.832-2.365,10.27a16.418,16.418,0,0,1-.358,2.129c-.593,1.414-1.056,3.63-3.019,2.975-2.016-.672-.907-2.574-.515-4.092,1.379-5.375,3.56-10.689,1.614-16.4-.34-.995-.6-2.277.681-2.574,3.735-.864,1.946-2.783,1.265-4.825-1.483-4.424-4.7-7.783-6.841-11.8-2.155-2.653-5.262-3.237-8.359-3.848-1.134.855-.349,1.475.314,1.989,1.021.794,2.129,1.475,3.185,2.225,1.178.838,2.016,1.972.942,3.255-1.056,1.265-2.147.218-2.923-.6-2.155-2.286-5.166-3.124-7.713-4.738a4.455,4.455,0,0,0-5.1-.157c4.136,2.766,5.785,7.583,11.814,8.124,4.433.4,4.773,5.872,5.174,9.555a30.434,30.434,0,0,1-2.242,14.738c-1.1,2.722-.75,5.907-2.434,8.507a1.646,1.646,0,0,0-.044,1.2c6.186,1.78.995,4.572.419,6.623a43.871,43.871,0,0,0,.253,24.807c.8,2.74,2.277,5.375,1.536,8.4.445.218,1.056.323,1.3.681a.454.454,0,0,1-.611.628c-.366-.236-.489-.838-.716-1.274-5.035-3.831-5.6-9.685-6.719-15.226-.393-1.955.131-4.1-.253-6.064-.253-1.291,2.094-4.79-2.478-3.525-1.187.323-1-1.754-1-2.862-.017-5.27,2.792-9.624,4.817-14.188a48.9,48.9,0,0,0,4.7-20.078c0-1.606.166-3.185-1.972-3.778-1.8-.5-1.492-2.286-1.78-3.647-.375-1.832-1.2-3.333-3.124-3.735-1.754-.366-3.028.061-2.033,2.277.759,1.7,1.527,3.394,2.382,5.043a10.612,10.612,0,0,1,.724,8.813c-1.588,4.45-3.045,8.961-4.8,13.341-.585,1.457-1.536,3.874-3.551,2.853-1.606-.811-.323-2.74.253-4.249,2.059-5.462,4.886-10.645,4.581-16.858-.384-7.783-3.787-12.251-11.535-14.048-.558,2.356,2.7,2.2,2.731,4.162,3.01,4.677,4.363,9.528,1.483,14.8.637,2.7-.934,4.7-2.181,6.8q-4.084,6.871-8.2,13.734c-.628,1.047-1.614,2.024-2.836,1.326-1.387-.794-.6-2.024.017-3.019,1.466-2.33,2.923-4.659,4.476-6.928.567-.829.864-1.483-.017-2.216-.8.663-1.614,1.326-2.417,1.981C96.316,159,92.137,160.566,89,163.263c-6.344,5.462-12.661,10.75-12.609,20.156,0,.942-.4,1.771-1.5,1.71-1.44-.079-1.893-1.161-2.042-2.391-.436-3.647,1.143-6.789,2.792-9.79,2.251-4.1,5.619-7.33,9.048-10.471.724-.672,1.937-1.134,1.8-2.251-.157-1.239-1.553-1.2-2.443-1.422-9.354-2.338-26.168,2.181-28.864,12.05-.358,1.3-1.4,3.01-3.132,2.085-1.527-.82-1.056-2.592-.34-3.883a21.933,21.933,0,0,1,7.748-8.63c2.085-1.248,3.211-2.818,2.906-5.279-4.118-3.342-7.932-7.138-13.123-8.891-3,1.92-6.108-.41-9.31.305-3.63.82-6.928,1.736-9.642,4.363-1.169,1.134-2.853,2.321-4.066.611-1.283-1.815.75-2.574,1.981-3.569,6.387-5.157,13.926-5.549,21.613-5.41,0-.558,0-1.126-.009-1.684a69.479,69.479,0,0,0-6.562-11.195l-.035-.026c-1.911-.6-3.865-1.091-5.715-1.85q-.406-.17-.733-.34a6.9,6.9,0,0,1-5.323-3.8c-.873-1.85-1.728-3.708-2.592-5.567-.934.864-2.3,2.138-3.944,3.682-7.556,7.155-11.335,10.724-12.2,12.609-1.082,2.356-.305,2.714-.166,17.983.026,2.661.026,4.834.017,6.239q50.783,46.922,100.475,99.812,4.568,4.882,9.083,9.773c4.729.271,9.747.384,15.017.279,2.408-.052,4.764-.148,7.05-.279L254.52,157.172c-.209-1.693-.393-3.447-.55-5.244-.192-2.181-.323-4.293-.419-6.335Zm-40.068-24.187c-.82.576-1.658.148-2.356-.428-2.592-2.147-4.145-4.764-3.735-7.7.079-2.731.174-4.9,1.6-6.71.524-.672,1.2-1.414,2.164-1.047a1.742,1.742,0,0,1,1,2.5c-2.434,4.153-1.2,7.687,1.483,11.108a1.488,1.488,0,0,1-.157,2.286ZM29.557,132.313c.541-1.44,1.911-1,2.993-.768,3.682.794,5.523,3.892,7.687,6.474.811.969-.035,1.85-1.161,1.928a2.6,2.6,0,0,1-2.338-1.178,11.365,11.365,0,0,0-5.445-4.023c-1.134-.454-2.277-1-1.728-2.434ZM42.593,156.43c-1.972.375-3.429,1.475-5.035,2.382-1.126.637-2.3,1.859-3.333.27-.942-1.457.489-2.417,1.475-3.176,2.967-2.269,6.579-2.845,10.034-3.787,3.045.681,6.056,1.169,8.569,3.054.9.672,2.295,1.414,1.492,2.7-.689,1.117-2.2.785-3.185.2a13.8,13.8,0,0,0-10.017-1.658Zm16.6,24c-.2,1.082-.48,2.5-2.173,1.946-1.2-.393-1.335-1.379-.9-2.478.585-5.358,8.316-16.361,14.676-17.381.934-.148,2.007-1.073,2.583.314.471,1.152-.4,1.754-1.379,2.295-6.239,3.438-11.431,7.766-12.809,15.3ZM84.825,189.2a29.408,29.408,0,0,1-9.511,8.01c-1.073.576-2.277.977-2.958-.445-.532-1.108.253-1.946,1.134-2.522,1.335-.855,2.818-1.51,4.084-2.452,3.961-2.967,6.989-6.562,6.7-11.893-.183-3.412.925-6.535,1.745-9.738a2.187,2.187,0,0,1,2.426-1.963,1.9,1.9,0,0,1,1.387.724c-2.033,7.3-.524,14.485-5,20.27Zm27.337,23a28.622,28.622,0,0,1-7.216,14.319c-.707.794-1.719,1.3-2.687.489-1.065-.9-.436-1.85.288-2.618,9.921-10.488,7.3-22.076,2.382-33.419-3.883-8.961-5.881-17.765-2.783-27.294.663-2.051,2.146-3.394,3.586-4.8a1.441,1.441,0,0,1,1.178-.262c.637.183.82.742.672,1.422-.82,1.832-2,3.595-2.4,5.523-1.37,6.614-1.44,13.149,1.117,19.641,3.412,8.656,7.487,17.251,5.864,27Zm29.161-57.528c3.394-1.414,1.963-4.363,2.208-6.762.1-.986-.262-2.155.785-2.775,1.352-.8,1.544,1.047,2.234,1.2,3.089.646,3.743,3.237,4.86,5.488,5.768,11.666,15.628,15.566,27.189,12.286,2.766-.785,5.07-3.194,7.591-4.843.934-.611,2.024-1.806,3.019-.663.82.951-.14,2.181-.82,3.019-4.921,6.108-16.744,9-24.266,6.2a25.662,25.662,0,0,0-8.586-1.9c-3.874-.1-5.227-4.886-7.766-7.556-.864-.907-.934-2.461-2.67-3.316-1.361,3.159.663,4.808,2.225,6.579.855.969,1.937,1.745,2.731,2.749a1.622,1.622,0,0,1-.052,2.356c-.8.672-1.51.253-2.234-.419a22.112,22.112,0,0,1-6.509-10.043c-.148-.506-.175-1.518.035-1.606Zm50.574,22.87c1.492,3.167-2.644,2.958-4.328,3.883-6.152,3.377-13.01,4.284-20.418,4.8a36.272,36.272,0,0,1-11.64-2.8c-1.239-.576-2.5-1.414-1.745-2.941.785-1.588,2.042-.846,3.324-.288,9.947,4.345,19.633,2.783,29.126-1.553,1.911-.873,4.755-3.045,5.672-1.117Zm-62.17-7.2a18.461,18.461,0,0,1,.026-2.6,2.192,2.192,0,0,1,2.443-1.972c1.283.044,1.579,1.1,1.649,2.173a17.361,17.361,0,0,1-.009,2.609c-1.038,10.951,7.731,19.5,15.724,21.744a1.3,1.3,0,0,1,.419.122c1.422.995,4.843.515,4.18,2.618-.689,2.173-4.005,1.466-5.829.794a26.736,26.736,0,0,1-16.832-17.5c-.829-2.539-2.373-5.061-1.754-7.975Zm-1.169,55.818a.972.972,0,0,1-1.23-.881c-.148-2.286,1.37-3.185,4.153-4.45-.855,2.688-.55,4.755-2.914,5.331Zm3.953-11.684a1.844,1.844,0,0,1-.7-2.635c2.434-5.471-.2-10.017-2.592-14.607-.611-1.178-2.452-2.452-.611-3.612,1.536-.977,2.6.759,3.368,1.911,2.426,3.63,4.328,7.478,3.787,12.068-.157,1.841.4,3.787-.5,5.523-.532,1.038-1.387,2.024-2.749,1.361Zm17.818,18.446a36.218,36.218,0,0,1-3.359,4.878c-3.909,4.241-5.454,9.659-7.713,14.729a18.082,18.082,0,0,1-1.134,2.295c-.585.925-1.457,1.544-2.548.969a1.69,1.69,0,0,1-.576-2.3c3.743-7.443,6.719-15.331,12.39-21.674a2.053,2.053,0,0,1,2.286-.846c.62.227.785.768.663,1.955Zm32.363-23.769c-12.216,2.731-20.427,11.509-29.292,19.3-.7.611-1.4,1.867-2.469.75-.707-.733-.044-1.632.506-2.321,6.073-7.539,13.158-13.865,22.067-17.853,2.688-1.2,5.122-3.342,8.446-2.775.995.166,2.077-.044,2.461,1.248-.035,1.117-.855,1.457-1.719,1.649Zm11.073-11.832c-20.331-2.26-34.763,8.158-47.511,22.154-1.457,1.605-2.792,3.324-4.284,4.9-.62.654-1.431,1.911-2.469.855-1-1.03-.131-2.068.567-3.063a70.226,70.226,0,0,1,13.5-14.738c11.239-8.987,23.681-15.026,38.62-14.031,2.9.192,4.241.777,4.363,2.085-.227,1.606-1.23,2.024-2.783,1.85ZM218.7,161.02A40.042,40.042,0,0,1,212.69,180.2c-.759,1.283-2.12,3.263-3.673,2.242s0-2.9.716-4.153c3.272-5.724,5.768-11.623,5.288-18.428a16.378,16.378,0,0,0-5.436-10.968c-2.1-1.972-4.6-.314-6.885.48-1.056.358-2.408,1.946-3.228-.087-.7-1.719,1.073-1.9,2.059-2.679,5.541-4.354,14.24,1.946,15.881,7.626.707,2.443,1.544,5.009,1.3,6.78Zm8.394-6.239c-.8,5.227-.759,5.235-3.979,8.1a15.2,15.2,0,0,1,.262-6.422,12.66,12.66,0,0,0-4.031-13.8c-3.848-3.42-11.23-3.778-15.933-1.544-6.143,2.923-10.977,7.46-15.82,12.033-1.257,1.187-2.391,2.7-4.9,1.152,8.132-8.778,15.392-18.062,29.336-17.207C220.648,137.627,228.6,144.982,227.1,154.781Zm5.942,4.136c-2.347-.175-1.23-2.461-1.4-3.883a14.549,14.549,0,0,1-.009-1.745,21.014,21.014,0,0,0-8.4-17.722c-1.065-.829-2.932-1.824-1.763-3.42s2.661-.192,3.735.681c7.085,5.733,10.008,13.5,10.558,22.3.1,1.693-.558,3.935-2.714,3.778Z" transform="translate(0 -10.01)" fill="#fff"/>
    <path id="Path_3535" data-name="Path 3535" d="M132.334,67.717c.244,2.068-.672,4.5,2.408,6.754v-7c11.4-2.4,22.748-1.213,34.065.654,1.178.192,2.6,1.038,2.487-.785-.174-2.81,3.56-5.1.96-8.1-.148-.166-.628-.288-.75-.192-3.3,2.74-6.3.532-9.371-.515a21.478,21.478,0,0,0-3.447.157c-8.211,1.719-16.273,2.242-24.484-.593-2.356-.811-6.073-1.754-8.106,1.771-1.51,2.408-2.2-2.112-3.717-.41s-.881,3.525-.593,5.366c.27,1.736,1.222,3.56,2.923,3.141,2.609-.637,5.148.715,7.644-.262Zm19.153-12.225c3.089,0,6.422,1.23,9.9-1.963C157.228,53.014,154.209,53.355,151.486,55.492ZM134.1,94.452c-.1-.907-.1-2.059-1.387-1.6s-2.914.9-2.923,2.74a1.729,1.729,0,0,0,1.885,1.911c1.71-.183,2.225-1.579,2.417-3.054Z" transform="translate(-13.924 -5.176)" fill="#fff"/>
    <path id="Path_3536" data-name="Path 3536" d="M187.792,198.716a36.272,36.272,0,0,1-11.64-2.8c-1.239-.576-2.5-1.414-1.745-2.941.785-1.588,2.042-.846,3.324-.288,9.947,4.345,19.633,2.783,29.126-1.553,1.911-.873,4.755-3.045,5.672-1.117,1.492,3.167-2.644,2.958-4.328,3.883-6.152,3.377-13.01,4.284-20.418,4.8Z" transform="translate(-20.65 -22.498)" fill="#fff"/>
    <path id="Path_3537" data-name="Path 3537" d="M143.8,216.15c.445.218,1.056.323,1.3.681a.454.454,0,0,1-.611.628c-.366-.236-.489-.838-.716-1.274l.035-.035Z" transform="translate(-16.775 -25.927)" fill="#fff"/>
    <path id="Path_3538" data-name="Path 3538" d="M109.8,116.574c.017,2.382-1.483,2.923-3.438,2.722a3.553,3.553,0,0,1-3.324-3.412,37.689,37.689,0,0,1,0-4.328c0-.969-.323-1.763-1.4-1.78-1.108-.017-1.274.873-1.483,1.763-1.169,5.131.593,8.848,5.209,11.151.707.358,2.443-.227,1.946,1.527-.506,1.78-2.129,1.318-3.281,1.082-3.42-.707-7.1-7.042-6.754-10.541.445-4.537,3.927-7.391,5.593-11.23,1.2-.794,2.408-1.6,3.612-2.391,3.743-.89,7.46-2.016,11.256-2.609,3.019-.471,3.037-4.686,6.562-4.555,1.23.044,2.618-.986,5.305-.07-5.174,1.606-7.792,5.436-11.832,7.286-.419.122-.838.236-1.256.358a2.085,2.085,0,0,0-3.124,1.178c-1.623.358-2.033,2.129-3.316,2.871a10.247,10.247,0,0,0-1.9-1.012c-2.2-.611-3.08,1.51-3.769,2.644-.567.934,1.387.8,2.26,1.082,1.117,2.731-.288,6.413,3.141,8.263Z" transform="translate(-10.845 -10.3)" fill="#fff"/>
    <path id="Path_3539" data-name="Path 3539" d="M126.461,117.438c-3.595,2.783-7.094,5.611-11.823,6.431-2.653.462-.375-1.213-.907-1.579a22.739,22.739,0,0,0,4.136-3.691c2.4-2.426,5.262-4.31,8.595-1.152Z" transform="translate(-12.895 -13.137)" fill="#fff"/>
    <path id="Path_3540" data-name="Path 3540" d="M107.81,110.285c.462-.349.925-.707,1.387-1.065C109.189,110.171,109.075,110.983,107.81,110.285Z" transform="translate(-12.192 -12.3)" fill="#fff"/>
    <path id="Path_3541" data-name="Path 3541" d="M104.094,161.7c-2.635,2.74-5,4.223-9.415,2.443-6.2-2.5-13-1.265-19.545.314-.445-3.333,2.967-3.848,3.386-6.16.061-.663.314-1.169,1.073-1.239,1.4.1,2.81.227,3.211-1.632,1.126-.969,2.469-.811,3.8-.707a7.366,7.366,0,0,0,5.288.017c.715.1,1.431.2,2.146.3a8.124,8.124,0,0,0,5.227,2.722c1.614,1.309,3.228,2.626,4.843,3.935Z" transform="translate(-8.023 -18.089)" fill="#fff"/>
    <path id="Path_3542" data-name="Path 3542" d="M116.022,129.033c-1.2.244-3.447.209-2.975,1.623,2.26,6.675-3.49,3.159-5.41,4.363-.855.541-2.208.3-3.342.4-3.29-1.222-6.727-2.277-7.565-6.4,1.361-.131,1.937,1.091,2.906,1.64,3.185,1.815,6.16,3.281,9.677-.07,1.431-1.352,3.621-4.965,6.7-1.562Z" transform="translate(-10.78 -14.644)" fill="#fff"/>
    <path id="Path_3543" data-name="Path 3543" d="M162.109,59.31c3.071,1.047,6.082,3.255,9.371.515.122-.1.611.017.75.192,2.6,2.993-1.126,5.279-.96,8.1.113,1.824-1.309.977-2.487.785-11.317-1.867-22.66-3.045-34.065-.654a1.926,1.926,0,0,0-2.408.244c-2.5.969-5.035-.375-7.644.262-1.693.41-2.653-1.4-2.923-3.141-.288-1.841-.925-3.665.593-5.366s2.216,2.818,3.717.41c5.6.131,10.872,2.888,16.6,2.112,3.359,2.993,7.487.838,11.169,1.658a4.945,4.945,0,0,0,5.768-2.26c1.213-.62,2.347-1.309,2.513-2.853Z" transform="translate(-13.919 -5.94)" fill="#fff"/>
    <path id="Path_3544" data-name="Path 3544" d="M162.8,59.137c-.157,1.544-1.3,2.234-2.513,2.853-4.773.209-9.546.55-14.3-.4a2.372,2.372,0,0,0-2.635,1c-5.724.777-10.986-1.989-16.6-2.112,2.033-3.525,5.75-2.583,8.106-1.771,8.211,2.836,16.273,2.312,24.484.593a20.515,20.515,0,0,1,3.447-.157Z" transform="translate(-14.606 -5.767)" fill="#fff"/>
    <path id="Path_3545" data-name="Path 3545" d="M155.87,55.483c2.722-2.138,5.741-2.469,9.9-1.963C162.292,56.713,158.959,55.483,155.87,55.483Z" transform="translate(-18.317 -5.175)" fill="#fff"/>
    <path id="Path_3546" data-name="Path 3546" d="M135.322,100.211c-.192,1.475-.715,2.862-2.417,3.054a1.733,1.733,0,0,1-1.885-1.911c0-1.841,1.632-2.269,2.923-2.74s1.283.689,1.387,1.6Z" transform="translate(-15.15 -10.935)" fill="#fff"/>
    <path id="Path_3547" data-name="Path 3547" d="M133.93,69.739a1.928,1.928,0,0,1,2.408-.244v7C133.249,74.241,134.174,71.815,133.93,69.739Z" transform="translate(-15.521 -7.198)" fill="#fff"/>
  </g>
</svg>
