<svg id="Component_261_1" data-name="Component 261 – 1" xmlns="http://www.w3.org/2000/svg" width="340" height="340" viewBox="0 0 340 340">
  <g id="Component_223_5" data-name="Component 223 – 5">
    <g id="Ellipse_834" data-name="Ellipse 834" fill="#fff" stroke="#000" stroke-width="3">
      <circle cx="170" cy="170" r="170" stroke="none"/>
      <circle cx="170" cy="170" r="168.5" fill="none"/>
    </g>
    <circle id="Ellipse_835" data-name="Ellipse 835" cx="150" cy="150" r="150" transform="translate(20 20)"/>
  </g>
  <g id="Layer_1-2" transform="translate(9.656 10.01)">
    <g id="Group_186" data-name="Group 186">
      <path id="Path_4009" data-name="Path 4009" d="M271.57,177.71c-5.16-7.21-15.11-6.88-16.14-6.83-4.15.21-7.67,1.7-14.17,6.1-11.29,7.64-12.12,10.89-21.72,18.2-6.03,4.59-13.94,10.49-25.52,13.35a62.5,62.5,0,0,1-12.35,1.71c-10.45.52-14.82-1.57-23.78-2.08-11.97-.68-11.83,2.63-21.1,2.12-21.28-1.17-39.78-19.54-44.06-23.79-2.83-2.81-5.22-5.56-8.86-8.22,1.15-.68,2.3-1.37,3.46-2.05q6.165-4.62,12.33-9.23c3.54-2.86,29.23-23.63,32.66-25.83a10.433,10.433,0,0,1,1.63-.85c2.19-.87,3.34-.31,5.66-.7,1.31-.22,3.63-.61,4.81-2.33.6-.88.64-1.81.71-3.68.14-3.48-.79-4.52-.01-6.8.37-1.09.59-.88,1.01-2.09.68-1.97.99-5.09-.31-5.82-1.03-.58-2.49.32-4.11,1.32a14.309,14.309,0,0,0-6.36,7.68,13.5,13.5,0,0,0-.62,3.1c.31,1.09.62,2.17.93,3.26-2.62-.77-5.89-1.32-7.45.31-1.2,1.25-.91,3.26-.86,3.93.23,3.32-3.09,8.81-19,18.33l-3.15.33a39.487,39.487,0,0,0,3.85-4.91,30.689,30.689,0,0,0,5.28-12.1c.21-1.14.63-3.4.16-3.57-.82-.3-2.5,6.34-7.91,12.57-3.7,4.26-7.97,6.97-11.64,9.31-5.67,3.61-8.56,4.34-8.38,4.96.3,1.02,8.6.97,15.39-3.57a19.3,19.3,0,0,1-5.38,3.1c-2.56.95-4.83,1.13-8.3,2.95a25.612,25.612,0,0,0-3.96,2.56h1.71q5.25-1.7,5.82-.7.87,1.515-9.15,9.31c.04.15.09.31.13.46-.89-.61-1.84-1.21-2.9-1.81-4.59-2.57-12.85-7.19-21.51-4.24-5,1.7-10.58,6.09-11.79,12.31-.68,3.5-.12,8.29,1.86,8.9,3.09.95,5.53-8.87,13.65-10.76,5.37-1.25,12.44,1.17,14.07,4.96.51,1.19.79,3.24,2.48,7.24.41.97.73,1.65.83,1.86,3.02,6.57.63,17.73,5.79,26.27a13.977,13.977,0,0,0,6.41,6,13.067,13.067,0,0,0,6.83.83c-5.22-4.35-6.89-8.32-7.45-11.17-.66-3.38-.11-7.16-2.9-9.93-.99-.99-1.9-1.34-2.48-2.69-1.03-2.39-.16-5.84,1.24-6.21,2.38-.62,6.46,7.62,7.45,9.62,3.59,7.25,2.54,9.38,6.21,16.76a34.589,34.589,0,0,0,7.14,9.93c2.89,2.8,5.08,4.91,8.59,5.9,5.43,1.53,8.37-1.24,11.9,1.24,1.52,1.07,3.26,3.2,2.79,5.28-.5,2.21-3.38,3.8-5.59,3.41-2.69-.47-3.13-3.68-5.59-3.72a3.849,3.849,0,0,0-3.41,2.17c-.99,2.34,2.23,3.99,4.34,9.62,1.69,4.51.77,6.51,3.19,9.23a6.82,6.82,0,0,0,4.16,2.56c2.74.31,5.71-1.81,7.45-5.38-4.36.86-8.27-.33-9.83-3-1.2-2.05-1.07-5.09,0-5.59,1.35-.62,3.08,3.42,6.21,3.41,2.56,0,5.03-2.71,5.9-5.28,1.5-4.43-1.63-8.87-4.34-12.72-2.5-3.54-7.24-10.27-14.69-11.38-3.61-.54-6.04.51-8.07-1.45-1.54-1.48-1.75-3.62-2.07-6.83-.15-1.54-.71-7.11.93-7.65.72-.24,1.5.44,5.9,4.34,3.61,3.21,4.71,2.33,14.27,7.76,3.43,1.95,5.17,2.94,6.21,4.03,4.29,4.52,4.07,9.99,5.38,9.93,1.13-.05,2.92-4.17,1.76-7.76-1.29-3.98-5.44-4.9-5.28-8.14a4.514,4.514,0,0,1,1.42-2.94c1.7-1.56,4.15-1.05,7.89-.7a77.91,77.91,0,0,0,9.7.28q.3,14.085.6,28.16a18.692,18.692,0,0,0-3.68,2.9,12.325,12.325,0,0,0-3.52,5.28,9.9,9.9,0,0,0,.83,6.41c3.53,8.67,9.01,19.76,9.72,21.2,3.72-9.19,6.59-16.34,8.69-21.1a10.5,10.5,0,0,0,1.03-6.52,10.008,10.008,0,0,0-3.21-5.28c-1.24-1.03-2.48-2.07-3.72-3.1l-.93-28.86,16.96,1.14a22.182,22.182,0,0,0,9.1,5.79c4.83,1.54,8.62.7,10.14,3.31a4.269,4.269,0,0,1,0,4.34c-1.14,1.54-3.42.84-4.34,2.28-.65,1-.27,2.48.41,3.93a11.459,11.459,0,0,1,5.59,4.96c.88,1.71.5,2.31,1.45,3.31,1,1.06,2.33,1.35,8.79,1.97,1.35.13,2.5.23,3.41.31q-3.72-2.475-7.45-4.96c-1.66-1.97-3.31-3.93-4.96-5.9v-4.03c1.34.52,2.69,1.03,4.03,1.55.93-.83,1.86-1.65,2.79-2.48-.31-2.77-1.2-6.55-4.14-8.59-3.3-2.28-6.96-.81-8.27-3.1-1.16-2.03.24-5.74,2.41-6.61,1.53-.61,2.62.52,5.67,1.4,4.39,1.26,6.24.1,9.09.66,2.69.53,6.23,2.59,9.72,9.52a9.1,9.1,0,0,0,1.66,8.07,8.684,8.684,0,0,0,8.88,2.65l11.6-.27c-.21-1.97-.41-3.93-.62-5.9-.1-1.65-.21-3.31-.31-4.96a6.375,6.375,0,0,0-3.83-.59c-2.82.53-3.4,3.09-6,4.52-3.28,1.81-8.64,1.2-10.14-1.24-1.89-3.07,3.49-7.15,1.45-12.41-.55-1.41-1.14-1.66-2.28-4.34-1.02-2.42-1.72-4.08-1.65-5.79.19-4.79,6.38-9.51,9.21-8.33,1.7.71,1,3.05,3.61,5.85,1.9,2.03,4.9,3.59,5.9,2.79,1.14-.91-1.52-4.02-1.55-9.62a14.666,14.666,0,0,1,2.48-8.9c3.05-4.14,8.81-6.03,10.34-4.55.95.92-.19,2.7,1.03,3.93a3.661,3.661,0,0,0,4.55.21c2.08-2-1.75-7.31.21-9.1,1.11-1.01,3.72-.58,5.28.72,2.68,2.24.77,5.89,3.41,8.38,1.75,1.65,4.83,2.35,6.52,1.24,2.92-1.92,2.28-9.67-1.24-14.58Z" fill="#fff"/>
      <path id="Path_4010" data-name="Path 4010" d="M69.97,187.54c-.87-.8-3.11-2.45-4.34-1.66-1.12.72-.81,3.07-.41,4.34,1.09,3.49,5.02,6.02,6.41,5.17.73-.44.67-1.76.62-2.9a7.307,7.307,0,0,0-2.28-4.96Z" fill="#fff"/>
      <path id="Path_4011" data-name="Path 4011" d="M152.1,247.53a3.687,3.687,0,0,0-.83-4.14,3.731,3.731,0,0,0-4.55-.62,3.856,3.856,0,0,0-.41,5.79,3.9,3.9,0,0,0,5.79-1.03Z" fill="#fff"/>
      <path id="Path_4012" data-name="Path 4012" d="M223.89,250.22c-1.73-1.11-2.33-1.93-2.9-1.65-.71.34-.9,2.18-.21,3.52,1.02,1.96,3.17,1.38,4.34,3.1,1.56,2.3-.89,5.36.21,6.21,1.18.91,5.74-1.26,6-4.34.16-1.93-1.42-3.49-1.86-3.93-1.59-1.57-2.64-1-5.59-2.9Z" fill="#fff"/>
      <path id="Path_4013" data-name="Path 4013" d="M230.46,207.19c-.67-.51-1.91-.91-2.48-.31a1.99,1.99,0,0,0,.47,2.59c1.46.52,2.68.2,2.95-.41.25-.59-.38-1.44-.93-1.86Z" fill="#fff"/>
      <path id="Path_4014" data-name="Path 4014" d="M255.9,197.88c-1.61-1.41-2.38-2.74-3.1-2.48-.6.21-.7,1.34-.78,2.33-.21,2.76-.43,5.57,1.55,6.98,2.52,1.8,6.22-.36,6.67-.62.95-.55,2.04-1.18,2.02-2.02-.03-1.38-3.07-1.3-6.36-4.19Z" fill="#fff"/>
      <path id="Path_4015" data-name="Path 4015" d="M215.56,159.25c6.93,5.17,15.98,5.25,16.29,4.19.18-.62-2.71-1.36-8.38-4.96-3.67-2.33-7.93-5.05-11.64-9.31-5.41-6.23-7.09-12.86-7.91-12.57-.47.17-.06,2.43.16,3.57a30.625,30.625,0,0,0,5.28,12.1c1.94,2.76,3.47,4.94,6.21,6.98Z" fill="#fff"/>
      <path id="Path_4016" data-name="Path 4016" d="M234.88,178.72c.16-.54.31-1.09.47-1.63q-10.035-7.785-9.15-9.31.57-.99,5.82.7h1.71a25.611,25.611,0,0,0-3.96-2.56c-3.47-1.82-5.74-2-8.3-2.95a20.9,20.9,0,0,1-8.21-5.75c-1.19-.13-2.39-.25-3.58-.38-15.91-9.52-19.23-15.02-19-18.33.05-.67.34-2.68-.86-3.93-1.56-1.63-4.82-1.08-7.45-.31.31-1.09.62-2.17.93-3.26a13.5,13.5,0,0,0-.62-3.1,14.4,14.4,0,0,0-6.36-7.68c-1.62-1-3.08-1.9-4.11-1.32-1.3.73-.99,3.85-.31,5.82.42,1.21.64,1,1.01,2.09.77,2.28-.16,3.31-.01,6.8.08,1.87.11,2.8.71,3.68,1.18,1.72,3.5,2.11,4.81,2.33,2.32.39,3.47-.17,5.66.7a11.584,11.584,0,0,1,1.63.85c3.43,2.2,29.12,22.97,32.66,25.83q6.165,4.62,12.33,9.23c1.4.83,2.79,1.66,4.19,2.48Z" fill="#fff"/>
      <path id="Path_4017" data-name="Path 4017" d="M237.44,78.72c-1.6.52-3.21,1.03-4.81,1.55-1.74.93-4.37,2.3-7.6,3.88-2.35,1.14-9.53,4.64-9.77,4.19-.18-.33,3.63-2.35,7.6-5.59a48.192,48.192,0,0,0,10.4-11.79c.83-1.29,1.66-2.59,2.48-3.88a124.044,124.044,0,0,1-13.38,11.68,56.76,56.76,0,0,0,6.78-6.2c2.34-1.93,4.73-3.97,7.21-6.2l-15.21,6.36q6.96-7.695,6.54-8.13-.525-.525-12.12,9.84,10.83-11.985,10.24-12.57-.705-.705-17.7,14.9,15-19.44,14.13-20.17-.765-.66-14.25,13.68,10.635-15.465,9.91-16.01c-.37-.28-3.01,2.4-7.91,8.07l3.78-14.22a47.808,47.808,0,0,0-4.39,7.6c-7.51,11.73-10.04,14.37-10.71,14.02-.62-.33.87-2.94.62-6.36-.23-3.03-1.77-5.89-11.95-14.43-13.12-11-17.97-12.46-20.33-13.03a32.778,32.778,0,0,0-7.6-.92h-.78a33.427,33.427,0,0,0-7.6.93c-2.36.57-7.2,2.03-20.33,13.03-10.18,8.53-11.72,11.4-11.95,14.43-.25,3.42,1.25,6.03.62,6.36-.67.35-3.19-2.29-10.71-14.02a48.588,48.588,0,0,0-4.39-7.6l3.78,14.22q-7.35-8.49-7.91-8.07-.72.555,9.91,16.01Q96.555,55.94,95.79,56.6q-.87.735,14.13,20.17-17.01-15.6-17.7-14.9-.585.585,10.24,12.57-11.6-10.365-12.12-9.84-.42.435,6.54,8.13L81.67,66.37c2.48,2.23,4.88,4.26,7.21,6.2a56.679,56.679,0,0,0,6.78,6.2A125.994,125.994,0,0,1,82.28,67.09c.83,1.29,1.66,2.59,2.48,3.88a48.192,48.192,0,0,0,10.4,11.79c3.97,3.23,7.79,5.25,7.6,5.59-.25.45-7.43-3.05-9.77-4.19-3.24-1.58-5.86-2.95-7.6-3.88-1.6-.52-3.21-1.03-4.81-1.55q4.185,2.625,8.38,5.28,9.585,6.045,19.08,12.1c-.24,2.39-.8,2.98-1.24,3.1-.98.27-1.88-1.59-4.19-2.02a5.149,5.149,0,0,0-1.86,0,13.005,13.005,0,0,1,5.59,6.52c1.15,3.34-.16,5.27-.49,9.25-.81,9.72,5.32,17.36,7.16,19.61,2.52,3.08,5.09,6.22,8.38,6.05,1.4-.07,2.74-.72,8.22-7.14,5.75-6.72,7.85-10.18,12.67-12.15,1.65-.68,3.14-1.26,4.24-.57,2.4,1.52-.05,7.33-.62,15.51a51.51,51.51,0,0,0,3.1,21.26.049.049,0,0,0,.01.03c-.75.26-4.44,2.21-4.82,1.68s2.97-3.27,2.64-3.72c-.47-.65-8.16,4.21-8.38,3.88-.18-.27,4.9-3.58,4.5-4.34s-5.77,1.67-6.05,1.09c-.21-.45,2.36-3.02,5.83-3.74,1.38-.29,2.22-.14,2.82-.85.94-1.11.63-3.56-.47-4.28-2.36-1.57-8.99,4.53-10.51,5.93-6.97,6.42-9.94,12.79-15.67,24.05-2.16,4.25-5.72,11.16-10.4,19.86.92.86,2.22,1.78,3.57,1.55,2.55-.43,3.09-4.54,5.59-11.17,1.97-5.22,1.5-2.03,10.86-18.77.98-1.76,1.7-3.07,2.79-3.1,2.39-.07,2.86,6.14,8.53,15.52,1.39,2.29,2.3,3.2,2.33,4.96.06,3.43-3.09,4.28-4.81,9.31a14.607,14.607,0,0,0-.47,7.91c.58,2.46,2.05,5.42,3.1,5.28.71-.1,1.22-1.63,1.16-2.88-.07-1.55-.99-2.12-1.65-3.45-1.85-3.73.69-8.43,1.27-9.49.64-1.19,1.96-3.63,2.95-3.41.86.19,1.68,2.46,1.09,12.57q2.61-14.85,4.03-14.74c.79.06,1.3,3.53,1.55,10.4a2.461,2.461,0,0,0,2.2.36c1-.56.75-2.45.59-6.1-.33-7.61.33-9.56,1.55-10.55.23-.19.77-.63,1.24-.47.92.32.83,2.69.62,7.29-.37,8.04-.48,10.41.78,13.03a11.7,11.7,0,0,0,1.86,2.76v.34c.05-.05.1-.12.15-.17.05.05.11.12.15.17v-.34a11.7,11.7,0,0,0,1.86-2.76c1.26-2.62,1.15-4.99.78-13.03-.21-4.6-.3-6.98.62-7.29.47-.16,1.01.28,1.24.47,1.22.99,1.88,2.94,1.55,10.55-.16,3.65-.41,5.55.59,6.1a2.461,2.461,0,0,0,2.2-.36c.25-6.87.77-10.33,1.55-10.4q1.425-.12,4.03,14.74c-.59-10.11.22-12.38,1.09-12.57.99-.21,2.3,2.22,2.95,3.41.57,1.06,3.12,5.77,1.27,9.49-.67,1.34-1.58,1.9-1.65,3.45-.06,1.25.45,2.78,1.16,2.88,1.05.15,2.52-2.81,3.1-5.28a14.594,14.594,0,0,0-.47-7.91c-1.72-5.03-4.87-5.88-4.81-9.31.03-1.76.94-2.67,2.33-4.96,5.68-9.37,6.14-15.59,8.53-15.52,1.09.03,1.81,1.35,2.79,3.1,9.36,16.74,8.89,13.55,10.86,18.77,2.5,6.63,3.04,10.74,5.59,11.17,1.35.23,2.65-.69,3.57-1.55-4.68-8.7-8.23-15.61-10.4-19.86-5.73-11.25-8.7-17.63-15.67-24.05-1.52-1.4-8.15-7.5-10.51-5.93a3.384,3.384,0,0,0-.47,4.28c.6.71,1.45.57,2.82.85,3.47.72,6.04,3.29,5.83,3.74-.28.59-5.66-1.84-6.05-1.09s4.68,4.07,4.5,4.34c-.22.34-7.9-4.53-8.38-3.88-.33.45,3.03,3.18,2.64,3.72-.42.59-4.89-1.85-4.96-1.71s4.77,2.64,4.48,3.43c-.26.73-4.49-1.01-6.08.83-.95,1.1-.49,2.93-.42,3.19.67,2.62,3.55,3.98,3.41,4.19s-2.76-2.09-4.34-1.32c-1.47.71-.65,3.4-2.49,4.57-1.14.73-1.99.03-3.1.62a3.941,3.941,0,0,0-1.71,2.74,3.963,3.963,0,0,0-1.71-2.74c-1.12-.59-1.96.11-3.1-.62-1.84-1.17-1.02-3.86-2.49-4.57-1.58-.77-4.19,1.53-4.34,1.32s2.74-1.57,3.41-4.19c.07-.26.54-2.09-.42-3.19-1.59-1.84-5.82-.1-6.08-.83s3.69-2.82,4.37-3.32a43.017,43.017,0,0,0,9.88,14.78v.16l.08-.08.08.08v-.16a43.094,43.094,0,0,0,9.93-14.89,51.479,51.479,0,0,0,3.1-21.26c-.57-8.18-3.02-13.99-.62-15.51,1.1-.7,2.59-.11,4.24.57,4.82,1.97,6.92,5.43,12.67,12.15,5.49,6.41,6.83,7.07,8.22,7.14,3.29.16,5.85-2.97,8.38-6.05,1.84-2.25,7.98-9.89,7.16-19.61-.33-3.98-1.64-5.91-.49-9.25a13.048,13.048,0,0,1,5.59-6.52,5.155,5.155,0,0,0-1.86,0c-2.31.42-3.21,2.29-4.19,2.02-.45-.12-1.01-.71-1.24-3.1q9.5-6.06,19.08-12.1,4.185-2.64,8.38-5.28ZM185.37,60.86c.5-1.84,2.14-2.95,1.95-5.41-.18-2.41-1.92-3.82-1.55-4.19.42-.42,3.32.74,4.32,3.06,1.25,2.9-1.61,4.97-1.69,8.98-.11,5.94,6.01,9.89,5.74,10.14-.36.33-10.29-7.06-8.78-12.59Zm-48.32-6.65a22.828,22.828,0,0,0,2.64,4.03A22.46,22.46,0,0,0,151.95,66a21.687,21.687,0,0,0,7.06.36,21.157,21.157,0,0,0,7.06-.36,22.4,22.4,0,0,0,12.26-7.76,23.2,23.2,0,0,0,2.64-4.03,7.26,7.26,0,0,1-.16,2.48,8.024,8.024,0,0,1-2.02,3.57,25.065,25.065,0,0,1-11.08,6.75,23.916,23.916,0,0,1-8.39.61v-.06l-.31.03-.31-.03v.06a23.966,23.966,0,0,1-8.39-.61,25.123,25.123,0,0,1-11.08-6.75,8.024,8.024,0,0,1-2.02-3.57,7.27,7.27,0,0,1-.16-2.48Zm40.94,21.41c.09.26.18.52.26.79a36.8,36.8,0,0,0-4.09,1.75c-.08.05-.17.11-.24.15a16.1,16.1,0,0,1-1.96,1.03c-2.99,1.69-7.3,4.32-8.73,8.12-.65,1.73-.62,3.5-.87,3.52-.2.02-.3-1.02-.36-1.95a14.664,14.664,0,0,1,3.84-6.57,17.1,17.1,0,0,1,2.43-1.96c-.8.19-1.63.36-2.51.54a38.263,38.263,0,0,1-6.23.75h-1.17a38.57,38.57,0,0,1-6.1-.75c-.88-.18-1.71-.35-2.51-.54a15.813,15.813,0,0,1,2.43,1.96,14.545,14.545,0,0,1,3.84,6.57c-.06.93-.17,1.96-.36,1.95-.25-.02-.22-1.79-.87-3.52-1.42-3.8-5.74-6.43-8.73-8.12a15.4,15.4,0,0,1-1.96-1.03c-.07-.04-.16-.1-.24-.15a36.8,36.8,0,0,0-4.09-1.75c.09-.26.18-.52.26-.79.38.14.81.31,1.27.49a18.455,18.455,0,0,1-3.41-4.63c-.26-1.24-.52-2.62-.31-2.69.27-.08.85,2.23,2.12,4.19,2.99,4.63,8.96,6.03,12.57,6.88a32.434,32.434,0,0,0,6.16.8h1.06a31.741,31.741,0,0,0,6.28-.81c3.61-.85,9.58-2.25,12.57-6.88,1.27-1.96,1.85-4.27,2.12-4.19.21.06-.05,1.45-.31,2.69a18.957,18.957,0,0,1-3.41,4.63c.46-.18.89-.35,1.27-.49ZM129.61,63.31c-.07-4.01-2.94-6.08-1.69-8.98,1-2.32,3.9-3.48,4.32-3.06.37.37-1.37,1.78-1.55,4.19-.18,2.47,1.45,3.57,1.95,5.41,1.51,5.53-8.42,12.92-8.78,12.59-.27-.25,5.85-4.2,5.74-10.14ZM98.71,81c-.18-.13-.38-.27-.56-.4,6.38,4.41,10.44,5.23,12.02,5.48.3.05.55.08.72.1q-3.36-3.63-6.71-7.26,5.985,3.99,11.98,7.99-3.465-3.675-6.93-7.34,4.92,2.475,9.83,4.96l-5.79-11.58q2.535,2.175,5.07,4.34a44.164,44.164,0,0,1-5.79-11.07c-.22-.68-.95-2.61-1.87-5.4-.32-.97-.71-1.99-1.13-3.04.77,1.57,1.73,3.47,2.85,5.6,8.12,15.42,13.26,25.31,22.81,33.2,2.6,2.15,7.32,5.68,6.98,6.21-.18.27-1.65-.42-2.79-.93-7.27-3.26-8.55-2.64-14.58-5.28a107.545,107.545,0,0,1-10.55-5.9c-7.84-4.67-11.76-7.01-15.54-9.68Zm49.98,32.02c-.12.77-2.35,1.44-6.83,2.79-4.21,1.27-6.35,1.9-8.07,1.55-.93-.19-3.91-.97-6.52-4.96-.05-.72-.1-1.45-.16-2.17.04-.62,0-1.4-.47-1.71-1.53-1.02-6.38,3.77-6.83,4.19-3.39,3.19-4.9,6.47-5.43,6.21-.41-.2.25-2.31.31-2.48.69-2.15,1.92-4.03,5.28-7.29,3.3-3.21,5-4.82,6.98-5.12a9.193,9.193,0,0,1,5.12.93c15.16,6.31,16.76,7.05,16.6,8.07Zm19.78-18.93a12.988,12.988,0,0,1-2.4,1.55,13.957,13.957,0,0,1-6.81,1.34v-.02a2.09,2.09,0,0,0-.25.01,2.09,2.09,0,0,1-.25-.01v.02a13.937,13.937,0,0,1-6.81-1.34,12.644,12.644,0,0,1-2.4-1.55c-6.48-5.15-9.15-10.72-15.99-14.83a29.914,29.914,0,0,0-2.94-1.54l-1.26-2.82a30.089,30.089,0,0,1,4.36,2.05c5.6,3.2,9.52,7.87,17.07,15.05a10.2,10.2,0,0,0,5.43,2.95,8.163,8.163,0,0,0,2.79-.04,8.706,8.706,0,0,0,2.79.04A10.2,10.2,0,0,0,167.23,92c7.55-7.18,11.47-11.85,17.07-15.05a30.089,30.089,0,0,1,4.36-2.05l-1.26,2.82a26.848,26.848,0,0,0-2.94,1.54C177.62,83.37,174.95,88.94,168.47,94.09Zm35.14,24.82c-.53.26-2.04-3.02-5.43-6.21-.45-.42-5.3-5.21-6.83-4.19-.47.31-.51,1.08-.47,1.71-.05.72-.1,1.45-.16,2.17-2.61,4-5.58,4.78-6.52,4.96-1.72.35-3.86-.28-8.07-1.55-4.47-1.35-6.71-2.03-6.83-2.79-.16-1.02,1.44-1.76,16.6-8.07a9.193,9.193,0,0,1,5.12-.93c1.99.3,3.68,1.91,6.98,5.12,3.36,3.26,4.58,5.14,5.28,7.29.06.17.72,2.28.31,2.48Zm.16-28.24a107.543,107.543,0,0,1-10.55,5.9c-6.04,2.63-7.32,2.01-14.58,5.28-1.15.51-2.61,1.2-2.79.93-.34-.52,4.38-4.05,6.98-6.21,9.55-7.89,14.68-17.78,22.81-33.2,1.12-2.13,2.08-4.03,2.85-5.6-.43,1.05-.82,2.08-1.13,3.04-.92,2.8-1.65,4.73-1.87,5.4a44.163,44.163,0,0,1-5.79,11.07q2.535-2.175,5.07-4.34l-5.79,11.58q4.92-2.475,9.83-4.96-3.465,3.675-6.93,7.34,5.985-3.99,11.98-7.99-3.36,3.63-6.71,7.26c.17-.02.42-.06.72-.1,1.58-.25,5.64-1.07,12.02-5.48-.19.13-.38.28-.56.4-3.78,2.67-7.7,5-15.54,9.68Z" fill="#fff"/>
      <path id="Path_4018" data-name="Path 4018" d="M99.76,175.75c-3.81,2.83-6.49,3.77-6.31,5.17a3.944,3.944,0,0,0,.72,1.45,5.451,5.451,0,0,0,1.22,1.26q3.525-3.48,7.05-6.95c.73-1.5,1.43-3.17,1.01-3.47-.39-.29-1.44.86-3.7,2.54Z" fill="#fff"/>
      <path id="Path_4019" data-name="Path 4019" d="M127.69,169.64c-.71.1,2.6,10.43-2.38,18.1a24.641,24.641,0,0,0-2.59,4.24,20.279,20.279,0,0,0-1.55,9.72,4.179,4.179,0,0,0,2.05,1.25,4.638,4.638,0,0,0,3.85-.93,25.479,25.479,0,0,0,.93-5.79,36.2,36.2,0,0,0-.21-4.86c-.28-4.85,1.53-6.34,2.07-10.76.73-6.01-1.67-11.03-2.17-10.96Z" fill="#fff"/>
      <path id="Path_4020" data-name="Path 4020" d="M214.98,174.14c-.42.31.28,1.97,1.01,3.47-.61.29-1.5.7-2.59,1.16-2.94,1.23-4.44,1.85-5.81,1.79a7.091,7.091,0,0,1-4.47-2.08q2.46,4.545,4.91,9.08a2.58,2.58,0,0,1,1.04-2.83,2.673,2.673,0,0,1,3.57,1.64,2.811,2.811,0,0,1,.74-2.83,2.96,2.96,0,0,1,4.02.45q-.585-3.27.3-3.72,1.23-.63,5.32,4.3a5.666,5.666,0,0,0,1.22-1.26,3.8,3.8,0,0,0,.72-1.45c.18-1.4-2.5-2.34-6.31-5.17-2.26-1.68-3.31-2.83-3.7-2.54Z" fill="#fff"/>
      <path id="Path_4021" data-name="Path 4021" d="M103.46,173.2c.42.31-.28,1.97-1.01,3.47.61.29,1.5.7,2.59,1.16,2.94,1.23,4.44,1.85,5.81,1.79a7.091,7.091,0,0,0,4.47-2.08q-2.46,4.545-4.91,9.08a2.58,2.58,0,0,0-1.04-2.83,2.673,2.673,0,0,0-3.57,1.64,2.811,2.811,0,0,0-.74-2.83,2.96,2.96,0,0,0-4.02.45q.585-3.27-.3-3.72-1.23-.63-5.32,4.3a5.666,5.666,0,0,1-1.22-1.26,3.8,3.8,0,0,1-.72-1.45c-.18-1.4,2.5-2.34,6.31-5.17,2.26-1.68,3.31-2.83,3.7-2.54Z" fill="#fff"/>
      <path id="Path_4022" data-name="Path 4022" d="M190.44,197.16a25.48,25.48,0,0,0,.93,5.79,4.638,4.638,0,0,0,3.85.93,4.179,4.179,0,0,0,2.05-1.25,20.279,20.279,0,0,0-1.55-9.72,23.446,23.446,0,0,0-2.59-4.24c-4.97-7.67-1.66-18-2.38-18.1-.5-.07-2.9,4.96-2.17,10.96.54,4.42,2.34,5.9,2.07,10.76a36.291,36.291,0,0,0-.21,4.86Z" fill="#fff"/>
    </g>
  </g>
</svg>
