<svg id="Component_302_1" data-name="Component 302 – 1" xmlns="http://www.w3.org/2000/svg" width="342.24" height="342.24" viewBox="0 0 342.24 342.24">
  <g id="Component_230_48" data-name="Component 230 – 48">
    <g id="Rectangle_3295" data-name="Rectangle 3295" transform="translate(171.12) rotate(45)" fill="#fff" stroke="#000" stroke-width="3">
      <rect width="242" height="242" stroke="none"/>
      <rect x="1.5" y="1.5" width="239" height="239" fill="none"/>
    </g>
    <g id="Rectangle_3296" data-name="Rectangle 3296" transform="translate(171.421 30) rotate(45)" stroke="#000" stroke-width="3">
      <rect width="200" height="200" stroke="none"/>
      <rect x="1.5" y="1.5" width="197" height="197" fill="none"/>
    </g>
  </g>
  <g id="Group_300" data-name="Group 300" transform="translate(19.453 16.74)">
    <path id="Subtraction_440" data-name="Subtraction 440" d="M8512.87,1934.448a4.4,4.4,0,0,1-3.158-1.648,57.123,57.123,0,0,1-10.223-13.86,62.83,62.83,0,0,1-6.095-16.973,59.221,59.221,0,0,1-.86-18.484,54.04,54.04,0,0,1,5.478-18.391,68.249,68.249,0,0,1,7.879-12.264,56.149,56.149,0,0,1,21.788-16.435,68.5,68.5,0,0,1,13.982-4.213,14,14,0,0,1,2.623-.28,6.7,6.7,0,0,1,6.168,3.66c3.4,5.532,8.484,9.009,13.011,11.681a9.159,9.159,0,0,0,1,.482c1.044.457,2.028.887,2.143,2.287.136,1.761.885,2.582,2.356,2.582a6.9,6.9,0,0,0,1.476-.192,4.141,4.141,0,0,1,.869-.112,1.352,1.352,0,0,1,1.321.751,1.468,1.468,0,0,1,.148,1.147,2.3,2.3,0,0,1-1.28,1.2c-.913.46-1.366.876-1.386,1.271-.023.488.625.892,1.252,1.283l.095.059.037.024c.125.079.254.16.372.242a1.786,1.786,0,0,1,.426,1.442c-.159.533-.819.854-1.665,1.218a34.539,34.539,0,0,0-5.382,3.121l-.012.008,0,0,0,0-.008.006a25.339,25.339,0,0,1-7.812,3.96,1.812,1.812,0,0,0-1.472,1.31,2.185,2.185,0,0,0,1,2.109c1.3,1.007,1.9,1.9,1.844,2.745-.064.9-.853,1.733-2.557,2.694a16.65,16.65,0,0,0-3.618,2.582c-1,1.014-1.409,1.84-1.254,2.524.138.611.737,1.114,1.783,1.5a3.106,3.106,0,0,0,2.653,1.9,4.216,4.216,0,0,0,2.177-.744,3.728,3.728,0,0,1,2.75,3.322,7.544,7.544,0,0,0-.9-.062,2.252,2.252,0,0,0-2.509,1.911l-.011.011c-2.785.626-4.966,2.329-7.075,3.976l-.029.023a33.33,33.33,0,0,1-3.623,2.572c-.56,1.48-.839,2.271-.568,2.666.158.226.5.323,1.143.323.542,0,1.273-.067,2.326-.17a6.382,6.382,0,0,0,1.089-.245,5.212,5.212,0,0,1,1.359-.269,1.37,1.37,0,0,1,1.373,1.106c.365,1.093-.5,1.524-1.33,1.941l-.028.014a4.116,4.116,0,0,0-1.095.7,11.7,11.7,0,0,1-2.564,1.783l0,0c-1.8,1.036-3.5,2.014-3.061,3.773.819,3.3-.644,4.951-2.192,6.693-.213.239-.46.518-.7.807-1.063,1.255-1.453,2.188-1.191,2.851.238.6,1,.977,2.341,1.138,1.685.207,2.681.675,3.044,1.431.493,1.022-.226,2.44-1.076,3.821h-.009c-2.345.653-3.471,1.3-3.887,2.238-.45,1.014-.118,2.425,1.185,5.031h.007a4.9,4.9,0,0,1-3.124,1.131,8.684,8.684,0,0,1-2.922-.613,26.792,26.792,0,0,0-9.038-1.588,29.545,29.545,0,0,0-12.33,2.829A5.9,5.9,0,0,1,8512.87,1934.448Zm16.046-10.495a1.308,1.308,0,0,0-1.334,1.368,1.491,1.491,0,0,0,1.368,1.689,2.1,2.1,0,0,0,.3.024c.761,0,1.235-.468,1.373-1.353a1.6,1.6,0,0,0-1.39-1.7A2.042,2.042,0,0,0,8528.916,1923.953Zm-4.241-10.9h0l0,0a19.387,19.387,0,0,0,11.6,9.17c-.013-.007-.028-.015-.047-.024l-.007,0,.028.009.025.009a31.4,31.4,0,0,1-7.482-5.62c-1.3-1.2-2.646-2.441-4.116-3.55a.021.021,0,0,1,0,.009Zm2.4-11.23c-.688,0-3.322,2.3-5.472,4.533-1.259,1.3-2.586,2.844-2.536,3.257.075.69.42,1.039,1.023,1.039a2.751,2.751,0,0,0,.833-.157c2.75-.915,5.177-1.8,7.421-2.7a3.517,3.517,0,0,0,1.146-.725,2.337,2.337,0,0,0,.644-2.446,4.5,4.5,0,0,0-3.049-2.788l.009-.011A.07.07,0,0,0,8527.072,1901.818Zm-11.65-36.615c-.821,0-1.386.546-1.59,1.536a1.07,1.07,0,0,0-.021.133,1.389,1.389,0,0,0,1.243,1.618,2.5,2.5,0,0,0,.486.052,1.642,1.642,0,0,0,1.622-1.472v-.006a1.654,1.654,0,0,0-1.261-1.805A2.235,2.235,0,0,0,8515.422,1865.2Zm21.743-10.633h0c.1.917.2,1.906.334,3.207l0,.028c.267,2.6.5,4.838.8,7.162.177,1.374.9,2.1,2.085,2.1a3.909,3.909,0,0,0,1.194-.209c1.468-.473,3.2-1.268,3.133-2.373a1.433,1.433,0,0,0-.354-.807,15.006,15.006,0,0,1-1.779-3.155l0-.006c-1.076-2.314-2.187-4.7-5.414-5.962v.007a.008.008,0,0,1,0,.006Zm18.079-7c-.855.245-1.752.612-1.552,1.87a1.624,1.624,0,0,0,1.646,1.469h.023a1.627,1.627,0,0,0,1.237-.467,1.869,1.869,0,0,0,.433-1.433c-.054-.88-.632-1.351-1.769-1.44h-.02Z" transform="translate(-8408.322 -1736.47)" fill="#fff"/>
    <path id="Path_3554" data-name="Path 3554" d="M176.59,116.64l.09-1.97c1.81-1.23,3.58-1.13,5.61-.31a21.594,21.594,0,0,0,15.18.61c4.07-1.43,5.76-.08,7.67,2.69,13.38,19.39,15.91,40.04,5.59,61.31-10.43,21.5-28.53,32.08-52.19,33.49a4.746,4.746,0,0,1-5.34-3.4,27.138,27.138,0,0,0-7.75-10.83c-4.9-4.19-4.33-8.25,1.01-11.64,2.03-1.29,6.47-3.13,1.18-6.3a2.475,2.475,0,0,1-1-3.47,2.981,2.981,0,0,1,4.28-1.29c3.33,1.62,6.63,1.14,10,.41-2.39-.35-4.78-.5-7.15-.78a5.169,5.169,0,0,1-4.97-4.69c-.51-2.72,1.58-3.58,3.49-4.58,4.54-2.37,8.97-4.88,11.48-9.77a35.626,35.626,0,0,1-10.45,4.58c-2,.58-3.39.63-2.72-2.11a3.033,3.033,0,0,0,4-2.23,5.245,5.245,0,0,0,4.76-2.74c1.41-.49,2.82-.99,4.23-1.48,1.59.7,2.08.03,1.87-1.5.61-2.97-2.18-2.17-3.42-3.08-4.17-2.64-2.93-5.18.14-7.69a2.385,2.385,0,0,0,2.42-1.48,1.371,1.371,0,0,0,1.74-1.12c.12-1.02-.57-1.68-1.6-1.91-.74-1.81-.55-3.15,1.75-3.39,3.65,2.11,5.57,6.28,10.13,8.57a9.268,9.268,0,0,0-5.35-6.67c-1.25-.64-3.33-1.06-2.16-3.01a3.473,3.473,0,0,1,4.74-1.37,30.334,30.334,0,0,1,3.83,3.01c1.29.99,1.93,3.09,4.91,2.65-1.58-1.76-2.7-3.14-3.95-4.38-.93-.92-2.49-1.73-1.56-3.18.89-1.38,2.4-.38,3.63-.05.85,2.82,3.07,4.26,5.36,5.63-1.47-2.2-2.16-5.23-5.49-5.5.37-1.68.21-3.17-1.42-4.16-.04-1.01-.07-2.03-.11-3.04.9.26,1.99-.38,2.75.64.95,1.28,2.25,2.6,3.44.58.95-1.61-.71-2.99-1.93-3.47a42.866,42.866,0,0,0-6.72-1.54Zm9.63,56.66c-6.79,6-6.71,5.92-11.72,1.57-2.44-2.12-2.61-3.85.04-5.77,2.11-1.53,3.72-3.34,3.36-7.63-2.57,6.19-7.39,8.64-11.44,12.65,2.73-.02,4.95-2.43,6.62.89,2.16,4.3,1.42,7.81-2.23,11.05,6.82-2.52,12.04-6.59,15.37-12.75Zm6.32-36.84c-3.97.95-7.12,1.56-10.17,2.5-1.83.56-2.49,2.03-1.7,3.95.88,2.14,2.74,2.73,4.36,1.6a21.8,21.8,0,0,0,7.5-8.05Zm-24.39,46.6a20.968,20.968,0,0,0-.41-3.69c-.36-1.41-1.66-1.99-3.03-2.15-1.35-.16-2.1.67-2.6,1.83-.66,1.54,2.27,8.89,3.8,9.55.99.43,1.64.03,1.81-.89.23-1.29.25-2.62.43-4.66Zm31.86-19.85a1.873,1.873,0,0,0,1.79-1.91c.07-1.14-.34-1.88-1.63-1.75a1.975,1.975,0,0,0-1.92,1.83c-.13,1.2.67,1.7,1.76,1.83Zm-49.03,30.55a2.027,2.027,0,0,0-2.31-1.97,1.531,1.531,0,0,0-1.58,1.54,1.929,1.929,0,0,0,2,2.26,1.756,1.756,0,0,0,1.89-1.83Zm39.05-28.41a2.663,2.663,0,0,0-.42.87c-.02.27.2.55.31.83a2.446,2.446,0,0,0,.4-.81A2.637,2.637,0,0,0,190.03,165.35Zm-1.72,4.78c-.08-.11-.17-.22-.25-.33-.09.1-.26.2-.26.31s.15.22.23.33C188.12,170.34,188.22,170.24,188.31,170.13Z" fill="#fff"/>
    <path id="Path_3555" data-name="Path 3555" d="M153.76,160.67c-.67,2.74-2.44.59-.45,0a35.479,35.479,0,0,0,10.45-4.58c-2.5,4.89-6.94,7.4-11.48,9.77-1.91,1-4,1.86-3.49,4.58a5.185,5.185,0,0,0,4.97,4.69c2.38.28,4.77.43,7.15.78-3.37.73-6.67,1.21-10-.41a2.97,2.97,0,0,0-4.28,1.29,2.475,2.475,0,0,0,1,3.47c5.29,3.17.86,5.01-1.18,6.3-5.34,3.39-5.91,7.46-1.01,11.64a27.376,27.376,0,0,1,7.75,10.83c1.04,2.65,2.71,3.55,5.34,3.4,23.66-1.41,41.76-11.99,52.19-33.49,10.32-21.26,7.78-41.92-5.59-61.31-1.91-2.77-3.6-4.12-7.67-2.69a21.594,21.594,0,0,1-15.18-.61c-2.03-.82-3.8-.92-5.61.31a7.049,7.049,0,0,1-.62-.65c1.74-2,3.71-3.83,3.18-6.96-.06-.33,1.54-.94,2.37-1.42-.29-.6,1.74-1.03.12-1.73.11-1.6,1.09-2.22,2.57-2.29l1.26,2.25c-.95,2.84-.21,4.04,3.04,3.86,2.15-.12,4.1-.86,6.16-1.16,2.26-1.09,4.53-2.19,6.79-3.28a73.709,73.709,0,0,1,13.65,17.14c1.67,2.76,4.42-1.04,6.34.82-1.33.65-2.63,1.36-3.99,1.92-1.17.48-4-1.14-2.91,2.09.72,2.15,1.31,5.19,4.95,3.38-.49,3.92.81,6.64,4.97,7.46-.67.9-1.71.85-2.65,1.13-4.19,1.26-1.76,4.42-1.48,6.54.4,2.99,2.43.94,3.75.5,5.17-1.73,10.31-3.52,15.46-5.29-2.57,3.07-6.41,3.54-9.85,4.74-7.06,2.47-7.08,2.41-5.2,9.77-4.12-.5-4.12,2.81-3.67,4.98.66,3.17,3.09.32,4.7.59-4.06,4.6-3.83,10.8-5.88,16.16-3.61,9.4-7.42,18.46-15.87,24.65-1.18-1.86-2.14-1.94-3.75-.15a43.222,43.222,0,0,1-13.23,9.57c-3.34,1.64-2.17,3.16-.99,5.15-3.75.86-8.35.71-6.42,7.04a3.657,3.657,0,0,1-3.56,4.91c-3.46.05-4.22-2.54-3.89-5.54.8,1.03,1.56,2.1,2.41,3.09a1.451,1.451,0,0,0,2.48,0c.72-.81.05-9.22-.89-9.4-2.64-.49-10.98,1.911-12.26,4.7-9.92,7.67-11.22-60-9.99-58.6Z" fill="#fff"/>
    <path id="Path_3556" data-name="Path 3556" d="M163.53,121.81c-1.19-.82-3.06-1.52-.37-2.88.91-.46,1.74-1.17,1.13-2.35-.46-.88-1.37-.82-2.19-.64-2.08.46-3.63.24-3.83-2.39-.14-1.86-1.87-2.02-3.14-2.77-5.1-3.02-9.82-6.49-13.01-11.68-2.04-3.33-4.64-4.18-8.79-3.38-20.04,3.85-34.46,14.75-43.65,32.91-12.02,23.75-4.19,52.03,11.7,67.71,1.73,1.71,3.06,2.16,5.59,1a27.672,27.672,0,0,1,21.37-1.24c2.25.81,4.14.98,6.05-.52,1.55.26,3.68-.9,4.25,1.74a2.491,2.491,0,0,0-1.74,2.16c-3.38-1.8-5.5-.84-8.09,2.14-2.24,2.57-4.9,4.25-4.32,8.26.19,1.32-7.6,4.97-8.89,4.31-1.53-.79-.95-1.92-.11-2.83.98-1.07,2.71-1.33,3.32-3.09-5.44-1.85-3.13-3.89,1.05-6.02-7.34-1.84-12.48,6.34-18.53,2.4-5.03-3.26-9.93-7.16-11.69-13.49,2.5-3.04-.95-4.64-1.98-6.47-1.14-2.04-2.48,1.06-3.97,1.02a10.613,10.613,0,0,0-2.99-7.72c6.15-1.86.82-5.63.79-8.1-.03-2.7-2.43.36-3.85.5-.14-3.06.46-6.21-1.06-9.1,4.19.6,3.19-2.48,3.15-4.64-.07-3.57-2.38-1.45-3.81-1.3a23.668,23.668,0,0,0-3.28.78c1.67-2.62,6.18-3.11,5.6-7.43,1.51.08,1.78-.77,2.04-2.12,1.25-6.42,2.34-12.7,5.39-18.83,5.3-10.63,12.44-19.28,22.15-25.82,2.76-1.86,2.52-3.2.65-5.2,4.31-.37,6.45-2.92,7.01-7.03.5,1.02,1.46,2.06,1.43,3.07-.12,3.61,1.36,2.99,3.88,2.14,3.51-1.18,1.52-3.17,1.24-4.98,2.4-.37,4.77-.52,7,.72,2.8.88,5.56,1.95,8.61,1.54,3.24-.43,5.06.72,6.92,3.84,3.44,5.77,7.53,11.5,15.48,11.63.29.14.85.37.84.39-1.54,3.97-2.24,7.24,4.03,6.69,1.78-.16,1.76,1.51,1.21,2.95-.59,1.57-2.48,2.29-2.6,4.13Z" fill="#fff"/>
    <path id="Path_3557" data-name="Path 3557" d="M108.47,96.71c1.87,2,2.11,3.34-.65,5.2a65.379,65.379,0,0,0-22.15,25.82c-3.06,6.13-4.14,12.41-5.39,18.83-.26,1.35-.53,2.2-2.04,2.12.9-5.7,1.23-11.44,3.59-16.94,2.13-4.97,4.17-10.21,7.84-13.89,3.57-3.57,2.48-5.63-.02-8.45-.54-.61-1-1.3-1.5-1.95.18-1.24.36-2.47.54-3.71a13.606,13.606,0,0,1,5.5,3.13c1.85,1.55,3.49,1.9,4.63-.77a2.805,2.805,0,0,0,2.23-2.07l-.31-.34.28.36c2.96-1.42,1.52-2.79-.05-4.15-1.68-3.7-3.38-7.38-5.04-11.09-.71-1.59-2.12-3.51-.05-4.78,1.85-1.13,2.74,1.08,3.92,2.08.61.52,1.25,1.01,1.87,1.52a2.565,2.565,0,0,0,1.92,2.13c1.63,2.31,3.25,4.62,4.88,6.93Z" fill="#fff"/>
    <path id="Path_3558" data-name="Path 3558" d="M185.87,214.47c-1.18-2-2.36-3.51.99-5.15a43.342,43.342,0,0,0,13.23-9.57c1.61-1.79,2.57-1.71,3.75.15.4,3.29,3.97,5.19,3.81,8.72l-1.12.85a7.246,7.246,0,0,1-4.13-2.58c-2.41-2.6-4.55-2.87-7.71-.57-3.33,2.42-2.24,4.67-1.09,7.31.73,1.66,1.51,3.29,2.26,4.94a1.35,1.35,0,0,0,.8,1.99,1.86,1.86,0,0,0,.52,1.99c-.47,2.03,1.26,4.28-.61,6.17-3.33-1.4-4.27-5.08-6.85-7.19-.63-1.74-1.07-3.6-2.84-4.64a2.453,2.453,0,0,0-1.02-2.41Z" fill="#fff"/>
    <path id="Path_3559" data-name="Path 3559" d="M173.53,94.65c-2.07.34-3.93-.58-5.87-1a1.419,1.419,0,0,1-.78-1.71c2.13-1.33,2.42-4.71,5.78-4.87,1.13-.05.84-1.96.86-3.08.05-3.15-.01-6.3.09-9.45.06-1.78.02-4.32,2.26-4.28,2.3.04,2.77,2.43,2.75,4.57-.02,2.99-.05,5.97.05,8.96.04,1.18-.66,3.27,1.19,3.19,1.9-.07,1.51-2.2,1.56-3.65a3.349,3.349,0,0,0-.16-.98c-.45-1.53-1.6-3.27.41-4.4,1.54-.86,2.95-.07,3.74,1.42.84,1.58,3.11,2.92.89,5.13-1.87,1.87-2.26,5.39-5.93,5.22-4.82-1.89-4.68,3.12-6.85,4.92Z" fill="#fff"/>
    <path id="Path_3560" data-name="Path 3560" d="M140.53,214.56c1.38.49.79,2.05,1.55,2.91,1.04-.96-.33-3.44,1.77-3.38,1.71.04,2.83,1.7,3.47,3.21,1.93,4.53,3.7,9.12,5.52,13.7.47,1.18,1.46,2.6-.41,3.32-1.49.57-2.6-.65-3.2-1.77-1.92-3.61-3.65-7.32-5.44-10.98-.35.1-.77.09-.87.27-.78,1.33.67,3.97-1.46,4.15-2.1.18-2.28-2.41-2.95-4.03a13.554,13.554,0,0,1-.68-7.79c.9.14,1.8.27,2.69.41Z" fill="#fff"/>
    <path id="Path_3561" data-name="Path 3561" d="M160.05,107.65c-7.95-.13-12.05-5.86-15.48-11.63-1.86-3.12-3.68-4.28-6.92-3.84-3.05.41-5.8-.66-8.61-1.54l.38.08.1-.37a14.643,14.643,0,0,0,10.17-1.54c2.15.39,3.91,1.02,5.06,3.3,2.87,5.68,6.93,10.35,12.8,13.24a12.089,12.089,0,0,1,2.51,2.31Z" fill="#fff"/>
    <path id="Path_3562" data-name="Path 3562" d="M77.64,170.38c1.42-.14,3.82-3.19,3.85-.5.03,2.47,5.36,6.24-.79,8.1a1.737,1.737,0,0,0-2,.59,14.05,14.05,0,0,0-5.89,1.51,1.983,1.983,0,0,0-2.1.42c-1.31-.64-2.52.06-3.76.31-1.41.29-3.04.88-3.97-.61-1.09-1.75,1.35-2.26,1.65-3.6q6.51-3.105,13.02-6.22Z" fill="#fff"/>
    <path id="Path_3563" data-name="Path 3563" d="M166.89,91.95a1.419,1.419,0,0,0,.78,1.71,11.816,11.816,0,0,0,1.3,6.2c.65,1.19,1.36,2.81-.38,3.32-1.64.47-2.45-.93-2.9-2.61-1.51-5.65-3.2-11.25-4.83-16.87,1.11-.91-1.67-3.91,1.89-3.51.79,4.13,2.64,7.88,4.15,11.76Z" fill="#fff"/>
    <path id="Path_3565" data-name="Path 3565" d="M122.19,227.72c2.13-4.76,4.14-9.55,4.86-14.77a6.618,6.618,0,0,1,.78-2.33c.57-.98,1.26-2.24,2.64-1.71,1.54.59.92,1.87.5,2.97-1.43,3.68-2.84,7.36-4.3,11.03-.36.9-1.12,1.67-.63,2.76a2.821,2.821,0,0,0-1.58,2.82l.05-.08c-.78-.23-1.55-.45-2.33-.68Z" fill="#fff"/>
    <path id="Path_3566" data-name="Path 3566" d="M239.63,138.99c-5.15,1.77-10.3,3.56-15.46,5.29-1.32.44-3.35,2.48-3.75-.5-.29-2.13-2.72-5.29,1.48-6.54.94-.28,1.99-.23,2.65-1.13.66-.11,1.32-.23,1.98-.34a46.983,46.983,0,0,0,12.07-.73c2,.89,2.3,2.22,1.04,3.96Z" fill="#fff"/>
    <path id="Path_3567" data-name="Path 3567" d="M135.63,224.98c.04,2.77-.06,5.31-1.94,7.2a1.914,1.914,0,0,1-2.71-.34c-1.85-2.1-1.73-4.72-1.14-7.09.5-1.99.31-5.39,3.67-4.89,2.96.44,1.87,3.37,2.11,5.12Z" fill="#fff"/>
    <path id="Path_3568" data-name="Path 3568" d="M187.23,93.52a1.692,1.692,0,0,1-1.5-2.68c2.24-3.87,4.77-7.62,8.74-9.96.9-.53,2.39-.66,2.75,1.04C197.54,83.49,189.22,93.35,187.23,93.52Z" fill="#fff"/>
    <path id="Path_3569" data-name="Path 3569" d="M201.54,103.3c-2.26,1.09-4.52,2.19-6.79,3.28-.68-5.37,5.17-4.6,7.16-7.53.54-.8,2.81-1.53,3.11-1.21,1.66,1.79-.67,2.34-1.44,3.36a21.257,21.257,0,0,1-2.05,2.09Z" fill="#fff"/>
    <path id="Path_3570" data-name="Path 3570" d="M83.69,185.7c1.49.04,2.83-3.06,3.97-1.02,1.03,1.83,4.47,3.44,1.98,6.47-2.9-1.34-4.65,1.3-6.95,2.03l-3.18-.21.02-.25-.25.02c-.06-.72-.12-1.45-.18-2.17,1.72-1.44,3.71-2.62,4.59-4.86Z" fill="#fff"/>
    <path id="Path_3571" data-name="Path 3571" d="M122.03,89.91c.28,1.81,2.27,3.81-1.24,4.98-2.52.85-4,1.47-3.88-2.14.03-1.01-.93-2.05-1.43-3.07.1-1.55.2-3.09.3-4.64l1.86-.6,4.39,5.47Z" fill="#fff"/>
    <path id="Path_3572" data-name="Path 3572" d="M169.67,217.38c1.28-2.79,3.69-3.3,6.33-2.81.94.17,1.61,8.59.89,9.4a1.451,1.451,0,0,1-2.48,0c-.85-1-1.61-2.06-2.41-3.09.06-1.72-.28-3.17-2.32-3.49Z" fill="#fff"/>
    <path id="Path_3573" data-name="Path 3573" d="M136.9,199.47a2.48,2.48,0,0,1,1.74-2.16l.16.47.5-.02c3.12,3.28,6.91,5.96,8.88,10.26.65,1.41,1.13,2.51-1.22,1.92-1.46-2.63-2.47-5.61-5.44-7.07a2.468,2.468,0,0,0-2.44-2.04,2.83,2.83,0,0,0-2.17-1.35Z" fill="#fff"/>
    <path id="Path_3574" data-name="Path 3574" d="M173.53,94.65c2.17-1.8,2.03-6.81,6.85-4.92.02,1.63.04,3.25.06,4.88-1.68.68-2.03,2.27-2.54,3.75-2.76.3-4.54-.54-4.36-3.7Z" fill="#fff"/>
    <path id="Path_3575" data-name="Path 3575" d="M219.57,128.64c-3.63,1.81-4.22-1.23-4.95-3.38-1.09-3.24,1.73-1.61,2.91-2.09,1.36-.56,2.66-1.27,3.99-1.92l3.09.24c.12,1.06.23,2.11.35,3.17-1.9,1.19-4.06,2.03-5.4,3.98Z" fill="#fff"/>
    <path id="Path_3576" data-name="Path 3576" d="M72.64,156.11a23.668,23.668,0,0,1,3.28-.78c1.43-.14,3.74-2.26,3.81,1.3.04,2.16,1.03,5.24-3.15,4.64-.35-.49-.73-.45-1.13-.06-1.47-2.37-6.24,1.04-6.38-3.65l3.58-1.46Z" fill="#fff"/>
    <path id="Path_3577" data-name="Path 3577" d="M185.55,103.88l-1.26-2.25c2.63-.96,3.45-4.37,6.67-5.02C191.94,101.35,188.02,102.08,185.55,103.88Z" fill="#fff"/>
    <path id="Path_3578" data-name="Path 3578" d="M225.6,159.08c-1.61-.27-4.04,2.58-4.7-.59-.45-2.17-.45-5.48,3.67-4.98,1.72.1,3.08,1.93,5.01,1.04l2.12.4v3.19a1.862,1.862,0,0,0-2.02.86l-4.08.09Z" fill="#fff"/>
    <path id="Path_3579" data-name="Path 3579" d="M122.19,227.72c.78.23,1.55.45,2.33.68a8.984,8.984,0,0,1-3.01,8.85c-.61.54-1.28,1.24-2.13.78s-.62-1.36-.42-2.17c.73-2.85,1.42-5.72,3.23-8.14Z" fill="#fff"/>
    <path id="Path_3580" data-name="Path 3580" d="M103.37,216.56c-1.64,0-3.06-.42-2.47-1.89,1.09-2.73,4.08-3.04,6.43-3.99a1.673,1.673,0,0,1,2.24,1.9c-.33,4.28-4.47,2.46-6.2,3.98Z" fill="#fff"/>
    <path id="Path_3581" data-name="Path 3581" d="M140.53,214.56c-.9-.14-1.8-.27-2.69-.41q-.915-3.765-1.84-7.52c.56-1.75,1.53-2.55,3.32-1.45.22.8.45,1.59.67,2.39a1.284,1.284,0,0,0,.5,2.06,8.619,8.619,0,0,0,.04,4.93Z" fill="#fff"/>
    <path id="Path_3582" data-name="Path 3582" d="M64.62,176.6c-.3,1.34-2.74,1.84-1.65,3.6.93,1.49,2.56.9,3.97.61,1.24-.25,2.45-.94,3.76-.31-1.38,1.72-3.43,1.86-5.36,2.08-1.63.18-3.49.29-3.73-2.14-.23-2.23.04-4.1,3.01-3.84Z" fill="#fff"/>
    <path id="Path_3583" data-name="Path 3583" d="M238.59,135.03a46.982,46.982,0,0,1-12.07.73C230.47,134.29,234.44,133.2,238.59,135.03Z" fill="#fff"/>
    <path id="Path_3585" data-name="Path 3585" d="M176.59,116.64a42.866,42.866,0,0,1,6.72,1.54c1.22.48,2.88,1.85,1.93,3.47-1.19,2.02-2.49.7-3.44-.58-.76-1.03-1.85-.38-2.75-.64.27-1.97-4.23-.85-2.45-3.79Z" fill="#fff"/>
    <path id="Path_3586" data-name="Path 3586" d="M162.74,80.19c-3.56-.41-.78,2.6-1.89,3.51-1.35-.42-1.37-1.69-1.68-2.74-.53-1.8-1.71-4.41.73-4.95,2.38-.53,2.54,2.29,2.85,4.18Z" fill="#fff"/>
    <path id="Path_3587" data-name="Path 3587" d="M139.67,88.8a14.581,14.581,0,0,1-10.17,1.54C132.5,87.27,135.85,86.52,139.67,88.8Z" fill="#fff"/>
    <path id="Path_3588" data-name="Path 3588" d="M177.9,98.36c.52-1.47.86-3.07,2.54-3.75,1.8.18,3.64.94,2.72,2.92-1.03,2.22-3.43.87-5.27.83Z" fill="#fff"/>
    <path id="Path_3589" data-name="Path 3589" d="M69.06,157.57c.14,4.69,4.92,1.27,6.38,3.65-1.79.12-3.69.67-5.36.27-2.04-.49-4.01-1.75-1.02-3.91Z" fill="#fff"/>
    <path id="Path_3590" data-name="Path 3590" d="M139.33,205.18c-1.8-1.1-2.77-.3-3.32,1.45-2.28-1.25-1.38-2.59.07-3.62,1-.72,2.41-.86,3-2.17a2.47,2.47,0,0,1,2.44,2.04l-2.19,2.31Z" fill="#fff"/>
    <path id="Path_3591" data-name="Path 3591" d="M196.59,228.71c1.87-1.89.14-4.14.61-6.17a4.843,4.843,0,0,1,1.97,5.55C198.91,229.13,197.85,230.16,196.59,228.71Z" fill="#fff"/>
    <path id="Path_3592" data-name="Path 3592" d="M72.81,180.08a13.9,13.9,0,0,1,5.89-1.51C77.09,180.45,75.21,181.28,72.81,180.08Z" fill="#fff"/>
    <path id="Path_3593" data-name="Path 3593" d="M88.69,103.75c-.18,1.24-.36,2.47-.54,3.71-2.34.17-2.81-1.2-2.18-3.01C86.41,103.19,87.3,102.07,88.69,103.75Z" fill="#fff"/>
    <path id="Path_3594" data-name="Path 3594" d="M159.34,153.59a5.227,5.227,0,0,1-4.76,2.74C155.26,153.85,157.3,153.72,159.34,153.59Z" fill="#fff"/>
    <path id="Path_3595" data-name="Path 3595" d="M148.97,153.36c.45-1.88,1.84-2.04,3.41-1.85C153.14,153.72,152.99,153.81,148.97,153.36Z" fill="#fff"/>
    <path id="Path_3596" data-name="Path 3596" d="M149.63,148.19c-2,1.25-3.64.96-4.83-1.16C146.58,146.71,148.54,145.64,149.63,148.19Z" fill="#fff"/>
    <path id="Path_3597" data-name="Path 3597" d="M186.89,216.88c1.77,1.04,2.21,2.9,2.84,4.64C186.91,221.12,186.67,219.14,186.89,216.88Z" fill="#fff"/>
    <path id="Path_3598" data-name="Path 3598" d="M224.97,124.66c-.12-1.06-.23-2.11-.35-3.17.72-.79,1.49-.69,1.77.25C226.78,123.02,226.7,124.3,224.97,124.66Z" fill="#fff"/>
    <path id="Path_3599" data-name="Path 3599" d="M100.97,99.92c1.58,1.36,3.01,2.73.05,4.15C101,102.69,100.98,101.3,100.97,99.92Z" fill="#fff"/>
    <path id="Path_3600" data-name="Path 3600" d="M164.72,135.33a1.738,1.738,0,0,1,1.6,1.91,1.375,1.375,0,0,1-1.74,1.12c.05-1.01.1-2.02.14-3.02Z" fill="#fff"/>
    <path id="Path_3601" data-name="Path 3601" d="M79.51,192.96l3.18.21C81.48,195.41,80.43,195.08,79.51,192.96Z" fill="#fff"/>
    <path id="Path_3602" data-name="Path 3602" d="M231.71,154.94l-2.12-.4C230.57,153.23,231.2,153.75,231.71,154.94Z" fill="#fff"/>
    <path id="Path_3603" data-name="Path 3603" d="M229.68,158.99a1.862,1.862,0,0,1,2.02-.86C231.38,159.25,230.93,160.07,229.68,158.99Z" fill="#fff"/>
    <path id="Path_3604" data-name="Path 3604" d="M103.59,89.78a2.565,2.565,0,0,1-1.92-2.13A1.751,1.751,0,0,1,103.59,89.78Z" fill="#fff"/>
    <path id="Path_3605" data-name="Path 3605" d="M101.05,104.04a2.777,2.777,0,0,1-2.23,2.07C98.67,104.46,99.29,103.63,101.05,104.04Z" fill="#fff"/>
    <path id="Path_3606" data-name="Path 3606" d="M196.67,220.55a1.35,1.35,0,0,1-.8-1.99C197.19,218.8,198.03,219.23,196.67,220.55Z" fill="#fff"/>
    <path id="Path_3607" data-name="Path 3607" d="M79.1,190.56c.06.72.12,1.45.18,2.17C77.7,192.13,77.12,191.45,79.1,190.56Z" fill="#fff"/>
    <path id="Path_3608" data-name="Path 3608" d="M165.44,150.61c.21,1.53-.28,2.2-1.87,1.5A1.613,1.613,0,0,1,165.44,150.61Z" fill="#fff"/>
    <path id="Path_3609" data-name="Path 3609" d="M117.64,84.44l-1.86.6c-.07-.78-.23-1.72.83-1.87.72-.1.97.61,1.04,1.27Z" fill="#fff"/>
    <path id="Path_3610" data-name="Path 3610" d="M124.47,228.48a2.83,2.83,0,0,1,1.58-2.82C126.75,227.29,126.47,228.37,124.47,228.48Z" fill="#fff"/>
    <path id="Path_3611" data-name="Path 3611" d="M140.49,209.63a1.284,1.284,0,0,1-.5-2.06C141.49,207.94,142,208.54,140.49,209.63Z" fill="#fff"/>
    <path id="Path_3612" data-name="Path 3612" d="M206.53,209.46l1.12-.85c.6.39.93.96.29,1.46s-1.12.01-1.41-.61Z" fill="#fff"/>
    <path id="Path_3613" data-name="Path 3613" d="M181.72,103.91c1.62.69-.41,1.13-.12,1.73A1.361,1.361,0,0,0,181.72,103.91Z" fill="#fff"/>
    <path id="Path_3620" data-name="Path 3620" d="M122.3,189.21a1.379,1.379,0,0,1-1.67,1.33,1.488,1.488,0,0,1-1.37-1.69,1.327,1.327,0,0,1,1.65-1.34A1.6,1.6,0,0,1,122.3,189.21Z" fill="#fff"/>
    <path id="Path_3625" data-name="Path 3625" d="M180.57,127.64c3.32.27,4.02,3.29,5.49,5.5-2.29-1.37-4.51-2.81-5.36-5.63l-.12.13Z" fill="#fff"/>
    <path id="Path_3627" data-name="Path 3627" d="M190.01,165.34a2.637,2.637,0,0,1,.29.89,2.446,2.446,0,0,1-.4.81c-.11-.28-.33-.56-.31-.83A2.663,2.663,0,0,1,190.01,165.34Z" fill="#fff"/>
    <path id="Path_3628" data-name="Path 3628" d="M188.29,170.12c-.09.1-.19.2-.28.31-.08-.11-.23-.23-.23-.33s.17-.21.26-.31C188.12,169.9,188.21,170.01,188.29,170.12Z" fill="#fff"/>
  </g>
</svg>
