<svg id="Component_311_1" data-name="Component 311 – 1" xmlns="http://www.w3.org/2000/svg" width="342.24" height="342.24" viewBox="0 0 342.24 342.24">
  <g id="Component_230_30" data-name="Component 230 – 30">
    <g id="Rectangle_3295" data-name="Rectangle 3295" transform="translate(171.12) rotate(45)" fill="#fff" stroke="#000" stroke-width="3">
      <rect width="242" height="242" stroke="none"/>
      <rect x="1.5" y="1.5" width="239" height="239" fill="none"/>
    </g>
    <g id="Rectangle_3296" data-name="Rectangle 3296" transform="translate(171.421 30) rotate(45)" stroke="#000" stroke-width="3">
      <rect width="200" height="200" stroke="none"/>
      <rect x="1.5" y="1.5" width="197" height="197" fill="none"/>
    </g>
  </g>
  <g id="Group_313" data-name="Group 313" transform="translate(7336.081 1098.71)">
    <g id="Group_191" data-name="Group 191" transform="translate(-7279.081 -1043.71)">
      <path id="Path_4078" data-name="Path 4078" d="M102.307,58.268c-.091-.28-.189-.56-.28-.831q-.185-6.06-.337-12.128,11-11.133,21.862-22.4c7.035-7.315,14.013-11.4,24.166-9.907,2.7.395,4.863.823,6.838,2.872C164.035,25.692,173.72,35.3,183.322,45c.066,2.831.091,5.7-.082,8.541a10.066,10.066,0,0,0-1.275,4.213c-.049.378-.091.757-.132,1.135-.148.362-.3.716-.444,1.078a5.49,5.49,0,0,0-.362,1.514c-2.452,6.517-7.257,11.223-12.762,15.28-2.732-.14-5.455-.272-8.187-.42-2.452-.132-3.719-1.481-3.9-3.892-.206-2.707-.058-6.245,2.929-6.369,5.85-.23,8.582-3.917,11.322-8.154a8.31,8.31,0,0,1-1.5,8.376c-.428.551-1.012,1.111-.666,1.8.551,1.086,1.424.395,2.1.107,4.575-1.942,6.706-5.834,7.973-10.318.255-.9.288-2.4-.568-2.641-3.818-1.086-4.065-4.855-5.957-7.373-.872-1.16-1.629-2.575-3.472-2.543-.494,0-1.325-.313-1.432-.658-2.057-6.566-7.117-1.6-10.582-2.732-1.226-.4-2.715,0-4.081.025l.016-.016c-3.744,2.518-8.031,2.485-12.26,2.37a49.648,49.648,0,0,1-6.978-1.2c.049-1.6,2.74-1.942,2.008-3.843.527.115,1.053.23,1.588.354-.058.913.469,1.21,1.234.987a1.244,1.244,0,0,0,.757-.839c.107-.823-.362-1.21-1.2-1.094-1.061-2.1-3.061-3.234-4.8-4.641-.642-.518-1.489-.823-2.148-.132s-.115,1.481.123,2.213c-1.547.181-2.518-.765-3.505-1.744-.592-.592-1.382-1.078-2.156-.354-.9.839-.51,1.81.165,2.551a28.341,28.341,0,0,0,5.883,4.995c-3.769-.132-7.554,1.341-11.051-.93a1.3,1.3,0,0,0-2.074.5c-1.679,4.542-7.1,6.467-7.973,11.569a2.644,2.644,0,0,1-1.061,1.7c-1.761.971-4.089,1.481-3.028,4.336,1.456,3.892,3.135,7.652,7.422,9.281a1.686,1.686,0,0,0,1.489-.173c.782-.823.016-1.514-.51-2.074-3.382-3.6-1.44-7.743-1.2-11.7.041-.716.428-1.432,1.3-1.119.905.321.444.922.23,1.613-1.637,5.34,2.658,11.034,8.492,11.133q11.688.185,23.393.058c3.3-.033,4.345.946,2.658,4.106-1.3,2.427-2.386,5.134-1.67,7.866.675,2.584.025,3.234-2.411,2.831-4.558-.757-8.952.831-13.445,1-1.259.049-3.2.337-2.814,2.156.379,1.777,2.279,1.909,3.727,1.358,3.7-1.415,7.562-.848,11.339-1.267,4.855-.535,7.422,1.563,8.6,5.982a.325.325,0,0,1-.444.272c-2.419-.773-4.394.946-6.673,1.226-6.105.749-11.421-1.786-17.032-3.151a121.951,121.951,0,0,1-22.521-21.393,16.817,16.817,0,0,1-2.97-5.941,8.116,8.116,0,0,0-.411-2.551l-.025.016Zm44.186-17.5a43.535,43.535,0,0,0,5.776,1.177c1.695-1.892,4.4-2.468,5.965-4.575.724-.979,1.934-1.95.938-3.11-1.168-1.358-2.222-.2-2.855.839-.732,1.2-1.777.971-2.831.987.634-2.411-.123-3.357-2.329-1.843-1.744,1.193-3.6,2.4-4.567,4.451-2.287.584-1.481,1.6-.1,2.065h0Z" transform="translate(-27.94 -12.7)" fill="#fff"/>
      <path id="Path_4079" data-name="Path 4079" d="M198.636,181.921c1.646-2,3.341-3.958,5.118-5.85-2.271-3.95-5.916-7.043-9.569-10.195-2.954-2.543-6.9-4.024-8.73-7.817-.757-.617-1.522-1.242-2.279-1.868-.831.691-.551,1.308-.016,2.09,1.465,2.139,2.839,4.336,4.221,6.533.584.938,1.325,2.1.016,2.847-1.152.658-2.082-.263-2.674-1.251q-3.888-6.455-7.735-12.951c-1.177-1.975-2.658-3.859-2.057-6.41-2.715-4.97-1.44-9.545,1.4-13.955.025-1.851,3.1-1.7,2.575-3.925-7.307,1.7-10.516,5.908-10.878,13.247-.288,5.859,2.378,10.746,4.32,15.9.543,1.423,1.753,3.242.239,4.007-1.9.963-2.8-1.317-3.349-2.691-1.654-4.131-3.028-8.385-4.526-12.581a10.007,10.007,0,0,1,.683-8.311c.806-1.555,1.53-3.151,2.246-4.756.938-2.09-.263-2.493-1.917-2.148-1.81.378-2.592,1.794-2.946,3.522-.272,1.284.016,2.97-1.679,3.439-2.016.559-1.86,2.049-1.86,3.563a46.24,46.24,0,0,0,4.435,18.933c1.909,4.3,4.558,8.409,4.542,13.379,0,1.045.173,3-.946,2.7-4.312-1.193-2.1,2.106-2.337,3.324a9.144,9.144,0,0,0-.14,1.777,4.9,4.9,0,0,1,1.292-.173,4.183,4.183,0,0,1,4.3,4.229,3.7,3.7,0,0,1,.954,3.094c-.074.749-.165,1.5-.247,2.255a5.629,5.629,0,0,1,1.119.14,3.27,3.27,0,0,1,.872.346,51.063,51.063,0,0,1,4.608-7.85,4.4,4.4,0,0,1,1.226-1.111,33.377,33.377,0,0,0,.025-15.354c-.378-1.818-1.489-3.481-2.263-5.208-.14-.642.033-1.168.634-1.341a1.359,1.359,0,0,1,1.111.247c1.358,1.325,2.756,2.592,3.382,4.526a29.973,29.973,0,0,1,.576,16.3,3.831,3.831,0,0,1,3.308,2.065,4.555,4.555,0,0,1,1.588-.272,4.274,4.274,0,0,1,.666.058,3.893,3.893,0,0,1,1.81-1.012,20.333,20.333,0,0,1,3.736-.321,4.351,4.351,0,0,1,1.777.379c-.741-3.859-.675-8.039-1.851-12.26a1.792,1.792,0,0,1,1.308-.683,2.062,2.062,0,0,1,2.287,1.851c.773,3.02,1.818,5.965,1.646,9.183v.354Z" transform="translate(-38.136 -33.336)" fill="#fff"/>
      <path id="Path_4080" data-name="Path 4080" d="M240.057,131.919c-.683-1.662-4.279-5.085-11.5-11.89-1.547-1.456-2.839-2.658-3.719-3.472-.815,1.753-1.621,3.505-2.444,5.25a6.5,6.5,0,0,1-5.019,3.588q-.309.16-.691.321c-1.744.716-3.588,1.177-5.389,1.744l-.033.025a65.518,65.518,0,0,0-6.188,10.557c-.008.527-.008,1.061-.008,1.588,7.249-.132,14.358.239,20.381,5.1,1.16.938,3.077,1.654,1.868,3.365-1.144,1.613-2.732.494-3.834-.576-2.559-2.477-5.669-3.341-9.092-4.114-3.02-.675-5.949,1.522-8.78-.288-4.9,1.654-8.492,5.233-12.375,8.385-.288,2.32.773,3.8,2.74,4.978a20.683,20.683,0,0,1,7.307,8.138c.675,1.218,1.119,2.888-.321,3.662-1.629.872-2.617-.741-2.954-1.967-2.543-9.306-18.4-13.568-27.219-11.363-.839.214-2.156.173-2.3,1.341-.132,1.053,1.012,1.489,1.7,2.123a44.2,44.2,0,0,1,7.767,8.59q1.284-1.3,2.625-2.543c.115-.107.239-.181.354-.28a4.055,4.055,0,0,1,2.37-2.625c-.37-.222-.757-.436-1.135-.642-.922-.51-1.744-1.078-1.3-2.164.543-1.308,1.555-.436,2.436-.3,6,.963,13.289,11.339,13.84,16.391.411,1.037.288,1.967-.848,2.337-1.6.518-1.86-.815-2.049-1.835a17.23,17.23,0,0,0-4.945-9.314,4.526,4.526,0,0,1-1.423,3.094,5.46,5.46,0,0,1-.3.732,56.123,56.123,0,0,0-3,7.57,4.933,4.933,0,0,1,1.21,4.419c-.091.411-.173.806-.263,1.2a37.077,37.077,0,0,1,3.917-2.1c4.468-2.041,9.068,3.168,5.4,7-8.582,8.961-16.169,18.983-26.767,25.738-10.088,6.434-22.2,13.223-34.476,13.206-6.55-.008-13.058-1.456-19.493-2.543A63.778,63.778,0,0,1,99.864,219.4c-10.952-5.027-20.217-12.984-30.428-19.279a4.292,4.292,0,0,1-1.58-5.793,17.611,17.611,0,0,1-2.5-2.551c-4.682-5.817-5.069-13.7-3.859-14.136.864-.313,2.18,3.341,3.678,3.028,1.456-.3,1.893-4.147,2.378-8.755.675-6.41.263-9.323,1.6-9.874,1.242-.518,3.1,1.415,4.427,2.74a170.076,170.076,0,0,0,13.733,12.334c.379.091.732.165,1.086.23a4.43,4.43,0,0,1,1.621-.337,16.754,16.754,0,0,1,4.962.6,14.287,14.287,0,0,0,1.934-.42,60.188,60.188,0,0,0,7.01-2.074c1.21-.527,2.394-1.226,3.135.272.708,1.44-.477,2.23-1.646,2.773-.37.173-.741.321-1.111.469a5.033,5.033,0,0,1,2.148,1.7c.856,1.135,1.662,2.329,2.444,3.538a4.15,4.15,0,0,1,.469.041c.65-.041,2.106.494,4.394,1.6-.378-1.119-.757-2.23-1.119-3.349-1.547-4.764,6.163-8.072,8.146-3.431.156.362.321.716.477,1.07a18.4,18.4,0,0,0,4.6-13.782,16.37,16.37,0,0,1-.008-2.46c.066-1.012.346-2.008,1.555-2.049a2.067,2.067,0,0,1,2.3,1.86,17.41,17.41,0,0,1,.025,2.452h-.016c.584,2.756-.872,5.134-1.654,7.529a26.2,26.2,0,0,1-5.389,9.537q1.827,3.851,3.892,7.57c.189-.049.379-.091.568-.132.156-.255.321-.5.485-.749.724-1.086,1.728-2.724,3.176-1.8a1.439,1.439,0,0,1,.732.88.97.97,0,0,1-.033.461.062.062,0,0,0,.033-.016c.395-.049.79-.107,1.185-.156h.058c.313-.954.683-1.9.971-2.863a41.37,41.37,0,0,0,.239-23.393c-.543-1.934-5.439-4.567.395-6.245a1.552,1.552,0,0,0-.041-1.135c-1.588-2.452-1.259-5.455-2.3-8.023a28.7,28.7,0,0,1-2.115-13.9c.379-3.472.7-8.631,4.879-9.01,5.686-.51,7.241-5.052,11.141-7.66a4.2,4.2,0,0,0-4.805.148c-2.4,1.522-5.241,2.312-7.274,4.468-.732.773-1.761,1.761-2.756.568-1.012-1.21-.222-2.279.889-3.069,1-.708,2.041-1.349,3-2.1.625-.485,1.366-1.07.3-1.876-2.921.576-5.85,1.127-7.883,3.629-2.016,3.785-5.052,6.953-6.451,11.125-.642,1.925-2.329,3.736,1.193,4.55,1.21.28.963,1.489.642,2.427-1.835,5.39.222,10.4,1.522,15.469.37,1.432,1.415,3.225-.485,3.859-1.851.617-2.287-1.473-2.847-2.806a15.482,15.482,0,0,1-.337-2.008c-.872-3.242-.691-7.159-2.23-9.685-2.6-4.279-1.843-7.71-.436-11.824,1.506-4.427,3.908-8.3,6.229-12.26a3.262,3.262,0,0,0-3.316-.181c-.5,1.218-1.317,1.2-2.287.592-5.39,2.46-6.245,7.726-8.1,12.548-1.555,4.032-.321,8.5-2.468,12.334-1.5,2.674-3.9,4.526-6.04,6.616a1.825,1.825,0,0,1-1.094,1.588c-7.652,4.69-16.506,1.2-22.068-5.661-.535-.666-.9-1.5-.14-2.205,1.144-1.061,2.106-.23,2.789.6,2.658,3.234,6.295,4.674,10.137,5.8a5.841,5.841,0,0,0,5.143-.5c1.975-1.366-.584-2.592-.337-3.941a5.246,5.246,0,0,1,.444-1.045c-.132-.79-.255-1.572-.387-2.361-1.835-1.81-1.563-4.122-1.539-6.377a9.784,9.784,0,0,0-4.715-5.184c-2,.436-3.694-.823-5.6-.987-4.279-.378-10.269,2.518-10.68,5.324-.173,1.193,1.481,2.921-.609,3.464-1.555.4-2.724-1.029-3.736-2.148-6.945-7.677-15.79-10.244-25.828-9.767-4.262.2-7.883,1.925-11.339,4.229-.782.518-1.827,1.029-2.592.058-.749-.954-.074-1.827.675-2.468,1.851-1.588,3.637-3.11,6.385-3.184,3.086-.091,5.11-2.707,4.361-5-.37-1.144-1.975-2.592.082-3.4,1.843-.732,2.419.93,3.168,2.337,1,1.876,1.292,4.484,4.657,4.18,6.27-.56,11.676,2.4,16.5,5.743,3.563,2.46,6.138,4.229,9.273-.049,1.012-1.382,4.18-.51,3.744-3.5-5-4.419-10.433-7.5-17.485-5.76-1.934.477-2.205-.592-1.53-2.074,2.337-5.126,1.794-10.1-.773-14.942A3.737,3.737,0,0,1,58.36,100a46.29,46.29,0,0,1-4.287-8.442c-.058-.107-.123-.222-.181-.329q-10.158,10.133-20.3,20.283c-3.012,3.02-10.071,9.644-19.081,19.131-.675.708-1.226,1.3-1.6,1.687.016.559.041,1.374.058,2.361.058,3.086.132,5.208.016,7.809l-.016-.025c-.091,1.925-.214,3.917-.395,5.974-.148,1.7-.321,3.349-.518,4.945L116.106,258.082c2.156.123,4.377.214,6.648.263,4.97.1,9.7-.008,14.161-.263q4.258-4.616,8.566-9.216,46.753-49.95,94.748-94.123c0-1.325,0-3.374.016-5.883.132-14.4.782-14.7-.156-16.958Zm-17.526.346a10.717,10.717,0,0,0-5.134,3.793,2.45,2.45,0,0,1-2.205,1.111c-1.061-.074-1.86-.905-1.094-1.818,2.041-2.436,3.777-5.357,7.249-6.105,1.02-.222,2.312-.634,2.822.724h-.008C224.678,131.318,223.6,131.836,222.53,132.264ZM50.593,117.56c2.534-3.225,3.694-6.558,1.4-10.475a1.643,1.643,0,0,1,.946-2.362c.913-.346,1.547.354,2.041.987,1.341,1.7,1.432,3.752,1.506,6.328.387,2.773-1.078,5.241-3.522,7.266-.658.543-1.448.946-2.222.4h0a1.394,1.394,0,0,1-.148-2.148Zm33.028,42.392c10.9,3.094,20.2-.584,25.639-11.585,1.053-2.123,1.67-4.567,4.583-5.176.65-.14.831-1.884,2.106-1.127.987.584.65,1.687.741,2.617.23,2.263-1.119,5.044,2.082,6.377h.025c.2.074.173,1.029.033,1.506a20.852,20.852,0,0,1-6.138,9.471c-.683.634-1.349,1.029-2.106.395a1.53,1.53,0,0,1-.049-2.222c.749-.946,1.769-1.679,2.575-2.592,1.473-1.67,3.382-3.225,2.1-6.2-1.637.806-1.7,2.271-2.518,3.127-2.394,2.518-3.67,7.035-7.323,7.126a24.2,24.2,0,0,0-8.1,1.794c-7.093,2.641-18.242-.09-22.883-5.85-.642-.79-1.547-1.95-.773-2.847.938-1.078,1.967.049,2.847.625,2.378,1.555,4.55,3.826,7.159,4.567Zm-51.336-4.9h0c-2.032.14-2.658-1.975-2.559-3.571.518-8.3,3.275-15.625,9.956-21.031,1.012-.823,2.419-2.148,3.522-.642s-.658,2.444-1.662,3.225a19.817,19.817,0,0,0-7.924,16.712,13.719,13.719,0,0,1-.008,1.646c-.165,1.341.889,3.5-1.325,3.662Zm9.109-2.32a14.332,14.332,0,0,1,.247,6.056c-3.036-2.7-3-2.707-3.752-7.636-1.415-9.24,6.081-16.177,14.2-16.679,13.149-.806,19.995,7.949,27.663,16.226-2.362,1.465-3.431.033-4.616-1.086-4.567-4.312-9.125-8.59-14.918-11.347-4.435-2.106-11.4-1.769-15.025,1.456a11.939,11.939,0,0,0-3.8,13.009ZM54.4,145.6a15.445,15.445,0,0,0-5.126,10.343c-.453,6.418,1.9,11.98,4.986,17.378.675,1.185,2.139,2.946.675,3.917s-2.748-.905-3.464-2.115A37.76,37.76,0,0,1,45.8,157.04H45.8c-.23-1.679.56-4.1,1.226-6.4,1.547-5.357,9.75-11.3,14.975-7.191.93.732,2.6.905,1.942,2.526-.773,1.917-2.049.42-3.044.082-2.156-.749-4.509-2.312-6.492-.453Zm165.363,9.611c-.971,1.5-2.082.346-3.143-.255a15.4,15.4,0,0,0-4.748-2.246h0a12.97,12.97,0,0,0-9.446,1.555c-.93.551-2.353.864-3-.189-.757-1.218.56-1.917,1.407-2.551,2.37-1.777,5.208-2.238,8.08-2.88,3.258.889,6.665,1.432,9.462,3.571C219.3,152.934,220.654,153.839,219.766,155.213Z" transform="translate(-12.06 -26.614)" fill="#fff"/>
      <path id="Path_4081" data-name="Path 4081" d="M159.717,66.9c-.23,1.95.634,4.246-2.271,6.369v-6.6c-10.754-2.263-21.451-1.144-32.123.617-1.111.181-2.452.979-2.345-.741.165-2.65-3.357-4.814-.905-7.636.14-.156.592-.272.708-.181,3.11,2.584,5.941.5,8.837-.485a20.254,20.254,0,0,1,3.25.148c7.743,1.621,15.346,2.115,23.088-.56,2.222-.765,5.727-1.654,7.644,1.67,1.423,2.271,2.074-1.991,3.505-.387s.831,3.324.56,5.06c-.255,1.637-1.152,3.357-2.756,2.962-2.46-.6-4.855.675-7.208-.247h.016Zm-18.061-11.52c-2.913,0-6.056,1.16-9.339-1.851C136.242,53.042,139.088,53.362,141.656,55.378Zm16.4,36.739c.1-.856.1-1.942,1.308-1.506s2.748.848,2.756,2.584a1.631,1.631,0,0,1-1.777,1.8c-1.613-.173-2.1-1.489-2.279-2.88h0Z" transform="translate(-31.397 -19.898)" fill="#fff"/>
      <path id="Path_4082" data-name="Path 4082" d="M124.795,193.326c-.741-1.5-1.925-.8-3.135-.272a28.461,28.461,0,0,1-9.43,2.353,8.848,8.848,0,0,1,2.649,1.152,4.153,4.153,0,0,1,2.337.93,4.6,4.6,0,0,1,4.822-.922c.37-.148.749-.3,1.119-.469,1.168-.543,2.353-1.333,1.646-2.773Z" transform="translate(-29.808 -44.542)" fill="#fff"/>
      <path id="Path_4083" data-name="Path 4083" d="M186.29,115.26c-.016,2.246,1.4,2.756,3.242,2.567a3.351,3.351,0,0,0,3.135-3.217,35.545,35.545,0,0,0,0-4.081c0-.913.3-1.662,1.325-1.679,1.045-.016,1.2.823,1.4,1.662,1.1,4.838-.559,8.343-4.912,10.516-.666.337-2.3-.214-1.835,1.44.477,1.679,2.008,1.242,3.094,1.02,3.225-.666,6.7-6.64,6.369-9.94-.42-4.279-3.7-6.969-5.274-10.59-1.135-.749-2.271-1.506-3.406-2.255-3.53-.839-7.035-1.9-10.614-2.46-2.847-.444-2.863-4.419-6.188-4.3-1.16.041-2.468-.93-5-.066,4.879,1.514,7.348,5.126,11.158,6.871.395.115.79.222,1.185.337a1.966,1.966,0,0,1,2.946,1.111c1.53.337,1.917,2.008,3.127,2.707a9.661,9.661,0,0,1,1.794-.954c2.074-.576,2.9,1.423,3.555,2.493.535.88-1.308.757-2.131,1.02-1.053,2.575.272,6.048-2.962,7.792Z" transform="translate(-39.621 -27.02)" fill="#fff"/>
      <path id="Path_4084" data-name="Path 4084" d="M173.56,117.344c3.39,2.625,6.69,5.291,11.149,6.064,2.5.436.354-1.144.856-1.489a21.444,21.444,0,0,1-3.9-3.481c-2.263-2.287-4.962-4.065-8.1-1.086h0Z" transform="translate(-40.674 -30.964)" fill="#fff"/>
      <path id="Path_4085" data-name="Path 4085" d="M193.848,110.224c-.436-.329-.872-.666-1.308-1C192.548,110.117,192.655,110.882,193.848,110.224Z" transform="translate(-44.037 -29.801)" fill="#fff"/>
      <path id="Path_4086" data-name="Path 4086" d="M193.608,161.3c2.485,2.584,4.715,3.982,8.878,2.3,5.85-2.362,12.26-1.193,18.431.3.42-3.143-2.8-3.629-3.193-5.809-.058-.625-.3-1.1-1.012-1.168-1.317.1-2.65.214-3.028-1.539-1.061-.913-2.329-.765-3.579-.667a6.947,6.947,0,0,1-4.986.016c-.675.09-1.349.189-2.024.28a7.661,7.661,0,0,1-4.929,2.567c-1.522,1.234-3.044,2.477-4.567,3.711h0Z" transform="translate(-44.224 -37.848)" fill="#fff"/>
      <path id="Path_4087" data-name="Path 4087" d="M183.1,128.952c1.136.23,3.25.2,2.806,1.53-2.131,6.295,3.291,2.979,5.1,4.114.806.51,2.082.28,3.151.379,3.1-1.152,6.344-2.148,7.134-6.031-1.284-.123-1.827,1.029-2.74,1.547-3,1.711-5.809,3.094-9.125-.066-1.349-1.275-3.415-4.682-6.319-1.473H183.1Z" transform="translate(-42.364 -33.06)" fill="#fff"/>
      <path id="Path_4088" data-name="Path 4088" d="M131.637,59.31c-2.9.987-5.735,3.069-8.837.485-.115-.1-.576.016-.708.181-2.452,2.822,1.061,4.978.905,7.636-.107,1.72,1.234.922,2.345.741,10.672-1.761,21.369-2.872,32.123-.617a1.816,1.816,0,0,1,2.271.23c2.353.913,4.748-.354,7.208.247,1.6.387,2.5-1.325,2.756-2.962.272-1.736.872-3.456-.56-5.06s-2.09,2.658-3.505.387c-5.283.123-10.252,2.724-15.65,1.991-3.168,2.822-7.06.79-10.532,1.563A4.663,4.663,0,0,1,134.015,62c-1.144-.584-2.213-1.234-2.37-2.691h0Z" transform="translate(-31.4 -20.958)" fill="#fff"/>
      <path id="Path_4089" data-name="Path 4089" d="M133.88,59.07c.148,1.456,1.226,2.106,2.37,2.691,4.5.2,9,.518,13.486-.379a2.237,2.237,0,0,1,2.485.946c5.4.732,10.359-1.876,15.65-1.991-1.917-3.324-5.422-2.436-7.644-1.67-7.743,2.674-15.346,2.18-23.089.56a19.345,19.345,0,0,0-3.25-.148h-.008Z" transform="translate(-33.643 -20.718)" fill="#fff"/>
      <path id="Path_4090" data-name="Path 4090" d="M144.059,55.359c-2.567-2.016-5.414-2.329-9.339-1.851C138,56.519,141.146,55.359,144.059,55.359Z" transform="translate(-33.792 -19.895)" fill="#fff"/>
      <path id="Path_4091" data-name="Path 4091" d="M165.988,100.114c.181,1.391.675,2.7,2.279,2.88a1.634,1.634,0,0,0,1.777-1.8c0-1.736-1.539-2.139-2.756-2.584s-1.21.65-1.308,1.506h0Z" transform="translate(-39.331 -27.903)" fill="#fff"/>
      <path id="Path_4092" data-name="Path 4092" d="M167.521,69.707a1.818,1.818,0,0,0-2.271-.23v6.6C168.163,73.953,167.291,71.665,167.521,69.707Z" transform="translate(-39.201 -22.707)" fill="#fff"/>
    </g>
    <g id="Group_193" data-name="Group 193" transform="translate(-7227.827 -906.257)">
      <path id="Path_4095" data-name="Path 4095" d="M89.844,217.782h2.32V215L74.35,203.07l8.985,9.446Z" transform="translate(-74.35 -183.882)" fill="#fff"/>
      <path id="Path_4096" data-name="Path 4096" d="M101.268,204.032l3.571,1.786,1.168-2.345L83.66,179.75,93.493,194.6Z" transform="translate(-76 -179.75)" fill="#fff"/>
      <path id="Path_4097" data-name="Path 4097" d="M213.02,215v2.781h2.329l6.5-5.266,8.993-9.446Z" transform="translate(-98.919 -183.882)" fill="#fff"/>
      <path id="Path_4098" data-name="Path 4098" d="M199.377,205.817l3.563-1.786,7.784-9.43,9.825-14.852L198.2,203.472Z" transform="translate(-96.293 -179.75)" fill="#fff"/>
      <path id="Path_4099" data-name="Path 4099" d="M144.493,215.776c.272-2,.551-3.991.823-5.99q-3.1-6.554-6.2-13.116,1.185,6.406,2.378,12.8C142.494,211.571,143.5,213.67,144.493,215.776Z" transform="translate(-85.826 -182.748)" fill="#fff"/>
      <path id="Path_4100" data-name="Path 4100" d="M125.885,211.354c.074-1.448.156-2.9.239-4.353q-2.617-4.53-5.233-9.051,1.234,4.53,2.477,9.059c.839,1.448,1.687,2.9,2.526,4.345Z" transform="translate(-82.596 -182.975)" fill="#fff"/>
      <path id="Path_4101" data-name="Path 4101" d="M184.166,205.719q1.234-4.53,2.477-9.059-2.617,4.53-5.233,9.051c.082,1.448.156,2.9.239,4.353.839-1.448,1.687-2.9,2.526-4.345Z" transform="translate(-93.318 -182.746)" fill="#fff"/>
      <path id="Path_4102" data-name="Path 4102" d="M165.118,210.543q1.185-6.406,2.378-12.8-3.1,6.554-6.2,13.116c.272,2,.551,3.991.823,5.99C163.118,214.748,164.122,212.65,165.118,210.543Z" transform="translate(-89.755 -182.937)" fill="#fff"/>
      <path id="Path_4103" data-name="Path 4103" d="M172.478,229.638q5.048-5.1,10.228-10.845c5.472-6.089,10.417-12.079,14.868-17.872q-8.911,6.9-18.077,13.84-7.837,5.924-15.593,11.668,2.641-5.554,5.373-11.158,4.419-9.072,8.878-17.872a294.022,294.022,0,0,1-20.867,24.479q-1.444,1.518-2.888,3,2.172-8.208,4.336-16.424-5.838,7.751-11.668,15.494-2.937-5.789-5.883-11.569-2.222,5.986-4.443,11.98-5.838-8.368-11.668-16.728,1.345,7.233,2.682,14.457l-21.69-23.961q6.406,13.947,12.8,27.886-18.328-13.638-36.665-27.268L109.68,229Q95.844,222.081,82,215.165c3.176,2.608,9.191,7.554,10.433,8.574,6.591,5.414,8.409,6.928,11.775,8.055,2.559.856,6.525,1.67,7.438,1.86,4.147.848,3.917.51,5.99,1.037,4.188,1.053,7.57,3.028,11.569,5.373,3.374,1.975,4.353,2.863,6.2,2.682,2.3-.222,2.543-1.769,5.167-2.065,1.744-.2,2.024.444,6.4,1.242,2.287.411,3.456.617,4.336.411,2.5-.576,2.863-2.575,5.167-4.336s3.982-1.333,10.121-2.271a49.723,49.723,0,0,0,9.709-2.065c4.18-1.5,7.521-4.18,14.046-9.5,4.888-3.982,7.438-5.834,7.233-6.2-.321-.551-5,1.152-25.1,11.668Zm-10.022,3.612H121.249v-2.172h41.207Z" transform="translate(-75.705 -182.877)" fill="#fff"/>
    </g>
  </g>
</svg>
