<svg id="Component_271_1" data-name="Component 271 – 1" xmlns="http://www.w3.org/2000/svg" width="342.24" height="342.24" viewBox="0 0 342.24 342.24">
  <g id="Component_230_19" data-name="Component 230 – 19">
    <g id="Rectangle_3295" data-name="Rectangle 3295" transform="translate(171.12) rotate(45)" fill="#fff" stroke="#000" stroke-width="3">
      <rect width="242" height="242" stroke="none"/>
      <rect x="1.5" y="1.5" width="239" height="239" fill="none"/>
    </g>
    <g id="Rectangle_3296" data-name="Rectangle 3296" transform="translate(171.421 30) rotate(45)" stroke="#000" stroke-width="3">
      <rect width="200" height="200" stroke="none"/>
      <rect x="1.5" y="1.5" width="197" height="197" fill="none"/>
    </g>
  </g>
  <g id="Group_281" data-name="Group 281" transform="translate(20.101 16.9)">
    <path id="Path_3316" data-name="Path 3316" d="M76.94,127.1c.57,1.92,1.07,3.57,1.66,5.57,4.68-2.17,8.59-3.9,9.98-9.6.99-4.08,4.42-7.55,6.57-11.39,1.17-2.09,2.9-4.47,2.73-6.58-.48-5.98,3.42-8.4,6.97-11.31.38.22.76.45,1.14.67-.55,1-1.09,2-1.64,3-.88,1.58-2.86,3.55-2.45,4.67,2.13,5.94-2.05,9.59-4.31,13.98a21.331,21.331,0,0,0-1.19,4.03l1.59.93c4.19-5.86,8.57-11.59,12.53-17.6,4.62-7,4.63-15.34,5.96-23.26a7.378,7.378,0,0,0-.23-2.91c-1.49-5.74-.53-7.62,5.96-10.36-.52,1.43-.8,2.4-1.23,3.31a8.912,8.912,0,0,0-1.12,3c6.85-3.02,11-11.13,20.19-11.08-4.08,5.86-7.22,11.56-11.49,16.21-5.57,6.06-6.52,12.79-5.41,20.35.48,3.29.48,6.46-3.68,9.49.2-3.16.33-5.28.46-7.4l-1.1-.41c-2.23,4.92-4.46,9.83-7.35,16.19,2.54-1.76,3.87-2.68,6.13-4.25-.86,3.14-1.45,5.3-2.05,7.47.52.28,1.04.57,1.56.85,5.02-5.87,10.24-11.58,14.91-17.72,1.1-1.45,1.08-4.69.25-6.5-3.2-7.04-2.31-12.79,3.64-17.98a12.824,12.824,0,0,1,6.03-2.97,20.081,20.081,0,0,0-1.19,3.36,95.469,95.469,0,0,0-1.57,10.98,18.148,18.148,0,0,0,1.06,7.32c.68,1.76,2.38,4.07,3.88,4.27,1.33.18,3.78-1.92,4.36-3.51a16.2,16.2,0,0,0,.61-7.8c-.88-5.54.79-8.46,7.03-10.42-.94,3.8-7.4,6.89-1.55,11.36,1.91-3.2,4.19-6.12,5.46-9.43a14.848,14.848,0,0,0,.66-8.08c-1.67-7.55.65-14.78,6.16-18.45-1.18,14.12-3.38,28.59-.29,41.8,5.58-3.11,11.24-6.26,16.89-9.41.27.28.53.56.8.83-1.76,2.03-3.45,4.12-5.3,6.06-2.53,2.65-4.02,5.25-3.18,9.34,1.19,5.8-2.63,10.38-9.28,12.09-4.05,1.04-7.58,3.18-7.59,7.42-.01,2.65,2.38,5.33,3.79,7.94.15.28.9.24,1.72.43.61-3.81-4.39-8.71,2.53-11.66-1.68,7.27,1.01,12.07,6.36,15.26,5.04-5.43,9.66-10.4,14.28-15.37.54.47,1.08.95,1.61,1.42a93.118,93.118,0,0,1-6.93,7.62c-5.4,4.8-4.79,8.66,2.6,11.81.23-1.46.44-2.8.65-4.14l.57-.15c.33,1.91.66,3.82,1.18,6.79,3.32-3.01,3.17-5.41,1.21-8.14-1.63-2.27-3.46-4.58-.48-7.16,1.58,2.99,3.06,5.76,4.53,8.54.69-.09,1.39-.19,2.08-.28.03-2.32.94-5.14-.06-6.87-4.3-7.48-2.4-15.29-1.33-22.83.45-3.15,3.85-5.89,5.91-8.81.61.41,1.22.83,1.82,1.24a51.748,51.748,0,0,0-4.16,6.67c-.53,1.2.1,2.92.21,4.4a17.235,17.235,0,0,0,3.92-1.13c2.05-1.15,3.92-2.62,6.51-3.12-1.22,1.56-2.43,3.12-4.25,5.45h5.53c-8.38,9.1-.14,16.54.15,24.62.5.1,1.01.21,1.51.31,1.23-2.72,2.45-5.44,3.68-8.15.62.1,1.24.19,1.87.29-.09,1.83-.05,3.68-.29,5.5-.66,5.15-2.25,10.34-1.94,15.42.35,5.78,5.65,8.05,10.62,10.64.35-1.84.64-3.35.97-5.05,6.59,9.01,4.4,21.65-4.76,27.37-2.78,1.73-3.76,3.33-2.26,6.45.83,1.74.92,3.83,1.69,7.4,2.44-2.91,4.17-4.95,5.89-7,2.78,2.22,3.42,5.67-.37,8-6.98,4.28-10.84,12.78-19.88,14.23-2.97.48-4.72,6.59-3.47,10.35a11.991,11.991,0,0,0,.69,1.33c2.25,4.66,2.9,9.35-.83,13.52a12.909,12.909,0,0,1-13.61,4c-3.07-.84-4.14-.35-5.59,2.57-3.73,7.53-12.36,11.1-21.78,7.25-5.9-2.41-11.71-2.68-17.42-.31-8.61,3.59-18.98,1.44-23.12-8.2-.39-.91-3.25-1.38-4.77-1.07-9.21,1.84-17.08-4.22-15.99-12.59.13-.97.62-1.89.76-2.86.45-3.13.87-6.26,1.18-9.4.11-1.14-.43-2.4-.17-3.47,2.1-8.52-3.72-12.48-9.47-16.3-6.11-4.05-6.85-8.63-2.43-14.31.75-.96.32-3.61-.51-4.82-.81-1.18-2.85-1.5-4.35-2.2-4.82-2.28-6.1-4.84-4.55-10.02.99-3.3.97-5.67-2.16-8.2-2.99-2.42-4.5-6.08-2.59-10.32,1.97-4.38.43-8.5-1.65-12.41-1.9-3.58-.58-5.47,3.22-6.63Zm81.46-25.17-1.25-.32c-3.73,5.34-8.06,10.38-11,16.12-2.73,5.33-5.79,10.84-5.04,17.43.52,4.49,2.85,7.14,6.64,9.19,3.86,2.08,5.83-.38,8.05-2.68.26-.27.9-.16,1.34-.22,1.33,3.9,1.04,7.22-1.84,8.83-2.21,1.24-5.62,2.08-7.84,1.28-10.88-3.9-17-13.93-16.54-25.87a12.426,12.426,0,0,0-.54-2.38,18.49,18.49,0,0,0-2.76,2.55c-2.96,4.38-1.57,10.39,3.13,15.3,1.65,1.73,3.61,3.76,4.06,5.94,1.78,8.59,3.14,9.54,12.24,5.46-.84,2.89-.92,6-2.04,6.44-2.44.96-6.28,1.75-8.01.49-3.88-2.8-6.56-6.9-6.11-12.39.36-4.36-3.13-5.75-5.31-7.16-1.63,3.39-3.28,6.04-4.14,8.93-.53,1.79-.49,4.37.47,5.8.93,1.38,3.34,1.85,5.18,2.49.72.25,1.66-.13,2.81-.26-3.51,6.3-6.53,6.75-10.92,2.37-3.77-3.77-3.86-7.66-1.61-12.25,1.25-2.56,1.71-5.5,2.52-8.27-.63-.27-1.26-.54-1.9-.81-.81,1.02-2.39,2.11-2.31,3.04.43,4.66-2.59,6.22-5.9,8.2a7.336,7.336,0,0,0-2.96,5.55c.16,4.87,2.27,8.9,7.12,11.13,1.75.81,3.14,2.41,4.7,3.65-5.94.85-12.33-4.05-16.3,2.24a10.942,10.942,0,0,0,.27,12.56c2.33-4.78,4.19-8.58,6.04-12.38,2.99,4.74,2.65,8.84.16,12.68-5.2,8.03-4.47,15.66,1.23,23.1.66.86.91,2.03,1.68,3.83-2.66-1.06-4.25-1.7-6.18-2.47-.21,1.47-.36,2.42-.49,3.38-.61,4.47,1.47,8.8-1.11,13.6-2.64,4.92.87,9.89,6.08,10.86,6.09,1.13,8.73-.94,9.46-7.42.13-1.16.14-2.33.32-3.48.44-2.93,1.75-3.75,4.42-1.97,3.77,2.52,4.36,5.23,1.72,9.16-3.45,5.14-3.17,6.46.28,9.57,2.79-7,15.24-14.65,21.88-13.16a21.39,21.39,0,0,0-2.63,2.33c-1.67,2.06-1.28,11.03.98,12.12,1.46.7,3.88-.59,6.43-1.11.64.49,1.88,1.43,3.1,2.37,5.33-6.39,5.32-10.21.37-16.46,3.82,2.17,8.25.85,12.37,4.78,3.21,3.07,7.63,4.92,9.64,9.9,1.13-2.19,2.14-4.37,1.83-6.34-.31-2-2.29-3.71-2.83-5.73-.45-1.69-.51-4.11.4-5.38.98-1.36,3.3-1.74,5.04-2.55.61,1.62,1.28,3.21,1.8,4.86a11.928,11.928,0,0,1,.28,2.48c.45,4.71,2.41,6.4,7.12,6.13,7.79-.44,10.62-5.66,7.29-12.76-.95-2.03-.96-4.62-.93-6.95a75.746,75.746,0,0,1,1-8.37c-2.72.78-4.17,1.19-6.71,1.91,1.43-2.48,2.31-3.99,3.17-5.51,3.1-5.5,4.73-11.7,1.33-17.06-4.27-6.73-4.13-13.75-4.18-21.01-.03-3.19-1.01-4.67-4.64-3.08-2.38,1.05-5.15,1.05-6.48-2.41,7.61.04,12.15-3.95,13.64-10.67.87-3.92,2.92-7.58,4.37-11.38.63-1.65,1.11-3.37,1.66-5.05l-1.97-.72c-2.05,5.32-4.35,10.56-6.08,15.98-1.81,5.64-7.73,8.87-11.07,5.45-1.47-1.51-2.12-3.83-3.64-6.73q9.18,5.49,11.01.78c-4.14-2.69-8.32-5.35-12.44-8.1-2.15-1.44-3.91-2.06-6.01.38-.88,1.02-2.95,1.01-5.52,1.79,1.04-2.73,1.59-4.17,2.26-5.92-5.24-2.52-9.98-4.98-15.89-3.99-5.05.85-6.94-.71-6.95-5.74a14.146,14.146,0,0,1,2.19-7.17c2.22-3.49,5.42-6.36,7.59-9.87,1.64-2.65,2.32-5.89,3.42-8.86ZM130.92,239.9c-.93,3.73.08,6.39,3.77,8.9,2.35-.67,4.25-1.12,6.07-1.79.84-.31,2.16-1.02,2.17-1.58.07-3.08.33-6.32-.49-9.22-.91-3.2-3.19-3.21-5.59-.84a63.251,63.251,0,0,1-5.92,4.52Zm82.83-52.45c-2.19,3.37-4.6,6.68-6.54,10.24-.91,1.68-.91,3.87-1.53,6.78,9.79-5.25,11.83-10.83,8.07-17.03ZM104.12,133.28c-.44.21-.88.41-1.31.62,1.09,2.03,2.17,4.06,3.26,6.09,1.58-.86,3.62-1.36,4.64-2.66a53.764,53.764,0,0,0,5.09-8.49c.42-.8.06-2,.06-3.02a13.583,13.583,0,0,0-4.09,5.17c-2.45,5.21-3.07,5.42-7.65,2.28Zm56.66,114.2c4.67-2.29,7.95-8.53,6.72-11.13a5.449,5.449,0,0,0-3.2-2.62c-.62-.16-2.34,1.41-2.5,2.37C161.24,239.5,161.14,242.98,160.78,247.48ZM81.31,146.4c.39-.09.78-.19,1.17-.28.9,1.73,1.79,3.46,2.74,5.3,4.45-4.6,3.73-6.16-4.22-9.33-1.06,3.51-5.42,6.38-.77,11.7.45-3.09.77-5.24,1.08-7.38Zm13.52-11.57c-2.75,5.32-2.95,9.94.35,15.02C100.4,144.43,96.21,139.98,94.83,134.83Zm114.42,12.63c-3.33,3.71-6.84,7.63-10.34,11.53C207.81,157.03,211.64,152.3,209.25,147.46Zm10.28,15.94-1.34.3q-1.935,5.04-3.86,10.07c.32.38.64.75.97,1.12,1.69-1.56,4.13-2.83,4.84-4.75s-.33-4.47-.61-6.74Zm-48.52,73.99c-1.13,3.28-2.21,6.04-2.91,8.9-.09.37,2.1,1.98,2.75,1.73,2.83-1.06,3.33-7.31.15-10.63Zm28.5-63.88c-.6.21-1.21.42-1.81.63.8,3.25,1.52,6.52,2.46,9.73.15.52,1.29.96,2.01,1.03.42.04,1.38-.88,1.3-1.12-1.06-3.53-.56-7.81-3.97-10.27ZM95.91,152.42c-.53-.13-1.06-.27-1.59-.4-.83,1.9-2.4,3.87-2.25,5.69.13,1.49,2.31,2.8,3.59,4.19.44-.29.89-.58,1.33-.88l-1.08-8.61Zm17.15-32.39-2.17-.54-2.64,9.09c.69.2,1.38.4,2.08.6l2.73-9.15Zm-22.35,64.8c-.2,5.6,1.6,7.49,6.59,7.25-2.18-2.4-4.01-4.41-6.59-7.25Z" fill="#fff"/>
    <path id="Path_3317" data-name="Path 3317" d="M168.56,80.05c1.11.83,2.22,1.66,4.73,3.53,1.07-4.64,1.93-8.34,2.74-11.85,2.93,3.81,3.51,9.02.67,11.88-1.44,1.45-4.13,3.08-5.66,2.62-1.68-.5-2.67-3.31-3.96-5.11.49-.36.99-.71,1.48-1.07Z" fill="#fff"/>
    <path id="Path_3318" data-name="Path 3318" d="M156.55,170.17c-.96,2.32-2.04,3.64-1.9,4.81.57,4.54.8,9.34,2.51,13.48,2.66,6.46,4.69,6.41,9.25.95,4.3-5.15,12.55-6.57,17.98-2.67,1.4,1.01,2.83,3.78,2.41,5.19-1.66,5.49-5.31,9.64-11,11.26-2.02.58-4.35.09-6.7.09,1.32,4.94,2.48,6.11,6.15,6.7,6.66,1.06,11.78-1.75,15.57-6.85,4.19-5.64,3.38-16.8-1.51-18.93-7.57-3.3-15.3-6.34-23.98-5.64-1.96.16-4.32-1.6-6.07-3.01-1.11-.89-1.45-2.76-2.7-5.38Zm-21.68,32.1c-7.96,3.05-12.89-.72-16.83-6.45-3.7-5.37-2.16-9.14,4.14-10.62,6.64-1.56,12.18.16,16.33,5.73,2.5,3.35,5.26,3.33,6.79-.4a72.689,72.689,0,0,0,3.7-13.62c.3-1.54-.8-3.35-1.6-6.24-2.8,4.26-3.4,8.95-8.61,8.12-7.96-1.26-15.05,1.88-22.18,4.56-3.91,1.47-5.94,4.64-6.24,8.86a17.713,17.713,0,0,0,11.04,17.36c6.86,2.57,12.96-.39,13.45-7.3Zm17.51,17.92c1.63.76,3.4,1.58,5.17,2.4.86-2.18,2.94-4.78,2.37-6.48-1.8-5.34-4.6-10.34-7.01-15.47l-1.58.02c-2.1,4.18-4.07,8.43-6.33,12.51-1.88,3.38-1.86,6.72,1.15,8.87,1.05.75,3.97-1.12,6.24-1.86ZM129.6,188.28c-.75-.02-1.49-.05-2.24-.07-1.52,1.99-4.36,4.11-4.19,5.94.19,1.96,3.17,4.99,5.02,5.07,1.79.07,4.93-2.85,5.22-4.8.27-1.82-2.43-4.07-3.82-6.13Zm47.15.25c-.76-.03-1.52-.05-2.28-.08-1.43,1.98-4.01,4-3.95,5.94.05,1.77,3.16,4.99,4.57,4.81,2.12-.27,5.1-2.7,5.52-4.68.35-1.65-2.46-3.97-3.87-5.99Z" fill="#fff"/>
    <path id="Path_3319" data-name="Path 3319" d="M156.55,170.17c1.26,2.62,1.59,4.49,2.7,5.38,1.75,1.41,4.11,3.17,6.07,3.01,8.68-.7,16.41,2.33,23.98,5.64,4.89,2.13,5.7,13.3,1.51,18.93-3.79,5.1-8.91,7.91-15.57,6.85-3.67-.59-4.84-1.76-6.15-6.7,2.35,0,4.68.49,6.7-.09,5.7-1.63,9.35-5.77,11-11.26.42-1.41-1.01-4.18-2.41-5.19-5.43-3.9-13.68-2.48-17.98,2.67-4.56,5.46-6.59,5.51-9.25-.95-1.71-4.15-1.94-8.94-2.51-13.48-.15-1.17.93-2.49,1.9-4.81Z" fill="#fff"/>
    <path id="Path_3320" data-name="Path 3320" d="M134.88,202.27c-.49,6.91-6.59,9.87-13.45,7.3a17.713,17.713,0,0,1-11.04-17.36c.3-4.21,2.33-7.38,6.24-8.86,7.13-2.69,14.22-5.83,22.18-4.56,5.21.83,5.81-3.86,8.61-8.12.79,2.89,1.9,4.7,1.6,6.24a72.9,72.9,0,0,1-3.7,13.62c-1.53,3.73-4.29,3.75-6.79.4-4.15-5.57-9.69-7.28-16.33-5.73-6.3,1.48-7.84,5.25-4.14,10.62,3.95,5.73,8.88,9.51,16.83,6.45Z" fill="#fff"/>
    <path id="Path_3321" data-name="Path 3321" d="M152.38,220.19c-2.27.74-5.19,2.61-6.24,1.86-3.01-2.15-3.03-5.49-1.15-8.87,2.27-4.08,4.24-8.33,6.33-12.51l1.58-.02c2.41,5.13,5.21,10.13,7.01,15.47.57,1.7-1.5,4.29-2.37,6.48-1.77-.82-3.54-1.64-5.17-2.4Z" fill="#fff"/>
    <path id="Path_3322" data-name="Path 3322" d="M129.6,188.28c1.39,2.06,4.09,4.32,3.82,6.13-.29,1.94-3.43,4.87-5.22,4.8-1.86-.07-4.84-3.11-5.02-5.07-.17-1.83,2.67-3.95,4.19-5.94.75.02,1.49.05,2.24.07Z" fill="#fff"/>
    <path id="Path_3323" data-name="Path 3323" d="M176.75,188.53c1.41,2.02,4.21,4.34,3.87,5.99-.42,1.98-3.4,4.41-5.52,4.68-1.41.18-4.52-3.04-4.57-4.81-.06-1.94,2.52-3.96,3.95-5.94.76.03,1.52.05,2.28.08Z" fill="#fff"/>
  </g>
</svg>
