<svg id="stealth-charm" xmlns="http://www.w3.org/2000/svg" width="60" height="60" viewBox="0 0 60 60">
  <rect id="Rectangle_3324" data-name="Rectangle 3324" width="60" height="60" fill="none"/>
  <g id="Layer_1-2" transform="translate(13 10)">
    <path id="Path_2868" data-name="Path 2868" d="M2.846,13.716a5.114,5.114,0,0,1-.717.18c-.481.051-.65-.171-.476-.631a13.159,13.159,0,0,1,1.2-2.772,9.7,9.7,0,0,0,.882-3.6A8.638,8.638,0,0,1,6.449,1.672,7.007,7.007,0,0,1,10.482.085,24.207,24.207,0,0,1,13.966.04c3.994.141,6.844,2.17,8.9,5.477A.855.855,0,0,1,23.027,6c-.124,1.107.642,1.344,1.463,1.576q4.443,1.258,8.875,2.545a1.552,1.552,0,0,1,1.081,2.289c-.6,1.6-1.187,3.2-1.719,4.818-1.03,3.141-2.026,6.3-3.025,9.449-.744,2.352-1.461,4.71-2.211,7.06q-.915,2.861-1.885,5.7c-.23.676-.823.858-1.635.614-1.942-.582-3.882-1.165-5.837-1.7Q11.5,36.522,4.857,34.734c-1.26-.342-2.531-.652-3.787-1.013-1.2-.345-1.32-.856-.732-1.973a11.886,11.886,0,0,0,.739-2.219c.94-3.2,1.864-6.41,2.8-9.613q1.789-6.1,3.595-12.194c.288-.975.568-1.951.866-2.924.432-1.416.975-1.644,2.39-1.215C13.175,4.323,15.64,5,18.1,5.7a6.108,6.108,0,0,0,.833.242,5.581,5.581,0,0,0,.87-.009c-.1-.309-.1-.734-.312-.907a19.389,19.389,0,0,0-2.993-2.216,8.26,8.26,0,0,0-7.47-.3,5.956,5.956,0,0,0-2.42,2.6A57.554,57.554,0,0,0,4.2,10.688a.812.812,0,0,0,.051.65,1.452,1.452,0,0,1-.005,1.708c-.155.255-.11.624-.232.91a5.077,5.077,0,0,1-.511.784c-.174-.232-.35-.46-.518-.7a2.081,2.081,0,0,1-.138-.335Zm17.433,6.8c-.588-.258-1.072-.425-1.511-.673a2.667,2.667,0,0,1-1.5-2.465,2.854,2.854,0,0,1,1.857-2.618,2.341,2.341,0,0,1,2.688.335c.309.267.659.486,1.044.767.169-1.307-1.316-2.978-2.983-3.527a4.534,4.534,0,0,0-5.049,2.01,4.2,4.2,0,0,0,.856,5.451c1.355,1.2,3.45,1.6,4.6.722Zm-4.4,12.4c1.036-1.248.2-3.609-1.625-4.384.023.323-.049.635.073.821.479.739.019,1.32-.378,1.775-.687.788-.614,1.36.425,1.857l.439-.737,1.065.669Zm2.828-3.131c.051-.092.1-.187.15-.279.37-.031.793-.2,1.1-.07.659.272.947.2.927-.513a5.249,5.249,0,0,0-.343-2.122,6.722,6.722,0,0,0-1.44-1.5l-.284.228c.085.253.178.5.251.758.051.178.167.417.1.533-.289.478-.661.9-.954,1.381a.887.887,0,0,0-.129.676,5.074,5.074,0,0,0,.628.91Zm-5.671-5.713c-.439.574-.887,1.147-1.316,1.736-.047.065,0,.239.056.328.223.35.467.685.781,1.14.347-.83.729-.978,1.3-.427.087.084.682-.157.676-.218a10.092,10.092,0,0,0-.377-2.713c-.2-.544-.9-.9-1.379-1.344l-.263.22c.166.406.331.812.521,1.276ZM19.744,3.4l-.122.106q.915,1.185,1.829,2.371c.089-.075.176-.15.265-.223Q20.73,4.526,19.742,3.4Z" transform="translate(0.004 0)" fill="#fff"/>
  </g>
</svg>
