<svg id="Component_315_1" data-name="Component 315 – 1" xmlns="http://www.w3.org/2000/svg" width="342.24" height="342.24" viewBox="0 0 342.24 342.24">
  <g id="Component_230_35" data-name="Component 230 – 35">
    <g id="Rectangle_3295" data-name="Rectangle 3295" transform="translate(171.12) rotate(45)" fill="#fff" stroke="#000" stroke-width="3">
      <rect width="242" height="242" stroke="none"/>
      <rect x="1.5" y="1.5" width="239" height="239" fill="none"/>
    </g>
    <g id="Rectangle_3296" data-name="Rectangle 3296" transform="translate(171.421 30) rotate(45)" stroke="#000" stroke-width="3">
      <rect width="200" height="200" stroke="none"/>
      <rect x="1.5" y="1.5" width="197" height="197" fill="none"/>
    </g>
  </g>
  <g id="Layer_1-2" transform="translate(661.995 94.983)">
    <g id="Group_151" data-name="Group 151" transform="translate(-610.995 -48.14)">
      <path id="Path_3698" data-name="Path 3698" d="M39.657,133.673c1.834,2.672,3.3,4.817,4.77,6.962.273-.094.546-.179.818-.273-.611-1.693-.913-3.613-1.91-5.033-1.966-2.813-1.195-4.629,1.12-6.8,1.778-1.665,2.869-4.064,4.262-6.134.63.4,1.251.781,1.882,1.176q7.86,15.636,15.711,31.271l1.317-.63c-1.43-3.377-2.9-6.745-4.3-10.141-2.907-7.075-5.663-14.215-8.721-21.233-1.167-2.681-.442-4.092,1.628-5.974,4.111-3.744,7.79-7.968,12.239-12.606,3.763,8.674,7.159,16.482,10.546,24.291L80.477,128c-1.571-5.137-3.1-10.273-4.723-15.391-.9-2.832-2.342-5.541-2.832-8.42a8.005,8.005,0,0,1,1.4-5.334c1.562-2.239,3.086-1.552,3.895.969C83.5,116.2,88.963,132.515,94.062,148.951c9.69,31.233,19.173,62.523,28.769,93.785,1.853,6.049,3.876,12.051,6.068,18.815-1.421-.734-2.455-1-3.1-1.646q-24.342-24.483-48.609-49.052c-13.011-13.114-26.1-26.144-39.051-39.315a35.551,35.551,0,0,1-4.582-6.472c-2.6-4.224-5.127-8.486-7.5-12.841-.659-1.214-1.411-3.471-.856-4.074,4.534-4.864,9.361-9.455,14.469-14.488Zm23.82-8.975c-.687.263-1.374.536-2.051.8,9.116,25.617,18.59,51.074,31.939,74.923.517-.216,1.025-.433,1.543-.649Q79.2,162.234,63.487,124.688Z" transform="translate(-25.005 -29.163)" fill="#fff"/>
      <path id="Path_3699" data-name="Path 3699" d="M169.528,260.173q26.106-79.984,52.062-159.479l1.778-.254c.593,5.325,7.3,5.9,7.733,11.6.075,1.007,2.5,2.427,3.979,2.606,4.064.5,4.074,2.512,2.785,5.522q-6.364,14.874-12.653,29.775c-.847,2-1.562,4.055-2.333,6.087.48.245.96.48,1.439.724l18.176-35.9h1.75c.32,1.562,1.4,3.481.847,4.6-9.464,19.154-19.229,38.167-28.712,57.321-4.008,8.091-7.536,16.416-11.233,24.667-.348.781-.32,1.731.6,3.039q21.012-42.137,42.08-84.4c3.377,1.524,4.478,2.785,2.39,5.626-2.644,3.6-4.939,7.479-7.225,11.336-.555.95-.452,2.286-.659,3.443l1.289.659c3.34-5.071,6.689-10.141,10.348-15.683,2.361,2.239,4.741,4.026,6.425,6.322.593.809-.141,3.076-.875,4.318-10.527,17.762-21.167,35.458-31.76,53.172-.357.6-.6,1.27-.9,1.91l1.016.593c11.713-18.749,23.416-37.49,35.759-57.246,3.829,4.28,7.5,8.006,10.574,12.164.546.734-.931,3.641-2.145,4.892-9.953,10.226-20.057,20.3-30.133,30.406q-26.205,26.276-52.429,52.551c-6.134,6.162-12.2,12.39-18.336,18.561a8.206,8.206,0,0,1-1.665,1.072ZM194.261,221c-.433-.179-.856-.357-1.289-.536L185.634,238.3l1.157.48Q190.531,229.89,194.261,221Z" transform="translate(-33.564 -29.337)" fill="#fff"/>
      <path id="Path_3700" data-name="Path 3700" d="M134.207,249.026q0-12.376,0-24.742.056-37.607.122-75.2c.019-23.98-.094-47.951.066-71.931.028-4.036-1.007-5.748-5.268-5.447a94.772,94.772,0,0,1-12.973-.085c-1.138-.075-2.183-1.468-3.274-2.258,1.082-.969,2.126-2.728,3.255-2.785,5.983-.282,11.976-.132,18.806-.132,0-7.761-.263-15.212.141-22.635a14.135,14.135,0,0,1,3.048-7.771c3.161-3.82,7.046-7.028,11.327-11.176,4.074,4.309,8.363,8.41,12.051,12.983,1.3,1.609,1.515,4.375,1.609,6.642.216,5.325.056,10.659.047,15.984-.009,5.861.038,5.917,6.115,5.927,4.074,0,8.175-.245,12.211.113,1.411.122,2.691,1.731,4.036,2.662-1.374.875-2.7,2.39-4.139,2.512a75.6,75.6,0,0,1-12.211.038c-4.121-.32-5.362,1.091-5.344,5.287.16,37.151.094,74.311.094,111.462,0,5.8-.32,11.618.066,17.395.527,7.9-1.976,14.8-5.964,21.327a70.184,70.184,0,0,1-22.174,22.324c-.546-.169-1.091-.339-1.637-.5Zm4.826-9.21,1.336,1c2.954-3.1,6.106-6.021,8.806-9.323,5.842-7.131,10.433-14.723,9.69-24.639-.508-6.726-.113-13.519-.113-20.274.009-34.949.066-69.89-.066-104.839,0-1.533-1.7-3.067-2.615-4.591-1.035,1.383-2.982,2.766-2.982,4.158-.141,40.1-.263,80.2.047,120.305.085,10.189-.969,19.549-9.775,25.956-4.61,3.349-4.45,7.667-4.328,12.258ZM157.877,39.254c-3.5-2.888-6.087-6.7-8.589-6.642-2.606.056-5.127,3.838-7.7,6,2.3,2.145,4.544,5.908,6.943,6.012,2.719.122,5.579-3.039,9.332-5.372Zm-1.242,19.079c-6.708-7.536-10.885-7.366-14.4,0ZM138.723,64.09c4.713,3.34,16.153,3.283,20.321,0Zm19.286,8.279H138.619C142.514,75.652,154.311,75.7,158.009,72.369Z" transform="translate(-30.21 -24.86)" fill="#fff"/>
      <path id="Path_3701" data-name="Path 3701" d="M218.555,93.527c-.216,3.876.367,8.025-.8,11.6-4.977,15.3-10.452,30.424-15.8,45.6a4.611,4.611,0,0,1-2.86,2.822L216.316,93.32Z" transform="translate(-35.317 -28.915)" fill="#fff"/>
      <path id="Path_3702" data-name="Path 3702" d="M195.689,132.874Q200.346,107.092,205,81.32c.536-.16,1.072-.32,1.6-.48.546,1.628,1.8,3.4,1.515,4.873-2.06,10.885-4.356,21.722-6.736,32.532-1.1,5-2.559,9.906-3.857,14.864-.611-.075-1.223-.16-1.844-.235Z" transform="translate(-35.114 -28.176)" fill="#fff"/>
      <path id="Path_3703" data-name="Path 3703" d="M97.226,124.145c-1.4-4.525-2.86-9.031-4.177-13.585C91.224,104.276,89.342,98,87.856,91.633c-.348-1.505.753-3.359,1.185-5.043.6.113,1.2.216,1.806.329q3.979,18.345,7.949,36.68c-.517.179-1.044.367-1.562.546Z" transform="translate(-28.724 -28.516)" fill="#fff"/>
    </g>
  </g>
</svg>
