<svg id="Component_294_1" data-name="Component 294 – 1" xmlns="http://www.w3.org/2000/svg" width="340" height="340" viewBox="0 0 340 340">
  <g id="Component_223_10" data-name="Component 223 – 10">
    <g id="Ellipse_834" data-name="Ellipse 834" fill="#fff" stroke="#000" stroke-width="3">
      <circle cx="170" cy="170" r="170" stroke="none"/>
      <circle cx="170" cy="170" r="168.5" fill="none"/>
    </g>
    <circle id="Ellipse_835" data-name="Ellipse 835" cx="150" cy="150" r="150" transform="translate(20 20)"/>
  </g>
  <g id="Layer_1-2" transform="translate(9.06 6.158)">
    <g id="Group_161" data-name="Group 161">
      <path id="Path_3732" data-name="Path 3732" d="M182.4,154.9c4.95-7.14,12.55-8.55,20.29-4.65,1.32.67,2.8,1.55,4.16,1.49,14.34-.67,20.13,17.08,13.01,28.25-3.44,5.4-8.86,6.17-14.34,6.26-2.79.05-5.16-1.8-5-6.41a44.139,44.139,0,0,0,4.25,2.21c1.5.57,3.15,1.4,4.63,1.24,6.31-.7,10.64-8.14,9.76-16.36-.75-6.98-5.71-11.53-12.05-11.45a9.945,9.945,0,0,1-5.45-1.59c-3.8-2.61-7.67-3.52-11.67-1.06a20.008,20.008,0,0,0-9.47,13.99c2.02-.48,3.45-1.71,5.11-2.24,3.91-1.25,7.93-2.98,11.88-2.91,2.06.04,4.86,3.16,5.81,5.51.64,1.58-1.35,4.24-2.16,6.42-.4-.45-.81-.9-1.21-1.34l-5.29-4.82c-2,2.24-4.79,4.16-5.83,6.77-1.78,4.49.17,8.78,3.94,11.45,3.75,2.66,8.04,4.58,12.22,6.58,2.62,1.25,5.51,2.97,8.21,2.86,6.61-.27,12.2-5.77,14.09-12.32.58-1.98,1.46-4.26,2.94-5.54,8.56-7.39,9.11-13.66,2.24-22.64a70.415,70.415,0,0,1-14.72-40.71c-.3-7.28,4.43-13.43,11.44-15.96,5.08-1.84,14.84.85,18.24,5.29.93,1.21,1.91,3.35,1.45,4.5-1.75,4.39-3.47,9.02-6.35,12.66-2.85,3.6-7.59,3.88-11.26.94-1.72-1.38-2.08-4.45-3.06-6.75,1.81-.43,3.63-.85,5.44-1.32.28-.07.49-.39,1.97-1.66-2.79-1.42-5.31-3.78-7.13-3.32s-3.39,3.56-4.21,5.82c-.54,1.49.2,3.6.75,5.31,1.28,3.96,2.8,7.84,4.21,11.76,2.35,6.56,4.59,7.81,11.2,5.54,2.29-.79,4.21-2.6,6.39-3.78,2.28-1.23,4.56-2.67,7.03-3.29,5.39-1.34,8.97-4.71,9.31-10.26.42-6.9-.13-13.64-4.59-19.51a6.84,6.84,0,0,1-.99-4.59c1.56-11.9-5.34-20.69-17.38-21.89-1.54-.16-3.07-.33-4.9-.53,3.97-6.88,3.51-10.35-1.75-12.21-2.5-.87-5.86-1.26-8.15-.28-3.54,1.52-6.49,4.41-9.69,6.71q-2.34,1.68-4.7,3.34l-1.38-1.6a74.323,74.323,0,0,1,5.42-5.78c5.3-4.6,4.93-13.32-.86-17.19-12.99-8.67-27.95-3.53-32.92,11.26a19.472,19.472,0,0,1-2.15,3.63c-.58-.27-1.15-.54-1.73-.81.24-4.82,1.63-9.36,5.47-12.79,2.65-2.37,2.27-4.24.41-6.8a19.876,19.876,0,0,0-21.13-7.41c-1.69.45-3.82.74-5.32.1-6.37-2.74-11.84-.24-17.04,2.8-6.1,3.56-6.55,7.43-2.54,13.1,2.39,3.38,4.37,7.05,2.45,11.54a6.406,6.406,0,0,1-2.53-3.39c-2.65-9.61-9.59-14-18.85-15.39-6.17-.93-15.87,3.49-17.59,8.29-2.26,6.32.48,11.21,5.31,15.34,1.14.98,1.66,2.67,2.47,4.04-.4.35-.81.7-1.22,1.05-1.48-1.1-3-2.16-4.43-3.31-2.33-1.87-4.44-4.05-6.93-5.67-3.95-2.57-8.38-2.91-12.21-.1-1.72,1.26-3.63,4.37-3.16,5.98.58,1.99,3.31,3.95,5.52,4.7,2.39.81,5.27.12,7.93.24,7.54.34,14.62,4.73,16.32,10.29-.86,0-1.96.33-2.33-.05-6.44-6.68-15.31-6.64-23.45-8.73-11.8-3.03-28.64,8.6-23.77,21.26.53,1.37-.11,3.74-1.05,5.03-4.07,5.62-4.89,11.99-4.59,18.55.3,6.73,4.44,10.43,11.15,11.12,2,.21,4.59.84,5.71,2.24,3.54,4.41,8.24,5.61,13.33,5.49a6.465,6.465,0,0,0,4.77-3.02,99.3,99.3,0,0,0,5.26-14.02c.79-2.63,1.42-5.66.83-8.21-.4-1.71-3.08-4.06-4.69-4.03-1.91.04-3.76,2.35-5.46,3.55,2.92,1.47,6.01,2.05,6.4,3.4.99,3.47-1.29,5.86-4.58,7.24-3.91,1.64-7.62.74-10.03-2.22a82.484,82.484,0,0,1-7.85-12.59c-.41-.75.4-2.56,1.13-3.49a17.955,17.955,0,0,1,23.41-4.31c6.02,3.49,8.82,8.6,8.62,15.7-.45,15.93-8.45,28.39-17.98,40.17-5.06,6.25-5.31,16.31.56,19.59,3.91,2.18,5.07,4.71,5.86,8.69,1.29,6.45,11.08,12.95,16.33,11.27a89.994,89.994,0,0,0,12.5-4.73,35.99,35.99,0,0,0,8.95-6.2c3.4-3.29,4.34-7.7,1.88-11.9-1.19-2.05-3.74-3.3-5.67-4.91-1.25,1.74-2.48,3.48-3.75,5.2-.17.24-.54.33-1.14.68-2.91-1.17-4.22-3.48-3.45-6.59.84-3.37,3.06-5.8,6.81-5.31,4.17.55,8.26,1.69,12.47,2.59-.83-6.01-6.83-12.96-11.96-12.23-6.77.97-13.87,2.6-19.78,5.85-7.08,3.88-7.52,16.22-1.93,22.15,3.79,4.03,7.1,4.43,11.8,1.61.91-.55,2.13-.56,3.71-.94-1.68,4.67-3.28,6.01-6.5,6.07-9.17.18-15.72-6.31-16.19-16.04-.51-10.48,5.22-17.79,14.53-18.62a13.675,13.675,0,0,0,4.33-.93c11.08-4.96,18.21-3.38,23.78,7.39,5.56,10.74,11.03,21.93,13.87,33.57,3.57,14.62,4.4,29.91,6.46,44.91.26,1.89.84,3.74,1.51,6.66a13.923,13.923,0,0,0,1.39-2.56c.29-2.14.64-4.29.72-6.45.83-22.16,5.37-43.64,12.28-64.6a59.649,59.649,0,0,1,7.87-14.93Zm31.16-79c5.06-3.08,10.5-5.06,16.84-2.72-7.58,3.16-14.65,6.12-21.95,9.17C207.87,78.61,211.22,77.32,213.56,75.9Zm-44.61,63.04c-.83-1.41.22-2.4.67-4.07.43-1.57.39-1.42.26-2.28.08-.37,1.32-1.68,2.21-1.38,0,0,.38-.14.96.81a4.649,4.649,0,0,1,.78,3.34,16.668,16.668,0,0,1-.86,1.7,7.618,7.618,0,0,1-4.01,1.88Zm-4.09-.99a3.909,3.909,0,0,1-.55-2.83l.19-5.43a2.533,2.533,0,0,1,2.22-1.39,2.57,2.57,0,0,1,2.14.69c.68.88.46.97.57,2.85-.32,4.24-.97,5.19-.97,5.19-.04.38-1.45,1.69-1.83,1.65a.41.41,0,0,1-.11-.01,10.235,10.235,0,0,1-1.66-.7Zm20.42-5.75a6.509,6.509,0,0,1-3.42-1.07,7.785,7.785,0,0,1-1.37-1.07l-.76-7.7a4.691,4.691,0,0,0-1.6.47,6.44,6.44,0,0,0-2.03,1.39,3.348,3.348,0,0,0-.99,2.47,2.621,2.621,0,0,1,.26.62c.03.11.08.22.12.35a6.613,6.613,0,0,0-.3,1.3c-.2,1.97,1.3,5.16.46,5.83-.33.26-.65.54-.98.83a6.185,6.185,0,0,0,.59-2.22,1.434,1.434,0,0,0-.83-.37.671.671,0,0,0-.28.06h-.03v.01a.345.345,0,0,1-.18.05c-.16,0-.33-.16-.75-.97a1.1,1.1,0,0,0-.03-1.07,1.554,1.554,0,0,0-1.33-.58,2.129,2.129,0,0,0-1.84.96c-.09.11-.15.16-.18.16-.07,0-.08-.17-.09-.45a4,4,0,0,0-1.92-3.59,1.637,1.637,0,0,0-.38-.04,4.538,4.538,0,0,0-2.09.79,2.255,2.255,0,0,1-.68.33h0c-.11,0-.21-.2-.35-.48a5.493,5.493,0,0,0-.39-.71,2.455,2.455,0,0,0-2.18-1.19h-.11a2.681,2.681,0,0,0-1.99,1.11,5.975,5.975,0,0,0-.69,1.1,2.713,2.713,0,0,0-.5-1.04,2.8,2.8,0,0,0-2.35-1.04,4.884,4.884,0,0,0-.93.09,2.282,2.282,0,0,0-1.37,1.38,5.716,5.716,0,0,0-.37,1.15,4.354,4.354,0,0,0-2.76-1.44,2.415,2.415,0,0,0-1.37.43,2.332,2.332,0,0,0-1.16,1.76,6.991,6.991,0,0,0-.15,1.36,5.578,5.578,0,0,0-2.35-1.01.9.9,0,0,0-.55.17,2.968,2.968,0,0,0-.76,2.13.749.749,0,0,1-.02.21s-.15.08-.34.19a10.651,10.651,0,0,0-1.3.78c-.16.38.3,1.33.75,2.26.08.16.14.33.22.5a4.413,4.413,0,0,1-2.11-2.35c-.38-1.31.96-3.04,1.12-4.61a10.617,10.617,0,0,0,0-1.87,2.033,2.033,0,0,0,.23-1.67,4.384,4.384,0,0,0-2.27-2.88,7.581,7.581,0,0,0-2.3-.89,17.228,17.228,0,0,0-.42,5.16,4.051,4.051,0,0,1-1.2,3.63,4.155,4.155,0,0,1-3.38,1.34,7.139,7.139,0,0,1-2.06-.31c-2.98-1.21-3.42-3.7-2.47-7.01a15.586,15.586,0,0,0,.28-3.76,1.213,1.213,0,0,0,.05-.68,4.793,4.793,0,0,1,.44-1.71,10.123,10.123,0,0,0,1.12-5.08c1.3.78,2.6,1.71,2.62,1.73-.36-.61-.86-1.29-1.44-2.07-.48-.63-.94-1.29-1.39-1.95a63.078,63.078,0,0,1-1.14-7.05c0-.13.02-.26.03-.39a9.343,9.343,0,0,1-1.05-2.21,19.075,19.075,0,0,1,2.12-4.05,8.935,8.935,0,0,0,1.46-2.91c.37-2.35.02-5.12-.52-5.76a.3.3,0,0,0-.23-.13.149.149,0,0,0-.09.02,62.842,62.842,0,0,0-3.87,8.4c-1.66-7.33,3.59-18.32,11.9-24.14,14.47-10.12,24.3-9.79,37.94-1.47,9.23,5.63,15.45,17.32,14.04,25.92a63.836,63.836,0,0,0-4.11-8.76.1.1,0,0,0-.07-.06c-.14,0-.31.61-.45,1.58-.31,2.16-.47,6.77.99,7.2a6.8,6.8,0,0,1,1.2,1.96c.14.31.25.62.37.94a12.786,12.786,0,0,1-.91,1.31,10.511,10.511,0,0,1-.95,9.52,7.278,7.278,0,0,0-.64,1.39,7.311,7.311,0,0,0-.92,1.95,5.274,5.274,0,0,0,1.68-.83c2.8,3.03-.04,7.29,1.71,10.57,1.89,3.52,1.12,6.4-2.68,7.67a5.233,5.233,0,0,1-.97.1Zm-35.94,5.99a16.128,16.128,0,0,1-4.26-1.06,18.116,18.116,0,0,1-.91-1.78,4.586,4.586,0,0,1,.78-3.34c.58-.95.96-.81.96-.81.89-.29,2.13,1.01,2.21,1.38-.12.87-.16.71.26,2.28.36,1.36,1.13,2.27.95,3.32Zm3.25-.05a9.9,9.9,0,0,1-2.02.13,3.661,3.661,0,0,1-1.11-1.22s-.66-.94-1.06-5.17c.08-1.87-.14-1.96.52-2.85a2.583,2.583,0,0,1,2.13-.73c.91-.22,2.19.98,2.24,1.35l.28,5.43c.05.88.21,2.22-.66,2.99l-.33.06Zm6.63-3a.839.839,0,0,0-.41-.11,1.208,1.208,0,0,0-.18.05,2.18,2.18,0,0,1-2.42,2.21c-.38.03-1.74-1.33-1.77-1.71,0,0-.61-.97-.79-5.22.18-1.87-.04-1.96.67-2.82a2.54,2.54,0,0,1,2.16-.61c.92-.17,2.14,1.09,2.16,1.47v.6a.874.874,0,0,1,.36.01.372.372,0,0,1,.18.02v-.64c.03-.38,1.24-1.64,2.16-1.47a2.535,2.535,0,0,1,2.16.61c.71.86.49.96.67,2.82-.17,4.25-.79,5.22-.79,5.22a4.039,4.039,0,0,1-1.29,1.47,11.889,11.889,0,0,0-1.81-.08,2.2,2.2,0,0,1-1.08-1.83Zm48.62,8.71h0c-12.77-8.84-21.2-2.25-29.05,6.64.49-6.77,9.43-13.84,16.65-14.35,6.66-.47,10.55,1.48,12.4,7.71Zm-71.11,4.11c-8.81-9.33-12.45-10.18-23.93-5.46-.26.11-.64-.05-1.38-.14h.01c.8-4.44,3.93-6.3,10.11-6.27,8.44.03,17.68,6.49,19,14.32-1.71-1.08-2.97-1.56-3.81-2.45Z" fill="#fff" stroke="#000" stroke-miterlimit="10" stroke-width="1"/>
      <path id="Path_3733" data-name="Path 3733" d="M137.71,285.14c-7.53-3.13-15.15-6.07-22.64-9.3-9.44-4.06-18-9.35-24.22-17.87-2.4-3.29-2.59-5.64,1.06-8.3,5.17-3.77,5.14-5.73.89-10.46-4.16-4.63-4.39-9.33.76-12.72a36.2,36.2,0,0,1,14.21-5.06c6.21-.94,12.63-.46,18.96-.68,5.99-.21,10.11-5.05,9.88-11.78a10.318,10.318,0,0,0-2.75.86c-7.17,4.82-6.61,4.16-12.84-1.77-6.16-5.87-6.25-5.91-9.77,1.91-1.36,3-2.69,3.8-5.57,1.58-6.19-4.77-12.56-9.33-18.9-13.92a41.466,41.466,0,0,0-4.64-2.37c2.52,7.86,4.57,14.26,7.04,21.95-14.84-4.26-28.12-8.08-41.4-11.89-.28.49-.56.97-.84,1.45q18.36,16.35,36.73,32.7l-.45,1.47c-4.03.57-8.06,1.16-12.1,1.71-3.22.44-4.29,2.13-2.21,4.72,4.46,5.55,8.59,11.58,13.9,16.21,12.25,10.69,27.08,16.78,42.46,21.53,5.95,1.84,11.99,3.37,17.99,5.04h-.01c.19-.69.38-1.36.57-2.04-2.03-.99-4.02-2.1-6.11-2.97Z" fill="#fff" stroke="#000" stroke-miterlimit="10" stroke-width="1"/>
      <path id="Path_3734" data-name="Path 3734" d="M274.13,205.34l-41.49,11.9c2.6-7.92,4.72-14.35,6.83-20.78a7.358,7.358,0,0,0-4.65,1.52c-6.08,4.39-12.19,8.74-18.15,13.28-3.04,2.32-4.88,2.29-6.15-1.71-.71-2.25-2.06-4.3-3.53-7.26-3.23,3.06-5.92,5.26-8.16,7.84-2.68,3.08-5.22,3.65-8.55,1.05-1.42-1.1-3.28-1.64-5.43-2.67,1.66,9.54,4.5,12.1,12.71,12.29,5.66.14,11.33.24,16.99.49,5.45.24,10.6,1.48,14.55,5.61,4.05,4.24,4.18,7.77.59,11.88-4.92,5.63-4.91,6.85,1.07,11.43,2.7,2.07,3.48,4.24,1.01,6.59-5.38,5.11-10.43,10.91-16.67,14.69-7.77,4.7-16.59,7.68-24.97,11.35-4.02,1.77-8.1,3.42-12.15,5.13v.02c.18.56.37,1.13.55,1.7a25.667,25.667,0,0,0,4.76-.73c12.41-4.32,25.03-8.14,37.08-13.3a68.962,68.962,0,0,0,32.01-27c2.64-4.22,2.06-5.42-2.81-6.16q-5.295-.81-10.59-1.6l-.51-1.54q18.285-16.3,36.57-32.62c-.3-.47-.61-.93-.91-1.4Z" fill="#fff" stroke="#000" stroke-miterlimit="10" stroke-width="1"/>
      <path id="Path_3735" data-name="Path 3735" d="M204.42,258.34h0c-.38-.63-.75-1.26-1.13-1.89-1.36.68-2.76,1.3-4.08,2.05-5.56,3.17-11.09,3.19-16.51-.23-6.55-4.14-10.59-9.9-11.2-17.83a31.287,31.287,0,0,0-.93-4.31l-1.8.26c-1.81,4.85-.4,9.63,2,14.02,4.55,8.34,11.14,14.2,21.25,14.02a15.906,15.906,0,0,0,12.4-6.09Z" fill="#fff" stroke="#000" stroke-miterlimit="10" stroke-width="1"/>
      <path id="Path_3736" data-name="Path 3736" d="M114.24,256.55c1.9,4.78,6.54,7.84,12.19,7.91,9.88.12,16.46-5.46,21.07-13.55,2.58-4.52,3.9-9.46,1.44-14.72-4.5,18.97-12.66,30.92-34.7,20.36Z" fill="#fff" stroke="#000" stroke-miterlimit="10" stroke-width="1"/>
      <path id="Path_3737" data-name="Path 3737" d="M200.83,249.46c-4.57,2.49-9.44,3.11-14.11-.22a35.561,35.561,0,0,0-3.24-1.84h-.01c-.44.42-.88.83-1.32,1.25.96,1.3,1.69,2.92,2.93,3.84,4.98,3.68,15.75,2.7,20.1-1.65,4.57-4.57,3.53-14.27-2.27-16.82-2.05-.89-5.36-.03-7.57,1.07-1.1.55-1.04,3.45-1.51,5.34,3.2-1.44,5.34-2.4,7.48-3.37,1.06,2.46,2.81,4.89,2.94,7.4.09,1.65-1.78,4.11-3.42,5Z" fill="#fff" stroke="#000" stroke-miterlimit="10" stroke-width="1"/>
      <path id="Path_3738" data-name="Path 3738" d="M122.31,240.09c.26.33.84.41,2.92,1.34h.01c-.95-2.99-.98-5.69-2.26-6.55a9.268,9.268,0,0,0-6.73-1.22c-3.88,1.01-6.5,6.79-5.78,11.05a10.53,10.53,0,0,0,8.63,9.17c5.63,1.28,11.28,1.85,15.88-2.75.63-.64.62-1.93.9-2.91a8.156,8.156,0,0,0-4.77,1.55c-6.21,3.78-16.25.89-16.83-5.2a9.821,9.821,0,0,1,2.93-7.24c2.63-2.31,3.75,1.03,5.1,2.76Z" fill="#fff" stroke="#000" stroke-miterlimit="10" stroke-width="1"/>
      <path id="Path_3741" data-name="Path 3741" d="M158.83,107.31s-1.19,1.71-2.44,3.92a24.65,24.65,0,0,0-2.95,7.14c-.14.86.78,2.99,1.5,4.19a.9.9,0,0,0,.7.36c.72,0,1.59-.86,2.2-1.59a16.026,16.026,0,0,0,1.15-1.59,27.415,27.415,0,0,0,2.95,3.11.228.228,0,0,0,.11.03c.35,0,.97-.62,1.5-1.51a6.159,6.159,0,0,0,.97-3c0-1.09-1.55-4.04-2.84-6.32-1.4-2.47-2.83-4.71-2.84-4.74Z" fill="#fff" stroke="#000" stroke-miterlimit="10" stroke-width="1"/>
      <path id="Path_3742" data-name="Path 3742" d="M159.03,134.69l.18.35c-.01-.12-.02-.24-.02-.36-.05,0-.1.01-.16.01Z" fill="#fff" stroke="#000" stroke-miterlimit="10" stroke-width="1"/>
      <path id="Path_3743" data-name="Path 3743" d="M155.7,99.85a9.577,9.577,0,0,0-1.56-3.17,7.8,7.8,0,0,0-6.5-3.17,11.2,11.2,0,0,0-1.3.08c-.5.12-.96.23-1.37.33h0a87.5,87.5,0,0,0-10.66,3.15c-2.21,1.71-2.64,4.11-2.62,7.43-.52,3.75,4.3,8.72,8.42,9.84,3.71,0,5.45-.19,6.67-1.34,1.25-1.19,1.93-3.46,3.16-7.58h0c.34-1.13.72-2.4,1.17-3.84a2.865,2.865,0,0,1,1.91-1.45,7.867,7.867,0,0,1,2.16-.29c.33,0,.53.02.53.02Z" fill="#fff" stroke="#000" stroke-miterlimit="10" stroke-width="1"/>
      <path id="Path_3744" data-name="Path 3744" d="M186.36,104.49c.02-3.32-.41-5.72-2.62-7.43a86.464,86.464,0,0,0-10.66-3.15c-.41-.1-.86-.2-1.37-.33a11.339,11.339,0,0,0-1.3-.08,7.838,7.838,0,0,0-6.5,3.17,9.672,9.672,0,0,0-1.56,3.17h0c.16,0,.34-.01.53-.01h0a7.919,7.919,0,0,1,2.16.29,2.914,2.914,0,0,1,1.91,1.45c.45,1.43.83,2.71,1.17,3.84,1.23,4.12,1.91,6.39,3.16,7.58,1.21,1.15,2.96,1.34,6.67,1.34,4.12-1.12,8.94-6.09,8.42-9.84Z" fill="#fff" stroke="#000" stroke-miterlimit="10" stroke-width="1"/>
    </g>
  </g>
</svg>
