<svg id="utility-charm" xmlns="http://www.w3.org/2000/svg" width="60" height="60" viewBox="0 0 60 60">
  <rect id="Rectangle_3335" data-name="Rectangle 3335" width="60" height="60" fill="none"/>
  <g id="Layer_1-2" transform="translate(13 10)">
    <g id="Group_72" data-name="Group 72" transform="translate(0 0)">
      <path id="Path_2869" data-name="Path 2869" d="M2.856,13.8a7.04,7.04,0,0,1-.682.192c-.549.092-.71-.153-.506-.647.371-.9.281-2,1.217-2.672.218-.159.214-.636.295-.973a46.908,46.908,0,0,1,1.2-4.892A6.454,6.454,0,0,1,8.762.587,14.15,14.15,0,0,1,15.626.278a10.275,10.275,0,0,1,7.285,5.444.336.336,0,0,1,.063.16c-.11,1.494.983,1.632,2.05,1.925,2.967.816,5.915,1.7,8.867,2.571.643.19.854,1.3.535,2.155q-.923,2.479-1.752,4.989c-1.008,3.056-1.984,6.122-2.965,9.187-.725,2.265-1.428,4.534-2.153,6.8-.645,2.015-1.318,4.022-1.956,6.041-.284.9-.98.723-1.567.567-1.958-.523-3.893-1.137-5.845-1.677q-6.674-1.846-13.359-3.652c-1.2-.328-2.416-.629-3.623-.95C-.118,33.485-.263,33,.368,31.8a12.318,12.318,0,0,0,.762-2.3C2.076,26.238,3,22.971,3.956,19.714Q6.15,12.238,8.382,4.776c.385-1.292,1-1.513,2.31-1.112,2.47.755,4.963,1.436,7.446,2.151a9.3,9.3,0,0,0,.912.282,3.385,3.385,0,0,0,.725-.021c-.037-.265.023-.628-.127-.778a14.994,14.994,0,0,0-1.9-1.656A9.055,9.055,0,0,0,8.98,2.578,4.8,4.8,0,0,0,6.538,5.3c-.846,1.775-1.559,3.612-2.312,5.43-.071.173-.127.462-.037.577.915,1.158-.384,2.127-.263,3.211.01.089-.248.3-.368.291a.7.7,0,0,1-.469-.291,3.007,3.007,0,0,1-.23-.727Zm10.577,3.251c-.387-.619-.751-1.255-1.182-1.841-.1-.131-.427-.089-.652-.127.024.26-.051.645.092.758.551.443,1.17.8,1.764,1.187-.056.23-.113.462-.221.907-.652-.568-1.131-1.015-1.644-1.421a2.753,2.753,0,0,0-.783-.394c-.052-.019-.281.232-.262.272a2.841,2.841,0,0,0,.53.828c.338.31.769.52,1.124.814.127.1.153.329.225.5-.207.023-.46.131-.614.051-.275-.143-.462-.462-.741-.591a4.125,4.125,0,0,0-.988-.2c.162.289.256.68.5.849.551.38,1.163.638,1.264,1.435.023.173.352.37.577.443.825.265,1.675.452,2.495.73a6.126,6.126,0,0,1,1.07.619l-.12.242a1.046,1.046,0,0,1-.4.054c-1.088-.3-2.163-.652-3.26-.915-.368-.089-1.083-.066-1.131.077-.218.642.4.722.823.833.586.159,1.2.188,1.79.349a4.088,4.088,0,0,1,2.284.952,1.516,1.516,0,0,1-.9.119c-1.241-.284-2.47-.628-3.717-.889-.239-.051-.535.171-.805.265.174.228.3.558.532.661a6.087,6.087,0,0,0,1.189.237c.525.112.811.438.528.94-.5.894.174,1.593.34,2.367.037.166.5.241.764.357a2.7,2.7,0,0,0,.005-.846,8.675,8.675,0,0,1-.586-1.4c-.084-.689.549-1.056,1.424-.947.753.094,1.184.546.889,1.159-.7,1.47.645,2.061,1.182,2.988.07.122.5.035.764.044-.052-.256-.03-.575-.176-.757a8.927,8.927,0,0,0-.865-.715,1.584,1.584,0,0,1,.366-2.523.875.875,0,0,1,.825.127,2.365,2.365,0,0,1,.76,1.142C18.744,27.2,20,27.373,20.95,27.9c.148.082.509-.218.772-.342a3.2,3.2,0,0,0-.568-.57c-.155-.094-.4-.014-.6-.066a2.176,2.176,0,0,1-1.538-1.412c-.258-.662.166-.975.549-1.4a2.161,2.161,0,0,0,.554-1.327,20.009,20.009,0,0,0-.361-2.441,6.069,6.069,0,0,1-.005-.854c.279.152.7.237.807.467a11.392,11.392,0,0,1,.551,1.785c.07.249.108.506.19.9a4.712,4.712,0,0,0,.657-.554,5.658,5.658,0,0,0,.947-5.589,5.108,5.108,0,0,0-4.4-3.372,2.041,2.041,0,0,0-1.731.612,2.847,2.847,0,0,0,.3,1.935c.2.488.612.368.79-.127.134-.371.281-.863.732-.54a1.9,1.9,0,0,1,.778,1.22,4.829,4.829,0,0,1-.507,1.628,1.353,1.353,0,0,0-1.851-.005c-.113.092-.478,0-.64-.119a5.946,5.946,0,0,1-1.069-.99c-.636-.791-1.2-1.642-1.843-2.427-.126-.153-.486-.113-.739-.164a2.371,2.371,0,0,0,.1.7c.092.2.317.335.457.52.352.462.69.936,1.166,1.586l-1.018.089Zm12.16,3.818c-.187-.492-.471-1.3-.818-2.09-.063-.143-.385-.239-.579-.228-.1.005-.244.309-.248.478a5.575,5.575,0,0,1-2.634,4.721c-.162.11-.239.343-.356.52.23.065.481.221.689.174a18.243,18.243,0,0,0,2.08-.591,2.909,2.909,0,0,0,1.865-2.985ZM20.148,3.943l-.127.1,1.4,1.912.309-.242q-.79-.886-1.578-1.775Z" transform="translate(-0.006 0.001)" fill="#fff"/>
      <path id="Path_2870" data-name="Path 2870" d="M74.563,110.522a2.35,2.35,0,0,1,.711-.033,24.361,24.361,0,0,1,2.4.734c.19.071.277.422.411.643-.228.042-.483.167-.683.11-.748-.218-1.484-.483-2.214-.757a5.169,5.169,0,0,1-.7-.392l.073-.3Z" transform="translate(-61.505 -91.209)" fill="#fff"/>
    </g>
  </g>
</svg>
