<svg id="Component_307_1" data-name="Component 307 – 1" xmlns="http://www.w3.org/2000/svg" width="342.24" height="342.24" viewBox="0 0 342.24 342.24">
  <g id="Component_230_26" data-name="Component 230 – 26">
    <g id="Rectangle_3295" data-name="Rectangle 3295" transform="translate(171.12) rotate(45)" fill="#fff" stroke="#000" stroke-width="3">
      <rect width="242" height="242" stroke="none"/>
      <rect x="1.5" y="1.5" width="239" height="239" fill="none"/>
    </g>
    <g id="Rectangle_3296" data-name="Rectangle 3296" transform="translate(171.421 30) rotate(45)" stroke="#000" stroke-width="3">
      <rect width="200" height="200" stroke="none"/>
      <rect x="1.5" y="1.5" width="197" height="197" fill="none"/>
    </g>
  </g>
  <g id="Group_306" data-name="Group 306" transform="translate(26.01 13.78)">
    <path id="Path_3959" data-name="Path 3959" d="M120.84,173.06v-5.89l-4.13-2.56-5.31-.98v2.75L92.15,184.26l28.69-8.64Z" fill="#fff"/>
    <path id="Path_3960" data-name="Path 3960" d="M127.52,186.81l-4.52.99-2.16-1.97-2.95,1.97-13.17,34.18,3.34-1.37,24.76-33.6v-3.54l-2.75.79Z" fill="#fff"/>
    <path id="Path_3961" data-name="Path 3961" d="M166.71,186.23a11.2,11.2,0,0,0-6.52-2.13c-2.08.04-3.24.78-7.01,1.43-1.81.31-3.3.44-4.24.51l-4.13-2.55a7.672,7.672,0,0,0-4.91-2.55,7.013,7.013,0,0,0-2.36.2l-1.96,2.36h3.34l2.36.79,1.01,5.3q3.135,17,6.26,33.99,2.85-16.89,5.7-33.79l7.07-.39,15.72,21.81q-3.15-11.295-6.29-22.59c-1.34-.79-2.69-1.57-4.03-2.36Z" fill="#fff"/>
    <path id="Path_3962" data-name="Path 3962" d="M102.96,147.72l-21.02,6.09q10.02,1.47,20.04,2.95c.33-3.01.65-6.03.98-9.04Z" fill="#fff"/>
    <path id="Path_3963" data-name="Path 3963" d="M113.17,132.59v-1.77l-6.68-10.61v-4.12l-22.2-7.67,25.54,25.15Z" fill="#fff"/>
    <path id="Path_3964" data-name="Path 3964" d="M143.23,114.51v-3.93l-4.52-.59q-4.62-8.94-9.23-17.88-1.08,16.215-2.16,32.42l11.59-2.55Z" fill="#fff"/>
    <path id="Path_3965" data-name="Path 3965" d="M143.23,122.96l7.27,1.57,4.91-1.77v-3.14c-1.18-2.69-2.36-5.37-3.54-8.06l-1.57-3.14c-.98.82-1.96,1.64-2.95,2.46q-2.07,5.055-4.13,10.12v1.96Z" fill="#fff"/>
    <path id="Path_3966" data-name="Path 3966" d="M153.06,103.71V92.12l-3.74,12.96,3.74,1.58Z" fill="#fff"/>
    <path id="Path_3967" data-name="Path 3967" d="M163.47,116.48l-4.13.98v4.72l7.27-4.92Z" fill="#fff"/>
    <path id="Path_3968" data-name="Path 3968" d="M182.53,107.44l2.35.98-2.35,7.08v.98l14.14-19.84Z" fill="#fff"/>
    <path id="Path_3969" data-name="Path 3969" d="M190.78,127.28,200.8,121l-12.58,4.91Z" fill="#fff"/>
    <path id="Path_3970" data-name="Path 3970" d="M183.9,136.13l8.06.98,6.28-3.54H184.69Z" fill="#fff"/>
    <path id="Path_3971" data-name="Path 3971" d="M206.49,160.29l-12.96-5.3-7.47,5.3Z" fill="#fff"/>
    <path id="Path_3972" data-name="Path 3972" d="M178.2,168.35l7.86,1.57-3.53-6.29Z" fill="#fff"/>
    <path id="Path_3973" data-name="Path 3973" d="M188.22,177.19l-14.73-4.91v7.07l37.92,25.74h2.55Z" fill="#fff"/>
    <path id="Path_3974" data-name="Path 3974" d="M99.81,89.76V86.22H96.08v1.97l2.65,1.57Z" fill="#fff"/>
    <path id="Path_3975" data-name="Path 3975" d="M85.57,128.27,78.2,126.5v3.44c1.08.69,2.16,1.37,3.24,2.06l4.72.69C85.96,131.22,85.77,129.74,85.57,128.27Z" fill="#fff"/>
    <path id="Path_3976" data-name="Path 3976" d="M196.04,213.33c-.04,1.49-.08,2.97-.12,4.46,2.33.97,4.66,1.95,6.99,2.92l.55-3.39c-.96-.85-1.91-1.7-2.87-2.55l-4.54-1.43Z" fill="#fff"/>
    <path id="Path_3977" data-name="Path 3977" d="M98.25,97.93l1.46,3.47,1.06.79,2.58-3.47L99.68,96Z" fill="#fff"/>
    <path id="Path_3978" data-name="Path 3978" d="M120.84,99.39V97.62h-1.87v.98l1.32.79Z" fill="#fff"/>
    <path id="Path_3979" data-name="Path 3979" d="M75.99,173.57l.48,1.88,2.92.85,1.03-.26-.87-3.38Z" fill="#fff"/>
    <path id="Path_3980" data-name="Path 3980" d="M94.01,205.04l1.11,1.58,3.03-.22.88-.62-2-2.86Z" fill="#fff"/>
    <path id="Path_3981" data-name="Path 3981" d="M171.67,224.67l.91,3.57,1.88-.49.85-2.92-.26-1.03Z" fill="#fff"/>
    <path id="Path_3982" data-name="Path 3982" d="M131.05,172.86c-1.14-2.85.55-6.34,1.57-6.31,1.06.03,1.77,3.87,2.07,5.82a7.015,7.015,0,0,0,3.93,2.95c2.4.57,4.81-.65,5.21.1.24.46-.62.98-.59,1.96.04,1.23,1.42,2.11,2.46,2.75.33.21,5.38,3.25,8.15,1.38.44-.3,1.21-.98,1.77-1.47,1.33-1.18,1.38-1.39,1.77-1.57,1.14-.54,2.18.53,4.81,1.77,2.74,1.29,3.22.89,7.86,2.85.68.29,1.22.53,1.57.69a14.6,14.6,0,0,1-1.67-3.93c-.92-3.57,0-5.75-.2-11.1-.06-1.66-.2-2.98-.29-3.73,3.69.93,7.09.59,8.72-1.01a8.513,8.513,0,0,0,1.01-1.25,7.682,7.682,0,0,0,1.18-4.22,8.187,8.187,0,0,0-2.95-5.6c-1.19-1.13-3.33-3.17-5.41-2.45a3.955,3.955,0,0,0-2.45,4.11c.17.67.66,1.12.59,1.18a3.306,3.306,0,0,1-1.77-1.87,4.4,4.4,0,0,1,1.57-4.72c2.66-2.01,7.11.72,7.37.88,2.62,1.64,2.29,3.21,4.62,4.32a7.687,7.687,0,0,0,7.37-.49c2.76-1.83,4.13-5.59,3.14-8.15-1.31-3.4-7.37-5.87-9.73-6.58a4.282,4.282,0,0,1-2.16-1.28c-1.32-1.56.14-3.44-.79-4.62-1.37-1.76-5.6.75-7.37-.98-.64-.63-1.09-1.95-.2-5.01l7.86-17.19q-8.445,7.815-16.9,15.62a13.2,13.2,0,0,1-3.63.79c-3.47.23-4.88-1.14-6.68-.2-1.75.92-1.39,2.73-2.85,3.14-1.56.44-2.49-1.36-5.21-2.75a10.17,10.17,0,0,0-10.41.79,8.04,8.04,0,0,0-2.36,3.14l-22.2-12.18c.39,1.08.79,2.16,1.18,3.24a43.09,43.09,0,0,1,8.84,10.51c.63,1.07,1.87,3.3,1.18,4.03-.79.83-3.03-1.38-5.3-.69-3.33,1.02-4.77,8.42-2.75,10.12.37.31.89.46.88.79,0,.6-1.89.6-3.73,1.67a7.588,7.588,0,0,0-3.14,3.54,7.176,7.176,0,0,0,.1,5.6c1.05,2.11,3.04,2.92,5.5,3.93a22.332,22.332,0,0,0,5.31,1.28c3.78.63,6.01.97,7.36-.3.85-.81.92-1.86,1.22-1.81.47.08.51,2.8.26,5.45-.41,4.27-1.42,6.4-2.36,10.12a50.505,50.505,0,0,0-1.38,8.84,27.555,27.555,0,0,1,5.8-2.85,13.765,13.765,0,0,0,4.03-1.67,8.587,8.587,0,0,0,2.85-3.83c-.34-.07-3.51-.78-4.62-3.54Zm22.56-2.53c.59-.74,3.63-4.71,2.78-9.75-.22-1.33-.79-4.72-3.34-6.29-1.1-.67-2.12-.74-2.16-1.28-.07-.87,2.42-2.35,4.03-1.67,1.81.77,1.29,3.76,2.75,4.13.95.24,2.21-.89,4.72-3.14,1.48-1.33,1.89-1.9,2.46-1.77,1.07.24,1.94,2.75,1.08,4.03-.92,1.37-3.06.15-4.81,1.67-1.13.98-1.32,2.42-1.67,5.01-.12.9-.53,3.93.29,4.22.73.26,1.91-1.83,2.16-1.67.29.18-.81,3.23-3.14,5.99a13.255,13.255,0,0,1-4.42,3.73c-3.66,1.79-9.04,1.86-10.41-.49-.85-1.46-.15-3.83.49-3.93.45-.07.71.98,1.47,1.67,1.01.91,3.1,1.36,7.73-.46Zm-27.77-19.97c-.77,1.94,2.04,4.51,1.28,5.3-.26.27-.76.16-1.08.1-1.81-.37-3.39-2.56-3.54-4.62-.19-2.67,2-5.43,4.52-6.29,3.54-1.2,6.04,1.95,8.93.31,1.65-.93,1.21-2.17,3.06-3.06a6.581,6.581,0,0,1,6.68.98c1.34,1.08,2.41,2.89,1.96,3.44-.59.73-3.02-1.76-5.4-.88-2.27.83-2.06,3.81-5.01,5.01a4.864,4.864,0,0,1-2.46.39c-2.27-.27-2.69-2.2-4.72-2.55-1.62-.28-3.7.55-4.22,1.87Z" fill="#fff"/>
  </g>
</svg>
