<svg id="wrath-of-sarugami-katana" xmlns="http://www.w3.org/2000/svg" width="60" height="60" viewBox="0 0 60 60">
  <rect id="Rectangle_3346" data-name="Rectangle 3346" width="60" height="60" fill="none"/>
  <g id="Layer_1-2" transform="translate(-1.997 -8.604)">
    <g id="Group_50" data-name="Group 50" transform="translate(8.997 19.604)">
      <path id="Path_2651" data-name="Path 2651" d="M45.181,16.713a1.4,1.4,0,0,1-.674,1.47c-5.189,4.353-10.27,8.838-15.593,13.03-.943.742-1.8,1.6-2.709,2.378-.118.1-.621.478-1.322.965-.992.688-1.859,1.22-2.52,1.6a69.7,69.7,0,0,0,6.105-6.344c.038-.046.078-.091.116-.137q1-.971,1.988-1.94c.462-.441.927-.879,1.389-1.319.833-.79,1.008-1.008,1.5-1.483.473-.457,1.172-1.1,2.088-1.833.739-.521,2.254-1.679,2-2.456-.164-.494-.981-.626-1.335-.691-3.523-.648-6.828-2.209-10.321-3.007-1.346-.306-3.278-.769-5.619-1.4-4.211-1.142-8.411-2.324-12.635-3.413-2.2-.567-4.326-1.376-6.578-1.736C.632,10.337.019,10.283,0,9.775c-.027-.623.621-.47,1.029-.554q6.34-1.33,12.683-2.663,8.436-1.773,16.867-3.55c4.528-.954,9.058-1.9,13.583-2.87,1.448-.312,1.72-.113,1.709,1.419-.013,1.873.1,3.775-1.317,5.3l-.374.395c-2.789,2.109-5.439,4.4-8.351,6.347-.4.269-.846.468-1.271.7-.443-.672.1-.97.513-1.287,2.021-1.534,4.092-3,6.065-4.6a16.356,16.356,0,0,0,3.378-2.948c.15-1.051.312-2.1.446-3.155.043-.333.177-.793-.333-.857-.586-.073-.583.427-.594.82C44,3.248,44,4.224,43.988,5.2c-3.13,2.332-6.28,4.641-9.383,7.008a4.753,4.753,0,0,1-6.038.279l.615-.521.664-.486,1.483-1.067L31.907,10a25.7,25.7,0,0,1,3.042-1.921c.089-.038.492-.226.559-.511a.447.447,0,0,0-.046-.293c-.193-.416-.623-.258-.957-.191-1.518.306-3.028.658-4.549.946-4.286.817-8.577,1.6-12.86,2.418-.363.07-.943.013-.943.529a.456.456,0,0,0,.054.228c.172.312.873.368.873.368.672.046,3.73.572,8.01,1.341,2.666.478,1.956.527,9.453,1.894,1.26.231,2.3.408,3,.527.288.043.575.083.86.126l6.788,1.255Z" transform="translate(0.003 -0.014)" fill="#fff"/>
      <path id="Path_2652" data-name="Path 2652" d="M64.374,63.7l.8-.459a7.318,7.318,0,0,0,1.491.451c.766.312,1.792.185,2.171,1.2-1.808,1.5-4.033,2.539-5.385,4.541.091.11.183.22.274.328l5.5-4.283a3.308,3.308,0,0,1,2.007-.613c-.559,1.655-2.268,2.026-3.429,2.993-1.419,1.182-3.047,2.1-4.45,3.332a12.71,12.71,0,0,1-2.4,1.389.79.79,0,0,1-1.129-.336c-.25-.368-.5-.734-.758-1.1q-1.6-2.262.656-3.985c.814-.618,1.642-1.22,2.456-1.83a.971.971,0,0,0,.777-.513q.649-.512,1.3-1.024l.094-.005.032-.091Z" transform="translate(-42.708 -46.251)" fill="#fff"/>
      <path id="Path_2653" data-name="Path 2653" d="M41.5,90.377q-4.047-5.631-8.1-11.259c-.215-.3-.478-.685-.11-.938.438-.3.691.113.927.468.47.7.994,1.37,1.462,2.074.414.623.86.922,1.494.3.683-.669,1.193-.341,1.655.266.564.744,1.1,1.515,1.687,2.238.339.416.669.8.118,1.236a.934.934,0,0,1-1.416-.169c-.322-.392-.6-.83-1.349-.777l3.391,4.5.374.4.159.279c.073.5.9,1.153-.3,1.381Zm-3.877-7.545-.075-.008.03.075Z" transform="translate(-24.209 -57.101)" fill="#fff"/>
      <path id="Path_2654" data-name="Path 2654" d="M3.989,128.895a1.924,1.924,0,0,1-1.384-1.72.883.883,0,0,1,.967-1.018,2.109,2.109,0,0,1,1.521,1.811c.14.637-.5.83-1.1.927Z" transform="translate(-1.9 -92.252)" fill="#fff"/>
      <path id="Path_2655" data-name="Path 2655" d="M31.474,106.41c.6.091,1.228.223,1.212.975-.013.664-.306,1.233-1.118,1.223-.669-.008-1.112-.325-1.118-1.04A1.041,1.041,0,0,1,31.474,106.41Z" transform="translate(-22.267 -77.821)" fill="#fff"/>
      <path id="Path_2656" data-name="Path 2656" d="M21.078,115.03c.691-.027,1.008.255.951.951-.054.674-.3,1.115-1.053,1.018-.529-.067-1.123-.134-1.059-.887C19.976,115.417,20.3,114.938,21.078,115.03Z" transform="translate(-14.561 -84.116)" fill="#fff"/>
      <path id="Path_2657" data-name="Path 2657" d="M42.913,101.4c.016.357-.215.473-.5.489a.691.691,0,0,1-.817-.793c.008-.3.019-.731.449-.621a1.374,1.374,0,0,1,.868.924Z" transform="translate(-30.42 -73.465)" fill="#fff"/>
      <path id="Path_2658" data-name="Path 2658" d="M12.381,123.27c.486.118.871.368.884.949.005.269-.081.626-.408.519a1.394,1.394,0,0,1-.879-1.048c-.059-.245.11-.4.4-.419Z" transform="translate(-8.75 -90.15)" fill="#fff"/>
      <path id="Path_2659" data-name="Path 2659" d="M81.8,133c.223-1.043.873-1.446,1.841-1.765-.279.266-1,.957-1.276,1.225L81.8,133Z" transform="translate(-59.819 -95.971)" fill="#fff"/>
      <path id="Path_2660" data-name="Path 2660" d="M49.7,95.748l-.046.067-.03-.075Z" transform="translate(-36.286 -70.018)" fill="#fff"/>
    </g>
  </g>
</svg>
